<svg width="88" height="62" viewBox="0 0 88 62" fill="none" xmlns="http://www.w3.org/2000/svg">
<g clip-path="url(#clip0_9436_241)">
<path d="M69.6852 44.6012H69.649C67.7992 44.6012 66.2759 43.1323 66.2759 41.2826V34.0106C66.2759 29.2231 62.3952 25.3605 57.6258 25.3605C52.8383 25.3605 48.9756 29.2413 48.9756 34.0106V58.8186C48.9756 59.7253 49.1207 60.5958 49.3746 61.4118H78.3716V53.2513C78.3535 48.4819 74.4727 44.6012 69.6852 44.6012Z" fill="#ECF5FF"/>
<path d="M78.3535 54.4119C76.4675 53.2332 74.2188 52.6529 72.0064 52.8342C69.1412 53.07 66.421 54.6114 64.662 56.8782C64.7164 56.4611 64.7164 56.0078 64.662 55.6088C64.2086 51.5648 62.5584 47.4664 59.3304 44.9639C56.4108 42.7152 52.0948 42.1349 48.9756 43.9665V58.8186C48.9756 59.7253 49.1207 60.5958 49.3746 61.4118H78.3716V54.4119H78.3535Z" fill="#C7E2FF"/>
<path d="M31.1859 0.842651C26.2352 0.842651 22.2275 4.85037 22.2275 9.80109V17.345C22.2275 19.2673 20.6498 20.7906 18.7275 20.7906H18.6912C13.7224 20.7906 9.71466 24.7983 9.71466 29.749V61.2305H27.6497V47.9016C27.6497 45.9794 29.2274 44.4561 31.1496 44.4561C31.1678 44.4561 31.1678 44.4561 31.1859 44.4561C36.1366 44.4561 40.1443 40.4484 40.1443 35.4977V9.80109C40.1443 4.85037 36.1366 0.842651 31.1859 0.842651Z" fill="#ECF5FF"/>
<path d="M36.7169 33.1223C34.7221 32.4332 32.5097 32.9409 30.6056 33.8658C24.8932 36.586 21.1575 43.0056 21.5927 49.3164C17.6032 47.5573 12.7431 49.1894 9.71466 52.3267V61.2307H27.6497V47.9019C27.6497 45.9796 29.2274 44.4563 31.1496 44.4563H31.1859C35.9371 44.4563 39.8179 40.7569 40.1262 36.0782C39.3283 34.7363 38.1677 33.63 36.7169 33.1223Z" fill="#C7E2FF"/>
<path d="M53.1831 29.7852C53.1831 30.0028 53.2012 30.2205 53.1831 30.4381C53.1649 30.6557 53.0924 30.8733 53.0561 31.0909C53.0199 31.3085 53.0561 31.5261 53.0017 31.7437C52.9655 31.9614 52.8567 32.1608 52.8023 32.3603C52.7478 32.5779 52.7478 32.7955 52.6753 33.0132C52.6028 33.2126 52.4758 33.4121 52.3852 33.6116C52.2945 33.8111 52.2401 34.0287 52.1494 34.2282C52.0406 34.4277 51.9318 34.609 51.823 34.7903C51.7142 34.9717 51.5691 35.153 51.4422 35.3162C51.3152 35.4976 51.2064 35.6789 51.0613 35.8603C50.9163 36.0235 50.7531 36.1686 50.5898 36.3318C50.4448 36.495 50.2816 36.6401 50.1183 36.7851C49.9551 36.9302 49.7919 37.0753 49.6287 37.2022C49.4655 37.3473 49.2842 37.4742 49.1028 37.6012C48.9215 37.7281 48.7764 37.9095 48.595 38.0183C48.4137 38.1271 48.178 38.1634 47.9785 38.2722C47.779 38.381 47.6158 38.526 47.4163 38.6167C47.2168 38.7074 47.0174 38.7799 46.7997 38.8525C46.6003 38.925 46.3826 38.9794 46.165 39.0519C45.9474 39.1063 45.7298 39.1245 45.5122 39.1789C45.2946 39.2152 45.0951 39.324 44.8775 39.3421C44.6599 39.3784 44.4423 39.3784 44.2246 39.3965C44.007 39.4146 43.7894 39.3965 43.5718 39.3965C43.3542 39.3965 43.1366 39.3965 42.919 39.3965C42.7013 39.3784 42.4837 39.324 42.2661 39.3058C42.0485 39.2696 41.8309 39.2333 41.6314 39.1789C41.4138 39.1426 41.1962 39.0882 40.9967 39.0338C40.7791 38.9794 40.5796 38.8887 40.3801 38.8162C40.1807 38.7437 39.9449 38.7255 39.7454 38.6349C39.5459 38.5442 39.3646 38.4172 39.1651 38.3084C38.9656 38.1996 38.748 38.1452 38.5667 38.0364C38.3853 37.9276 38.2221 37.7644 38.0408 37.6375C37.8594 37.5105 37.6781 37.3836 37.5149 37.2385C37.3517 37.0934 37.1522 36.9846 36.989 36.8395C36.8258 36.6945 36.6988 36.5131 36.5356 36.3499C36.3905 36.1867 36.2273 36.0235 36.1004 35.8603C35.9553 35.6971 35.8465 35.4976 35.7196 35.3344C35.5926 35.153 35.4657 34.9717 35.3569 34.7903C35.2481 34.609 35.1755 34.3914 35.0667 34.1919C34.9579 33.9924 34.8672 33.8111 34.7766 33.6116C34.6859 33.4121 34.5408 33.2308 34.4683 33.0313C34.3958 32.8318 34.4139 32.5961 34.3413 32.3785C34.2869 32.1608 34.2325 31.9614 34.1963 31.7437C34.16 31.5261 34.1056 31.3267 34.0693 31.109C34.0331 30.8914 34.0331 30.6738 34.0149 30.4562C33.9968 30.2386 33.9243 30.021 33.9243 29.8034C33.9243 29.5857 33.9605 29.3681 33.9787 29.1505C33.9968 28.9329 34.0331 28.7153 34.0693 28.4977C34.1056 28.2801 34.1056 28.0624 34.1419 27.8448C34.1781 27.6272 34.1963 27.4096 34.2507 27.192C34.3051 26.9744 34.3776 26.7749 34.4502 26.5573C34.5227 26.3578 34.5952 26.1402 34.6859 25.9407C34.7766 25.7412 34.9035 25.5599 34.9942 25.3604C35.103 25.1609 35.1755 24.9615 35.2843 24.7801C35.3931 24.5988 35.5564 24.4356 35.6833 24.2542C35.8102 24.0729 35.9553 23.9097 36.0823 23.7464C36.2273 23.5832 36.318 23.3838 36.4631 23.2205C36.6082 23.0573 36.7714 22.8941 36.9346 22.749C37.0978 22.604 37.261 22.4589 37.4423 22.332C37.6056 22.1869 37.8232 22.1143 38.0045 21.9874C38.1859 21.8605 38.3491 21.7335 38.5485 21.6066C38.7299 21.4978 38.9294 21.4071 39.1289 21.2983C39.3283 21.1895 39.5278 21.1169 39.7273 21.0263C39.9268 20.9356 40.1262 20.8449 40.3257 20.7724C40.5252 20.6999 40.7428 20.6636 40.9604 20.6092C41.178 20.5548 41.3594 20.446 41.577 20.3916C41.7946 20.3553 42.0122 20.3009 42.2298 20.2828C42.4475 20.2465 42.6651 20.3009 42.8827 20.2828C43.1003 20.2646 43.3179 20.174 43.5355 20.174C43.7531 20.174 43.9708 20.1921 44.1884 20.2102C44.406 20.2284 44.6236 20.319 44.8412 20.3372C45.0588 20.3734 45.2946 20.319 45.4941 20.3734C45.7117 20.4097 45.9111 20.5366 46.1106 20.591C46.3282 20.6454 46.5459 20.6636 46.7453 20.7361C46.9448 20.8087 47.1624 20.8812 47.3619 20.9537C47.5614 21.0444 47.7427 21.1713 47.9422 21.2802C48.1417 21.389 48.3593 21.4434 48.5406 21.5522C48.722 21.661 48.9033 21.7879 49.0847 21.9149C49.266 22.0418 49.393 22.2231 49.5562 22.3682C49.7194 22.5133 49.9007 22.6402 50.0639 22.7853C50.2272 22.9304 50.4085 23.0573 50.5536 23.2205C50.6987 23.3838 50.8437 23.547 50.9707 23.7283C51.1157 23.8915 51.2608 24.0729 51.3696 24.2361C51.4966 24.4174 51.5872 24.6169 51.7142 24.7982C51.823 24.9796 51.9318 25.1791 52.0406 25.3604C52.1494 25.5599 52.2582 25.7412 52.3489 25.9407C52.4396 26.1402 52.494 26.3578 52.5665 26.5573C52.639 26.7568 52.6753 26.9744 52.7297 27.192C52.7841 27.4096 52.9111 27.591 52.9473 27.8086C52.9836 28.0262 53.0017 28.2438 53.0199 28.4614C53.0561 28.679 53.0743 28.8966 53.0924 29.1142C53.1831 29.35 53.1831 29.5676 53.1831 29.7852Z" fill="#E7E9EA"/>
<path d="M53.1831 29.7852C53.1831 30.0028 53.2012 30.2205 53.1831 30.4381C53.1649 30.6557 53.0924 30.8733 53.0561 31.0909C53.0199 31.3085 53.0561 31.5261 53.0017 31.7437C52.9655 31.9614 52.8567 32.1608 52.8023 32.3603C52.7478 32.5779 52.7478 32.7955 52.6753 33.0132C52.6028 33.2126 52.4758 33.4121 52.3852 33.6116C52.2945 33.8111 52.2401 34.0287 52.1494 34.2282C52.0406 34.4277 51.9318 34.609 51.823 34.7903C51.7142 34.9717 51.5691 35.153 51.4422 35.3162C51.3152 35.4976 51.2064 35.6789 51.0613 35.8603C50.9163 36.0235 50.7531 36.1686 50.5898 36.3318C50.4448 36.495 50.2816 36.6401 50.1183 36.7851C49.9551 36.9302 49.7919 37.0753 49.6287 37.2022C49.4655 37.3473 49.2842 37.4742 49.1028 37.6012C48.9215 37.7281 48.7764 37.9095 48.595 38.0183C48.4137 38.1271 48.178 38.1634 47.9785 38.2722C47.779 38.381 47.6158 38.526 47.4163 38.6167C47.2168 38.7074 47.0174 38.7799 46.7997 38.8525C46.6003 38.925 46.3826 38.9794 46.165 39.0519C45.9474 39.1063 45.7298 39.1245 45.5122 39.1789C45.2946 39.2152 45.0951 39.324 44.8775 39.3421C44.6599 39.3784 44.4423 39.3784 44.2246 39.3965C44.007 39.4146 43.7894 39.3965 43.5718 39.3965C43.3542 39.3965 43.1366 39.3965 42.919 39.3965C42.7013 39.3784 42.4837 39.324 42.2661 39.3058C42.0485 39.2696 41.8309 39.2333 41.6314 39.1789C41.4138 39.1426 41.1962 39.0882 40.9967 39.0338C40.7791 38.9794 40.5796 38.8887 40.3801 38.8162C40.1807 38.7437 39.9449 38.7255 39.7454 38.6349C39.5459 38.5442 39.3646 38.4172 39.1651 38.3084C38.9656 38.1996 38.748 38.1452 38.5667 38.0364C38.3853 37.9276 38.2221 37.7644 38.0408 37.6375C37.8594 37.5105 37.6781 37.3836 37.5149 37.2385C37.3517 37.0934 37.1522 36.9846 36.989 36.8395C36.8258 36.6945 36.6988 36.5131 36.5356 36.3499C36.3905 36.1867 36.2273 36.0235 36.1004 35.8603C35.9553 35.6971 35.8465 35.4976 35.7196 35.3344C35.5926 35.153 35.4657 34.9717 35.3569 34.7903C35.2481 34.609 35.1755 34.3914 35.0667 34.1919C34.9579 33.9924 34.8672 33.8111 34.7766 33.6116C34.6859 33.4121 34.5408 33.2308 34.4683 33.0313C34.3958 32.8318 34.4139 32.5961 34.3413 32.3785C34.2869 32.1608 34.2325 31.9614 34.1963 31.7437C34.16 31.5261 34.1056 31.3267 34.0693 31.109C34.0331 30.8914 34.0331 30.6738 34.0149 30.4562C33.9968 30.2386 33.9243 30.021 33.9243 29.8034C33.9243 29.5857 33.9605 29.3681 33.9787 29.1505C33.9968 28.9329 34.0331 28.7153 34.0693 28.4977C34.1056 28.2801 34.1056 28.0624 34.1419 27.8448C34.1781 27.6272 34.1963 27.4096 34.2507 27.192C34.3051 26.9744 34.3776 26.7749 34.4502 26.5573C34.5227 26.3578 34.5952 26.1402 34.6859 25.9407C34.7766 25.7412 34.9035 25.5599 34.9942 25.3604C35.103 25.1609 35.1755 24.9615 35.2843 24.7801C35.3931 24.5988 35.5564 24.4356 35.6833 24.2542C35.8102 24.0729 35.9553 23.9097 36.0823 23.7464C36.2273 23.5832 36.318 23.3838 36.4631 23.2205C36.6082 23.0573 36.7714 22.8941 36.9346 22.749C37.0978 22.604 37.261 22.4589 37.4423 22.332C37.6056 22.1869 37.8232 22.1143 38.0045 21.9874C38.1859 21.8605 38.3491 21.7335 38.5485 21.6066C38.7299 21.4978 38.9294 21.4071 39.1289 21.2983C39.3283 21.1895 39.5278 21.1169 39.7273 21.0263C39.9268 20.9356 40.1262 20.8449 40.3257 20.7724C40.5252 20.6999 40.7428 20.6636 40.9604 20.6092C41.178 20.5548 41.3594 20.446 41.577 20.3916C41.7946 20.3553 42.0122 20.3009 42.2298 20.2828C42.4475 20.2465 42.6651 20.3009 42.8827 20.2828C43.1003 20.2646 43.3179 20.174 43.5355 20.174C43.7531 20.174 43.9708 20.1921 44.1884 20.2102C44.406 20.2284 44.6236 20.319 44.8412 20.3372C45.0588 20.3734 45.2946 20.319 45.4941 20.3734C45.7117 20.4097 45.9111 20.5366 46.1106 20.591C46.3282 20.6454 46.5459 20.6636 46.7453 20.7361C46.9448 20.8087 47.1624 20.8812 47.3619 20.9537C47.5614 21.0444 47.7427 21.1713 47.9422 21.2802C48.1417 21.389 48.3593 21.4434 48.5406 21.5522C48.722 21.661 48.9033 21.7879 49.0847 21.9149C49.266 22.0418 49.393 22.2231 49.5562 22.3682C49.7194 22.5133 49.9007 22.6402 50.0639 22.7853C50.2272 22.9304 50.4085 23.0573 50.5536 23.2205C50.6987 23.3838 50.8437 23.547 50.9707 23.7283C51.1157 23.8915 51.2608 24.0729 51.3696 24.2361C51.4966 24.4174 51.5872 24.6169 51.7142 24.7982C51.823 24.9796 51.9318 25.1791 52.0406 25.3604C52.1494 25.5599 52.2582 25.7412 52.3489 25.9407C52.4396 26.1402 52.494 26.3578 52.5665 26.5573C52.639 26.7568 52.6753 26.9744 52.7297 27.192C52.7841 27.4096 52.9111 27.591 52.9473 27.8086C52.9836 28.0262 53.0017 28.2438 53.0199 28.4614C53.0561 28.679 53.0743 28.8966 53.0924 29.1142C53.1831 29.35 53.1831 29.5676 53.1831 29.7852Z" stroke="#414C58" stroke-width="0.42039" stroke-miterlimit="10" stroke-linecap="round"/>
<path d="M33.6521 51.5285C33.6521 51.7461 33.6703 51.9637 33.6521 52.1814C33.634 52.399 33.5615 52.6166 33.5252 52.8342C33.4889 53.0518 33.5252 53.2694 33.4708 53.487C33.4345 53.7046 33.3257 53.9041 33.2713 54.1036C33.2169 54.3212 33.2169 54.5388 33.1444 54.7564C33.0718 54.9559 32.9449 55.1554 32.8542 55.3549C32.7635 55.5544 32.7091 55.772 32.6185 55.9715C32.5097 56.1709 32.4008 56.3523 32.292 56.5336C32.1832 56.715 32.0382 56.8963 31.9112 57.0595C31.7843 57.2409 31.6755 57.4222 31.5304 57.6036C31.3853 57.7668 31.2221 57.9119 31.0589 58.0751C30.9138 58.2383 30.7506 58.3834 30.5874 58.5284C30.4242 58.6735 30.261 58.8186 30.0978 58.9455C29.9346 59.0906 29.7532 59.2175 29.5719 59.3445C29.3905 59.4714 29.2454 59.6528 29.0641 59.7616C28.8828 59.8704 28.647 59.9066 28.4475 60.0154C28.248 60.1243 28.0848 60.2693 27.8854 60.36C27.6859 60.4507 27.4864 60.5232 27.2688 60.5958C27.0693 60.6683 26.8517 60.7227 26.6341 60.7952C26.4165 60.8496 26.1989 60.8678 25.9812 60.9222C25.7636 60.9584 25.5641 61.0673 25.3465 61.0854C25.1289 61.1217 24.9113 61.1217 24.6937 61.1398C24.4761 61.1579 24.2585 61.1398 24.0408 61.1398C23.8232 61.1398 23.6056 61.1398 23.388 61.1398C23.1704 61.1217 22.9528 61.0673 22.7352 61.0491C22.5176 61.0128 22.2999 60.9766 22.1005 60.9222C21.8828 60.8859 21.6652 60.8315 21.4658 60.7771C21.2481 60.7227 21.0487 60.632 20.8492 60.5595C20.6497 60.4869 20.414 60.4688 20.2145 60.3781C20.015 60.2875 19.8336 60.1605 19.6342 60.0517C19.4347 59.9429 19.2171 59.8885 19.0357 59.7797C18.8544 59.6709 18.6912 59.5077 18.5098 59.3807C18.3285 59.2538 18.1471 59.1269 17.9839 58.9818C17.8207 58.8367 17.6212 58.7279 17.458 58.5828C17.2948 58.4378 17.1679 58.2564 17.0047 58.0932C16.8596 57.93 16.6964 57.7668 16.5694 57.6036C16.4244 57.4404 16.3156 57.2409 16.1886 57.0777C16.0617 56.8963 15.9347 56.715 15.8259 56.5336C15.7171 56.3523 15.6446 56.1347 15.5358 55.9352C15.427 55.7357 15.3363 55.5544 15.2456 55.3549C15.155 55.1554 15.0099 54.9741 14.9373 54.7746C14.8648 54.5751 14.8829 54.3394 14.8285 54.1217C14.7741 53.9041 14.7197 53.7046 14.6835 53.487C14.6472 53.2694 14.5928 53.0699 14.5565 52.8523C14.5202 52.6347 14.5202 52.4171 14.5021 52.1995C14.484 51.9819 14.4114 51.7643 14.4114 51.5466C14.4114 51.329 14.4477 51.1114 14.4658 50.8938C14.484 50.6762 14.5202 50.4586 14.5565 50.241C14.5928 50.0233 14.5928 49.8057 14.6291 49.5881C14.6653 49.3705 14.6835 49.1529 14.7379 48.9353C14.7923 48.7177 14.8648 48.5182 14.9373 48.3006C15.0099 48.1011 15.0824 47.8835 15.1731 47.684C15.2638 47.4845 15.3907 47.3032 15.4814 47.1037C15.5902 46.9042 15.6627 46.7047 15.7715 46.5234C15.8803 46.342 16.0435 46.1788 16.1705 45.9975C16.2974 45.8162 16.4425 45.6529 16.5694 45.4897C16.7145 45.3265 16.8052 45.127 16.9503 44.9638C17.0953 44.8006 17.2586 44.6374 17.4218 44.4923C17.585 44.3473 17.7482 44.2022 17.9295 44.0752C18.0927 43.9302 18.3104 43.8576 18.4917 43.7307C18.673 43.6037 18.8363 43.4768 19.0357 43.3499C19.2171 43.2411 19.4166 43.1504 19.616 43.0416C19.8155 42.9328 20.015 42.8602 20.2145 42.7696C20.414 42.6789 20.6134 42.5882 20.8129 42.5157C21.0124 42.4431 21.23 42.4069 21.4476 42.3525C21.6652 42.2981 21.8466 42.1893 22.0642 42.1348C22.2818 42.0986 22.4994 42.0442 22.717 42.026C22.9346 41.9898 23.1523 42.0442 23.3699 42.026C23.5875 42.0079 23.8051 41.9172 24.0227 41.9172C24.2403 41.9172 24.4579 41.9354 24.6756 41.9535C24.8932 41.9716 25.1108 42.0623 25.3284 42.0804C25.546 42.1167 25.7818 42.0623 25.9812 42.1167C26.1989 42.153 26.3983 42.2799 26.5978 42.3343C26.8154 42.3887 27.033 42.4069 27.2325 42.4794C27.432 42.5519 27.6496 42.6245 27.8491 42.697C28.0486 42.7877 28.2299 42.9146 28.4294 43.0234C28.6289 43.1322 28.8465 43.1867 29.0278 43.2955C29.2092 43.4043 29.3905 43.5312 29.5719 43.6581C29.7532 43.7851 29.8802 43.9664 30.0434 44.1115C30.2066 44.2566 30.3879 44.3835 30.5511 44.5286C30.7143 44.6737 30.8957 44.8006 31.0408 44.9638C31.1858 45.127 31.3309 45.2903 31.4578 45.4716C31.6029 45.6348 31.748 45.8161 31.8568 45.9794C31.9838 46.1607 32.0744 46.3602 32.2014 46.5415C32.3102 46.7229 32.419 46.9224 32.5278 47.1037C32.6366 47.3032 32.7454 47.4845 32.8361 47.684C32.9267 47.8835 32.9811 48.1011 33.0537 48.3006C33.1262 48.5001 33.1625 48.7177 33.2169 48.9353C33.2713 49.1529 33.3982 49.3342 33.4345 49.5519C33.4708 49.7695 33.4889 49.9871 33.507 50.2047C33.5433 50.4223 33.5615 50.6399 33.5796 50.8575C33.6703 51.0933 33.6521 51.3109 33.6521 51.5285Z" fill="#FF8887"/>
<path d="M33.6521 51.5285C33.6521 51.7461 33.6703 51.9637 33.6521 52.1814C33.634 52.399 33.5615 52.6166 33.5252 52.8342C33.4889 53.0518 33.5252 53.2694 33.4708 53.487C33.4345 53.7046 33.3257 53.9041 33.2713 54.1036C33.2169 54.3212 33.2169 54.5388 33.1444 54.7564C33.0718 54.9559 32.9449 55.1554 32.8542 55.3549C32.7635 55.5544 32.7091 55.772 32.6185 55.9715C32.5097 56.1709 32.4008 56.3523 32.292 56.5336C32.1832 56.715 32.0382 56.8963 31.9112 57.0595C31.7843 57.2409 31.6755 57.4222 31.5304 57.6036C31.3853 57.7668 31.2221 57.9119 31.0589 58.0751C30.9138 58.2383 30.7506 58.3833 30.5874 58.5284C30.4242 58.6735 30.261 58.8186 30.0978 58.9455C29.9346 59.0906 29.7532 59.2175 29.5719 59.3445C29.3905 59.4714 29.2454 59.6528 29.0641 59.7616C28.8828 59.8704 28.647 59.9066 28.4475 60.0155C28.248 60.1243 28.0848 60.2693 27.8854 60.36C27.6859 60.4507 27.4864 60.5232 27.2688 60.5958C27.0693 60.6683 26.8517 60.7227 26.6341 60.7952C26.4165 60.8496 26.1989 60.8678 25.9812 60.9222C25.7636 60.9584 25.5641 61.0673 25.3465 61.0854C25.1289 61.1217 24.9113 61.1217 24.6937 61.1398C24.4761 61.1579 24.2585 61.1398 24.0408 61.1398C23.8232 61.1398 23.6056 61.1398 23.388 61.1398C23.1704 61.1217 22.9528 61.0673 22.7352 61.0491C22.5176 61.0128 22.2999 60.9766 22.1005 60.9222C21.8828 60.8859 21.6652 60.8315 21.4658 60.7771C21.2481 60.7227 21.0487 60.632 20.8492 60.5595C20.6497 60.4869 20.414 60.4688 20.2145 60.3781C20.015 60.2875 19.8336 60.1605 19.6342 60.0517C19.4347 59.9429 19.2171 59.8885 19.0357 59.7797C18.8544 59.6709 18.6912 59.5077 18.5098 59.3807C18.3285 59.2538 18.1471 59.1269 17.9839 58.9818C17.8207 58.8367 17.6212 58.7279 17.458 58.5828C17.2948 58.4378 17.1679 58.2564 17.0047 58.0932C16.8596 57.93 16.6964 57.7668 16.5694 57.6036C16.4244 57.4404 16.3156 57.2409 16.1886 57.0777C16.0617 56.8963 15.9347 56.715 15.8259 56.5336C15.7171 56.3523 15.6446 56.1347 15.5358 55.9352C15.427 55.7357 15.3363 55.5544 15.2456 55.3549C15.155 55.1554 15.0099 54.9741 14.9373 54.7746C14.8648 54.5751 14.8829 54.3394 14.8285 54.1217C14.7741 53.9041 14.7197 53.7046 14.6835 53.487C14.6472 53.2694 14.5928 53.0699 14.5565 52.8523C14.5202 52.6347 14.5202 52.4171 14.5021 52.1995C14.484 51.9819 14.4114 51.7643 14.4114 51.5466C14.4114 51.329 14.4477 51.1114 14.4658 50.8938C14.484 50.6762 14.5202 50.4586 14.5565 50.241C14.5928 50.0234 14.5928 49.8057 14.6291 49.5881C14.6653 49.3705 14.6835 49.1529 14.7379 48.9353C14.7923 48.7177 14.8648 48.5182 14.9373 48.3006C15.0099 48.1011 15.0824 47.8835 15.1731 47.684C15.2638 47.4845 15.3907 47.3032 15.4814 47.1037C15.5902 46.9042 15.6627 46.7047 15.7715 46.5234C15.8803 46.342 16.0435 46.1788 16.1705 45.9975C16.2974 45.8162 16.4425 45.6529 16.5694 45.4897C16.7145 45.3265 16.8052 45.127 16.9503 44.9638C17.0953 44.8006 17.2586 44.6374 17.4218 44.4923C17.585 44.3473 17.7482 44.2022 17.9295 44.0752C18.0927 43.9302 18.3104 43.8576 18.4917 43.7307C18.673 43.6037 18.8363 43.4768 19.0357 43.3499C19.2171 43.2411 19.4166 43.1504 19.616 43.0416C19.8155 42.9328 20.015 42.8602 20.2145 42.7696C20.414 42.6789 20.6134 42.5882 20.8129 42.5157C21.0124 42.4431 21.23 42.4069 21.4476 42.3525C21.6652 42.2981 21.8466 42.1893 22.0642 42.1348C22.2818 42.0986 22.4994 42.0442 22.717 42.026C22.9346 41.9898 23.1523 42.0442 23.3699 42.026C23.5875 42.0079 23.8051 41.9172 24.0227 41.9172C24.2403 41.9172 24.4579 41.9354 24.6756 41.9535C24.8932 41.9716 25.1108 42.0623 25.3284 42.0804C25.546 42.1167 25.7818 42.0623 25.9812 42.1167C26.1989 42.153 26.3983 42.2799 26.5978 42.3343C26.8154 42.3887 27.033 42.4069 27.2325 42.4794C27.432 42.5519 27.6496 42.6245 27.8491 42.697C28.0486 42.7877 28.2299 42.9146 28.4294 43.0234C28.6289 43.1322 28.8465 43.1867 29.0278 43.2955C29.2092 43.4043 29.3905 43.5312 29.5719 43.6581C29.7532 43.7851 29.8802 43.9664 30.0434 44.1115C30.2066 44.2566 30.3879 44.3835 30.5511 44.5286C30.7143 44.6737 30.8957 44.8006 31.0408 44.9638C31.1858 45.127 31.3309 45.2903 31.4578 45.4716C31.6029 45.6348 31.748 45.8161 31.8568 45.9794C31.9838 46.1607 32.0744 46.3602 32.2014 46.5415C32.3102 46.7229 32.419 46.9224 32.5278 47.1037C32.6366 47.3032 32.7454 47.4845 32.8361 47.684C32.9267 47.8835 32.9811 48.1011 33.0537 48.3006C33.1262 48.5001 33.1625 48.7177 33.2169 48.9353C33.2713 49.1529 33.3982 49.3342 33.4345 49.5519C33.4708 49.7695 33.4889 49.9871 33.507 50.2047C33.5433 50.4223 33.5615 50.6399 33.5796 50.8575C33.6703 51.0933 33.6521 51.3109 33.6521 51.5285Z" stroke="#414C58" stroke-width="0.42039" stroke-miterlimit="10" stroke-linecap="round"/>
<path d="M24.0771 24.889C24.1859 25.1973 24.2041 25.1973 24.3129 25.5056C24.4217 25.8139 24.4579 25.7958 24.5667 26.104C24.6756 26.4123 24.6393 26.4123 24.7481 26.7206C24.8569 27.0289 24.875 27.0289 24.9657 27.3372C25.0745 27.6455 25.0382 27.6455 25.1471 27.9538C25.2559 28.262 25.274 28.2439 25.3828 28.5522C25.4916 28.8605 25.4735 28.8605 25.5823 29.1688C25.6911 29.4771 25.7092 29.4771 25.7999 29.7853C25.9087 30.0936 25.8906 30.0936 25.9994 30.4019C26.1082 30.7102 26.0719 30.7102 26.1807 31.0185C26.2895 31.3268 26.2533 31.3449 26.3621 31.6532C26.3983 31.7439 26.5071 31.7439 26.5978 31.762C26.9242 31.762 26.9242 31.8164 27.2506 31.8345C27.5771 31.8345 27.5771 31.8527 27.9035 31.8708C28.2299 31.8708 28.2299 31.7983 28.5563 31.7983C28.8828 31.7983 28.8828 31.8527 29.2092 31.8527C29.5356 31.8527 29.5356 31.8345 29.862 31.8527C30.1884 31.8708 30.1884 31.8889 30.5149 31.8889C30.8413 31.8889 30.8413 31.8527 31.1677 31.8708C31.4941 31.8889 31.4941 31.9433 31.8205 31.9433C32.147 31.9433 32.147 31.9433 32.4734 31.9433C32.7998 31.9433 32.7998 31.8708 33.1262 31.8708C33.4526 31.8708 33.4526 31.9433 33.7791 31.9433C33.9967 31.9433 34.0511 32.1791 33.8879 32.306C33.634 32.5055 33.6703 32.5418 33.3982 32.7413C33.1444 32.9407 33.1262 32.9226 32.8723 33.1221C32.6185 33.3216 32.6366 33.3397 32.3646 33.5392C32.1107 33.7387 32.1107 33.7387 31.8387 33.92C31.5848 34.1195 31.5667 34.1013 31.3128 34.3008C31.0589 34.5003 31.0589 34.5003 30.805 34.6998C30.5511 34.8993 30.5511 34.8993 30.2972 35.0987C30.0434 35.2982 30.0434 35.2982 29.7713 35.4796C29.5175 35.679 29.4993 35.6609 29.2454 35.8604C28.9916 36.0599 28.9734 36.0417 28.7014 36.2231C28.4475 36.4226 28.4294 36.4044 28.1755 36.6039C28.103 36.6583 28.0486 36.7671 28.0667 36.8578C28.1574 37.1661 28.1936 37.1661 28.2843 37.4744C28.375 37.7826 28.3569 37.8008 28.4475 38.1091C28.5382 38.4174 28.5926 38.3992 28.6833 38.7075C28.7739 39.0158 28.7558 39.0158 28.8646 39.3241C28.9734 39.6324 28.9734 39.6324 29.0641 39.9406C29.1548 40.2489 29.1729 40.2489 29.2636 40.5572C29.3543 40.8655 29.2998 40.8836 29.3905 41.1919C29.4812 41.5002 29.4993 41.5002 29.59 41.8085C29.6807 42.1168 29.6625 42.1168 29.7532 42.4432C29.8439 42.7515 29.862 42.7515 29.9527 43.0598C30.0434 43.3681 30.0252 43.3681 30.1159 43.6945C30.1703 43.894 29.9708 44.0572 29.8076 43.9484C29.5356 43.767 29.5719 43.7308 29.2998 43.5494C29.0278 43.3681 29.0097 43.4043 28.7377 43.223C28.4657 43.0416 28.4657 43.0416 28.2118 42.8422C27.9398 42.6608 27.9579 42.6427 27.6859 42.4613C27.4139 42.28 27.432 42.2619 27.16 42.0624C26.888 41.881 26.8698 41.8992 26.6159 41.7178C26.3439 41.5365 26.3439 41.5546 26.0719 41.3551C25.7999 41.1738 25.8362 41.1194 25.5641 40.938C25.2921 40.7567 25.2921 40.7748 25.0201 40.5754C24.7481 40.394 24.7662 40.3759 24.4942 40.1945C24.2222 40.0132 24.2041 40.0313 23.932 39.85C23.8595 39.7956 23.8051 39.7956 23.7144 39.85C23.4424 40.0313 23.4061 39.9769 23.1341 40.1583C22.8621 40.3396 22.8984 40.3759 22.6264 40.5754C22.3543 40.7567 22.3725 40.7748 22.1005 40.9562C21.8284 41.1375 21.8103 41.1194 21.5564 41.3007C21.2844 41.4821 21.3207 41.5183 21.0487 41.7178C20.7766 41.8992 20.7585 41.8629 20.4865 42.0442C20.2145 42.2256 20.2507 42.2619 19.9787 42.4613C19.7067 42.6427 19.6704 42.6064 19.4166 42.7878C19.1445 42.9691 19.1808 43.0054 18.9088 43.1867C18.6368 43.3681 18.6186 43.3318 18.3466 43.5313C18.0746 43.7126 18.0927 43.7308 17.8207 43.9121C17.6394 44.039 17.4036 43.8577 17.458 43.6582C17.5487 43.3499 17.6031 43.3681 17.6938 43.0598C17.7845 42.7515 17.73 42.7334 17.8389 42.4251C17.9477 42.1168 17.9114 42.1168 18.0021 41.7904C18.0927 41.4821 18.1109 41.4821 18.2197 41.1738C18.3285 40.8655 18.3648 40.8836 18.4736 40.5754C18.5642 40.2671 18.528 40.2489 18.6186 39.9406C18.7093 39.6324 18.7456 39.6324 18.8363 39.3241C18.9269 39.0158 18.8907 38.9977 18.9813 38.6894C19.072 38.3811 19.0539 38.3629 19.1445 38.0547C19.2352 37.7464 19.2896 37.7645 19.3984 37.4562C19.4891 37.1479 19.4528 37.1298 19.5616 36.8215C19.5798 36.7308 19.5798 36.622 19.5072 36.5676C19.2533 36.3682 19.2171 36.4226 18.9451 36.2231C18.6912 36.0236 18.7274 35.9692 18.4736 35.7697C18.2197 35.5702 18.2015 35.5884 17.9477 35.407C17.6938 35.2076 17.7119 35.1894 17.4399 34.9899C17.186 34.7905 17.1679 34.8267 16.8959 34.6272C16.642 34.4278 16.6601 34.4096 16.4062 34.2102C16.1523 34.0107 16.1523 34.0107 15.8985 33.8112C15.6446 33.6117 15.6083 33.648 15.3544 33.4666C15.1005 33.2672 15.1005 33.2672 14.8467 33.0677C14.5928 32.8682 14.5746 32.8863 14.3208 32.6869C14.0669 32.4874 14.0669 32.4692 13.813 32.2879C13.6498 32.161 13.7223 31.8708 13.9399 31.8708C14.2664 31.8708 14.2664 31.9071 14.5928 31.9071C14.9192 31.9071 14.9192 31.9252 15.2456 31.9071C15.572 31.9071 15.572 31.8527 15.8985 31.8345C16.2249 31.8345 16.2249 31.8527 16.5513 31.8527C16.8777 31.8527 16.8777 31.7983 17.2041 31.7983C17.5306 31.7983 17.5306 31.8164 17.857 31.8164C18.1834 31.8164 18.1834 31.8164 18.5098 31.8164C18.8363 31.8164 18.8363 31.7983 19.1627 31.7983C19.4891 31.7983 19.4891 31.7801 19.8155 31.7801C20.1419 31.7801 20.1419 31.7801 20.4684 31.7801C20.7948 31.7801 20.7948 31.7801 21.1212 31.7801C21.2119 31.7801 21.2844 31.7076 21.3207 31.6169C21.4295 31.3086 21.4476 31.3086 21.5564 31.0003C21.6652 30.6921 21.6652 30.6921 21.774 30.3838C21.8828 30.0755 21.8466 30.0574 21.9372 29.7491C22.0461 29.4408 22.1005 29.4589 22.2093 29.1506C22.3181 28.8423 22.2637 28.8242 22.3725 28.5159C22.4813 28.2076 22.5176 28.2258 22.6264 27.9175C22.7352 27.6092 22.7352 27.6092 22.844 27.3009C22.9528 26.9926 22.9528 26.9926 23.0616 26.6843C23.1704 26.3761 23.1704 26.3761 23.2611 26.0678C23.3699 25.7595 23.3336 25.7414 23.4424 25.4331C23.5512 25.1248 23.5694 25.1248 23.6782 24.8346C23.7507 24.6896 24.0227 24.6896 24.0771 24.889Z" fill="#FFB569"/>
<path d="M24.0771 24.889C24.1859 25.1973 24.2041 25.1973 24.3129 25.5056C24.4217 25.8139 24.4579 25.7958 24.5667 26.104C24.6756 26.4123 24.6393 26.4123 24.7481 26.7206C24.8569 27.0289 24.875 27.0289 24.9657 27.3372C25.0745 27.6455 25.0382 27.6455 25.1471 27.9538C25.2559 28.262 25.274 28.2439 25.3828 28.5522C25.4916 28.8605 25.4735 28.8605 25.5823 29.1688C25.6911 29.4771 25.7092 29.4771 25.7999 29.7853C25.9087 30.0936 25.8906 30.0936 25.9994 30.4019C26.1082 30.7102 26.0719 30.7102 26.1807 31.0185C26.2895 31.3268 26.2533 31.3449 26.3621 31.6532C26.3983 31.7439 26.5071 31.7439 26.5978 31.762C26.9242 31.762 26.9242 31.8164 27.2506 31.8345C27.5771 31.8345 27.5771 31.8527 27.9035 31.8708C28.2299 31.8708 28.2299 31.7983 28.5563 31.7983C28.8828 31.7983 28.8828 31.8527 29.2092 31.8527C29.5356 31.8527 29.5356 31.8345 29.862 31.8527C30.1884 31.8708 30.1884 31.8889 30.5149 31.8889C30.8413 31.8889 30.8413 31.8527 31.1677 31.8708C31.4941 31.8889 31.4941 31.9433 31.8205 31.9433C32.147 31.9433 32.147 31.9433 32.4734 31.9433C32.7998 31.9433 32.7998 31.8708 33.1262 31.8708C33.4526 31.8708 33.4526 31.9433 33.7791 31.9433C33.9967 31.9433 34.0511 32.1791 33.8879 32.306C33.634 32.5055 33.6703 32.5418 33.3982 32.7413C33.1444 32.9407 33.1262 32.9226 32.8723 33.1221C32.6185 33.3216 32.6366 33.3397 32.3646 33.5392C32.1107 33.7387 32.1107 33.7387 31.8387 33.92C31.5848 34.1195 31.5667 34.1013 31.3128 34.3008C31.0589 34.5003 31.0589 34.5003 30.805 34.6998C30.5511 34.8993 30.5511 34.8993 30.2972 35.0987C30.0434 35.2982 30.0434 35.2982 29.7713 35.4796C29.5175 35.679 29.4993 35.6609 29.2454 35.8604C28.9916 36.0599 28.9734 36.0417 28.7014 36.2231C28.4475 36.4226 28.4294 36.4044 28.1755 36.6039C28.103 36.6583 28.0486 36.7671 28.0667 36.8578C28.1574 37.1661 28.1936 37.1661 28.2843 37.4744C28.375 37.7826 28.3569 37.8008 28.4475 38.1091C28.5382 38.4174 28.5926 38.3992 28.6833 38.7075C28.7739 39.0158 28.7558 39.0158 28.8646 39.3241C28.9734 39.6324 28.9734 39.6324 29.0641 39.9406C29.1548 40.2489 29.1729 40.2489 29.2636 40.5572C29.3543 40.8655 29.2998 40.8836 29.3905 41.1919C29.4812 41.5002 29.4993 41.5002 29.59 41.8085C29.6807 42.1168 29.6625 42.1168 29.7532 42.4432C29.8439 42.7515 29.862 42.7515 29.9527 43.0598C30.0434 43.3681 30.0252 43.3681 30.1159 43.6945C30.1703 43.894 29.9708 44.0572 29.8076 43.9484C29.5356 43.767 29.5719 43.7308 29.2998 43.5494C29.0278 43.3681 29.0097 43.4043 28.7377 43.223C28.4657 43.0416 28.4657 43.0416 28.2118 42.8422C27.9398 42.6608 27.9579 42.6427 27.6859 42.4613C27.4139 42.28 27.432 42.2619 27.16 42.0624C26.888 41.881 26.8698 41.8992 26.6159 41.7178C26.3439 41.5365 26.3439 41.5546 26.0719 41.3551C25.7999 41.1738 25.8362 41.1194 25.5641 40.938C25.2921 40.7567 25.2921 40.7748 25.0201 40.5754C24.7481 40.394 24.7662 40.3759 24.4942 40.1945C24.2222 40.0132 24.2041 40.0313 23.932 39.85C23.8595 39.7956 23.8051 39.7956 23.7144 39.85C23.4424 40.0313 23.4061 39.9769 23.1341 40.1583C22.8621 40.3396 22.8984 40.3759 22.6264 40.5754C22.3543 40.7567 22.3725 40.7748 22.1005 40.9562C21.8284 41.1375 21.8103 41.1194 21.5564 41.3007C21.2844 41.4821 21.3207 41.5183 21.0487 41.7178C20.7766 41.8992 20.7585 41.8629 20.4865 42.0442C20.2145 42.2256 20.2507 42.2619 19.9787 42.4613C19.7067 42.6427 19.6704 42.6064 19.4166 42.7878C19.1445 42.9691 19.1808 43.0054 18.9088 43.1867C18.6368 43.3681 18.6186 43.3318 18.3466 43.5313C18.0746 43.7126 18.0927 43.7308 17.8207 43.9121C17.6394 44.039 17.4036 43.8577 17.458 43.6582C17.5487 43.3499 17.6031 43.3681 17.6938 43.0598C17.7845 42.7515 17.73 42.7334 17.8389 42.4251C17.9477 42.1168 17.9114 42.1168 18.0021 41.7904C18.0927 41.4821 18.1109 41.4821 18.2197 41.1738C18.3285 40.8655 18.3648 40.8836 18.4736 40.5754C18.5642 40.2671 18.528 40.2489 18.6186 39.9406C18.7093 39.6324 18.7456 39.6324 18.8363 39.3241C18.9269 39.0158 18.8907 38.9977 18.9813 38.6894C19.072 38.3811 19.0539 38.3629 19.1445 38.0547C19.2352 37.7464 19.2896 37.7645 19.3984 37.4562C19.4891 37.1479 19.4528 37.1298 19.5616 36.8215C19.5798 36.7308 19.5798 36.622 19.5072 36.5676C19.2533 36.3682 19.2171 36.4226 18.9451 36.2231C18.6912 36.0236 18.7274 35.9692 18.4736 35.7697C18.2197 35.5702 18.2015 35.5884 17.9477 35.407C17.6938 35.2076 17.7119 35.1894 17.4399 34.9899C17.186 34.7905 17.1679 34.8267 16.8959 34.6272C16.642 34.4278 16.6601 34.4096 16.4062 34.2102C16.1523 34.0107 16.1523 34.0107 15.8985 33.8112C15.6446 33.6117 15.6083 33.648 15.3544 33.4666C15.1005 33.2672 15.1005 33.2672 14.8467 33.0677C14.5928 32.8682 14.5746 32.8863 14.3208 32.6869C14.0669 32.4874 14.0669 32.4692 13.813 32.2879C13.6498 32.161 13.7223 31.8708 13.9399 31.8708C14.2664 31.8708 14.2664 31.9071 14.5928 31.9071C14.9192 31.9071 14.9192 31.9252 15.2456 31.9071C15.572 31.9071 15.572 31.8527 15.8985 31.8345C16.2249 31.8345 16.2249 31.8527 16.5513 31.8527C16.8777 31.8527 16.8777 31.7983 17.2041 31.7983C17.5306 31.7983 17.5306 31.8164 17.857 31.8164C18.1834 31.8164 18.1834 31.8164 18.5098 31.8164C18.8363 31.8164 18.8363 31.7983 19.1627 31.7983C19.4891 31.7983 19.4891 31.7801 19.8155 31.7801C20.1419 31.7801 20.1419 31.7801 20.4684 31.7801C20.7948 31.7801 20.7948 31.7801 21.1212 31.7801C21.2119 31.7801 21.2844 31.7076 21.3207 31.6169C21.4295 31.3086 21.4476 31.3086 21.5564 31.0004C21.6652 30.6921 21.6652 30.6921 21.774 30.3838C21.8828 30.0755 21.8466 30.0574 21.9372 29.7491C22.0461 29.4408 22.1005 29.4589 22.2093 29.1506C22.3181 28.8423 22.2637 28.8242 22.3725 28.5159C22.4813 28.2076 22.5176 28.2258 22.6264 27.9175C22.7352 27.6092 22.7352 27.6092 22.844 27.3009C22.9528 26.9926 22.9528 26.9926 23.0616 26.6843C23.1704 26.3761 23.1704 26.3761 23.2611 26.0678C23.3699 25.7595 23.3336 25.7414 23.4424 25.4331C23.5512 25.1248 23.5694 25.1248 23.6782 24.8346C23.7507 24.6896 24.0227 24.6896 24.0771 24.889Z" stroke="#414C58" stroke-width="0.42039" stroke-miterlimit="10" stroke-linecap="round"/>
<path d="M63.6463 31.7256C63.7551 32.0339 63.7733 32.0339 63.8821 32.3421C63.9909 32.6504 64.0272 32.6323 64.136 32.9406C64.2448 33.2489 64.2085 33.2489 64.3173 33.5572C64.4261 33.8654 64.4442 33.8654 64.5349 34.1737C64.6437 34.482 64.6075 34.482 64.7163 34.7903C64.8251 35.0986 64.8432 35.0805 64.952 35.3887C65.0608 35.697 65.0427 35.697 65.1515 36.0053C65.2603 36.3136 65.2784 36.3136 65.3691 36.6219C65.4779 36.9302 65.4598 36.9302 65.5686 37.2385C65.6774 37.5467 65.6411 37.5467 65.7499 37.855C65.8587 38.1633 65.8225 38.1815 65.9313 38.4897C65.9675 38.5804 66.0764 38.5804 66.167 38.5985C66.4934 38.5985 66.4934 38.653 66.8199 38.6711C67.1463 38.6711 67.1463 38.6892 67.4727 38.7074C67.7991 38.7074 67.7991 38.6348 68.1256 38.6348C68.452 38.6348 68.452 38.6892 68.7784 38.6892C69.1048 38.6892 69.1048 38.6711 69.4312 38.6892C69.7577 38.7074 69.7577 38.7255 70.0841 38.7255C70.4105 38.7255 70.4105 38.6892 70.7369 38.7074C71.0633 38.7074 71.0633 38.7799 71.3898 38.7799C71.7162 38.7799 71.7162 38.7799 72.0426 38.7799C72.369 38.7799 72.369 38.7074 72.6954 38.7074C73.0219 38.7074 73.0219 38.7799 73.3483 38.7799C73.5659 38.7799 73.6203 39.0156 73.4571 39.1426C73.2032 39.3421 73.2395 39.3783 72.9675 39.5778C72.7136 39.7773 72.6954 39.7592 72.4416 39.9586C72.1877 40.1581 72.2058 40.1762 71.9338 40.3757C71.6799 40.5752 71.6799 40.5752 71.4079 40.7566C71.154 40.956 71.1359 40.9379 70.882 41.1374C70.6281 41.3369 70.6281 41.3369 70.3742 41.5363C70.1203 41.7358 70.1203 41.7358 69.8665 41.9353C69.6126 42.1348 69.6126 42.1348 69.3406 42.3161C69.0867 42.5156 69.0685 42.4975 68.8147 42.6969C68.5608 42.8964 68.5426 42.8783 68.2706 43.0596C68.0167 43.2591 67.9986 43.2591 67.7447 43.4405C67.6722 43.4949 67.6178 43.6037 67.6359 43.6943C67.7266 44.0026 67.7629 44.0026 67.8535 44.3109C67.9442 44.6192 67.9261 44.6373 68.0167 44.9456C68.1074 45.2539 68.1618 45.2358 68.2525 45.5441C68.3432 45.8523 68.325 45.8523 68.4338 46.1606C68.5245 46.4689 68.5426 46.4689 68.6333 46.7772C68.724 47.0855 68.7421 47.0855 68.8328 47.3938C68.9235 47.7021 68.8691 47.7202 68.9597 48.0285C69.0504 48.3368 69.0685 48.3368 69.1592 48.645C69.2499 48.9533 69.2318 48.9533 69.3224 49.2798C69.4131 49.588 69.4312 49.588 69.5219 49.8963C69.6126 50.2046 69.5944 50.2046 69.6851 50.531C69.7395 50.7305 69.54 50.8937 69.3768 50.7849C69.1048 50.6036 69.1411 50.5673 68.8691 50.386C68.597 50.2046 68.5789 50.2409 68.3069 50.0595C68.0349 49.8782 68.0349 49.8782 67.781 49.6787C67.509 49.4974 67.5271 49.4792 67.2551 49.2979C66.9831 49.1165 67.0012 49.0984 66.7292 48.8989C66.4572 48.7176 66.439 48.7357 66.1852 48.5544C65.9131 48.373 65.9131 48.3912 65.6411 48.1917C65.3691 48.0103 65.4054 47.9559 65.1334 47.7746C64.8613 47.5932 64.8613 47.6114 64.5893 47.4119C64.3173 47.2306 64.3354 47.2124 64.0634 47.0311C63.7914 46.8497 63.7733 46.8679 63.5013 46.6865C63.4287 46.6321 63.3743 46.6321 63.2836 46.6865C63.0116 46.8679 62.9754 46.8135 62.7033 46.9948C62.4313 47.1762 62.4676 47.2124 62.1956 47.4119C61.9236 47.5932 61.9417 47.6114 61.6697 47.7927C61.3977 47.9741 61.3795 47.9559 61.1256 48.1373C60.8536 48.3186 60.8899 48.3549 60.6179 48.5544C60.3459 48.7357 60.3277 48.6994 60.0557 48.8808C59.7837 49.0621 59.82 49.0984 59.5479 49.2979C59.2759 49.4792 59.2397 49.443 58.9858 49.6243C58.7138 49.8057 58.75 49.8419 58.478 50.0233C58.206 50.2046 58.1879 50.1683 57.9158 50.3678C57.6438 50.5673 57.662 50.5673 57.3899 50.7486C57.2086 50.8756 56.9728 50.6942 57.0272 50.4948C57.1179 50.1865 57.1723 50.2046 57.263 49.8963C57.3537 49.588 57.2993 49.5699 57.4081 49.2616C57.4987 48.9533 57.4806 48.9533 57.5713 48.6269C57.662 48.3186 57.6801 48.3186 57.7889 48.0103C57.8796 47.7021 57.934 47.7202 58.0428 47.4119C58.1334 47.1036 58.0972 47.0855 58.1879 46.7772C58.2785 46.4689 58.3148 46.4689 58.4055 46.1606C58.4961 45.8523 58.4599 45.8342 58.5505 45.5259C58.6412 45.2176 58.6231 45.1995 58.7138 44.8912C58.8044 44.5829 58.8588 44.6011 58.9676 44.2928C59.0583 43.9845 59.022 43.9664 59.1308 43.6581C59.149 43.5674 59.149 43.4586 59.0764 43.4042C58.8226 43.2047 58.7863 43.2591 58.5143 43.0596C58.2604 42.8601 58.2967 42.8057 58.0428 42.6063C57.7889 42.4068 57.7708 42.4249 57.5169 42.2436C57.263 42.0441 57.2811 42.026 57.0091 41.8265C56.7552 41.627 56.7371 41.6633 56.4651 41.4638C56.2112 41.2643 56.2293 41.2462 55.9754 41.0467C55.7216 40.8472 55.7216 40.8472 55.4677 40.6477C55.2138 40.4483 55.1775 40.4845 54.9236 40.3032C54.6698 40.1037 54.6698 40.1037 54.4159 39.9042C54.162 39.7047 54.1439 39.7229 53.89 39.5234C53.6361 39.3239 53.6361 39.3058 53.3822 39.1244C53.219 38.9975 53.2915 38.7074 53.5092 38.7074C53.8356 38.7074 53.8356 38.7436 54.162 38.7436C54.4884 38.7436 54.4884 38.7618 54.8148 38.7436C55.1413 38.7436 55.1413 38.6892 55.4677 38.6711C55.7941 38.6711 55.7941 38.6892 56.1205 38.6892C56.4469 38.6892 56.4469 38.6348 56.7734 38.6348C57.0998 38.6348 57.0998 38.6529 57.4262 38.6529C57.7526 38.6529 57.7526 38.6529 58.079 38.6529C58.4055 38.6529 58.4055 38.6348 58.7319 38.6348C59.0583 38.6348 59.0583 38.6167 59.3847 38.6167C59.7111 38.6167 59.7111 38.6167 60.0376 38.6167C60.364 38.6167 60.364 38.6167 60.6904 38.6167C60.7811 38.6167 60.8536 38.5441 60.8899 38.4535C60.9987 38.1452 61.0168 38.1452 61.1256 37.8369C61.2344 37.5286 61.2344 37.5286 61.3433 37.2203C61.4521 36.912 61.4158 36.8939 61.5065 36.5856C61.6153 36.2773 61.6697 36.2955 61.7785 35.9872C61.8873 35.6789 61.8329 35.6608 61.9417 35.3525C62.0505 35.0442 62.0868 35.0623 62.1956 34.754C62.3044 34.4457 62.3044 34.4458 62.4132 34.1375C62.522 33.8292 62.522 33.8292 62.6308 33.5209C62.7396 33.2126 62.7396 33.2126 62.8303 32.9043C62.9391 32.596 62.9028 32.5779 63.0116 32.2696C63.1204 31.9613 63.1386 31.9613 63.2474 31.6712C63.3018 31.5261 63.5738 31.5261 63.6463 31.7256Z" fill="#FFB569"/>
<path d="M63.6463 31.7256C63.7551 32.0339 63.7733 32.0339 63.8821 32.3421C63.9909 32.6504 64.0272 32.6323 64.136 32.9406C64.2448 33.2489 64.2085 33.2489 64.3173 33.5572C64.4261 33.8654 64.4442 33.8654 64.5349 34.1737C64.6437 34.482 64.6075 34.482 64.7163 34.7903C64.8251 35.0986 64.8432 35.0805 64.952 35.3887C65.0608 35.697 65.0427 35.697 65.1515 36.0053C65.2603 36.3136 65.2784 36.3136 65.3691 36.6219C65.4779 36.9302 65.4598 36.9302 65.5686 37.2385C65.6774 37.5467 65.6411 37.5467 65.7499 37.855C65.8587 38.1633 65.8225 38.1815 65.9313 38.4897C65.9675 38.5804 66.0764 38.5804 66.167 38.5985C66.4934 38.5985 66.4934 38.653 66.8199 38.6711C67.1463 38.6711 67.1463 38.6892 67.4727 38.7074C67.7991 38.7074 67.7991 38.6348 68.1256 38.6348C68.452 38.6348 68.452 38.6892 68.7784 38.6892C69.1048 38.6892 69.1048 38.6711 69.4312 38.6892C69.7577 38.7074 69.7577 38.7255 70.0841 38.7255C70.4105 38.7255 70.4105 38.6892 70.7369 38.7074C71.0633 38.7074 71.0633 38.7799 71.3898 38.7799C71.7162 38.7799 71.7162 38.7799 72.0426 38.7799C72.369 38.7799 72.369 38.7074 72.6954 38.7074C73.0219 38.7074 73.0219 38.7799 73.3483 38.7799C73.5659 38.7799 73.6203 39.0156 73.4571 39.1426C73.2032 39.3421 73.2395 39.3783 72.9675 39.5778C72.7136 39.7773 72.6954 39.7592 72.4416 39.9586C72.1877 40.1581 72.2058 40.1762 71.9338 40.3757C71.6799 40.5752 71.6799 40.5752 71.4079 40.7566C71.154 40.956 71.1359 40.9379 70.882 41.1374C70.6281 41.3369 70.6281 41.3369 70.3742 41.5363C70.1203 41.7358 70.1203 41.7358 69.8665 41.9353C69.6126 42.1348 69.6126 42.1348 69.3406 42.3161C69.0867 42.5156 69.0685 42.4975 68.8147 42.6969C68.5608 42.8964 68.5426 42.8783 68.2706 43.0596C68.0167 43.2591 67.9986 43.2591 67.7447 43.4405C67.6722 43.4949 67.6178 43.6037 67.6359 43.6943C67.7266 44.0026 67.7629 44.0026 67.8535 44.3109C67.9442 44.6192 67.9261 44.6373 68.0167 44.9456C68.1074 45.2539 68.1618 45.2358 68.2525 45.5441C68.3432 45.8523 68.325 45.8523 68.4338 46.1606C68.5245 46.4689 68.5426 46.4689 68.6333 46.7772C68.724 47.0855 68.7421 47.0855 68.8328 47.3938C68.9235 47.7021 68.8691 47.7202 68.9597 48.0285C69.0504 48.3368 69.0685 48.3368 69.1592 48.645C69.2499 48.9533 69.2318 48.9533 69.3224 49.2798C69.4131 49.588 69.4312 49.588 69.5219 49.8963C69.6126 50.2046 69.5944 50.2046 69.6851 50.531C69.7395 50.7305 69.54 50.8937 69.3768 50.7849C69.1048 50.6036 69.1411 50.5673 68.8691 50.386C68.597 50.2046 68.5789 50.2409 68.3069 50.0595C68.0349 49.8782 68.0349 49.8782 67.781 49.6787C67.509 49.4974 67.5271 49.4792 67.2551 49.2979C66.9831 49.1165 67.0012 49.0984 66.7292 48.8989C66.4572 48.7176 66.439 48.7357 66.1852 48.5544C65.9131 48.373 65.9131 48.3912 65.6411 48.1917C65.3691 48.0103 65.4054 47.9559 65.1334 47.7746C64.8613 47.5932 64.8613 47.6114 64.5893 47.4119C64.3173 47.2306 64.3354 47.2124 64.0634 47.0311C63.7914 46.8497 63.7733 46.8679 63.5013 46.6865C63.4287 46.6321 63.3743 46.6321 63.2836 46.6865C63.0116 46.8679 62.9754 46.8135 62.7033 46.9948C62.4313 47.1762 62.4676 47.2124 62.1956 47.4119C61.9236 47.5932 61.9417 47.6114 61.6697 47.7927C61.3977 47.9741 61.3795 47.9559 61.1256 48.1373C60.8536 48.3186 60.8899 48.3549 60.6179 48.5544C60.3459 48.7357 60.3277 48.6995 60.0557 48.8808C59.7837 49.0621 59.82 49.0984 59.5479 49.2979C59.2759 49.4792 59.2397 49.443 58.9858 49.6243C58.7138 49.8057 58.75 49.8419 58.478 50.0233C58.206 50.2046 58.1879 50.1683 57.9158 50.3678C57.6438 50.5673 57.662 50.5673 57.3899 50.7486C57.2086 50.8756 56.9728 50.6942 57.0272 50.4948C57.1179 50.1865 57.1723 50.2046 57.263 49.8963C57.3537 49.588 57.2993 49.5699 57.4081 49.2616C57.4987 48.9533 57.4806 48.9533 57.5713 48.6269C57.662 48.3186 57.6801 48.3186 57.7889 48.0103C57.8796 47.7021 57.934 47.7202 58.0428 47.4119C58.1334 47.1036 58.0972 47.0855 58.1879 46.7772C58.2785 46.4689 58.3148 46.4689 58.4055 46.1606C58.4961 45.8523 58.4599 45.8342 58.5505 45.5259C58.6412 45.2176 58.6231 45.1995 58.7138 44.8912C58.8044 44.5829 58.8588 44.6011 58.9676 44.2928C59.0583 43.9845 59.022 43.9664 59.1308 43.6581C59.149 43.5674 59.149 43.4586 59.0764 43.4042C58.8226 43.2047 58.7863 43.2591 58.5143 43.0596C58.2604 42.8601 58.2967 42.8057 58.0428 42.6063C57.7889 42.4068 57.7708 42.4249 57.5169 42.2436C57.263 42.0441 57.2811 42.026 57.0091 41.8265C56.7552 41.627 56.7371 41.6633 56.4651 41.4638C56.2112 41.2643 56.2293 41.2462 55.9754 41.0467C55.7216 40.8472 55.7216 40.8472 55.4677 40.6477C55.2138 40.4483 55.1775 40.4845 54.9236 40.3032C54.6698 40.1037 54.6698 40.1037 54.4159 39.9042C54.162 39.7047 54.1439 39.7229 53.89 39.5234C53.6361 39.3239 53.6361 39.3058 53.3822 39.1244C53.219 38.9975 53.2915 38.7074 53.5092 38.7074C53.8356 38.7074 53.8356 38.7436 54.162 38.7436C54.4884 38.7436 54.4884 38.7618 54.8148 38.7436C55.1413 38.7436 55.1413 38.6892 55.4677 38.6711C55.7941 38.6711 55.7941 38.6892 56.1205 38.6892C56.4469 38.6892 56.4469 38.6348 56.7734 38.6348C57.0998 38.6348 57.0998 38.6529 57.4262 38.6529C57.7526 38.6529 57.7526 38.6529 58.079 38.6529C58.4055 38.6529 58.4055 38.6348 58.7319 38.6348C59.0583 38.6348 59.0583 38.6167 59.3847 38.6167C59.7111 38.6167 59.7111 38.6167 60.0376 38.6167C60.364 38.6167 60.364 38.6167 60.6904 38.6167C60.7811 38.6167 60.8536 38.5441 60.8899 38.4535C60.9987 38.1452 61.0168 38.1452 61.1256 37.8369C61.2344 37.5286 61.2344 37.5286 61.3433 37.2203C61.4521 36.912 61.4158 36.8939 61.5065 36.5856C61.6153 36.2773 61.6697 36.2955 61.7785 35.9872C61.8873 35.6789 61.8329 35.6608 61.9417 35.3525C62.0505 35.0442 62.0868 35.0623 62.1956 34.754C62.3044 34.4457 62.3044 34.4458 62.4132 34.1375C62.522 33.8292 62.522 33.8292 62.6308 33.5209C62.7396 33.2126 62.7396 33.2126 62.8303 32.9043C62.9391 32.596 62.9028 32.5779 63.0116 32.2696C63.1204 31.9613 63.1386 31.9613 63.2474 31.6712C63.3018 31.5261 63.5738 31.5261 63.6463 31.7256Z" stroke="#414C58" stroke-width="0.42039" stroke-miterlimit="10" stroke-linecap="round"/>
<path d="M53.5096 48.736C53.5096 48.5184 53.4914 48.3008 53.4733 48.1013C53.4552 47.8837 53.4733 47.6661 53.437 47.4666C53.4008 47.249 53.3101 47.0495 53.2738 46.85C53.2376 46.6324 53.2557 46.4148 53.2013 46.2153C53.1469 46.0158 53.0562 45.8163 52.9837 45.6169C52.9111 45.4174 52.8567 45.2179 52.7661 45.0184C52.6754 44.8189 52.5485 44.6557 52.4578 44.4562C52.3671 44.2749 52.2402 44.0936 52.1314 43.9122C52.0226 43.7309 51.9319 43.5314 51.8049 43.3682C51.678 43.1868 51.5329 43.0418 51.3878 42.8785C51.2609 42.7153 51.1521 42.5159 51.007 42.3708C50.8619 42.2076 50.6987 42.0806 50.5355 41.9356C50.3723 41.7905 50.2091 41.6635 50.0459 41.5185C49.8827 41.3915 49.7195 41.2646 49.5381 41.1376C49.3568 41.0107 49.1936 40.8838 49.0122 40.7749C48.8309 40.6661 48.6677 40.5211 48.4682 40.4304C48.2869 40.3397 48.0874 40.249 47.8879 40.1584C47.6884 40.0677 47.4889 40.0133 47.2895 39.9408C47.09 39.8682 46.8724 39.8682 46.6547 39.8138C46.4553 39.7594 46.2558 39.6687 46.0382 39.6325C45.8387 39.5962 45.6211 39.5781 45.4035 39.5599C45.1859 39.5237 44.9864 39.4693 44.7688 39.4511C44.5511 39.433 44.3517 39.4149 44.1341 39.4149C43.8439 39.4149 43.8439 39.3967 43.5538 39.3967C43.2636 39.3967 43.2636 39.4511 42.9734 39.4511C42.7558 39.4511 42.5564 39.4693 42.3387 39.4874C42.1211 39.5055 41.9035 39.4693 41.704 39.5055C41.4864 39.5418 41.2869 39.5962 41.0693 39.6325C40.8517 39.6687 40.6522 39.705 40.4346 39.7594C40.2351 39.8138 40.0175 39.8864 39.818 39.9408C39.6186 40.0133 39.4372 40.1402 39.2377 40.2309C39.0383 40.3216 38.8388 40.376 38.6393 40.4667C38.458 40.5573 38.2766 40.7024 38.0953 40.8112C37.9139 40.92 37.7144 40.9926 37.5331 41.1195C37.3518 41.2464 37.1885 41.3734 37.0253 41.5003C36.8621 41.6273 36.7171 41.7905 36.5538 41.9356C36.3906 42.0806 36.2456 42.2257 36.1005 42.3889C35.9554 42.5521 35.8103 42.6972 35.6834 42.8785C35.5564 43.0418 35.4476 43.2412 35.3207 43.4044C35.1938 43.5858 35.0668 43.749 34.958 43.9303C34.8492 44.1117 34.7041 44.2749 34.6135 44.4744C34.5228 44.6557 34.4684 44.8733 34.3777 45.0728C34.287 45.2723 34.2326 45.4718 34.1601 45.6713C34.0876 45.8707 34.015 46.0702 33.9425 46.2697C33.8881 46.4692 33.8155 46.6687 33.7611 46.8863C33.7249 47.0857 33.743 47.3034 33.7067 47.521C33.6705 47.7386 33.5617 47.9381 33.5617 48.1557C33.5435 48.3733 33.5979 48.5909 33.5979 48.7904C33.5979 49.1168 33.5798 49.1168 33.5798 49.4432C33.5798 49.7697 33.6161 49.7697 33.6161 50.0961C33.6161 50.4225 33.6161 50.4225 33.6161 50.7489C33.6161 51.0753 33.5798 51.0753 33.5798 51.4018C33.5798 51.7282 33.5979 51.7282 33.5979 52.0546C33.5979 52.381 33.6161 52.381 33.6161 52.7074C33.6161 53.0339 33.5798 53.0339 33.5798 53.3603C33.5798 53.6867 33.5979 53.6867 33.5979 54.0131C33.5979 54.3395 33.6161 54.3395 33.6161 54.666C33.6161 54.9924 33.6161 54.9924 33.6161 55.3188C33.6161 55.6452 33.5979 55.6452 33.5979 55.9716C33.5979 56.2981 33.5617 56.2981 33.5617 56.6245C33.5617 56.9509 33.5254 56.9509 33.5254 57.2773C33.5254 57.6038 33.5617 57.6037 33.5617 57.9302C33.5617 58.2566 33.5617 58.2566 33.5617 58.583C33.5617 58.9094 33.6161 58.9094 33.6161 59.2359C33.6161 59.5623 33.5979 59.5623 33.5979 59.8887C33.5979 60.2151 33.5617 60.2151 33.5617 60.5415C33.5617 60.868 33.344 60.9586 33.5798 61.1762C33.8155 61.412 33.8881 61.1762 34.2326 61.1762C34.559 61.1762 34.559 61.1581 34.8855 61.1581C35.2119 61.1581 35.2119 61.1581 35.5383 61.1581C35.8647 61.1581 35.8647 61.14 36.1912 61.14C36.5176 61.14 36.5176 61.1581 36.844 61.1581C37.1704 61.1581 37.1704 61.1762 37.4968 61.1762C37.8233 61.1762 37.8233 61.1762 38.1497 61.1762C38.4761 61.1762 38.4761 61.14 38.8025 61.14C39.1289 61.14 39.1289 61.2125 39.4554 61.2125C39.7818 61.2125 39.7818 61.14 40.1082 61.14C40.4346 61.14 40.4346 61.1762 40.761 61.1762C41.0875 61.1762 41.0875 61.1762 41.4139 61.1762C41.7403 61.1762 41.7403 61.1581 42.0667 61.1581C42.3931 61.1581 42.3931 61.1762 42.7196 61.1762C43.046 61.1762 43.046 61.2125 43.3724 61.2125C43.6988 61.2125 43.6988 61.2125 44.0252 61.2125C44.3517 61.2125 44.3517 61.1581 44.6781 61.1581C45.0045 61.1581 45.0045 61.14 45.3309 61.14C45.6574 61.14 45.6574 61.1944 45.9838 61.1944C46.3102 61.1944 46.3102 61.2125 46.6547 61.2125C46.9993 61.2125 46.9812 61.1762 47.3076 61.1762C47.634 61.1762 47.634 61.1944 47.9604 61.1944C48.2869 61.1944 48.2869 61.1762 48.6314 61.1762C48.9578 61.1762 48.9578 61.2125 49.3024 61.2125C49.6288 61.2125 49.6288 61.1762 49.9734 61.1762C50.2998 61.1762 50.2998 61.1944 50.6443 61.1944C50.9708 61.1944 50.9708 61.2125 51.3153 61.2125C51.6417 61.2125 51.6417 61.1762 51.9863 61.1762C52.3127 61.1762 52.3127 61.1762 52.6573 61.1762C52.9837 61.1762 53.0562 61.412 53.292 61.1762C53.5277 60.9405 53.3464 60.868 53.3464 60.5415C53.3464 60.2151 53.3282 60.2151 53.3282 59.8887C53.3282 59.5623 53.2738 59.5623 53.2738 59.2359C53.2738 58.9094 53.3101 58.9094 53.3101 58.583C53.3101 58.2566 53.3464 58.2566 53.3464 57.9302C53.3464 57.6037 53.3464 57.6038 53.3464 57.2773C53.3464 56.9509 53.3101 56.9509 53.3101 56.6245C53.3101 56.2981 53.3464 56.2981 53.3464 55.9716C53.3464 55.6452 53.292 55.6452 53.292 55.3188C53.292 54.9924 53.3101 54.9924 53.3101 54.666C53.3101 54.3395 53.3464 54.3395 53.3464 54.0131C53.3464 53.6867 53.292 53.6867 53.292 53.3603C53.292 53.0339 53.3464 53.0339 53.3464 52.7074C53.3464 52.381 53.292 52.381 53.292 52.0546C53.292 51.7282 53.3282 51.7282 53.3282 51.4018C53.3282 51.0753 53.3101 51.0753 53.3101 50.7489C53.3101 50.4225 53.3282 50.4225 53.3282 50.0961C53.3282 49.7697 53.3101 49.7697 53.292 49.4432C53.5096 49.0624 53.5096 49.0624 53.5096 48.736Z" fill="#C7E2FF"/>
<path d="M53.5096 48.736C53.5096 48.5184 53.4914 48.3008 53.4733 48.1013C53.4552 47.8837 53.4733 47.6661 53.437 47.4666C53.4008 47.249 53.3101 47.0495 53.2738 46.85C53.2376 46.6324 53.2557 46.4148 53.2013 46.2153C53.1469 46.0158 53.0562 45.8163 52.9837 45.6169C52.9111 45.4174 52.8567 45.2179 52.7661 45.0184C52.6754 44.8189 52.5485 44.6557 52.4578 44.4562C52.3671 44.2749 52.2402 44.0936 52.1314 43.9122C52.0226 43.7309 51.9319 43.5314 51.8049 43.3682C51.678 43.1868 51.5329 43.0418 51.3878 42.8785C51.2609 42.7153 51.1521 42.5159 51.007 42.3708C50.862 42.2076 50.6987 42.0806 50.5355 41.9356C50.3723 41.7905 50.2091 41.6635 50.0459 41.5185C49.8827 41.3915 49.7195 41.2646 49.5381 41.1376C49.3568 41.0107 49.1936 40.8838 49.0122 40.7749C48.8309 40.6661 48.6677 40.5211 48.4682 40.4304C48.2869 40.3397 48.0874 40.249 47.8879 40.1584C47.6884 40.0677 47.4889 40.0133 47.2895 39.9408C47.09 39.8682 46.8724 39.8682 46.6547 39.8138C46.4553 39.7594 46.2558 39.6687 46.0382 39.6325C45.8387 39.5962 45.6211 39.5781 45.4035 39.5599C45.1859 39.5237 44.9864 39.4693 44.7688 39.4511C44.5511 39.433 44.3517 39.4149 44.1341 39.4149C43.8439 39.4149 43.8439 39.3967 43.5538 39.3967C43.2636 39.3967 43.2636 39.4511 42.9734 39.4511C42.7558 39.4511 42.5564 39.4693 42.3387 39.4874C42.1211 39.5055 41.9035 39.4693 41.704 39.5055C41.4864 39.5418 41.2869 39.5962 41.0693 39.6325C40.8517 39.6687 40.6522 39.705 40.4346 39.7594C40.2351 39.8138 40.0175 39.8864 39.818 39.9408C39.6186 40.0133 39.4372 40.1402 39.2377 40.2309C39.0383 40.3216 38.8388 40.376 38.6393 40.4667C38.458 40.5573 38.2766 40.7024 38.0953 40.8112C37.9139 40.92 37.7144 40.9926 37.5331 41.1195C37.3518 41.2464 37.1885 41.3734 37.0253 41.5003C36.8621 41.6273 36.7171 41.7905 36.5538 41.9356C36.3906 42.0806 36.2456 42.2257 36.1005 42.3889C35.9554 42.5521 35.8103 42.6972 35.6834 42.8785C35.5564 43.0418 35.4476 43.2412 35.3207 43.4044C35.1938 43.5858 35.0668 43.749 34.958 43.9303C34.8492 44.1117 34.7041 44.2749 34.6135 44.4744C34.5228 44.6557 34.4684 44.8733 34.3777 45.0728C34.287 45.2723 34.2326 45.4718 34.1601 45.6713C34.0876 45.8707 34.015 46.0702 33.9425 46.2697C33.8881 46.4692 33.8155 46.6687 33.7611 46.8863C33.7249 47.0857 33.743 47.3034 33.7067 47.521C33.6705 47.7386 33.5617 47.9381 33.5617 48.1557C33.5435 48.3733 33.5979 48.5909 33.5979 48.7904C33.5979 49.1168 33.5798 49.1168 33.5798 49.4432C33.5798 49.7697 33.6161 49.7697 33.6161 50.0961C33.6161 50.4225 33.6161 50.4225 33.6161 50.7489C33.6161 51.0753 33.5798 51.0753 33.5798 51.4018C33.5798 51.7282 33.5979 51.7282 33.5979 52.0546C33.5979 52.381 33.6161 52.381 33.6161 52.7074C33.6161 53.0339 33.5798 53.0339 33.5798 53.3603C33.5798 53.6867 33.5979 53.6867 33.5979 54.0131C33.5979 54.3395 33.6161 54.3395 33.6161 54.666C33.6161 54.9924 33.6161 54.9924 33.6161 55.3188C33.6161 55.6452 33.5979 55.6452 33.5979 55.9716C33.5979 56.2981 33.5617 56.2981 33.5617 56.6245C33.5617 56.9509 33.5254 56.9509 33.5254 57.2773C33.5254 57.6038 33.5617 57.6037 33.5617 57.9302C33.5617 58.2566 33.5617 58.2566 33.5617 58.583C33.5617 58.9094 33.6161 58.9094 33.6161 59.2359C33.6161 59.5623 33.5979 59.5623 33.5979 59.8887C33.5979 60.2151 33.5617 60.2151 33.5617 60.5415C33.5617 60.868 33.344 60.9586 33.5798 61.1762C33.8155 61.412 33.8881 61.1762 34.2326 61.1762C34.559 61.1762 34.559 61.1581 34.8855 61.1581C35.2119 61.1581 35.2119 61.1581 35.5383 61.1581C35.8647 61.1581 35.8647 61.14 36.1912 61.14C36.5176 61.14 36.5176 61.1581 36.844 61.1581C37.1704 61.1581 37.1704 61.1762 37.4968 61.1762C37.8233 61.1762 37.8233 61.1762 38.1497 61.1762C38.4761 61.1762 38.4761 61.14 38.8025 61.14C39.1289 61.14 39.1289 61.2125 39.4554 61.2125C39.7818 61.2125 39.7818 61.14 40.1082 61.14C40.4346 61.14 40.4346 61.1762 40.761 61.1762C41.0875 61.1762 41.0875 61.1762 41.4139 61.1762C41.7403 61.1762 41.7403 61.1581 42.0667 61.1581C42.3931 61.1581 42.3931 61.1762 42.7196 61.1762C43.046 61.1762 43.046 61.2125 43.3724 61.2125C43.6988 61.2125 43.6988 61.2125 44.0252 61.2125C44.3517 61.2125 44.3517 61.1581 44.6781 61.1581C45.0045 61.1581 45.0045 61.14 45.3309 61.14C45.6574 61.14 45.6574 61.1944 45.9838 61.1944C46.3102 61.1944 46.3102 61.2125 46.6547 61.2125C46.9993 61.2125 46.9812 61.1762 47.3076 61.1762C47.634 61.1762 47.634 61.1944 47.9604 61.1944C48.2869 61.1944 48.2869 61.1762 48.6314 61.1762C48.9578 61.1762 48.9578 61.2125 49.3024 61.2125C49.6288 61.2125 49.6288 61.1762 49.9734 61.1762C50.2998 61.1762 50.2998 61.1944 50.6443 61.1944C50.9708 61.1944 50.9708 61.2125 51.3153 61.2125C51.6417 61.2125 51.6417 61.1762 51.9863 61.1762C52.3127 61.1762 52.3127 61.1762 52.6573 61.1762C52.9837 61.1762 53.0562 61.412 53.292 61.1762C53.5277 60.9405 53.3464 60.868 53.3464 60.5415C53.3464 60.2151 53.3282 60.2151 53.3282 59.8887C53.3282 59.5623 53.2738 59.5623 53.2738 59.2359C53.2738 58.9094 53.3101 58.9094 53.3101 58.583C53.3101 58.2566 53.3464 58.2566 53.3464 57.9302C53.3464 57.6037 53.3464 57.6038 53.3464 57.2773C53.3464 56.9509 53.3101 56.9509 53.3101 56.6245C53.3101 56.2981 53.3464 56.2981 53.3464 55.9716C53.3464 55.6452 53.292 55.6452 53.292 55.3188C53.292 54.9924 53.3101 54.9924 53.3101 54.666C53.3101 54.3395 53.3464 54.3395 53.3464 54.0131C53.3464 53.6867 53.292 53.6867 53.292 53.3603C53.292 53.0339 53.3464 53.0339 53.3464 52.7074C53.3464 52.381 53.292 52.381 53.292 52.0546C53.292 51.7282 53.3282 51.7282 53.3282 51.4018C53.3282 51.0753 53.3101 51.0753 53.3101 50.7489C53.3101 50.4225 53.3282 50.4225 53.3282 50.0961C53.3282 49.7697 53.3101 49.7697 53.292 49.4432C53.5096 49.0624 53.5096 49.0624 53.5096 48.736Z" stroke="#414C58" stroke-width="0.42039" stroke-miterlimit="10" stroke-linecap="round"/>
<path d="M53.5095 61.1036C53.5095 60.7953 53.4913 60.7953 53.4913 60.487C53.4913 60.1788 53.5457 60.1788 53.5457 59.8705C53.5457 59.5622 53.4732 59.5622 53.4732 59.2539C53.4732 58.9456 53.5276 58.9456 53.5276 58.6373C53.5276 58.329 53.4551 58.329 53.4551 58.0207C53.4551 57.7125 53.5095 57.7125 53.5095 57.4042C53.5095 57.0959 53.4732 57.0959 53.4732 56.7876C53.4732 56.4793 53.4732 56.4793 53.4732 56.171C53.4732 56.1529 53.4732 56.1348 53.4551 56.1529C53.2919 56.4612 53.3281 56.4793 53.1649 56.7695C53.0017 57.0778 52.9654 57.0596 52.8022 57.3679C52.639 57.6762 52.639 57.6762 52.4758 57.9663C52.3126 58.2746 52.3126 58.2746 52.1494 58.5829C51.9862 58.8912 51.9862 58.8912 51.823 59.1995C51.6598 59.5078 51.7323 59.544 51.5691 59.8523C51.4059 60.1606 51.3333 60.1244 51.1701 60.4326C51.0069 60.7409 51.152 60.8316 50.9162 61.0855C50.6986 61.3212 50.6261 61.0855 50.2453 61.0855C50.0458 61.0855 49.8282 61.0855 49.5924 61.0855C49.3748 61.0855 49.1391 61.0492 48.9396 61.0492C48.5588 61.0492 48.2867 61.0492 48.2867 61.0492C48.6132 61.0492 48.6132 61.0673 48.9396 61.0673C49.266 61.0673 49.266 61.0855 49.5924 61.0855C49.9188 61.0855 49.9188 61.0673 50.2453 61.0673C50.5717 61.0673 50.5717 61.1036 50.8981 61.1036C51.2245 61.1036 51.2245 61.1217 51.551 61.1217C51.8774 61.1217 51.8774 61.1217 52.2038 61.1217C52.5302 61.1217 52.5302 61.1399 52.8566 61.1399C53.1831 61.1399 53.1831 61.0673 53.5095 61.0673C53.4913 61.1036 53.5095 61.1217 53.5095 61.1036Z" fill="#414C58"/>
<path d="M73.3305 58.5102V59.2175C73.3305 59.562 73.3486 59.562 73.3486 59.9247C73.3486 60.2874 73.3305 60.2874 73.3305 60.632C73.3305 60.904 73.1491 61.1579 72.8771 61.1579C72.5507 61.1579 72.5507 61.1216 72.2243 61.1216C71.8979 61.1216 71.8979 61.1035 71.5714 61.1035C71.245 61.1035 71.245 61.1397 70.9186 61.1397C70.5922 61.1397 70.5922 61.176 70.2658 61.176C69.9393 61.176 69.9393 61.176 69.6129 61.176C69.2865 61.176 69.2865 61.176 68.9601 61.176C68.6337 61.176 68.6337 61.1397 68.3072 61.1397C67.9808 61.1397 67.9808 61.176 67.6544 61.176C67.328 61.176 67.328 61.1216 67.0016 61.1216C66.6751 61.1216 66.6751 61.1035 66.3487 61.1035C66.0223 61.1035 66.0223 61.1579 65.6959 61.1579C65.3695 61.1579 65.3695 61.1579 65.043 61.1579C64.7166 61.1579 64.7166 61.1397 64.3902 61.1397C64.0638 61.1397 64.0638 61.0853 63.7373 61.0853C63.4109 61.0853 63.4109 61.1035 63.0845 61.1035C62.7581 61.1035 62.7581 61.0853 62.4317 61.0853C62.1052 61.0853 62.1052 61.0853 61.7788 61.0853C61.4524 61.0853 61.4524 61.1035 61.126 61.1035C60.7996 61.1035 60.7996 61.0672 60.4731 61.0672C60.1467 61.0672 60.1467 61.1216 59.8203 61.1216C59.4939 61.1216 59.4939 61.1216 59.1675 61.1216C58.841 61.1216 58.841 61.0672 58.5146 61.0672C58.1882 61.0672 58.1882 61.1579 57.8618 61.1579C57.5354 61.1579 57.5354 61.1397 57.2089 61.1397C56.8825 61.1397 56.8825 61.0672 56.5561 61.0672C56.2297 61.0672 56.2297 61.1397 55.9033 61.1397C55.5768 61.1397 55.5768 61.0672 55.2504 61.0672C54.924 61.0672 54.924 61.1216 54.5976 61.1216C54.2712 61.1216 54.2712 61.1397 53.9447 61.1397C53.6727 61.1397 53.4551 60.8859 53.4551 60.5957C53.4551 60.2511 53.4007 60.2511 53.4007 59.8885C53.4007 59.5439 53.4188 59.5439 53.4188 59.1812C53.4188 58.8367 53.4914 58.8367 53.4914 58.474C53.4914 58.2564 53.4732 58.0387 53.4914 57.8211C53.5095 57.6035 53.4914 57.3859 53.5095 57.1683C53.5458 56.9507 53.582 56.7331 53.6183 56.5336C53.6546 56.316 53.6908 56.0984 53.7452 55.8989C53.7997 55.6813 53.8903 55.4818 53.9629 55.2823C54.0354 55.0828 54.1079 54.8652 54.1986 54.6657C54.2893 54.4662 54.3618 54.2668 54.4525 54.0673C54.5432 53.8678 54.6701 53.6865 54.7789 53.5051C54.8877 53.3238 55.0328 53.1606 55.1597 52.9792C55.2867 52.7979 55.3411 52.5803 55.4862 52.417C55.6131 52.2538 55.7763 52.0906 55.9214 51.9274C56.0665 51.7642 56.2115 51.601 56.3566 51.4378C56.5017 51.2927 56.6649 51.1295 56.81 50.9844C56.9732 50.8394 57.1727 50.7487 57.354 50.6217C57.5172 50.4948 57.7167 50.3679 57.8981 50.259C58.0794 50.1321 58.2607 50.0233 58.4421 49.9145C58.6234 49.8057 58.8048 49.6969 59.0042 49.5881C59.2037 49.4974 59.3851 49.3886 59.5846 49.2979C59.784 49.2072 59.9835 49.1166 60.183 49.0622C60.3825 48.9896 60.6001 48.9534 60.8177 48.899C61.0172 48.8446 61.2167 48.7357 61.4343 48.6813C61.6519 48.6451 61.8695 48.6269 62.0871 48.6088C62.3047 48.5725 62.5223 48.5907 62.74 48.5725C62.9576 48.5544 63.1752 48.5 63.3928 48.5C63.6104 48.5 63.828 48.5725 64.0456 48.5907C64.2633 48.6088 64.4809 48.6269 64.6985 48.6451C64.9161 48.6813 65.1337 48.6451 65.3513 48.6813C65.5689 48.7176 65.7684 48.8083 65.986 48.8627C66.2036 48.9171 66.4031 48.9715 66.6026 49.044C66.8021 49.1166 67.0197 49.171 67.2192 49.2617C67.4187 49.3523 67.6181 49.4249 67.8176 49.5337C68.0171 49.6243 68.1803 49.7694 68.3798 49.8782C68.5611 49.987 68.7787 50.0596 68.9601 50.1684C69.1414 50.2953 69.3046 50.4404 69.4678 50.5673C69.6311 50.6943 69.8124 50.8394 69.9756 50.9844C70.1388 51.1295 70.302 51.2746 70.4471 51.4197C70.5922 51.5647 70.701 51.7642 70.8461 51.9274C70.9911 52.0906 71.1725 52.2176 71.3176 52.3808C71.4445 52.544 71.517 52.7616 71.644 52.9429C71.7709 53.1243 71.8797 53.3056 71.9885 53.487C72.0973 53.6683 72.2606 53.8315 72.3512 54.031C72.4419 54.2305 72.4963 54.4481 72.5688 54.6476C72.6595 54.8471 72.7321 55.0465 72.8046 55.246C72.8771 55.4455 72.9315 55.6631 72.9859 55.8626C73.0403 56.0802 73.131 56.2797 73.1854 56.4792C73.2217 56.6968 73.2217 56.9144 73.2398 57.132C73.2761 57.3496 73.3305 57.5491 73.3486 57.7667C73.3668 58.075 73.3305 58.2926 73.3305 58.5102Z" fill="#C6F2DD"/>
<path d="M73.3305 58.5102V59.2175C73.3305 59.562 73.3486 59.562 73.3486 59.9247C73.3486 60.2874 73.3305 60.2874 73.3305 60.632C73.3305 60.904 73.1491 61.1579 72.8771 61.1579C72.5507 61.1579 72.5507 61.1216 72.2243 61.1216C71.8979 61.1216 71.8979 61.1035 71.5714 61.1035C71.245 61.1035 71.245 61.1397 70.9186 61.1397C70.5922 61.1397 70.5922 61.176 70.2658 61.176C69.9393 61.176 69.9393 61.176 69.6129 61.176C69.2865 61.176 69.2865 61.176 68.9601 61.176C68.6337 61.176 68.6337 61.1397 68.3072 61.1397C67.9808 61.1397 67.9808 61.176 67.6544 61.176C67.328 61.176 67.328 61.1216 67.0016 61.1216C66.6751 61.1216 66.6751 61.1035 66.3487 61.1035C66.0223 61.1035 66.0223 61.1579 65.6959 61.1579C65.3695 61.1579 65.3695 61.1579 65.043 61.1579C64.7166 61.1579 64.7166 61.1397 64.3902 61.1397C64.0638 61.1397 64.0638 61.0853 63.7373 61.0853C63.4109 61.0853 63.4109 61.1035 63.0845 61.1035C62.7581 61.1035 62.7581 61.0853 62.4317 61.0853C62.1052 61.0853 62.1052 61.0853 61.7788 61.0853C61.4524 61.0853 61.4524 61.1035 61.126 61.1035C60.7996 61.1035 60.7996 61.0672 60.4731 61.0672C60.1467 61.0672 60.1467 61.1216 59.8203 61.1216C59.4939 61.1216 59.4939 61.1216 59.1675 61.1216C58.841 61.1216 58.841 61.0672 58.5146 61.0672C58.1882 61.0672 58.1882 61.1579 57.8618 61.1579C57.5354 61.1579 57.5354 61.1397 57.2089 61.1397C56.8825 61.1397 56.8825 61.0672 56.5561 61.0672C56.2297 61.0672 56.2297 61.1397 55.9033 61.1397C55.5768 61.1397 55.5768 61.0672 55.2504 61.0672C54.924 61.0672 54.924 61.1216 54.5976 61.1216C54.2712 61.1216 54.2712 61.1397 53.9447 61.1397C53.6727 61.1397 53.4551 60.8859 53.4551 60.5957C53.4551 60.2511 53.4007 60.2511 53.4007 59.8885C53.4007 59.5439 53.4188 59.5439 53.4188 59.1812C53.4188 58.8367 53.4914 58.8367 53.4914 58.474C53.4914 58.2564 53.4732 58.0387 53.4914 57.8211C53.5095 57.6035 53.4914 57.3859 53.5095 57.1683C53.5458 56.9507 53.582 56.7331 53.6183 56.5336C53.6546 56.316 53.6908 56.0984 53.7452 55.8989C53.7997 55.6813 53.8903 55.4818 53.9629 55.2823C54.0354 55.0828 54.1079 54.8652 54.1986 54.6657C54.2893 54.4662 54.3618 54.2668 54.4525 54.0673C54.5432 53.8678 54.6701 53.6865 54.7789 53.5051C54.8877 53.3238 55.0328 53.1606 55.1597 52.9792C55.2867 52.7979 55.3411 52.5803 55.4862 52.417C55.6131 52.2538 55.7763 52.0906 55.9214 51.9274C56.0665 51.7642 56.2115 51.601 56.3566 51.4378C56.5017 51.2927 56.6649 51.1295 56.81 50.9844C56.9732 50.8394 57.1727 50.7487 57.354 50.6217C57.5172 50.4948 57.7167 50.3679 57.8981 50.259C58.0794 50.1321 58.2607 50.0233 58.4421 49.9145C58.6234 49.8057 58.8048 49.6969 59.0042 49.5881C59.2037 49.4974 59.3851 49.3886 59.5846 49.2979C59.784 49.2072 59.9835 49.1166 60.183 49.0622C60.3825 48.9896 60.6001 48.9534 60.8177 48.899C61.0172 48.8446 61.2167 48.7357 61.4343 48.6813C61.6519 48.6451 61.8695 48.6269 62.0871 48.6088C62.3047 48.5725 62.5223 48.5907 62.74 48.5725C62.9576 48.5544 63.1752 48.5 63.3928 48.5C63.6104 48.5 63.828 48.5725 64.0456 48.5907C64.2633 48.6088 64.4809 48.6269 64.6985 48.6451C64.9161 48.6813 65.1337 48.6451 65.3513 48.6813C65.5689 48.7176 65.7684 48.8083 65.986 48.8627C66.2036 48.9171 66.4031 48.9715 66.6026 49.044C66.8021 49.1166 67.0197 49.171 67.2192 49.2617C67.4187 49.3523 67.6181 49.4249 67.8176 49.5337C68.0171 49.6243 68.1803 49.7694 68.3798 49.8782C68.5611 49.987 68.7787 50.0596 68.9601 50.1684C69.1414 50.2953 69.3046 50.4404 69.4678 50.5673C69.6311 50.6943 69.8124 50.8394 69.9756 50.9844C70.1388 51.1295 70.302 51.2746 70.4471 51.4197C70.5922 51.5647 70.701 51.7642 70.8461 51.9274C70.9911 52.0906 71.1725 52.2176 71.3176 52.3808C71.4445 52.544 71.517 52.7616 71.644 52.9429C71.7709 53.1243 71.8797 53.3056 71.9885 53.487C72.0973 53.6683 72.2606 53.8315 72.3512 54.031C72.4419 54.2305 72.4963 54.4481 72.5688 54.6476C72.6595 54.8471 72.7321 55.0465 72.8046 55.246C72.8771 55.4455 72.9315 55.6631 72.9859 55.8626C73.0403 56.0802 73.131 56.2797 73.1854 56.4792C73.2217 56.6968 73.2217 56.9144 73.2398 57.132C73.2761 57.3496 73.3305 57.5491 73.3486 57.7667C73.3668 58.075 73.3305 58.2926 73.3305 58.5102Z" stroke="#414C58" stroke-width="0.42039" stroke-miterlimit="10" stroke-linecap="round"/>
<path d="M29.499 43.6763C29.3177 43.5494 29.1726 43.4225 28.9912 43.3137C28.8099 43.2049 28.6285 43.1142 28.4291 43.0235C28.2477 42.9328 28.0664 42.824 27.8669 42.7334C27.5405 42.6427 27.5405 42.6608 27.2141 42.5883C26.8876 42.5157 26.8876 42.4795 26.5612 42.3888C26.2348 42.3163 26.2348 42.3163 25.8902 42.2437C25.5638 42.1712 25.5457 42.2437 25.2193 42.1531C24.8928 42.0805 24.911 41.9898 24.5846 41.9173C24.4213 41.9173 24.24 41.8992 24.0768 41.8992C23.8592 41.8992 23.6416 41.9173 23.4239 41.9354C23.2063 41.9536 22.9887 41.9536 22.7711 41.9898C22.5535 42.0261 22.354 42.1168 22.1364 42.1531C21.9188 42.1893 21.7012 42.2075 21.4836 42.28C21.2659 42.3344 21.0483 42.3888 20.8488 42.4613C20.6494 42.5339 20.4499 42.6427 20.2504 42.7334C20.0509 42.824 19.8696 42.951 19.6701 43.0598C19.4706 43.1686 19.2893 43.2593 19.0898 43.3862C18.9085 43.495 18.7271 43.6219 18.5458 43.7489C18.3644 43.8758 18.1831 43.9846 18.0017 44.1297C17.8385 44.2748 17.6934 44.438 17.5302 44.5831C17.367 44.7281 17.1857 44.8551 17.0406 45.0183C16.8955 45.1815 16.7323 45.3447 16.6054 45.5079C16.4603 45.6711 16.3878 45.8888 16.2608 46.0701C16.1339 46.2514 16.0251 46.4328 15.8981 46.6141C15.7893 46.7955 15.6624 46.995 15.5717 47.1763" fill="#414C58"/>
<path d="M0.792114 61.0489C1.11853 61.0489 1.11853 61.0308 1.44496 61.0308C1.77138 61.0308 1.77138 61.0852 2.0978 61.0852C2.42422 61.0852 2.42422 61.0852 2.75064 61.0852C3.07706 61.0852 3.07706 61.0852 3.40348 61.0852C3.7299 61.0852 3.7299 61.0671 4.05632 61.0671C4.38274 61.0671 4.38274 61.0489 4.70916 61.0489C5.03558 61.0489 5.03558 61.0489 5.362 61.0489C5.68842 61.0489 5.68842 61.0308 6.01484 61.0308C6.34127 61.0308 6.34127 61.0489 6.66769 61.0489C6.99411 61.0489 6.99411 61.0308 7.32053 61.0308C7.64695 61.0308 7.64695 61.1033 7.97337 61.1033C8.29979 61.1033 8.29979 61.0127 8.62621 61.0127C8.95263 61.0127 8.95263 61.0489 9.27905 61.0489C9.60547 61.0489 9.60547 61.0671 9.93189 61.0671C10.2583 61.0671 10.2583 60.9945 10.5847 60.9945C10.9112 60.9945 10.9112 61.0671 11.2376 61.0671C11.564 61.0671 11.564 61.0671 11.8904 61.0671C12.2168 61.0671 12.2168 61.0127 12.5433 61.0127C12.8697 61.0127 12.8697 61.0852 13.1961 61.0852C13.5225 61.0852 13.5225 61.0671 13.8489 61.0671C14.1754 61.0671 14.1754 61.0127 14.5018 61.0127C14.8282 61.0127 14.8282 61.0308 15.1546 61.0308C15.481 61.0308 15.481 60.9945 15.8075 60.9945C16.1339 60.9945 16.1339 61.0127 16.4603 61.0127C16.7867 61.0127 16.7867 60.9945 17.1131 60.9945C17.4396 60.9945 17.4396 61.0489 17.766 61.0489C18.0924 61.0489 18.0924 61.0308 18.4188 61.0308C18.7452 61.0308 18.7452 61.0127 19.0717 61.0127C19.3981 61.0127 19.3981 60.9945 19.7245 60.9945C20.0509 60.9945 20.0509 61.0127 20.3774 61.0127C20.7038 61.0127 20.7038 61.0127 21.0302 61.0127C21.3566 61.0127 21.3566 61.0127 21.683 61.0127C22.0095 61.0127 22.0095 61.0127 22.3359 61.0127C22.6623 61.0127 22.6623 61.0308 22.9887 61.0308C23.3151 61.0308 23.3151 61.0489 23.6416 61.0489C23.968 61.0489 23.968 61.0308 24.2944 61.0308C24.6208 61.0308 24.6208 61.0671 24.9472 61.0671C25.2737 61.0671 25.2737 61.0489 25.6001 61.0489C25.9265 61.0489 25.9265 61.0308 26.2529 61.0308C26.5793 61.0308 26.5793 61.0308 26.9058 61.0308C27.2322 61.0308 27.2322 60.9945 27.5586 60.9945C27.885 60.9945 27.885 60.9945 28.2114 60.9945C28.5379 60.9945 28.5379 61.0489 28.8643 61.0489C29.1907 61.0489 29.1907 61.0671 29.5171 61.0671C29.8436 61.0671 29.8436 61.0671 30.17 61.0671C30.4964 61.0671 30.4964 61.0308 30.8228 61.0308C31.1492 61.0308 31.1492 61.0127 31.4757 61.0127C31.8021 61.0127 31.8021 61.0127 32.1285 61.0127C32.4549 61.0127 32.4549 61.0489 32.7813 61.0489C33.1078 61.0489 33.1078 61.0489 33.4342 61.0489C33.7606 61.0489 33.7606 60.9945 34.087 60.9945C34.4134 60.9945 34.4134 60.9945 34.7399 60.9945C35.0663 60.9945 35.0663 61.0127 35.3927 61.0127C35.7191 61.0127 35.7191 61.0489 36.0455 61.0489C36.372 61.0489 36.372 60.9764 36.6984 60.9764C37.0248 60.9764 37.0248 60.9764 37.3512 60.9764C37.6776 60.9764 37.6776 60.9764 38.0041 60.9764C38.3305 60.9764 38.3305 61.0308 38.6569 61.0308C38.9833 61.0308 38.9833 61.0308 39.3098 61.0308C39.6362 61.0308 39.6362 61.0489 39.9626 61.0489C40.289 61.0489 40.289 60.9945 40.6154 60.9945C40.9419 60.9945 40.9419 61.0308 41.2683 61.0308C41.5947 61.0308 41.5947 60.9945 41.9211 60.9945C42.2475 60.9945 42.2475 61.0308 42.574 61.0308C42.9004 61.0308 42.9004 61.0308 43.2268 61.0308C43.5532 61.0308 43.5532 60.9945 43.8796 60.9945C44.2061 60.9945 44.2061 60.9764 44.5325 60.9764C44.8589 60.9764 44.8589 61.0127 45.1853 61.0127C45.5117 61.0127 45.5117 61.0308 45.8382 61.0308C46.1646 61.0308 46.1646 61.0308 46.491 61.0308C46.8174 61.0308 46.8174 61.0308 47.1438 61.0308C47.4703 61.0308 47.4703 60.9945 47.7967 60.9945C48.1231 60.9945 48.1231 61.0127 48.4495 61.0127C48.776 61.0127 48.776 61.0671 49.1024 61.0671C49.4288 61.0671 49.4288 61.0489 49.7552 61.0489C50.0816 61.0489 50.0816 61.0308 50.4081 61.0308C50.7345 61.0308 50.7345 60.9945 51.0609 60.9945C51.3873 60.9945 51.3873 61.0489 51.7137 61.0489C52.0402 61.0489 52.0402 61.0308 52.3666 61.0308C52.693 61.0308 52.693 61.0127 53.0194 61.0127C53.3458 61.0127 53.3458 61.0308 53.6723 61.0308C53.9987 61.0308 53.9987 61.0127 54.3251 61.0127C54.6515 61.0127 54.6515 61.0127 54.9779 61.0127C55.3044 61.0127 55.3044 60.9764 55.6308 60.9764C55.9572 60.9764 55.9572 61.0308 56.2836 61.0308C56.61 61.0308 56.61 61.0489 56.9365 61.0489C57.2629 61.0489 57.2629 60.9945 57.5893 60.9945C57.9157 60.9945 57.9157 61.0127 58.2422 61.0127C58.5686 61.0127 58.5686 61.0308 58.895 61.0308C59.2214 61.0308 59.2214 61.0489 59.5478 61.0489C59.8743 61.0489 59.8743 61.0127 60.2007 61.0127C60.5271 61.0127 60.5271 61.0127 60.8535 61.0127C61.1799 61.0127 61.1799 61.0127 61.5064 61.0127C61.8328 61.0127 61.8328 60.9945 62.1592 60.9945C62.4856 60.9945 62.4856 60.9583 62.812 60.9583C63.1385 60.9583 63.1385 60.9764 63.4649 60.9764C63.7913 60.9764 63.7913 61.0127 64.1177 61.0127C64.4441 61.0127 64.4441 61.0308 64.7706 61.0308C65.097 61.0308 65.097 60.9945 65.4234 60.9945C65.7498 60.9945 65.7498 60.9583 66.0762 60.9583C66.4027 60.9583 66.4027 61.0127 66.7291 61.0127C67.0555 61.0127 67.0555 61.0308 67.3819 61.0308C67.7084 61.0308 67.7084 60.9945 68.0348 60.9945C68.3612 60.9945 68.3612 61.0489 68.6876 61.0489C69.014 61.0489 69.014 60.9945 69.3405 60.9945C69.6669 60.9945 69.6669 60.9764 69.9933 60.9764C70.3197 60.9764 70.3197 60.9764 70.6461 60.9764C70.9726 60.9764 70.9726 60.9764 71.299 60.9764C71.6254 60.9764 71.6254 60.9764 71.9518 60.9764C72.2782 60.9764 72.2782 61.0308 72.6047 61.0308C72.9311 61.0308 72.9311 60.9583 73.2575 60.9583C73.5839 60.9583 73.5839 61.0489 73.9103 61.0489C74.2368 61.0489 74.2368 61.0308 74.5632 61.0308C74.8896 61.0308 74.8896 61.0489 75.216 61.0489C75.5424 61.0489 75.5424 61.0127 75.8689 61.0127C76.1953 61.0127 76.1953 60.9945 76.5217 60.9945C76.8481 60.9945 76.8481 60.9945 77.1745 60.9945C77.501 60.9945 77.501 61.0308 77.8274 61.0308C78.1538 61.0308 78.1538 60.9583 78.4802 60.9583C78.8067 60.9583 78.8067 61.0489 79.1331 61.0489C79.4595 61.0489 79.4595 61.0308 79.7859 61.0308C80.1123 61.0308 80.1123 61.0127 80.4388 61.0127C80.7652 61.0127 80.7652 61.0127 81.0916 61.0127C81.418 61.0127 81.418 61.0489 81.7444 61.0489C82.0709 61.0489 82.0709 60.9945 82.3973 60.9945C82.7237 60.9945 82.7237 61.0489 83.0501 61.0489C83.3765 61.0489 83.3765 60.9764 83.703 60.9764C84.0294 60.9764 84.0294 61.0127 84.3558 61.0127C84.6822 61.0127 84.6822 61.0308 85.0086 61.0308C85.3351 61.0308 85.3351 61.0671 85.6615 61.0671C85.9879 61.0671 85.9879 61.0127 86.3143 61.0127C86.6407 61.0127 86.6407 61.0671 86.9672 61.0671C87.2936 61.0671 87.2936 61.0308 87.62 61.0308" stroke="#414C58" stroke-width="0.42039" stroke-miterlimit="10" stroke-linecap="round"/>
<path d="M40.9964 50.5493C40.9964 50.3498 41.0327 50.1503 41.0871 49.969C41.1415 49.7695 41.214 49.5882 41.3047 49.425C41.4135 49.2436 41.5223 49.0985 41.6674 48.9535C41.8124 48.8084 41.9394 48.6452 42.1026 48.5545C42.2658 48.4638 42.4834 48.4094 42.6648 48.355C42.8461 48.3006 43.0456 48.2462 43.2632 48.2462C43.4627 48.2462 43.6622 48.3188 43.8435 48.3732C44.043 48.4276 44.2243 48.482 44.3875 48.5908C44.5689 48.6996 44.7321 48.8084 44.8772 48.9353C45.0223 49.0804 45.1492 49.2255 45.258 49.4068C45.3487 49.57 45.4212 49.7695 45.4756 49.969C45.53 50.1503 45.5844 50.3498 45.5844 50.5674C45.5844 50.7669 45.5482 50.9664 45.4938 51.1659C45.4393 51.3653 45.3668 51.5467 45.258 51.728C45.1492 51.9094 45.0041 52.0363 44.859 52.1814C44.714 52.3265 44.6052 52.4897 44.4238 52.5985C44.2606 52.6892 44.043 52.7254 43.8435 52.7798C43.6622 52.8342 43.4627 52.9068 43.2632 52.9068C43.0637 52.9068 42.8643 52.798 42.6829 52.7617C42.4834 52.7073 42.3021 52.671 42.1207 52.5622C41.9394 52.4534 41.7762 52.3627 41.6311 52.2177C41.486 52.0726 41.3772 51.9094 41.2866 51.728C41.1959 51.5648 41.0871 51.3835 41.0508 51.184C41.0145 50.9483 40.9964 50.7488 40.9964 50.5493Z" fill="white"/>
<path d="M40.9964 50.5493C40.9964 50.3498 41.0327 50.1503 41.0871 49.969C41.1415 49.7695 41.214 49.5882 41.3047 49.425C41.4135 49.2436 41.5223 49.0985 41.6674 48.9535C41.8125 48.8084 41.9394 48.6452 42.1026 48.5545C42.2658 48.4638 42.4834 48.4094 42.6648 48.355C42.8461 48.3006 43.0456 48.2462 43.2632 48.2462C43.4627 48.2462 43.6622 48.3188 43.8435 48.3732C44.043 48.4276 44.2243 48.482 44.3875 48.5908C44.5689 48.6996 44.7321 48.8084 44.8772 48.9353C45.0223 49.0804 45.1492 49.2255 45.258 49.4068C45.3487 49.57 45.4212 49.7695 45.4756 49.969C45.53 50.1503 45.5844 50.3498 45.5844 50.5674C45.5844 50.7669 45.5482 50.9664 45.4938 51.1659C45.4393 51.3653 45.3668 51.5467 45.258 51.728C45.1492 51.9094 45.0041 52.0363 44.859 52.1814C44.714 52.3265 44.6052 52.4897 44.4238 52.5985C44.2606 52.6892 44.043 52.7254 43.8435 52.7798C43.6622 52.8342 43.4627 52.9068 43.2632 52.9068C43.0637 52.9068 42.8643 52.798 42.6829 52.7617C42.4834 52.7073 42.3021 52.671 42.1207 52.5622C41.9394 52.4534 41.7762 52.3627 41.6311 52.2177C41.486 52.0726 41.3772 51.9094 41.2866 51.728C41.1959 51.5648 41.0871 51.3835 41.0508 51.184C41.0145 50.9483 40.9964 50.7488 40.9964 50.5493Z" stroke="#414C58" stroke-width="0.42039" stroke-miterlimit="10" stroke-linecap="round"/>
<path d="M40.9419 57.4948C40.9419 57.2953 40.9963 57.0958 41.0326 56.8963C41.087 56.6969 41.2139 56.5336 41.3046 56.3704C41.4134 56.1891 41.4859 56.0077 41.631 55.8808C41.7761 55.7357 41.903 55.5725 42.0844 55.4818C42.2476 55.3912 42.4471 55.3186 42.6465 55.2642C42.8279 55.2098 43.0455 55.2461 43.245 55.2461C43.4445 55.2461 43.6439 55.2824 43.8253 55.3368C44.0248 55.3912 44.188 55.4818 44.3693 55.5725C44.5507 55.6813 44.7139 55.772 44.8589 55.8989C45.004 56.044 45.131 56.1891 45.2398 56.3704C45.3304 56.5336 45.3667 56.7513 45.4211 56.9326C45.4755 57.1139 45.5843 57.3134 45.5843 57.5129C45.5843 57.7124 45.5481 57.93 45.5118 58.1113C45.4574 58.3108 45.3304 58.474 45.2398 58.6554C45.131 58.8367 45.0403 59.0181 44.8952 59.1631C44.7501 59.3082 44.5688 59.417 44.4056 59.5077C44.2424 59.5984 44.061 59.7253 43.8615 59.7797C43.6802 59.8341 43.4626 59.8523 43.2631 59.8523C43.0636 59.8523 42.8641 59.7978 42.6647 59.7434C42.4652 59.689 42.2838 59.5984 42.1206 59.5077C41.9393 59.3989 41.7761 59.3082 41.631 59.1631C41.4859 59.0181 41.359 58.873 41.2502 58.6916C41.1595 58.5284 41.087 58.329 41.0326 58.1295C40.9963 57.8937 40.9419 57.6942 40.9419 57.4948Z" fill="white"/>
<path d="M40.9419 57.4948C40.9419 57.2953 40.9963 57.0958 41.0326 56.8963C41.087 56.6969 41.2139 56.5336 41.3046 56.3704C41.4134 56.1891 41.4859 56.0077 41.631 55.8808C41.7761 55.7357 41.903 55.5725 42.0844 55.4818C42.2476 55.3912 42.4471 55.3186 42.6465 55.2642C42.8279 55.2098 43.0455 55.2461 43.245 55.2461C43.4445 55.2461 43.6439 55.2824 43.8253 55.3368C44.0248 55.3912 44.188 55.4818 44.3693 55.5725C44.5507 55.6813 44.7139 55.772 44.8589 55.8989C45.004 56.044 45.131 56.1891 45.2398 56.3704C45.3304 56.5336 45.3667 56.7513 45.4211 56.9326C45.4755 57.1139 45.5843 57.3134 45.5843 57.5129C45.5843 57.7124 45.5481 57.93 45.5118 58.1113C45.4574 58.3108 45.3304 58.474 45.2398 58.6554C45.131 58.8367 45.0403 59.0181 44.8952 59.1631C44.7501 59.3082 44.5688 59.417 44.4056 59.5077C44.2424 59.5984 44.061 59.7253 43.8615 59.7797C43.6802 59.8341 43.4626 59.8523 43.2631 59.8523C43.0636 59.8523 42.8641 59.7978 42.6647 59.7434C42.4652 59.689 42.2838 59.5984 42.1206 59.5077C41.9393 59.3989 41.7761 59.3082 41.631 59.1631C41.4859 59.0181 41.359 58.873 41.2502 58.6916C41.1595 58.5284 41.087 58.329 41.0326 58.1295C40.9963 57.8937 40.9419 57.6942 40.9419 57.4948Z" stroke="#414C58" stroke-width="0.42039" stroke-miterlimit="10" stroke-linecap="round"/>
<path d="M43.7898 3.16398C43.8986 3.47227 43.9167 3.47227 44.0255 3.78056C44.1343 4.08884 44.1706 4.07071 44.2794 4.379C44.3882 4.68728 44.3519 4.68728 44.4607 4.99557C44.5695 5.30385 44.5877 5.30385 44.6783 5.61214C44.7872 5.92043 44.7509 5.92043 44.8597 6.22871C44.9685 6.537 44.9866 6.51886 45.0954 6.82715C45.2042 7.13544 45.1861 7.13544 45.2949 7.44372C45.4037 7.75201 45.4219 7.75201 45.5125 8.0603C45.6213 8.36858 45.6032 8.36858 45.712 8.67687C45.8208 8.98515 45.7845 8.98515 45.8934 9.29344C46.0022 9.60173 45.9659 9.61986 46.0747 9.91001C46.111 10.0007 46.2198 10.0007 46.3104 10.0188C46.6369 10.0188 46.6369 10.0732 46.9633 10.0914C47.2897 10.0914 47.2897 10.1095 47.6161 10.1276C47.9426 10.1276 47.9426 10.0551 48.269 10.0551C48.5954 10.0551 48.5954 10.1095 48.9218 10.1095C49.2482 10.1095 49.2482 10.0914 49.5747 10.1095C49.9011 10.1095 49.9011 10.1458 50.2275 10.1458C50.5539 10.1458 50.5539 10.1095 50.8803 10.1276C51.2068 10.1276 51.2068 10.2002 51.5332 10.2002C51.8596 10.2002 51.8596 10.2002 52.186 10.2002C52.5124 10.2002 52.5124 10.1276 52.8389 10.1276C53.1653 10.1276 53.1653 10.2002 53.4917 10.2002C53.7093 10.2002 53.7637 10.4359 53.6005 10.5629C53.3466 10.7623 53.3829 10.7986 53.1109 10.9981C52.857 11.1976 52.8389 11.1794 52.585 11.3789C52.3311 11.5784 52.3492 11.5965 52.0772 11.796C51.8233 11.9955 51.8233 11.9955 51.5513 12.1768C51.2974 12.3763 51.2793 12.3582 51.0254 12.5576C50.7715 12.7571 50.7715 12.7571 50.5176 12.9566C50.2638 13.1561 50.2638 13.1561 50.0099 13.3556C49.756 13.555 49.756 13.555 49.484 13.7364C49.2301 13.9359 49.212 13.9177 48.9581 14.1172C48.7042 14.3167 48.6861 14.2986 48.414 14.4799C48.1602 14.6794 48.142 14.6612 47.8881 14.8607C47.8156 14.9151 47.7612 15.0239 47.7975 15.1146C47.8881 15.4229 47.9244 15.4229 48.0151 15.7312C48.1058 16.0395 48.0876 16.0576 48.1783 16.3659C48.269 16.6742 48.3234 16.656 48.414 16.9643C48.5047 17.2726 48.4866 17.2726 48.5954 17.5809C48.6861 17.8892 48.7042 17.8892 48.7949 18.1975C48.8855 18.5058 48.9037 18.5058 48.9944 18.814C49.085 19.1223 49.0306 19.1405 49.1213 19.4488C49.212 19.757 49.2301 19.757 49.3208 20.0653C49.4114 20.3736 49.3933 20.3736 49.484 20.7C49.5747 21.0083 49.5928 21.0083 49.6835 21.3166C49.7741 21.6249 49.756 21.6249 49.8467 21.9513C49.9011 22.1508 49.7016 22.314 49.5384 22.2052C49.2664 22.0238 49.3026 21.9876 49.0306 21.8062C48.7586 21.6249 48.7405 21.6612 48.4685 21.4798C48.1964 21.2985 48.1964 21.2985 47.9425 21.099C47.6705 20.9176 47.6887 20.8995 47.4167 20.7182C47.1446 20.5368 47.1628 20.5187 46.8908 20.3192C46.6187 20.1379 46.6006 20.156 46.3467 19.9747C46.0747 19.7933 46.0747 19.8114 45.8027 19.612C45.5307 19.4306 45.5669 19.3762 45.2949 19.1949C45.0229 19.0135 45.0229 19.0317 44.7509 18.8322C44.4789 18.6508 44.497 18.6327 44.225 18.4514C43.953 18.27 43.9348 18.2881 43.6628 18.1068C43.5903 18.0524 43.5359 18.0524 43.4452 18.1068C43.1732 18.2881 43.1369 18.2337 42.8649 18.4151C42.5929 18.5964 42.6291 18.6327 42.3571 18.8322C42.0851 19.0135 42.1032 19.0317 41.8312 19.213C41.5592 19.3943 41.5411 19.3762 41.2872 19.5576C41.0152 19.7389 41.0514 19.7752 40.7794 19.9747C40.5074 20.156 40.4893 20.1197 40.2173 20.3011C39.9452 20.4824 39.9815 20.5187 39.7095 20.7182C39.4375 20.8995 39.4012 20.8632 39.1473 21.0446C38.8753 21.2259 38.9116 21.2622 38.6396 21.4435C38.3675 21.6249 38.3494 21.5886 38.0774 21.7881C37.8054 21.9694 37.8235 21.9876 37.5515 22.1689C37.3701 22.2959 37.1344 22.1145 37.1888 21.915C37.2795 21.6068 37.3339 21.6249 37.4246 21.3166C37.5152 21.0083 37.4608 20.9902 37.5696 20.6819C37.6603 20.3736 37.6422 20.3736 37.7328 20.0472C37.8235 19.7389 37.8416 19.7389 37.9505 19.4306C38.0411 19.1223 38.0955 19.1405 38.2043 18.8322C38.295 18.5239 38.2587 18.5058 38.3494 18.1975C38.4401 17.8892 38.4764 17.8892 38.567 17.5809C38.6577 17.2726 38.6214 17.2545 38.7121 16.9462C38.8028 16.6379 38.7846 16.6198 38.8753 16.3115C38.966 16.0032 39.0204 16.0213 39.1292 15.713C39.2199 15.4048 39.1836 15.3866 39.2924 15.0783C39.3105 14.9877 39.3105 14.8789 39.238 14.8245C38.9841 14.625 38.9478 14.6794 38.6758 14.4799C38.4219 14.2804 38.4582 14.226 38.2043 14.0265C37.9505 13.8271 37.9323 13.8452 37.6784 13.6639C37.4246 13.4644 37.4427 13.4462 37.1707 13.2468C36.9168 13.0473 36.8987 13.0835 36.6266 12.8841C36.3728 12.6846 36.3909 12.6665 36.137 12.467C35.8831 12.2675 35.8831 12.2675 35.6292 12.068C35.3754 11.8685 35.3391 11.9048 35.0852 11.7235C34.8313 11.524 34.8313 11.524 34.5774 11.3245C34.3236 11.125 34.3054 11.1432 34.0515 10.9437C33.7977 10.7442 33.7977 10.7261 33.5438 10.5447C33.3806 10.4178 33.4531 10.1276 33.6707 10.1276C33.9971 10.1276 33.9971 10.1639 34.3236 10.1639C34.65 10.1639 34.65 10.182 34.9764 10.1639C35.3028 10.1639 35.3028 10.1095 35.6292 10.0914C35.9557 10.0914 35.9557 10.1095 36.2821 10.1095C36.6085 10.1095 36.6085 10.0551 36.9349 10.0551C37.2613 10.0551 37.2613 10.0732 37.5878 10.0732C37.9142 10.0732 37.9142 10.0732 38.2406 10.0732C38.567 10.0732 38.567 10.0551 38.8934 10.0551C39.2199 10.0551 39.2199 10.037 39.5463 10.037C39.8727 10.037 39.8727 10.037 40.1991 10.037C40.5255 10.037 40.5255 10.037 40.852 10.037C40.9426 10.037 41.0152 9.96442 41.0514 9.87374C41.1603 9.56546 41.1784 9.56546 41.2872 9.25717C41.396 8.94889 41.396 8.94888 41.5048 8.6406C41.6136 8.33231 41.5773 8.31418 41.668 8.00589C41.7768 7.69761 41.8312 7.71574 41.94 7.40745C42.0488 7.09917 41.9944 7.08103 42.1032 6.77275C42.2121 6.46446 42.2483 6.4826 42.3571 6.17431C42.4659 5.86602 42.4659 5.86602 42.5747 5.55774C42.6836 5.24945 42.6836 5.24945 42.7924 4.94116C42.9012 4.63288 42.9012 4.63288 42.9918 4.32459C43.1006 4.01631 43.0644 3.99817 43.1732 3.68988C43.282 3.3816 43.3001 3.3816 43.4089 3.09145C43.4452 2.96451 43.7172 2.96451 43.7898 3.16398Z" fill="#FFB569"/>
<path d="M43.7898 3.16398C43.8986 3.47227 43.9167 3.47227 44.0255 3.78056C44.1343 4.08884 44.1706 4.07071 44.2794 4.379C44.3882 4.68728 44.3519 4.68728 44.4607 4.99557C44.5695 5.30385 44.5877 5.30385 44.6783 5.61214C44.7872 5.92043 44.7509 5.92043 44.8597 6.22871C44.9685 6.537 44.9866 6.51886 45.0954 6.82715C45.2042 7.13544 45.1861 7.13544 45.2949 7.44372C45.4037 7.75201 45.4219 7.75201 45.5125 8.0603C45.6213 8.36858 45.6032 8.36858 45.712 8.67687C45.8208 8.98515 45.7845 8.98515 45.8934 9.29344C46.0022 9.60173 45.9659 9.61986 46.0747 9.91001C46.111 10.0007 46.2198 10.0007 46.3104 10.0188C46.6369 10.0188 46.6369 10.0732 46.9633 10.0914C47.2897 10.0914 47.2897 10.1095 47.6161 10.1276C47.9426 10.1276 47.9426 10.0551 48.269 10.0551C48.5954 10.0551 48.5954 10.1095 48.9218 10.1095C49.2482 10.1095 49.2482 10.0914 49.5747 10.1095C49.9011 10.1095 49.9011 10.1458 50.2275 10.1458C50.5539 10.1458 50.5539 10.1095 50.8803 10.1276C51.2068 10.1276 51.2068 10.2002 51.5332 10.2002C51.8596 10.2002 51.8596 10.2002 52.186 10.2002C52.5124 10.2002 52.5124 10.1276 52.8389 10.1276C53.1653 10.1276 53.1653 10.2002 53.4917 10.2002C53.7093 10.2002 53.7637 10.4359 53.6005 10.5629C53.3466 10.7623 53.3829 10.7986 53.1109 10.9981C52.857 11.1976 52.8389 11.1794 52.585 11.3789C52.3311 11.5784 52.3492 11.5965 52.0772 11.796C51.8233 11.9955 51.8233 11.9955 51.5513 12.1768C51.2974 12.3763 51.2793 12.3582 51.0254 12.5576C50.7715 12.7571 50.7715 12.7571 50.5176 12.9566C50.2638 13.1561 50.2638 13.1561 50.0099 13.3556C49.756 13.555 49.756 13.555 49.484 13.7364C49.2301 13.9359 49.212 13.9177 48.9581 14.1172C48.7042 14.3167 48.6861 14.2986 48.414 14.4799C48.1602 14.6794 48.142 14.6612 47.8881 14.8607C47.8156 14.9151 47.7612 15.0239 47.7975 15.1146C47.8881 15.4229 47.9244 15.4229 48.0151 15.7312C48.1058 16.0395 48.0876 16.0576 48.1783 16.3659C48.269 16.6742 48.3234 16.656 48.414 16.9643C48.5047 17.2726 48.4866 17.2726 48.5954 17.5809C48.6861 17.8892 48.7042 17.8892 48.7949 18.1975C48.8855 18.5058 48.9037 18.5058 48.9944 18.814C49.085 19.1223 49.0306 19.1405 49.1213 19.4488C49.212 19.757 49.2301 19.757 49.3208 20.0653C49.4114 20.3736 49.3933 20.3736 49.484 20.7C49.5747 21.0083 49.5928 21.0083 49.6835 21.3166C49.7741 21.6249 49.756 21.6249 49.8467 21.9513C49.9011 22.1508 49.7016 22.314 49.5384 22.2052C49.2664 22.0238 49.3026 21.9876 49.0306 21.8062C48.7586 21.6249 48.7405 21.6612 48.4685 21.4798C48.1964 21.2985 48.1964 21.2985 47.9425 21.099C47.6705 20.9176 47.6887 20.8995 47.4167 20.7182C47.1446 20.5368 47.1628 20.5187 46.8908 20.3192C46.6187 20.1379 46.6006 20.156 46.3467 19.9747C46.0747 19.7933 46.0747 19.8114 45.8027 19.612C45.5307 19.4306 45.5669 19.3762 45.2949 19.1949C45.0229 19.0135 45.0229 19.0317 44.7509 18.8322C44.4789 18.6508 44.497 18.6327 44.225 18.4514C43.953 18.27 43.9348 18.2881 43.6628 18.1068C43.5903 18.0524 43.5359 18.0524 43.4452 18.1068C43.1732 18.2881 43.1369 18.2337 42.8649 18.4151C42.5929 18.5964 42.6291 18.6327 42.3571 18.8322C42.0851 19.0135 42.1032 19.0317 41.8312 19.213C41.5592 19.3943 41.5411 19.3762 41.2872 19.5576C41.0152 19.7389 41.0514 19.7752 40.7794 19.9747C40.5074 20.156 40.4893 20.1197 40.2173 20.3011C39.9452 20.4824 39.9815 20.5187 39.7095 20.7182C39.4375 20.8995 39.4012 20.8632 39.1473 21.0446C38.8753 21.2259 38.9116 21.2622 38.6396 21.4435C38.3675 21.6249 38.3494 21.5886 38.0774 21.7881C37.8054 21.9694 37.8235 21.9876 37.5515 22.1689C37.3701 22.2959 37.1344 22.1145 37.1888 21.915C37.2795 21.6068 37.3339 21.6249 37.4246 21.3166C37.5152 21.0083 37.4608 20.9902 37.5696 20.6819C37.6603 20.3736 37.6422 20.3736 37.7328 20.0472C37.8235 19.7389 37.8416 19.7389 37.9505 19.4306C38.0411 19.1223 38.0955 19.1405 38.2043 18.8322C38.295 18.5239 38.2587 18.5058 38.3494 18.1975C38.4401 17.8892 38.4764 17.8892 38.567 17.5809C38.6577 17.2726 38.6214 17.2545 38.7121 16.9462C38.8028 16.6379 38.7846 16.6198 38.8753 16.3115C38.966 16.0032 39.0204 16.0213 39.1292 15.713C39.2199 15.4048 39.1836 15.3866 39.2924 15.0783C39.3105 14.9877 39.3105 14.8789 39.238 14.8245C38.9841 14.625 38.9478 14.6794 38.6758 14.4799C38.4219 14.2804 38.4582 14.226 38.2043 14.0265C37.9505 13.8271 37.9323 13.8452 37.6784 13.6639C37.4246 13.4644 37.4427 13.4462 37.1707 13.2468C36.9168 13.0473 36.8987 13.0835 36.6266 12.8841C36.3728 12.6846 36.3909 12.6665 36.137 12.467C35.8831 12.2675 35.8831 12.2675 35.6292 12.068C35.3754 11.8685 35.3391 11.9048 35.0852 11.7235C34.8313 11.524 34.8313 11.524 34.5774 11.3245C34.3236 11.125 34.3054 11.1432 34.0515 10.9437C33.7977 10.7442 33.7977 10.7261 33.5438 10.5447C33.3806 10.4178 33.4531 10.1276 33.6707 10.1276C33.9971 10.1276 33.9971 10.1639 34.3236 10.1639C34.65 10.1639 34.65 10.182 34.9764 10.1639C35.3028 10.1639 35.3028 10.1095 35.6292 10.0914C35.9557 10.0914 35.9557 10.1095 36.2821 10.1095C36.6085 10.1095 36.6085 10.0551 36.9349 10.0551C37.2613 10.0551 37.2613 10.0732 37.5878 10.0732C37.9142 10.0732 37.9142 10.0732 38.2406 10.0732C38.567 10.0732 38.567 10.0551 38.8934 10.0551C39.2199 10.0551 39.2199 10.037 39.5463 10.037C39.8727 10.037 39.8727 10.037 40.1991 10.037C40.5256 10.037 40.5255 10.037 40.852 10.037C40.9426 10.037 41.0152 9.96442 41.0514 9.87374C41.1603 9.56546 41.1784 9.56546 41.2872 9.25717C41.396 8.94889 41.396 8.94888 41.5048 8.6406C41.6136 8.33231 41.5773 8.31418 41.668 8.00589C41.7768 7.69761 41.8312 7.71574 41.94 7.40745C42.0488 7.09917 41.9944 7.08103 42.1032 6.77275C42.2121 6.46446 42.2483 6.4826 42.3571 6.17431C42.4659 5.86602 42.4659 5.86602 42.5747 5.55774C42.6836 5.24945 42.6836 5.24945 42.7924 4.94116C42.9012 4.63288 42.9012 4.63288 42.9918 4.32459C43.1006 4.01631 43.0644 3.99817 43.1732 3.68988C43.282 3.3816 43.3001 3.3816 43.4089 3.09145C43.4452 2.96451 43.7172 2.96451 43.7898 3.16398Z" stroke="#414C58" stroke-width="0.42039" stroke-miterlimit="10" stroke-linecap="round"/>
<path d="M37.9137 19.9564C37.8049 20.2828 37.7324 20.2647 37.6235 20.5911C37.5147 20.9175 37.5873 20.9538 37.4966 21.2802C37.3878 21.6066 37.2971 21.5885 37.279 21.9331C37.4422 21.9875 37.6054 22.0419 37.7686 22.0963C38.0588 21.9693 38.0406 21.9149 38.2945 21.7336C38.5484 21.5522 38.5484 21.5522 38.8204 21.3709C39.0743 21.1896 39.0562 21.1533 39.3101 20.9719C39.5639 20.7906 39.5639 20.7906 39.8178 20.6092C40.0717 20.4279 40.108 20.4642 40.3619 20.2828C40.6157 20.1015 40.6157 20.0833 40.8696 19.902C41.1235 19.7207 41.1416 19.7388 41.4137 19.5574C41.6675 19.3761 41.6494 19.3398 41.9033 19.1585C42.1572 18.9771 42.139 18.959 42.4111 18.7777C42.6649 18.5963 42.7193 18.6689 42.9732 18.4875C43.2271 18.3062 43.2271 18.3062 43.481 18.1248C43.5535 18.0704 43.6261 18.0523 43.6986 18.1067C43.9706 18.288 43.9525 18.3062 44.2245 18.4875C44.4965 18.6689 44.5147 18.6326 44.7867 18.8139C45.0587 18.9953 45.0224 19.0315 45.2944 19.231C45.5665 19.4124 45.5665 19.4124 45.8385 19.5937C46.1105 19.7751 46.1286 19.7388 46.4006 19.9383C46.6727 20.1196 46.6545 20.1378 46.9265 20.3191C47.1986 20.5004 47.1804 20.5186 47.4524 20.6999C47.7245 20.8813 47.7063 20.8994 47.9783 21.0807C48.2504 21.2621 48.2322 21.2802 48.5042 21.4616C48.7763 21.6429 48.7763 21.6429 49.0301 21.8243C49.3022 22.0056 49.3203 21.9693 49.5923 22.1688C49.7737 22.2958 49.955 22.1507 49.9006 21.9512C49.7918 21.6248 49.8462 21.6066 49.7555 21.2802C49.6467 20.9538 49.5923 20.9719 49.5016 20.6455C49.3928 20.3191 49.4654 20.301 49.3747 19.9745C49.2659 19.6481 49.2478 19.6481 49.1571 19.3217C49.0483 18.9953 49.012 19.0134 48.9032 18.687C48.7944 18.3606 48.8125 18.3606 48.7037 18.0342C48.5949 17.7077 48.6674 17.6896 48.5768 17.3632C48.468 17.0368 48.4498 17.0368 48.3592 16.7103C48.2504 16.3839 48.2685 16.3839 48.1778 16.0575" fill="#BF884F"/>
<path d="M37.9137 19.9564C37.8049 20.2828 37.7324 20.2647 37.6235 20.5911C37.5147 20.9175 37.5873 20.9538 37.4966 21.2802C37.3878 21.6066 37.2971 21.5885 37.279 21.9331C37.4422 21.9875 37.6054 22.0419 37.7686 22.0963C38.0588 21.9693 38.0406 21.9149 38.2945 21.7336C38.5484 21.5522 38.5484 21.5522 38.8204 21.3709C39.0743 21.1896 39.0562 21.1533 39.3101 20.9719C39.5639 20.7906 39.5639 20.7906 39.8178 20.6092C40.0717 20.4279 40.108 20.4642 40.3619 20.2828C40.6157 20.1015 40.6157 20.0833 40.8696 19.902C41.1235 19.7207 41.1416 19.7388 41.4137 19.5574C41.6675 19.3761 41.6494 19.3398 41.9033 19.1585C42.1572 18.9771 42.139 18.959 42.4111 18.7777C42.6649 18.5963 42.7193 18.6689 42.9732 18.4875C43.2271 18.3062 43.2271 18.3062 43.481 18.1248C43.5535 18.0704 43.6261 18.0523 43.6986 18.1067C43.9706 18.288 43.9525 18.3062 44.2245 18.4875C44.4965 18.6689 44.5147 18.6326 44.7867 18.8139C45.0587 18.9953 45.0224 19.0315 45.2944 19.231C45.5665 19.4124 45.5665 19.4124 45.8385 19.5937C46.1105 19.7751 46.1286 19.7388 46.4006 19.9383C46.6727 20.1196 46.6545 20.1378 46.9265 20.3191C47.1986 20.5004 47.1804 20.5186 47.4524 20.6999C47.7245 20.8813 47.7063 20.8994 47.9783 21.0807C48.2504 21.2621 48.2322 21.2802 48.5042 21.4616C48.7763 21.6429 48.7763 21.6429 49.0301 21.8243C49.3022 22.0056 49.3203 21.9693 49.5923 22.1688C49.7737 22.2958 49.955 22.1507 49.9006 21.9512C49.7918 21.6248 49.8462 21.6066 49.7555 21.2802C49.6467 20.9538 49.5923 20.9719 49.5016 20.6455C49.3928 20.3191 49.4654 20.301 49.3747 19.9745C49.2659 19.6481 49.2478 19.6481 49.1571 19.3217C49.0483 18.9953 49.012 19.0134 48.9032 18.687C48.7944 18.3606 48.8125 18.3606 48.7037 18.0342C48.5949 17.7077 48.6674 17.6896 48.5768 17.3632C48.468 17.0368 48.4498 17.0368 48.3592 16.7103C48.2504 16.3839 48.2685 16.3839 48.1778 16.0575" stroke="#414C58" stroke-width="0.42039" stroke-miterlimit="10" stroke-linecap="round"/>
<path d="M51.0432 23.7646C50.8981 23.6014 50.8075 23.42 50.6624 23.2568C50.5173 23.0936 50.3722 22.9304 50.209 22.7672C50.0458 22.6221 49.8826 22.4589 49.7194 22.332C49.5562 22.1869 49.3567 22.06 49.1935 21.933C49.0121 21.8061 48.8127 21.6973 48.6313 21.5885C48.45 21.4796 48.2505 21.3708 48.051 21.2802C47.8515 21.1714 47.6702 21.0626 47.4707 20.9719C47.2712 20.8812 47.0355 20.8631 46.836 20.7905C46.6365 20.718 46.437 20.6273 46.2194 20.5548C46.0018 20.5004 45.8023 20.4097 45.5847 20.3734C45.3671 20.3372 45.1495 20.3372 44.9319 20.3009C44.7143 20.2646 44.4967 20.2465 44.279 20.2284C44.0614 20.2102 43.8438 20.1377 43.6262 20.1377C43.3361 20.1377 43.3905 20.3734 43.6987 20.6455C43.8438 20.7543 44.0614 20.8449 44.279 20.99C44.4423 21.0988 44.6236 21.2439 44.8412 21.3708C45.0226 21.4796 45.222 21.5885 45.4215 21.6973C45.621 21.8061 45.8205 21.8967 46.02 22.0055C46.2194 22.1144 46.4189 22.205 46.6184 22.2957C46.8179 22.3864 46.9992 22.5314 47.2168 22.6221C47.4163 22.7128 47.6521 22.7491 47.8697 22.8397C48.0873 22.9304 48.2868 23.0392 48.4862 23.1118C48.7039 23.1843 48.9215 23.275 49.1209 23.3294C49.3386 23.4019 49.5562 23.4563 49.7738 23.5107C49.9914 23.5651 50.209 23.6739 50.4266 23.7102C50.6261 23.7827 50.8256 23.7646 51.0432 23.7646Z" fill="#414C58"/>
<path d="M18.6908 40.6658C18.4188 40.829 18.582 40.956 18.4913 41.2461C18.4007 41.5544 18.3825 41.5363 18.2737 41.8446C18.1831 42.1528 18.2556 42.171 18.1649 42.4793C18.0743 42.7875 18.0017 42.7694 17.911 43.0596C17.8204 43.3678 17.8566 43.3678 17.766 43.6761C17.7116 43.8756 17.9292 44.0388 18.0924 43.93C18.3644 43.7487 18.3463 43.7305 18.6183 43.5492C18.8903 43.3678 18.8722 43.3316 19.1261 43.1502C19.3981 42.9689 19.4162 43.0052 19.6882 42.8238C19.9602 42.6425 19.9602 42.6425 20.2141 42.443C20.4861 42.2616 20.4499 42.2072 20.7219 42.0259C20.9939 41.8446 21.0302 41.899 21.2841 41.6995C21.5561 41.5181 21.5379 41.4819 21.7918 41.3005C22.0638 41.1192 22.0638 41.1192 22.3359 40.9378C22.6079 40.7565 22.6079 40.7565 22.8799 40.5751C23.1519 40.3938 23.1338 40.3757 23.4058 40.1762C23.6778 39.9948 23.6959 40.013 23.968 39.8316C24.0405 39.7772 24.113 39.7591 24.1856 39.8135C24.4576 39.9948 24.4576 39.9948 24.7296 40.1762C25.0016 40.3575 25.0016 40.3575 25.2736 40.5389C25.5457 40.7202 25.5275 40.7383 25.7995 40.9197C26.0716 41.101 26.0716 41.101 26.3436 41.2824C26.6156 41.4637 26.5975 41.5 26.8513 41.6813C27.1234 41.8627 27.1415 41.8264 27.4135 42.0078C27.6855 42.1891 27.6674 42.2254 27.9213 42.4067C28.1933 42.5881 28.1752 42.6062 28.4472 42.7875C28.7192 42.9689 28.7555 42.9145 29.0093 43.114C29.2814 43.2953 29.2632 43.3316 29.5171 43.5129C29.7891 43.6943 29.771 43.7124 30.043 43.8937C30.2062 44.0207 30.4782 43.8212 30.4238 43.6217C30.315 43.2953 30.315 43.2953 30.2062 42.9689C30.1155 42.6425 30.0611 42.6606 29.9705 42.3342C29.8798 42.0078 29.8979 42.0078 29.7891 41.6813C29.6803 41.3549 29.6803 41.3549 29.5896 41.0285C29.499 40.7021 29.499 40.7021 29.3902 40.3757C29.2814 40.0492 29.2451 40.0674 29.1544 39.741C29.0637 39.4145 29.1 39.3964 29.0093 39.07C28.9187 38.7436 28.9368 38.7254 28.8461 38.399C28.7555 38.0726 28.7011 38.0907 28.5923 37.7643C28.4834 37.4379 28.7373 37.184 28.3928 37.1115" fill="#BF884F"/>
<path d="M18.6908 40.6658C18.4188 40.829 18.582 40.956 18.4913 41.2461C18.4007 41.5544 18.3825 41.5363 18.2737 41.8446C18.1831 42.1528 18.2556 42.171 18.1649 42.4793C18.0743 42.7875 18.0017 42.7694 17.911 43.0596C17.8204 43.3678 17.8566 43.3678 17.766 43.6761C17.7116 43.8756 17.9292 44.0388 18.0924 43.93C18.3644 43.7487 18.3463 43.7305 18.6183 43.5492C18.8903 43.3678 18.8722 43.3316 19.1261 43.1502C19.3981 42.9689 19.4162 43.0052 19.6882 42.8238C19.9602 42.6425 19.9602 42.6425 20.2141 42.443C20.4861 42.2616 20.4499 42.2072 20.7219 42.0259C20.9939 41.8446 21.0302 41.899 21.2841 41.6995C21.5561 41.5181 21.5379 41.4819 21.7918 41.3005C22.0638 41.1192 22.0638 41.1192 22.3359 40.9378C22.6079 40.7565 22.6079 40.7565 22.8799 40.5751C23.1519 40.3938 23.1338 40.3757 23.4058 40.1762C23.6778 39.9948 23.6959 40.013 23.968 39.8316C24.0405 39.7772 24.113 39.7591 24.1856 39.8135C24.4576 39.9948 24.4576 39.9948 24.7296 40.1762C25.0016 40.3575 25.0016 40.3575 25.2736 40.5389C25.5457 40.7202 25.5275 40.7383 25.7995 40.9197C26.0716 41.101 26.0716 41.101 26.3436 41.2824C26.6156 41.4637 26.5975 41.5 26.8513 41.6813C27.1234 41.8627 27.1415 41.8264 27.4135 42.0078C27.6855 42.1891 27.6674 42.2254 27.9213 42.4067C28.1933 42.5881 28.1752 42.6062 28.4472 42.7875C28.7192 42.9689 28.7555 42.9145 29.0093 43.114C29.2814 43.2953 29.2632 43.3316 29.5171 43.5129C29.7891 43.6943 29.771 43.7124 30.043 43.8937C30.2062 44.0207 30.4782 43.8212 30.4238 43.6217C30.315 43.2953 30.315 43.2953 30.2062 42.9689C30.1155 42.6425 30.0611 42.6606 29.9705 42.3342C29.8798 42.0078 29.8979 42.0078 29.7891 41.6813C29.6803 41.3549 29.6803 41.3549 29.5896 41.0285C29.499 40.7021 29.499 40.7021 29.3902 40.3757C29.2814 40.0492 29.2451 40.0674 29.1544 39.741C29.0637 39.4145 29.1 39.3964 29.0093 39.07C28.9187 38.7436 28.9368 38.7254 28.8461 38.399C28.7555 38.0726 28.7011 38.0907 28.5923 37.7643C28.4834 37.4379 28.7373 37.184 28.3928 37.1115" stroke="#414C58" stroke-width="0.42039" stroke-miterlimit="10" stroke-linecap="round"/>
<path d="M53.5636 38.744C53.346 38.744 53.2734 39.016 53.4367 39.143C53.6905 39.3424 53.6905 39.3424 53.9444 39.5419C54.1983 39.7414 54.2346 39.7051 54.5066 39.8865C54.7605 40.086 54.7061 40.1766 55.0144 40.2854C55.105 40.1041 55.1594 39.9409 55.232 39.7595C55.3226 39.5782 55.4133 39.415 55.4859 39.2336C55.5584 39.0523 55.6491 38.8709 55.7035 38.6896C55.3589 38.5989 55.3408 38.744 54.9962 38.744C54.6335 38.744 54.6335 38.744 54.289 38.744C53.9263 38.7803 53.9263 38.744 53.5636 38.744Z" fill="#414C58"/>
<path d="M23.1519 20.8811L30.1881 24.236" stroke="#414C58" stroke-width="0.42039" stroke-miterlimit="10" stroke-linecap="round"/>
<path d="M33.1444 14.1351V22.5133" stroke="#414C58" stroke-width="0.42039" stroke-miterlimit="10" stroke-linecap="round"/>
<path d="M73.548 48.2462L81.5997 41.9354" stroke="#414C58" stroke-width="0.42039" stroke-miterlimit="10" stroke-linecap="round"/>
<path d="M73.548 51.5286L81.5997 52.8705" stroke="#414C58" stroke-width="0.42039" stroke-miterlimit="10" stroke-linecap="round"/>
</g>
<defs>
<clipPath id="clip0_9436_241">
<rect width="86.9548" height="60.5692" fill="white" transform="translate(0.647034 0.842651)"/>
</clipPath>
</defs>
</svg>
