<svg width="88" height="64" viewBox="0 0 88 64" fill="none" xmlns="http://www.w3.org/2000/svg">
<g clip-path="url(#clip0_9155_11928)">
<path fill-rule="evenodd" clip-rule="evenodd" d="M71.2228 53.7582C71.2228 54.1031 71.3284 54.45 71.2711 54.7782C71.2118 55.1157 71.0373 55.4216 70.9229 55.7363C70.8062 56.0568 70.6345 56.3404 70.4663 56.6318C70.2964 56.9259 70.1705 57.2453 69.9535 57.5036C69.7359 57.7631 69.5015 58.0113 69.2425 58.229C68.9841 58.4464 68.6932 58.6234 68.3996 58.7935C68.1088 58.9623 67.7886 59.0662 67.4686 59.1827C67.1542 59.2974 66.8567 59.5049 66.5195 59.564C66.1919 59.6214 65.8418 59.6236 65.4977 59.6236C65.1534 59.6236 64.8101 59.5818 64.4825 59.5244C64.1453 59.4653 63.8275 59.3334 63.5134 59.2188C63.1931 59.1019 62.9012 58.9359 62.6104 58.7674C62.3168 58.597 62.0122 58.4445 61.754 58.2271C61.495 58.0094 61.31 57.72 61.0925 57.4608C60.8757 57.2019 60.6743 56.9396 60.5044 56.6458C60.336 56.3542 60.0734 56.0989 59.957 55.7784C59.8424 55.4634 59.9035 55.0945 59.8446 54.757C59.7872 54.4285 59.7008 54.1031 59.7008 53.7582C59.7008 53.4132 59.7765 53.0859 59.8339 52.7571C59.8928 52.4196 59.8753 52.0648 59.9897 51.7495C60.106 51.429 60.3373 51.1624 60.5055 50.8708C60.6754 50.5767 60.7898 50.2417 61.0068 49.983C61.2242 49.7235 61.5457 49.5672 61.8048 49.3492C62.063 49.1321 62.2759 48.8473 62.5692 48.6772C62.86 48.5084 63.1932 48.4128 63.5131 48.2962C63.8275 48.1816 64.1488 48.0703 64.4858 48.0109C64.8137 47.9535 65.1534 47.9727 65.4977 47.9727C65.8421 47.9727 66.1829 47.9471 66.5107 48.0046C66.8477 48.064 67.1827 48.1412 67.4972 48.2558C67.8171 48.3726 68.12 48.5353 68.4109 48.7038C68.7045 48.874 68.9437 49.1189 69.2019 49.3363C69.4609 49.554 69.7342 49.7554 69.9518 50.0146C70.1686 50.2733 70.3933 50.5346 70.5631 50.829C70.7313 51.1201 70.8293 51.4513 70.9459 51.7718C71.0603 52.0868 71.1948 52.4037 71.2538 52.7415C71.3114 53.0697 71.2228 53.4132 71.2228 53.7582Z" fill="#C7E2FF"/>
<path fill-rule="evenodd" clip-rule="evenodd" d="M56.1826 21.2695C55.8706 21.6018 55.8778 21.6084 55.5655 21.9407C55.253 22.2735 55.3197 22.3364 55.0074 22.669C54.6949 23.0019 54.6214 22.9329 54.3088 23.2655C53.9963 23.5983 54.0479 23.647 53.7354 23.9798C53.422 24.3132 53.4385 24.3286 53.1254 24.662C52.8123 24.9954 52.8 24.9839 52.4869 25.3173C52.2573 25.5619 52.0902 25.8277 51.9505 26.1111C51.8045 26.4071 51.6843 26.7012 51.6336 27.0178C51.582 27.3402 51.6237 27.6552 51.6676 27.9762C51.7118 28.2973 51.7979 28.5927 51.9343 28.8893C52.0682 29.1807 52.2062 29.464 52.4263 29.7098C52.6373 29.945 52.8763 30.1564 53.1633 30.3298C53.5532 30.5657 53.5252 30.6121 53.9154 30.8479C54.3058 31.084 54.3245 31.0533 54.7147 31.2894C55.1051 31.5252 55.1054 31.5249 55.4958 31.761C55.8863 31.9974 55.9167 31.9468 56.3075 32.1829C56.6985 32.4193 56.6408 32.5149 57.0321 32.7516C57.4234 32.9883 57.4275 32.9814 57.8185 33.2183C58.1214 33.4014 57.9947 33.8175 57.6418 33.7889C57.188 33.7515 57.1819 33.8263 56.7278 33.7889C56.2734 33.7515 56.2795 33.6779 55.8248 33.6405C55.3702 33.6034 55.366 33.6534 54.9117 33.616C54.4567 33.5786 54.4606 33.5352 54.0056 33.4978C53.5504 33.4605 53.5507 33.4563 53.0952 33.419C52.6398 33.3816 52.6441 33.3269 52.1889 33.2892C51.8547 33.262 51.5156 33.3085 51.2075 33.3758C50.8853 33.4459 50.592 33.6094 50.3132 33.7675C50.0295 33.928 49.7955 34.1501 49.5724 34.3848C49.3493 34.6193 49.1704 34.8804 49.0242 35.1717C48.8804 35.4584 48.7498 35.7519 48.6952 36.0779C48.6433 36.3896 48.6027 36.7172 48.6463 37.0504C48.7053 37.503 48.7975 37.491 48.8565 37.9431C48.9158 38.3963 48.8077 38.4104 48.8667 38.8633C48.9259 39.3163 48.9279 39.316 48.9869 39.7692C49.0461 40.2222 49.1449 40.2093 49.2042 40.6625C49.2634 41.1163 49.1364 41.1331 49.1959 41.5869C49.2549 42.0407 49.3864 42.0233 49.4456 42.4771C49.4915 42.8287 49.0203 42.976 48.8231 42.6816C48.569 42.3029 48.5651 42.3054 48.3111 41.9266C48.0567 41.5476 48.0136 41.5767 47.7593 41.1974C47.5049 40.8181 47.5049 40.8184 47.2503 40.4391C46.9962 40.0598 47.0091 40.051 46.7547 39.6714C46.4998 39.2915 46.5391 39.2652 46.2844 38.8853C46.0295 38.5052 45.9184 38.5799 45.6638 38.2001C45.4767 37.9214 45.2989 37.6597 45.0541 37.4599C44.7986 37.2513 44.5259 37.0792 44.2287 36.9591C43.9266 36.8371 43.6133 36.7329 43.2912 36.7043C42.969 36.676 42.6318 36.6727 42.313 36.7398C41.9996 36.806 41.7159 36.9866 41.4281 37.1471C41.1523 37.3005 40.8365 37.4316 40.6036 37.6732C40.2872 38.0016 40.2974 38.0115 39.9813 38.3397C39.6646 38.6687 39.7412 38.7424 39.4245 39.0714C39.1079 39.4001 39.0283 39.3232 38.7117 39.6519C38.3948 39.9809 38.4337 40.0185 38.1171 40.3473C37.7996 40.6768 37.7576 40.6361 37.4405 40.9654C37.123 41.2947 37.1806 41.3505 36.8632 41.6798C36.6173 41.9351 36.2172 41.6784 36.324 41.3403C36.4612 40.9052 36.386 40.8816 36.5232 40.4462C36.6607 40.0111 36.7559 40.0411 36.8933 39.6054C37.0308 39.1698 36.9235 39.136 37.061 38.7003C37.1984 38.2644 37.23 38.2743 37.3675 37.8387C37.5049 37.4022 37.4907 37.3978 37.6284 36.9613C37.7662 36.5248 37.8315 36.5454 37.9689 36.109C38.0702 35.7888 38.0779 35.4554 38.0809 35.1396C38.0844 34.8095 38.0274 34.4912 37.9357 34.1833C37.8427 33.8708 37.7105 33.5759 37.5318 33.306C37.3532 33.0361 37.1691 32.7568 36.9178 32.549C36.6708 32.3448 36.3767 32.1826 36.0721 32.057C35.7802 31.9369 35.4509 31.9325 35.117 31.9009C34.6634 31.8578 34.6683 31.8055 34.2151 31.7627C33.761 31.7195 33.7601 31.7275 33.3063 31.6846C32.8522 31.6415 32.8555 31.606 32.4014 31.5631C31.9473 31.52 31.9423 31.5725 31.4882 31.5293C31.0333 31.4862 31.0404 31.4103 30.5855 31.3671C30.1306 31.3243 30.124 31.3949 29.669 31.352C29.3165 31.3185 29.2503 30.8056 29.5807 30.6784C30.006 30.5148 29.9925 30.4802 30.4178 30.3166C30.8434 30.1526 30.8717 30.2262 31.2975 30.0621C31.7231 29.8983 31.7042 29.8486 32.1297 29.6847C32.5556 29.5207 32.5597 29.5311 32.9855 29.367C33.4119 29.2029 33.4213 29.2271 33.8477 29.0627C34.2741 28.8984 34.2625 28.8684 34.6892 28.7041C35.0023 28.5834 35.2747 28.4141 35.5233 28.2195C35.7832 28.0164 36.0323 27.8036 36.2151 27.5403C36.4011 27.2723 36.5613 26.9791 36.6607 26.6709C36.76 26.3626 36.7501 26.0302 36.7556 25.7037C36.7611 25.383 36.7095 25.0729 36.6173 24.756C36.5292 24.4526 36.3846 24.1791 36.2011 23.8979C35.9519 23.5161 35.9933 23.4889 35.7442 23.1069C35.4948 22.7245 35.494 22.7251 35.2446 22.3425C34.9951 21.9602 35.0025 21.9552 34.7531 21.5729C34.5034 21.1903 34.4752 21.2087 34.2258 20.8261C33.9755 20.443 34.0606 20.3877 33.8103 20.0043C33.5607 19.6211 33.5456 19.631 33.2953 19.2479C33.1019 18.951 33.4229 18.5899 33.7283 18.7694C34.1212 19.0002 34.0718 19.0843 34.4648 19.3152C34.8582 19.5461 34.8722 19.5225 35.2654 19.7533C35.6589 19.9848 35.7052 19.9056 36.0987 20.1368C36.4922 20.3679 36.4324 20.4702 36.8258 20.7013C37.2199 20.933 37.2248 20.9245 37.6188 21.1562C38.0131 21.3879 38.0754 21.2813 38.4694 21.513C38.7589 21.6831 39.0313 21.8431 39.3381 21.9165C39.6589 21.9932 39.9821 22.0748 40.3017 22.0539C40.6269 22.0325 40.9235 21.8719 41.2259 21.7576C41.5285 21.6433 41.835 21.5385 42.0932 21.3395C42.347 21.1438 42.6214 20.9426 42.8115 20.6727C42.9935 20.4146 43.0489 20.0755 43.154 19.7566C43.2967 19.3232 43.3565 19.343 43.4992 18.9098C43.6421 18.4758 43.5815 18.456 43.7244 18.022C43.8674 17.5883 43.9763 17.6243 44.119 17.1903C44.2619 16.7563 44.2537 16.7536 44.3967 16.3196C44.5399 15.885 44.4804 15.8652 44.6236 15.4307C44.7668 14.9958 44.8 15.0068 44.943 14.5723C45.0538 14.2356 45.523 14.2678 45.5735 14.6187C45.6383 15.0703 45.6347 15.0709 45.6995 15.5227C45.7642 15.9749 45.7357 15.979 45.8004 16.4311C45.8652 16.8833 45.8224 16.8893 45.8874 17.3418C45.9522 17.7942 45.9804 17.79 46.0455 18.2425C46.1105 18.6954 46.1563 18.6888 46.2213 19.1418C46.2864 19.595 46.3396 19.5873 46.4046 20.0403C46.4524 20.3729 46.4513 20.7096 46.5852 20.9957C46.7254 21.2947 46.8919 21.5952 47.1076 21.8324C47.3271 22.0737 47.6306 22.235 47.9083 22.4008C48.1862 22.5662 48.4998 22.644 48.8165 22.7221C49.1273 22.7988 49.4399 22.8628 49.7689 22.8436C50.0839 22.8251 50.4153 22.8065 50.7298 22.6896C51.1572 22.5313 51.1682 22.5616 51.5954 22.4032C52.0232 22.2446 52.0084 22.2051 52.4362 22.0465C52.8639 21.8879 52.842 21.8282 53.2695 21.6696C53.6975 21.5108 53.6885 21.4866 54.1162 21.3277C54.5448 21.1689 54.5583 21.2051 54.9866 21.0463C55.4152 20.8871 55.4014 20.8503 55.83 20.6914C56.162 20.5686 56.4252 21.0114 56.1826 21.2695Z" fill="#FF6A69"/>
<path fill-rule="evenodd" clip-rule="evenodd" d="M29.7513 10.8147C29.7513 11.1396 29.6092 11.4482 29.54 11.7522C29.469 12.0661 29.4553 12.4028 29.3189 12.6859C29.1803 12.9737 28.9877 13.2439 28.7907 13.4913C28.5926 13.7397 28.2995 13.8967 28.0518 14.0951C27.8048 14.2925 27.5875 14.5448 27.3002 14.6836C27.0179 14.8202 26.6999 14.8952 26.3865 14.9664C26.0831 15.0357 25.7648 15.0522 25.4404 15.0522C25.1161 15.0522 24.8031 15.0118 24.4996 14.9425C24.1865 14.871 23.8979 14.7476 23.6152 14.611C23.328 14.4722 23.0338 14.345 22.7871 14.1476C22.5391 13.9492 22.3243 13.7106 22.1261 13.4621C21.9291 13.2147 21.7365 12.9561 21.598 12.6683C21.4616 12.3852 21.3738 12.0746 21.3027 11.7608C21.2338 11.4568 21.2928 11.1396 21.2928 10.8147C21.2928 10.4898 21.1872 10.1619 21.2561 9.85792C21.3271 9.54403 21.522 9.2733 21.6583 8.9902C21.7969 8.70215 21.8819 8.37644 22.0792 8.12934C22.2771 7.88087 22.575 7.72448 22.8228 7.52631C23.0695 7.32896 23.2948 7.08736 23.582 6.94883C23.8647 6.81195 24.1887 6.76688 24.5018 6.69542C24.8052 6.62643 25.1161 6.51099 25.4404 6.51099C25.7648 6.51099 26.0817 6.60004 26.3852 6.66903C26.6985 6.74049 26.9572 6.93536 27.2399 7.07197C27.5271 7.21105 27.857 7.27234 28.1036 7.46996C28.3514 7.66813 28.5484 7.92567 28.7462 8.17414C28.9432 8.42124 29.1016 8.69417 29.2401 8.98195C29.3765 9.26478 29.4879 9.55915 29.559 9.87304C29.6281 10.1768 29.7513 10.4898 29.7513 10.8147Z" fill="#C6F2DD"/>
<path fill-rule="evenodd" clip-rule="evenodd" d="M8.07024 56.8121C8.41596 57.181 8.4124 56.5961 8.96144 56.275C9.20949 56.1302 9.52091 55.9881 9.85292 55.7962C10.1221 55.6404 10.3743 55.3979 10.6884 55.2185C10.9669 55.0593 11.2803 54.926 11.5865 54.7526C11.8707 54.5921 12.1665 54.428 12.4697 54.2589C12.7578 54.0979 13.0553 53.9365 13.3563 53.7711C13.6482 53.6103 13.9456 53.4495 14.245 53.2871C14.5405 53.1268 14.861 53.0089 15.1598 52.8498C15.4586 52.6906 15.7511 52.5196 16.0494 52.3641C16.3517 52.2063 16.6201 51.9873 16.9178 51.8361C17.224 51.6802 17.5711 51.6181 17.8683 51.4719C18.1797 51.3188 18.4796 51.1616 18.7759 51.0228C19.0945 50.873 19.3834 50.691 19.6784 50.5618C20.0079 50.417 20.3075 50.2513 20.5989 50.1377C20.9513 50 21.3016 49.9747 21.584 49.892C22.015 49.7656 22.3407 49.66 22.5624 49.6919C22.7924 49.7246 23.1279 49.7057 23.5505 49.6949C23.8416 49.6878 24.1734 49.6914 24.5397 49.6666C24.8461 49.646 25.1814 49.6746 25.5327 49.6435C25.8455 49.6158 26.1676 49.5094 26.5106 49.4745C26.8278 49.4424 27.1562 49.4072 27.4945 49.3698C27.8147 49.3343 28.1404 49.2744 28.476 49.2354C28.7981 49.1975 29.1337 49.2175 29.4668 49.1768C29.7906 49.1373 30.1176 49.0878 30.4485 49.0463C30.7737 49.0056 31.0988 48.9394 31.4284 48.897C31.7552 48.8553 32.0935 48.8924 32.4219 48.8492C32.7498 48.8066 33.0703 48.7046 33.3976 48.6615C33.7266 48.6181 34.0564 48.5853 34.3821 48.5422C34.713 48.4982 35.0363 48.4188 35.3606 48.3756C35.6931 48.3314 36.0219 48.2926 36.3443 48.25C36.679 48.2055 37.0091 48.1717 37.3296 48.1296C37.6671 48.0854 38.0032 48.1016 38.3212 48.0604C38.662 48.0164 38.9896 47.9691 39.3035 47.9301C39.6498 47.8864 39.9722 47.7951 40.2798 47.7589C40.6197 47.7187 40.9232 47.6371 41.205 47.5414C41.5241 47.4331 41.8032 47.296 42.0548 47.1248C42.3234 46.942 42.5588 46.7361 42.7602 46.4915C42.9594 46.2491 43.1172 45.977 43.2601 45.6842C43.3957 45.4061 43.5079 45.1112 43.6009 44.7959C43.6885 44.4988 43.7263 44.1838 43.7826 43.8608C43.8363 43.5538 43.9576 43.2484 43.9889 42.9247C44.0191 42.6122 44.0476 42.2922 44.0622 41.9695C44.0767 41.6537 44.0822 41.333 44.0866 41.0122C44.091 40.6931 44.097 40.3723 44.0965 40.0538C44.0956 39.7325 44.0432 39.4125 44.0424 39.097C44.0413 38.7727 44.0021 38.4519 44.0059 38.1391C44.0098 37.8115 44.0125 37.4897 44.0279 37.1813C44.0441 36.8498 44.1892 36.5417 44.226 36.2399C44.2663 35.9056 44.2545 35.5907 44.263 35.3059C44.2734 34.9637 44.2035 34.6572 44.1774 34.3777C44.1453 34.0308 44.114 33.7277 44.0435 33.4619C43.9521 33.118 43.7886 32.8594 43.6709 32.6181C43.5074 32.283 43.3447 32.0271 43.2278 31.8031C43.067 31.495 43.0582 31.2226 43.2396 30.9022C43.3864 30.6427 43.5639 30.3945 43.714 30.1122C43.8484 29.8593 44.0194 29.5897 44.0915 29.2615C44.1502 28.9949 44.1599 28.6777 44.1409 28.3292C44.1264 28.0574 43.9779 27.7726 43.8986 27.4351C43.8353 27.1655 43.7606 26.8752 43.647 26.5553C43.5521 26.289 43.4906 25.9847 43.3559 25.6788C43.2236 25.3792 43.0091 25.1313 42.7501 24.91C42.5141 24.7085 42.2161 24.5777 41.8973 24.4331C41.6133 24.3045 41.3276 24.1294 40.9937 24.0401C40.6878 23.9579 40.3687 23.8477 40.0331 23.7944C39.7156 23.7438 39.3718 23.8323 39.0379 23.8037C38.7136 23.7759 38.3887 23.7039 38.0578 23.6932C37.728 23.6828 37.3976 23.6377 37.0706 23.6413C36.7364 23.6448 36.4079 23.7303 36.0861 23.7449C35.7458 23.7603 35.4133 23.743 35.0975 23.7666C34.7487 23.793 34.4222 23.8592 34.1174 23.8906C33.7494 23.9282 33.4059 23.86 33.1257 23.8963C32.5204 23.9747 32.5542 24.399 32.1626 24.1C31.7999 23.8227 32.1193 23.7284 31.8891 23.2375C31.7768 22.9989 31.6435 22.7136 31.424 22.4506C31.2462 22.2373 31.0209 22.0221 30.7515 21.828C30.5246 21.6645 30.2375 21.5551 29.9335 21.4259C29.6756 21.3162 29.3867 21.2456 29.0656 21.1736C28.7902 21.1117 28.4996 21.0243 28.1733 20.9982C27.8627 20.9734 27.5327 20.9617 27.1891 20.9894C26.8752 21.015 26.5591 21.12 26.2249 21.1838C25.9121 21.2431 25.5656 21.2079 25.2404 21.2962C24.9301 21.3803 24.6302 21.5334 24.3133 21.6395C24.006 21.7425 23.7165 21.9077 23.4075 22.0276C23.103 22.146 22.8069 22.2862 22.5051 22.4173C22.2033 22.5487 21.8924 22.6564 21.5974 22.7974C21.2981 22.9404 21.0182 23.1144 20.7306 23.2636C20.4329 23.4178 20.093 23.481 19.8128 23.638C19.5168 23.8034 19.2459 23.9953 18.9749 24.1588C18.6791 24.3372 18.4415 24.5777 18.1827 24.7478C17.8842 24.9441 17.5766 25.0777 17.3376 25.2541C17.0226 25.4869 16.7323 25.6645 16.5441 25.8434C16.3493 26.0287 16.1701 26.3181 15.9297 26.6152C15.7418 26.8469 15.5239 27.0943 15.3113 27.3771C15.1252 27.625 14.9485 27.9035 14.7452 28.1797C14.5578 28.4342 14.4006 28.7267 14.1997 28.9971C14.009 29.2549 13.7657 29.4833 13.5637 29.7486C13.3678 30.0067 13.1307 30.2375 12.9255 30.4962C12.7224 30.7521 12.5049 30.9964 12.2938 31.2471C12.082 31.4989 11.9591 31.8279 11.7404 32.0684C11.5173 32.3138 11.2081 32.4724 10.979 32.6994C10.7414 32.9353 10.5114 33.1656 10.2686 33.3742C10.0129 33.5936 9.78021 33.8255 9.52009 34.0069C9.24214 34.2015 8.99464 34.4363 8.7134 34.5773C8.43106 34.7185 8.08917 34.7647 7.78872 34.9112C7.50089 35.0519 7.23391 35.2507 6.93675 35.3928C6.64426 35.5329 6.33667 35.6476 6.04144 35.7866C5.74455 35.9268 5.46111 36.0936 5.16889 36.2297C4.86762 36.3702 4.57622 36.5202 4.28729 36.6533C3.97998 36.7948 3.66197 36.8885 3.37743 37.0183C3.06161 37.1626 2.76665 37.3071 2.49117 37.4317C2.15587 37.5831 1.8395 37.6823 1.58515 37.7964C1.03006 38.0451 0.633029 37.7422 0.647444 38.2307C0.662662 38.7298 0.852537 38.7092 1.03692 39.1729C1.22159 39.6368 1.21582 39.639 1.40021 40.103C1.5846 40.5667 1.68969 40.5249 1.87407 40.9889C2.05846 41.452 2.01456 41.4696 2.19867 41.9324C2.38278 42.3961 2.33038 42.417 2.51449 42.8804C2.69915 43.3444 2.7768 43.3136 2.96119 43.7773C3.14557 44.241 3.05036 44.2786 3.23447 44.7423C3.41914 45.2063 3.41283 45.2087 3.59721 45.673C3.78187 46.1364 3.82111 46.121 4.0055 46.5844C4.19016 47.0489 4.20333 47.0434 4.38799 47.5074C4.57238 47.9713 4.64399 47.9427 4.82865 48.4067C5.01304 48.8706 4.93594 48.9017 5.1206 49.3657C5.30526 49.8302 5.28056 49.8401 5.46523 50.304C5.64989 50.7685 5.75306 50.7273 5.93799 51.1915C6.1221 51.6552 6.03265 51.691 6.21732 52.1549C6.4017 52.6191 6.39484 52.6219 6.5795 53.0861C6.76417 53.5506 6.74414 53.5586 6.9288 54.0231C7.11346 54.4874 7.1184 54.4854 7.30306 54.9502C7.48799 55.4153 7.56372 55.3842 7.68418 55.8702C7.80848 56.3718 7.72808 56.4471 8.07024 56.8121Z" fill="#FFE2C6"/>
<path fill-rule="evenodd" clip-rule="evenodd" d="M80.7498 56.8306C80.4104 57.2052 80.406 56.5624 79.8569 56.2413C79.6089 56.0965 79.2835 55.9786 78.9515 55.7867C78.682 55.6311 78.3821 55.4725 78.0679 55.2928C77.7894 55.1336 77.5178 54.9275 77.2113 54.7541C76.9271 54.5936 76.617 54.455 76.3141 54.286C76.0257 54.1249 75.7371 53.9485 75.4361 53.7825C75.1444 53.6217 74.8483 53.4584 74.5487 53.2962C74.2534 53.136 73.9651 52.9573 73.6665 52.7982C73.3677 52.639 73.0349 52.5448 72.7366 52.3892C72.4343 52.2314 72.1753 51.9942 71.8776 51.8431C71.5713 51.6875 71.2813 51.5088 70.9844 51.3626C70.6727 51.2095 70.3492 51.0979 70.0529 50.9586C69.7343 50.809 69.4336 50.6494 69.1389 50.5199C68.8091 50.3753 68.4908 50.253 68.1991 50.1392C67.8471 50.0018 67.4956 49.9795 67.2136 49.8965C66.7825 49.7704 66.4595 49.6722 66.2381 49.7038C66.0082 49.7368 65.6704 49.7195 65.2479 49.7091C64.957 49.7016 64.6261 49.6816 64.2598 49.6568C63.9533 49.6362 63.6254 49.5837 63.2745 49.5527C62.9614 49.5249 62.6305 49.5158 62.2878 49.4809C61.9706 49.4488 61.6386 49.4441 61.3 49.4067C60.9801 49.3713 60.6448 49.3897 60.3095 49.3501C59.9873 49.3125 59.6718 49.1629 59.3387 49.1223C59.0152 49.0829 58.6854 49.056 58.3542 49.0145C58.0291 48.9736 57.7036 48.912 57.3738 48.8697C57.0473 48.8279 56.7153 48.8163 56.3869 48.7735C56.059 48.7306 55.7196 48.7715 55.3925 48.7281C55.0632 48.6847 54.7463 48.5563 54.4206 48.5129C54.0897 48.4689 53.7558 48.4692 53.4315 48.426C53.0992 48.3818 52.7677 48.3617 52.4453 48.3191C52.1106 48.2746 51.7876 48.1894 51.4669 48.1468C51.1296 48.1025 50.7927 48.1229 50.4747 48.0819C50.1342 48.0379 49.8203 47.8807 49.5064 47.8417C49.1601 47.7983 48.8306 47.7623 48.523 47.726C48.1827 47.6859 47.8691 47.657 47.5871 47.5613C47.2679 47.4533 47.0037 47.2846 46.7518 47.1133C46.4835 46.9303 46.2738 46.7082 46.0724 46.4636C45.8732 46.2214 45.7234 45.9564 45.5805 45.6637C45.4449 45.3856 45.3094 45.1058 45.2166 44.7902C45.1291 44.4931 44.9969 44.1968 44.9403 43.8741C44.8868 43.5671 44.8739 43.2455 44.8427 42.9215C44.8122 42.609 44.7787 42.291 44.7642 41.9683C44.7496 41.6522 44.771 41.332 44.7666 41.0115C44.7623 40.6924 44.7005 40.3725 44.7011 40.0539C44.7019 39.7326 44.7214 39.4127 44.7225 39.0968C44.7236 38.7725 44.754 38.4526 44.7502 38.1395C44.7463 37.8122 44.6629 37.4958 44.6476 37.1874C44.6314 36.8559 44.6854 36.5324 44.6487 36.2306C44.6081 35.8967 44.6113 35.5889 44.6026 35.3038C44.5921 34.9619 44.5946 34.6571 44.6207 34.3776C44.6528 34.031 44.6253 33.7119 44.6961 33.4461C44.7875 33.1022 44.9195 32.815 45.0372 32.5734C45.2005 32.2383 45.3837 31.9901 45.5006 31.7664C45.6614 31.458 45.7764 31.2024 45.5947 30.8819C45.429 30.5889 45.1865 30.3089 44.9316 30.0203C44.7055 29.7641 44.4813 29.5041 44.3293 29.1481C44.2042 28.8549 44.1205 28.5316 44.129 28.1105C44.1353 27.8008 44.1619 27.4514 44.2763 27.0468C44.3633 26.7398 44.4607 26.3935 44.6248 26.0211C44.7529 25.7306 45.0048 25.528 45.2644 25.3062C45.4954 25.1091 45.733 24.8906 46.0469 24.7419C46.3241 24.6102 46.6273 24.4877 46.9546 24.3893C47.2531 24.2997 47.5626 24.1817 47.8924 24.1166C48.2028 24.055 48.529 24.0108 48.858 23.9685C49.1755 23.9275 49.5058 23.9448 49.8329 23.919C50.1558 23.8937 50.4783 23.8035 50.8029 23.7909C51.1299 23.7783 51.4586 23.8505 51.7799 23.8483C52.1111 23.8459 52.4385 23.787 52.7556 23.7934C53.0926 23.8005 53.4164 23.9061 53.7278 23.9201C54.0732 23.9355 54.3987 23.9564 54.6997 23.9764C55.0649 24.0009 55.393 24.0061 55.6699 24.0308C56.2724 24.0847 56.282 24.4354 56.6585 24.1276C57.0122 23.8387 56.636 23.7079 56.8665 23.217C56.9784 22.9784 57.1886 22.7418 57.4081 22.4785C57.5859 22.2652 57.7977 22.0494 58.0669 21.8554C58.2938 21.6918 58.5759 21.5898 58.8799 21.4607C59.1378 21.3513 59.4161 21.2622 59.7368 21.1905C60.0123 21.1284 60.2996 21.0302 60.6261 21.0041C60.9364 20.9791 61.2665 20.959 61.6101 20.9868C61.9237 21.0124 62.251 21.0602 62.5852 21.1237C62.898 21.1833 63.2325 21.2108 63.5576 21.2988C63.8682 21.3829 64.161 21.5569 64.4777 21.6627C64.7852 21.7657 65.1123 21.8306 65.4213 21.9507C65.7258 22.0689 65.9914 22.2869 66.2933 22.4183C66.5954 22.5496 66.9449 22.5755 67.2399 22.7162C67.5392 22.8594 67.8125 23.0521 68.1004 23.2013C68.3981 23.3555 68.7144 23.4655 68.9949 23.6221C69.2906 23.7876 69.5365 24.0226 69.8076 24.1861C70.1034 24.3645 70.3632 24.569 70.622 24.7392C70.9205 24.9354 71.2314 25.0657 71.4701 25.2421C71.7851 25.4747 71.9887 25.7468 72.1766 25.9257C72.3657 26.1055 72.6403 26.3083 72.8382 26.6497C72.9858 26.905 73.1282 27.2071 73.2827 27.5311C73.4158 27.8101 73.5197 28.1262 73.6594 28.4434C73.7867 28.7328 73.9225 29.0335 74.0564 29.3458C74.1829 29.6407 74.2633 29.9647 74.3964 30.272C74.5254 30.5702 74.6694 30.8676 74.8052 31.1703C74.9394 31.4693 75.1699 31.7255 75.3115 32.0223C75.4539 32.3208 75.5634 32.6333 75.7137 32.9227C75.8677 33.2185 75.9867 33.5296 76.1497 33.8086C76.3196 34.0994 76.5635 34.3333 76.744 34.598C76.9353 34.8786 77.0645 35.192 77.2692 35.4341C77.4906 35.696 77.7269 35.9299 77.9651 36.1353C78.2249 36.3593 78.5358 36.4739 78.8173 36.6149C79.104 36.7589 79.3545 37.0052 79.6602 37.1605C79.9508 37.3081 80.2573 37.4419 80.5572 37.5959C80.8516 37.7465 81.1836 37.8317 81.4799 37.9848C81.7774 38.1384 82.0169 38.4034 82.3097 38.5554C82.6107 38.7118 82.9498 38.7846 83.2379 38.9352C83.5444 39.0952 83.8575 39.2192 84.1404 39.3676C84.4545 39.5322 84.7512 39.6892 85.025 39.8332C85.357 40.0083 85.6199 40.2317 85.8717 40.3653C86.4205 40.6553 86.7265 40.3172 86.716 40.8161C86.705 41.3185 86.5478 41.2737 86.3697 41.7434C86.1919 42.2126 86.2839 42.2475 86.1061 42.7164C85.9283 43.1862 85.9184 43.1826 85.7403 43.6523C85.5628 44.1212 85.4585 44.0817 85.2807 44.5506C85.1026 45.0203 85.1054 45.0214 84.9273 45.4908C84.7495 45.9603 84.828 45.9905 84.6502 46.4597C84.4721 46.9297 84.4738 46.93 84.2957 47.3997C84.1176 47.8695 84.1417 47.8788 83.9639 48.3483C83.7859 48.818 83.7617 48.8086 83.5836 49.2784C83.4056 49.7484 83.36 49.7313 83.1819 50.2013C83.0039 50.6713 83.0456 50.687 82.8675 51.157C82.6894 51.6265 82.7092 51.6339 82.5314 52.1033C82.353 52.5734 82.3176 52.5599 82.1396 53.0299C81.9615 53.4999 81.9332 53.4892 81.7551 53.9592C81.5768 54.4295 81.6072 54.441 81.4292 54.911C81.2505 55.3818 81.1526 55.3535 81.047 55.8458C80.9364 56.3609 81.0876 56.4576 80.7498 56.8306Z" fill="#FFE2C6"/>
<path d="M32.1597 24.1036L31.7619 24.1454L31.763 24.1551L31.7644 24.1647L32.1597 24.1036ZM30.7993 36.6758L30.9651 37.0399L30.9651 37.0399L30.7993 36.6758ZM26.2221 30.3899L26.6218 30.4047L26.6241 30.3431L26.6077 30.2837L26.2221 30.3899ZM27.0271 44.5147L26.6278 44.5379V44.5379L27.0271 44.5147ZM31.5452 41.2566L31.5638 41.6561H31.5638L31.5452 41.2566ZM32.646 41.2607L32.6157 41.6595L32.625 41.6602L32.6343 41.6605L32.646 41.2607ZM31.6983 41.084L31.6166 41.4755L31.6167 41.4755L31.6983 41.084ZM27.0214 38.8859L26.6417 39.0119L26.6418 39.012L27.0214 38.8859ZM29.4913 45.9164L29.2512 46.2363L29.2512 46.2363L29.4913 45.9164ZM30.7104 46.2753L30.6673 46.673L30.6683 46.6731L30.7104 46.2753ZM31.0004 46.2396L30.7803 45.9056L30.7798 45.906L31.0004 46.2396ZM31.1417 46.0203L30.7671 45.8802L30.767 45.8803L31.1417 46.0203ZM30.4118 42.0294L30.2713 41.6548L30.2713 41.6549L30.4118 42.0294ZM78.787 36.6759L78.6079 37.0336L78.6079 37.0336L78.787 36.6759ZM60.6258 20.9975L60.6577 21.3963L60.6577 21.3963L60.6258 20.9975ZM56.6389 24.1034L56.589 24.5003L56.994 24.5513L57.0367 24.1453L56.6389 24.1034ZM44.6368 26.0263L44.2708 25.865L44.2708 25.865L44.6368 26.0263ZM44.6368 36.232L44.2397 36.2803L44.2397 36.2803L44.6368 36.232ZM48.518 47.7689L48.4711 48.1661H48.4712L48.518 47.7689ZM66.2366 49.6915L66.2933 50.0875H66.2933L66.2366 49.6915ZM59.2671 24.2913L59.2896 23.892L59.2895 23.892L59.2671 24.2913ZM8.68302 34.5164L8.86213 34.874L8.86217 34.874L8.68302 34.5164ZM28.1731 20.9975L28.1412 21.3963L28.1412 21.3963L28.1731 20.9975ZM43.3502 25.6814L42.9842 25.8427L42.9842 25.8427L43.3502 25.6814ZM43.2339 30.899L42.8858 30.7019L42.8857 30.702L43.2339 30.899ZM22.5625 49.6915L22.6192 49.2955L22.6192 49.2955L22.5625 49.6915ZM45.5709 36.7766L45.8119 36.4574L45.8116 36.4571L45.5709 36.7766ZM47.0457 37.5479L46.8901 37.9164L46.8902 37.9164L47.0457 37.5479ZM46.6666 41.9259L46.751 41.5349L46.7509 41.5348L46.6666 41.9259ZM50.1892 43.3713L49.9746 43.7089L49.9746 43.7089L50.1892 43.3713ZM29.8162 39.8845L29.5702 40.1999L29.5706 40.2002L29.8162 39.8845ZM30.2796 40.0975L30.2541 40.4967L30.2548 40.4967L30.2796 40.0975ZM31.0424 38.8164L30.6424 38.8127L30.6424 38.8129L31.0424 38.8164ZM35.0055 6.51027C34.9102 6.31096 34.6714 6.22664 34.4721 6.32192C34.2728 6.41721 34.1884 6.65602 34.2837 6.85533L35.0055 6.51027ZM35.1396 7.50215L34.7787 7.67468L34.7788 7.67477L35.1396 7.50215ZM35.5194 8.37674L35.1585 8.54927L35.1586 8.54945L35.5194 8.37674ZM35.9529 9.2244L35.592 9.39692L35.592 9.39693L35.9529 9.2244ZM36.32 10.1048L35.9591 10.2772L35.9591 10.2773L36.32 10.1048ZM36.7596 10.9511L37.1205 10.7785L37.1204 10.7783L36.7596 10.9511ZM37.1144 11.838L36.7534 12.0105L36.7534 12.0105L37.1144 11.838ZM37.5542 12.6857L37.1933 12.8581L37.1934 12.8583L37.5542 12.6857ZM37.5782 13.7324C37.6735 13.9318 37.9123 14.0162 38.1116 13.9209C38.3109 13.8257 38.3953 13.5869 38.3001 13.3875L37.5782 13.7324ZM42.736 12.6875C42.7518 12.9078 42.9432 13.0737 43.1635 13.058C43.3839 13.0422 43.5498 12.8508 43.534 12.6305L42.736 12.6875ZM43.0653 11.7063L42.6663 11.7348L42.6664 11.7348L43.0653 11.7063ZM42.893 9.80238L42.494 9.83085V9.83088L42.893 9.80238ZM42.9076 8.84285L43.3065 8.81439L43.3065 8.81416L42.9076 8.84285ZM42.6669 6.94249L43.0659 6.91404L43.0659 6.91399L42.6669 6.94249ZM42.6313 5.98737L42.2323 6.01583V6.01587L42.6313 5.98737ZM42.6444 5.02784L42.2454 5.05629V5.05631L42.6444 5.02784ZM42.4784 4.08068L42.8774 4.05223L42.8774 4.05201L42.4784 4.08068ZM42.4145 3.12611L42.0155 3.15452L42.0155 3.15456L42.4145 3.12611ZM42.4263 2.16466L42.0273 2.19306L42.0273 2.19329L42.4263 2.16466ZM42.6626 1.18717C42.6469 0.966819 42.4555 0.8009 42.2352 0.816586C42.0148 0.832271 41.8489 1.02362 41.8646 1.24398L42.6626 1.18717ZM53.8778 1.66782C53.9846 1.4744 53.9143 1.23108 53.7208 1.12436C53.5274 1.01765 53.2841 1.08794 53.1774 1.28137L53.8778 1.66782ZM53.0439 2.35139L52.6936 2.15816L52.6838 2.17602L52.6758 2.19479L53.0439 2.35139ZM52.6534 3.26914L52.2853 3.11254L52.2752 3.13645L52.2682 3.16147L52.6534 3.26914ZM52.3829 4.23718L52.7301 4.43579L52.7547 4.39268L52.7681 4.34485L52.3829 4.23718ZM51.8843 5.10875L51.5371 4.91014L51.5251 4.93122L51.5156 4.95361L51.8843 5.10875ZM51.4974 6.02815L51.8641 6.18812L51.8661 6.18329L51.4974 6.02815ZM51.0985 6.9426L50.7318 6.78261L50.7284 6.79072L51.0985 6.9426ZM50.7201 7.86447L50.35 7.71255L50.3467 7.72117L50.7201 7.86447ZM50.3626 8.79623L49.9891 8.65294L49.9866 8.65958L49.9843 8.66632L50.3626 8.79623ZM50.0377 9.74229L50.4005 9.91083L50.4093 9.89192L50.416 9.8722L50.0377 9.74229ZM49.6171 10.6477L49.9767 10.8229L49.9798 10.8162L49.6171 10.6477ZM49.1786 11.5473L48.819 11.372L48.815 11.3803L48.8114 11.3887L49.1786 11.5473ZM48.4152 12.3065C48.3276 12.5093 48.421 12.7447 48.6239 12.8323C48.8267 12.9198 49.0621 12.8264 49.1496 12.6236L48.4152 12.3065ZM40.0345 50.0864C40.1023 49.8761 39.9869 49.6507 39.7767 49.5828C39.5664 49.515 39.341 49.6304 39.2731 49.8406L40.0345 50.0864ZM39.355 50.8892L39.7012 51.0896L39.7225 51.0527L39.7357 51.0121L39.355 50.8892ZM38.8702 51.7267L38.524 51.5263L38.5197 51.5337L38.5157 51.5413L38.8702 51.7267ZM38.4226 52.5821L38.0682 52.3966L38.0565 52.419L38.0477 52.4426L38.4226 52.5821ZM38.0854 53.4885L38.4436 53.6667L38.453 53.6478L38.4603 53.628L38.0854 53.4885ZM37.6557 54.3524L37.2976 54.1743L37.2886 54.1922L37.2815 54.211L37.6557 54.3524ZM37.3141 55.2564L37.6838 55.4097L37.6883 55.3978L37.3141 55.2564ZM36.9448 56.1472L37.3018 56.3276L37.3086 56.3143L37.3143 56.3004L36.9448 56.1472ZM36.5093 57.0089L36.1523 56.8285L36.1432 56.8466L36.1359 56.8655L36.5093 57.0089ZM36.1633 57.9099L36.5313 58.0667L36.5341 58.0601L36.5368 58.0533L36.1633 57.9099ZM35.7852 58.7968L36.1443 58.9731L36.149 58.9635L36.1532 58.9537L35.7852 58.7968ZM35.3599 59.6635L35.0007 59.4872L34.9955 59.4986L35.3599 59.6635ZM34.9624 60.5422L34.5979 60.3773L34.5872 60.4009L34.5797 60.4257L34.9624 60.5422ZM34.2814 61.3032C34.1965 61.5071 34.293 61.7413 34.4969 61.8262C34.7009 61.9111 34.935 61.8146 35.0199 61.6107L34.2814 61.3032ZM44.9555 51.4795C44.9255 51.2607 44.7239 51.1075 44.505 51.1374C44.2861 51.1673 44.1329 51.369 44.1628 51.5879L44.9555 51.4795ZM44.695 52.5273L45.0932 52.4895L45.0924 52.4813L45.0913 52.4731L44.695 52.5273ZM44.7896 53.5251L45.189 53.547L45.1907 53.5171L45.1878 53.4873L44.7896 53.5251ZM44.7342 54.5327L44.3348 54.5107L44.3325 54.5535L44.3392 54.5959L44.7342 54.5327ZM44.8607 55.5279L45.26 55.5036L45.2599 55.5033L44.8607 55.5279ZM44.9249 56.5273L45.3243 56.505L45.3243 56.5046L44.9249 56.5273ZM45.075 58.5252L45.4746 58.5065V58.5065L45.075 58.5252ZM45.0824 59.5279L44.6828 59.5447L44.6828 59.5447L45.0824 59.5279ZM45.1107 61.5311L45.5105 61.5183L45.5104 61.5179L45.1107 61.5311ZM44.7103 62.5438C44.7163 62.7646 44.9001 62.9388 45.121 62.9328C45.3418 62.9268 45.516 62.7429 45.51 62.5221L44.7103 62.5438ZM49.8174 49.789C49.7254 49.5882 49.488 49.5 49.2872 49.5919C49.0863 49.6839 48.9981 49.9213 49.0901 50.1222L49.8174 49.789ZM49.8563 50.8126L49.4916 50.9769L49.4916 50.9771L49.8563 50.8126ZM50.1806 51.7051L49.8149 51.8671L49.8151 51.8675L50.1806 51.7051ZM50.5595 52.5725L50.926 52.4122L50.9259 52.4121L50.5595 52.5725ZM50.9258 53.4455L51.2932 53.2873L51.2931 53.287L50.9258 53.4455ZM51.3143 54.3091L51.6826 54.1529L51.6825 54.1526L51.3143 54.3091ZM51.2975 55.3419C51.3827 55.5458 51.6169 55.642 51.8208 55.5569C52.0246 55.4718 52.1209 55.2375 52.0358 55.0337L51.2975 55.3419ZM31.7644 24.1647C31.9717 25.5054 32.4378 28.2463 32.4521 30.8357C32.4592 32.1314 32.3526 33.3618 32.0571 34.3469C31.7603 35.3364 31.2947 36.0108 30.6336 36.3118L30.9651 37.0399C31.9282 36.6013 32.4963 35.6672 32.8234 34.5767C33.1518 33.4818 33.2594 32.1608 33.2521 30.8312C33.2373 28.17 32.7594 25.3644 32.5551 24.0425L31.7644 24.1647ZM30.6336 36.3118C29.8895 36.6506 29.2938 36.6766 28.8187 36.5184C28.3397 36.3589 27.9217 35.9917 27.5766 35.4266C26.8782 34.2827 26.5465 32.4333 26.6218 30.4047L25.8223 30.375C25.7445 32.4732 26.0774 34.5063 26.8938 35.8434C27.3062 36.5188 27.8582 37.0418 28.5659 37.2775C29.2775 37.5144 30.0851 37.4406 30.9651 37.0399L30.6336 36.3118ZM26.6077 30.2837C26.5705 30.1485 26.5354 30.0328 26.5008 29.9474C26.4848 29.9079 26.4592 29.8498 26.4204 29.7959C26.4011 29.769 26.3648 29.7236 26.3076 29.6842C26.246 29.6418 26.1442 29.5965 26.0165 29.6127C25.8926 29.6285 25.8093 29.6941 25.7647 29.7408C25.7214 29.7863 25.6961 29.8325 25.6827 29.8601C25.6557 29.9155 25.6405 29.9721 25.6314 30.0099C25.612 30.0905 25.5962 30.1944 25.5814 30.3015C25.5197 30.7472 25.44 31.5147 25.2076 32.4058C24.7421 34.1903 23.6938 36.3555 21.0813 37.182L21.3225 37.9447C24.3209 36.9962 25.4875 34.5023 25.9817 32.6077C26.2291 31.6591 26.3156 30.832 26.3738 30.4112C26.389 30.3016 26.4002 30.2343 26.4092 30.1969C26.4144 30.1755 26.4136 30.1863 26.4021 30.2101C26.3963 30.222 26.3789 30.256 26.3438 30.2928C26.3073 30.331 26.2325 30.3917 26.1174 30.4063C25.9985 30.4215 25.9058 30.3789 25.8537 30.343C25.8061 30.3102 25.7798 30.2753 25.7708 30.2628C25.7529 30.2379 25.7501 30.225 25.7592 30.2476C25.775 30.2864 25.7998 30.3632 25.8364 30.496L26.6077 30.2837ZM40.2306 47.3719C38.7846 47.5548 35.56 47.6651 32.6804 47.2722C31.2382 47.0754 29.9154 46.7565 28.951 46.2775C27.9806 45.7954 27.4678 45.2035 27.4265 44.4916L26.6278 44.5379C26.6938 45.6748 27.522 46.4608 28.595 46.9939C29.6741 47.53 31.0972 47.8636 32.5723 48.0649C35.5271 48.468 38.8221 48.3565 40.331 48.1656L40.2306 47.3719ZM27.4265 44.4916C27.3925 43.9052 27.5308 43.4608 27.7636 43.1143C28 42.7624 28.3509 42.4863 28.7777 42.2721C29.6406 41.839 30.7409 41.6945 31.5638 41.6561L31.5265 40.857C30.6699 40.897 29.4338 41.0477 28.4189 41.5571C27.9067 41.8142 27.4334 42.1712 27.0996 42.6681C26.7622 43.1703 26.5844 43.7903 26.6278 44.5379L27.4265 44.4916ZM31.5638 41.6561C31.8767 41.6415 32.1422 41.6426 32.3287 41.6472C32.4219 41.6495 32.495 41.6527 32.5442 41.6553C32.5688 41.6565 32.5874 41.6577 32.5995 41.6584C32.6056 41.6588 32.61 41.6591 32.6127 41.6593C32.6141 41.6594 32.615 41.6595 32.6155 41.6595C32.6158 41.6595 32.6159 41.6596 32.6159 41.6596C32.616 41.6596 32.616 41.6596 32.6159 41.6596C32.6159 41.6596 32.6159 41.6596 32.6158 41.6596C32.6158 41.6595 32.6158 41.6595 32.6158 41.6595C32.6158 41.6595 32.6157 41.6595 32.646 41.2607C32.6763 40.8618 32.6762 40.8618 32.6762 40.8618C32.6762 40.8618 32.6761 40.8618 32.6761 40.8618C32.676 40.8618 32.676 40.8618 32.6759 40.8618C32.6758 40.8618 32.6756 40.8618 32.6754 40.8618C32.675 40.8617 32.6745 40.8617 32.6738 40.8617C32.6726 40.8616 32.6709 40.8614 32.6688 40.8613C32.6646 40.861 32.6586 40.8606 32.651 40.8601C32.6358 40.8591 32.614 40.8578 32.586 40.8563C32.5301 40.8534 32.4496 40.8499 32.3485 40.8474C32.1466 40.8424 31.8617 40.8414 31.5265 40.857L31.5638 41.6561ZM32.646 41.2607C32.7069 40.8653 32.7069 40.8654 32.7069 40.8654C32.7069 40.8654 32.7069 40.8654 32.7069 40.8654C32.7069 40.8654 32.7069 40.8654 32.7069 40.8654C32.7069 40.8654 32.7069 40.8654 32.7068 40.8653C32.7067 40.8653 32.7065 40.8653 32.7063 40.8653C32.7057 40.8652 32.7047 40.865 32.7034 40.8648C32.7008 40.8644 32.6968 40.8638 32.6914 40.8629C32.6805 40.8612 32.6641 40.8585 32.6425 40.855C32.5993 40.8479 32.5355 40.8371 32.4541 40.8227C32.2912 40.7938 32.0583 40.7504 31.7799 40.6924L31.6167 41.4755C31.9041 41.5354 32.145 41.5804 32.3145 41.6104C32.3993 41.6254 32.4663 41.6367 32.5124 41.6443C32.5355 41.6481 32.5534 41.651 32.5656 41.653C32.5717 41.6539 32.5764 41.6547 32.5797 41.6552C32.5813 41.6554 32.5826 41.6556 32.5835 41.6558C32.584 41.6559 32.5843 41.6559 32.5846 41.6559C32.5847 41.656 32.5848 41.656 32.5849 41.656C32.585 41.656 32.585 41.656 32.585 41.656C32.5851 41.656 32.5851 41.656 32.5851 41.656C32.5851 41.656 32.5851 41.656 32.646 41.2607ZM31.7799 40.6924C31.0374 40.5375 29.9895 40.2821 29.0868 39.9282C28.6348 39.751 28.2347 39.5551 27.9312 39.3441C27.6204 39.1281 27.4569 38.9281 27.401 38.7598L26.6418 39.012C26.7777 39.4212 27.1071 39.7456 27.4746 40.001C27.8495 40.2616 28.3132 40.4842 28.7949 40.6731C29.7595 41.0512 30.8583 41.3174 31.6166 41.4755L31.7799 40.6924ZM27.401 38.7599C27.1749 38.0787 27.2304 37.6111 27.3626 37.2928C27.4977 36.9676 27.7333 36.7495 27.9463 36.6097L27.5073 35.9409C27.2069 36.1381 26.8387 36.4686 26.6238 36.986C26.406 37.5103 26.3654 38.1795 26.6417 39.0119L27.401 38.7599ZM29.2512 46.2363C29.6963 46.5703 30.2596 46.6289 30.6673 46.673L30.7535 45.8777C30.3084 45.8295 29.9728 45.7776 29.7314 45.5964L29.2512 46.2363ZM30.6683 46.6731C30.74 46.6807 30.999 46.7201 31.221 46.5733L30.7798 45.906C30.8149 45.8827 30.8418 45.8824 30.8343 45.8829C30.8309 45.8832 30.823 45.8834 30.8083 45.8825C30.7933 45.8817 30.7763 45.8801 30.7525 45.8776L30.6683 46.6731ZM31.2205 46.5736C31.4185 46.4431 31.4912 46.2277 31.5164 46.1602L30.767 45.8803C30.76 45.8992 30.7547 45.9127 30.7498 45.9239C30.7451 45.9349 30.7421 45.9404 30.741 45.9424C30.7384 45.9469 30.7492 45.9261 30.7803 45.9056L31.2205 46.5736ZM31.5164 46.1604C31.6907 45.6943 32.0421 44.4575 32.0804 43.4157C32.0989 42.9128 32.0503 42.3523 31.7754 41.9672C31.6255 41.7574 31.4104 41.6028 31.1307 41.5481C30.8631 41.4957 30.573 41.5417 30.2713 41.6548L30.5522 42.4039C30.7706 42.322 30.9036 42.3189 30.9771 42.3332C31.0385 42.3452 31.0824 42.3734 31.1243 42.4321C31.2328 42.5841 31.2987 42.9045 31.2809 43.3863C31.2468 44.3142 30.9231 45.4629 30.7671 45.8802L31.5164 46.1604ZM30.2713 41.6549C29.4372 41.9677 28.7976 42.8051 28.5444 43.6729C28.289 44.5479 28.3935 45.5927 29.2512 46.2363L29.7314 45.5964C29.2345 45.2236 29.1122 44.5826 29.3123 43.897C29.5145 43.2043 30.0125 42.6064 30.5522 42.4039L30.2713 41.6549ZM86.7604 40.8172C86.9483 40.4641 86.9483 40.4641 86.9482 40.464C86.9482 40.464 86.9481 40.464 86.9481 40.464C86.9479 40.4639 86.9477 40.4638 86.9474 40.4636C86.9468 40.4633 86.946 40.4628 86.9448 40.4622C86.9425 40.461 86.9391 40.4592 86.9346 40.4568C86.9255 40.4519 86.912 40.4448 86.8942 40.4353C86.8588 40.4165 86.8064 40.3886 86.7385 40.3526C86.6028 40.2806 86.4054 40.176 86.1584 40.0453C85.6643 39.784 84.9717 39.4186 84.1776 39.0023C82.5898 38.1701 80.5938 37.1334 78.9661 36.3183L78.6079 37.0336C80.2287 37.8453 82.2194 38.8792 83.8062 39.7109C84.5993 40.1266 85.291 40.4915 85.7843 40.7525C86.031 40.883 86.2281 40.9874 86.3635 41.0593C86.4312 41.0952 86.4835 41.123 86.5188 41.1418C86.5365 41.1512 86.5499 41.1583 86.5589 41.1631C86.5634 41.1655 86.5668 41.1673 86.5691 41.1685C86.5702 41.1691 86.5711 41.1696 86.5716 41.1699C86.5719 41.17 86.5721 41.1701 86.5723 41.1702C86.5723 41.1702 86.5724 41.1703 86.5724 41.1703C86.5725 41.1703 86.5725 41.1703 86.7604 40.8172ZM78.9662 36.3183C78.2466 35.9578 77.5747 35.2405 76.9427 34.289C76.3148 33.3437 75.752 32.2073 75.234 31.0573C74.9755 30.4835 74.7299 29.9102 74.4934 29.3582C74.2575 28.8077 74.0301 28.277 73.8105 27.7949C73.5912 27.3134 73.3762 26.8723 73.1638 26.5015C72.9541 26.1355 72.7336 25.8136 72.4969 25.5886L71.9456 26.1683C72.0978 26.313 72.2725 26.5551 72.4696 26.8991C72.6639 27.2383 72.8671 27.6535 73.0825 28.1265C73.2976 28.5988 73.5213 29.1208 73.758 29.6733C73.9941 30.2243 74.2426 30.8042 74.5046 31.3859C75.0276 32.5471 75.6117 33.731 76.2763 34.7317C76.9369 35.7262 77.7034 36.5805 78.6079 37.0336L78.9662 36.3183ZM72.4969 25.5886C71.6752 24.8071 69.656 23.4914 67.3971 22.4115C65.1478 21.3361 62.5537 20.4416 60.5938 20.5988L60.6577 21.3963C62.3891 21.2574 64.8152 22.0639 67.052 23.1332C69.2792 24.198 71.2122 25.4708 71.9456 26.1683L72.4969 25.5886ZM60.5938 20.5988C58.6334 20.7559 57.5291 21.591 56.9241 22.4268C56.6265 22.838 56.4571 23.2388 56.3617 23.5383C56.3139 23.6884 56.2843 23.8141 56.2664 23.9046C56.2575 23.9499 56.2514 23.9865 56.2475 24.0131C56.2455 24.0264 56.2441 24.0372 56.243 24.0453C56.2425 24.0494 56.2421 24.0528 56.2418 24.0555C56.2416 24.0569 56.2415 24.058 56.2414 24.0591C56.2413 24.0596 56.2413 24.06 56.2412 24.0605C56.2412 24.0607 56.2412 24.0609 56.2412 24.0611C56.2412 24.0613 56.2411 24.0616 56.6389 24.1034C57.0367 24.1453 57.0367 24.1455 57.0367 24.1457C57.0367 24.1458 57.0367 24.146 57.0366 24.1461C57.0366 24.1464 57.0366 24.1466 57.0366 24.1468C57.0365 24.1471 57.0365 24.1473 57.0365 24.1473C57.0365 24.1473 57.0366 24.1467 57.0368 24.1454C57.0371 24.1429 57.0377 24.1379 57.0388 24.1305C57.041 24.1158 57.0449 24.0917 57.0513 24.0596C57.064 23.9953 57.0863 23.8991 57.1239 23.7811C57.1993 23.5445 57.3344 23.2243 57.5721 22.8959C58.0377 22.2528 58.9268 21.5349 60.6577 21.3963L60.5938 20.5988ZM56.6389 24.1034C56.6889 23.7066 56.6888 23.7065 56.6887 23.7065C56.6886 23.7065 56.6884 23.7065 56.6882 23.7065C56.6878 23.7064 56.6872 23.7063 56.6865 23.7063C56.685 23.7061 56.683 23.7058 56.6802 23.7055C56.6748 23.7048 56.6669 23.7038 56.6565 23.7026C56.6358 23.7001 56.6053 23.6965 56.5657 23.6919C56.4864 23.6828 56.3706 23.6699 56.223 23.6547C55.9279 23.6243 55.5055 23.5847 54.9944 23.5474C53.9733 23.4729 52.5935 23.4074 51.1653 23.4449C49.7415 23.4822 48.2484 23.6222 47.0098 23.9679C45.7937 24.3073 44.7061 24.8775 44.2708 25.865L45.0028 26.1877C45.2847 25.5483 46.056 25.0647 47.2248 24.7385C48.3711 24.4186 49.7888 24.2812 51.1863 24.2446C52.5793 24.208 53.9311 24.2719 54.9362 24.3453C55.4383 24.3819 55.8527 24.4208 56.1411 24.4505C56.2853 24.4653 56.3979 24.4779 56.4741 24.4866C56.5123 24.491 56.5413 24.4945 56.5606 24.4968C56.5703 24.498 56.5776 24.4989 56.5823 24.4995C56.5847 24.4998 56.5864 24.5 56.5875 24.5001C56.5881 24.5002 56.5885 24.5002 56.5887 24.5003C56.5888 24.5003 56.5889 24.5003 56.589 24.5003C56.589 24.5003 56.589 24.5003 56.6389 24.1034ZM44.2708 25.865C43.5243 27.5585 43.5755 28.6467 43.9831 29.4692C44.1781 29.8625 44.4427 30.1685 44.672 30.4228C44.9141 30.6914 45.0965 30.8832 45.2169 31.096L45.9131 30.7019C45.7382 30.3929 45.4775 30.1215 45.2662 29.8871C45.0419 29.6384 44.8425 29.4015 44.6999 29.1139C44.4326 28.5744 44.315 27.7481 45.0028 26.1876L44.2708 25.865ZM45.2169 31.096C45.2635 31.1783 45.274 31.2332 45.275 31.2732C45.276 31.3165 45.2664 31.3727 45.2309 31.4591C45.1939 31.5494 45.1375 31.652 45.0567 31.7918C44.9794 31.9255 44.8826 32.0886 44.7858 32.2744C44.3821 33.0493 43.9874 34.2029 44.2397 36.2803L45.0339 36.1838C44.8011 34.2675 45.1659 33.2764 45.4953 32.644C45.5817 32.4781 45.6665 32.3355 45.7493 32.1922C45.8286 32.055 45.9109 31.9094 45.971 31.7628C46.0328 31.6123 46.0791 31.443 46.0747 31.2547C46.0703 31.0632 46.0142 30.8806 45.9131 30.7019L45.2169 31.096ZM44.2397 36.2803C44.3573 37.2481 44.3477 38.4026 44.342 39.6345C44.3365 40.8532 44.3352 42.1401 44.4798 43.3247C44.624 44.5063 44.9179 45.6322 45.5348 46.5086C46.1648 47.4035 47.1091 48.0056 48.4711 48.1661L48.5648 47.3716C47.4168 47.2364 46.6815 46.7477 46.189 46.0481C45.6834 45.3298 45.4118 44.3573 45.2739 43.2278C45.1364 42.1014 45.1364 40.8646 45.142 39.6381C45.1476 38.4249 45.1589 37.2128 45.0339 36.1838L44.2397 36.2803ZM48.4712 48.1661C50.9839 48.4622 54.8766 49.0143 58.4351 49.4598C60.2083 49.6818 61.8937 49.8767 63.2669 49.9975C64.6213 50.1167 65.7221 50.1692 66.2933 50.0875L66.18 49.2955C65.7176 49.3617 64.7143 49.3217 63.3371 49.2006C61.9787 49.0811 60.305 48.8877 58.5345 48.666C55.0055 48.2242 51.0724 47.6671 48.5648 47.3716L48.4712 48.1661ZM66.2933 50.0875C66.3596 50.078 66.4797 50.0811 66.6668 50.1158C66.8484 50.1495 67.0699 50.2084 67.3286 50.2922C67.8459 50.4597 68.4851 50.7178 69.2059 51.041C70.6461 51.6868 72.3803 52.5781 74.0568 53.4824C75.732 54.386 77.3435 55.2992 78.5366 55.9867C79.1331 56.3304 79.6246 56.6176 79.967 56.8187C80.1382 56.9193 80.272 56.9984 80.363 57.0522C80.4085 57.0792 80.4433 57.0998 80.4666 57.1137C80.4783 57.1206 80.4871 57.1259 80.493 57.1294C80.496 57.1311 80.4982 57.1325 80.4996 57.1333C80.5004 57.1338 80.5009 57.1341 80.5013 57.1343C80.5014 57.1344 80.5016 57.1345 80.5017 57.1345C80.5017 57.1346 80.5018 57.1346 80.7066 56.791C80.9115 56.4475 80.9114 56.4474 80.9113 56.4474C80.9112 56.4473 80.911 56.4472 80.9108 56.4471C80.9104 56.4469 80.9099 56.4465 80.9091 56.4461C80.9075 56.4451 80.9053 56.4438 80.9022 56.442C80.8962 56.4384 80.8872 56.433 80.8753 56.426C80.8516 56.4119 80.8165 56.391 80.7706 56.3639C80.6789 56.3096 80.5443 56.23 80.3723 56.129C80.0283 55.9269 79.5347 55.6386 78.9361 55.2936C77.739 54.6038 76.1206 53.6866 74.4366 52.7783C72.7541 51.8708 70.9999 50.9687 69.5332 50.311C68.8006 49.9825 68.1317 49.7114 67.5751 49.5311C67.2968 49.441 67.0399 49.3713 66.8127 49.3292C66.5911 49.2881 66.372 49.268 66.18 49.2955L66.2933 50.0875ZM65.4852 24.9046C64.4903 24.9355 63.5064 24.7247 62.4745 24.4778C61.4584 24.2347 60.3868 23.9537 59.2896 23.892L59.2446 24.6907C60.2533 24.7474 61.2427 25.0057 62.2883 25.2559C63.3181 25.5023 64.3964 25.7388 65.51 25.7043L65.4852 24.9046ZM59.2895 23.892C59.0419 23.8781 58.7946 23.8753 58.5553 23.8738C58.3131 23.8724 58.0813 23.8723 57.8507 23.8646C57.3901 23.8492 56.9662 23.804 56.5711 23.6709L56.3157 24.4291C56.8197 24.5989 57.3342 24.6478 57.824 24.6641C58.0686 24.6723 58.3149 24.6724 58.5504 24.6738C58.7889 24.6753 59.0188 24.678 59.2447 24.6907L59.2895 23.892ZM0.709656 38.2289C0.871183 38.5948 0.871207 38.5948 0.871249 38.5948C0.871287 38.5948 0.871347 38.5947 0.871423 38.5947C0.871575 38.5946 0.871799 38.5945 0.872094 38.5944C0.872684 38.5941 0.87356 38.5938 0.874718 38.5932C0.877035 38.5922 0.880482 38.5907 0.885036 38.5887C0.894142 38.5847 0.907676 38.5787 0.925446 38.5708C0.960987 38.5551 1.01348 38.5318 1.0814 38.5016C1.21725 38.4413 1.41484 38.3533 1.66207 38.2427C2.1565 38.0214 2.84957 37.7094 3.64431 37.3466C5.23277 36.6213 7.23135 35.6908 8.86213 34.874L8.5039 34.1587C6.88624 34.9689 4.89813 35.8946 3.31203 36.6188C2.51948 36.9807 1.8283 37.2918 1.33529 37.5125C1.0888 37.6228 0.891882 37.7104 0.756647 37.7705C0.68903 37.8005 0.636836 37.8237 0.601577 37.8393C0.583949 37.8471 0.570554 37.853 0.561583 37.857C0.557097 37.859 0.553717 37.8605 0.551467 37.8615C0.550342 37.862 0.549499 37.8623 0.548942 37.8626C0.548663 37.8627 0.548456 37.8628 0.54832 37.8628C0.548252 37.8629 0.548205 37.8629 0.548171 37.8629C0.548141 37.8629 0.548129 37.8629 0.709656 38.2289ZM8.86217 34.874C10.5771 34.0149 12.2109 32.1544 13.5813 30.3869C14.2711 29.4973 14.9116 28.6071 15.4657 27.862C16.0291 27.1044 16.4937 26.5102 16.8533 26.1683L16.302 25.5886C15.8839 25.9862 15.3789 26.6381 14.8238 27.3846C14.2594 28.1435 13.6325 29.0152 12.9491 29.8968C11.573 31.6717 10.0371 33.3907 8.50386 34.1587L8.86217 34.874ZM16.8533 26.1683C17.5867 25.4708 19.5197 24.198 21.7469 23.1332C23.9837 22.0639 26.4098 21.2574 28.1412 21.3963L28.2051 20.5988C26.2452 20.4416 23.6511 21.3361 21.4018 22.4115C19.1429 23.4914 17.1237 24.8071 16.302 25.5886L16.8533 26.1683ZM28.1412 21.3963C29.872 21.5349 30.7612 22.2528 31.2266 22.896C31.4643 23.2244 31.5994 23.5446 31.6748 23.7812C31.7124 23.8993 31.7347 23.9954 31.7474 24.0598C31.7538 24.0919 31.7577 24.1159 31.7599 24.1307C31.761 24.138 31.7616 24.1431 31.7619 24.1456C31.7621 24.1468 31.7622 24.1475 31.7622 24.1474C31.7622 24.1474 31.7621 24.1473 31.7621 24.1469C31.7621 24.1468 31.7621 24.1465 31.762 24.1463C31.762 24.1462 31.762 24.146 31.762 24.1459C31.762 24.1457 31.7619 24.1454 32.1597 24.1036C32.5576 24.0618 32.5575 24.0616 32.5575 24.0613C32.5575 24.0612 32.5575 24.0609 32.5574 24.0607C32.5574 24.0603 32.5573 24.0598 32.5573 24.0593C32.5572 24.0583 32.557 24.0571 32.5569 24.0557C32.5566 24.053 32.5562 24.0496 32.5556 24.0455C32.5546 24.0374 32.5532 24.0266 32.5512 24.0133C32.5473 23.9867 32.5412 23.9501 32.5323 23.9048C32.5144 23.8143 32.4849 23.6886 32.4371 23.5385C32.3417 23.239 32.1723 22.8381 31.8747 22.427C31.2697 21.591 30.1656 20.7559 28.2051 20.5988L28.1412 21.3963ZM32.1597 24.1036C32.2275 24.4978 32.2275 24.4979 32.2275 24.4978C32.2275 24.4978 32.2276 24.4978 32.2277 24.4978C32.2279 24.4978 32.2282 24.4977 32.2287 24.4976C32.2297 24.4975 32.2313 24.4972 32.2335 24.4968C32.2378 24.4961 32.2444 24.495 32.2533 24.4935C32.271 24.4906 32.2977 24.4862 32.3328 24.4806C32.403 24.4693 32.5068 24.4532 32.6397 24.4337C32.9057 24.3948 33.288 24.3426 33.7517 24.29C34.68 24.1847 35.9291 24.0783 37.219 24.0722C38.5136 24.0661 39.8266 24.1614 40.8927 24.4483C41.9746 24.7395 42.7008 25.1997 42.9842 25.8427L43.7162 25.5201C43.2825 24.536 42.2514 23.9855 41.1006 23.6758C39.934 23.3618 38.539 23.266 37.2153 23.2722C35.8869 23.2785 34.6072 23.3878 33.6615 23.4951C33.1881 23.5488 32.797 23.6022 32.5238 23.6422C32.3872 23.6622 32.2799 23.6789 32.2065 23.6906C32.1698 23.6965 32.1415 23.7011 32.1223 23.7043C32.1126 23.7059 32.1052 23.7072 32.1002 23.708C32.0976 23.7084 32.0957 23.7088 32.0943 23.709C32.0937 23.7091 32.0931 23.7092 32.0927 23.7093C32.0925 23.7093 32.0924 23.7093 32.0923 23.7094C32.0921 23.7094 32.092 23.7094 32.1597 24.1036ZM42.9842 25.8427C43.6843 27.4309 43.7731 28.3903 43.6574 29.0499C43.5386 29.7277 43.2127 30.1244 42.8858 30.7019L43.582 31.096C43.8458 30.63 44.2952 30.0447 44.4454 29.1881C44.5988 28.3132 44.4504 27.1856 43.7162 25.52L42.9842 25.8427ZM42.8857 30.702C42.7847 30.8806 42.7286 31.0633 42.7242 31.2548C42.7199 31.4431 42.7662 31.6123 42.828 31.7628C42.8881 31.9094 42.9704 32.055 43.0497 32.1922C43.1325 32.3354 43.2173 32.4781 43.3037 32.644C43.6331 33.2763 43.9978 34.2675 43.765 36.1838L44.5592 36.2803C44.8115 34.2029 44.4169 33.0493 44.0132 32.2744C43.9164 32.0886 43.8196 31.9255 43.7423 31.7918C43.6615 31.652 43.6051 31.5494 43.5681 31.459C43.5326 31.3727 43.523 31.3164 43.524 31.2732C43.5249 31.2331 43.5355 31.1782 43.582 31.096L42.8857 30.702ZM43.765 36.1838C43.64 37.2128 43.6514 38.4249 43.657 39.6381C43.6626 40.8646 43.6626 42.1013 43.525 43.2277C43.3871 44.3573 43.1155 45.3297 42.6098 46.048C42.1173 46.7476 41.3819 47.2362 40.234 47.3715L40.3276 48.166C41.6897 48.0055 42.6339 47.4034 43.264 46.5085C43.8809 45.6322 44.1749 44.5062 44.3191 43.3247C44.4638 42.1401 44.4625 40.8531 44.457 39.6345C44.4513 38.4026 44.4416 37.2481 44.5592 36.2803L43.765 36.1838ZM40.234 47.3715C37.7263 47.6669 33.7933 48.2241 30.2644 48.6659C28.4939 48.8876 26.8202 49.081 25.4619 49.2006C24.0847 49.3217 23.0815 49.3617 22.6192 49.2955L22.5059 50.0875C23.077 50.1692 24.1777 50.1166 25.5321 49.9975C26.9053 49.8766 28.5906 49.6818 30.3638 49.4597C33.9221 49.0142 37.8148 48.4621 40.3276 48.166L40.234 47.3715ZM22.6192 49.2955C22.4271 49.268 22.208 49.2881 21.9864 49.3292C21.7592 49.3713 21.5023 49.441 21.224 49.5311C20.6674 49.7114 19.9985 49.9825 19.2658 50.311C17.799 50.9687 16.0449 51.8708 14.3623 52.7783C12.6783 53.6866 11.0599 54.6038 9.86282 55.2936C9.26417 55.6386 8.77062 55.9269 8.42661 56.129C8.2546 56.23 8.11996 56.3096 8.02825 56.3639C7.98239 56.391 7.94726 56.4119 7.92356 56.426C7.91171 56.433 7.90271 56.4384 7.89666 56.442C7.89363 56.4438 7.89134 56.4451 7.8898 56.4461C7.88902 56.4465 7.88844 56.4469 7.88804 56.4471C7.88784 56.4472 7.88769 56.4473 7.88759 56.4474C7.88748 56.4474 7.88741 56.4475 8.09226 56.791C8.29711 57.1346 8.29715 57.1346 8.29722 57.1345C8.29731 57.1345 8.29744 57.1344 8.29762 57.1343C8.29798 57.1341 8.29852 57.1338 8.29925 57.1333C8.30071 57.1325 8.30292 57.1311 8.30586 57.1294C8.31175 57.1259 8.32057 57.1206 8.33225 57.1137C8.35561 57.0998 8.39038 57.0792 8.43587 57.0522C8.52685 56.9984 8.6607 56.9193 8.83188 56.8187C9.17423 56.6176 9.66582 56.3304 10.2623 55.9867C11.4554 55.2992 13.0669 54.386 14.7421 53.4824C16.4187 52.5781 18.1529 51.6868 19.5931 51.041C20.3139 50.7178 20.9531 50.4597 21.4705 50.2922C21.7292 50.2084 21.9507 50.1495 22.1323 50.1158C22.3194 50.0811 22.4395 50.078 22.5059 50.0875L22.6192 49.2955ZM41.0484 41.1071L32.6577 40.8609L32.6343 41.6605L41.0249 41.9067L41.0484 41.1071ZM32.3158 35.2458L40.549 35.1528L40.5399 34.3529L32.3067 34.4459L32.3158 35.2458ZM32.841 30.5653L39.809 30.5184L39.8037 29.7184L32.8356 29.7653L32.841 30.5653ZM32.7817 28.8787C31.6484 28.9185 30.619 29.2512 29.8171 29.7444C29.0224 30.2332 28.4167 30.9025 28.1931 31.6373C27.9592 32.4059 28.1619 33.1957 28.8851 33.801C29.5796 34.3824 30.7316 34.7791 32.391 34.9151L32.4564 34.1178C30.8673 33.9875 29.9091 33.615 29.3986 33.1876C28.9168 32.7843 28.8197 32.3259 28.9584 31.8703C29.1073 31.3809 29.5466 30.8499 30.2362 30.4258C30.9186 30.0061 31.8129 29.7132 32.8098 29.6783L32.7817 28.8787ZM44.9692 30.8747C47.166 31.4644 49.3472 32.1124 51.5097 32.8177L51.7578 32.0571C49.5818 31.3474 47.3871 30.6954 45.1766 30.1021L44.9692 30.8747ZM44.3503 35.999C44.6014 36.4241 44.9362 36.7992 45.3302 37.0961L45.8116 36.4571C45.5015 36.2235 45.2371 35.9274 45.0392 35.5923L44.3503 35.999ZM45.3299 37.0959C45.8203 37.4661 46.3856 37.7033 46.8901 37.9164L47.2013 37.1794C46.6813 36.9598 46.2099 36.7578 45.8119 36.4574L45.3299 37.0959ZM46.8902 37.9164C48.1186 38.4349 49.3486 38.9541 50.5824 39.4649L50.8884 38.7257C49.6576 38.2162 48.4302 37.6981 47.2013 37.1793L46.8902 37.9164ZM44.3734 41.4788C44.7045 41.7776 45.0945 41.9475 45.4741 42.0624C45.8446 42.1744 46.2488 42.245 46.5824 42.3169L46.7509 41.5348C46.3725 41.4533 46.0346 41.3961 45.7057 41.2966C45.386 41.1999 45.1194 41.0745 44.9094 40.8849L44.3734 41.4788ZM46.5823 42.3169C47.7829 42.576 48.9376 43.0496 49.9746 43.7089L50.4038 43.0338C49.2869 42.3237 48.044 41.8139 46.751 41.5349L46.5823 42.3169ZM49.9746 43.7089C50.2434 43.8798 50.5586 44.0969 50.8789 44.2661C51.207 44.4394 51.5785 44.5849 51.9956 44.6111L52.0458 43.8126C51.7847 43.7962 51.5273 43.7038 51.2526 43.5587C50.9701 43.4095 50.7087 43.2276 50.4038 43.0338L49.9746 43.7089ZM28.5581 36.7817C28.1427 37.9857 28.5665 39.4174 29.5702 40.1999L30.0621 39.569C29.3284 38.997 29.0103 37.9237 29.3143 37.0426L28.5581 36.7817ZM29.5706 40.2002C29.7187 40.3154 29.9551 40.4776 30.2541 40.4967L30.3051 39.6983C30.26 39.6954 30.1864 39.6657 30.0618 39.5688L29.5706 40.2002ZM30.2548 40.4967C30.7602 40.5281 31.1357 40.1502 31.2886 39.8029L30.5564 39.4806C30.5259 39.5499 30.4766 39.6122 30.4229 39.6525C30.3704 39.6921 30.3296 39.6998 30.3044 39.6983L30.2548 40.4967ZM31.2886 39.8029C31.4399 39.4593 31.44 39.0863 31.4424 38.8199L30.6424 38.8129C30.6398 39.1066 30.6307 39.3119 30.5564 39.4806L31.2886 39.8029ZM31.4424 38.8201C31.449 38.1077 31.4559 37.3916 31.4525 36.6753L30.6526 36.679C30.6558 37.3887 30.649 38.0991 30.6424 38.8127L31.4424 38.8201ZM34.2837 6.85533C34.4018 7.10229 34.4905 7.22263 34.5711 7.33109C34.6352 7.41737 34.6913 7.49176 34.7787 7.67468L35.5005 7.32962C35.3824 7.08266 35.2938 6.96232 35.2131 6.85386C35.149 6.76758 35.0929 6.69319 35.0055 6.51027L34.2837 6.85533ZM34.7788 7.67477C34.8758 7.87763 34.9154 7.97907 34.957 8.08522C35.0025 8.20143 35.05 8.32241 35.1585 8.54927L35.8802 8.20422C35.7832 8.0012 35.7435 7.89969 35.7019 7.79347C35.6564 7.67719 35.6089 7.55627 35.5004 7.32953L34.7788 7.67477ZM35.1586 8.54945C35.2655 8.7728 35.3262 8.88411 35.3851 8.99209C35.4402 9.09313 35.4935 9.19096 35.592 9.39692L36.3138 9.05188C36.207 8.82852 36.1464 8.71718 36.0874 8.60905C36.0322 8.50787 35.9787 8.41001 35.8801 8.20404L35.1586 8.54945ZM35.592 9.39693C35.6868 9.59526 35.7222 9.69425 35.7601 9.79982C35.803 9.91945 35.8485 10.0458 35.9591 10.2772L36.6809 9.93234C36.5863 9.73416 36.551 9.63524 36.513 9.52955C36.4701 9.40982 36.4245 9.28342 36.3138 9.05187L35.592 9.39693ZM35.9591 10.2773C36.067 10.503 36.13 10.6154 36.1909 10.7238C36.2471 10.8237 36.301 10.9196 36.3988 11.1238L37.1204 10.7783C37.0123 10.5527 36.9493 10.4403 36.8884 10.332C36.8324 10.2322 36.7785 10.1364 36.6809 9.93224L35.9591 10.2773ZM36.3987 11.1236C36.4912 11.3171 36.5224 11.4135 36.5567 11.5186C36.597 11.6419 36.6404 11.774 36.7534 12.0105L37.4753 11.6656C37.3827 11.4719 37.3516 11.3754 37.3172 11.2702C37.2769 11.1469 37.2335 11.0149 37.1205 10.7785L36.3987 11.1236ZM36.7534 12.0105C36.8615 12.2366 36.9246 12.3491 36.9855 12.4576C37.0416 12.5576 37.0955 12.6535 37.1933 12.8581L37.9151 12.5132C37.8071 12.2871 37.744 12.1746 37.6831 12.0661C37.627 11.9661 37.573 11.8701 37.4753 11.6656L36.7534 12.0105ZM37.1934 12.8583C37.2915 13.0634 37.3329 13.166 37.3758 13.2725C37.4223 13.3877 37.4705 13.5069 37.5782 13.7324L38.3001 13.3875C38.2021 13.1824 38.1608 13.0798 38.1177 12.9731C38.0712 12.8578 38.0229 12.7386 37.915 12.513L37.1934 12.8583ZM43.534 12.6305C43.517 12.3917 43.508 12.2721 43.4991 12.1528C43.4902 12.0339 43.4813 11.9154 43.4643 11.6778L42.6664 11.7348C42.6834 11.9736 42.6924 12.0932 42.7013 12.2125C42.7102 12.3313 42.7191 12.4499 42.736 12.6875L43.534 12.6305ZM43.4643 11.6778C43.448 11.4485 43.4456 11.336 43.4432 11.2202C43.4405 11.0968 43.4378 10.9701 43.4201 10.7227L42.6222 10.7797C42.6385 11.0089 42.6409 11.1213 42.6433 11.2371C42.646 11.3605 42.6487 11.4873 42.6663 11.7348L43.4643 11.6778ZM43.4201 10.7227C43.4015 10.4616 43.3747 10.3256 43.3494 10.1985C43.3276 10.0894 43.3074 9.98923 43.292 9.77388L42.494 9.83088C42.5127 10.0919 42.5395 10.2278 42.5648 10.3548C42.5865 10.4639 42.6068 10.5642 42.6222 10.7797L43.4201 10.7227ZM43.292 9.77391C43.2772 9.56682 43.2874 9.47101 43.2983 9.36267C43.3117 9.22969 43.3258 9.08417 43.3065 8.81439L42.5086 8.87132C42.5234 9.07842 42.5132 9.17422 42.5023 9.28257C42.4889 9.41554 42.4748 9.56107 42.494 9.83085L43.292 9.77391ZM43.3065 8.81416C43.2868 8.54002 43.2478 8.3949 43.2121 8.26402C43.1838 8.15993 43.1586 8.06996 43.1441 7.86723L42.3461 7.92416C42.3657 8.19832 42.4046 8.34348 42.4403 8.47454C42.4688 8.57879 42.494 8.66881 42.5086 8.87155L43.3065 8.81416ZM43.1441 7.86723C43.1268 7.62494 43.1155 7.50287 43.1043 7.38225C43.0934 7.2648 43.0827 7.14877 43.0659 6.91404L42.2679 6.97094C42.2852 7.21337 42.2965 7.33551 42.3077 7.45615C42.3186 7.57362 42.3294 7.68958 42.3461 7.92416L43.1441 7.86723ZM43.0659 6.91399C43.0498 6.68813 43.0495 6.57822 43.0491 6.46355C43.0487 6.33882 43.0481 6.20933 43.0302 5.95887L42.2323 6.01587C42.2484 6.24173 42.2487 6.35164 42.2491 6.46631C42.2495 6.59104 42.2501 6.72053 42.2679 6.97099L43.0659 6.91399ZM43.0302 5.9589C43.0154 5.75128 43.0253 5.65507 43.0359 5.54653C43.0489 5.41375 43.0626 5.26863 43.0434 4.99937L42.2454 5.05631C42.2603 5.26393 42.2504 5.36014 42.2397 5.46868C42.2268 5.60146 42.2131 5.74658 42.2323 6.01583L43.0302 5.9589ZM43.0434 4.99939C43.0238 4.72365 42.9834 4.5775 42.9465 4.44612C42.9174 4.34249 42.8918 4.25364 42.8774 4.05223L42.0794 4.10913C42.0991 4.38488 42.1394 4.53103 42.1763 4.6624C42.2054 4.76603 42.2311 4.85488 42.2454 5.05629L43.0434 4.99939ZM42.8774 4.05201C42.8604 3.8151 42.853 3.69708 42.8456 3.5785C42.8381 3.45856 42.8306 3.33789 42.8135 3.09766L42.0155 3.15456C42.0324 3.39147 42.0397 3.50952 42.0471 3.62829C42.0546 3.74842 42.0622 3.86912 42.0795 4.10936L42.8774 4.05201ZM42.8135 3.09769C42.7986 2.88919 42.8083 2.79238 42.8187 2.68333C42.8313 2.55037 42.8446 2.40535 42.8253 2.13603L42.0273 2.19329C42.0423 2.40194 42.0326 2.49879 42.0223 2.60764C42.0097 2.74039 41.9963 2.88533 42.0155 3.15452L42.8135 3.09769ZM42.8253 2.13626C42.8057 1.86142 42.7667 1.71596 42.7308 1.58472C42.7023 1.48041 42.677 1.39031 42.6626 1.18717L41.8646 1.24398C41.8842 1.51882 41.9232 1.66427 41.9591 1.79552C41.9876 1.89983 42.0128 1.98992 42.0273 2.19306L42.8253 2.13626ZM53.1774 1.28137L52.6936 2.15816L53.3941 2.54462L53.8778 1.66782L53.1774 1.28137ZM52.6758 2.19479L52.2853 3.11254L53.0215 3.42573L53.4119 2.50798L52.6758 2.19479ZM52.2682 3.16147L51.9976 4.12952L52.7681 4.34485L53.0387 3.3768L52.2682 3.16147ZM52.0357 4.03857L51.5371 4.91014L52.2315 5.30736L52.7301 4.43579L52.0357 4.03857ZM51.5156 4.95361L51.1287 5.87301L51.8661 6.18329L52.253 5.2639L51.5156 4.95361ZM51.1308 5.8682L50.7319 6.78265L51.4651 7.10255L51.8641 6.1881L51.1308 5.8682ZM50.7284 6.79072L50.3501 7.71259L51.0901 8.01635L51.4685 7.09448L50.7284 6.79072ZM50.3467 7.72117L49.9891 8.65294L50.736 8.93953L51.0936 8.00776L50.3467 7.72117ZM49.9843 8.66632L49.6594 9.61238L50.416 9.8722L50.7409 8.92614L49.9843 8.66632ZM49.6749 9.57375L49.2543 10.4791L49.9798 10.8162L50.4005 9.91083L49.6749 9.57375ZM49.2575 10.4724L48.819 11.372L49.5382 11.7225L49.9766 10.8229L49.2575 10.4724ZM48.8114 11.3887L48.4152 12.3065L49.1496 12.6236L49.5458 11.7058L48.8114 11.3887ZM39.2731 49.8406L38.9743 50.7663L39.7357 51.0121L40.0345 50.0864L39.2731 49.8406ZM39.0088 50.6888L38.524 51.5263L39.2163 51.9271L39.7012 51.0896L39.0088 50.6888ZM38.5157 51.5413L38.0682 52.3966L38.7771 52.7675L39.2246 51.9121L38.5157 51.5413ZM38.0477 52.4426L37.7105 53.3491L38.4603 53.628L38.7975 52.7215L38.0477 52.4426ZM37.7273 53.3104L37.2976 54.1743L38.0139 54.5305L38.4436 53.6667L37.7273 53.3104ZM37.2815 54.211L36.9399 55.115L37.6883 55.3978L38.0299 54.4938L37.2815 54.211ZM36.9446 55.1032L36.5753 55.994L37.3143 56.3004L37.6836 55.4096L36.9446 55.1032ZM36.5878 55.9668L36.1523 56.8285L36.8663 57.1893L37.3018 56.3276L36.5878 55.9668ZM36.1359 56.8655L35.7899 57.7665L36.5368 58.0533L36.8828 57.1523L36.1359 56.8655ZM35.7954 57.753L35.4173 58.64L36.1532 58.9537L36.5313 58.0667L35.7954 57.753ZM35.4262 58.6206L35.0009 59.4872L35.719 59.8397L36.1443 58.9731L35.4262 58.6206ZM34.9955 59.4986L34.5979 60.3773L35.3268 60.7071L35.7244 59.8284L34.9955 59.4986ZM34.9624 60.5422C34.5797 60.4257 34.5797 60.4257 34.5797 60.4257C34.5797 60.4257 34.5797 60.4257 34.5797 60.4257C34.5797 60.4257 34.5797 60.4257 34.5797 60.4257C34.5797 60.4258 34.5797 60.4258 34.5796 60.426C34.5795 60.4262 34.5794 60.4266 34.5793 60.4272C34.5789 60.4282 34.5784 60.4299 34.5778 60.4321C34.5764 60.4365 34.5744 60.443 34.5718 60.4515C34.5665 60.4685 34.5589 60.4933 34.5493 60.524C34.53 60.5855 34.5031 60.6704 34.4725 60.7643C34.4099 60.9564 34.3363 61.1712 34.2814 61.3032L35.0199 61.6107C35.0885 61.446 35.1708 61.2035 35.2331 61.0124C35.265 60.9146 35.2929 60.8265 35.3128 60.7628C35.3228 60.7309 35.3308 60.7051 35.3363 60.6871C35.3391 60.6782 35.3412 60.6712 35.3427 60.6663C35.3434 60.6639 35.344 60.6621 35.3444 60.6608C35.3446 60.6601 35.3447 60.6596 35.3448 60.6593C35.3449 60.6591 35.3449 60.659 35.345 60.6589C35.345 60.6588 35.345 60.6588 35.345 60.6588C35.345 60.6588 35.345 60.6587 35.345 60.6587C35.345 60.6587 35.345 60.6587 34.9624 60.5422ZM44.1628 51.5879L44.2987 52.5815L45.0913 52.4731L44.9555 51.4795L44.1628 51.5879ZM44.2968 52.5651L44.3914 53.5628L45.1878 53.4873L45.0932 52.4895L44.2968 52.5651ZM44.3902 53.5031L44.3348 54.5107L45.1336 54.5546L45.189 53.547L44.3902 53.5031ZM44.7342 54.5327C44.3392 54.5959 44.3392 54.5959 44.3392 54.5959C44.3392 54.5959 44.3392 54.5959 44.3392 54.5959C44.3392 54.5959 44.3392 54.5959 44.3392 54.5959C44.3392 54.596 44.3393 54.5961 44.3393 54.5962C44.3393 54.5965 44.3394 54.5969 44.3395 54.5975C44.3397 54.5986 44.34 54.6004 44.3403 54.6028C44.3411 54.6075 44.3422 54.6145 44.3436 54.6237C44.3465 54.6419 44.3506 54.6685 44.3556 54.7016C44.3657 54.7677 44.3794 54.8592 44.3936 54.9608C44.4227 55.1684 44.4522 55.4032 44.4615 55.5526L45.2599 55.5033C45.2486 55.3193 45.2148 55.0564 45.1859 54.8497C45.1711 54.7442 45.1569 54.6494 45.1465 54.581C45.1413 54.5468 45.137 54.5191 45.134 54.4999C45.1325 54.4903 45.1313 54.4828 45.1305 54.4776C45.1301 54.475 45.1298 54.473 45.1295 54.4717C45.1294 54.471 45.1293 54.4705 45.1293 54.4701C45.1293 54.4699 45.1292 54.4698 45.1292 54.4697C45.1292 54.4696 45.1292 54.4696 45.1292 54.4695C45.1292 54.4695 45.1292 54.4695 45.1292 54.4695C45.1292 54.4695 45.1292 54.4695 44.7342 54.5327ZM44.4614 55.5523C44.4825 55.8974 44.5064 56.2134 44.5255 56.55L45.3243 56.5046C45.3055 56.175 45.2795 55.8247 45.26 55.5036L44.4614 55.5523ZM44.5255 56.5497C44.5356 56.7296 44.5559 56.9072 44.5743 57.071C44.5932 57.2388 44.6103 57.3932 44.6182 57.546L45.4171 57.5046C45.4077 57.324 45.3878 57.1461 45.3693 56.9816C45.3503 56.8132 45.3329 56.6584 45.3243 56.505L44.5255 56.5497ZM44.6182 57.546C44.6366 57.9005 44.6594 58.2024 44.6754 58.544L45.4746 58.5065C45.4593 58.1818 45.4333 57.8169 45.4171 57.5046L44.6182 57.546ZM44.6754 58.544C44.6826 58.6975 44.6812 58.8534 44.6793 59.0222C44.6775 59.1871 44.6752 59.3653 44.6828 59.5447L45.482 59.5112C45.4756 59.3568 45.4774 59.2005 45.4793 59.031C45.4811 58.8652 45.483 58.6867 45.4746 58.5065L44.6754 58.544ZM44.6828 59.5447C44.6887 59.6862 44.6795 59.8321 44.6681 60.0028C44.6572 60.1662 44.644 60.3547 44.6511 60.5459L45.4506 60.5164C45.4453 60.3739 45.4549 60.2276 45.4664 60.0561C45.4773 59.8919 45.4901 59.7031 45.482 59.5112L44.6828 59.5447ZM44.6511 60.5459C44.6576 60.7211 44.6704 60.895 44.6823 61.0599C44.6944 61.2274 44.7057 61.3864 44.7109 61.5442L45.5104 61.5179C45.5047 61.3421 45.4922 61.1679 45.4802 61.0023C45.4681 60.8341 45.4564 60.6749 45.4506 60.5164L44.6511 60.5459ZM44.7109 61.5439C44.7159 61.6998 44.7137 61.8575 44.7111 62.0257C44.7085 62.1908 44.7055 62.3667 44.7103 62.5438L45.51 62.5221C45.5057 62.3652 45.5083 62.2071 45.511 62.0381C45.5135 61.8722 45.5162 61.696 45.5105 61.5183L44.7109 61.5439ZM49.0901 50.1222C49.2383 50.4458 49.3538 50.6712 49.4916 50.9769L50.221 50.6483C50.0997 50.3791 49.932 50.0393 49.8174 49.789L49.0901 50.1222ZM49.4916 50.9771C49.546 51.0975 49.5887 51.2276 49.6386 51.3817C49.6861 51.5287 49.741 51.7003 49.8149 51.8671L50.5463 51.543C50.4923 51.4212 50.4499 51.2905 50.3997 51.1354C50.3518 50.9874 50.2963 50.8155 50.2209 50.6482L49.4916 50.9771ZM49.8151 51.8675C49.9429 52.1552 50.0646 52.4395 50.1931 52.733L50.9259 52.4121C50.8014 52.1278 50.6746 51.8316 50.5461 51.5426L49.8151 51.8675ZM50.193 52.7328C50.2544 52.873 50.3132 53.0153 50.3735 53.1614C50.4332 53.3063 50.4945 53.4556 50.5585 53.6039L51.2931 53.287C51.2322 53.1459 51.1737 53.0033 51.1131 52.8564C51.053 52.7107 50.9911 52.5612 50.926 52.4122L50.193 52.7328ZM50.5584 53.6037C50.6233 53.7542 50.6918 53.9024 50.7574 54.0446C50.8237 54.1884 50.8872 54.3266 50.9462 54.4655L51.6825 54.1526C51.618 54.001 51.5497 53.8524 51.4838 53.7096C51.4172 53.565 51.3532 53.4267 51.2932 53.2873L50.5584 53.6037ZM50.9461 54.4652C51.0052 54.6046 51.061 54.7466 51.1186 54.8939C51.1756 55.0397 51.2347 55.1913 51.2975 55.3419L52.0358 55.0337C51.9771 54.8932 51.9216 54.7507 51.8636 54.6025C51.8063 54.4559 51.7467 54.3041 51.6826 54.1529L50.9461 54.4652Z" fill="#414C58"/>
</g>
<defs>
<clipPath id="clip0_9155_11928">
<rect width="88" height="62.1176" fill="white" transform="translate(0 0.941162)"/>
</clipPath>
</defs>
</svg>
