<svg width="176" height="32" viewBox="0 0 176 32" fill="none" xmlns="http://www.w3.org/2000/svg">
<g clip-path="url(#clip0)">
<path fill-rule="evenodd" clip-rule="evenodd" d="M63.8601 11.587C63.8601 11.2964 64.0572 11.1411 64.3048 11.1411C64.7237 11.1411 65.3561 11.587 65.7128 12.4786C65.5849 12.4786 65.3925 12.5174 65.2634 12.5174C64.5007 12.5174 63.8601 12.154 63.8601 11.587V11.587ZM17.7174 11.587C17.7174 11.2964 17.9063 11.1411 18.1644 11.1411C18.5728 11.1411 19.1794 11.587 19.5314 12.4786C18.3534 12.4786 17.7174 12.2234 17.7174 11.587ZM26.6172 6.97923C26.6172 2.20917 27.5441 1.47631 27.8316 1.47631C28.3432 1.47631 28.4042 1.79627 28.4042 3.62548C28.4042 5.50528 27.6051 7.96501 26.6172 9.31545V6.97923ZM59.0142 11.6822C58.4651 12.4492 58.0204 13.5385 58.0204 14.9419C58.0204 17.6298 59.5492 20.1954 62.5201 20.1954C65.3925 20.1954 67.4047 17.9204 67.4047 14.7478C67.4047 13.8267 67.3695 13.6997 67.3097 13.3174C67.9773 13.0256 68.5534 12.5798 69.0017 12.2234C69.383 11.9352 69.6681 11.774 69.8957 11.774C70.182 11.774 70.3076 11.9987 70.3076 12.4139V18.6909C70.3076 19.7131 70.6302 20.1954 71.4246 20.1954C72.1568 20.1954 72.6719 19.6802 72.957 19.0732C74.013 16.8652 75.5418 13.922 76.2095 12.8045C76.3702 12.548 76.5005 12.3516 76.592 12.3516C76.7199 12.3516 76.7856 12.4492 76.7856 12.8633V17.8604C76.7856 19.2661 77.4262 20.1954 78.8248 20.1954C80.2962 20.1954 81.026 18.7826 82.312 16.6076C82.373 16.477 82.4 16.3841 82.4 16.2911C82.4 16.0029 82.1513 15.8394 81.8943 15.8394C81.6045 15.8394 81.4449 16.13 80.4898 17.1828C80.2962 17.3828 80.1085 17.6604 79.7541 17.6604C79.6274 17.6604 79.53 17.5063 79.53 17.311V11.7093C79.53 10.2048 78.8589 9.59777 77.9976 9.59777C77.2971 9.59777 76.7199 9.88597 76.1144 10.7823C75.0291 12.3857 73.9121 14.6596 73.3078 15.8053C73.2398 15.9394 73.1482 16.13 73.086 16.13C73.0192 16.13 72.991 16.0312 72.991 15.8053V11.7093C72.991 10.5283 72.6719 9.59777 71.4246 9.59777C70.1152 9.59777 69.4464 10.4953 68.4889 11.1658C67.8823 11.6187 67.3414 11.9352 66.9284 12.1269C66.2865 10.4953 65.1073 9.66835 64.1182 9.69305C63.1256 9.72716 62.4239 10.3389 62.4239 11.3635C62.4239 12.4139 63.0657 13.1456 63.9235 13.4715C64.3998 13.6632 64.848 13.6997 65.4899 13.6997C65.6823 13.6997 65.8724 13.6997 65.9956 13.6632C66.0636 13.982 66.0331 14.4361 66.0331 14.7866C66.0331 16.357 65.1073 17.9204 63.3861 17.9204C61.5944 17.9204 60.5454 16.1923 60.5454 14.2102C60.5454 12.7045 60.9901 11.4587 61.7187 10.5977C62.0133 10.2753 62.2327 10.0801 62.2327 9.78481C62.2327 9.63542 62.0133 9.59778 61.8196 9.59778C60.6041 9.59778 59.2676 10.1436 58.3442 10.6212C57.1251 11.2623 55.6925 12.3222 54.5098 13.3774C53.936 12.094 53.2343 10.9741 52.8812 10.1071C52.7544 9.7554 52.6618 9.34721 52.406 9.34721C52.1795 9.34721 52.0809 9.57072 51.9249 10.0118C51.3523 11.7093 48.2864 16.6735 47.6164 17.3452C47.553 17.4369 47.4603 17.5381 47.4298 17.5381C47.3606 17.5381 47.3242 17.5063 47.3242 17.311V11.7093C47.3242 10.2048 46.7188 9.59778 45.8951 9.59778C45.1899 9.59778 44.5857 9.88598 44.0119 10.7824C42.9606 12.3857 41.6781 14.7219 41.0739 15.8712C40.9765 16.0688 40.8803 16.13 40.8474 16.13C40.8157 16.13 40.7899 16.0029 40.7899 15.8053V11.7093C40.7899 10.2048 40.181 9.59778 39.3502 9.59778C38.6462 9.59778 37.9798 9.8601 37.4342 10.7824C36.0966 13.0574 33.8637 16.5452 33.4483 17.1169C33.3838 17.2158 33.3193 17.2805 33.2559 17.311C33.1926 17.311 33.1562 17.2487 33.1562 17.0899V11.7093C33.1562 10.2048 32.5507 9.59778 31.7259 9.59778C30.5748 9.59778 29.9401 10.6588 29.5212 11.327C28.9439 12.2551 28.1812 13.5056 27.577 14.6596C27.1604 15.4313 26.8073 16.13 26.6782 16.13C26.6172 16.13 26.6172 15.8394 26.6172 15.2971V11.0106C28.6248 8.7661 29.8708 6.01699 29.8708 3.00909C29.8708 1.27751 29.1082 0.322325 27.9301 0.322325C25.7231 0.322325 24.0358 3.77959 24.0358 7.87208V11.2C23.0127 11.8411 22.0541 12.154 20.8713 12.3857C20.2671 10.5977 18.9881 9.66835 17.9708 9.69306C16.9841 9.72717 16.2789 10.3389 16.2789 11.3635C16.2789 13.0574 17.9392 13.7608 19.4035 13.7608H19.8189C19.881 14.0832 19.881 14.4361 19.881 14.7866C19.881 16.357 18.9565 17.9204 17.2375 17.9204C15.4517 17.9204 14.3957 16.1923 14.3957 14.2102C14.3957 12.7045 14.838 11.4587 15.5725 10.5977C15.8624 10.2753 16.0876 9.98714 16.0876 9.78481C16.0876 9.63542 15.8624 9.59778 15.6688 9.59778C14.4567 9.59778 11.7791 11.2364 8.58532 14.4361C8.30254 11.8752 7.98105 9.37662 7.98105 6.94394C7.98105 4.22542 8.51726 1.91626 8.64515 1.25045C8.70969 0.837555 8.74958 0.577583 8.74958 0.389369C8.74958 0.13175 8.61347 0 8.26969 0C5.6813 0 0 4.13013 0 10.3059C0 14.6854 1.59926 16.7993 4.37068 19.519C2.68812 22.2399 1.33878 25.4701 1.33878 28.351C1.33878 30.4272 1.82219 32 3.34988 32C6.54253 32 8.93379 25.3478 8.93379 20.4166C8.93379 18.9461 8.87513 17.4722 8.74958 16.0029C9.92644 14.7478 11.7463 13.0574 12.1898 12.8974C11.9997 13.5703 11.8718 14.2761 11.8718 14.9419C11.8718 17.6298 13.4066 20.1954 16.3716 20.1954C19.1524 20.1954 21.255 17.9204 21.255 14.7478C21.255 14.3384 21.2222 13.982 21.194 13.5997C22.2101 13.4079 23.1453 13.1456 24.0358 12.6104V19.0414C24.0358 19.8696 24.6061 20.1954 25.1493 20.1954C25.8873 20.1954 26.2699 19.6802 26.8072 18.5027C27.259 17.5381 28.4675 15.3324 29.2009 14.0161C29.7793 12.9892 30.0985 12.3222 30.3554 12.3222C30.4153 12.3222 30.4833 12.4786 30.4833 12.8633V18.3368C30.4833 19.8096 31.2495 20.1954 31.9124 20.1954C32.5507 20.1954 32.9684 19.8437 33.3838 19.2661C35.0452 16.8958 36.8029 14.0832 37.4999 12.8633C37.6289 12.6445 37.7873 12.4786 37.9164 12.4786C38.0408 12.4786 38.1053 12.548 38.1053 12.9586V18.6909C38.1053 19.7131 38.4245 20.1954 39.2258 20.1954C39.9557 20.1954 40.4332 19.6802 40.7183 19.0732C41.779 16.8652 43.3384 13.9514 44.0119 12.8045C44.1679 12.548 44.3287 12.3222 44.4237 12.3222C44.5563 12.3222 44.5857 12.4786 44.5857 12.8974V18.3368C44.5857 19.8096 45.3518 20.1954 46.0265 20.1954C46.9124 20.1954 47.4932 19.552 48.067 18.8191C49.1136 17.4369 50.6471 14.9831 51.5741 13.4079C51.8956 13.922 52.2429 14.5313 52.535 15.2019C51.7677 16.13 51.0003 17.1828 51.0003 18.3015C51.0003 19.4873 51.8298 20.1954 52.6923 20.1954C54.1578 20.1954 55.4965 18.7826 55.4965 16.8346C55.4965 16.0688 55.2771 15.2666 54.992 14.5008C56.2932 13.2174 57.8596 11.9693 59.0142 11.6822H59.0142ZM6.44397 18.6579C6.70211 20.3519 6.92621 22.0199 6.92621 23.3292C6.92621 26.3959 5.90776 29.9814 4.15127 29.952C3.47308 29.952 2.90284 29.2721 2.87468 28.0946C2.81014 24.2585 4.62882 20.993 6.44397 18.6579ZM53.0407 16.477C53.2343 17.0275 53.3317 17.4722 53.3317 17.9204C53.3317 18.4333 53.1393 18.9461 52.7861 18.9461C52.535 18.9461 52.2792 18.6579 52.2792 18.2086C52.2792 17.7275 52.6923 16.9593 53.0407 16.477ZM7.59619 1.21634C7.59619 1.41161 7.14915 2.30445 6.57656 3.90663C5.96994 5.56762 5.39149 7.93325 5.39149 10.7823C5.39149 12.4786 5.81037 14.7219 6.16354 16.9922L5.14157 18.3733C3.5118 16.3841 2.49217 14.1479 2.49217 10.3059C2.49217 4.8677 5.77869 1.09517 7.46712 1.09517C7.56803 1.09517 7.59619 1.12341 7.59619 1.21634L7.59619 1.21634Z" fill="#414C58"/>
<path fill-rule="evenodd" clip-rule="evenodd" d="M157.463 11.587C157.463 11.2964 157.649 11.1411 157.908 11.1411C158.319 11.1411 158.959 11.587 159.309 12.4786C159.184 12.4786 158.993 12.5174 158.859 12.5174C158.1 12.5174 157.463 12.154 157.463 11.587V11.587ZM111.311 11.587C111.311 11.2964 111.506 11.1411 111.758 11.1411C112.173 11.1411 112.786 11.587 113.13 12.4786C111.949 12.4786 111.311 12.2234 111.311 11.587ZM120.217 6.97923C120.217 2.20917 121.138 1.47631 121.429 1.47631C121.938 1.47631 122.002 1.79627 122.002 3.62548C122.002 5.50528 121.202 7.96501 120.217 9.31545V6.97923ZM100.049 18.6579C100.297 20.3519 100.529 22.0199 100.529 23.3292C100.529 26.3959 99.5094 29.9814 97.7494 29.952C97.0806 29.952 96.5057 29.2721 96.474 28.0946C96.4083 24.2585 98.2305 20.993 100.049 18.6579ZM146.645 16.477C146.838 17.0275 146.93 17.4722 146.93 17.9204C146.93 18.4333 146.739 18.9461 146.388 18.9461C146.136 18.9461 145.873 18.6579 145.873 18.2086C145.873 17.7275 146.292 16.9593 146.645 16.477ZM101.192 1.21634C101.192 1.41161 100.75 2.30445 100.171 3.90663C99.5693 5.56762 98.9908 7.93325 98.9908 10.7823C98.9908 12.4786 99.4167 14.7219 99.7652 16.9922L98.7409 18.3733C97.1158 16.3841 96.0892 14.1479 96.0892 10.3059C96.0892 4.8677 99.3827 1.09517 101.071 1.09517C101.164 1.09517 101.192 1.12341 101.192 1.21634L101.192 1.21634ZM95.8709 17.2158C96.4412 17.9839 97.1452 18.7191 97.9747 19.519C96.2816 22.2399 94.9428 25.4701 94.9428 28.351C94.9428 30.4272 95.425 32 96.9574 32C100.145 32 102.537 25.3478 102.537 20.4166C102.537 18.9461 102.474 17.4722 102.347 16.0029C103.529 14.7478 105.342 13.0574 105.795 12.8974C105.603 13.5703 105.47 14.2761 105.47 14.9419C105.47 17.6298 107.004 20.1954 109.974 20.1954C112.748 20.1954 114.854 17.9204 114.854 14.7478C114.854 14.3384 114.825 13.982 114.79 13.5997C115.813 13.4079 116.745 13.1456 117.633 12.6104V19.0414C117.633 19.8696 118.204 20.1954 118.743 20.1954C119.487 20.1954 119.869 19.6802 120.409 18.5027C120.854 17.5381 122.069 15.3324 122.805 14.0161C123.377 12.9892 123.697 12.3222 123.958 12.3222C124.018 12.3222 124.078 12.4786 124.078 12.8633V18.3368C124.078 19.8096 124.842 20.1954 125.513 20.1954C126.154 20.1954 126.564 19.8437 126.988 19.2661C128.642 16.8958 130.4 14.0832 131.1 12.8633C131.228 12.6445 131.39 12.4786 131.513 12.4786C131.638 12.4786 131.708 12.548 131.708 12.9586V18.6909C131.708 19.7131 132.024 20.1954 132.82 20.1954C133.555 20.1954 134.034 19.6802 134.324 19.0732C135.377 16.8652 136.94 13.9514 137.608 12.8045C137.771 12.548 137.929 12.3222 138.029 12.3222C138.153 12.3222 138.189 12.4786 138.189 12.8974V18.3368C138.189 19.8096 138.948 20.1954 139.616 20.1954C140.516 20.1954 141.091 19.552 141.662 18.8191C142.714 17.4369 144.25 14.9831 145.175 13.4079C145.49 13.922 145.846 14.5313 146.136 15.2019C145.361 16.13 144.603 17.1828 144.603 18.3015C144.603 19.4873 145.423 20.1954 146.292 20.1954C147.757 20.1954 149.096 18.7826 149.096 16.8346C149.096 16.0688 148.874 15.2666 148.587 14.5008C149.894 13.2174 151.459 11.9693 152.608 11.6822C152.066 12.4492 151.619 13.5385 151.619 14.9419C151.619 17.6298 153.152 20.1954 156.121 20.1954C158.993 20.1954 160.998 17.9204 160.998 14.7478C160.998 13.8267 160.969 13.6997 160.909 13.3174C161.572 13.0256 162.15 12.5798 162.602 12.2234C162.976 11.9352 163.27 11.774 163.489 11.774C163.778 11.774 163.913 11.9987 163.913 12.4139V18.6909C163.913 19.7131 164.227 20.1954 165.025 20.1954C165.756 20.1954 166.27 19.6802 166.559 19.0732C167.605 16.8652 169.14 13.922 169.808 12.8045C169.967 12.548 170.097 12.3516 170.194 12.3516C170.324 12.3516 170.386 12.4492 170.386 12.8633V17.8604C170.386 19.2661 171.019 20.1954 172.427 20.1954C173.899 20.1954 174.631 18.7826 175.91 16.6076C175.97 16.477 176.001 16.3841 176.001 16.2911C176.001 16.0029 175.745 15.8394 175.491 15.8394C175.206 15.8394 175.043 16.13 174.088 17.1828C173.899 17.3828 173.704 17.6604 173.355 17.6604C173.223 17.6604 173.133 17.5063 173.133 17.311V11.7093C173.133 10.2048 172.455 9.59777 171.593 9.59777C170.895 9.59777 170.324 9.88597 169.715 10.7823C168.627 12.3857 167.514 14.6596 166.912 15.8053C166.843 15.9394 166.75 16.13 166.682 16.13C166.614 16.13 166.589 16.0312 166.589 15.8053V11.7093C166.589 10.5283 166.27 9.59777 165.025 9.59777C163.713 9.59777 163.047 10.4953 162.091 11.1658C161.478 11.6187 160.94 11.9352 160.521 12.1269C159.888 10.4953 158.703 9.66835 157.719 9.69305C156.724 9.72716 156.028 10.3389 156.028 11.3635C156.028 12.4139 156.666 13.1456 157.52 13.4715C158 13.6632 158.447 13.6997 159.094 13.6997C159.28 13.6997 159.466 13.6997 159.602 13.6632C159.664 13.982 159.631 14.4361 159.631 14.7866C159.631 16.357 158.703 17.9204 156.978 17.9204C155.193 17.9204 154.144 16.1923 154.144 14.2102C154.144 12.7045 154.587 11.4587 155.318 10.5977C155.609 10.2753 155.834 10.0801 155.834 9.78481C155.834 9.63542 155.609 9.59778 155.418 9.59778C154.211 9.59778 152.866 10.1436 151.94 10.6212C150.726 11.2623 149.29 12.3222 148.113 13.3774C147.536 12.094 146.838 10.9741 146.483 10.1071C146.351 9.7554 146.265 9.34721 145.999 9.34721C145.779 9.34721 145.681 9.57071 145.524 10.0118C144.948 11.7093 141.887 16.6735 141.217 17.3451C141.152 17.4369 141.057 17.5381 141.023 17.5381C140.963 17.5381 140.928 17.5063 140.928 17.311V11.7093C140.928 10.2048 140.326 9.59777 139.489 9.59777C138.786 9.59777 138.189 9.88597 137.608 10.7823C136.553 12.3857 135.28 14.7219 134.673 15.8712C134.579 16.0688 134.485 16.13 134.455 16.13C134.419 16.13 134.386 16.0029 134.386 15.8053V11.7093C134.386 10.2048 133.784 9.59777 132.953 9.59777C132.249 9.59777 131.574 9.86009 131.037 10.7823C129.692 13.0574 127.462 16.5452 127.044 17.1169C126.988 17.2158 126.92 17.2805 126.852 17.311C126.795 17.311 126.758 17.2487 126.758 17.0899V11.7093C126.758 10.2048 126.154 9.59777 125.321 9.59777C124.168 9.59777 123.535 10.6588 123.117 11.327C122.543 12.2551 121.782 13.5056 121.173 14.6596C120.761 15.4312 120.409 16.13 120.281 16.13C120.216 16.13 120.216 15.8394 120.216 15.2971V11.0106C122.23 8.76609 123.47 6.01699 123.47 3.00908C123.47 1.27751 122.706 0.322317 121.521 0.322317C119.322 0.322317 117.633 3.77958 117.633 7.87208V11.1999C116.608 11.8411 115.651 12.154 114.468 12.3857C113.866 10.5977 112.589 9.66835 111.574 9.69305C110.578 9.72716 109.878 10.3389 109.878 11.3635C109.878 13.0574 111.533 13.7608 113.004 13.7608H113.422C113.48 14.0832 113.48 14.4361 113.48 14.7866C113.48 16.357 112.558 17.9204 110.833 17.9204C109.045 17.9204 107.997 16.1923 107.997 14.2102C107.997 12.7045 108.443 11.4587 109.172 10.5977C109.458 10.2753 109.683 9.98714 109.683 9.78481C109.683 9.63541 109.458 9.59777 109.269 9.59777C108.055 9.59777 105.376 11.2364 102.181 14.4361C101.901 11.8752 101.578 9.37662 101.578 6.94394C101.578 4.22542 102.12 1.91626 102.248 1.25045C102.311 0.837555 102.347 0.577583 102.347 0.389369C102.347 0.13175 102.216 0 101.871 0C99.2853 0 93.604 4.13013 93.604 10.3059C93.604 12.8304 94.1461 14.6266 95.1035 16.1923C94.7468 16.13 94.4664 16.13 94.2048 16.13C93.1875 16.13 92.2265 16.3841 91.6305 16.5147V15.8712C91.6305 14.5008 91.3066 12.6104 90.7305 11.9693C90.6625 11.9034 90.5674 11.8752 90.4782 11.8752C90.2154 11.8752 89.901 11.9987 89.5513 12.1928C89.1641 12.3857 88.7816 12.5798 88.7816 12.7045C88.7816 12.7657 88.7816 12.8304 88.8778 12.9892C89.1031 13.3174 89.7109 13.9514 89.9303 15.4595C88.8426 14.3702 87.6036 13.8867 85.982 13.8867C84.0636 13.8867 83.4863 14.7478 83.4863 15.6171C83.4863 17.2804 85.6887 18.1121 88.4695 18.1121C88.9787 18.1121 89.5513 18.0157 90.1227 17.8851C90.1227 18.398 90.1873 18.852 90.1873 19.2332C90.1873 19.7778 90.28 20.1954 90.6355 20.1954C91.1764 20.1954 91.4979 19.1026 91.5589 17.5381C92.548 17.2805 93.5712 17.0593 94.4359 17.0593C94.8489 17.0593 95.3652 17.1169 95.8709 17.2158ZM89.5842 16.8958C89.0468 16.9593 88.7194 16.9593 88.1504 16.9593C86.9019 16.9593 85.982 16.477 85.982 15.7794C85.982 15.3324 86.2026 15.0725 86.8409 15.0725C87.8641 15.0725 88.6889 15.7794 89.5842 16.8958V16.8958Z" fill="#414C58"/>
</g>
<defs>
<clipPath id="clip0">
<rect width="176" height="32" fill="white"/>
</clipPath>
</defs>
</svg>
