<svg width="80" height="80" viewBox="0 0 80 80" fill="none" xmlns="http://www.w3.org/2000/svg">
<path d="M24.6835 48.9289L6.58003 17.8807L6.31641 18.3353L24.2881 49.1516L24.6835 48.9289Z" fill="#3E2723" fill-opacity="0.15"/>
<mask id="mask0" mask-type="alpha" maskUnits="userSpaceOnUse" x="0" y="0" width="80" height="80">
<path d="M39.9976 79.9952C62.0877 79.9952 79.9952 62.0877 79.9952 39.9976C79.9952 17.9075 62.0877 0 39.9976 0C17.9075 0 0 17.9075 0 39.9976C0 62.0877 17.9075 79.9952 39.9976 79.9952Z" fill="#F1F1F1"/>
</mask>
<g mask="url(#mask0)">
<path d="M6.34961 0.00012207V49.0881H24.2531L39.9976 21.817H79.9952V0.00012207H6.34961Z" fill="#DB4437"/>
</g>
<mask id="mask1" mask-type="alpha" maskUnits="userSpaceOnUse" x="0" y="0" width="80" height="80">
<circle cx="39.9976" cy="39.9976" r="39.9976" fill="#C4C4C4"/>
</mask>
<g mask="url(#mask1)">
<path d="M0 79.9955H38.075L55.7467 62.3238V49.0882H24.2531L0 7.49072V79.9955Z" fill="#0F9D58"/>
</g>
<mask id="mask2" mask-type="alpha" maskUnits="userSpaceOnUse" x="0" y="0" width="80" height="80">
<circle cx="39.9976" cy="39.9976" r="39.9976" fill="#C4C4C4"/>
</mask>
<g mask="url(#mask2)">
<path d="M39.9968 21.8169L55.7459 49.088L38.0742 79.9952H79.9944V21.8169H39.9968Z" fill="#FFCD40"/>
</g>
<path d="M55.3789 49.6925L55.0017 49.4744L37.5527 79.9953H38.0754L55.3926 49.7062L55.3789 49.6925Z" fill="#263238" fill-opacity="0.15"/>
<path d="M39.9971 58.1784C50.0381 58.1784 58.1779 50.0386 58.1779 39.9976C58.1779 29.9567 50.0381 21.8169 39.9971 21.8169C29.9562 21.8169 21.8164 29.9567 21.8164 39.9976C21.8164 50.0386 29.9562 58.1784 39.9971 58.1784Z" fill="#F1F1F1"/>
<path d="M39.9977 54.5424C48.0305 54.5424 54.5423 48.0306 54.5423 39.9978C54.5423 31.9651 48.0305 25.4532 39.9977 25.4532C31.965 25.4532 25.4531 31.9651 25.4531 39.9978C25.4531 48.0306 31.965 54.5424 39.9977 54.5424Z" fill="#4285F4"/>
<path d="M39.9971 21.3628C29.9568 21.3628 21.8164 29.5032 21.8164 39.5435V39.998C21.8164 29.9577 29.9568 21.8173 39.9971 21.8173H75.62L75.4069 21.3628H39.9971Z" fill="#3E2723" fill-opacity="0.2"/>
<path d="M55.7239 49.0882C52.5787 54.5152 46.7199 58.1786 39.9976 58.1786C33.2707 58.1786 27.412 54.5152 24.2667 49.0882H24.2486L0 7.49072V7.94524L24.2531 49.5427H24.2713C27.4165 54.9697 33.2753 58.6331 40.0022 58.6331C46.7245 58.6331 52.5832 54.9742 55.7285 49.5427H55.7512V49.0882H55.7239Z" fill="white" fill-opacity="0.1"/>
<path opacity="0.1" d="M40.4538 21.8173C40.3766 21.8173 40.3038 21.8264 40.2266 21.8309C50.1623 21.9536 58.18 30.035 58.18 39.998C58.18 49.961 50.1623 58.0424 40.2266 58.1651C40.3038 58.1651 40.3766 58.1787 40.4538 58.1787C50.4941 58.1787 58.6346 50.0383 58.6346 39.998C58.6346 29.9577 50.4941 21.8173 40.4538 21.8173Z" fill="#3E2723"/>
<path d="M55.905 49.6928C57.4503 47.0202 58.3457 43.9295 58.3457 40.6206C58.3457 38.7025 58.0458 36.8572 57.4958 35.1255C57.9276 36.6799 58.1776 38.3117 58.1776 40.0025C58.1776 43.3114 57.2822 46.4021 55.7368 49.0747L55.7459 49.0928L38.0742 80.0001H38.6015L55.9141 49.711L55.905 49.6928Z" fill="white" fill-opacity="0.2"/>
<path d="M39.9976 0.454518C62.0099 0.454518 79.868 18.2398 79.9907 40.2249C79.9907 40.1476 79.9952 40.0749 79.9952 39.9976C79.9952 17.908 62.0872 0 39.9976 0C17.908 0 0 17.908 0 39.9976C0 40.0749 0.00454518 40.1476 0.00454518 40.2249C0.127265 18.2398 17.9853 0.454518 39.9976 0.454518Z" fill="white" fill-opacity="0.2"/>
<path d="M39.9976 79.5411C62.0099 79.5411 79.868 61.7558 79.9907 39.7708C79.9907 39.848 79.9952 39.9207 79.9952 39.998C79.9952 62.0876 62.0872 79.9956 39.9976 79.9956C17.908 79.9956 0 62.0876 0 39.998C0 39.9207 0.00454518 39.848 0.00454518 39.7708C0.127265 61.7558 17.9853 79.5411 39.9976 79.5411Z" fill="#3E2723" fill-opacity="0.15"/>
</svg>
