<svg width="81" height="80" viewBox="0 0 81 80" fill="none" xmlns="http://www.w3.org/2000/svg">
<path d="M73.1995 59.5373C72.133 60.0951 71.033 60.5866 69.906 61.009C66.3186 62.3513 62.5183 63.0351 58.688 63.0276C43.9015 63.0276 31.0211 52.8568 31.0211 39.8052C31.04 38.0546 31.5258 36.3408 32.4283 34.8407C33.3308 33.3406 34.6174 32.1086 36.1551 31.2717C22.781 31.8342 19.3438 45.7701 19.3438 53.9348C19.3438 77.0198 40.6204 79.3601 45.2045 79.3601C47.6762 79.3601 51.4041 78.6415 53.6414 77.9353L54.0508 77.7978C62.6604 74.8215 70.0001 69.0029 74.8619 61.2996C75.0108 61.065 75.0773 60.7875 75.0508 60.5109C75.0244 60.2343 74.9065 59.9744 74.7158 59.7723C74.5252 59.5701 74.2726 59.4373 73.998 59.3947C73.7234 59.3522 73.4424 59.4024 73.1995 59.5373V59.5373Z" fill="url(#paint0_linear)"/>
<path opacity="0.35" d="M73.1995 59.5373C72.133 60.0951 71.033 60.5866 69.906 61.009C66.3186 62.3513 62.5183 63.0351 58.688 63.0276C43.9015 63.0276 31.0211 52.8568 31.0211 39.8052C31.04 38.0546 31.5258 36.3408 32.4283 34.8407C33.3308 33.3406 34.6174 32.1086 36.1551 31.2717C22.781 31.8342 19.3438 45.7701 19.3438 53.9348C19.3438 77.0198 40.6204 79.3601 45.2045 79.3601C47.6762 79.3601 51.4041 78.6415 53.6414 77.9353L54.0508 77.7978C62.6604 74.8215 70.0001 69.0029 74.8619 61.2996C75.0108 61.065 75.0773 60.7875 75.0508 60.5109C75.0244 60.2343 74.9065 59.9744 74.7158 59.7723C74.5252 59.5701 74.2726 59.4373 73.998 59.3947C73.7234 59.3522 73.4424 59.4024 73.1995 59.5373V59.5373Z" fill="url(#paint1_radial)"/>
<path d="M34.035 75.4351C31.2478 73.7053 28.8324 71.4387 26.9292 68.7671C24.7599 65.7952 23.2672 62.3847 22.5556 58.7748C21.8441 55.1649 21.9309 51.4431 22.8102 47.8703C23.6894 44.2976 25.3397 40.9604 27.6453 38.093C29.9509 35.2255 32.8559 32.8972 36.1567 31.2713C37.1316 30.812 38.7971 29.9808 41.0126 30.0215C42.5735 30.0328 44.1105 30.4055 45.5033 31.1102C46.896 31.815 48.1066 32.8326 49.0402 34.0835C50.3021 35.7683 50.9978 37.8094 51.0276 39.9141C51.0276 39.8485 58.6708 15.0419 26.0293 15.0419C12.3114 15.0419 1.03093 28.0592 1.03093 39.4798C0.976819 45.5211 2.26951 51.4986 4.81505 56.9778C8.97517 65.8536 16.2501 72.8927 25.2583 76.7584C34.2666 80.6241 44.3809 81.0472 53.6805 77.9474C50.4243 78.974 46.9842 79.2821 43.5974 78.8506C40.2106 78.419 36.9577 77.258 34.0631 75.4476L34.035 75.4351Z" fill="url(#paint2_linear)"/>
<path opacity="0.41" d="M34.035 75.4351C31.2478 73.7053 28.8324 71.4387 26.9292 68.7671C24.7599 65.7952 23.2672 62.3847 22.5556 58.7748C21.8441 55.1649 21.9309 51.4431 22.8102 47.8703C23.6894 44.2976 25.3397 40.9604 27.6453 38.093C29.9509 35.2255 32.8559 32.8972 36.1567 31.2713C37.1316 30.812 38.7971 29.9808 41.0126 30.0215C42.5735 30.0328 44.1105 30.4055 45.5033 31.1102C46.896 31.815 48.1066 32.8326 49.0402 34.0835C50.3021 35.7683 50.9978 37.8094 51.0276 39.9141C51.0276 39.8485 58.6708 15.0419 26.0293 15.0419C12.3114 15.0419 1.03093 28.0592 1.03093 39.4798C0.976819 45.5211 2.26951 51.4986 4.81505 56.9778C8.97517 65.8536 16.2501 72.8927 25.2583 76.7584C34.2666 80.6241 44.3809 81.0472 53.6805 77.9474C50.4243 78.974 46.9842 79.2821 43.5974 78.8506C40.2106 78.419 36.9577 77.258 34.0631 75.4476L34.035 75.4351Z" fill="url(#paint3_radial)"/>
<path d="M48.596 46.5136C48.3429 46.8417 47.5649 47.2947 47.5649 48.2821C47.5649 49.0977 48.0961 49.8819 49.0398 50.5412C53.5332 53.6659 62.0045 53.2534 62.0264 53.2534C65.3559 53.2454 68.6224 52.3444 71.4851 50.6444C74.3731 48.9582 76.7699 46.5462 78.4379 43.6478C80.1059 40.7494 80.987 37.4652 80.9939 34.1212C81.0751 27.1189 78.494 22.4631 77.4503 20.4009C70.8289 7.44917 56.5361 1.95804e-07 40.9934 1.95804e-07C30.4822 -0.00103913 20.393 4.13547 12.9081 11.5149C5.42306 18.8943 1.14391 28.9234 0.996094 39.4331C1.14608 28.0156 12.4953 18.7948 25.9944 18.7948C27.0881 18.7948 33.3252 18.901 39.1185 21.9413C44.2244 24.6223 46.8993 27.8594 48.7585 31.0684C50.6896 34.4024 51.0334 38.6144 51.0334 40.2924C51.0334 41.9703 50.1772 44.4575 48.596 46.5136V46.5136Z" fill="url(#paint4_radial)"/>
<path d="M48.596 46.5136C48.3429 46.8417 47.5649 47.2947 47.5649 48.2821C47.5649 49.0977 48.0961 49.8819 49.0398 50.5412C53.5332 53.6659 62.0045 53.2534 62.0264 53.2534C65.3559 53.2454 68.6224 52.3444 71.4851 50.6444C74.3731 48.9582 76.7699 46.5462 78.4379 43.6478C80.1059 40.7494 80.987 37.4652 80.9939 34.1212C81.0751 27.1189 78.494 22.4631 77.4503 20.4009C70.8289 7.44917 56.5361 1.95804e-07 40.9934 1.95804e-07C30.4822 -0.00103913 20.393 4.13547 12.9081 11.5149C5.42306 18.8943 1.14391 28.9234 0.996094 39.4331C1.14608 28.0156 12.4953 18.7948 25.9944 18.7948C27.0881 18.7948 33.3252 18.901 39.1185 21.9413C44.2244 24.6223 46.8993 27.8594 48.7585 31.0684C50.6896 34.4024 51.0334 38.6144 51.0334 40.2924C51.0334 41.9703 50.1772 44.4575 48.596 46.5136V46.5136Z" fill="url(#paint5_radial)"/>
<defs>
<linearGradient id="paint0_linear" x1="19.3438" y1="55.3222" x2="75.0713" y2="55.3222" gradientUnits="userSpaceOnUse">
<stop stop-color="#0C59A4"/>
<stop offset="1" stop-color="#114A8B"/>
</linearGradient>
<radialGradient id="paint1_radial" cx="0" cy="0" r="1" gradientUnits="userSpaceOnUse" gradientTransform="translate(50.1229 55.7613) scale(29.8043 28.3128)">
<stop offset="0.72" stop-opacity="0"/>
<stop offset="0.95" stop-opacity="0.53"/>
<stop offset="1"/>
</radialGradient>
<linearGradient id="paint2_linear" x1="48.7246" y1="31.1495" x2="13.9192" y2="69.0624" gradientUnits="userSpaceOnUse">
<stop stop-color="#1B9DE2"/>
<stop offset="0.16" stop-color="#1595DF"/>
<stop offset="0.67" stop-color="#0680D7"/>
<stop offset="1" stop-color="#0078D4"/>
</linearGradient>
<radialGradient id="paint3_radial" cx="0" cy="0" r="1" gradientUnits="userSpaceOnUse" gradientTransform="translate(23.0559 62.183) rotate(-81.384) scale(44.8157 36.2081)">
<stop offset="0.76" stop-opacity="0"/>
<stop offset="0.95" stop-opacity="0.5"/>
<stop offset="1"/>
</radialGradient>
<radialGradient id="paint4_radial" cx="0" cy="0" r="1" gradientUnits="userSpaceOnUse" gradientTransform="translate(9.07758 14.8036) rotate(92.2907) scale(63.3029 134.828)">
<stop stop-color="#35C1F1"/>
<stop offset="0.11" stop-color="#34C1ED"/>
<stop offset="0.23" stop-color="#2FC2DF"/>
<stop offset="0.31" stop-color="#2BC3D2"/>
<stop offset="0.67" stop-color="#36C752"/>
</radialGradient>
<radialGradient id="paint5_radial" cx="0" cy="0" r="1" gradientUnits="userSpaceOnUse" gradientTransform="translate(76.0136 24.1867) rotate(73.7391) scale(30.4155 24.7348)">
<stop stop-color="#66EB6E"/>
<stop offset="1" stop-color="#66EB6E" stop-opacity="0"/>
</radialGradient>
</defs>
</svg>
