<svg width="88" height="64" viewBox="0 0 88 64" fill="none" xmlns="http://www.w3.org/2000/svg">
<g clip-path="url(#clip0_9155_11949)">
<g clip-path="url(#clip1_9155_11949)">
<path d="M4.56277 24.076H4.59048C4.59048 24.3254 4.50736 24.5747 4.53507 24.8241C4.53507 25.0734 4.59048 25.3228 4.61818 25.5721C4.64589 25.8215 4.72901 26.0709 4.78442 26.3202C4.83984 26.5696 4.89525 26.8189 4.95066 27.0406C5.00607 27.2899 5.1169 27.5116 5.20002 27.761C5.28314 28.0103 5.36626 28.232 5.44938 28.4536C5.53249 28.6753 5.64332 28.9246 5.75415 29.1463C5.86497 29.3679 5.94809 29.6173 6.08662 29.8389C6.22515 30.0606 6.33598 30.2822 6.47451 30.4762C6.61304 30.6701 6.83469 30.8364 7.00093 31.0303C7.16717 31.2242 7.3057 31.4459 7.47194 31.6121C7.63818 31.8061 7.80442 31.9723 7.99836 32.1663C8.1646 32.3325 8.33084 32.5264 8.52478 32.6927C8.71872 32.8589 8.91267 33.0252 9.10661 33.1637C9.30056 33.3022 9.54992 33.3853 9.77157 33.5239C9.99322 33.6624 10.1872 33.8009 10.4088 33.9395C10.6305 34.0503 10.8521 34.1611 11.0738 34.2719C11.2954 34.3828 11.5171 34.4936 11.7664 34.6044C11.9881 34.6875 12.2651 34.7152 12.4868 34.7707C12.7361 34.8538 12.9578 34.9646 13.2072 35.02C13.4565 35.0754 13.7059 35.0754 13.9552 35.1031C14.2046 35.1308 14.4539 35.1308 14.7033 35.1585C14.9527 35.1863 15.202 35.2417 15.4514 35.2417C15.8393 35.2417 15.8393 35.214 16.2271 35.214C16.615 35.214 16.615 35.2971 17.0029 35.2971C17.3908 35.2971 17.3908 35.214 17.7787 35.2417C18.1666 35.2417 18.1666 35.2971 18.5545 35.2971C18.9424 35.2971 18.9424 35.2694 19.3303 35.2694C19.7181 35.2694 19.7181 35.2971 20.106 35.2971C20.4939 35.2971 20.4939 35.3248 20.8818 35.3248C21.2697 35.3248 21.2697 35.3248 21.6576 35.3248C22.0455 35.3248 22.0455 35.2694 22.4334 35.2971C22.8213 35.2971 22.8213 35.3525 23.2091 35.3802C23.597 35.3802 23.597 35.3525 23.9849 35.3525C24.3728 35.3525 24.3728 35.3525 24.7607 35.3802C25.0101 35.3802 25.2594 35.3802 25.5088 35.4356C25.7581 35.491 25.9798 35.5741 26.2291 35.6573C26.4508 35.7404 26.7001 35.8512 26.8941 35.9897C27.1157 36.1283 27.282 36.3222 27.4482 36.4885C27.6422 36.6547 27.8361 36.7932 28.0023 36.9872C28.1686 37.1811 28.3071 37.3751 28.4179 37.5967C28.5288 37.8184 28.6396 38.04 28.7227 38.2894C28.8058 38.511 28.8889 38.7604 28.9167 39.0097C28.9444 39.2591 28.9167 39.5084 28.9167 39.7578C28.9167 39.7855 28.889 39.7855 28.889 39.8132H28.9444C28.9444 40.0626 28.9444 40.3119 28.9444 40.5613C28.9444 40.8106 28.9444 41.06 28.9721 41.3094C28.9998 41.5587 29.0829 41.8081 29.1106 42.0574C29.166 42.3068 29.1383 42.5561 29.2214 42.8055C29.2768 43.0549 29.36 43.3042 29.4431 43.5259C29.5262 43.7752 29.6093 43.9969 29.6924 44.2462C29.7756 44.4679 29.9418 44.6895 30.0526 44.9112C30.1634 45.1328 30.2743 45.3545 30.4128 45.5761C30.5513 45.7978 30.6622 46.0194 30.8007 46.2134C30.9392 46.4073 31.0778 46.629 31.244 46.8229C31.4102 47.0169 31.5765 47.2108 31.7427 47.3771C31.9089 47.571 32.0752 47.7649 32.2691 47.9312C32.4354 48.0974 32.6293 48.2914 32.8232 48.4299C33.0172 48.5961 33.2666 48.707 33.4605 48.8455C33.6544 48.984 33.8761 49.1226 34.0977 49.2611C34.3194 49.3996 34.4856 49.5659 34.7073 49.7044C34.9289 49.8152 35.1506 49.926 35.3722 50.0369C35.5939 50.1477 35.8155 50.2585 36.0649 50.3693C36.2865 50.4525 36.5359 50.5079 36.7853 50.591C37.0346 50.6741 37.284 50.6741 37.5333 50.7295C37.7827 50.7849 38.032 50.8126 38.2814 50.8681C38.5308 50.8958 38.7801 51.0066 39.0295 51.0066C39.2788 51.0343 39.5282 50.9789 39.7775 50.9789C40.1654 50.9789 40.1654 50.9789 40.5533 50.9789C40.9412 50.9789 40.9412 51.062 41.3291 51.062C41.717 51.062 41.717 51.062 42.1049 51.062C42.4928 51.062 42.4928 51.062 42.8807 51.062C43.2685 51.062 43.2685 51.0343 43.6564 51.0343C44.0443 51.0343 44.0443 51.0897 44.4322 51.0897C44.8201 51.0897 44.8201 51.1174 45.208 51.1174C45.5959 51.1174 45.5959 51.0897 45.9838 51.0897C46.3717 51.0897 46.3717 51.0343 46.7595 51.0343C47.1474 51.0343 47.1474 51.062 47.5353 51.062C47.9232 51.062 47.9232 51.062 48.3111 51.0897C48.699 51.0897 48.699 51.1174 49.0869 51.1174C49.4748 51.1174 49.4748 51.1174 49.8627 51.1174C50.2505 51.1174 50.2505 51.0897 50.6384 51.0897C51.0263 51.0897 51.0263 51.1451 51.4142 51.1451C51.8021 51.1451 51.8021 51.1451 52.19 51.1451C52.5779 51.1451 52.5779 51.1451 52.9658 51.1451C53.3537 51.1451 53.3537 51.2005 53.7415 51.2005C54.1294 51.2005 54.1294 51.1728 54.5173 51.1728C54.9052 51.1728 54.9052 51.2005 55.2931 51.2005C55.681 51.2005 55.681 51.1728 56.0689 51.1728C56.4568 51.1728 56.4568 51.2005 56.8447 51.2005C57.2325 51.2005 57.2325 51.2282 57.6204 51.2559C58.0083 51.2559 58.0083 51.2836 58.3962 51.2836C58.7841 51.2836 58.7841 51.2282 59.172 51.2282C59.5599 51.2282 59.5599 51.2836 59.9478 51.3114C60.3357 51.3114 60.3357 51.3114 60.7235 51.3114C61.1114 51.3114 61.1114 51.3391 61.4993 51.3391C61.8872 51.3391 61.8872 51.2836 62.2751 51.3114C62.663 51.3114 62.663 51.2836 63.0509 51.2836C63.4388 51.2836 63.4388 51.3668 63.8267 51.3668C64.2145 51.3668 64.2145 51.3945 64.6024 51.3945C64.9903 51.3945 64.9903 51.3945 65.3782 51.3945C65.7661 51.3945 65.7661 51.4222 66.154 51.4499C66.5419 51.4499 66.5419 51.4499 66.9298 51.4499C67.3177 51.4499 67.3177 51.3945 67.7055 51.3945C68.0934 51.3945 68.0934 51.4222 68.4813 51.4222C68.8692 51.4222 68.8692 51.4499 69.2571 51.4499C69.645 51.4499 69.645 51.4499 70.0329 51.4499C70.4208 51.4499 70.4208 51.4222 70.8087 51.4222C71.1965 51.4222 71.1965 51.4776 71.5844 51.5053C71.8338 51.5053 72.0831 51.4776 72.3325 51.4776C72.5819 51.4776 72.8312 51.4222 73.0806 51.3945C73.3299 51.3668 73.5793 51.3668 73.8287 51.3114C74.078 51.2559 74.3274 51.1728 74.549 51.1174C74.7984 51.062 75.0477 51.0066 75.2694 50.9235C75.5187 50.8403 75.7404 50.7849 75.9897 50.6741C76.2114 50.591 76.4608 50.5079 76.6824 50.397C76.9041 50.2862 77.1257 50.1477 77.3474 50.0369C77.569 49.8983 77.7353 49.7321 77.9569 49.5936C78.1508 49.455 78.3448 49.2888 78.5387 49.1226C78.7327 48.9563 78.982 48.8732 79.176 48.707C79.3699 48.5407 79.5085 48.3191 79.6747 48.1528C79.8409 47.9866 80.0072 47.7926 80.1734 47.5987C80.3396 47.4048 80.5336 47.2385 80.6721 47.0446C80.8107 46.8506 80.9769 46.629 81.0877 46.435C81.2262 46.2134 81.3094 45.9917 81.4479 45.7701C81.5587 45.5484 81.6695 45.3268 81.7804 45.1051C81.8912 44.8835 81.9466 44.6341 82.0297 44.3848C82.1129 44.1631 82.196 43.9138 82.2514 43.6644C82.3345 43.415 82.3899 43.1934 82.4453 42.944C82.5007 42.6947 82.5839 42.473 82.6116 42.2237C82.6393 41.9743 82.6947 41.725 82.6947 41.4756C82.7224 41.2262 82.6947 40.9769 82.7224 40.7275C82.7224 40.4782 82.6947 40.2288 82.6947 39.9795C82.6947 39.7301 82.7224 39.4807 82.6947 39.2314C82.667 38.982 82.5562 38.7327 82.5285 38.511C82.473 38.2617 82.4176 38.04 82.3345 37.7907C82.2791 37.5413 82.2237 37.2919 82.1406 37.0703C82.0574 36.8209 82.0574 36.5716 81.9466 36.3499C81.8635 36.1283 81.6973 35.9066 81.5864 35.685C81.4756 35.4633 81.3094 35.2694 81.1708 35.0477C81.0323 34.8261 80.9492 34.5767 80.8107 34.3828C80.6721 34.1888 80.5059 33.9672 80.3674 33.7732C80.2011 33.5793 80.0626 33.3576 79.8963 33.1637C79.7301 32.9697 79.5362 32.8035 79.3699 32.6373C79.2037 32.471 79.0097 32.2771 78.8435 32.1108C78.6496 31.9446 78.4556 31.8061 78.234 31.6398C78.04 31.5013 77.7907 31.4182 77.569 31.2797C77.3474 31.1411 77.1534 31.0026 76.9318 30.8918C76.7101 30.7809 76.4885 30.6424 76.2668 30.5316C76.0452 30.4208 75.7958 30.3653 75.5742 30.2822C75.3525 30.1991 75.1031 30.1437 74.8538 30.0606C74.6044 29.9775 74.3828 29.8389 74.1334 29.7835C73.8841 29.7281 73.6347 29.7004 73.3853 29.6727C73.136 29.645 72.8866 29.645 72.6373 29.645C72.3879 29.6173 72.1386 29.5896 71.8892 29.5896C71.5013 29.5896 71.5013 29.5619 71.1134 29.5619C70.7255 29.5619 70.7255 29.5896 70.3376 29.5619C69.9498 29.5619 69.9498 29.5065 69.5619 29.5065C69.174 29.5065 69.174 29.4787 68.7861 29.4787C68.3982 29.4787 68.3982 29.5065 68.0103 29.5065C67.6224 29.5065 67.6224 29.451 67.2345 29.4233C66.8466 29.4233 66.8466 29.4787 66.4588 29.451C66.0709 29.451 66.0709 29.3956 65.683 29.3956C65.2951 29.3956 65.2951 29.451 64.9072 29.451C64.5193 29.451 64.5193 29.451 64.1314 29.451C63.7435 29.451 63.7435 29.3679 63.3556 29.3679C62.9678 29.3679 62.9678 29.4233 62.5799 29.4233C62.3305 29.4233 62.0812 29.4233 61.8318 29.3679C61.5824 29.3125 61.3608 29.2017 61.1391 29.1186C60.9175 29.0354 60.6681 28.9523 60.4465 28.8138C60.2248 28.6753 60.0586 28.509 59.8646 28.3428C59.6707 28.1765 59.4768 28.0103 59.3382 27.8164C59.172 27.6224 59.0889 27.4008 58.978 27.1791C58.8672 26.9575 58.7564 26.7358 58.6733 26.5142C58.5902 26.2925 58.4793 26.0432 58.4516 25.7938C58.4239 25.5444 58.3962 25.2951 58.3962 25.0457C58.3962 25.018 58.3962 25.018 58.3962 24.9903H58.4516C58.4516 24.741 58.4516 24.4916 58.4516 24.2422C58.4516 23.9929 58.3962 23.7435 58.3685 23.4942C58.3408 23.2448 58.23 22.9955 58.2023 22.7738C58.1469 22.5245 58.1746 22.2751 58.0914 22.0257C58.036 21.7764 57.8975 21.5547 57.8421 21.3331C57.759 21.0837 57.7313 20.8344 57.6204 20.6127C57.5373 20.3911 57.4265 20.1417 57.3157 19.9201C57.2048 19.6984 57.0386 19.5045 56.9001 19.2828C56.7615 19.0612 56.6784 18.8395 56.5399 18.6456C56.4014 18.4516 56.2351 18.2577 56.0966 18.036C55.9303 17.8421 55.8195 17.6204 55.6533 17.4265C55.487 17.2325 55.2931 17.0663 55.1269 16.9001C54.9606 16.7338 54.7667 16.5676 54.5727 16.4013C54.3788 16.2351 54.1848 16.0966 53.9909 15.9303C53.797 15.7918 53.5753 15.6533 53.3537 15.5147C53.132 15.3762 52.9381 15.21 52.7164 15.0991C52.4948 14.9883 52.2731 14.8775 52.0238 14.7667C51.8021 14.6558 51.5527 14.5727 51.3311 14.4896C51.1094 14.4065 50.8601 14.3511 50.6107 14.2957C50.3614 14.2125 50.1397 14.1294 49.8904 14.074C49.641 14.0186 49.4194 13.9355 49.17 13.9078C48.9206 13.8801 48.6713 13.8524 48.4219 13.8524C48.1726 13.8247 47.9232 13.8524 47.6739 13.8524C47.286 13.8524 47.286 13.8247 46.8981 13.8247C46.5102 13.8247 46.5102 13.7969 46.1223 13.7969C45.7344 13.7969 45.7344 13.8801 45.3465 13.8801C44.9586 13.8801 44.9586 13.7969 44.5707 13.7969C44.1829 13.7969 44.1829 13.8247 43.795 13.7969C43.4071 13.7969 43.4071 13.7969 43.0192 13.7692C42.6313 13.7692 42.6313 13.7969 42.2434 13.7969C41.8555 13.7969 41.8555 13.8247 41.4676 13.8247C41.0797 13.8247 41.0797 13.7415 40.6919 13.7415C40.304 13.7415 40.304 13.8247 39.9161 13.7969C39.5282 13.7969 39.5282 13.6861 39.1403 13.6861C38.7524 13.6861 38.7524 13.7692 38.3645 13.7692C37.9766 13.7692 37.9766 13.7692 37.5887 13.7692C37.2009 13.7692 37.2009 13.7415 36.813 13.7415C36.4251 13.7415 36.4251 13.7138 36.0372 13.6861C35.6493 13.6861 35.6493 13.7138 35.2614 13.7138C34.8735 13.7138 34.8735 13.6861 34.4856 13.6861C34.0977 13.6861 34.0977 13.7138 33.7099 13.7138C33.322 13.7138 33.322 13.6307 32.9341 13.603C32.5462 13.603 32.5462 13.6307 32.1583 13.6307C31.7704 13.6307 31.7704 13.5753 31.3825 13.5753C30.9946 13.5753 30.9946 13.6584 30.6067 13.6584C30.2189 13.6584 30.2189 13.603 29.831 13.603C29.4431 13.603 29.4431 13.5753 29.0552 13.5753C28.6673 13.5753 28.6673 13.603 28.2794 13.603C27.8915 13.603 27.8915 13.5753 27.5036 13.5753C27.1157 13.5753 27.1157 13.603 26.7279 13.603C26.34 13.603 26.34 13.5199 25.9521 13.5199C25.5642 13.5199 25.5642 13.5753 25.1763 13.5753C24.7884 13.5753 24.7884 13.5753 24.4005 13.5476C24.0126 13.5476 24.0126 13.5199 23.6247 13.5199C23.2369 13.5199 23.2369 13.4922 22.849 13.4645C22.4611 13.4645 22.4611 13.4368 22.0732 13.4368C21.6853 13.4368 21.6853 13.4368 21.2974 13.4368C20.9095 13.4368 20.9095 13.4645 20.5216 13.4645C20.1337 13.4645 20.1337 13.4922 19.7459 13.4922C19.358 13.4922 19.358 13.4922 18.9701 13.4922C18.5822 13.4922 18.5822 13.4091 18.1943 13.4091C17.8064 13.4091 17.8064 13.4645 17.4185 13.4645C17.0306 13.4645 17.0306 13.4091 16.6427 13.4091C16.2549 13.4091 16.2549 13.4368 15.867 13.4368C15.6176 13.4368 15.3682 13.4091 15.1189 13.4091C14.8695 13.4091 14.6202 13.4645 14.3708 13.4922C14.1215 13.5199 13.8721 13.5476 13.6227 13.603C13.3734 13.6584 13.124 13.6861 12.8747 13.7692C12.6253 13.8247 12.4037 13.9355 12.1543 14.0186C11.905 14.1017 11.6833 14.1571 11.4339 14.268C11.2123 14.3511 10.9906 14.4896 10.769 14.6004C10.5473 14.7113 10.3257 14.8221 10.104 14.9606C9.88239 15.0991 9.66074 15.1823 9.43909 15.3208C9.24515 15.4593 9.0512 15.6533 8.85726 15.8195C8.66331 15.9857 8.44166 16.0966 8.24772 16.2905C8.05377 16.4568 7.88753 16.6507 7.7213 16.8446C7.55506 17.0109 7.36111 17.2048 7.22258 17.3988C7.05634 17.5927 6.91781 17.7867 6.75157 17.9806C6.61304 18.1746 6.4468 18.3962 6.30827 18.5901C6.16974 18.8118 6.05892 19.0334 5.94809 19.2551C5.83726 19.4767 5.75415 19.7261 5.64332 19.9478C5.53249 20.1694 5.42167 20.3911 5.31084 20.6127C5.22772 20.8344 5.20002 21.0837 5.1169 21.3331C5.03378 21.5824 4.92295 21.8041 4.86754 22.0534C4.81213 22.3028 4.81213 22.5522 4.75672 22.8015C4.72901 23.0509 4.7013 23.3002 4.6736 23.5496C4.61818 23.5773 4.56277 23.8266 4.56277 24.076Z" fill="#C7E2FF"/>
<path d="M66.5952 58.3341C66.3156 58.3341 66.3156 58.4178 66.0361 58.4178C65.7565 58.4178 65.7565 58.3341 65.477 58.3341C65.1974 58.3341 65.1974 58.362 64.9178 58.362C64.6383 58.362 64.6383 58.4178 64.3587 58.4178C64.0791 58.4178 64.0791 58.362 63.7996 58.362C63.52 58.362 63.52 58.362 63.2404 58.362C62.9609 58.362 62.9609 58.3899 62.6813 58.3899C62.4018 58.3899 62.4018 58.362 62.1222 58.362C61.8426 58.362 61.8426 58.3899 61.5631 58.3899C61.2835 58.3899 61.2835 58.362 61.0039 58.362C60.7244 58.362 60.7244 58.3899 60.4448 58.3899C60.1653 58.3899 60.1653 58.4178 59.8857 58.4178C59.6061 58.4178 59.6061 58.3899 59.3266 58.3899C59.047 58.3899 59.047 58.3899 58.7674 58.3899C58.4879 58.3899 58.4879 58.3899 58.2083 58.3899C57.9288 58.3899 57.9287 58.3899 57.6492 58.3899C57.3696 58.3899 57.3696 58.4178 57.0901 58.4178C56.8105 58.4178 56.8105 58.3899 56.5309 58.3899C56.2514 58.3899 56.2514 58.3899 55.9718 58.3899C55.6922 58.3899 55.6922 58.3899 55.4127 58.3899C55.1331 58.3899 55.1331 58.3899 54.8536 58.3899C54.574 58.3899 54.574 58.3899 54.2944 58.3899C54.0149 58.3899 54.0149 58.4178 53.7353 58.4178C53.4557 58.4178 53.4557 58.4178 53.1762 58.4178C52.8966 58.4178 52.8966 58.3899 52.6171 58.3899C52.3375 58.3899 52.3375 58.3899 52.0579 58.3899C51.7784 58.3899 51.7784 58.3899 51.4988 58.3899C51.2192 58.3899 51.2192 58.362 50.9397 58.362C50.6601 58.362 50.6601 58.4178 50.3805 58.4178C50.101 58.4178 50.101 58.362 49.8214 58.362C49.5419 58.362 49.5419 58.4178 49.2623 58.4178C48.9827 58.4178 48.9827 58.4457 48.7032 58.4457C48.4236 58.4457 48.4236 58.4457 48.144 58.4457C47.8645 58.4457 47.8645 58.3899 47.5649 58.3899C47.2854 58.3899 47.2854 58.4178 47.0058 58.4178C46.7263 58.4178 46.7263 58.4178 46.4467 58.4178C46.1671 58.4178 46.1671 58.4736 45.8876 58.4736C45.608 58.4736 45.608 58.3899 45.3284 58.3899C45.0489 58.3899 45.0489 58.4457 44.7693 58.4457C44.4898 58.4457 44.4898 58.4457 44.2102 58.4457C43.9306 58.4457 43.9306 58.4457 43.6511 58.4457C43.3715 58.4457 43.3715 58.4736 43.0919 58.4736C42.8124 58.4736 42.8124 58.4178 42.5328 58.4178C42.2533 58.4178 42.2533 58.3899 41.9737 58.3899C41.6941 58.3899 41.6941 58.3899 41.3946 58.3899C41.115 58.3899 41.115 58.4457 40.8355 58.4457C40.5559 58.4457 40.5559 58.4736 40.2564 58.4736C39.9768 58.4736 39.9768 58.4457 39.6972 58.4457C39.4177 58.4457 39.4177 58.4178 39.1381 58.4178C38.8586 58.4178 38.8586 58.4178 38.579 58.4178C38.2994 58.4178 38.2994 58.5015 38.0199 58.5015C37.7403 58.5015 37.7403 58.4457 37.4607 58.4457C37.1812 58.4457 37.1812 58.4178 36.8816 58.4178C36.6021 58.4178 36.6021 58.4736 36.3225 58.4736C36.043 58.4736 36.043 58.4178 35.7434 58.4178C35.4639 58.4178 35.4639 58.4457 35.1643 58.4457C34.8848 58.4457 34.8848 58.5015 34.5852 58.5015C34.3057 58.5015 34.3057 58.5294 34.0061 58.5294C33.7266 58.5294 33.7266 58.4736 33.427 58.4736C33.1475 58.4736 33.1475 58.5015 32.848 58.5015C32.5684 58.5015 32.5684 58.5294 32.2689 58.5294C31.9893 58.5294 31.9893 58.4457 31.6898 58.4457C31.4102 58.4457 31.4102 58.4736 31.1107 58.4736C30.9309 58.4736 30.7912 58.362 30.6714 58.1945C30.5515 58.0271 30.4916 57.8317 30.4916 57.5806C30.4916 57.1898 30.4916 57.1898 30.4916 56.7712C30.4916 56.3805 30.5116 56.3805 30.5116 55.9619C30.5116 55.5712 30.4916 55.5712 30.4916 55.1525C30.4916 54.7618 30.4517 54.7618 30.4517 54.3432C30.4517 53.9525 30.4916 53.9525 30.4916 53.5339C30.4916 53.1431 30.4916 53.1431 30.4916 52.7245C30.4916 52.3338 30.4717 52.3338 30.4717 51.9152C30.4717 51.5245 30.4517 51.5245 30.4517 51.1058C30.4517 50.7151 30.4916 50.7151 30.4916 50.2965C30.4916 49.9058 30.4717 49.9058 30.4717 49.4872C30.4717 49.0964 30.4916 49.0964 30.4916 48.7057C30.4916 48.315 30.4916 48.315 30.4916 47.9243C30.4916 47.5336 30.4916 47.5336 30.4916 47.1429C30.4916 46.7521 30.4517 46.7521 30.4517 46.3614C30.4517 45.9707 30.4517 45.9707 30.4517 45.58C30.4517 45.1893 30.4317 45.1893 30.4317 44.7707C30.4317 44.3799 30.4517 44.3799 30.4517 43.9613C30.4517 43.5706 30.4717 43.5706 30.4717 43.1799C30.4717 42.7892 30.4317 42.7892 30.4317 42.3985C30.4317 42.0077 30.4717 42.0077 30.4717 41.617C30.4717 41.2263 30.4717 41.2263 30.4717 40.8356C30.4717 40.4449 30.4118 40.4449 30.4118 40.0542C30.4118 39.6634 30.4118 39.6634 30.4118 39.2448C30.4118 38.8541 30.4118 38.8541 30.4118 38.4355C30.4118 38.0448 30.4118 38.0448 30.4118 37.654C30.4118 37.2633 30.4317 37.2633 30.4317 36.8726C30.4317 36.4819 30.4317 36.4819 30.4317 36.0912C30.4317 35.7005 30.4517 35.7005 30.4517 35.3097C30.4517 34.919 30.4517 34.919 30.4517 34.5004C30.4517 34.1097 30.4118 34.1097 30.4118 33.6911C30.4118 33.3004 30.4517 33.3003 30.4517 32.8817C30.4517 32.491 30.4118 32.491 30.4118 32.1003C30.4118 31.7096 30.4517 31.7096 30.4517 31.291C30.4517 30.9002 30.4517 30.9002 30.4517 30.4816C30.4517 30.0909 30.4317 30.0909 30.4317 29.6723C30.4317 29.2816 30.4517 29.2816 30.4517 28.8629C30.4517 28.4443 30.4717 28.4722 30.4717 28.0536C30.4717 27.635 30.4717 27.6629 30.4717 27.2442C30.4717 26.8535 30.4916 26.8535 30.4916 26.4349C30.4916 26.0442 30.4517 26.0442 30.4517 25.6256C30.4517 25.2349 30.4717 25.2349 30.4717 24.8162C30.4717 24.4255 30.4916 24.4255 30.4916 24.0069C30.4916 23.5883 30.4517 23.6162 30.4517 23.1975C30.4517 22.8068 30.4916 22.8068 30.4916 22.3882C30.4916 21.9975 30.4517 21.9975 30.4517 21.5789C30.4517 21.1602 30.4916 21.1882 30.4916 20.7695C30.4916 20.3788 30.4717 20.3788 30.4717 19.9602C30.4717 19.5695 30.4517 19.5695 30.4517 19.1508C30.4517 18.7601 30.4317 18.7601 30.4317 18.3415C30.4317 17.9508 30.4317 17.9508 30.4317 17.5601C30.4317 17.1694 30.4916 17.1694 30.4916 16.7507C30.4916 16.3321 30.4916 16.36 30.4916 15.9414C30.4916 15.5507 30.4916 15.5507 30.4916 15.1321C30.4916 14.7413 30.4317 14.7413 30.4317 14.3227C30.4317 13.932 30.4517 13.932 30.4517 13.5134C30.4517 13.1227 30.4317 13.1227 30.4317 12.704C30.4317 12.3133 30.4118 12.3133 30.4118 11.8947C30.4118 11.504 30.4717 11.504 30.4717 11.0854C30.4717 10.6946 30.4517 10.6946 30.4517 10.276C30.4517 9.88529 30.4517 9.88529 30.4517 9.46667C30.4517 9.07595 30.4118 9.07595 30.4118 8.65733C30.4118 8.26661 30.4517 8.26661 30.4517 7.84799C30.4517 7.45727 30.4118 7.45727 30.4118 7.03865C30.4118 6.78747 30.5116 6.56421 30.6114 6.39676C30.7313 6.22931 30.891 6.17349 31.0707 6.17349C31.3503 6.17349 31.3503 6.2014 31.6299 6.2014C31.9094 6.2014 31.9094 6.11768 32.189 6.11768C32.4685 6.11768 32.4685 6.2014 32.7481 6.2014C33.0277 6.2014 33.0277 6.2014 33.3072 6.2014C33.5868 6.2014 33.5868 6.17349 33.8664 6.17349C34.1459 6.17349 34.1459 6.2014 34.4255 6.2014C34.705 6.2014 34.705 6.11768 34.9846 6.11768C35.2642 6.11768 35.2642 6.14558 35.5437 6.14558C35.8233 6.14558 35.8233 6.2014 36.1029 6.2014C36.3824 6.2014 36.3824 6.17349 36.662 6.17349C36.9416 6.17349 36.9416 6.14558 37.2211 6.14558C37.5007 6.14558 37.5007 6.14558 37.7802 6.14558C38.0598 6.14558 38.0598 6.11768 38.3394 6.11768C38.6189 6.11768 38.6189 6.14558 38.8985 6.14558C39.1781 6.14558 39.1781 6.11768 39.4576 6.11768C39.7372 6.11768 39.7372 6.22931 40.0167 6.22931C40.2963 6.22931 40.2963 6.2014 40.5759 6.2014C40.8554 6.2014 40.8554 6.2014 41.135 6.2014C41.4146 6.2014 41.4146 6.2014 41.6941 6.2014C41.9737 6.2014 41.9737 6.14558 42.2533 6.14558C42.5328 6.14558 42.5328 6.25722 42.8124 6.25722C43.0919 6.25722 43.0919 6.17349 43.3715 6.17349C43.6511 6.17349 43.6511 6.17349 43.9306 6.17349C44.2102 6.17349 44.2102 6.22931 44.4898 6.22931C44.7693 6.22931 44.7693 6.2014 45.0489 6.2014C45.3284 6.2014 45.3284 6.17349 45.608 6.17349C45.8876 6.17349 45.8876 6.22931 46.1671 6.22931C46.4467 6.22931 46.4467 6.25722 46.7263 6.25722C47.0058 6.25722 47.0058 6.22931 47.2854 6.22931C47.5649 6.22931 47.5649 6.2014 47.8445 6.2014C48.1241 6.2014 48.1241 6.25722 48.4036 6.25722C48.6832 6.25722 48.6832 6.17349 48.9628 6.17349C49.2423 6.17349 49.2423 6.22931 49.5219 6.22931C49.8015 6.22931 49.8015 6.2014 50.081 6.2014C50.3606 6.2014 50.3606 6.22931 50.6401 6.22931C50.9197 6.22931 50.9197 6.22931 51.1993 6.22931C51.4788 6.22931 51.4788 6.25722 51.7584 6.25722C52.038 6.25722 52.038 6.17349 52.3175 6.17349C52.5971 6.17349 52.5971 6.2014 52.8766 6.2014C53.1562 6.2014 53.1562 6.14558 53.4358 6.14558C53.7153 6.14558 53.7153 6.22931 53.9949 6.22931C54.2745 6.22931 54.2745 6.22931 54.554 6.22931C54.8336 6.22931 54.8336 6.11768 55.1331 6.11768C55.4127 6.11768 55.4127 6.2014 55.6922 6.2014C55.9718 6.2014 55.9718 6.17349 56.2713 6.17349C56.5509 6.17349 56.5509 6.17349 56.8305 6.17349C57.11 6.17349 57.11 6.22931 57.4096 6.22931C57.6891 6.22931 57.6891 6.14558 57.9687 6.14558C58.2483 6.14558 58.2483 6.2014 58.5278 6.2014C58.8074 6.2014 58.8074 6.2014 59.0869 6.2014C59.3665 6.2014 59.3665 6.17349 59.6461 6.17349C59.9256 6.17349 59.9256 6.17349 60.2052 6.17349C60.4848 6.17349 60.4848 6.11768 60.7843 6.11768C61.0639 6.11768 61.0639 6.11768 61.3434 6.11768C61.623 6.11768 61.623 6.17349 61.9225 6.17349C62.2021 6.17349 62.2021 6.17349 62.5016 6.17349C62.7812 6.17349 62.7812 6.17349 63.0807 6.17349C63.3603 6.17349 63.3603 6.17349 63.6598 6.17349C63.9394 6.17349 63.9394 6.22931 64.2389 6.22931C64.5185 6.22931 64.5185 6.22931 64.818 6.22931C65.0975 6.22931 65.0975 6.17349 65.3971 6.17349C65.6766 6.17349 65.6766 6.2014 65.9762 6.2014C66.2557 6.2014 66.2557 6.2014 66.5553 6.2014C66.735 6.2014 66.8947 6.28513 67.0145 6.42467C67.1344 6.59212 67.2142 6.81538 67.2142 7.06656C67.2142 7.45727 67.1743 7.45727 67.1743 7.8759C67.1743 8.26661 67.1943 8.26661 67.1943 8.65733C67.1943 9.04805 67.2142 9.04805 67.2142 9.46667C67.2142 9.85739 67.1943 9.85739 67.1943 10.2481C67.1943 10.6388 67.2342 10.6388 67.2342 11.0574C67.2342 11.4482 67.2342 11.4482 67.2342 11.8668C67.2342 12.2575 67.2342 12.2575 67.2342 12.6761C67.2342 13.0668 67.2542 13.0668 67.2542 13.4576C67.2542 13.8483 67.2142 13.8483 67.2142 14.2669C67.2142 14.6576 67.2542 14.6576 67.2542 15.0483C67.2542 15.439 67.2342 15.439 67.2342 15.8298C67.2342 16.2205 67.2342 16.2205 67.2342 16.6112C67.2342 17.0019 67.1943 17.0019 67.1943 17.3926C67.1943 17.7833 67.2741 17.7833 67.2741 18.1741C67.2741 18.5648 67.2542 18.5648 67.2542 18.9834C67.2542 19.3741 67.2741 19.3741 67.2741 19.7927C67.2741 20.1835 67.2741 20.1835 67.2741 20.6021C67.2741 20.9928 67.2542 20.9928 67.2542 21.3835C67.2542 21.7742 67.2741 21.7742 67.2741 22.1649C67.2741 22.5557 67.2741 22.5557 67.2741 22.9464C67.2741 23.3371 67.2542 23.3371 67.2542 23.7278C67.2542 24.1185 67.2142 24.1185 67.2142 24.5092C67.2142 24.9 67.2741 24.9 67.2741 25.3186C67.2741 25.7093 67.2741 25.7093 67.2741 26.1279C67.2741 26.5186 67.2342 26.5186 67.2342 26.9094C67.2342 27.3001 67.2542 27.3001 67.2542 27.6908C67.2542 28.0815 67.2941 28.0815 67.2941 28.4722C67.2941 28.8629 67.2542 28.8629 67.2542 29.2536C67.2542 29.6444 67.2741 29.6444 67.2741 30.063C67.2741 30.4537 67.2741 30.4537 67.2741 30.8723C67.2741 31.263 67.2142 31.263 67.2142 31.6817C67.2142 32.0724 67.2342 32.0724 67.2342 32.4631C67.2342 32.8538 67.2542 32.8538 67.2542 33.2724C67.2542 33.6632 67.2741 33.6632 67.2741 34.0818C67.2741 34.5004 67.2741 34.4725 67.2741 34.8911C67.2741 35.2818 67.2142 35.2818 67.2142 35.7005C67.2142 36.0912 67.2342 36.0912 67.2342 36.5098C67.2342 36.9005 67.2542 36.9005 67.2542 37.3191C67.2542 37.7099 67.2542 37.7099 67.2542 38.1285C67.2542 38.5192 67.2542 38.5192 67.2542 38.9378C67.2542 39.3285 67.2542 39.3285 67.2542 39.7472C67.2542 40.1379 67.2142 40.1379 67.2142 40.5565C67.2142 40.9472 67.2142 40.9472 67.2142 41.3658C67.2142 41.7566 67.1943 41.7566 67.1943 42.1752C67.1943 42.5659 67.1743 42.5659 67.1743 42.9845C67.1743 43.3752 67.1743 43.3752 67.1743 43.7939C67.1743 44.1846 67.2342 44.1846 67.2342 44.6032C67.2342 44.9939 67.2342 44.9939 67.2342 45.4125C67.2342 45.8033 67.2142 45.8033 67.2142 46.2219C67.2142 46.6126 67.2542 46.6126 67.2542 47.0312C67.2542 47.4219 67.1943 47.4219 67.1943 47.8406C67.1943 48.2313 67.1943 48.2313 67.1943 48.6499C67.1943 49.0406 67.1943 49.0406 67.1943 49.4593C67.1943 49.85 67.2741 49.85 67.2741 50.2686C67.2741 50.6593 67.2142 50.6593 67.2142 51.0779C67.2142 51.4686 67.2741 51.4686 67.2741 51.8873C67.2741 52.278 67.2142 52.278 67.2142 52.6966C67.2142 53.0873 67.2542 53.0873 67.2542 53.506C67.2542 53.8967 67.2542 53.8967 67.2542 54.3153C67.2542 54.706 67.2342 54.706 67.2342 55.1246C67.2342 55.5154 67.2542 55.5153 67.2542 55.934C67.2542 56.3247 67.2542 56.3247 67.2542 56.7433C67.2542 57.134 67.2542 57.134 67.2542 57.5527C67.2542 57.8038 67.1743 57.9992 67.0545 58.1666C66.9347 58.2504 66.7749 58.3341 66.5952 58.3341Z" fill="white" stroke="#414C58" stroke-width="0.85" stroke-miterlimit="10"/>
<path d="M30.4118 13.2354C30.6912 13.2354 30.6912 13.2354 30.9706 13.2354C31.25 13.2354 31.25 13.2354 31.5294 13.2354C31.8088 13.2354 31.8088 13.2354 32.0882 13.2354C32.3676 13.2354 32.3676 13.2354 32.6471 13.2354C32.9265 13.2354 32.9265 13.2354 33.2059 13.2354C33.4853 13.2354 33.4853 13.2354 33.7647 13.2354C34.0441 13.2354 34.0441 13.2354 34.3235 13.2354C34.6029 13.2354 34.6029 13.2354 34.8823 13.2354C35.1618 13.2354 35.1618 13.2354 35.4412 13.2354C35.7206 13.2354 35.7206 13.2354 36 13.2354C36.2794 13.2354 36.2794 13.2354 36.5588 13.2354C36.8382 13.2354 36.8382 13.2354 37.1176 13.2354C37.3971 13.2354 37.3971 13.2354 37.6765 13.2354C37.9559 13.2354 37.9559 13.2354 38.2353 13.2354C38.5147 13.2354 38.5147 13.2354 38.7941 13.2354C39.0735 13.2354 39.0735 13.2354 39.3529 13.2354C39.6323 13.2354 39.6323 13.2354 39.9118 13.2354C40.1912 13.2354 40.1912 13.2354 40.4706 13.2354C40.75 13.2354 40.75 13.2354 41.0294 13.2354C41.3088 13.2354 41.3088 13.2354 41.5882 13.2354C41.8676 13.2354 41.8676 13.2354 42.1471 13.2354C42.4265 13.2354 42.4265 13.2354 42.7059 13.2354C42.9853 13.2354 42.9853 13.2354 43.2647 13.2354C43.5441 13.2354 43.5441 13.2354 43.8235 13.2354C44.1029 13.2354 44.1029 13.2354 44.3823 13.2354C44.6618 13.2354 44.6618 13.2354 44.9412 13.2354C45.2206 13.2354 45.2206 13.2354 45.5 13.2354C45.7794 13.2354 45.7794 13.2354 46.0588 13.2354C46.3382 13.2354 46.3382 13.2354 46.6176 13.2354C46.8971 13.2354 46.8971 13.2354 47.1765 13.2354C47.4559 13.2354 47.4559 13.2354 47.7353 13.2354C48.0147 13.2354 48.0147 13.2354 48.2941 13.2354C48.5735 13.2354 48.5735 13.2354 48.8529 13.2354C49.1323 13.2354 49.1323 13.2354 49.4118 13.2354C49.6912 13.2354 49.6912 13.2354 49.9706 13.2354C50.25 13.2354 50.25 13.2354 50.5294 13.2354C50.8088 13.2354 50.8088 13.2354 51.0882 13.2354C51.3676 13.2354 51.3676 13.2354 51.6471 13.2354C51.9265 13.2354 51.9265 13.2354 52.2059 13.2354C52.4853 13.2354 52.4853 13.2354 52.7647 13.2354C53.0441 13.2354 53.0441 13.2354 53.3235 13.2354C53.6029 13.2354 53.6029 13.2354 53.8823 13.2354C54.1618 13.2354 54.1618 13.2354 54.4412 13.2354C54.7206 13.2354 54.7206 13.2354 55 13.2354C55.2794 13.2354 55.2794 13.2354 55.5588 13.2354C55.8382 13.2354 55.8382 13.2354 56.1176 13.2354C56.3971 13.2354 56.3971 13.2354 56.6765 13.2354C56.9559 13.2354 56.9559 13.2354 57.2353 13.2354C57.5147 13.2354 57.5147 13.2354 57.7941 13.2354C58.0735 13.2354 58.0735 13.2354 58.3529 13.2354C58.6323 13.2354 58.6323 13.2354 58.9118 13.2354C59.1912 13.2354 59.1912 13.2354 59.4706 13.2354C59.75 13.2354 59.75 13.2354 60.0294 13.2354C60.3088 13.2354 60.3088 13.2354 60.5882 13.2354C60.8676 13.2354 60.8676 13.2354 61.1471 13.2354C61.4265 13.2354 61.4265 13.2354 61.7059 13.2354C61.9853 13.2354 61.9853 13.2354 62.2647 13.2354C62.5441 13.2354 62.5441 13.2354 62.8235 13.2354C63.1029 13.2354 63.1029 13.2354 63.3824 13.2354C63.6618 13.2354 63.6618 13.2354 63.9412 13.2354C64.2206 13.2354 64.2206 13.2354 64.5 13.2354C64.7794 13.2354 64.7794 13.2354 65.0588 13.2354C65.3382 13.2354 65.3382 13.2354 65.6176 13.2354C65.8971 13.2354 65.8971 13.2354 66.1765 13.2354C66.4559 13.2354 66.4559 13.2354 66.7353 13.2354C67.0147 13.2354 67.0147 13.2354 67.2941 13.2354" fill="white"/>
<path d="M30.4118 13.2354C30.6912 13.2354 30.6912 13.2354 30.9706 13.2354C31.25 13.2354 31.25 13.2354 31.5294 13.2354C31.8088 13.2354 31.8088 13.2354 32.0882 13.2354C32.3676 13.2354 32.3676 13.2354 32.6471 13.2354C32.9265 13.2354 32.9265 13.2354 33.2059 13.2354C33.4853 13.2354 33.4853 13.2354 33.7647 13.2354C34.0441 13.2354 34.0441 13.2354 34.3235 13.2354C34.6029 13.2354 34.6029 13.2354 34.8823 13.2354C35.1618 13.2354 35.1618 13.2354 35.4412 13.2354C35.7206 13.2354 35.7206 13.2354 36 13.2354C36.2794 13.2354 36.2794 13.2354 36.5588 13.2354C36.8382 13.2354 36.8382 13.2354 37.1176 13.2354C37.3971 13.2354 37.3971 13.2354 37.6765 13.2354C37.9559 13.2354 37.9559 13.2354 38.2353 13.2354C38.5147 13.2354 38.5147 13.2354 38.7941 13.2354C39.0735 13.2354 39.0735 13.2354 39.3529 13.2354C39.6323 13.2354 39.6323 13.2354 39.9118 13.2354C40.1912 13.2354 40.1912 13.2354 40.4706 13.2354C40.75 13.2354 40.75 13.2354 41.0294 13.2354C41.3088 13.2354 41.3088 13.2354 41.5882 13.2354C41.8676 13.2354 41.8676 13.2354 42.1471 13.2354C42.4265 13.2354 42.4265 13.2354 42.7059 13.2354C42.9853 13.2354 42.9853 13.2354 43.2647 13.2354C43.5441 13.2354 43.5441 13.2354 43.8235 13.2354C44.1029 13.2354 44.1029 13.2354 44.3823 13.2354C44.6618 13.2354 44.6618 13.2354 44.9412 13.2354C45.2206 13.2354 45.2206 13.2354 45.5 13.2354C45.7794 13.2354 45.7794 13.2354 46.0588 13.2354C46.3382 13.2354 46.3382 13.2354 46.6176 13.2354C46.8971 13.2354 46.8971 13.2354 47.1765 13.2354C47.4559 13.2354 47.4559 13.2354 47.7353 13.2354C48.0147 13.2354 48.0147 13.2354 48.2941 13.2354C48.5735 13.2354 48.5735 13.2354 48.8529 13.2354C49.1323 13.2354 49.1323 13.2354 49.4118 13.2354C49.6912 13.2354 49.6912 13.2354 49.9706 13.2354C50.25 13.2354 50.25 13.2354 50.5294 13.2354C50.8088 13.2354 50.8088 13.2354 51.0882 13.2354C51.3676 13.2354 51.3676 13.2354 51.6471 13.2354C51.9265 13.2354 51.9265 13.2354 52.2059 13.2354C52.4853 13.2354 52.4853 13.2354 52.7647 13.2354C53.0441 13.2354 53.0441 13.2354 53.3235 13.2354C53.6029 13.2354 53.6029 13.2354 53.8823 13.2354C54.1618 13.2354 54.1618 13.2354 54.4412 13.2354C54.7206 13.2354 54.7206 13.2354 55 13.2354C55.2794 13.2354 55.2794 13.2354 55.5588 13.2354C55.8382 13.2354 55.8382 13.2354 56.1176 13.2354C56.3971 13.2354 56.3971 13.2354 56.6765 13.2354C56.9559 13.2354 56.9559 13.2354 57.2353 13.2354C57.5147 13.2354 57.5147 13.2354 57.7941 13.2354C58.0735 13.2354 58.0735 13.2354 58.3529 13.2354C58.6323 13.2354 58.6323 13.2354 58.9118 13.2354C59.1912 13.2354 59.1912 13.2354 59.4706 13.2354C59.75 13.2354 59.75 13.2354 60.0294 13.2354C60.3088 13.2354 60.3088 13.2354 60.5882 13.2354C60.8676 13.2354 60.8676 13.2354 61.1471 13.2354C61.4265 13.2354 61.4265 13.2354 61.7059 13.2354C61.9853 13.2354 61.9853 13.2354 62.2647 13.2354C62.5441 13.2354 62.5441 13.2354 62.8235 13.2354C63.1029 13.2354 63.1029 13.2354 63.3824 13.2354C63.6618 13.2354 63.6618 13.2354 63.9412 13.2354C64.2206 13.2354 64.2206 13.2354 64.5 13.2354C64.7794 13.2354 64.7794 13.2354 65.0588 13.2354C65.3382 13.2354 65.3382 13.2354 65.6176 13.2354C65.8971 13.2354 65.8971 13.2354 66.1765 13.2354C66.4559 13.2354 66.4559 13.2354 66.7353 13.2354C67.0147 13.2354 67.0147 13.2354 67.2941 13.2354" stroke="#414C58" stroke-width="0.85" stroke-miterlimit="10"/>
<path d="M60.0345 10.0579C60.3567 10.0517 60.3725 10.0675 60.6947 10.0612C61.0169 10.055 61.0339 10.0064 61.3561 10.0002C61.6784 9.99397 61.6935 10.042 62.0157 10.0358C62.338 10.0296 62.3538 10.0454 62.676 10.0392C62.9982 10.033 62.9982 10.033 63.3526 10.0261C63.6748 10.0199 63.6912 10.0035 64.0299 9.98086C64.3521 9.97465 64.3679 9.99045 64.7059 10" fill="white"/>
<path d="M60.0345 10.0579C60.3567 10.0517 60.3725 10.0675 60.6947 10.0612C61.0169 10.055 61.0339 10.0064 61.3561 10.0002C61.6784 9.99397 61.6935 10.042 62.0157 10.0358C62.338 10.0296 62.3538 10.0454 62.676 10.0392C62.9982 10.033 62.9982 10.033 63.3526 10.0261C63.6748 10.0199 63.6912 10.0035 64.0299 9.98086C64.3521 9.97465 64.3679 9.99045 64.7059 10" stroke="#414C58" stroke-width="0.85" stroke-miterlimit="10"/>
<path d="M49.8397 38.4495C49.8397 38.8651 49.7289 39.2529 49.7012 39.6408C49.6735 40.0287 49.6457 40.4443 49.5903 40.8322C49.5349 41.2201 49.4795 41.6357 49.3964 42.0236C49.3133 42.4115 49.2579 42.8271 49.147 43.1872C49.0362 43.5751 48.8977 43.963 48.7591 44.3232C48.6206 44.7111 48.4267 45.0436 48.2604 45.4038C48.0942 45.7639 47.9002 46.1241 47.7063 46.4566C47.5124 46.8168 47.3184 47.1493 47.0968 47.4817C46.8751 47.8142 46.6812 48.1467 46.4318 48.4792C46.1825 48.8116 45.9608 49.1164 45.7114 49.4212C45.4621 49.7259 45.1573 50.003 44.8803 50.2801C44.6032 50.5571 44.2984 50.8342 43.9936 51.1113C43.6889 51.3606 43.4395 51.6931 43.107 51.9425C42.7746 52.1918 42.3867 52.3026 42.0542 52.5243C41.7217 52.7459 41.3892 52.9953 41.0568 53.1892C40.6966 53.3832 40.3641 53.5494 39.9762 53.7157C39.616 53.8819 39.2559 54.0481 38.868 54.1867C38.5078 54.3252 38.0922 54.3806 37.7043 54.4914C37.3164 54.6023 36.9562 54.7685 36.5683 54.8516C36.1805 54.9347 35.7926 55.0179 35.4047 55.0733C35.0168 55.1287 34.6012 55.1564 34.2133 55.1841C33.8254 55.2118 33.4098 55.2949 33.0219 55.2949C32.6063 55.2949 32.2184 55.1841 31.8306 55.1564C31.4427 55.1287 31.0271 55.1841 30.6392 55.1287C30.2513 55.0733 29.8634 54.907 29.4755 54.8239C29.0876 54.7408 28.6997 54.6023 28.3119 54.4914C27.924 54.3806 27.5084 54.3529 27.1482 54.2144C26.7603 54.0758 26.4555 53.7988 26.0953 53.6325C25.7352 53.4663 25.3196 53.4109 24.9594 53.2169C24.5992 53.023 24.2667 52.8014 23.9342 52.5797C23.6018 52.358 23.297 52.1087 22.9645 51.8593C22.632 51.61 22.355 51.3329 22.0779 51.0836C21.7732 50.8342 21.4684 50.5848 21.1636 50.3078C20.8865 50.0307 20.5818 49.7537 20.3047 49.4489C20.0554 49.1441 19.806 48.8116 19.5844 48.5069C19.335 48.1744 19.141 47.8419 18.9194 47.5094C18.6977 47.177 18.4484 46.8722 18.2544 46.512C18.0605 46.1518 17.8388 45.8194 17.6726 45.4592C17.5064 45.099 17.451 44.6834 17.3124 44.3232C17.1739 43.963 17.0354 43.5751 16.9245 43.1872C16.8137 42.7994 16.6198 42.4392 16.5367 42.0513C16.4535 41.6634 16.5367 41.2478 16.4812 40.8322C16.4258 40.4443 16.2596 40.0564 16.2319 39.6408C16.2042 39.2529 16.1765 38.8374 16.1765 38.4495C16.1765 38.0339 16.2319 37.646 16.2596 37.2581C16.2873 36.8702 16.4258 36.4823 16.4812 36.0667C16.5367 35.6788 16.5644 35.2632 16.6475 34.8753C16.7306 34.4875 16.8137 34.0996 16.9245 33.7117C17.0354 33.3238 17.2293 32.9636 17.3678 32.6034C17.5064 32.2155 17.6726 31.8831 17.8388 31.4952C18.0051 31.135 18.0605 30.7194 18.2544 30.3592C18.4484 29.999 18.6423 29.6665 18.864 29.3341C19.0856 29.0016 19.335 28.6691 19.5566 28.3643C19.806 28.0319 20.1108 27.7825 20.3601 27.4777C20.6095 27.173 20.9143 26.8959 21.1913 26.6188C21.4684 26.3418 21.7454 26.037 22.0225 25.7599C22.3273 25.5106 22.6043 25.2058 22.9091 24.9565C23.2416 24.7071 23.6295 24.5963 23.962 24.3746C24.2944 24.153 24.5992 23.8759 24.9317 23.682C25.2919 23.488 25.6797 23.4049 26.0399 23.2387C26.4001 23.0724 26.7326 22.8231 27.0928 22.6568C27.453 22.5183 27.8963 22.5183 28.2564 22.4075C28.6443 22.2967 28.9768 22.0473 29.3924 21.9642C29.7803 21.8811 30.1959 21.9088 30.5838 21.8256C30.9717 21.7702 31.3873 21.7425 31.7751 21.7148C32.163 21.6871 32.5786 21.6594 32.9665 21.6594C33.3821 21.6594 33.77 21.6317 34.1579 21.6594C34.5458 21.6871 34.9614 21.7425 35.3493 21.7979C35.7372 21.8534 36.125 22.0473 36.5129 22.1304C36.9008 22.2135 37.3164 22.1858 37.7043 22.2967C38.0922 22.4075 38.4524 22.6014 38.8126 22.74C39.2004 22.8785 39.5883 22.9893 39.9485 23.1556C40.3087 23.3218 40.6412 23.5711 40.9737 23.7651C41.3338 23.959 41.7217 24.0699 42.0542 24.2915C42.3867 24.5132 42.7192 24.7348 43.0516 24.9842C43.3841 25.2335 43.6612 25.5106 43.9659 25.7599C44.2707 26.0093 44.6032 26.2587 44.8803 26.5357C45.1573 26.8128 45.4067 27.1453 45.6837 27.4223C45.9331 27.7271 46.2379 28.0042 46.4595 28.3366C46.7089 28.6691 46.792 29.0847 47.0136 29.4172C47.2353 29.7497 47.5678 30.0267 47.7617 30.3592C47.9557 30.7194 48.0111 31.135 48.1773 31.4952C48.3435 31.8553 48.5375 32.1878 48.676 32.5757C48.8146 32.9359 48.9254 33.3238 49.0362 33.7117C49.147 34.0996 49.2579 34.4597 49.341 34.8753C49.4241 35.2632 49.4795 35.6511 49.5349 36.0667C49.5903 36.4546 49.7566 36.8425 49.7843 37.2581C49.8397 37.646 49.8397 38.0616 49.8397 38.4495Z" fill="#C7C7FF" stroke="#6A69FF" stroke-width="0.856378" stroke-miterlimit="10"/>
<path d="M39.4778 36.6764C39.0622 36.2608 38.3695 36.2331 37.9539 36.6487C37.8154 36.7872 37.76 36.8427 37.6768 36.8981C37.5937 36.9812 37.5106 37.0366 37.3721 37.2028C37.2058 37.3691 37.1227 37.4522 37.0396 37.5353C36.9842 37.5907 36.9288 37.6738 36.7902 37.7847C36.6794 37.8955 36.5963 37.9509 36.5409 38.0063C36.4578 38.0894 36.3747 38.1726 36.2084 38.3111L35.6266 38.8652C35.4326 39.0592 35.3218 39.1977 35.2387 39.2808C35.1833 39.3362 35.1556 39.3916 35.0725 39.4748C34.9616 39.5856 34.8785 39.641 34.8231 39.7241C34.74 39.8072 34.6569 39.8626 34.4906 40.0289C34.3798 40.1397 34.3244 40.1951 34.2413 40.2505C34.1859 40.306 34.1027 40.3614 33.9919 40.4445C33.9919 40.4168 33.9919 40.3891 33.9919 40.3891C33.9919 40.2782 33.9919 40.1674 33.9919 39.9735C33.9919 39.7518 33.9919 39.6133 33.9642 39.5025C33.9642 39.4193 33.9642 39.3362 33.9642 39.1977C33.9642 39.0592 33.9642 39.0038 33.9919 38.9206C33.9919 38.8098 34.0196 38.6713 34.0196 38.4219C34.0196 38.1449 33.9919 37.9509 33.9642 37.8124C33.9365 37.757 33.9365 37.7293 33.9365 37.6461C33.9365 37.4522 33.9365 37.3691 33.9365 37.2583C33.9365 37.1474 33.9365 37.0643 33.9365 36.8427C33.9365 36.6487 33.9365 36.5379 33.9365 36.4271C33.9365 36.3439 33.9365 36.2331 33.9365 36.0669V35.2911C33.9365 35.1526 33.9365 35.0972 33.9642 35.014C33.9642 34.9032 33.9919 34.7647 33.9919 34.5153C33.9919 34.266 33.9642 34.1274 33.9642 33.9889C33.9642 33.9058 33.9365 33.8504 33.9365 33.7395C33.9365 33.5456 33.9365 33.4625 33.9365 33.3794C33.9365 33.2685 33.9365 33.1854 33.9365 32.9638C33.9365 32.8252 33.9365 32.7421 33.9365 32.659C33.9365 32.5482 33.9642 32.4096 33.9642 32.188C33.9642 31.9386 33.9365 31.8001 33.9365 31.6893C33.9365 31.6062 33.9088 31.5507 33.9088 31.4122C33.9088 31.3568 33.9088 31.3568 33.9365 31.3014C33.9919 31.1351 34.0196 30.9412 34.0196 30.6364C34.0196 30.3317 33.9642 30.1377 33.9365 29.9715C33.9088 29.9161 33.9088 29.9161 33.9088 29.8607C33.9088 29.8052 33.9088 29.8052 33.9365 29.7221C33.9642 29.5559 34.0196 29.3619 34.0196 29.0849C34.0196 28.8909 34.0196 28.7801 34.0196 28.697C34.0196 28.6139 34.0196 28.503 34.0196 28.3091C34.0196 28.0597 34.0196 27.9212 33.9919 27.8104C33.9919 27.755 33.9919 27.7273 33.9919 27.6719C33.9919 27.6164 33.9088 27.5887 33.8257 27.561C33.7425 27.5333 33.6317 27.4779 33.5486 27.4779C33.4655 27.4779 33.3547 27.4779 33.2992 27.4779C33.2161 27.4779 33.133 27.4779 33.0222 27.4779C32.9114 27.4779 32.662 27.4779 32.5235 27.5056C32.4403 27.5056 32.4403 27.5333 32.3572 27.5333C32.2741 27.561 32.1633 27.5887 32.0802 27.6164C31.997 27.6441 31.8308 27.6441 31.8308 27.7273C31.8308 27.8104 31.8308 27.9489 31.8585 28.032C31.8585 28.1152 31.8862 28.1706 31.8862 28.3091C31.8862 28.503 31.8862 28.6139 31.8862 28.697C31.8862 28.7801 31.8862 28.8909 31.8862 29.0849C31.8862 29.1403 31.8862 29.1403 31.8585 29.2234C31.8308 29.3896 31.7754 29.5836 31.7754 29.8607C31.7754 30.1654 31.8308 30.3594 31.8585 30.5256C31.8862 30.581 31.8862 30.581 31.8862 30.6364C31.8862 30.6918 31.8862 30.6918 31.8585 30.7473C31.8031 30.9135 31.7754 31.1074 31.7754 31.4122C31.7754 31.6616 31.8031 31.8001 31.8031 31.9109C31.8031 31.994 31.8308 32.0495 31.8308 32.188C31.8308 32.3265 31.8308 32.4096 31.8308 32.4928C31.8308 32.6036 31.8031 32.7421 31.8031 32.9638C31.8031 33.1577 31.8031 33.2408 31.8031 33.3239C31.8031 33.4348 31.8031 33.5179 31.8031 33.7395C31.8031 34.0166 31.8308 34.1551 31.8308 34.266C31.8308 34.3491 31.8585 34.4045 31.8585 34.5153C31.8585 34.6539 31.8585 34.7093 31.8308 34.7924C31.8308 34.9032 31.8031 35.0417 31.8031 35.2911V36.0669C31.8031 36.2608 31.8031 36.3716 31.8031 36.4825C31.8031 36.5656 31.8031 36.6764 31.8031 36.8427C31.8031 37.0366 31.8031 37.1197 31.8031 37.2305C31.8031 37.3414 31.8031 37.4245 31.8031 37.6461C31.8031 37.9232 31.8308 38.1171 31.8585 38.2557C31.8862 38.3111 31.8862 38.3388 31.8862 38.4219C31.8862 38.5604 31.8862 38.6159 31.8585 38.699C31.8585 38.8098 31.8308 38.9483 31.8308 39.1977C31.8308 39.4193 31.8308 39.5579 31.8585 39.6687C31.8585 39.7518 31.8585 39.8349 31.8585 39.9735C31.8585 40.1397 31.8585 40.2505 31.8585 40.3337C31.8585 40.3614 31.8585 40.3891 31.8585 40.4168C31.8308 40.3891 31.8308 40.3891 31.8031 40.3614C31.72 40.2782 31.6369 40.1674 31.4706 39.9735C31.3044 39.7795 31.1936 39.6964 31.0827 39.6133C31.0273 39.5579 30.9719 39.5025 30.8611 39.4193C30.7503 39.2808 30.6671 39.2254 30.6117 39.17C30.5286 39.0869 30.4732 39.0037 30.307 38.8375C30.1407 38.6436 30.0299 38.5604 29.9191 38.4773C29.8637 38.4219 29.8082 38.3665 29.6974 38.2834C29.5589 38.1449 29.5035 38.0894 29.4481 38.0063C29.3649 37.9232 29.3095 37.8401 29.1433 37.6738L28.5892 37.092C28.4506 36.9535 28.3952 36.8981 28.3398 36.8149C28.2567 36.7318 28.2013 36.6487 28.035 36.5102C27.6194 36.0946 26.9268 36.0669 26.5112 36.4825C26.2895 36.7041 26.1787 36.9812 26.1787 37.2583C26.1787 37.5353 26.2895 37.8124 26.4835 38.0063C26.622 38.1449 26.6774 38.2003 26.7328 38.2834C26.816 38.3665 26.8714 38.4496 27.0376 38.5882L27.5917 39.17C27.7303 39.3085 27.7857 39.3639 27.8411 39.4471C27.9242 39.5302 27.9796 39.6133 28.1459 39.7795C28.3121 39.9735 28.4229 40.0566 28.5338 40.1397C28.5892 40.1951 28.6446 40.2505 28.7554 40.3337C28.8662 40.4722 28.9493 40.5276 29.0048 40.583C29.0879 40.6661 29.1433 40.7493 29.3095 40.9155C29.4758 41.1094 29.5866 41.1926 29.6974 41.2757C29.7528 41.3311 29.8082 41.3865 29.9191 41.4696C30.0299 41.5804 30.0576 41.6359 30.113 41.6913C30.1961 41.7744 30.2793 41.8852 30.4455 42.0792C30.5563 42.19 30.6117 42.2454 30.6671 42.3285C30.7503 42.4116 30.8334 42.5225 30.9996 42.6887C31.1104 42.7995 31.1659 42.8549 31.2213 42.9381C31.2767 43.0212 31.3598 43.132 31.526 43.2982C31.526 43.3259 31.5537 43.3259 31.5537 43.3536C31.6646 43.5753 31.997 44.2403 32.9114 44.2403C33.3547 44.2403 33.9642 44.074 34.2967 43.2705C34.2967 43.2705 34.2967 43.2705 34.2967 43.2428C34.3521 43.1874 34.4075 43.1597 34.4629 43.1043C34.546 43.0212 34.6846 42.9381 34.8785 42.7441C35.0725 42.5502 35.1833 42.4393 35.2664 42.3008C35.3218 42.2454 35.3218 42.2177 35.4049 42.1346C35.5158 42.0237 35.5712 41.9683 35.6543 41.9129C35.7374 41.8298 35.8482 41.7467 36.0145 41.5804C36.153 41.4696 36.2084 41.4142 36.2638 41.3311C36.3469 41.248 36.4301 41.1648 36.5963 41.0263C36.7902 40.8324 36.9011 40.6938 36.9842 40.6107C37.0396 40.5553 37.0673 40.4999 37.1504 40.4168L37.7323 39.8626C37.8431 39.7518 37.9262 39.6964 37.9816 39.641C38.0647 39.5579 38.1479 39.4748 38.3141 39.3362C38.4803 39.17 38.5635 39.0869 38.6466 39.0038C38.702 38.9483 38.7574 38.8652 38.8959 38.7544C39.0345 38.6159 39.0899 38.5604 39.173 38.505C39.2561 38.4219 39.3392 38.3665 39.4778 38.2003C39.8934 37.7847 39.8934 37.1197 39.4778 36.6764Z" fill="#6A69FF"/>
<path d="M39.0343 47.7311C38.8404 47.7311 38.7296 47.7034 38.6464 47.7034C38.6187 47.7034 38.591 47.7034 38.5633 47.7034C38.4248 47.7034 38.3694 47.7034 38.2863 47.7034C38.2308 47.7034 38.1754 47.7034 38.0646 47.7034C37.9538 47.7034 37.9261 47.7034 37.8707 47.7034C37.7875 47.7034 37.7321 47.7034 37.5936 47.7034C37.4828 47.7034 37.4551 47.7034 37.3997 47.7034C37.3165 47.7034 37.2611 47.7034 37.1226 47.7034C36.9841 47.7034 36.9009 47.7034 36.8455 47.7034C36.7901 47.7034 36.7624 47.7034 36.6516 47.7034C36.5408 47.7034 36.513 47.7034 36.4576 47.7034C36.3745 47.7034 36.3191 47.7034 36.1806 47.7034C36.1252 47.7034 36.0975 47.7034 36.042 47.7034C35.9589 47.7034 35.8481 47.7311 35.6819 47.7311C35.5433 47.7311 35.4879 47.7311 35.4048 47.7311C35.3494 47.7311 35.294 47.7311 35.1831 47.7311C35.0446 47.7311 34.9615 47.7311 34.9061 47.7311C34.8507 47.7311 34.7953 47.7311 34.7121 47.7311C34.6013 47.7311 34.5459 47.7311 34.4905 47.7311C34.4351 47.7311 34.352 47.7311 34.2134 47.7311C34.0749 47.7311 33.9918 47.7311 33.9364 47.7311C33.8809 47.7311 33.8255 47.7311 33.7424 47.7311C33.6039 47.7311 33.5485 47.7311 33.4653 47.7311C33.4099 47.7311 33.3545 47.7311 33.2437 47.7311C33.1052 47.7311 33.022 47.7311 32.9112 47.7034C32.8558 47.7034 32.8281 47.7034 32.745 47.7034C32.6065 47.7034 32.551 47.7034 32.4956 47.7034C32.4402 47.7034 32.3848 47.7034 32.274 47.7034C32.2463 47.7034 32.2463 47.7034 32.2186 47.7034C32.1077 47.7311 31.9969 47.7588 31.803 47.7588C31.6367 47.7588 31.5259 47.7311 31.4151 47.7311C31.3597 47.7311 31.3597 47.7311 31.3043 47.7311C31.1934 47.7311 31.1657 47.7311 31.1103 47.7311C31.0272 47.7311 30.9718 47.7311 30.8332 47.7311C30.667 47.7311 30.5839 47.7311 30.5285 47.7311C30.4731 47.7311 30.4454 47.7311 30.3622 47.7311C30.3068 47.7311 30.3068 47.7311 30.2514 47.7311C30.1683 47.7588 30.0575 47.7588 29.8635 47.7588C29.7527 47.7588 29.6973 47.7588 29.6419 47.7588C29.5865 47.7588 29.5033 47.7588 29.3648 47.7588C29.2263 47.7588 29.1709 47.7588 29.0877 47.7588C29.0323 47.7588 28.9769 47.7588 28.8661 47.7588C28.6999 47.7588 28.589 47.7311 28.4782 47.7311C28.4228 47.7311 28.4228 47.7311 28.3674 47.7311C28.3397 47.7311 28.312 47.7311 28.2843 47.7311C28.1734 47.7588 28.0626 47.7588 27.8964 47.7588C27.7301 47.7588 27.6193 47.7311 27.5085 47.7311C27.4531 47.7311 27.4531 47.7311 27.3977 47.7311C27.3422 47.7311 27.3145 47.7311 27.2591 47.7311C27.176 47.7311 27.0652 47.7588 26.8989 47.7588C26.4556 47.7588 26.0955 47.3986 26.0955 46.9553C26.0955 46.512 26.4556 46.1519 26.8989 46.1519C26.9544 46.1519 26.9821 46.1519 27.0375 46.1519C27.1206 46.1519 27.2314 46.1241 27.3977 46.1241C27.5639 46.1241 27.6747 46.1519 27.7855 46.1519C27.841 46.1519 27.841 46.1519 27.8964 46.1519C27.9241 46.1519 27.9518 46.1519 27.9795 46.1519C28.0903 46.1241 28.2011 46.1241 28.3674 46.1241C28.5336 46.1241 28.6444 46.1519 28.7553 46.1519C28.8107 46.1519 28.8107 46.1519 28.8661 46.1519C29.0046 46.1519 29.06 46.1519 29.1432 46.1519C29.1986 46.1519 29.254 46.1519 29.3648 46.1519C29.4756 46.1519 29.531 46.1519 29.5865 46.1519C29.6419 46.1519 29.725 46.1519 29.8635 46.1519C29.9189 46.1519 29.9189 46.1519 29.9743 46.1519C30.0575 46.1241 30.1683 46.1241 30.3622 46.1241C30.5285 46.1241 30.6116 46.1241 30.667 46.1241C30.7224 46.1241 30.7501 46.1241 30.8332 46.1241C30.9441 46.1241 30.9718 46.1241 31.0272 46.1241C31.1103 46.1241 31.1657 46.1241 31.3043 46.1241C31.4705 46.1241 31.5813 46.1519 31.6921 46.1519C31.7476 46.1519 31.7476 46.1519 31.803 46.1519C31.8307 46.1519 31.8307 46.1519 31.8584 46.1519C31.9692 46.1241 32.08 46.0964 32.274 46.0964C32.4125 46.0964 32.4679 46.0964 32.5233 46.0964C32.5787 46.0964 32.6342 46.0964 32.745 46.0964C32.8835 46.0964 32.9666 46.0964 33.0775 46.1241C33.1329 46.1241 33.1606 46.1241 33.2437 46.1241C33.3822 46.1241 33.4376 46.1241 33.5208 46.1241C33.5762 46.1241 33.6316 46.1241 33.7424 46.1241C33.8809 46.1241 33.9641 46.1241 34.0195 46.1241C34.0749 46.1241 34.1303 46.1241 34.2134 46.1241C34.3242 46.1241 34.3797 46.1241 34.4351 46.1241C34.4905 46.1241 34.5736 46.1241 34.7121 46.1241C34.8507 46.1241 34.9338 46.1241 34.9892 46.1241C35.0446 46.1241 35.1 46.1241 35.1831 46.1241C35.3217 46.1241 35.3771 46.1241 35.4602 46.1241C35.5156 46.1241 35.571 46.1241 35.6819 46.1241C35.7373 46.1241 35.765 46.1241 35.8204 46.1241C35.9035 46.1241 36.0143 46.0964 36.1806 46.0964C36.2914 46.0964 36.3191 46.0964 36.3745 46.0964C36.4576 46.0964 36.513 46.0964 36.6516 46.0964C36.7901 46.0964 36.8732 46.0964 36.9286 46.0964C36.9841 46.0964 37.0118 46.0964 37.1226 46.0964C37.2334 46.0964 37.2611 46.0964 37.3165 46.0964C37.3996 46.0964 37.4551 46.0964 37.5936 46.0964C37.7044 46.0964 37.7321 46.0964 37.7875 46.0964C37.8707 46.0964 37.9261 46.0964 38.0646 46.0964C38.2031 46.0964 38.2585 46.0964 38.3417 46.0964C38.3971 46.0964 38.4525 46.0964 38.5633 46.0964C38.7573 46.0964 38.8681 46.1241 38.9512 46.1241C38.9789 46.1241 39.0066 46.1241 39.0343 46.1241C39.4776 46.1241 39.8378 46.4843 39.8378 46.9276C39.8378 47.3709 39.4776 47.7311 39.0343 47.7311Z" fill="#6A69FF"/>
<g opacity="0.85">
<g clip-path="url(#clip2_9155_11949)">
<path d="M63.6739 43.7289C63.9163 43.7289 64.1146 43.8785 64.1146 44.0615C64.1146 44.2445 63.9163 44.3942 63.6739 44.3942C63.4315 44.3942 63.2331 44.2445 63.2331 44.0615C63.2331 43.8785 63.4315 43.7289 63.6739 43.7289ZM61.9109 44.0615C61.9109 44.2445 62.1093 44.3942 62.3517 44.3942C62.5941 44.3942 62.7924 44.2445 62.7924 44.0615C62.7924 43.8785 62.5941 43.7289 62.3517 43.7289C62.1093 43.7289 61.9109 43.8785 61.9109 44.0615ZM60.5887 44.0615C60.5887 44.2445 60.787 44.3942 61.0294 44.3942C61.2718 44.3942 61.4702 44.2445 61.4702 44.0615C61.4702 43.8785 61.2718 43.7289 61.0294 43.7289C60.787 43.7289 60.5887 43.8785 60.5887 44.0615ZM61.4702 43.0635C61.4702 42.8806 61.2718 42.7309 61.0294 42.7309C60.787 42.7309 60.5887 42.8806 60.5887 43.0635C60.5887 43.2465 60.787 43.3962 61.0294 43.3962C61.2718 43.3962 61.4702 43.2465 61.4702 43.0635ZM61.9109 43.0635C61.9109 43.2465 62.1093 43.3962 62.3517 43.3962C62.5941 43.3962 62.7924 43.2465 62.7924 43.0635C62.7924 42.8806 62.5941 42.7309 62.3517 42.7309C62.1093 42.7309 61.9109 42.8806 61.9109 43.0635ZM63.2331 43.0635C63.2331 43.2465 63.4315 43.3962 63.6739 43.3962C63.9163 43.3962 64.1146 43.2465 64.1146 43.0635C64.1146 42.8806 63.9163 42.7309 63.6739 42.7309C63.4315 42.7309 63.2331 42.8806 63.2331 43.0635Z" fill="#B8BCC0"/>
</g>
<path d="M57.1445 19.7537C57.1445 18.7829 57.9315 17.996 58.9022 17.996H67.4913V43.876C67.4913 46.7332 65.1751 49.0494 62.3179 49.0494C59.4607 49.0494 57.1445 46.7332 57.1445 43.876V19.7537Z" fill="#6A69FF"/>
<rect x="61.2179" y="20.746" width="2.2" height="16.5601" rx="1.1" fill="white"/>
<rect x="59.4027" y="46.2352" width="5.82353" height="5.82353" rx="2.91176" transform="rotate(-90 59.4027 46.2352)" fill="white"/>
</g>
</g>
</g>
<defs>
<clipPath id="clip0_9155_11949">
<rect width="88" height="62.1176" fill="white" transform="translate(0 0.941162)"/>
</clipPath>
<clipPath id="clip1_9155_11949">
<rect width="78.9412" height="62.7647" fill="white" transform="translate(4.52941 0.941162)"/>
</clipPath>
<clipPath id="clip2_9155_11949">
<rect width="3.99188" height="5.28889" fill="white" transform="matrix(0 -1 1 0 59.7072 45.5585)"/>
</clipPath>
</defs>
</svg>
