<svg width="136" height="96" viewBox="0 0 136 96" fill="none" xmlns="http://www.w3.org/2000/svg">
<path d="M92.1809 72.0774C91.1901 72.0774 91.1901 71.9734 90.1992 71.9734C89.2084 71.9734 89.2084 72.0336 88.2176 72.0336C87.2268 72.0336 87.2268 72.0336 86.2359 72.0336C85.2451 72.0336 85.2396 72.0336 84.2488 72.0336C83.2579 72.0336 83.258 72.1376 82.2671 72.1376C81.2763 72.1376 81.2763 71.9132 80.2855 71.9132H78.3038C77.313 71.9132 77.313 71.9624 76.3221 71.9624C75.3313 71.9624 75.3258 71.9186 74.335 71.9186C73.3442 71.9186 73.3442 72.1103 72.3533 72.1103C71.3625 72.1103 71.3625 72.1103 70.3717 72.1103C69.3808 72.1103 69.3753 72.0555 68.3845 72.0555C67.3937 72.0555 67.3937 72.0281 66.4029 72.0281C65.412 72.0281 65.412 72.1376 64.4212 72.1376C63.4304 72.1376 63.4249 71.8803 62.434 71.8803C61.4432 71.8803 61.4432 72.0062 60.4524 72.0062C59.4616 72.0062 59.4616 71.9077 58.4652 71.9077C57.4689 71.9077 57.4744 71.9077 56.4836 71.9077C55.4928 71.9077 55.4928 72.061 54.5019 72.061C53.5111 72.061 53.5056 72.0938 52.5148 72.0938C51.5239 72.0938 51.524 71.9679 50.5331 71.9679C49.5423 71.9679 49.5368 71.8968 48.546 71.8968C47.5551 71.8968 47.5551 72.0446 46.5643 72.0446C45.5735 72.0446 45.568 71.9734 44.5772 71.9734C43.5863 71.9734 43.5863 72.0555 42.5955 72.0555H40.6138C39.6175 72.0555 39.6175 71.9843 38.6267 71.9843C37.6359 71.9843 37.6359 72.1321 36.645 72.1321C35.6542 72.1321 35.6542 72.0719 34.6579 72.0719C33.6616 72.0719 33.6671 71.9241 32.6762 71.9241C31.6854 71.9241 31.6799 72.061 30.6891 72.061C29.6983 72.061 29.6983 71.9241 28.702 71.9241C27.7057 71.9241 27.7111 72.0883 26.7203 72.0883C25.7295 72.0883 25.724 72.0226 24.7332 72.0226C23.7423 72.0226 23.7423 71.9679 22.746 71.9679C21.7497 71.9679 21.7552 72.0883 20.7589 72.0883C19.7626 72.0883 19.7681 71.946 18.7717 71.946C17.7754 71.946 17.7754 72.1048 16.7846 72.1048C16.5058 72.088 16.2439 71.9653 16.0526 71.7618C15.8612 71.5582 15.7549 71.2893 15.7555 71.0099C15.7555 70.0355 15.8485 70.0355 15.8485 69.0611C15.8485 68.0867 15.8485 68.0812 15.8485 67.1068C15.8485 66.1324 15.75 66.1324 15.75 65.1525C15.75 64.1726 15.8704 64.1781 15.8704 63.2037C15.8704 62.2293 15.8266 62.2293 15.8266 61.2494C15.8266 60.2695 15.8868 60.275 15.8868 59.2951C15.8868 58.3152 15.8211 58.3207 15.8211 57.3463C15.8211 56.3719 15.8868 56.3664 15.8868 55.392C15.8868 54.4176 15.7938 54.4176 15.7938 53.4377C15.7938 52.4578 15.7938 52.4633 15.7938 51.4889C15.7938 50.5145 15.9252 50.509 15.9252 49.5346C15.9252 48.5602 15.6843 48.5492 15.6843 47.5694C15.6843 46.5895 15.8102 46.5949 15.8102 45.6151C15.8102 44.6352 15.6788 44.6406 15.6788 43.6608C15.6788 42.6809 15.7226 42.6863 15.7226 41.7119C15.7226 40.7375 15.7226 40.732 15.7226 39.7576C15.7226 38.7832 15.9142 38.7832 15.9142 37.8033C15.9142 36.8235 15.8704 36.8289 15.8704 35.8545C15.8704 34.8801 15.7609 34.8747 15.7609 33.9003C15.7609 32.9258 15.7883 32.9258 15.7883 31.946C15.7883 30.9661 15.7883 30.9715 15.7883 29.9917V28.0428C15.7883 27.063 15.6569 27.063 15.6569 26.0885C15.6569 25.1141 15.8485 25.1087 15.8485 24.1342C15.8485 23.1598 15.9142 23.1544 15.9142 22.18C15.9142 21.2055 15.7828 21.2001 15.7828 20.2202C15.7828 19.2403 15.7828 19.2458 15.7828 18.2659C15.7828 17.286 15.7171 17.2915 15.7171 16.3116C15.7171 15.3317 15.6898 15.3372 15.6898 14.3573C15.6898 13.3774 15.7226 13.3774 15.7226 12.403C15.7226 11.4286 15.7609 11.4231 15.7609 10.4432C15.7638 10.176 15.8716 9.9207 16.061 9.73227C16.2505 9.54383 16.5064 9.43742 16.7736 9.436C17.7645 9.436 17.7645 9.47977 18.7553 9.47977C19.7461 9.47977 19.7462 9.57286 20.737 9.57286C21.7278 9.57286 21.7278 9.4086 22.7187 9.4086C23.7095 9.4086 23.7095 9.32103 24.7003 9.32103C25.6911 9.32103 25.6911 9.32103 26.682 9.32103C27.6728 9.32103 27.6728 9.45789 28.6691 9.45789C29.6654 9.45789 29.6599 9.45789 30.6508 9.45789C31.6416 9.45789 31.6416 9.50169 32.6324 9.50169C33.6233 9.50169 33.6233 9.41956 34.6141 9.41956C35.6049 9.41956 35.6049 9.33199 36.6012 9.33199C37.5975 9.33199 37.5921 9.47977 38.5829 9.47977C39.5737 9.47977 39.5738 9.52357 40.5646 9.52357C41.5554 9.52357 41.5554 9.44145 42.5517 9.44145C43.548 9.44145 43.5426 9.5181 44.5334 9.5181C45.5242 9.5181 45.5242 9.33744 46.515 9.33744C47.5059 9.33744 47.5059 9.37028 48.5022 9.37028C49.4985 9.37028 49.493 9.37028 50.4839 9.37028C51.4747 9.37028 51.4747 9.29915 52.4655 9.29915C53.4563 9.29915 53.4618 9.29915 54.4527 9.29915C55.4435 9.29915 55.4435 9.35936 56.4343 9.35936C57.4252 9.35936 57.4306 9.29915 58.4215 9.29915C59.4123 9.29915 59.4123 9.38672 60.4031 9.38672C61.394 9.38672 61.3994 9.45789 62.3903 9.45789H64.4048C65.3956 9.45789 65.3956 9.32651 66.3864 9.32651H68.3736C69.3644 9.32651 69.3644 9.41408 70.3552 9.41408H72.3424C73.3332 9.41408 73.3332 9.34292 74.324 9.34292C75.3149 9.34292 75.3149 9.27723 76.3112 9.27723C77.3075 9.27723 77.302 9.44693 78.2928 9.44693C79.2837 9.44693 79.2892 9.38672 80.28 9.38672C81.2708 9.38672 81.2763 9.38672 82.2671 9.38672C83.258 9.38672 83.258 9.31555 84.2543 9.31555C85.2506 9.31555 85.2451 9.31555 86.2359 9.31555C87.2268 9.31555 87.2322 9.24438 88.2231 9.24438C89.2139 9.24438 89.2194 9.28819 90.2102 9.28819C91.201 9.28819 91.2065 9.32103 92.2028 9.32103C92.4762 9.33451 92.7346 9.44988 92.9271 9.64443C93.1196 9.83897 93.2323 10.0986 93.2429 10.3721C93.2429 11.3465 93.1444 11.3465 93.1444 12.3209C93.1444 13.2953 93.2867 13.3008 93.2867 14.2752C93.2867 15.2496 93.0842 15.2551 93.0842 16.2295C93.0842 17.2039 93.117 17.2039 93.117 18.1783C93.117 19.1527 93.3141 19.1582 93.3141 20.1326C93.3141 21.107 93.2265 21.107 93.2265 22.0869C93.2265 23.0668 93.2867 23.0613 93.2867 24.0357C93.2867 25.0101 93.2867 25.0156 93.2867 25.99C93.2867 26.9644 93.1772 26.9699 93.1772 27.9443C93.1772 28.9187 93.117 28.9187 93.117 29.8986C93.117 30.8785 93.117 30.873 93.117 31.8474C93.117 32.8218 93.117 32.8273 93.117 33.8017C93.117 34.7761 93.1499 34.7816 93.1499 35.756V37.7103C93.1499 38.6847 93.0951 38.6847 93.0951 39.6646C93.0951 40.6445 93.1499 40.639 93.1499 41.6134C93.1499 42.5878 93.2977 42.5933 93.2977 43.5677C93.2977 44.5421 93.2265 44.5421 93.2265 45.5165C93.2265 46.4909 93.3414 46.4964 93.3414 47.4708C93.3414 48.4452 93.2374 48.4507 93.2374 49.4251C93.2374 50.3995 93.2812 50.3995 93.2812 51.3794C93.2812 52.3593 93.325 52.3538 93.325 53.3337C93.325 54.3136 93.2319 54.3081 93.2319 55.288C93.2319 56.2679 93.3141 56.2624 93.3141 57.2423C93.3141 58.2222 93.117 58.2167 93.117 59.1966C93.117 60.1765 93.117 60.171 93.117 61.1509C93.117 62.1308 93.2812 62.1253 93.2812 63.1052C93.2812 64.085 93.221 64.0796 93.221 65.0595C93.221 66.0393 93.1499 66.0339 93.1499 67.0138C93.1499 67.9936 93.325 67.9936 93.325 68.9735C93.325 69.9534 93.0787 69.9534 93.0787 70.9278C93.1037 71.0634 93.0997 71.2027 93.0669 71.3366C93.0341 71.4705 92.9733 71.5959 92.8885 71.7046C92.8036 71.8133 92.6967 71.9027 92.5747 71.9669C92.4527 72.0312 92.3185 72.0689 92.1809 72.0774Z" fill="white"/>
<path d="M92.1809 72.0774C91.1901 72.0774 91.1901 71.9734 90.1993 71.9734C89.2084 71.9734 89.2084 72.0336 88.2176 72.0336C87.2268 72.0336 87.2268 72.0336 86.2359 72.0336C85.2451 72.0336 85.2396 72.0336 84.2488 72.0336C83.258 72.0336 83.258 72.1376 82.2671 72.1376C81.2763 72.1376 81.2763 71.9132 80.2855 71.9132H78.3038C77.313 71.9132 77.313 71.9624 76.3221 71.9624C75.3313 71.9624 75.3258 71.9186 74.335 71.9186C73.3442 71.9186 73.3442 72.1103 72.3533 72.1103C71.3625 72.1103 71.3625 72.1103 70.3717 72.1103C69.3808 72.1103 69.3753 72.0555 68.3845 72.0555C67.3937 72.0555 67.3937 72.0281 66.4029 72.0281C65.412 72.0281 65.412 72.1376 64.4212 72.1376C63.4304 72.1376 63.4249 71.8803 62.434 71.8803C61.4432 71.8803 61.4432 72.0062 60.4524 72.0062C59.4616 72.0062 59.4616 71.9077 58.4652 71.9077C57.4689 71.9077 57.4744 71.9077 56.4836 71.9077C55.4928 71.9077 55.4928 72.061 54.5019 72.061C53.5111 72.061 53.5056 72.0938 52.5148 72.0938C51.5239 72.0938 51.524 71.9679 50.5331 71.9679C49.5423 71.9679 49.5368 71.8967 48.546 71.8967C47.5551 71.8967 47.5551 72.0446 46.5643 72.0446C45.5735 72.0446 45.568 71.9734 44.5772 71.9734C43.5863 71.9734 43.5863 72.0555 42.5955 72.0555H40.6138C39.6175 72.0555 39.6175 71.9843 38.6267 71.9843C37.6359 71.9843 37.6359 72.1321 36.645 72.1321C35.6542 72.1321 35.6542 72.0719 34.6579 72.0719C33.6616 72.0719 33.6671 71.9241 32.6762 71.9241C31.6854 71.9241 31.6799 72.061 30.6891 72.061C29.6983 72.061 29.6983 71.9241 28.702 71.9241C27.7057 71.9241 27.7111 72.0883 26.7203 72.0883C25.7295 72.0883 25.724 72.0226 24.7332 72.0226C23.7423 72.0226 23.7423 71.9679 22.746 71.9679C21.7497 71.9679 21.7552 72.0883 20.7589 72.0883C19.7626 72.0883 19.7681 71.946 18.7717 71.946C17.7754 71.946 17.7754 72.1048 16.7846 72.1048C16.5058 72.088 16.2439 71.9653 16.0526 71.7618C15.8612 71.5582 15.7549 71.2893 15.7555 71.0099C15.7555 70.0355 15.8485 70.0355 15.8485 69.0611C15.8485 68.0867 15.8485 68.0812 15.8485 67.1068C15.8485 66.1324 15.75 66.1324 15.75 65.1525C15.75 64.1726 15.8704 64.1781 15.8704 63.2037C15.8704 62.2293 15.8266 62.2293 15.8266 61.2494C15.8266 60.2695 15.8868 60.275 15.8868 59.2951C15.8868 58.3152 15.8211 58.3207 15.8211 57.3463C15.8211 56.3719 15.8868 56.3664 15.8868 55.392C15.8868 54.4176 15.7938 54.4176 15.7938 53.4377C15.7938 52.4578 15.7938 52.4633 15.7938 51.4889C15.7938 50.5145 15.9252 50.509 15.9252 49.5346C15.9252 48.5602 15.6843 48.5492 15.6843 47.5693C15.6843 46.5895 15.8102 46.5949 15.8102 45.6151C15.8102 44.6352 15.6788 44.6406 15.6788 43.6608C15.6788 42.6809 15.7226 42.6863 15.7226 41.7119C15.7226 40.7375 15.7226 40.732 15.7226 39.7576C15.7226 38.7832 15.9142 38.7832 15.9142 37.8033C15.9142 36.8235 15.8704 36.8289 15.8704 35.8545C15.8704 34.8801 15.7609 34.8747 15.7609 33.9003C15.7609 32.9258 15.7883 32.9258 15.7883 31.946C15.7883 30.9661 15.7883 30.9715 15.7883 29.9917V28.0428C15.7883 27.063 15.6569 27.063 15.6569 26.0885C15.6569 25.1141 15.8485 25.1087 15.8485 24.1342C15.8485 23.1598 15.9142 23.1544 15.9142 22.18C15.9142 21.2055 15.7828 21.2001 15.7828 20.2202C15.7828 19.2403 15.7828 19.2458 15.7828 18.2659C15.7828 17.286 15.7171 17.2915 15.7171 16.3116C15.7171 15.3317 15.6898 15.3372 15.6898 14.3573C15.6898 13.3774 15.7226 13.3774 15.7226 12.403C15.7226 11.4286 15.7609 11.4231 15.7609 10.4432C15.7638 10.176 15.8716 9.9207 16.061 9.73227C16.2505 9.54383 16.5064 9.43742 16.7736 9.436C17.7645 9.436 17.7645 9.47977 18.7553 9.47977C19.7461 9.47977 19.7462 9.57286 20.737 9.57286C21.7278 9.57286 21.7278 9.4086 22.7187 9.4086C23.7095 9.4086 23.7095 9.32103 24.7003 9.32103C25.6911 9.32103 25.6911 9.32103 26.682 9.32103C27.6728 9.32103 27.6728 9.45789 28.6691 9.45789C29.6654 9.45789 29.6599 9.45789 30.6508 9.45789C31.6416 9.45789 31.6416 9.50169 32.6324 9.50169C33.6233 9.50169 33.6233 9.41956 34.6141 9.41956C35.6049 9.41956 35.6049 9.33199 36.6012 9.33199C37.5976 9.33199 37.5921 9.47977 38.5829 9.47977C39.5737 9.47977 39.5738 9.52357 40.5646 9.52357C41.5554 9.52357 41.5554 9.44145 42.5517 9.44145C43.548 9.44145 43.5426 9.5181 44.5334 9.5181C45.5242 9.5181 45.5242 9.33744 46.515 9.33744C47.5059 9.33744 47.5059 9.37028 48.5022 9.37028C49.4985 9.37028 49.493 9.37028 50.4839 9.37028C51.4747 9.37028 51.4747 9.29915 52.4655 9.29915C53.4563 9.29915 53.4618 9.29915 54.4527 9.29915C55.4435 9.29915 55.4435 9.35936 56.4343 9.35936C57.4252 9.35936 57.4306 9.29915 58.4215 9.29915C59.4123 9.29915 59.4123 9.38672 60.4031 9.38672C61.394 9.38672 61.3994 9.45789 62.3903 9.45789H64.4048C65.3956 9.45789 65.3956 9.32651 66.3864 9.32651H68.3736C69.3644 9.32651 69.3644 9.41408 70.3552 9.41408H72.3424C73.3332 9.41408 73.3332 9.34292 74.324 9.34292C75.3149 9.34292 75.3149 9.27723 76.3112 9.27723C77.3075 9.27723 77.302 9.44693 78.2928 9.44693C79.2837 9.44693 79.2892 9.38672 80.28 9.38672C81.2708 9.38672 81.2763 9.38672 82.2671 9.38672C83.258 9.38672 83.258 9.31555 84.2543 9.31555C85.2506 9.31555 85.2451 9.31555 86.2359 9.31555C87.2268 9.31555 87.2322 9.24438 88.2231 9.24438C89.2139 9.24438 89.2194 9.28819 90.2102 9.28819C91.201 9.28819 91.2065 9.32103 92.2028 9.32103C92.4762 9.33451 92.7346 9.44988 92.9271 9.64443C93.1196 9.83897 93.2323 10.0986 93.2429 10.3721C93.2429 11.3465 93.1444 11.3465 93.1444 12.3209C93.1444 13.2953 93.2867 13.3008 93.2867 14.2752C93.2867 15.2496 93.0842 15.2551 93.0842 16.2295C93.0842 17.2039 93.117 17.2039 93.117 18.1783C93.117 19.1527 93.3141 19.1582 93.3141 20.1326C93.3141 21.107 93.2265 21.107 93.2265 22.0869C93.2265 23.0668 93.2867 23.0613 93.2867 24.0357C93.2867 25.0101 93.2867 25.0156 93.2867 25.99C93.2867 26.9644 93.1772 26.9699 93.1772 27.9443C93.1772 28.9187 93.117 28.9187 93.117 29.8986C93.117 30.8785 93.117 30.873 93.117 31.8474C93.117 32.8218 93.117 32.8273 93.117 33.8017C93.117 34.7761 93.1499 34.7816 93.1499 35.756V37.7103C93.1499 38.6847 93.0951 38.6847 93.0951 39.6646C93.0951 40.6445 93.1499 40.639 93.1499 41.6134C93.1499 42.5878 93.2977 42.5933 93.2977 43.5677C93.2977 44.5421 93.2265 44.5421 93.2265 45.5165C93.2265 46.4909 93.3414 46.4964 93.3414 47.4708C93.3414 48.4452 93.2374 48.4507 93.2374 49.4251C93.2374 50.3995 93.2812 50.3995 93.2812 51.3794C93.2812 52.3593 93.325 52.3538 93.325 53.3337C93.325 54.3136 93.232 54.3081 93.232 55.288C93.232 56.2679 93.3141 56.2624 93.3141 57.2423C93.3141 58.2222 93.117 58.2167 93.117 59.1966C93.117 60.1765 93.117 60.171 93.117 61.1509C93.117 62.1308 93.2812 62.1253 93.2812 63.1052C93.2812 64.0851 93.221 64.0796 93.221 65.0595C93.221 66.0393 93.1499 66.0339 93.1499 67.0138C93.1499 67.9936 93.325 67.9936 93.325 68.9735C93.325 69.9534 93.0787 69.9534 93.0787 70.9278C93.1037 71.0634 93.0997 71.2027 93.0669 71.3366C93.0341 71.4705 92.9733 71.5959 92.8885 71.7046C92.8036 71.8133 92.6967 71.9027 92.5747 71.9669C92.4527 72.0312 92.3185 72.0689 92.1809 72.0774Z" stroke="#414C58" stroke-width="0.85" stroke-miterlimit="10" stroke-linecap="round"/>
<path d="M90.4182 7.44887C89.4219 7.44887 89.4219 7.65142 88.4256 7.65142C87.4293 7.65142 87.4293 7.45432 86.4275 7.45432C85.4257 7.45432 85.4312 7.6569 84.4349 7.6569C83.4386 7.6569 83.4386 7.49264 82.4368 7.49264C81.435 7.49264 81.4405 7.63498 80.4442 7.63498C79.4479 7.63498 79.4479 7.63498 78.4516 7.63498H76.448C75.4517 7.63498 75.4517 7.46528 74.45 7.46528C73.4482 7.46528 73.4536 7.46528 72.4573 7.46528C71.461 7.46528 71.461 7.50908 70.4592 7.50908C69.4575 7.50908 69.463 7.50908 68.4666 7.50908C67.4703 7.50908 67.4649 7.50908 66.4685 7.50908C65.4722 7.50908 65.4722 7.50908 64.4759 7.50908C63.4796 7.50908 63.4742 7.56929 62.4779 7.56929C61.4815 7.56929 61.4761 7.52549 60.4798 7.52549C59.4834 7.52549 59.4835 7.52549 58.4817 7.52549C57.4799 7.52549 57.4854 7.57477 56.4891 7.57477C55.4928 7.57477 55.4873 7.44887 54.491 7.44887C53.4947 7.44887 53.4947 7.4872 52.4929 7.4872C51.4911 7.4872 51.4966 7.43791 50.5003 7.43791H48.5296C47.5278 7.43791 47.5278 7.56929 46.5315 7.56929C45.5352 7.56929 45.5352 7.61309 44.5389 7.61309C43.5425 7.61309 43.5371 7.53645 42.5408 7.53645H40.5482C39.5464 7.53645 39.5464 7.48172 38.5501 7.48172C37.5538 7.48172 37.5483 7.48172 36.552 7.48172C35.5557 7.48172 35.5557 7.58025 34.5539 7.58025C33.5521 7.58025 33.5576 7.43243 32.5558 7.43243C31.554 7.43243 31.5595 7.64594 30.5577 7.64594C29.5559 7.64594 29.5614 7.64594 28.5596 7.64594C27.5578 7.64594 27.5633 7.4872 26.5615 7.4872C25.5598 7.4872 25.5652 7.54193 24.5635 7.54193C23.5617 7.54193 23.5672 7.54193 22.5654 7.54193C21.5636 7.54193 21.5636 7.54193 20.5673 7.54193C19.571 7.54193 19.5655 7.60761 18.5637 7.60761C18.209 7.60983 17.8583 7.68372 17.5329 7.82482C17.2074 7.96593 16.9138 8.17134 16.6696 8.42874C16.1044 8.90726 15.7521 9.59035 15.6898 10.3283C15.6898 11.4231 15.7664 11.4231 15.7664 12.518C15.7664 13.6128 15.9087 13.6128 15.9087 14.7077C15.9087 15.8025 15.7336 15.8025 15.7336 16.8973C15.7336 17.9922 15.0329 18.3042 15.7664 19.087C16.4999 19.8698 16.801 18.9556 17.7919 18.9556C18.7827 18.9556 18.7827 19.0542 19.7735 19.0542C20.7644 19.0542 20.7644 18.9392 21.7552 18.9392C22.746 18.9392 22.746 19.1363 23.7368 19.1363C24.7277 19.1363 24.7277 19.087 25.7185 19.087C26.7093 19.087 26.7093 18.9283 27.7057 18.9283C28.702 18.9283 28.6965 19.1801 29.6873 19.1801C30.6781 19.1801 30.6782 18.9447 31.669 18.9447C32.6598 18.9447 32.6598 18.9173 33.6507 18.9173C34.6415 18.9173 34.647 19.1308 35.6378 19.1308C36.6286 19.1308 36.6286 18.9392 37.6195 18.9392C38.6103 18.9392 38.6103 19.0925 39.6011 19.0925C40.592 19.0925 40.5974 18.9228 41.5883 18.9228H43.5699C44.5608 18.9228 44.5608 19.1473 45.5571 19.1473H47.5387C48.5296 19.1473 48.5296 19.1856 49.5259 19.1856C50.5222 19.1856 50.5167 19.0049 51.5075 19.0049C52.4984 19.0049 52.4984 18.9721 53.4892 18.9721C54.48 18.9721 54.4855 19.0542 55.4763 19.0542C56.4672 19.0542 56.4672 18.9502 57.458 18.9502C58.4488 18.9502 58.4543 19.1801 59.4451 19.1801C60.436 19.1801 60.436 19.1089 61.4323 19.1089H63.4139C64.4048 19.1089 64.4048 19.1582 65.4011 19.1582C66.3974 19.1582 66.3919 19.0104 67.3827 19.0104C68.3736 19.0104 68.3736 19.0104 69.3644 19.0104C70.3552 19.0104 70.3552 19.098 71.3515 19.098H73.3332C74.3295 19.098 74.3295 18.9994 75.3204 18.9994C76.3112 18.9994 76.3112 19.098 77.302 19.098C78.2928 19.098 78.2983 18.9776 79.2892 18.9776C80.28 18.9776 80.2855 19.1527 81.2763 19.1527C82.2671 19.1527 82.2671 19.1527 83.2634 19.1527C84.2597 19.1527 84.2543 19.0925 85.2506 19.0925C86.2469 19.0925 86.2414 18.9502 87.2322 18.9502C88.2231 18.9502 88.2285 19.0433 89.2194 19.0433C90.2102 19.0433 90.2157 19.1035 91.212 19.1035C92.2083 19.1035 92.5751 19.8206 93.2484 19.1035C93.9217 18.3863 93.3086 17.9758 93.3086 16.9138C93.3086 15.8518 93.3086 15.8189 93.3086 14.7241C93.3086 13.6292 93.1225 13.6292 93.1225 12.5344C93.1225 11.4396 93.0623 11.4396 93.0623 10.3447C93.1295 9.61536 92.9051 8.88907 92.4382 8.32473C91.9038 7.78213 91.1796 7.46814 90.4182 7.44887Z" fill="#ECECFF"/>
<path d="M90.4182 7.44887C89.4219 7.44887 89.4219 7.65142 88.4256 7.65142C87.4293 7.65142 87.4293 7.45432 86.4275 7.45432C85.4257 7.45432 85.4312 7.6569 84.4349 7.6569C83.4386 7.6569 83.4386 7.49264 82.4368 7.49264C81.435 7.49264 81.4405 7.63498 80.4442 7.63498C79.4479 7.63498 79.4479 7.63498 78.4516 7.63498H76.448C75.4517 7.63498 75.4517 7.46528 74.45 7.46528C73.4482 7.46528 73.4536 7.46528 72.4573 7.46528C71.461 7.46528 71.461 7.50908 70.4592 7.50908C69.4575 7.50908 69.463 7.50908 68.4666 7.50908C67.4703 7.50908 67.4649 7.50908 66.4685 7.50908C65.4722 7.50908 65.4722 7.50908 64.4759 7.50908C63.4796 7.50908 63.4742 7.56929 62.4779 7.56929C61.4815 7.56929 61.4761 7.52549 60.4798 7.52549C59.4834 7.52549 59.4835 7.52549 58.4817 7.52549C57.4799 7.52549 57.4854 7.57477 56.4891 7.57477C55.4928 7.57477 55.4873 7.44887 54.491 7.44887C53.4947 7.44887 53.4947 7.4872 52.4929 7.4872C51.4911 7.4872 51.4966 7.43791 50.5003 7.43791H48.5296C47.5278 7.43791 47.5278 7.56929 46.5315 7.56929C45.5352 7.56929 45.5352 7.61309 44.5389 7.61309C43.5425 7.61309 43.5371 7.53645 42.5408 7.53645H40.5482C39.5464 7.53645 39.5464 7.48172 38.5501 7.48172C37.5538 7.48172 37.5483 7.48172 36.552 7.48172C35.5557 7.48172 35.5557 7.58025 34.5539 7.58025C33.5521 7.58025 33.5576 7.43243 32.5558 7.43243C31.554 7.43243 31.5595 7.64594 30.5577 7.64594C29.5559 7.64594 29.5614 7.64594 28.5596 7.64594C27.5578 7.64594 27.5633 7.4872 26.5615 7.4872C25.5598 7.4872 25.5652 7.54193 24.5635 7.54193C23.5617 7.54193 23.5672 7.54193 22.5654 7.54193C21.5636 7.54193 21.5636 7.54193 20.5673 7.54193C19.571 7.54193 19.5655 7.60761 18.5637 7.60761C18.209 7.60983 17.8583 7.68372 17.5329 7.82482C17.2074 7.96593 16.9138 8.17134 16.6696 8.42874C16.1044 8.90726 15.7521 9.59035 15.6898 10.3283C15.6898 11.4231 15.7664 11.4231 15.7664 12.518C15.7664 13.6128 15.9087 13.6128 15.9087 14.7077C15.9087 15.8025 15.7336 15.8025 15.7336 16.8973C15.7336 17.9922 15.0329 18.3042 15.7664 19.087C16.4999 19.8698 16.801 18.9556 17.7919 18.9556C18.7827 18.9556 18.7827 19.0542 19.7735 19.0542C20.7644 19.0542 20.7644 18.9392 21.7552 18.9392C22.746 18.9392 22.746 19.1363 23.7368 19.1363C24.7277 19.1363 24.7277 19.087 25.7185 19.087C26.7093 19.087 26.7093 18.9283 27.7057 18.9283C28.702 18.9283 28.6965 19.1801 29.6873 19.1801C30.6781 19.1801 30.6782 18.9447 31.669 18.9447C32.6598 18.9447 32.6598 18.9173 33.6507 18.9173C34.6415 18.9173 34.647 19.1308 35.6378 19.1308C36.6286 19.1308 36.6286 18.9392 37.6195 18.9392C38.6103 18.9392 38.6103 19.0925 39.6011 19.0925C40.592 19.0925 40.5974 18.9228 41.5883 18.9228H43.5699C44.5608 18.9228 44.5608 19.1473 45.5571 19.1473H47.5387C48.5296 19.1473 48.5296 19.1856 49.5259 19.1856C50.5222 19.1856 50.5167 19.0049 51.5075 19.0049C52.4984 19.0049 52.4984 18.9721 53.4892 18.9721C54.48 18.9721 54.4855 19.0542 55.4763 19.0542C56.4672 19.0542 56.4672 18.9502 57.458 18.9502C58.4488 18.9502 58.4543 19.1801 59.4451 19.1801C60.436 19.1801 60.436 19.1089 61.4323 19.1089H63.4139C64.4048 19.1089 64.4048 19.1582 65.4011 19.1582C66.3974 19.1582 66.3919 19.0104 67.3827 19.0104C68.3736 19.0104 68.3736 19.0104 69.3644 19.0104C70.3552 19.0104 70.3552 19.098 71.3515 19.098H73.3332C74.3295 19.098 74.3295 18.9994 75.3204 18.9994C76.3112 18.9994 76.3112 19.098 77.302 19.098C78.2928 19.098 78.2983 18.9776 79.2892 18.9776C80.28 18.9776 80.2855 19.1527 81.2763 19.1527C82.2671 19.1527 82.2671 19.1527 83.2634 19.1527C84.2597 19.1527 84.2543 19.0925 85.2506 19.0925C86.2469 19.0925 86.2414 18.9502 87.2322 18.9502C88.2231 18.9502 88.2285 19.0433 89.2194 19.0433C90.2102 19.0433 90.2157 19.1035 91.212 19.1035C92.2083 19.1035 92.5751 19.8206 93.2484 19.1035C93.9217 18.3863 93.3086 17.9758 93.3086 16.9138C93.3086 15.8518 93.3086 15.8189 93.3086 14.7241C93.3086 13.6292 93.1225 13.6292 93.1225 12.5344C93.1225 11.4396 93.0623 11.4396 93.0623 10.3447C93.1295 9.61536 92.9051 8.88907 92.4382 8.32473C91.9038 7.78213 91.1796 7.46814 90.4182 7.44887Z" stroke="#414C58" stroke-width="0.85" stroke-miterlimit="10" stroke-linecap="round"/>
<path d="M82.3547 10.5746C83.0335 11.2534 83.1047 11.1823 83.7889 11.8666C84.4732 12.5509 84.5498 12.4687 85.2287 13.1475C85.9075 13.8263 85.8801 13.8646 86.5644 14.5434C87.2486 15.2223 87.1994 15.277 87.8837 15.9558" fill="#E6E6E6"/>
<path d="M82.3547 10.5746C83.0335 11.2534 83.1047 11.1823 83.7889 11.8666C84.4732 12.5509 84.5498 12.4687 85.2287 13.1475C85.9075 13.8263 85.8801 13.8646 86.5644 14.5434C87.2486 15.2223 87.1994 15.277 87.8837 15.9558" stroke="#414C58" stroke-width="0.85" stroke-miterlimit="10" stroke-linecap="round"/>
<path d="M82.3875 15.9503C83.0663 15.2715 83.1594 15.3646 83.8437 14.6803C84.528 13.996 84.3583 13.8318 85.0371 13.153C85.7159 12.4742 85.8527 12.6056 86.5315 11.9158C87.2103 11.2261 87.1501 11.1713 87.8344 10.4871" fill="#E6E6E6"/>
<path d="M82.3875 15.9503C83.0663 15.2715 83.1594 15.3646 83.8437 14.6803C84.528 13.996 84.3583 13.8318 85.0371 13.153C85.7159 12.4742 85.8527 12.6056 86.5315 11.9158C87.2103 11.2261 87.1501 11.1713 87.8344 10.4871" stroke="#414C58" stroke-width="0.85" stroke-miterlimit="10" stroke-linecap="round"/>
<path d="M24.3445 13.5307C24.3269 14.2205 24.0446 14.8771 23.5562 15.3646C23.2038 15.7438 22.7435 16.0058 22.2375 16.1152C21.7315 16.2245 21.2041 16.1759 20.7265 15.9759C20.249 15.7759 19.8444 15.4342 19.5672 14.997C19.2901 14.5597 19.1538 14.0479 19.1768 13.5307C19.1522 12.8485 19.3892 12.1827 19.8392 11.6695C20.3728 11.2663 21.0419 11.0858 21.7059 11.1659C22.0208 11.153 22.335 11.2052 22.6289 11.3191C22.9227 11.4331 23.1899 11.6064 23.4139 11.8282C23.9362 12.251 24.2706 12.8628 24.3445 13.5307Z" fill="white"/>
<path d="M24.3445 13.5307C24.3269 14.2205 24.0446 14.8771 23.5562 15.3646C23.2038 15.7438 22.7435 16.0058 22.2375 16.1152C21.7315 16.2245 21.2041 16.1759 20.7265 15.9759C20.249 15.7759 19.8444 15.4342 19.5672 14.997C19.2901 14.5597 19.1538 14.0479 19.1768 13.5307C19.1522 12.8485 19.3892 12.1827 19.8392 11.6695C20.3728 11.2663 21.0419 11.0858 21.7059 11.1659C22.0208 11.153 22.335 11.2052 22.6289 11.3191C22.9227 11.4331 23.1899 11.6064 23.4139 11.8282C23.9362 12.251 24.2706 12.8628 24.3445 13.5307Z" stroke="#414C58" stroke-width="0.85" stroke-miterlimit="10" stroke-linecap="round"/>
<path d="M31.8879 13.5307C31.8948 13.8445 31.8366 14.1564 31.7169 14.4466C31.5973 14.7368 31.4188 14.999 31.1927 15.2168C30.9837 15.4663 30.7268 15.6713 30.4372 15.8199C30.1476 15.9685 29.8312 16.0575 29.5067 16.0817C29.1798 16.0624 28.8601 15.9784 28.566 15.8346C28.2719 15.6909 28.0092 15.4902 27.7932 15.2441C27.5573 15.0244 27.3679 14.7595 27.2363 14.4651C27.1046 14.1708 27.0334 13.8531 27.0268 13.5307C26.9972 12.8606 27.2288 12.2051 27.6728 11.7023C28.165 11.2266 28.8221 10.9598 29.5067 10.9578C30.179 10.9829 30.8143 11.2721 31.2748 11.7626C31.4904 12.0011 31.6557 12.2806 31.761 12.5843C31.8663 12.8881 31.9095 13.2099 31.8879 13.5307Z" fill="white"/>
<path d="M31.8879 13.5307C31.8948 13.8445 31.8366 14.1564 31.7169 14.4466C31.5973 14.7368 31.4188 14.999 31.1927 15.2168C30.9837 15.4663 30.7268 15.6713 30.4372 15.8199C30.1476 15.9685 29.8312 16.0575 29.5067 16.0817C29.1798 16.0624 28.8601 15.9784 28.566 15.8346C28.2719 15.6909 28.0092 15.4902 27.7932 15.2441C27.5573 15.0244 27.3679 14.7595 27.2363 14.4651C27.1046 14.1708 27.0334 13.8531 27.0268 13.5307C26.9972 12.8606 27.2288 12.2051 27.6728 11.7023C28.165 11.2266 28.8221 10.9598 29.5067 10.9578C30.179 10.9829 30.8143 11.2721 31.2748 11.7626C31.4904 12.0011 31.6557 12.2806 31.761 12.5843C31.8663 12.8881 31.9095 13.2099 31.8879 13.5307Z" stroke="#414C58" stroke-width="0.85" stroke-miterlimit="10" stroke-linecap="round"/>
<path d="M39.6996 13.5307C39.7132 13.8531 39.6615 14.175 39.5477 14.4769C39.4338 14.7788 39.2602 15.0547 39.0373 15.288C38.8094 15.5218 38.5369 15.7076 38.2361 15.8346C37.9352 15.9615 37.612 16.0269 37.2855 16.027C36.6094 16.0571 35.948 15.8236 35.4407 15.3755C34.9975 14.8667 34.7715 14.2044 34.8112 13.5307C34.8255 12.884 35.0925 12.2687 35.555 11.8164C36.0174 11.3641 36.6387 11.111 37.2855 11.1111C37.9198 11.133 38.522 11.3951 38.9702 11.8444C39.4184 12.2936 39.6792 12.8964 39.6996 13.5307Z" fill="white"/>
<path d="M39.6996 13.5307C39.7132 13.8531 39.6615 14.175 39.5477 14.4769C39.4338 14.7788 39.2602 15.0547 39.0373 15.288C38.8094 15.5218 38.5369 15.7076 38.2361 15.8346C37.9352 15.9615 37.612 16.0269 37.2855 16.027C36.6094 16.0571 35.948 15.8236 35.4407 15.3755C34.9975 14.8667 34.7715 14.2044 34.8112 13.5307C34.8255 12.884 35.0925 12.2687 35.555 11.8164C36.0174 11.3641 36.6387 11.111 37.2855 11.1111C37.9198 11.133 38.522 11.3951 38.9702 11.8444C39.4184 12.2936 39.6792 12.8964 39.6996 13.5307Z" stroke="#414C58" stroke-width="0.85" stroke-miterlimit="10" stroke-linecap="round"/>
<path d="M104.985 79.8289C103.994 79.8289 103.994 79.6483 103.003 79.6483C102.013 79.6483 102.013 79.6921 101.022 79.6921C100.031 79.6921 100.025 79.61 99.0346 79.61C98.0438 79.61 98.0438 79.6592 97.053 79.6592C96.0621 79.6592 96.0621 79.7304 95.0658 79.7304C94.0695 79.7304 94.075 79.61 93.0842 79.61C92.0933 79.61 92.0933 79.8016 91.1025 79.8016C90.1117 79.8016 90.1117 79.703 89.1154 79.703C88.1191 79.703 88.1245 79.7742 87.1337 79.7742H85.1466C84.1557 79.7742 84.1557 79.7742 83.1649 79.7742C82.174 79.7742 82.1741 79.7194 81.1778 79.7194C80.1814 79.7194 80.1869 79.807 79.1961 79.807C78.2052 79.807 78.2053 79.599 77.209 79.599C76.2126 79.599 76.2181 79.7851 75.2273 79.7851C74.2364 79.7851 74.2365 79.61 73.2401 79.61C72.2438 79.61 72.2493 79.61 71.2585 79.61C70.2676 79.61 70.2622 79.7359 69.2713 79.7359C68.2805 79.7359 68.2805 79.7632 67.2842 79.7632C66.2879 79.7632 66.2934 79.7632 65.3025 79.7632C64.3117 79.7632 64.3117 79.8234 63.3154 79.8234C62.3191 79.8234 62.3246 79.5771 61.3337 79.5771C60.3429 79.5771 60.3374 79.7797 59.3466 79.7797C58.3558 79.7797 58.3558 79.7797 57.3594 79.7797C56.3631 79.7797 56.3686 79.6811 55.3778 79.6811C54.387 79.6811 54.387 79.6154 53.3906 79.6154C52.3943 79.6154 52.3998 79.5717 51.409 79.5717C50.4182 79.5717 50.4181 79.7742 49.4218 79.7742C48.4255 79.7742 48.431 79.714 47.4402 79.714C46.4493 79.714 46.4439 79.8234 45.453 79.8234C44.4622 79.8234 44.4567 79.5881 43.4659 79.5881C42.4751 79.5881 42.4751 79.7414 41.4788 79.7414C40.4824 79.7414 40.4879 79.6483 39.4916 79.6483H37.5045C36.5136 79.6483 36.5136 79.714 35.5228 79.714C34.532 79.714 34.5265 79.818 33.5357 79.818C32.5448 79.818 32.5394 79.714 31.5431 79.714C30.5468 79.714 30.5468 79.6209 29.5559 79.6209C29.4306 79.6283 29.305 79.6103 29.1868 79.5678C29.0686 79.5254 28.9602 79.4595 28.8681 79.3741C28.7761 79.2887 28.7022 79.1855 28.6511 79.0708C28.6 78.9561 28.5726 78.8323 28.5706 78.7067C28.5706 77.7323 28.4666 77.7323 28.4666 76.7579C28.4666 75.7835 28.6198 75.7835 28.6198 74.8091C28.6198 73.8347 28.4447 73.8347 28.4447 72.8603C28.4447 71.8859 28.4447 71.8859 28.4447 70.9114C28.4447 69.937 28.6636 69.937 28.6636 68.9626V67.0193C28.6636 66.0449 28.4556 66.0448 28.4556 65.0704C28.4556 64.096 28.4556 64.096 28.4556 63.1216C28.4556 62.1472 28.587 62.1472 28.587 61.1728C28.587 60.1984 28.6308 60.1984 28.6308 59.224C28.6308 58.2496 28.5049 58.2496 28.5049 57.2752C28.5049 56.3008 28.6746 56.3008 28.6746 55.3263C28.6746 54.3519 28.5432 54.3519 28.5432 53.3775C28.5432 52.4031 28.5432 52.4031 28.5432 51.4287C28.5432 50.4543 28.6034 50.4598 28.6034 49.4854C28.6034 48.511 28.6363 48.511 28.6363 47.5366C28.6363 46.5621 28.5103 46.5621 28.5103 45.5877C28.5103 44.6133 28.4611 44.6133 28.4611 43.6389C28.4611 42.6645 28.4282 42.6645 28.4282 41.6901C28.4282 40.7157 28.4282 40.7157 28.4282 39.7413C28.4282 38.7669 28.6089 38.7669 28.6089 37.7925C28.6089 36.8181 28.3735 36.8181 28.3735 35.8436C28.3735 34.8692 28.587 34.8692 28.587 33.8948C28.587 32.9204 28.3735 32.9204 28.3735 31.946C28.3735 30.9716 28.4228 30.9716 28.4228 29.9972C28.4228 29.0228 28.5432 29.0228 28.5432 28.0484C28.5432 27.074 28.5432 27.0685 28.5432 26.0941C28.5432 25.1197 28.5815 25.1197 28.5815 24.1453C28.5815 23.1708 28.5432 23.1708 28.5432 22.191C28.5432 21.2111 28.6034 21.2165 28.6034 20.2367C28.579 19.9719 28.6602 19.7082 28.8294 19.5031C28.9986 19.298 29.2421 19.1682 29.5067 19.1418C30.4975 19.1418 30.4975 19.2239 31.4883 19.2239C32.4791 19.2239 32.4791 19.3717 33.47 19.3717C34.4608 19.3717 34.4608 19.1528 35.4516 19.1528C36.4425 19.1528 36.4425 19.1199 37.4388 19.1199C38.4351 19.1199 38.4296 19.306 39.4204 19.306C40.4113 19.306 40.4113 19.202 41.4021 19.202H45.3709C46.3618 19.202 46.3617 19.3389 47.3581 19.3389H49.3397C50.3306 19.3389 50.3306 19.3389 51.3214 19.3389C52.3122 19.3389 52.3177 19.2404 53.3085 19.2404C54.2994 19.2404 54.2994 19.3553 55.2957 19.3553H57.2773C58.2682 19.3553 58.2682 19.3115 59.259 19.3115C60.2498 19.3115 60.2553 19.1965 61.2461 19.1965C62.237 19.1965 62.237 19.2458 63.2333 19.2458C64.2296 19.2458 64.2241 19.1747 65.2149 19.1747C66.2058 19.1747 66.2112 19.1747 67.2021 19.1747C68.1929 19.1747 68.1929 19.2896 69.1838 19.2896C70.1746 19.2896 70.18 19.3279 71.1709 19.3279C72.1617 19.3279 72.1617 19.2732 73.158 19.2732C74.1543 19.2732 74.1488 19.213 75.1397 19.213C76.1305 19.213 76.136 19.1528 77.1268 19.1528C78.1177 19.1528 78.1177 19.2349 79.1085 19.2349C80.0993 19.2349 80.1048 19.1582 81.0956 19.1582C82.0865 19.1582 82.0865 19.2075 83.0773 19.2075C84.0681 19.2075 84.0736 19.3608 85.0644 19.3608C86.0553 19.3608 86.0553 19.2075 87.0516 19.2075H89.0332C90.0295 19.2075 90.0295 19.1528 91.0204 19.1528C92.0112 19.1528 92.0167 19.1856 93.0075 19.1856C93.9984 19.1856 94.0038 19.2732 94.9947 19.2732H96.9818C97.9726 19.2732 97.9726 19.213 98.9689 19.213C99.9652 19.213 99.9598 19.2732 100.956 19.2732C101.952 19.2732 101.952 19.2349 102.943 19.2349C103.934 19.2349 103.94 19.2842 104.936 19.2842C105.064 19.279 105.192 19.2994 105.312 19.3441C105.432 19.3888 105.542 19.4569 105.636 19.5445C105.73 19.6321 105.805 19.7374 105.858 19.8543C105.911 19.9713 105.94 20.0975 105.943 20.2257C105.943 21.2001 105.981 21.2001 105.981 22.1745C105.981 23.1489 106.042 23.1489 106.042 24.1233C106.042 25.0977 105.921 25.0977 105.921 26.0722C105.921 27.0466 105.965 27.0466 105.965 28.021C105.965 28.9954 105.883 28.9954 105.883 29.9643C105.883 30.9333 105.987 30.9388 105.987 31.9132C105.987 32.8876 105.987 32.8876 105.987 33.862C105.987 34.8364 105.855 34.8364 105.855 35.8108C105.855 36.7852 105.801 36.7852 105.801 37.7596C105.801 38.734 106.025 38.734 106.025 39.7084C106.025 40.6828 105.899 40.6828 105.899 41.6573C105.899 42.6317 105.987 42.6317 105.987 43.6061C105.987 44.5805 105.987 44.5805 105.987 45.5549C105.987 46.5293 106.025 46.5293 106.025 47.5037C106.025 48.4781 105.97 48.4726 105.97 49.4471C105.97 50.4215 105.97 50.4215 105.97 51.3959C105.97 52.3703 105.97 52.3703 105.97 53.3447C105.97 54.3191 105.845 54.3191 105.845 55.2935C105.845 56.2679 105.97 56.2679 105.97 57.2368C105.97 58.2058 105.861 58.2113 105.861 59.1911C105.861 60.171 105.894 60.1601 105.894 61.1345C105.894 62.1089 105.823 62.1089 105.823 63.0888C105.823 64.0687 105.916 64.0632 105.916 65.0376C105.916 66.012 105.839 66.012 105.839 66.9864C105.839 67.9608 105.998 67.9609 105.998 68.9353C105.998 69.9097 106.031 69.9097 106.031 70.8841V72.8383C106.031 73.8128 106.031 73.8128 106.031 74.7872C106.031 75.7616 105.981 75.7616 105.981 76.7415C105.981 77.7213 105.888 77.7159 105.888 78.6958C105.904 78.8296 105.894 78.9653 105.857 79.095C105.82 79.2246 105.758 79.3457 105.674 79.4511C105.589 79.5565 105.485 79.6442 105.367 79.709C105.249 79.7739 105.119 79.8147 104.985 79.8289Z" fill="#C2C2FF"/>
<path d="M104.985 79.8289C103.994 79.8289 103.994 79.6483 103.003 79.6483C102.013 79.6483 102.013 79.6921 101.022 79.6921C100.031 79.6921 100.025 79.61 99.0346 79.61C98.0438 79.61 98.0438 79.6592 97.053 79.6592C96.0621 79.6592 96.0621 79.7304 95.0658 79.7304C94.0695 79.7304 94.075 79.61 93.0842 79.61C92.0933 79.61 92.0933 79.8016 91.1025 79.8016C90.1117 79.8016 90.1117 79.703 89.1154 79.703C88.1191 79.703 88.1245 79.7742 87.1337 79.7742H85.1466C84.1557 79.7742 84.1557 79.7742 83.1649 79.7742C82.174 79.7742 82.1741 79.7194 81.1778 79.7194C80.1814 79.7194 80.1869 79.807 79.1961 79.807C78.2052 79.807 78.2053 79.599 77.2089 79.599C76.2126 79.599 76.2181 79.7851 75.2273 79.7851C74.2364 79.7851 74.2365 79.61 73.2401 79.61C72.2438 79.61 72.2493 79.61 71.2585 79.61C70.2676 79.61 70.2622 79.7359 69.2713 79.7359C68.2805 79.7359 68.2805 79.7632 67.2842 79.7632C66.2879 79.7632 66.2934 79.7632 65.3025 79.7632C64.3117 79.7632 64.3117 79.8234 63.3154 79.8234C62.3191 79.8234 62.3246 79.5771 61.3337 79.5771C60.3429 79.5771 60.3374 79.7797 59.3466 79.7797C58.3558 79.7797 58.3558 79.7797 57.3594 79.7797C56.3631 79.7797 56.3686 79.6811 55.3778 79.6811C54.387 79.6811 54.387 79.6154 53.3906 79.6154C52.3943 79.6154 52.3998 79.5717 51.409 79.5717C50.4182 79.5717 50.4181 79.7742 49.4218 79.7742C48.4255 79.7742 48.431 79.714 47.4402 79.714C46.4493 79.714 46.4439 79.8234 45.453 79.8234C44.4622 79.8234 44.4567 79.5881 43.4659 79.5881C42.4751 79.5881 42.4751 79.7414 41.4788 79.7414C40.4824 79.7414 40.4879 79.6483 39.4916 79.6483H37.5045C36.5136 79.6483 36.5136 79.714 35.5228 79.714C34.532 79.714 34.5265 79.818 33.5357 79.818C32.5448 79.818 32.5394 79.714 31.5431 79.714C30.5468 79.714 30.5468 79.6209 29.5559 79.6209C29.4306 79.6283 29.305 79.6103 29.1868 79.5678C29.0686 79.5254 28.9602 79.4595 28.8681 79.3741C28.7761 79.2887 28.7022 79.1855 28.6511 79.0708C28.6 78.9561 28.5726 78.8323 28.5706 78.7067C28.5706 77.7323 28.4666 77.7323 28.4666 76.7579C28.4666 75.7835 28.6198 75.7835 28.6198 74.8091C28.6198 73.8347 28.4447 73.8347 28.4447 72.8603C28.4447 71.8859 28.4447 71.8859 28.4447 70.9114C28.4447 69.937 28.6636 69.937 28.6636 68.9626V67.0193C28.6636 66.0449 28.4556 66.0448 28.4556 65.0704C28.4556 64.096 28.4556 64.096 28.4556 63.1216C28.4556 62.1472 28.587 62.1472 28.587 61.1728C28.587 60.1984 28.6308 60.1984 28.6308 59.224C28.6308 58.2496 28.5049 58.2496 28.5049 57.2752C28.5049 56.3008 28.6746 56.3008 28.6746 55.3263C28.6746 54.3519 28.5432 54.3519 28.5432 53.3775C28.5432 52.4031 28.5432 52.4031 28.5432 51.4287C28.5432 50.4543 28.6034 50.4598 28.6034 49.4854C28.6034 48.511 28.6363 48.511 28.6363 47.5366C28.6363 46.5621 28.5103 46.5621 28.5103 45.5877C28.5103 44.6133 28.4611 44.6133 28.4611 43.6389C28.4611 42.6645 28.4282 42.6645 28.4282 41.6901C28.4282 40.7157 28.4282 40.7157 28.4282 39.7413C28.4282 38.7669 28.6089 38.7669 28.6089 37.7925C28.6089 36.8181 28.3735 36.8181 28.3735 35.8436C28.3735 34.8692 28.587 34.8692 28.587 33.8948C28.587 32.9204 28.3735 32.9204 28.3735 31.946C28.3735 30.9716 28.4228 30.9716 28.4228 29.9972C28.4228 29.0228 28.5432 29.0228 28.5432 28.0484C28.5432 27.074 28.5432 27.0685 28.5432 26.0941C28.5432 25.1197 28.5815 25.1197 28.5815 24.1453C28.5815 23.1708 28.5432 23.1708 28.5432 22.191C28.5432 21.2111 28.6034 21.2165 28.6034 20.2367C28.579 19.9719 28.6602 19.7082 28.8294 19.5031C28.9986 19.298 29.2421 19.1682 29.5067 19.1418C30.4975 19.1418 30.4975 19.2239 31.4883 19.2239C32.4791 19.2239 32.4791 19.3717 33.47 19.3717C34.4608 19.3717 34.4608 19.1528 35.4516 19.1528C36.4425 19.1528 36.4425 19.1199 37.4388 19.1199C38.4351 19.1199 38.4296 19.306 39.4204 19.306C40.4113 19.306 40.4113 19.202 41.4021 19.202H45.3709C46.3618 19.202 46.3617 19.3389 47.3581 19.3389H49.3397C50.3306 19.3389 50.3306 19.3389 51.3214 19.3389C52.3122 19.3389 52.3177 19.2404 53.3085 19.2404C54.2994 19.2404 54.2994 19.3553 55.2957 19.3553H57.2773C58.2682 19.3553 58.2682 19.3115 59.259 19.3115C60.2498 19.3115 60.2553 19.1965 61.2461 19.1965C62.237 19.1965 62.237 19.2458 63.2333 19.2458C64.2296 19.2458 64.2241 19.1747 65.2149 19.1747C66.2058 19.1747 66.2112 19.1747 67.2021 19.1747C68.1929 19.1747 68.1929 19.2896 69.1838 19.2896C70.1746 19.2896 70.18 19.3279 71.1709 19.3279C72.1617 19.3279 72.1617 19.2732 73.158 19.2732C74.1543 19.2732 74.1488 19.213 75.1397 19.213C76.1305 19.213 76.136 19.1528 77.1268 19.1528C78.1177 19.1528 78.1177 19.2349 79.1085 19.2349C80.0993 19.2349 80.1048 19.1582 81.0956 19.1582C82.0865 19.1582 82.0865 19.2075 83.0773 19.2075C84.0681 19.2075 84.0736 19.3608 85.0644 19.3608C86.0553 19.3608 86.0553 19.2075 87.0516 19.2075H89.0332C90.0295 19.2075 90.0295 19.1528 91.0204 19.1528C92.0112 19.1528 92.0167 19.1856 93.0075 19.1856C93.9983 19.1856 94.0038 19.2732 94.9947 19.2732H96.9818C97.9726 19.2732 97.9726 19.213 98.9689 19.213C99.9652 19.213 99.9598 19.2732 100.956 19.2732C101.952 19.2732 101.952 19.2349 102.943 19.2349C103.934 19.2349 103.94 19.2842 104.936 19.2842C105.064 19.279 105.192 19.2994 105.312 19.3441C105.432 19.3888 105.542 19.4569 105.636 19.5445C105.73 19.6321 105.805 19.7374 105.858 19.8543C105.911 19.9713 105.94 20.0975 105.943 20.2257C105.943 21.2001 105.981 21.2001 105.981 22.1745C105.981 23.1489 106.042 23.1489 106.042 24.1233C106.042 25.0977 105.921 25.0977 105.921 26.0722C105.921 27.0466 105.965 27.0466 105.965 28.021C105.965 28.9954 105.883 28.9954 105.883 29.9643C105.883 30.9333 105.987 30.9388 105.987 31.9132C105.987 32.8876 105.987 32.8876 105.987 33.862C105.987 34.8364 105.855 34.8364 105.855 35.8108C105.855 36.7852 105.801 36.7852 105.801 37.7596C105.801 38.734 106.025 38.734 106.025 39.7084C106.025 40.6828 105.899 40.6828 105.899 41.6573C105.899 42.6317 105.987 42.6317 105.987 43.6061C105.987 44.5805 105.987 44.5805 105.987 45.5549C105.987 46.5293 106.025 46.5293 106.025 47.5037C106.025 48.4781 105.97 48.4726 105.97 49.447C105.97 50.4215 105.97 50.4215 105.97 51.3959C105.97 52.3703 105.97 52.3703 105.97 53.3447C105.97 54.3191 105.845 54.3191 105.845 55.2935C105.845 56.2679 105.97 56.2679 105.97 57.2368C105.97 58.2058 105.861 58.2113 105.861 59.1911C105.861 60.171 105.894 60.1601 105.894 61.1345C105.894 62.1089 105.823 62.1089 105.823 63.0888C105.823 64.0687 105.916 64.0632 105.916 65.0376C105.916 66.012 105.839 66.012 105.839 66.9864C105.839 67.9608 105.998 67.9609 105.998 68.9353C105.998 69.9097 106.031 69.9097 106.031 70.8841V72.8383C106.031 73.8128 106.031 73.8128 106.031 74.7872C106.031 75.7616 105.981 75.7616 105.981 76.7415C105.981 77.7213 105.888 77.7159 105.888 78.6958C105.904 78.8296 105.894 78.9653 105.857 79.095C105.82 79.2246 105.758 79.3457 105.674 79.4511C105.589 79.5565 105.485 79.6442 105.367 79.709C105.249 79.7739 105.119 79.8147 104.985 79.8289Z" stroke="#8180FF" stroke-width="0.85" stroke-miterlimit="10" stroke-linecap="round"/>
<path d="M103.206 17.3572C102.21 17.3572 102.21 17.4119 101.213 17.4119C100.217 17.4119 100.217 17.2915 99.2153 17.2915C98.2135 17.2915 98.219 17.3517 97.2227 17.3517C96.2264 17.3517 96.2264 17.4448 95.2246 17.4448C94.2228 17.4448 94.2283 17.4448 93.232 17.4448L91.2284 17.4612C90.2266 17.4612 90.2266 17.286 89.2303 17.286C88.234 17.286 88.234 17.286 87.2322 17.286C86.2305 17.286 86.2359 17.4995 85.2396 17.4995C84.2433 17.4995 84.2433 17.4174 83.2415 17.4174C82.2398 17.4174 82.2452 17.3736 81.2489 17.3736C80.2526 17.3736 80.2471 17.4557 79.2508 17.4557C78.2545 17.4557 78.2545 17.4557 77.2527 17.4557C76.251 17.4557 76.2564 17.3955 75.2601 17.3955C74.2638 17.3955 74.2583 17.5269 73.262 17.5269C72.2657 17.5269 72.2657 17.5269 71.264 17.5269C70.2622 17.5269 70.2677 17.4667 69.2714 17.4667C68.275 17.4667 68.2696 17.3189 67.2733 17.3189C66.2769 17.3189 66.2769 17.5378 65.2752 17.5378C64.2734 17.5378 64.2789 17.3189 63.2771 17.3189C62.2753 17.3189 62.2808 17.5269 61.2845 17.5269C60.2882 17.5269 60.2827 17.5269 59.2864 17.5269C58.2901 17.5269 58.2901 17.39 57.2938 17.39C56.2975 17.39 56.292 17.3189 55.2957 17.3189C54.2994 17.3189 54.2994 17.5433 53.2976 17.5433C52.2958 17.5433 52.3013 17.4065 51.305 17.4065C50.3087 17.4065 50.3032 17.5105 49.3069 17.5105C48.3106 17.5105 48.3106 17.4612 47.3088 17.4612H45.3107C44.3144 17.4612 44.3144 17.505 43.3126 17.505C42.3108 17.505 42.3163 17.4283 41.3145 17.4283C40.3128 17.4283 40.3182 17.5105 39.3165 17.5105C38.3147 17.5105 38.3201 17.4448 37.3184 17.4448C36.3166 17.4448 36.3221 17.39 35.3203 17.39H33.3222C32.3204 17.39 32.3204 17.3572 31.3186 17.3572C30.5762 17.3853 29.8744 17.7038 29.3643 18.244C29.1283 18.5076 28.9475 18.8159 28.8328 19.1507C28.7181 19.4855 28.6717 19.8398 28.6965 20.1928C28.6965 21.2877 28.6691 21.2877 28.6691 22.3825C28.6691 23.4773 28.5487 23.4773 28.5487 24.5722C28.5487 25.667 28.5815 25.667 28.5815 26.7619C28.5815 27.8567 27.7987 28.1633 28.5323 28.9516C29.2658 29.7398 29.5505 28.8804 30.5468 28.8804C31.5431 28.8804 31.5376 29.0501 32.5284 29.0501C33.5193 29.0501 33.5193 28.864 34.5101 28.864C35.5009 28.864 35.5009 28.8202 36.4918 28.8202C37.4826 28.8202 37.4826 28.9954 38.4734 28.9954C39.4643 28.9954 39.4643 29.0392 40.4606 29.0392C41.4569 29.0392 41.4514 28.7928 42.4422 28.7928C43.4331 28.7928 43.4331 28.8585 44.4239 28.8585C45.4147 28.8585 45.4147 28.8037 46.4056 28.8037C47.3964 28.8037 47.3964 28.9352 48.3927 28.9352C49.389 28.9352 49.3835 28.8421 50.3744 28.8421C51.3652 28.8421 51.3652 28.8092 52.356 28.8092C53.3469 28.8092 53.3523 28.9242 54.3432 28.9242C55.334 28.9242 55.334 28.853 56.3248 28.853C57.3157 28.853 57.3157 28.8037 58.312 28.8037C59.3083 28.8037 59.3028 28.8475 60.2936 28.8475C61.2845 28.8475 61.2845 28.8475 62.2753 28.8475H64.2624C65.2533 28.8475 65.2533 28.9516 66.2441 28.9516C67.2349 28.9516 67.2404 28.9516 68.2312 28.9516C69.2221 28.9516 69.2221 28.9187 70.2129 28.9187C71.2037 28.9187 71.2092 28.9187 72.2 28.9187C73.1909 28.9187 73.1909 28.9625 74.1872 28.9625C75.1835 28.9625 75.178 28.8257 76.1688 28.8257C77.1597 28.8257 77.1597 29.0665 78.156 29.0665C79.1523 29.0665 79.1468 28.8147 80.1376 28.8147C81.1285 28.8147 81.1285 28.8475 82.1193 28.8475C83.1101 28.8475 83.1101 29.0008 84.1065 29.0008C85.1028 29.0008 85.0973 28.9023 86.0881 28.9023C87.0789 28.9023 87.0844 28.9023 88.0753 28.9023C89.0661 28.9023 89.0661 28.864 90.0569 28.864C91.0478 28.864 91.0532 28.9844 92.0441 28.9844C93.0349 28.9844 93.0404 29.0392 94.0312 29.0392C95.022 29.0392 95.022 29.0392 96.0183 29.0392C97.0146 29.0392 97.0092 28.9023 98 28.9023C98.9908 28.9023 98.9963 29.0282 99.9872 29.0282C100.978 29.0282 100.983 28.957 101.974 28.957C102.965 28.957 102.971 29.0227 103.961 29.0227C104.952 29.0227 105.199 29.6304 105.866 28.8968C106.534 28.1633 105.943 27.8896 105.943 26.8057C105.943 25.7218 105.85 25.7108 105.85 24.616C105.85 23.5211 105.85 23.5211 105.85 22.4263C105.85 21.3315 105.938 21.3315 105.938 20.2366C105.926 19.8796 105.844 19.5284 105.694 19.204C105.545 18.8795 105.331 18.5884 105.067 18.348C104.838 18.068 104.555 17.8362 104.236 17.6662C103.916 17.4961 103.566 17.3911 103.206 17.3572Z" fill="#C2C2FF"/>
<path d="M103.206 17.3572C102.21 17.3572 102.21 17.4119 101.213 17.4119C100.217 17.4119 100.217 17.2915 99.2153 17.2915C98.2135 17.2915 98.219 17.3517 97.2227 17.3517C96.2264 17.3517 96.2264 17.4448 95.2246 17.4448C94.2228 17.4448 94.2283 17.4448 93.232 17.4448L91.2284 17.4612C90.2266 17.4612 90.2266 17.286 89.2303 17.286C88.234 17.286 88.234 17.286 87.2322 17.286C86.2305 17.286 86.2359 17.4995 85.2396 17.4995C84.2433 17.4995 84.2433 17.4174 83.2415 17.4174C82.2398 17.4174 82.2452 17.3736 81.2489 17.3736C80.2526 17.3736 80.2471 17.4557 79.2508 17.4557C78.2545 17.4557 78.2545 17.4557 77.2527 17.4557C76.251 17.4557 76.2564 17.3955 75.2601 17.3955C74.2638 17.3955 74.2583 17.5269 73.262 17.5269C72.2657 17.5269 72.2657 17.5269 71.264 17.5269C70.2622 17.5269 70.2677 17.4667 69.2714 17.4667C68.275 17.4667 68.2696 17.3189 67.2733 17.3189C66.2769 17.3189 66.2769 17.5378 65.2752 17.5378C64.2734 17.5378 64.2789 17.3189 63.2771 17.3189C62.2753 17.3189 62.2808 17.5269 61.2845 17.5269C60.2882 17.5269 60.2827 17.5269 59.2864 17.5269C58.2901 17.5269 58.2901 17.39 57.2938 17.39C56.2975 17.39 56.292 17.3189 55.2957 17.3189C54.2994 17.3189 54.2994 17.5433 53.2976 17.5433C52.2958 17.5433 52.3013 17.4065 51.305 17.4065C50.3087 17.4065 50.3032 17.5105 49.3069 17.5105C48.3106 17.5105 48.3106 17.4612 47.3088 17.4612H45.3107C44.3144 17.4612 44.3144 17.505 43.3126 17.505C42.3108 17.505 42.3163 17.4283 41.3145 17.4283C40.3128 17.4283 40.3182 17.5105 39.3165 17.5105C38.3147 17.5105 38.3201 17.4448 37.3184 17.4448C36.3166 17.4448 36.3221 17.39 35.3203 17.39H33.3222C32.3204 17.39 32.3204 17.3572 31.3186 17.3572C30.5762 17.3853 29.8744 17.7038 29.3643 18.244C29.1283 18.5076 28.9475 18.8159 28.8328 19.1507C28.7181 19.4855 28.6717 19.8398 28.6965 20.1928C28.6965 21.2877 28.6691 21.2877 28.6691 22.3825C28.6691 23.4773 28.5487 23.4773 28.5487 24.5722C28.5487 25.667 28.5815 25.667 28.5815 26.7619C28.5815 27.8567 27.7987 28.1633 28.5323 28.9516C29.2658 29.7398 29.5505 28.8804 30.5468 28.8804C31.5431 28.8804 31.5376 29.0501 32.5284 29.0501C33.5193 29.0501 33.5193 28.864 34.5101 28.864C35.5009 28.864 35.5009 28.8202 36.4918 28.8202C37.4826 28.8202 37.4826 28.9954 38.4734 28.9954C39.4643 28.9954 39.4643 29.0392 40.4606 29.0392C41.4569 29.0392 41.4514 28.7928 42.4422 28.7928C43.4331 28.7928 43.4331 28.8585 44.4239 28.8585C45.4147 28.8585 45.4147 28.8037 46.4056 28.8037C47.3964 28.8037 47.3964 28.9352 48.3927 28.9352C49.389 28.9352 49.3835 28.8421 50.3744 28.8421C51.3652 28.8421 51.3652 28.8092 52.356 28.8092C53.3469 28.8092 53.3523 28.9242 54.3432 28.9242C55.334 28.9242 55.334 28.853 56.3248 28.853C57.3157 28.853 57.3157 28.8037 58.312 28.8037C59.3083 28.8037 59.3028 28.8475 60.2936 28.8475C61.2845 28.8475 61.2845 28.8475 62.2753 28.8475H64.2624C65.2533 28.8475 65.2533 28.9516 66.2441 28.9516C67.2349 28.9516 67.2404 28.9516 68.2312 28.9516C69.2221 28.9516 69.2221 28.9187 70.2129 28.9187C71.2037 28.9187 71.2092 28.9187 72.2 28.9187C73.1909 28.9187 73.1909 28.9625 74.1872 28.9625C75.1835 28.9625 75.178 28.8257 76.1688 28.8257C77.1597 28.8257 77.1597 29.0665 78.156 29.0665C79.1523 29.0665 79.1468 28.8147 80.1376 28.8147C81.1285 28.8147 81.1285 28.8475 82.1193 28.8475C83.1101 28.8475 83.1101 29.0008 84.1065 29.0008C85.1028 29.0008 85.0973 28.9023 86.0881 28.9023C87.0789 28.9023 87.0844 28.9023 88.0753 28.9023C89.0661 28.9023 89.0661 28.864 90.0569 28.864C91.0478 28.864 91.0532 28.9844 92.0441 28.9844C93.0349 28.9844 93.0404 29.0392 94.0312 29.0392C95.022 29.0392 95.022 29.0392 96.0183 29.0392C97.0147 29.0392 97.0092 28.9023 98 28.9023C98.9908 28.9023 98.9963 29.0282 99.9871 29.0282C100.978 29.0282 100.983 28.957 101.974 28.957C102.965 28.957 102.971 29.0227 103.961 29.0227C104.952 29.0227 105.199 29.6304 105.866 28.8968C106.534 28.1633 105.943 27.8896 105.943 26.8057C105.943 25.7218 105.85 25.7108 105.85 24.616C105.85 23.5211 105.85 23.5211 105.85 22.4263C105.85 21.3315 105.938 21.3315 105.938 20.2366C105.926 19.8796 105.844 19.5284 105.694 19.204C105.545 18.8795 105.331 18.5884 105.067 18.348C104.838 18.068 104.555 17.8362 104.236 17.6662C103.916 17.4961 103.566 17.3911 103.206 17.3572Z" stroke="#8180FF" stroke-width="0.85" stroke-miterlimit="10" stroke-linecap="round"/>
<path d="M95.23 20.3461C95.9088 21.0304 95.8486 21.0906 96.5274 21.7749C97.2062 22.4592 97.2774 22.388 97.9617 23.0668C98.6459 23.7456 98.6241 23.773 99.3083 24.4518C99.9926 25.1306 99.9543 25.1689 100.639 25.8532" stroke="#8180FF" stroke-width="0.85" stroke-miterlimit="10"/>
<path d="M95.1917 25.8313C95.876 25.1525 95.9691 25.2455 96.6479 24.5612C97.3267 23.877 97.1953 23.7347 97.8631 23.0504C98.531 22.3661 98.6076 22.4318 99.2919 21.753C99.9762 21.0742 99.9105 21.003 100.589 20.3187" stroke="#8180FF" stroke-width="0.85" stroke-miterlimit="10"/>
<path d="M36.9461 23.3953C36.9643 23.7225 36.9175 24.0501 36.8085 24.3592C36.6995 24.6683 36.5305 24.9528 36.3111 25.1963C35.8238 25.6507 35.176 25.8928 34.5101 25.8696C33.8716 25.8182 33.2722 25.5408 32.8197 25.0873C32.3673 24.6339 32.0912 24.034 32.0412 23.3953C32.1009 22.7607 32.3802 22.1668 32.8309 21.7161C33.2816 21.2654 33.8755 20.9861 34.5101 20.9264C34.8399 20.8983 35.1719 20.9431 35.4825 21.0577C35.7931 21.1723 36.0746 21.3539 36.3071 21.5896C36.5396 21.8252 36.7174 22.1091 36.8278 22.4212C36.9383 22.7333 36.9787 23.0659 36.9461 23.3953Z" fill="#8180FF"/>
<path d="M36.9461 23.3953C36.9643 23.7225 36.9175 24.0501 36.8085 24.3592C36.6995 24.6683 36.5305 24.9528 36.3111 25.1963C35.8238 25.6507 35.176 25.8928 34.5101 25.8696C33.8716 25.8182 33.2722 25.5408 32.8197 25.0873C32.3673 24.6339 32.0912 24.034 32.0412 23.3953C32.1009 22.7607 32.3802 22.1668 32.8309 21.7161C33.2816 21.2654 33.8755 20.9861 34.5101 20.9264C34.8399 20.8983 35.1719 20.9431 35.4825 21.0577C35.7931 21.1723 36.0746 21.3539 36.3071 21.5896C36.5396 21.8252 36.7174 22.1091 36.8278 22.4212C36.9383 22.7333 36.9787 23.0659 36.9461 23.3953Z" stroke="#8180FF" stroke-width="0.85" stroke-miterlimit="10" stroke-linecap="round"/>
<path d="M44.9166 23.3953C44.8941 24.0846 44.608 24.739 44.1173 25.2236C43.6183 25.6756 42.9617 25.9135 42.2889 25.886C41.6432 25.8558 41.0329 25.582 40.5809 25.1199C40.129 24.6577 39.8688 24.0415 39.8529 23.3953C39.7964 22.7222 40.0024 22.0533 40.4277 21.5285C40.9532 21.1107 41.6209 20.9143 42.2889 20.9811C42.6097 20.9691 42.9294 21.0226 43.2288 21.1383C43.5281 21.2541 43.8006 21.4297 44.0297 21.6544C44.5418 22.0963 44.8602 22.7213 44.9166 23.3953Z" fill="#8180FF"/>
<path d="M44.9166 23.3953C44.8941 24.0846 44.608 24.739 44.1173 25.2236C43.6183 25.6756 42.9617 25.9135 42.2889 25.886C41.6432 25.8558 41.0329 25.582 40.5809 25.1199C40.129 24.6577 39.8688 24.0415 39.8529 23.3953C39.7964 22.7222 40.0024 22.0533 40.4277 21.5285C40.9532 21.1107 41.6209 20.9143 42.2889 20.9811C42.6097 20.9691 42.9294 21.0226 43.2288 21.1383C43.5281 21.2541 43.8006 21.4297 44.0297 21.6544C44.5418 22.0963 44.8602 22.7213 44.9166 23.3953Z" stroke="#8180FF" stroke-width="0.85" stroke-miterlimit="10" stroke-linecap="round"/>
<path d="M52.5312 23.3952C52.5341 23.717 52.4721 24.036 52.3489 24.3333C52.2257 24.6305 52.0438 24.8998 51.8141 25.1251C51.3788 25.6311 50.7607 25.9441 50.0952 25.9955C49.4134 25.9777 48.7654 25.6949 48.2887 25.2072C47.833 24.7181 47.5891 24.0688 47.6099 23.4007C47.6095 23.0746 47.6742 22.7517 47.8002 22.451C47.9261 22.1502 48.1108 21.8775 48.3434 21.649C48.5772 21.43 48.853 21.2608 49.1541 21.1517C49.4552 21.0425 49.7754 20.9956 50.0952 21.0139C50.7563 20.9483 51.4168 21.1449 51.9345 21.5614C52.3636 22.0722 52.5776 22.7297 52.5312 23.3952Z" fill="#8180FF"/>
<path d="M52.5312 23.3952C52.5341 23.717 52.4721 24.036 52.3489 24.3333C52.2257 24.6305 52.0438 24.8998 51.8141 25.1251C51.3788 25.6311 50.7607 25.9441 50.0952 25.9955C49.4134 25.9777 48.7654 25.6949 48.2887 25.2072C47.833 24.7181 47.5891 24.0688 47.6099 23.4007C47.6095 23.0746 47.6742 22.7517 47.8002 22.451C47.9261 22.1502 48.1108 21.8775 48.3434 21.649C48.5772 21.43 48.853 21.2608 49.1541 21.1517C49.4552 21.0425 49.7754 20.9956 50.0952 21.0139C50.7563 20.9483 51.4168 21.1449 51.9345 21.5614C52.3636 22.0722 52.5776 22.7297 52.5312 23.3952Z" stroke="#8180FF" stroke-width="0.85" stroke-miterlimit="10" stroke-linecap="round"/>
<path d="M32.4737 80.0972C32.3697 80.1032 32.2655 80.0877 32.1677 80.0519C32.0699 80.016 31.9805 79.9604 31.9051 79.8885C31.8296 79.8167 31.7698 79.7301 31.7292 79.6342C31.6885 79.5382 31.6681 79.435 31.669 79.3308C31.8496 78.3564 31.992 78.3892 32.2164 77.4203C32.4408 76.4514 32.2657 76.413 32.4846 75.4441C32.7036 74.4751 32.8404 74.508 33.0594 73.5391C33.2784 72.5701 33.1798 72.5482 33.3988 71.5793C33.6178 70.6104 33.7327 70.6377 33.9462 69.6688C34.1597 68.6999 34.0119 68.6615 34.2309 67.6926C34.4499 66.7237 34.6031 66.762 34.8221 65.793C35.0411 64.8241 35.1068 64.8351 35.3257 63.8716C35.5447 62.9082 35.3257 62.8479 35.5283 61.879C35.7308 60.9101 35.8513 60.932 36.0757 59.963C36.3002 58.9941 36.3549 59.0105 36.5793 58.0416C36.8038 57.0726 36.749 57.0617 36.968 56.0982C37.187 55.1348 37.176 55.1238 37.395 54.1549C37.614 53.186 37.5538 53.175 37.7727 52.206C37.9917 51.2371 38.0683 51.2536 38.2873 50.2846C38.5063 49.3157 38.5391 49.3266 38.7581 48.3577C38.977 47.3887 39.0592 47.4052 39.2781 46.4362C39.4971 45.4673 39.4369 45.4509 39.6558 44.4819C39.8748 43.513 39.8255 43.5021 40.0445 42.5331C40.2635 41.5642 40.3073 41.5752 40.5262 40.6062C40.7452 39.6373 40.685 39.6209 40.904 38.6519C41.1229 37.683 41.1777 37.6939 41.3966 36.725C41.6156 35.756 41.4678 35.7232 41.6868 34.7543C41.9057 33.7853 41.9276 33.7853 42.1466 32.8164C42.3656 31.8475 41.8401 31.4533 42.59 30.7964C43.34 30.1395 43.6411 30.7964 44.61 30.7307C45.5789 30.665 45.5844 30.7307 46.5534 30.676C47.5223 30.6212 47.5113 30.4078 48.4803 30.3366C49.4492 30.2654 49.4656 30.4461 50.4346 30.3749C51.4035 30.3037 51.3926 30.1614 52.3615 30.0902C53.3304 30.0191 53.3304 30.0355 54.2994 29.9643C55.2683 29.8932 55.2683 29.8494 56.2372 29.7782C57.2062 29.707 57.2062 29.6797 58.1751 29.603C59.144 29.5264 59.155 29.729 60.1239 29.6523C61.0929 29.5757 61.0874 29.51 62.0563 29.4388C63.0253 29.3676 63.0362 29.4388 64.0051 29.3841C64.9741 29.3293 64.9577 29.083 65.9266 29.0064C66.8955 28.9297 66.9065 29.1049 67.8754 29.0064C68.8443 28.9078 68.8498 28.9735 69.8188 28.9023C70.7877 28.8312 70.7877 28.8421 71.7621 28.7709C72.7365 28.6998 72.7256 28.6396 73.6945 28.5684C74.6634 28.4972 74.658 28.3768 75.6269 28.3056C76.5958 28.2345 76.6013 28.3056 77.5702 28.24C78.5392 28.1743 78.5447 28.24 79.5136 28.1469C80.4825 28.0538 80.477 27.9334 81.446 27.8568C82.4149 27.7801 82.4204 27.813 83.3893 27.7418C84.3583 27.6707 84.3692 27.7966 85.3436 27.7418C86.318 27.6871 86.6191 26.8057 87.3362 27.4681C88.0534 28.1305 87.2486 28.4972 87.2486 29.4771C87.2486 30.457 87.2486 30.4515 87.2486 31.426C87.2486 32.4004 87.3362 32.4004 87.3362 33.3748C87.3362 34.3492 87.3362 34.3492 87.3362 35.3236C87.3362 36.298 87.2322 36.298 87.2322 37.2724C87.2322 38.2468 87.2979 38.2468 87.2979 39.2267C87.2979 40.2066 87.2979 40.2011 87.2979 41.1755C87.2979 42.1499 87.2979 42.1499 87.2979 43.1243C87.2979 44.0987 87.2979 44.0987 87.2979 45.0732C87.2979 46.0476 87.2049 46.053 87.2049 47.0275C87.2049 48.0019 87.38 48.0019 87.38 48.9763C87.38 49.9507 87.4348 49.9507 87.4348 50.9251C87.4348 51.8995 87.38 51.8995 87.38 52.8739C87.38 53.8483 87.3526 53.8483 87.3526 54.8227C87.3526 55.7971 87.3034 55.7971 87.3034 56.777C87.3034 57.7569 87.4238 57.7514 87.4238 58.7258C87.4238 59.7003 87.4238 59.7003 87.4238 60.6747C87.4238 61.6491 87.3034 61.6491 87.3034 62.6235C87.3034 63.5979 87.3636 63.6034 87.3636 64.5778C87.3636 65.5522 87.4676 65.5522 87.4676 66.5266C87.4676 67.501 87.3526 67.5065 87.3526 68.4809C87.3526 69.4553 87.3198 69.4553 87.3198 70.4352C87.3198 71.4151 87.3198 71.4096 87.3198 72.384C87.3198 73.3584 87.2815 73.3584 87.2815 74.3383C87.2815 75.3182 87.2486 75.3127 87.2486 76.2871C87.2486 77.2615 87.4621 77.267 87.4621 78.2414C87.4621 79.2158 87.9658 79.4348 87.276 80.13C86.5863 80.8252 86.3728 80.3325 85.3929 80.3325C84.413 80.3325 84.413 80.0698 83.4386 80.0698C82.4642 80.0698 82.4587 80.1519 81.4788 80.1519C80.4989 80.1519 80.5044 80.1519 79.5245 80.1519C78.5446 80.1519 78.5446 80.1519 77.5702 80.1519C76.5958 80.1519 76.5904 80.2997 75.6105 80.2997C74.6306 80.2997 74.6306 80.2997 73.6562 80.2997C72.6818 80.2997 72.6763 80.1355 71.6964 80.1355C70.7165 80.1355 70.7165 80.338 69.7421 80.338C68.7677 80.338 68.7622 80.1355 67.7824 80.1355C66.8025 80.1355 66.8079 80.3271 65.8281 80.3271C64.8482 80.3271 64.8482 80.3271 63.8683 80.3271C62.8884 80.3271 62.8939 80.1574 61.914 80.1574C60.9341 80.1574 60.9341 80.13 59.9597 80.13C58.9853 80.13 58.9798 80.2888 58.0054 80.2888C57.031 80.2888 57.0255 80.1738 56.0456 80.1738C55.0658 80.1738 55.0658 80.3654 54.0913 80.3654C53.1169 80.3654 53.1115 80.1355 52.1316 80.1355C51.1517 80.1355 51.1517 80.3107 50.1773 80.3107C49.2029 80.3107 49.1974 80.1136 48.2175 80.1136C47.2376 80.1136 47.2376 80.2285 46.2577 80.2285C45.2779 80.2285 45.2779 80.3654 44.298 80.3654C43.3181 80.3654 43.3236 80.234 42.3437 80.234C41.3638 80.234 41.3638 80.1136 40.3839 80.1136C39.404 80.1136 39.404 80.2176 38.4242 80.2176C37.4443 80.2176 37.4443 80.1848 36.4644 80.1848C35.4845 80.1848 35.49 80.1847 34.5101 80.1355C33.5302 80.0862 33.4536 80.0972 32.4737 80.0972Z" fill="#414C58"/>
<path d="M119.694 89.9562C118.703 89.9562 118.703 89.7755 117.713 89.7755C116.722 89.7755 116.722 89.8193 115.731 89.8193C114.74 89.8193 114.735 89.7373 113.744 89.7373C112.753 89.7373 112.753 89.7865 111.762 89.7865C110.771 89.7865 110.771 89.8577 109.775 89.8577C108.779 89.8577 108.746 89.7208 107.777 89.7208C106.808 89.7208 106.786 89.9179 105.795 89.9179C104.804 89.9179 104.804 89.8193 103.808 89.8193C102.812 89.8193 102.817 89.8905 101.826 89.8905H99.8393C98.8485 89.8905 98.8485 89.8905 97.8577 89.8905C96.8668 89.8905 96.8668 89.8358 95.8705 89.8358C94.8742 89.8358 94.8797 89.9234 93.8889 89.9234C92.898 89.9234 92.898 89.7208 91.9017 89.7208C90.9054 89.7208 90.9109 89.9015 89.9201 89.9015C88.9292 89.9015 88.9292 89.7318 87.9329 89.7318C86.9366 89.7318 86.9421 89.7318 85.9513 89.7318C84.9604 89.7318 84.9549 89.8577 83.9641 89.8577C82.9733 89.8577 82.9733 89.885 81.9825 89.885C80.9916 89.885 80.9862 89.885 79.9953 89.885C79.0045 89.885 79.0045 89.9507 78.0082 89.9507C77.0119 89.9507 76.9955 89.7208 76.0265 89.7208C75.0576 89.7208 75.0302 89.9179 74.0394 89.9179C73.0485 89.9179 73.0485 89.9179 72.0522 89.9179C71.0559 89.9179 71.0614 89.8193 70.0706 89.8193C69.0797 89.8193 69.0797 89.7591 68.0834 89.7591C67.0871 89.7591 67.0926 89.7099 66.1018 89.7099C65.1109 89.7099 65.1109 89.9124 64.1146 89.9124C63.1183 89.9124 63.1238 89.8522 62.133 89.8522C61.1421 89.8522 61.1367 89.9617 60.1458 89.9617C59.155 89.9617 59.155 89.7318 58.1587 89.7318C57.1624 89.7318 57.1679 89.885 56.1715 89.885C55.1752 89.885 55.1807 89.792 54.1844 89.792H52.1973C51.2064 89.792 51.2064 89.8631 50.2156 89.8631C49.2248 89.8631 49.2193 89.9617 48.2285 89.9617C47.2376 89.9617 47.2322 89.8577 46.2359 89.8577C45.2395 89.8577 45.2395 89.7646 44.2487 89.7646C44.1236 89.772 43.9983 89.754 43.8804 89.7115C43.7625 89.669 43.6544 89.603 43.5628 89.5175C43.4712 89.432 43.3979 89.3288 43.3473 89.2142C43.2968 89.0995 43.2701 88.9757 43.2688 88.8504C43.2688 87.876 43.1593 87.876 43.1593 86.9016C43.1593 85.9272 43.3126 85.9272 43.3126 84.9528C43.3126 83.9784 43.1374 83.9784 43.1374 83.0094C43.1374 82.0405 43.1648 82.035 43.1648 81.0606C43.1648 80.0862 43.3783 80.0862 43.3783 79.1118V77.163C43.3783 76.1886 43.1703 76.1886 43.1703 75.2141C43.1703 74.2397 43.1703 74.2397 43.1703 73.2653C43.1703 72.2909 43.3017 72.2909 43.3017 71.3165C43.3017 70.3421 43.34 70.3421 43.34 69.3677C43.34 68.3933 43.2141 68.3988 43.2141 67.4244C43.2141 66.4499 43.3838 66.4499 43.3838 65.4755C43.3838 64.5011 43.2524 64.5011 43.2524 63.5267C43.2524 62.5523 43.2524 62.5523 43.2524 61.5779C43.2524 60.6035 43.3126 60.6035 43.3126 59.6291C43.3126 58.6547 43.3455 58.6546 43.3455 57.6802C43.3455 56.7058 43.2196 56.7058 43.2196 55.7369C43.2196 54.768 43.1703 54.7625 43.1703 53.7881C43.1703 52.8137 43.1374 52.8137 43.1374 51.8393C43.1374 50.8648 43.1374 50.8648 43.1374 49.8904C43.1374 48.916 43.3181 48.916 43.3181 47.9416C43.3181 46.9672 43.0827 46.9672 43.0827 45.9928C43.0827 45.0184 43.2962 45.0184 43.2962 44.044C43.2962 43.0696 43.0827 43.0641 43.0827 42.0897C43.0827 41.1153 43.132 41.1153 43.132 40.1409C43.132 39.1665 43.2524 39.1665 43.2524 38.192C43.2524 37.2176 43.2524 37.2176 43.2524 36.2432C43.2524 35.2688 43.2907 35.2688 43.2907 34.2889C43.2907 33.309 43.2524 33.3145 43.2524 32.3401C43.2524 31.3657 43.3126 31.3602 43.3126 30.3858C43.2882 30.1211 43.3695 29.8574 43.5387 29.6523C43.7079 29.4472 43.9513 29.3173 44.2159 29.291C45.2067 29.291 45.2067 29.3676 46.1975 29.3676C47.1884 29.3676 47.1884 29.5154 48.1792 29.5154C49.17 29.5154 49.17 29.2965 50.1609 29.2965C51.1517 29.2965 51.1517 29.2636 52.148 29.2636C53.1443 29.2636 53.1388 29.4497 54.1297 29.4497C55.1205 29.4497 55.1205 29.3512 56.1113 29.3512H60.0801C61.071 29.3512 61.071 29.488 62.0673 29.488C63.0636 29.488 63.0581 29.488 64.0489 29.488C65.0398 29.488 65.0398 29.488 66.0306 29.488C67.0214 29.488 67.0269 29.395 68.0177 29.395C69.0086 29.395 69.0086 29.51 70.0049 29.51H71.9866C72.9774 29.51 72.9774 29.4607 73.9737 29.4607C74.97 29.4607 74.9645 29.3457 75.9554 29.3457C76.9462 29.3457 76.9462 29.4005 77.9425 29.4005C78.9388 29.4005 78.9333 29.3293 79.9242 29.3293C80.915 29.3293 80.9205 29.3293 81.9113 29.3293C82.9021 29.3293 82.9021 29.4443 83.8984 29.4443C84.8947 29.4443 84.8893 29.488 85.8801 29.488C86.8709 29.488 86.8764 29.4278 87.8672 29.4278C88.8581 29.4278 88.8581 29.3731 89.8544 29.3731C90.8507 29.3731 90.8452 29.3129 91.836 29.3129C92.8269 29.3129 92.8269 29.3895 93.8177 29.3895C94.8085 29.3895 94.814 29.3129 95.8048 29.3129C96.7957 29.3129 96.7957 29.3621 97.7865 29.3621C98.7773 29.3621 98.7828 29.5154 99.7736 29.5154C100.764 29.5154 100.764 29.3676 101.761 29.3676H103.748C104.739 29.3676 104.739 29.3074 105.73 29.3074C106.72 29.3074 106.726 29.3457 107.717 29.3457C108.708 29.3457 108.713 29.4278 109.704 29.4278H111.691C112.682 29.4278 112.682 29.3676 113.678 29.3676C114.674 29.3676 114.669 29.4278 115.665 29.4278C116.662 29.4278 116.662 29.3841 117.652 29.3841C118.643 29.3841 118.649 29.4388 119.645 29.4388C119.773 29.4337 119.901 29.454 120.021 29.4987C120.142 29.5434 120.252 29.6115 120.345 29.6991C120.439 29.7867 120.514 29.892 120.567 30.009C120.62 30.1259 120.649 30.2521 120.652 30.3803C120.652 31.3547 120.691 31.3547 120.691 32.3292C120.691 33.3036 120.751 33.3036 120.751 34.2725C120.751 35.2415 120.63 35.2469 120.63 36.2213C120.63 37.1958 120.674 37.1958 120.674 38.1702C120.674 39.1446 120.592 39.1446 120.592 40.119C120.592 41.0934 120.696 41.0934 120.696 42.0678C120.696 43.0422 120.696 43.0422 120.696 44.0111C120.696 44.9801 120.565 44.9855 120.565 45.96C120.565 46.9344 120.51 46.9344 120.51 47.9088C120.51 48.8832 120.734 48.8832 120.734 49.8576C120.734 50.832 120.608 50.832 120.608 51.8064C120.608 52.7808 120.696 52.7808 120.696 53.7552C120.696 54.7296 120.696 54.7296 120.696 55.704C120.696 56.6785 120.734 56.6785 120.734 57.6529C120.734 58.6273 120.68 58.6273 120.68 59.6017C120.68 60.5761 120.68 60.5761 120.68 61.5451C120.68 62.514 120.68 62.5195 120.68 63.4939C120.68 64.4683 120.554 64.4683 120.554 65.4427C120.554 66.4171 120.68 66.4171 120.68 67.3915C120.68 68.3659 120.57 68.3659 120.57 69.3403C120.57 70.3147 120.603 70.3147 120.603 71.2892C120.603 72.2636 120.532 72.2636 120.532 73.238C120.532 74.2124 120.625 74.2124 120.625 75.1868C120.625 76.1612 120.548 76.1612 120.548 77.1356C120.548 78.11 120.707 78.1155 120.707 79.0899C120.707 80.0643 120.74 80.0643 120.74 81.0387V82.9875C120.74 83.9619 120.74 83.9619 120.74 84.9364C120.74 85.9108 120.691 85.9162 120.691 86.8907C120.691 87.8651 120.598 87.8651 120.598 88.845C120.625 89.1121 120.545 89.3792 120.376 89.5876C120.207 89.796 119.961 89.9286 119.694 89.9562Z" fill="#E6E6E6"/>
<path d="M117.899 27.5283C116.902 27.5283 116.902 27.6213 115.906 27.6213C114.91 27.6213 114.91 27.583 113.908 27.583C112.906 27.583 112.912 27.4954 111.915 27.4954C110.919 27.4954 110.919 27.5885 109.923 27.5885C108.927 27.5885 108.921 27.5885 107.925 27.5885C106.928 27.5885 106.928 27.5392 105.932 27.5392C104.936 27.5392 104.93 27.5392 103.934 27.5392C102.938 27.5392 102.938 27.594 101.936 27.594C100.934 27.594 100.94 27.4735 99.9433 27.4735C98.947 27.4735 98.9471 27.5283 97.9453 27.5283C96.9435 27.5283 96.949 27.6268 95.9527 27.6268C94.9563 27.6268 94.9509 27.6268 93.9546 27.6268H91.962C90.9602 27.6268 90.9602 27.4462 89.9639 27.4462C88.9676 27.4462 88.9675 27.4462 87.9658 27.4462C86.964 27.4462 86.9695 27.6651 85.9677 27.6651C84.9659 27.6651 84.9714 27.583 83.9751 27.583C82.9788 27.583 82.9733 27.5392 81.977 27.5392C80.9807 27.5392 80.9807 27.6159 79.9789 27.6159C78.9771 27.6159 78.9826 27.6159 77.9863 27.6159C76.99 27.6159 76.9845 27.5557 75.9882 27.5557C74.9919 27.5557 74.9864 27.687 73.9901 27.687C72.9938 27.687 72.9938 27.6597 71.9975 27.6597C71.0012 27.6597 70.9957 27.5995 69.9994 27.5995C69.0031 27.5995 69.0031 27.4571 68.0068 27.4571C67.0105 27.4571 67.005 27.6706 66.0087 27.6706C65.0124 27.6706 65.0069 27.4516 64.0106 27.4516C63.0143 27.4516 63.0143 27.6597 62.0125 27.6597C61.0108 27.6597 61.0162 27.6597 60.0145 27.6597C59.0127 27.6597 59.0181 27.5283 58.0163 27.5283C57.0146 27.5283 57.02 27.4571 56.0183 27.4571C55.0165 27.4571 55.022 27.6761 54.0202 27.6761C53.0184 27.6761 53.0239 27.5392 52.0221 27.5392C51.0203 27.5392 51.0258 27.6487 50.024 27.6487C49.0222 27.6487 49.0222 27.5995 48.0259 27.5995H46.0224C45.6723 27.6044 45.3267 27.6785 45.0054 27.8175C44.684 27.9566 44.3934 28.1578 44.1502 28.4096C43.8866 28.6526 43.6743 28.9458 43.5258 29.272C43.3773 29.5983 43.2955 29.9509 43.2853 30.3092C43.2853 31.404 43.3674 31.404 43.3674 32.4989C43.3674 33.5937 43.3017 33.5937 43.3017 34.6885C43.3017 35.7834 43.2469 35.7834 43.2469 36.8782C43.2469 37.9731 42.5243 38.2796 43.2469 39.0679C43.9695 39.8562 44.2761 39.1172 45.2669 39.1172C46.2578 39.1172 46.2578 39.0405 47.2486 39.0405C48.2394 39.0405 48.2394 38.9037 49.2302 38.9037C50.2211 38.9037 50.2211 38.9037 51.2119 38.9037C52.2027 38.9037 52.2027 39.0187 53.1936 39.0187C54.1844 39.0187 54.1844 38.9913 55.1807 38.9913C56.177 38.9913 56.1715 39.046 57.1624 39.046C58.1532 39.046 58.1532 38.9639 59.1441 38.9639C60.1349 38.9639 60.1349 39.1336 61.1257 39.1336C62.1165 39.1336 62.122 38.9475 63.1129 38.9475C64.1037 38.9475 64.1037 38.8982 65.0945 38.8982C66.0854 38.8982 66.0853 39.0734 67.0762 39.0734C68.067 39.0734 68.0725 39.1172 69.0633 39.1172C70.0542 39.1172 70.0542 38.8708 71.045 38.8708C72.0358 38.8708 72.0358 38.9365 73.0321 38.9365C74.0284 38.9365 74.023 38.8873 75.0138 38.8873C76.0046 38.8873 76.0046 39.0132 77.0009 39.0132C77.9972 39.0132 77.9918 38.9256 78.9826 38.9256C79.9734 38.9256 79.9734 38.8928 80.9697 38.8928C81.966 38.8928 81.9606 39.0077 82.9514 39.0077C83.9422 39.0077 83.9422 38.9311 84.9385 38.9311C85.9348 38.9311 85.9294 38.8873 86.9202 38.8873C87.911 38.8873 87.911 38.9311 88.9073 38.9311C89.9036 38.9311 89.8982 38.9311 90.889 38.9311H92.8707C93.8615 38.9311 93.8615 39.0351 94.8523 39.0351H96.834C97.8303 39.0351 97.8303 38.9968 98.8211 38.9968C99.812 38.9968 99.812 38.9968 100.803 38.9968C101.794 38.9968 101.799 39.0405 102.79 39.0405C103.781 39.0405 103.781 38.8982 104.772 38.8982C105.762 38.8982 105.768 39.1391 106.759 39.1391C107.75 39.1391 107.755 38.8928 108.746 38.8928C109.737 38.8928 109.737 38.9256 110.733 38.9256C111.729 38.9256 111.724 39.0734 112.72 39.0734C113.716 39.0734 113.711 38.9803 114.702 38.9803C115.693 38.9803 115.698 38.9803 116.689 38.9803C117.68 38.9803 117.685 38.9365 118.682 38.9365C119.678 38.9365 120.012 39.785 120.685 39.0515C121.358 38.318 120.751 37.9567 120.751 36.8618C120.751 35.767 120.751 35.767 120.751 34.6721C120.751 33.5773 120.614 33.5773 120.614 32.4824C120.614 31.3876 120.74 31.3876 120.74 30.2928C120.716 29.5573 120.404 28.8609 119.869 28.3549C119.613 28.092 119.307 27.8833 118.968 27.7413C118.63 27.5993 118.266 27.5269 117.899 27.5283Z" fill="#59CF94"/>
<path d="M117.899 27.5283C116.902 27.5283 116.902 27.6213 115.906 27.6213C114.91 27.6213 114.91 27.583 113.908 27.583C112.906 27.583 112.912 27.4954 111.915 27.4954C110.919 27.4954 110.919 27.5885 109.923 27.5885C108.927 27.5885 108.921 27.5885 107.925 27.5885C106.928 27.5885 106.928 27.5392 105.932 27.5392C104.936 27.5392 104.93 27.5392 103.934 27.5392C102.938 27.5392 102.938 27.594 101.936 27.594C100.934 27.594 100.94 27.4735 99.9433 27.4735C98.947 27.4735 98.9471 27.5283 97.9453 27.5283C96.9435 27.5283 96.949 27.6268 95.9527 27.6268C94.9563 27.6268 94.9509 27.6268 93.9546 27.6268H91.962C90.9602 27.6268 90.9602 27.4462 89.9639 27.4462C88.9676 27.4462 88.9675 27.4462 87.9658 27.4462C86.964 27.4462 86.9695 27.6651 85.9677 27.6651C84.9659 27.6651 84.9714 27.583 83.9751 27.583C82.9788 27.583 82.9733 27.5392 81.977 27.5392C80.9807 27.5392 80.9807 27.6159 79.9789 27.6159C78.9771 27.6159 78.9826 27.6159 77.9863 27.6159C76.99 27.6159 76.9845 27.5557 75.9882 27.5557C74.9919 27.5557 74.9864 27.687 73.9901 27.687C72.9938 27.687 72.9938 27.6597 71.9975 27.6597C71.0012 27.6597 70.9957 27.5995 69.9994 27.5995C69.0031 27.5995 69.0031 27.4571 68.0068 27.4571C67.0105 27.4571 67.005 27.6706 66.0087 27.6706C65.0124 27.6706 65.0069 27.4516 64.0106 27.4516C63.0143 27.4516 63.0143 27.6597 62.0125 27.6597C61.0108 27.6597 61.0162 27.6597 60.0144 27.6597C59.0127 27.6597 59.0181 27.5283 58.0163 27.5283C57.0146 27.5283 57.02 27.4571 56.0183 27.4571C55.0165 27.4571 55.022 27.6761 54.0202 27.6761C53.0184 27.6761 53.0239 27.5392 52.0221 27.5392C51.0203 27.5392 51.0258 27.6487 50.024 27.6487C49.0222 27.6487 49.0222 27.5995 48.0259 27.5995H46.0224C45.6723 27.6044 45.3267 27.6785 45.0054 27.8175C44.684 27.9566 44.3934 28.1578 44.1502 28.4096C43.8866 28.6526 43.6743 28.9458 43.5258 29.272C43.3773 29.5983 43.2955 29.9509 43.2853 30.3092C43.2853 31.404 43.3674 31.404 43.3674 32.4989C43.3674 33.5937 43.3017 33.5937 43.3017 34.6885C43.3017 35.7834 43.2469 35.7834 43.2469 36.8782C43.2469 37.9731 42.5243 38.2796 43.2469 39.0679C43.9695 39.8562 44.2761 39.1172 45.2669 39.1172C46.2578 39.1172 46.2578 39.0405 47.2486 39.0405C48.2394 39.0405 48.2394 38.9037 49.2302 38.9037C50.2211 38.9037 50.2211 38.9037 51.2119 38.9037C52.2027 38.9037 52.2027 39.0187 53.1936 39.0187C54.1844 39.0187 54.1844 38.9913 55.1807 38.9913C56.177 38.9913 56.1715 39.046 57.1624 39.046C58.1532 39.046 58.1532 38.9639 59.1441 38.9639C60.1349 38.9639 60.1349 39.1336 61.1257 39.1336C62.1165 39.1336 62.122 38.9475 63.1129 38.9475C64.1037 38.9475 64.1037 38.8982 65.0945 38.8982C66.0853 38.8982 66.0853 39.0734 67.0762 39.0734C68.067 39.0734 68.0725 39.1172 69.0633 39.1172C70.0542 39.1172 70.0542 38.8708 71.045 38.8708C72.0358 38.8708 72.0358 38.9365 73.0321 38.9365C74.0284 38.9365 74.023 38.8873 75.0138 38.8873C76.0046 38.8873 76.0046 39.0132 77.0009 39.0132C77.9972 39.0132 77.9918 38.9256 78.9826 38.9256C79.9734 38.9256 79.9734 38.8928 80.9697 38.8928C81.966 38.8928 81.9606 39.0077 82.9514 39.0077C83.9422 39.0077 83.9422 38.9311 84.9385 38.9311C85.9348 38.9311 85.9294 38.8873 86.9202 38.8873C87.911 38.8873 87.911 38.9311 88.9073 38.9311C89.9036 38.9311 89.8982 38.9311 90.889 38.9311H92.8707C93.8615 38.9311 93.8615 39.0351 94.8523 39.0351H96.834C97.8303 39.0351 97.8303 38.9968 98.8211 38.9968C99.812 38.9968 99.812 38.9968 100.803 38.9968C101.794 38.9968 101.799 39.0405 102.79 39.0405C103.781 39.0405 103.781 38.8982 104.772 38.8982C105.762 38.8982 105.768 39.1391 106.759 39.1391C107.75 39.1391 107.755 38.8928 108.746 38.8928C109.737 38.8928 109.737 38.9256 110.733 38.9256C111.729 38.9256 111.724 39.0734 112.72 39.0734C113.716 39.0734 113.711 38.9803 114.702 38.9803C115.693 38.9803 115.698 38.9803 116.689 38.9803C117.68 38.9803 117.685 38.9365 118.682 38.9365C119.678 38.9365 120.012 39.785 120.685 39.0515C121.358 38.318 120.751 37.9567 120.751 36.8618C120.751 35.767 120.751 35.767 120.751 34.6721C120.751 33.5773 120.614 33.5773 120.614 32.4824C120.614 31.3876 120.74 31.3876 120.74 30.2928C120.716 29.5573 120.404 28.8609 119.869 28.3549C119.613 28.092 119.307 27.8833 118.968 27.7413C118.63 27.5993 118.266 27.5269 117.899 27.5283Z" stroke="#59CF94" stroke-width="0.85" stroke-miterlimit="10" stroke-linecap="round"/>
<path d="M109.841 30.5391C110.525 31.2179 110.58 31.1632 111.264 31.842C111.948 32.5208 111.915 32.5482 112.6 33.2324C113.284 33.9167 113.185 34.0097 113.87 34.6886C114.554 35.3674 114.702 35.236 115.381 35.9093" stroke="#414C58" stroke-width="0.85" stroke-miterlimit="10" stroke-linecap="round"/>
<path d="M109.841 35.9312C110.525 35.2524 110.574 35.3071 111.259 34.6228C111.943 33.9386 111.992 33.9988 112.676 33.32C113.361 32.6412 113.306 32.581 113.99 31.9022C114.674 31.2234 114.735 31.2781 115.413 30.5993" stroke="#414C58" stroke-width="0.85" stroke-miterlimit="10" stroke-linecap="round"/>
<path d="M51.8141 33.5225C51.7997 33.8559 51.7198 34.1831 51.5789 34.4856C51.438 34.788 51.2389 35.0597 50.9929 35.2852C50.7589 35.5091 50.4823 35.6836 50.1795 35.7983C49.8767 35.913 49.5538 35.9657 49.2302 35.9531C48.91 35.9583 48.592 35.8984 48.2956 35.777C47.9992 35.6556 47.7305 35.4753 47.5059 35.2469C47.2224 35.0599 46.9898 34.8054 46.8288 34.5064C46.6679 34.2074 46.5836 33.8731 46.5836 33.5335C46.5836 33.1939 46.6679 32.8596 46.8288 32.5605C46.9898 32.2615 47.2224 32.0071 47.5059 31.82C47.7252 31.5841 47.9907 31.3959 48.286 31.2672C48.5813 31.1386 48.8999 31.0721 49.222 31.0721C49.5441 31.0721 49.8628 31.1386 50.1581 31.2672C50.4533 31.3959 50.7189 31.5841 50.9382 31.82C51.4424 32.2505 51.7571 32.862 51.8141 33.5225Z" fill="#E6E6E6"/>
<path d="M51.8141 33.5225C51.7997 33.8559 51.7198 34.1831 51.5789 34.4856C51.438 34.788 51.2389 35.0597 50.9929 35.2852C50.7589 35.5091 50.4823 35.6836 50.1795 35.7983C49.8767 35.913 49.5538 35.9657 49.2302 35.9531C48.91 35.9583 48.592 35.8984 48.2956 35.777C47.9992 35.6556 47.7305 35.4753 47.5059 35.2469C47.2224 35.0599 46.9898 34.8054 46.8288 34.5064C46.6679 34.2074 46.5836 33.8731 46.5836 33.5335C46.5836 33.1939 46.6679 32.8596 46.8288 32.5605C46.9898 32.2615 47.2224 32.0071 47.5059 31.82C47.7252 31.5841 47.9907 31.3959 48.286 31.2672C48.5813 31.1386 48.8999 31.0721 49.222 31.0721C49.5441 31.0721 49.8628 31.1386 50.1581 31.2672C50.4533 31.3959 50.7189 31.5841 50.9382 31.82C51.4424 32.2505 51.7571 32.862 51.8141 33.5225Z" stroke="#414C58" stroke-width="0.85" stroke-miterlimit="10" stroke-linecap="round"/>
<path d="M59.4178 33.5226C59.4668 34.1893 59.2503 34.8485 58.8156 35.3564C58.3232 35.8258 57.6674 36.085 56.9872 36.079C56.656 36.0685 56.3302 35.9925 56.0286 35.8553C55.727 35.7181 55.4555 35.5225 55.23 35.2798C54.998 35.0502 54.8144 34.7764 54.6903 34.4745C54.5662 34.1726 54.504 33.8489 54.5074 33.5226C54.5173 33.2027 54.5923 32.8882 54.7278 32.5983C54.8634 32.3084 55.0566 32.0492 55.2957 31.8365C55.503 31.5796 55.7593 31.3665 56.0497 31.2096C56.3401 31.0526 56.6588 30.955 56.9872 30.9223C57.6773 30.926 58.3396 31.1945 58.8375 31.6723C59.2648 32.1897 59.4731 32.8537 59.4178 33.5226Z" fill="#E6E6E6"/>
<path d="M59.4178 33.5226C59.4668 34.1893 59.2503 34.8485 58.8156 35.3564C58.3232 35.8258 57.6674 36.085 56.9872 36.079C56.656 36.0685 56.3302 35.9925 56.0286 35.8553C55.727 35.7181 55.4555 35.5225 55.23 35.2798C54.998 35.0502 54.8144 34.7764 54.6903 34.4745C54.5662 34.1726 54.504 33.8489 54.5074 33.5226C54.5173 33.2027 54.5923 32.8882 54.7278 32.5983C54.8634 32.3084 55.0566 32.0492 55.2957 31.8365C55.503 31.5796 55.7593 31.3665 56.0497 31.2096C56.3401 31.0526 56.6588 30.955 56.9872 30.9223C57.6773 30.926 58.3396 31.1945 58.8375 31.6723C59.2648 32.1897 59.4731 32.8537 59.4178 33.5226Z" stroke="#414C58" stroke-width="0.85" stroke-miterlimit="10" stroke-linecap="round"/>
<path d="M67.2514 33.5226C67.291 34.1995 67.0651 34.8652 66.6218 35.3783C66.1098 35.825 65.4448 36.0565 64.7661 36.0242C64.445 36.0082 64.1304 35.9272 63.8416 35.7861C63.5527 35.6449 63.2955 35.4466 63.0855 35.2031C62.844 34.9929 62.6485 34.7351 62.511 34.446C62.3735 34.1569 62.297 33.8425 62.2863 33.5226C62.2888 33.1987 62.3565 32.8786 62.4854 32.5814C62.6142 32.2842 62.8016 32.016 63.0362 31.7927C63.5134 31.3679 64.13 31.1332 64.7688 31.1332C65.4077 31.1332 66.0242 31.3679 66.5014 31.7927C66.7353 32.0165 66.9222 32.2849 67.0509 32.5819C67.1797 32.879 67.2479 33.1988 67.2514 33.5226Z" fill="#E6E6E6"/>
<path d="M67.2514 33.5226C67.291 34.1995 67.0651 34.8652 66.6218 35.3783C66.1098 35.825 65.4448 36.0565 64.7661 36.0242C64.445 36.0082 64.1304 35.9272 63.8416 35.7861C63.5527 35.6449 63.2955 35.4466 63.0855 35.2031C62.844 34.9929 62.6485 34.7351 62.511 34.446C62.3735 34.1569 62.297 33.8425 62.2863 33.5226C62.2888 33.1987 62.3565 32.8786 62.4854 32.5814C62.6142 32.2842 62.8016 32.016 63.0362 31.7927C63.5134 31.3679 64.13 31.1332 64.7688 31.1332C65.4077 31.1332 66.0242 31.3679 66.5014 31.7927C66.7353 32.0165 66.9222 32.2849 67.0509 32.5819C67.1797 32.879 67.2479 33.1988 67.2514 33.5226Z" stroke="#414C58" stroke-width="0.85" stroke-miterlimit="10" stroke-linecap="round"/>
<path d="M81.966 76.8728C88.8139 76.8728 94.3651 71.3216 94.3651 64.4737C94.3651 57.6259 88.8139 52.0746 81.966 52.0746C75.1182 52.0746 69.5669 57.6259 69.5669 64.4737C69.5669 71.3216 75.1182 76.8728 81.966 76.8728Z" fill="#E6E6E6"/>
<path d="M81.9606 48.2592C78.8684 48.2592 75.8456 49.1761 73.2746 50.894C70.7035 52.6119 68.6996 55.0537 67.5163 57.9105C66.333 60.7673 66.0234 63.9108 66.6266 66.9436C67.2299 69.9764 68.7189 72.7621 70.9054 74.9486C73.0919 77.1351 75.8777 78.6242 78.9105 79.2274C81.9432 79.8307 85.0868 79.5211 87.9436 78.3378C90.8004 77.1544 93.2421 75.1505 94.96 72.5795C96.678 70.0084 97.5949 66.9857 97.5949 63.8935C97.5949 59.747 95.9477 55.7703 93.0157 52.8383C90.0837 49.9063 86.107 48.2592 81.9606 48.2592ZM81.1449 73.1066V66.6197H76.9954C76.8613 66.6188 76.7297 66.5836 76.6131 66.5173C76.4966 66.451 76.399 66.3559 76.3297 66.241C76.2605 66.1262 76.2219 65.9955 76.2177 65.8614C76.2135 65.7274 76.2438 65.5945 76.3057 65.4756L82.07 54.2425C82.1489 54.0848 82.2789 53.9585 82.439 53.8845C82.599 53.8104 82.7794 53.793 82.9506 53.835C83.1219 53.877 83.2737 53.976 83.3813 54.1157C83.4889 54.2554 83.5457 54.4275 83.5426 54.6037V61.1728H87.5223C87.655 61.1737 87.7853 61.2081 87.9012 61.2727C88.0171 61.3374 88.1148 61.4303 88.1852 61.5427C88.2556 61.6552 88.2965 61.7836 88.3041 61.9161C88.3116 62.0485 88.2857 62.1807 88.2285 62.3005L82.6339 73.4515C82.557 73.6122 82.4277 73.7419 82.2672 73.8191C82.1066 73.8964 81.9246 73.9166 81.751 73.8764C81.5775 73.8362 81.4229 73.738 81.3127 73.598C81.2025 73.4581 81.1433 73.2847 81.1449 73.1066Z" fill="#8180FF"/>
</svg>
