<svg width="136" height="96" viewBox="0 0 136 96" fill="none" xmlns="http://www.w3.org/2000/svg">
<path fill-rule="evenodd" clip-rule="evenodd" d="M88.9408 37.5669C88.016 37.5669 88.016 37.6007 87.0912 37.6007C86.1664 37.6007 86.1664 37.3977 85.2416 37.3977C84.8634 37.4124 84.4912 37.2998 84.1845 37.078C83.8778 36.8561 83.6543 36.5378 83.5499 36.174C83.3864 35.4635 83.0932 34.8038 82.8789 34.1102C82.6646 33.4166 82.5969 32.6722 82.315 32.0012C82.0331 31.3302 81.6327 30.7211 81.3169 30.0727C81.0011 29.4242 80.6966 28.7644 80.3357 28.1385C80.1461 27.7967 80.0722 27.4028 80.125 27.0155C80.1779 26.6283 80.3547 26.2685 80.629 25.99C81.2492 25.3698 81.1929 25.3247 81.8357 24.7044C82.4785 24.0841 82.4842 24.1067 83.1101 23.4807C83.6395 23.0018 83.9578 22.3328 83.9954 21.6198C83.983 20.8959 83.6874 20.2056 83.1721 19.697C82.3883 18.9188 82.2812 19.0259 81.4804 18.2421C80.6797 17.4583 80.8771 17.2779 80.0933 16.494C79.3095 15.7102 79.2812 15.744 78.4974 14.9602C77.964 14.4698 77.2593 14.2086 76.5351 14.2328C76.1831 14.2372 75.8354 14.3112 75.5122 14.4505C75.1889 14.5899 74.8965 14.7919 74.6517 15.0448C74.0878 15.6087 73.9693 15.5354 73.3885 16.1162C72.8077 16.697 72.9825 16.8775 72.4017 17.4639C72.0937 17.7301 71.7085 17.8907 71.3026 17.9222C70.8967 17.9537 70.4914 17.8543 70.1461 17.6387C69.5145 17.2496 68.9337 16.7421 68.274 16.4038C67.6142 16.0655 66.8924 15.8117 66.2045 15.5185C65.5165 15.2253 64.8004 15.0279 64.0898 14.7911C63.3793 14.5542 62.697 14.2272 61.9696 14.058C61.5892 13.982 61.2445 13.7829 60.9887 13.4914C60.7329 13.1999 60.5801 12.8323 60.5542 12.4453C60.5542 11.6445 60.5542 11.6445 60.5542 10.8381C60.5542 10.0318 60.4922 10.0374 60.4922 9.23105C60.5585 8.52899 60.3436 7.82929 59.8945 7.2856C59.3745 6.77562 58.6773 6.48666 57.949 6.47923C56.8212 6.47923 56.8212 6.42285 55.7385 6.42285C54.6559 6.42285 54.6107 6.51306 53.5224 6.51306C52.4341 6.51306 52.3946 6.45104 51.312 6.45104C50.571 6.44863 49.8571 6.72893 49.3157 7.23483C48.8253 7.78213 48.563 8.49643 48.5827 9.23105C48.5827 10.0374 48.7631 10.0374 48.7631 10.8381C48.7631 11.6389 48.5714 11.6445 48.5714 12.4453C48.589 12.8364 48.4784 13.2226 48.2566 13.5452C48.0347 13.8678 47.7136 14.1092 47.3421 14.2328C46.6147 14.4189 45.8422 14.4414 45.1429 14.6783C44.4437 14.9151 43.7163 15.1576 43.0283 15.4452C42.3404 15.7328 41.7257 16.1952 41.0659 16.5335C40.4062 16.8719 39.6957 17.1538 39.0641 17.5429C38.7422 17.7698 38.3536 17.8826 37.9602 17.8632C37.5667 17.8438 37.1911 17.6933 36.8931 17.4357C36.3292 16.8718 36.4081 16.7534 35.8273 16.167C35.2465 15.5805 35.1676 15.6595 34.5811 15.073C34.3634 14.7931 34.0846 14.5666 33.766 14.4107C33.4474 14.2549 33.0975 14.174 32.7428 14.174C32.3882 14.174 32.0382 14.2549 31.7196 14.4107C31.4011 14.5666 31.1223 14.7931 30.9045 15.073C30.1263 15.8568 30.0079 15.7441 29.2128 16.5222C28.4177 17.3004 28.3782 17.2609 27.6001 18.0391C26.8219 18.8173 26.9967 19.0034 26.2129 19.7872C25.9551 20.0145 25.7458 20.2914 25.5975 20.6015C25.4493 20.9115 25.3651 21.2483 25.3501 21.5917C25.3312 22.3076 25.5946 23.0023 26.0832 23.5258C26.7091 24.1517 26.743 24.1179 27.3689 24.7382C27.9948 25.3585 28.0004 25.3529 28.6264 25.9788C28.9048 26.2528 29.0872 26.6096 29.1461 26.9958C29.205 27.382 29.1375 27.777 28.9534 28.1216C28.5925 28.7475 28.1809 29.3509 27.8708 30.005C27.5606 30.6591 27.2279 31.302 26.9629 31.9786C26.6979 32.6553 26.399 33.3094 26.1565 34.0087C25.914 34.7079 25.8125 35.4184 25.649 36.1289C25.572 36.5063 25.3685 36.8462 25.0722 37.0923C24.7759 37.3383 24.4045 37.4759 24.0193 37.4823C23.0945 37.4823 23.0946 37.4372 22.1698 37.4372C21.245 37.4372 21.245 37.5048 20.3202 37.5048C19.6052 37.4878 18.9123 37.7532 18.3917 38.2436C18.1629 38.5069 17.9883 38.8128 17.878 39.1437C17.7677 39.4747 17.7238 39.8241 17.7488 40.1721C17.7488 41.2999 17.7488 41.2999 17.7488 42.3825C17.7488 43.4652 17.7883 43.5103 17.7883 44.5986C17.7883 45.687 17.6698 45.7265 17.6698 46.8091C17.6435 47.5299 17.9006 48.2324 18.386 48.7659C18.9312 49.2168 19.6326 49.4337 20.3371 49.3692C21.3408 49.3692 21.3408 49.561 22.3446 49.561C23.3483 49.561 23.3539 49.42 24.3577 49.42C24.7479 49.4326 25.1242 49.568 25.433 49.8069C25.7418 50.0459 25.9674 50.3762 26.0776 50.7508C26.2637 51.4218 26.5061 52.0703 26.7373 52.7244C26.9685 53.3785 27.2505 54.0157 27.5268 54.6473C27.8031 55.2789 27.9215 56.0006 28.2429 56.6209C28.5643 57.2412 28.976 57.8108 29.3707 58.4029C29.5654 58.7292 29.6404 59.1131 29.5828 59.4887C29.5251 59.8643 29.3385 60.2081 29.0549 60.4611C28.3162 61.1998 28.491 61.3689 27.7467 62.1133C27.0023 62.8576 26.8783 62.7279 26.1396 63.4667C25.6225 63.9756 25.3216 64.6643 25.2994 65.3895C25.303 66.1241 25.5898 66.8291 26.1001 67.3576C26.8783 68.1357 26.9234 68.0962 27.7016 68.8801C28.4798 69.6639 28.57 69.5736 29.3538 70.3575C30.1376 71.1413 30.0756 71.2033 30.8594 71.9871C31.3582 72.5047 32.0411 72.8046 32.7597 72.8217C33.466 72.7755 34.1251 72.451 34.5924 71.9195C35.3706 71.1356 35.3931 71.1582 36.1713 70.38C36.9495 69.6019 37.051 69.6921 37.8292 68.9139C38.0845 68.6287 38.4266 68.4355 38.8027 68.3641C39.1788 68.2928 39.5679 68.3473 39.9099 68.5192C40.4738 68.8575 41.0377 69.2748 41.6411 69.5737C42.2445 69.8725 42.8591 70.1376 43.4851 70.4139C44.111 70.6902 44.7764 70.8142 45.4192 71.0285C46.0621 71.2428 46.6993 71.4401 47.3534 71.5924C47.7162 71.6979 48.0332 71.9218 48.2539 72.2284C48.4747 72.535 48.5864 72.9066 48.5714 73.2841C48.5714 74.4119 48.6391 74.4119 48.6391 75.5397C48.6391 76.6675 48.6391 76.6675 48.6391 77.7953C48.6331 78.5122 48.9117 79.2022 49.4139 79.7139C49.916 80.2255 50.6007 80.5171 51.3176 80.5245C52.4454 80.5245 52.4454 80.6147 53.5281 80.6147C54.6108 80.6147 54.6559 80.4343 55.7385 80.4343C56.8212 80.4343 56.8663 80.3836 57.9546 80.3836C58.2982 80.3944 58.6405 80.3361 58.9612 80.2121C59.2818 80.0881 59.5742 79.901 59.8211 79.6618C60.0725 79.4199 60.2729 79.1302 60.4104 78.8096C60.548 78.489 60.6199 78.1441 60.6219 77.7953C60.6219 76.6675 60.667 76.6675 60.667 75.5397C60.667 74.4119 60.5486 74.4119 60.5486 73.2841C60.5614 72.8834 60.7018 72.4972 60.9492 72.1818C61.1967 71.8664 61.5384 71.6382 61.9245 71.5304C62.5786 71.3612 63.2609 71.2935 63.8981 71.0793C64.5353 70.865 65.1556 70.5774 65.7815 70.3236C66.4075 70.0699 66.9714 69.6921 67.5804 69.3989C68.1894 69.1056 68.8322 68.8857 69.413 68.5474C69.7447 68.3608 70.1289 68.2894 70.5054 68.3445C70.8819 68.3996 71.2295 68.5781 71.4938 68.8519C72.2776 69.63 72.272 69.6357 73.0501 70.4139C73.8283 71.192 73.8058 71.2202 74.5896 72.0041C75.1042 72.5264 75.802 72.8278 76.5351 72.8443C77.2437 72.7704 77.8953 72.4223 78.3508 71.8743C79.129 71.0905 79.2869 71.2484 80.0425 70.4646C80.7981 69.6808 80.6571 69.5116 81.4409 68.7278C82.2247 67.944 82.4109 68.1639 83.1947 67.3519C83.6909 66.81 83.9559 66.0958 83.9334 65.3613C83.932 64.6362 83.6513 63.9394 83.1496 63.4159C82.4109 62.6772 82.4221 62.6659 81.6778 61.9272C80.9334 61.1885 80.832 61.29 80.0933 60.5513C79.8141 60.26 79.6368 59.8861 79.588 59.4855C79.5392 59.085 79.6214 58.6794 79.8226 58.3296C80.1891 57.7657 80.6797 57.2018 81.0011 56.5927C81.3226 55.9837 81.4353 55.262 81.7172 54.6248C81.9992 53.9875 82.4447 53.418 82.6759 52.7583C82.9071 52.0985 82.924 51.3823 83.1101 50.7057C83.2326 50.3281 83.4692 49.9978 83.7874 49.7605C84.1056 49.5231 84.4896 49.3903 84.8864 49.3805C85.8901 49.3805 85.8901 49.5553 86.8938 49.5553C87.8976 49.5553 87.8976 49.5553 88.9013 49.5553C89.6205 49.4998 90.2889 49.1635 90.7622 48.6192C91.028 48.3832 91.2442 48.0966 91.3981 47.7761C91.5521 47.4557 91.6406 47.1078 91.6587 46.7527C91.6587 45.6249 91.4557 45.625 91.4557 44.5423C91.4557 43.4596 91.6983 43.4145 91.6983 42.3318C91.6983 41.2491 91.5122 41.204 91.5122 40.1157C91.5788 39.7573 91.5576 39.3881 91.4504 39.0397C91.3431 38.6913 91.153 38.3741 90.8964 38.1152C90.6398 37.8564 90.3242 37.6636 89.9767 37.5533C89.6292 37.4431 89.2603 37.4187 88.9013 37.4823L88.9408 37.5669ZM56.3363 61.3408C55.6639 61.4127 54.9881 61.4485 54.3119 61.4479C53.6407 61.3699 52.9743 61.255 52.3157 61.1039C51.645 61.0653 50.9769 60.9919 50.3139 60.884C49.6483 60.7575 48.9896 60.5975 48.3402 60.4047C47.7279 60.1127 47.1313 59.7889 46.5527 59.4348C45.9284 59.1785 45.3186 58.8886 44.7256 58.5664C44.1631 58.1915 43.621 57.7868 43.1016 57.354C42.577 56.9291 42.078 56.4734 41.6073 55.9894C40.6011 55.0834 39.743 54.0255 39.0641 52.8541C38.7346 52.2673 38.4372 51.663 38.1731 51.044C37.8663 50.4451 37.5933 49.8295 37.3555 49.2001C37.0805 48.5815 36.8377 47.9491 36.6281 47.3054C36.4758 46.6569 36.6281 45.952 36.5153 45.281C36.4162 44.6177 36.3541 43.9494 36.3292 43.2791C36.2364 41.9589 36.3141 40.6322 36.5604 39.3319C36.7332 38.6989 36.9402 38.0758 37.1807 37.4654C37.3003 36.8152 37.4528 36.1715 37.6375 35.5368C37.935 34.9552 38.2645 34.3905 38.6243 33.8451C38.9932 33.3022 39.3904 32.7789 39.8141 32.2775C40.2032 31.7474 40.5472 31.1948 40.987 30.7043C41.4073 30.2022 41.8534 29.7222 42.3234 29.2663C42.814 28.8321 43.3836 28.4994 43.9136 28.1103C44.415 27.6847 44.9382 27.2857 45.4812 26.9148C46.0553 26.5902 46.6464 26.2966 47.2519 26.0352C47.8464 25.7496 48.4564 25.4973 49.0789 25.2795C49.7255 25.1472 50.3787 25.0493 51.0357 24.9863C51.6785 24.8623 52.3157 24.7721 52.9754 24.71C54.3157 24.6743 55.6567 24.6875 56.996 24.7495C57.6595 24.853 58.3166 24.9942 58.964 25.1724C59.61 25.3451 60.2461 25.5522 60.87 25.7927C61.5105 25.9922 62.1393 26.2276 62.7534 26.4976C63.3845 26.7424 64.0019 27.021 64.603 27.3321C65.5967 28.2511 66.6476 29.1062 67.7495 29.8922C68.1782 30.416 68.5791 30.9618 68.9506 31.5275C69.3576 32.0545 69.7342 32.6042 70.0784 33.1741C70.9553 34.2064 71.5755 35.4314 71.8885 36.7492C72.5325 38.6611 72.9451 40.6432 73.1178 42.6532C73.1178 43.313 72.9825 43.984 72.9261 44.6607C72.9192 45.3203 72.8778 45.9791 72.8021 46.6343C72.62 47.2671 72.4054 47.8901 72.1592 48.5008C71.9399 49.1173 71.6877 49.7215 71.4036 50.3109C71.2158 50.944 70.9956 51.567 70.7438 52.1774C70.3847 52.7293 69.997 53.2619 69.5822 53.7733C69.1931 54.3033 68.7307 54.7714 68.2909 55.262C67.4463 56.2646 66.4824 57.1603 65.4206 57.9292C64.8994 58.3332 64.3573 58.7097 63.7966 59.057C63.2144 59.3624 62.6158 59.6354 62.0034 59.8746C61.4057 60.134 60.7798 60.3314 60.1539 60.5344C59.522 60.7003 58.8821 60.8339 58.2366 60.9348C57.6133 61.1062 56.9807 61.2417 56.3419 61.3408H56.3363Z" fill="#C7C7FF"/>
<path d="M88.9408 37.5669C88.016 37.5669 88.016 37.6007 87.0912 37.6007C86.1664 37.6007 86.1664 37.3977 85.2416 37.3977C84.8634 37.4124 84.4912 37.2998 84.1845 37.078C83.8778 36.8561 83.6543 36.5378 83.5499 36.174C83.3864 35.4635 83.0932 34.8038 82.8789 34.1102C82.6646 33.4166 82.5969 32.6722 82.315 32.0012C82.0331 31.3302 81.6327 30.7211 81.3169 30.0727C81.0011 29.4242 80.6966 28.7644 80.3357 28.1385C80.1461 27.7967 80.0722 27.4028 80.125 27.0155C80.1779 26.6283 80.3547 26.2685 80.629 25.99C81.2492 25.3698 81.1929 25.3247 81.8357 24.7044C82.4785 24.0841 82.4842 24.1067 83.1101 23.4807C83.6395 23.0018 83.9578 22.3328 83.9954 21.6198C83.983 20.8959 83.6874 20.2056 83.1721 19.697C82.3883 18.9188 82.2812 19.0259 81.4804 18.2421C80.6797 17.4583 80.8771 17.2779 80.0933 16.494C79.3095 15.7102 79.2812 15.744 78.4974 14.9602C77.964 14.4698 77.2593 14.2086 76.5351 14.2328C76.1831 14.2372 75.8354 14.3112 75.5122 14.4505C75.1889 14.5899 74.8965 14.7919 74.6517 15.0448C74.0878 15.6087 73.9693 15.5354 73.3885 16.1162C72.8077 16.697 72.9825 16.8775 72.4017 17.4639C72.0937 17.7301 71.7085 17.8907 71.3026 17.9222C70.8967 17.9537 70.4914 17.8543 70.1461 17.6387C69.5145 17.2496 68.9337 16.7421 68.274 16.4038C67.6142 16.0655 66.8924 15.8117 66.2045 15.5185C65.5165 15.2253 64.8004 15.0279 64.0898 14.7911C63.3793 14.5542 62.697 14.2272 61.9696 14.058C61.5892 13.982 61.2445 13.7829 60.9887 13.4914C60.7329 13.1999 60.5801 12.8323 60.5542 12.4453C60.5542 11.6445 60.5542 11.6445 60.5542 10.8381C60.5542 10.0318 60.4922 10.0374 60.4922 9.23105C60.5585 8.52899 60.3435 7.82929 59.8945 7.2856C59.3745 6.77562 58.6773 6.48666 57.949 6.47923C56.8212 6.47923 56.8212 6.42285 55.7385 6.42285C54.6559 6.42285 54.6107 6.51306 53.5224 6.51306C52.4341 6.51306 52.3946 6.45104 51.312 6.45104C50.571 6.44863 49.8571 6.72893 49.3157 7.23483C48.8253 7.78213 48.563 8.49643 48.5827 9.23105C48.5827 10.0374 48.7631 10.0374 48.7631 10.8381C48.7631 11.6389 48.5714 11.6445 48.5714 12.4453C48.589 12.8364 48.4784 13.2226 48.2566 13.5452C48.0347 13.8678 47.7136 14.1092 47.3421 14.2328C46.6147 14.4189 45.8422 14.4414 45.1429 14.6783C44.4437 14.9151 43.7163 15.1576 43.0283 15.4452C42.3404 15.7328 41.7257 16.1952 41.0659 16.5335C40.4062 16.8719 39.6957 17.1538 39.0641 17.5429C38.7422 17.7698 38.3536 17.8826 37.9602 17.8632C37.5667 17.8438 37.1911 17.6933 36.8931 17.4357C36.3292 16.8718 36.4081 16.7534 35.8273 16.167C35.2465 15.5805 35.1676 15.6595 34.5811 15.073C34.3634 14.7931 34.0846 14.5666 33.766 14.4107C33.4474 14.2549 33.0975 14.174 32.7428 14.174C32.3882 14.174 32.0382 14.2549 31.7196 14.4107C31.4011 14.5666 31.1223 14.7931 30.9045 15.073C30.1263 15.8568 30.0079 15.7441 29.2128 16.5222C28.4177 17.3004 28.3782 17.2609 27.6001 18.0391C26.8219 18.8173 26.9967 19.0034 26.2129 19.7872C25.9551 20.0145 25.7458 20.2914 25.5975 20.6015C25.4493 20.9115 25.3651 21.2483 25.3501 21.5917C25.3312 22.3076 25.5946 23.0023 26.0832 23.5258C26.7091 24.1517 26.743 24.1179 27.3689 24.7382C27.9948 25.3585 28.0004 25.3529 28.6264 25.9788C28.9048 26.2528 29.0872 26.6096 29.1461 26.9958C29.205 27.382 29.1375 27.777 28.9534 28.1216C28.5925 28.7475 28.1809 29.3509 27.8708 30.005C27.5606 30.6591 27.2279 31.302 26.9629 31.9786C26.6979 32.6553 26.399 33.3094 26.1565 34.0087C25.914 34.7079 25.8125 35.4184 25.649 36.1289C25.572 36.5063 25.3685 36.8462 25.0722 37.0923C24.7759 37.3383 24.4045 37.4759 24.0193 37.4823C23.0945 37.4823 23.0946 37.4372 22.1698 37.4372C21.245 37.4372 21.245 37.5048 20.3202 37.5048C19.6052 37.4878 18.9123 37.7532 18.3917 38.2436C18.1629 38.5069 17.9883 38.8128 17.878 39.1437C17.7677 39.4747 17.7238 39.8241 17.7488 40.1721C17.7488 41.2999 17.7488 41.2999 17.7488 42.3825C17.7488 43.4652 17.7883 43.5103 17.7883 44.5986C17.7883 45.687 17.6698 45.7265 17.6698 46.8091C17.6435 47.53 17.9006 48.2324 18.386 48.7659C18.9312 49.2168 19.6326 49.4337 20.3371 49.3692C21.3408 49.3692 21.3408 49.561 22.3446 49.561C23.3483 49.561 23.3539 49.42 24.3577 49.42C24.7479 49.4326 25.1242 49.568 25.433 49.807C25.7418 50.0459 25.9674 50.3762 26.0776 50.7508C26.2637 51.4218 26.5061 52.0703 26.7373 52.7244C26.9685 53.3785 27.2505 54.0157 27.5268 54.6473C27.8031 55.2789 27.9215 56.0006 28.2429 56.6209C28.5643 57.2412 28.976 57.8108 29.3707 58.4029C29.5654 58.7292 29.6404 59.1131 29.5828 59.4887C29.5251 59.8643 29.3385 60.2081 29.0549 60.4611C28.3162 61.1998 28.491 61.3689 27.7467 62.1133C27.0023 62.8576 26.8783 62.7279 26.1396 63.4667C25.6225 63.9756 25.3216 64.6643 25.2994 65.3895C25.303 66.1241 25.5898 66.8291 26.1001 67.3576C26.8783 68.1357 26.9234 68.0962 27.7016 68.88C28.4798 69.6639 28.57 69.5736 29.3538 70.3575C30.1376 71.1413 30.0756 71.2033 30.8594 71.9871C31.3582 72.5047 32.0411 72.8046 32.7597 72.8217C33.466 72.7755 34.1251 72.451 34.5924 71.9195C35.3706 71.1356 35.3931 71.1582 36.1713 70.38C36.9495 69.6019 37.051 69.6921 37.8292 68.9139C38.0845 68.6287 38.4266 68.4355 38.8027 68.3641C39.1788 68.2928 39.5679 68.3473 39.9099 68.5192C40.4738 68.8575 41.0377 69.2748 41.6411 69.5737C42.2445 69.8725 42.8591 70.1376 43.4851 70.4139C44.111 70.6902 44.7764 70.8142 45.4192 71.0285C46.0621 71.2428 46.6993 71.4401 47.3534 71.5924C47.7162 71.6979 48.0332 71.9218 48.2539 72.2284C48.4747 72.5349 48.5864 72.9066 48.5714 73.2841C48.5714 74.4119 48.6391 74.4119 48.6391 75.5397C48.6391 76.6675 48.6391 76.6675 48.6391 77.7953C48.6331 78.5122 48.9117 79.2022 49.4139 79.7139C49.916 80.2255 50.6007 80.5171 51.3176 80.5245C52.4454 80.5245 52.4454 80.6147 53.5281 80.6147C54.6108 80.6147 54.6559 80.4343 55.7385 80.4343C56.8212 80.4343 56.8663 80.3836 57.9546 80.3836C58.2982 80.3944 58.6406 80.3361 58.9612 80.2121C59.2818 80.0881 59.5742 79.901 59.8211 79.6618C60.0725 79.4199 60.2729 79.1302 60.4104 78.8096C60.548 78.489 60.6199 78.1441 60.6219 77.7953C60.6219 76.6675 60.667 76.6675 60.667 75.5397C60.667 74.4119 60.5486 74.4119 60.5486 73.2841C60.5614 72.8834 60.7018 72.4972 60.9492 72.1818C61.1967 71.8664 61.5384 71.6382 61.9245 71.5304C62.5786 71.3612 63.2609 71.2935 63.8981 71.0793C64.5353 70.865 65.1556 70.5774 65.7815 70.3236C66.4075 70.0699 66.9714 69.6921 67.5804 69.3989C68.1894 69.1056 68.8322 68.8857 69.413 68.5474C69.7447 68.3608 70.1289 68.2894 70.5054 68.3445C70.8819 68.3996 71.2295 68.5781 71.4938 68.8519C72.2776 69.63 72.272 69.6357 73.0501 70.4139C73.8283 71.192 73.8058 71.2202 74.5896 72.0041C75.1042 72.5264 75.802 72.8278 76.5351 72.8443C77.2437 72.7704 77.8953 72.4223 78.3508 71.8743C79.129 71.0905 79.2869 71.2484 80.0425 70.4646C80.7981 69.6808 80.6571 69.5116 81.4409 68.7278C82.2247 67.944 82.4109 68.1639 83.1947 67.3519C83.6909 66.81 83.9559 66.0958 83.9334 65.3613C83.932 64.6362 83.6513 63.9394 83.1496 63.4159C82.4109 62.6772 82.4221 62.6659 81.6778 61.9272C80.9334 61.1885 80.832 61.29 80.0933 60.5513C79.8141 60.26 79.6368 59.8861 79.588 59.4855C79.5392 59.085 79.6214 58.6794 79.8226 58.3296C80.1891 57.7657 80.6797 57.2018 81.0011 56.5927C81.3226 55.9837 81.4353 55.262 81.7172 54.6248C81.9992 53.9875 82.4447 53.418 82.6759 52.7583C82.9071 52.0985 82.924 51.3823 83.1101 50.7057C83.2326 50.3281 83.4692 49.9978 83.7874 49.7605C84.1055 49.5231 84.4896 49.3903 84.8864 49.3805C85.8901 49.3805 85.8901 49.5553 86.8938 49.5553C87.8976 49.5553 87.8976 49.5553 88.9013 49.5553C89.6205 49.4998 90.2889 49.1635 90.7622 48.6192C91.028 48.3832 91.2442 48.0966 91.3981 47.7761C91.5521 47.4557 91.6406 47.1078 91.6587 46.7527C91.6587 45.6249 91.4558 45.625 91.4558 44.5423C91.4558 43.4596 91.6983 43.4145 91.6983 42.3318C91.6983 41.2491 91.5122 41.204 91.5122 40.1157C91.5788 39.7573 91.5576 39.3881 91.4504 39.0397C91.3431 38.6913 91.153 38.3741 90.8964 38.1152C90.6398 37.8564 90.3241 37.6636 89.9767 37.5533C89.6292 37.4431 89.2603 37.4187 88.9013 37.4823L88.9408 37.5669ZM56.3363 61.3407C55.6639 61.4127 54.9881 61.4485 54.3119 61.4479C53.6407 61.3699 52.9743 61.255 52.3157 61.1039C51.645 61.0653 50.9769 60.9919 50.3138 60.884C49.6483 60.7575 48.9896 60.5975 48.3402 60.4047C47.7279 60.1127 47.1313 59.7889 46.5527 59.4348C45.9284 59.1785 45.3185 58.8886 44.7256 58.5664C44.1631 58.1915 43.621 57.7868 43.1016 57.354C42.577 56.9291 42.078 56.4734 41.6073 55.9894C40.6011 55.0834 39.743 54.0255 39.0641 52.8541C38.7346 52.2673 38.4372 51.663 38.1731 51.044C37.8663 50.4451 37.5933 49.8295 37.3555 49.2001C37.0805 48.5815 36.8377 47.9491 36.6281 47.3054C36.4758 46.6569 36.6281 45.952 36.5153 45.281C36.4162 44.6177 36.3541 43.9494 36.3292 43.2791C36.2364 41.9589 36.3141 40.6322 36.5604 39.3319C36.7332 38.6989 36.9402 38.0758 37.1807 37.4654C37.3003 36.8152 37.4528 36.1715 37.6375 35.5368C37.935 34.9552 38.2645 34.3905 38.6243 33.8451C38.9932 33.3022 39.3904 32.7789 39.8141 32.2775C40.2032 31.7475 40.5472 31.1948 40.987 30.7043C41.4073 30.2022 41.8534 29.7222 42.3234 29.2663C42.814 28.8321 43.3836 28.4994 43.9136 28.1103C44.415 27.6847 44.9382 27.2857 45.4812 26.9148C46.0553 26.5902 46.6464 26.2966 47.2519 26.0352C47.8464 25.7496 48.4564 25.4973 49.0789 25.2795C49.7255 25.1472 50.3787 25.0493 51.0357 24.9863C51.6785 24.8623 52.3157 24.7721 52.9754 24.71C54.3157 24.6743 55.6567 24.6875 56.996 24.7495C57.6595 24.853 58.3166 24.9942 58.964 25.1724C59.6099 25.3451 60.2461 25.5522 60.87 25.7927C61.5105 25.9922 62.1393 26.2276 62.7534 26.4976C63.3845 26.7424 64.0019 27.021 64.603 27.3321C65.5967 28.2511 66.6476 29.1062 67.7495 29.8922C68.1782 30.416 68.5791 30.9618 68.9506 31.5275C69.3576 32.0545 69.7342 32.6042 70.0784 33.1741C70.9553 34.2064 71.5755 35.4314 71.8886 36.7492C72.5325 38.6611 72.9451 40.6432 73.1178 42.6532C73.1178 43.313 72.9825 43.984 72.9261 44.6607C72.9192 45.3203 72.8778 45.9791 72.8021 46.6343C72.62 47.2671 72.4054 47.8901 72.1592 48.5008C71.9399 49.1173 71.6877 49.7215 71.4036 50.3109C71.2158 50.944 70.9956 51.567 70.7438 52.1774C70.3847 52.7293 69.997 53.2619 69.5822 53.7733C69.1931 54.3033 68.7307 54.7714 68.2909 55.262C67.4463 56.2646 66.4824 57.1603 65.4206 57.9292C64.8994 58.3332 64.3573 58.7097 63.7966 59.057C63.2144 59.3624 62.6158 59.6354 62.0034 59.8746C61.4057 60.134 60.7798 60.3314 60.1539 60.5344C59.522 60.7003 58.8821 60.8339 58.2366 60.9348C57.6133 61.1062 56.9807 61.2417 56.3419 61.3407H56.3363Z" stroke="#414C58" stroke-width="0.845845" stroke-miterlimit="10" stroke-linecap="round"/>
<path d="M52.7668 48.1625C53.7931 48.1625 53.7931 48.0892 54.8137 48.0892C55.8344 48.0892 55.84 47.9538 56.8663 47.9538C57.8926 47.9538 57.8926 48.1568 58.9133 48.1568C59.9339 48.1568 59.9396 48.1118 60.9659 48.1118C61.9922 48.1118 61.9922 47.9426 63.0128 47.9426C64.0335 47.9426 64.0391 48.0835 65.0654 48.0835C66.0917 48.0835 66.0917 48.202 67.1123 48.202C68.133 48.202 68.1386 48.0272 69.1649 48.0272C70.1912 48.0272 70.1912 48.1399 71.2175 48.1399C72.2438 48.1399 72.2381 48.1399 73.2644 48.1399C74.2907 48.1399 74.2907 47.9257 75.3114 47.9257H77.364C78.3846 47.9257 78.3846 48.1512 79.4109 48.1512C80.4372 48.1512 80.4372 48.1512 81.4635 48.1512C82.4898 48.1512 82.4898 47.9708 83.5105 47.9708C84.5311 47.9708 84.5368 48.0328 85.5631 48.0328C86.5894 48.0328 86.5894 47.9482 87.6157 47.9482H89.6683C90.6889 47.9482 90.6889 47.9482 91.7152 47.9482C92.7415 47.9482 92.7415 48.1625 93.7678 48.1625H95.8203C96.8466 48.1625 96.8466 47.9651 97.8729 47.9651C98.8992 47.9651 98.8992 48.1963 99.9255 48.1963C100.952 48.1963 100.952 48.0046 101.984 48.0046C102.143 48.0134 102.298 48.0557 102.439 48.1289C102.581 48.202 102.705 48.3043 102.804 48.4289C102.903 48.5536 102.975 48.6978 103.014 48.8521C103.054 49.0064 103.06 49.1672 103.033 49.3241C102.813 50.3222 102.83 50.3278 102.615 51.3259C102.401 52.324 102.226 52.2846 102.012 53.2827C101.798 54.2808 101.972 54.3202 101.758 55.3183C101.544 56.3164 101.583 56.3277 101.369 57.3202C101.155 58.3126 101.07 58.3014 100.856 59.2995C100.642 60.2975 100.478 60.2637 100.264 61.2618C100.05 62.2599 100.298 62.3107 100.078 63.3088C99.8578 64.3068 99.6831 64.273 99.4688 65.2655C99.2545 66.2579 99.2432 66.2636 99.0233 67.2617C98.8034 68.2598 98.7921 68.2598 98.5778 69.2579C98.3635 70.256 98.5778 70.2955 98.341 71.2936C98.1042 72.2916 97.9688 72.2634 97.7771 73.2615C97.5854 74.2596 97.6305 74.2766 97.4105 75.2747C97.1906 76.2728 97.0384 76.2389 96.8466 77.237C96.6549 78.2351 96.7677 78.2633 96.5534 79.2614C96.3391 80.2595 96.2545 80.2426 96.0402 81.2463C95.826 82.25 95.7809 82.2331 95.5666 83.2312C95.3523 84.2293 95.5666 84.2801 95.3354 85.2782C95.1042 86.2763 95.014 86.2594 94.7715 87.2575C94.7146 87.4731 94.5817 87.6609 94.3972 87.7863C94.2128 87.9117 93.9893 87.9662 93.7678 87.9398C92.7415 87.9398 92.7415 88.0808 91.7152 88.0808C90.6889 88.0808 90.6889 87.9623 89.6683 87.9623C88.6476 87.9623 88.6419 87.9623 87.6157 87.9623C86.5894 87.9623 86.595 88.0526 85.5687 88.0526C84.5424 88.0526 84.5424 88.0864 83.5161 88.0864C82.4898 88.0864 82.4898 88.1202 81.4692 88.1202C80.4485 88.1202 80.4429 87.9229 79.4166 87.9229C78.3903 87.9229 78.3903 88.0638 77.3696 88.0638C76.349 88.0638 76.3433 88.1766 75.317 88.1766C74.2907 88.1766 74.2907 87.9849 73.2644 87.9849C72.2381 87.9849 72.2438 88.1259 71.2175 88.1259C70.1912 88.1259 70.1969 88.092 69.1706 88.092C68.1443 88.092 68.1443 88.092 67.118 88.092C66.0917 88.092 66.0973 88.1484 65.071 88.1484C64.0447 88.1484 64.0448 88.109 63.0185 88.109C61.9922 88.109 61.9922 87.9962 60.9715 87.9962C59.9509 87.9962 59.9452 88.0244 58.9189 88.0244C57.8926 88.0244 57.8926 88.171 56.8663 88.171C55.84 88.171 55.84 87.9172 54.8137 87.9172C53.7875 87.9172 53.7875 87.9567 52.7612 87.9567C51.7349 87.9567 51.7405 88.0469 50.7142 88.0469C49.6879 88.0469 49.6879 88.0808 48.6616 88.0808C47.6354 88.0808 47.6353 87.9454 46.6034 87.9454C45.5715 87.9454 45.5771 88.1935 44.5509 88.1935C44.3897 88.1768 44.2338 88.1269 44.0929 88.0469C43.952 87.9669 43.8292 87.8586 43.7323 87.7288C43.6353 87.599 43.5663 87.4505 43.5296 87.2928C43.4929 87.135 43.4892 86.9713 43.5189 86.812C43.7388 85.8139 43.8854 85.8477 44.0828 84.8496C44.2802 83.8515 44.2181 83.8346 44.4324 82.8365C44.6467 81.8384 44.5847 81.8215 44.7989 80.8234C45.0132 79.8253 45.1147 79.8478 45.329 78.8497C45.5433 77.8517 45.3967 77.8178 45.6109 76.8197C45.8252 75.8216 45.8365 75.8273 46.0564 74.8292C46.2764 73.8311 46.2143 73.8198 46.4286 72.8217C46.6429 71.8236 46.8459 71.8687 47.0602 70.8706C47.2744 69.8725 47.2801 69.8725 47.4944 68.8744C47.7087 67.8763 47.765 67.8876 47.985 66.8895C48.2049 65.8914 48.109 65.8689 48.3233 64.8708C48.5376 63.8727 48.6052 63.8839 48.8195 62.8858C49.0338 61.8877 49.0789 61.899 49.2989 60.8953C49.5188 59.8916 49.4229 59.8803 49.6372 58.8822C49.8515 57.8841 49.6767 57.8446 49.8909 56.8465C50.1052 55.8484 50.2969 55.8879 50.5112 54.8898C50.7255 53.8917 50.5733 53.8522 50.7875 52.8541C51.0018 51.856 51.1992 51.8955 51.4135 50.8974C51.6277 49.8993 51.6616 49.8993 51.8815 48.9012C51.9057 48.6878 52.0112 48.4919 52.1761 48.3544C52.341 48.2168 52.5525 48.1481 52.7668 48.1625Z" fill="#8180FF"/>
<path d="M52.7668 48.1906C53.7931 48.1906 53.7931 47.9369 54.8138 47.9369C55.8344 47.9369 55.8401 48.0497 56.8663 48.0497C57.8926 48.0497 57.8926 48.1173 58.9133 48.1173C59.9339 48.1173 59.9396 48.0666 60.9659 48.0666C61.9922 48.0666 61.9922 48.0666 63.0128 48.0666C64.0335 48.0666 64.0391 48.0046 65.0654 48.0046C66.0917 48.0046 66.0917 48.0835 67.1123 48.0835C68.133 48.0835 68.1386 48.1173 69.1649 48.1173C70.1912 48.1173 70.1912 48.2019 71.2175 48.2019C72.2438 48.2019 72.2381 48.1343 73.2644 48.1343C74.2907 48.1343 74.2907 48.0835 75.3114 48.0835C76.332 48.0835 76.3377 48.1286 77.364 48.1286C78.3903 48.1286 78.3846 48.061 79.4109 48.061C80.4372 48.061 80.4372 48.123 81.4635 48.123C82.4898 48.123 82.4898 47.9651 83.5105 47.9651C84.5311 47.9651 84.5368 47.9651 85.5631 47.9651C86.5894 47.9651 86.5894 47.92 87.6157 47.92C88.642 47.92 88.642 48.0384 89.6683 48.0384C90.6945 48.0384 90.6889 48.1343 91.7152 48.1343C92.7415 48.1343 92.7415 47.9313 93.7678 47.9313C94.7941 47.9313 94.794 48.123 95.8203 48.123C96.8466 48.123 96.8466 47.9764 97.8729 47.9764C98.8992 47.9764 98.8992 47.9764 99.9255 47.9764C100.952 47.9764 100.952 47.9369 101.984 47.9369C102.149 47.9472 102.31 47.9912 102.458 48.0661C102.605 48.1411 102.736 48.2454 102.841 48.3727C102.947 48.5 103.025 48.6476 103.072 48.8063C103.118 48.9651 103.132 49.1317 103.112 49.2959C102.892 50.294 102.7 50.2489 102.48 51.247C102.26 52.2451 102.333 52.262 102.119 53.2601C101.905 54.2582 101.809 54.2356 101.595 55.2337C101.38 56.2318 101.595 56.2826 101.392 57.2807C101.189 58.2788 101.003 58.2393 100.788 59.2374C100.574 60.2355 100.529 60.2299 100.315 61.2223C100.1 62.2148 100.083 62.2204 99.8635 63.2185C99.6436 64.2166 99.7056 64.2279 99.4913 65.226C99.277 66.2241 99.3898 66.2467 99.1756 67.2504C98.9613 68.2541 98.871 68.2259 98.6567 69.224C98.4425 70.2221 98.3917 70.2108 98.1718 71.2146C97.9519 72.2183 98.0985 72.2409 97.8786 73.239C97.6586 74.2371 97.6361 74.2314 97.4218 75.2295C97.2076 76.2276 97.0722 76.1994 96.8579 77.1975C96.6437 78.1956 96.7846 78.2295 96.5704 79.2276C96.3561 80.2257 96.2377 80.2031 96.0065 81.2012C95.7753 82.1993 95.7809 82.1993 95.561 83.1974C95.341 84.1955 95.4369 84.218 95.217 85.2218C94.9971 86.2255 94.9858 86.2199 94.7715 87.218C94.7105 87.4381 94.5747 87.6302 94.3874 87.7609C94.2 87.8916 93.9729 87.9529 93.7452 87.9341C92.7189 87.9341 92.7189 88.0018 91.6926 88.0018C90.6663 88.0018 90.6663 88.0018 89.6457 88.0018C88.625 88.0018 88.6194 88.0018 87.5931 88.0018C86.5668 88.0018 86.5724 88.0018 85.5461 88.0018C84.5198 88.0018 84.5198 87.9115 83.4935 87.9115C82.4673 87.9115 82.4672 88.092 81.4466 88.092C80.4259 88.092 80.4203 88.1428 79.394 88.1428C78.3677 88.1428 78.3677 88.092 77.347 88.092C76.3264 88.092 76.3208 88.092 75.2945 88.092C74.2682 88.092 74.2682 88.0413 73.2419 88.0413C72.2156 88.0413 72.2213 88.1597 71.195 88.1597H69.148C68.1217 88.1597 68.1217 88.0356 67.0954 88.0356C66.0692 88.0356 66.0748 88.0976 65.0485 88.0976C64.0222 88.0976 64.0222 88.2048 62.9959 88.2048C61.9696 88.2048 61.9696 88.092 60.949 88.092C59.9283 88.092 59.9227 88.0525 58.8964 88.0525H56.8438C55.8175 88.0525 55.8175 88.0187 54.7912 88.0187C53.7649 88.0187 53.7649 87.9792 52.7386 87.9792C51.7123 87.9792 51.718 88.1991 50.6917 88.1991C49.6654 88.1991 49.6654 87.9792 48.6391 87.9792C47.6128 87.9792 47.6128 88.2217 46.5809 88.2217C45.5489 88.2217 45.5546 87.951 44.5283 87.951C44.3867 87.9661 44.2436 87.9468 44.111 87.8948C43.9785 87.8428 43.8604 87.7596 43.7669 87.6522C43.6734 87.5448 43.6071 87.4165 43.5738 87.2781C43.5404 87.1397 43.5409 86.9952 43.5753 86.8571C43.7952 85.859 43.8121 85.8646 44.032 84.8665C44.252 83.8684 44.2576 83.8684 44.4775 82.8703C44.6975 81.8722 44.5452 81.844 44.7651 80.8459C44.985 79.8478 44.9681 79.8422 45.1824 78.8497C45.3967 77.8573 45.5659 77.8855 45.7801 76.8874C45.9944 75.8893 45.7801 75.8442 46.0113 74.8461C46.2425 73.848 46.4343 73.8931 46.6485 72.895C46.8628 71.8969 46.6485 71.8574 46.8854 70.8593C47.1222 69.8612 47.1278 69.8669 47.3421 68.8688C47.5564 67.8707 47.7312 67.9045 47.9511 66.9064C48.1711 65.9083 48.1936 65.9139 48.4079 64.9158C48.6222 63.9177 48.4643 63.8839 48.6785 62.8858C48.8928 61.8877 49.0169 61.9103 49.2424 60.9122C49.468 59.9141 49.2425 59.8689 49.4793 58.8709C49.7161 57.8728 49.9304 57.9235 50.1503 56.9254C50.3703 55.9273 50.1898 55.8878 50.4041 54.8897C50.6184 53.8916 50.8214 53.9368 51.0357 52.933C51.2499 51.9293 51.1428 51.9067 51.3571 50.9086C51.5713 49.9105 51.436 49.8767 51.6559 48.8786C51.7518 48.3711 52.2875 48.1906 52.7668 48.1906Z" fill="#FFB469"/>
<path d="M48.6391 66.9459C49.6654 66.9459 49.6654 66.6921 50.686 66.6921C51.7067 66.6921 51.7123 66.8049 52.7386 66.8049C53.7649 66.8049 53.7649 66.8726 54.7856 66.8726C55.8062 66.8726 55.8119 66.8219 56.8382 66.8219C57.8644 66.8219 57.8645 66.8219 58.8851 66.8219C59.9058 66.8219 59.9114 66.7598 60.9377 66.7598C61.964 66.7598 61.964 66.8387 62.9846 66.8387C64.0053 66.8387 64.0109 66.8726 65.0372 66.8726C66.0635 66.8726 66.0635 66.9572 67.0898 66.9572C68.1161 66.9572 68.1105 66.8895 69.1367 66.8895C70.163 66.8895 70.163 66.8387 71.1837 66.8387C72.2043 66.8387 72.21 66.8839 73.2363 66.8839C74.2626 66.8839 74.2569 66.8162 75.2832 66.8162C76.3095 66.8162 76.3095 66.8782 77.3358 66.8782C78.3621 66.8782 78.3621 66.7204 79.3828 66.7204C80.4034 66.7204 80.409 66.7204 81.4353 66.7204C82.4616 66.7204 82.4616 66.6752 83.4879 66.6752C84.5142 66.6752 84.5142 66.7937 85.5405 66.7937C86.5668 66.7937 86.5611 66.8895 87.5874 66.8895C88.6137 66.8895 88.6137 66.6865 89.64 66.6865C90.6663 66.6865 90.6663 66.8782 91.6926 66.8782C92.7189 66.8782 92.7189 66.7316 93.7452 66.7316C94.7715 66.7316 94.7715 66.7316 95.7978 66.7316C96.8241 66.7316 96.8241 66.6921 97.856 66.6921C98.0212 66.7024 98.1824 66.7464 98.3298 66.8213C98.4773 66.8963 98.6079 67.0006 98.7136 67.1279C98.8192 67.2552 98.8977 67.4028 98.9442 67.5616C98.9907 67.7204 99.0042 67.887 98.9838 68.0511C98.7752 69.0098 98.5834 68.9647 98.3748 69.9233C98.1661 70.8819 98.2395 70.8988 98.0365 71.8574C97.8335 72.8161 97.7376 72.7992 97.5346 73.7578C97.3316 74.7164 97.5346 74.7671 97.3542 75.7258C97.1737 76.6844 96.9764 76.6449 96.7903 77.6036C96.6042 78.5622 96.5421 78.5566 96.3391 79.5152C96.1361 80.4738 96.1192 80.4681 95.9162 81.4268C95.7132 82.3854 95.764 82.4023 95.561 83.3609C95.3579 84.3195 95.4707 84.3477 95.2677 85.3064C95.0647 86.265 94.9745 86.2537 94.7715 87.2123C94.7202 87.4339 94.5927 87.6303 94.4113 87.7674C94.2299 87.9045 94.0061 87.9735 93.779 87.9623C92.7527 87.9623 92.7527 88.109 91.7264 88.109C90.7001 88.109 90.7002 88.0751 89.6795 88.0751C88.6589 88.0751 88.6532 87.9454 87.6269 87.9454C86.6007 87.9454 86.6063 88.092 85.58 88.092C84.5537 88.092 84.5537 87.9792 83.5274 87.9792C82.5011 87.9792 82.5011 87.9792 81.4805 87.9792C80.4598 87.9792 80.4542 88.0751 79.4279 88.0751C78.4016 88.0751 78.4016 88.0751 77.3809 88.0751C76.3603 88.0751 76.3546 87.9623 75.3283 87.9623C74.302 87.9623 74.302 88.03 73.2757 88.03C72.2494 88.03 72.2551 88.03 71.2288 88.03C70.2025 88.03 70.2082 88.03 69.1819 88.03C68.1556 88.03 68.1556 88.03 67.1293 88.03C66.103 88.03 66.1086 87.9398 65.0823 87.9398C64.056 87.9398 64.056 88.1202 63.0297 88.1202C62.0034 88.1202 62.0034 88.171 60.9828 88.171C59.9621 88.171 59.9565 88.1202 58.9302 88.1202C57.9039 88.1202 57.9039 88.1202 56.8776 88.1202C55.8513 88.1202 55.8513 88.0695 54.825 88.0695C53.7987 88.0695 53.7987 88.1879 52.7724 88.1879H50.7255C49.6992 88.1879 49.6992 88.0638 48.6729 88.0638C47.6466 88.0638 47.6466 88.1259 46.6147 88.1259C45.5828 88.1259 45.5884 88.233 44.5621 88.233C44.4019 88.2198 44.2464 88.1726 44.106 88.0944C43.9655 88.0162 43.8434 87.9089 43.7479 87.7797C43.6523 87.6505 43.5854 87.5023 43.5517 87.3451C43.5181 87.188 43.5185 87.0254 43.5527 86.8684C43.7557 85.9098 43.7952 85.9154 43.9982 84.9568C44.2012 83.9981 44.2125 84.0038 44.4155 83.0395C44.6185 82.0753 44.658 82.0922 44.861 81.1336C45.064 80.1749 45.1035 80.1806 45.3065 79.2219C45.5095 78.2633 45.3064 78.2182 45.5038 77.2596C45.7012 76.301 45.9211 76.3461 46.1298 75.3874C46.3384 74.4288 46.0959 74.3781 46.2989 73.4138C46.5019 72.4495 46.7726 72.5116 46.9756 71.553C47.1786 70.5943 47.0996 70.5774 47.3026 69.6131C47.5056 68.6489 47.5282 68.6545 47.7369 67.6959C47.7637 67.4796 47.8719 67.2817 48.0396 67.1423C48.2072 67.003 48.4216 66.9328 48.6391 66.9459Z" fill="#414C58"/>
<path d="M116.639 75.1619C115.63 75.1619 115.63 75.4326 114.621 75.4326C113.611 75.4326 113.606 75.4326 112.596 75.4326C111.587 75.4326 111.581 75.1901 110.572 75.1901C109.563 75.1901 109.563 75.3311 108.548 75.3311C107.533 75.3311 107.538 75.3931 106.523 75.3931C105.508 75.3931 105.514 75.1901 104.504 75.1901C103.495 75.1901 103.489 75.4157 102.48 75.4157C101.471 75.4157 101.471 75.2183 100.456 75.2183C99.4406 75.2183 99.4462 75.3931 98.4368 75.3931C97.4275 75.3931 97.4218 75.3593 96.4125 75.3593C95.4031 75.3593 95.4031 75.2183 94.3881 75.2183H92.3637H90.3449C89.3299 75.2183 89.3299 75.3987 88.3206 75.3987C87.3112 75.3987 87.3056 75.2465 86.2962 75.2465C85.2868 75.2465 85.2811 75.2127 84.2661 75.2127C83.2511 75.2127 83.2567 75.2127 82.2417 75.2127C81.2267 75.2127 81.2324 75.2803 80.2174 75.2803C79.2023 75.2803 79.2079 75.3537 78.1929 75.3537C77.1779 75.3537 77.1836 75.3198 76.1686 75.3198C75.1535 75.3198 75.1535 75.4157 74.1385 75.4157C73.1235 75.4157 73.1291 75.3311 72.1141 75.3311C71.9757 75.3297 71.8389 75.3005 71.712 75.2451C71.5851 75.1898 71.4706 75.1095 71.3754 75.009C71.2802 74.9085 71.2061 74.7899 71.1577 74.6602C71.1093 74.5305 71.0874 74.3924 71.0935 74.2541V72.2127C71.0935 71.1921 71.0935 71.1921 71.0935 70.1771C71.0935 69.1621 70.9469 69.1564 70.9469 68.1357C70.9469 67.1151 70.9469 67.1151 70.9469 66.0944C70.9469 65.0738 71.0596 65.0794 71.0596 64.0588C71.0596 63.0381 71.1894 63.0381 71.1894 62.0175C71.1894 60.9968 70.9751 60.9968 70.9751 59.9818C70.9751 58.9668 71.1499 58.9612 71.1499 57.9405C71.1499 56.9199 71.0822 56.9199 71.0822 55.8992C71.0822 54.8786 70.9469 54.8842 70.9469 53.8635C70.9469 52.8429 71.1499 52.8429 71.1499 51.8222C71.1499 50.8016 71.1048 50.8016 71.1048 49.7809C71.1048 48.7603 70.9356 48.7603 70.9356 47.7452C70.9356 46.7302 71.0709 46.7246 71.0709 45.7039C71.0709 44.6833 71.195 44.6833 71.195 43.6626C71.195 42.642 71.0202 42.642 71.0202 41.6213C71.0202 40.6007 71.1273 40.6007 71.1273 39.5857C71.1273 38.5707 71.1273 38.565 71.1273 37.5443C71.1273 36.5237 70.9187 36.5237 70.9187 35.503C70.9187 34.4824 70.9187 34.488 70.9187 33.4674C70.9187 32.4467 71.1499 32.4467 71.1499 31.4261C71.1499 30.4054 71.1499 30.4054 71.1499 29.3848C71.1499 28.3641 70.9638 28.3641 70.9638 27.3491C70.9638 26.3341 71.0315 26.3284 71.0315 25.3078C71.0315 24.2871 70.9469 24.2871 70.9469 23.2665C70.9469 22.2458 70.9469 22.2458 70.9469 21.2252C70.9469 20.2045 70.9469 20.2045 70.9469 19.1838C70.9469 18.1632 71.1668 18.1632 71.1668 17.1425C71.1668 16.1219 71.1668 16.1219 71.1668 15.1012C71.1668 14.0806 70.9751 14.0806 70.9751 13.0599C70.9751 12.0393 71.2006 12.0336 71.2006 11.013C71.2006 9.99233 71.0146 9.99233 71.0146 8.96604C71.0284 8.74986 71.122 8.54653 71.2772 8.39546C71.4325 8.24439 71.6383 8.15636 71.8548 8.14841C72.8754 8.14841 72.8754 8.14841 73.9017 8.14841C74.928 8.14841 74.928 8.32883 75.9486 8.32883C76.9693 8.32883 76.9749 8.14277 78.0012 8.14277C79.0275 8.14277 79.0219 8.09765 80.0482 8.09765C81.0745 8.09765 81.0745 8.18224 82.0951 8.18224C83.1158 8.18224 83.1214 8.34576 84.1477 8.34576C85.174 8.34576 85.174 8.08636 86.1947 8.08636C87.2153 8.08636 87.221 8.27245 88.2472 8.27245H90.2942C91.3148 8.27245 91.3149 8.27245 92.3411 8.27245C93.3674 8.27245 93.3674 8.06946 94.3881 8.06946C95.4087 8.06946 95.4144 8.23298 96.4407 8.23298C97.467 8.23298 97.467 8.15967 98.4876 8.15967C99.5083 8.15967 99.5139 8.31757 100.54 8.31757C101.566 8.31757 101.566 8.1766 102.587 8.1766C103.608 8.1766 103.613 8.25555 104.64 8.25555C105.666 8.25555 105.666 8.295 106.692 8.295C107.719 8.295 107.719 8.08636 108.739 8.08636C109.76 8.08636 109.766 8.1935 110.792 8.1935C111.818 8.1935 111.818 8.31757 112.844 8.31757C113.871 8.31757 113.871 8.18224 114.897 8.18224C115.923 8.18224 115.923 8.295 116.95 8.295C117.041 8.28475 117.134 8.29486 117.221 8.32463C117.309 8.3544 117.388 8.40311 117.454 8.46722C117.521 8.53133 117.572 8.60928 117.605 8.69551C117.637 8.78175 117.65 8.87411 117.643 8.96604C117.643 9.98669 117.733 9.98669 117.733 11.0073C117.733 12.028 117.767 12.028 117.767 13.0487C117.767 14.0693 117.801 14.0693 117.801 15.09C117.801 16.1106 117.604 16.1106 117.604 17.1313C117.604 18.1519 117.745 18.1463 117.745 19.1669C117.745 20.1876 117.857 20.1876 117.857 21.2083C117.857 22.2289 117.666 22.2289 117.666 23.2496C117.666 24.2702 117.807 24.2702 117.807 25.2909C117.807 26.3115 117.773 26.3115 117.773 27.3322C117.773 28.3528 117.773 28.3528 117.773 29.3735C117.773 30.3941 117.829 30.3941 117.829 31.4092C117.829 32.4242 117.79 32.4298 117.79 33.4505C117.79 34.4711 117.677 34.4711 117.677 35.4918C117.677 36.5124 117.705 36.5124 117.705 37.5331C117.705 38.5537 117.852 38.5537 117.852 39.5744C117.852 40.595 117.598 40.595 117.598 41.6157C117.598 42.6363 117.638 42.6363 117.638 43.657C117.638 44.6776 117.728 44.6776 117.728 45.6983C117.728 46.7189 117.762 46.7189 117.762 47.7396C117.762 48.7603 117.626 48.7603 117.626 49.7809C117.626 50.8016 117.874 50.8016 117.874 51.8222C117.874 52.8429 117.773 52.8429 117.773 53.8635C117.773 54.8842 117.621 54.8842 117.621 55.9049C117.621 56.9255 117.7 56.9255 117.7 57.9462C117.7 58.9668 117.767 58.9668 117.767 59.9875C117.767 61.0081 117.666 61.0081 117.666 62.0288C117.666 63.0494 117.824 63.0494 117.824 64.0701C117.824 65.0907 117.824 65.0907 117.824 66.1114C117.824 67.132 117.886 67.1377 117.886 68.1583C117.886 69.179 117.683 69.179 117.683 70.1996C117.683 71.2203 117.683 71.2203 117.683 72.2466C117.683 73.2729 117.626 73.2672 117.626 74.2935C117.637 74.4209 117.618 74.549 117.57 74.6676C117.522 74.7862 117.448 74.892 117.352 74.9764C117.256 75.0608 117.141 75.1216 117.018 75.1538C116.894 75.186 116.764 75.1888 116.639 75.1619Z" fill="white"/>
<path d="M116.639 75.1619C115.63 75.1619 115.63 75.4326 114.621 75.4326C113.611 75.4326 113.606 75.4326 112.596 75.4326C111.587 75.4326 111.581 75.1901 110.572 75.1901C109.563 75.1901 109.563 75.3311 108.548 75.3311C107.533 75.3311 107.538 75.3931 106.523 75.3931C105.508 75.3931 105.514 75.1901 104.504 75.1901C103.495 75.1901 103.489 75.4157 102.48 75.4157C101.471 75.4157 101.471 75.2183 100.456 75.2183C99.4406 75.2183 99.4462 75.3931 98.4368 75.3931C97.4275 75.3931 97.4218 75.3593 96.4125 75.3593C95.4031 75.3593 95.4031 75.2183 94.3881 75.2183H92.3637H90.3449C89.3299 75.2183 89.3299 75.3987 88.3206 75.3987C87.3112 75.3987 87.3056 75.2465 86.2962 75.2465C85.2868 75.2465 85.2811 75.2127 84.2661 75.2127C83.2511 75.2127 83.2567 75.2127 82.2417 75.2127C81.2267 75.2127 81.2324 75.2803 80.2174 75.2803C79.2023 75.2803 79.2079 75.3537 78.1929 75.3537C77.1779 75.3537 77.1836 75.3198 76.1685 75.3198C75.1535 75.3198 75.1535 75.4157 74.1385 75.4157C73.1235 75.4157 73.1291 75.3311 72.1141 75.3311C71.9757 75.3297 71.8389 75.3005 71.712 75.2451C71.5851 75.1898 71.4706 75.1095 71.3754 75.009C71.2802 74.9085 71.2061 74.7899 71.1577 74.6602C71.1093 74.5305 71.0874 74.3924 71.0935 74.254V72.2127C71.0935 71.1921 71.0935 71.1921 71.0935 70.1771C71.0935 69.1621 70.9469 69.1564 70.9469 68.1357C70.9469 67.1151 70.9469 67.1151 70.9469 66.0944C70.9469 65.0738 71.0596 65.0794 71.0596 64.0588C71.0596 63.0381 71.1894 63.0381 71.1894 62.0175C71.1894 60.9968 70.9751 60.9968 70.9751 59.9818C70.9751 58.9668 71.1499 58.9612 71.1499 57.9405C71.1499 56.9199 71.0822 56.9199 71.0822 55.8992C71.0822 54.8786 70.9469 54.8842 70.9469 53.8635C70.9469 52.8429 71.1499 52.8429 71.1499 51.8222C71.1499 50.8016 71.1048 50.8016 71.1048 49.7809C71.1048 48.7603 70.9356 48.7603 70.9356 47.7452C70.9356 46.7302 71.0709 46.7246 71.0709 45.7039C71.0709 44.6833 71.195 44.6833 71.195 43.6626C71.195 42.642 71.0202 42.642 71.0202 41.6213C71.0202 40.6007 71.1273 40.6007 71.1273 39.5857C71.1273 38.5707 71.1273 38.565 71.1273 37.5443C71.1273 36.5237 70.9187 36.5237 70.9187 35.503C70.9187 34.4824 70.9187 34.488 70.9187 33.4674C70.9187 32.4467 71.1499 32.4467 71.1499 31.4261C71.1499 30.4054 71.1499 30.4054 71.1499 29.3848C71.1499 28.3641 70.9638 28.3641 70.9638 27.3491C70.9638 26.3341 71.0315 26.3284 71.0315 25.3078C71.0315 24.2871 70.9469 24.2871 70.9469 23.2665C70.9469 22.2458 70.9469 22.2458 70.9469 21.2252C70.9469 20.2045 70.9469 20.2045 70.9469 19.1838C70.9469 18.1632 71.1668 18.1632 71.1668 17.1425C71.1668 16.1219 71.1668 16.1219 71.1668 15.1012C71.1668 14.0806 70.9751 14.0806 70.9751 13.0599C70.9751 12.0393 71.2006 12.0336 71.2006 11.013C71.2006 9.99233 71.0146 9.99233 71.0146 8.96603C71.0284 8.74986 71.122 8.54653 71.2772 8.39546C71.4325 8.24439 71.6383 8.15636 71.8548 8.14841C72.8754 8.14841 72.8754 8.14841 73.9017 8.14841C74.928 8.14841 74.928 8.32883 75.9486 8.32883C76.9693 8.32883 76.9749 8.14277 78.0012 8.14277C79.0275 8.14277 79.0219 8.09765 80.0482 8.09765C81.0745 8.09765 81.0745 8.18224 82.0951 8.18224C83.1158 8.18224 83.1214 8.34576 84.1477 8.34576C85.174 8.34576 85.174 8.08636 86.1947 8.08636C87.2153 8.08636 87.221 8.27245 88.2472 8.27245H90.2942C91.3148 8.27245 91.3149 8.27245 92.3411 8.27245C93.3674 8.27245 93.3674 8.06946 94.3881 8.06946C95.4087 8.06946 95.4144 8.23298 96.4407 8.23298C97.467 8.23298 97.467 8.15967 98.4876 8.15967C99.5083 8.15967 99.5139 8.31757 100.54 8.31757C101.566 8.31757 101.566 8.1766 102.587 8.1766C103.608 8.1766 103.613 8.25555 104.64 8.25555C105.666 8.25555 105.666 8.295 106.692 8.295C107.719 8.295 107.719 8.08636 108.739 8.08636C109.76 8.08636 109.766 8.1935 110.792 8.1935C111.818 8.1935 111.818 8.31757 112.844 8.31757C113.871 8.31757 113.871 8.18224 114.897 8.18224C115.923 8.18224 115.923 8.295 116.95 8.295C117.041 8.28475 117.134 8.29486 117.221 8.32463C117.309 8.3544 117.388 8.40311 117.454 8.46722C117.521 8.53133 117.572 8.60928 117.605 8.69551C117.637 8.78175 117.65 8.87411 117.643 8.96603C117.643 9.98669 117.733 9.98669 117.733 11.0073C117.733 12.028 117.767 12.028 117.767 13.0487C117.767 14.0693 117.801 14.0693 117.801 15.09C117.801 16.1106 117.604 16.1106 117.604 17.1313C117.604 18.1519 117.745 18.1463 117.745 19.1669C117.745 20.1876 117.857 20.1876 117.857 21.2083C117.857 22.2289 117.666 22.2289 117.666 23.2496C117.666 24.2702 117.807 24.2702 117.807 25.2909C117.807 26.3115 117.773 26.3115 117.773 27.3322C117.773 28.3528 117.773 28.3528 117.773 29.3735C117.773 30.3941 117.829 30.3941 117.829 31.4092C117.829 32.4242 117.79 32.4298 117.79 33.4505C117.79 34.4711 117.677 34.4711 117.677 35.4918C117.677 36.5124 117.705 36.5124 117.705 37.5331C117.705 38.5537 117.852 38.5537 117.852 39.5744C117.852 40.595 117.598 40.595 117.598 41.6157C117.598 42.6363 117.638 42.6363 117.638 43.657C117.638 44.6776 117.728 44.6776 117.728 45.6983C117.728 46.7189 117.762 46.7189 117.762 47.7396C117.762 48.7603 117.626 48.7603 117.626 49.7809C117.626 50.8016 117.874 50.8016 117.874 51.8222C117.874 52.8429 117.773 52.8429 117.773 53.8635C117.773 54.8842 117.621 54.8842 117.621 55.9049C117.621 56.9255 117.7 56.9255 117.7 57.9462C117.7 58.9668 117.767 58.9668 117.767 59.9875C117.767 61.0081 117.666 61.0081 117.666 62.0288C117.666 63.0494 117.824 63.0494 117.824 64.0701C117.824 65.0907 117.824 65.0907 117.824 66.1114C117.824 67.132 117.886 67.1377 117.886 68.1583C117.886 69.179 117.683 69.179 117.683 70.1996C117.683 71.2203 117.683 71.2203 117.683 72.2466C117.683 73.2729 117.626 73.2672 117.626 74.2935C117.637 74.4209 117.618 74.549 117.57 74.6676C117.522 74.7862 117.448 74.892 117.352 74.9764C117.256 75.0608 117.141 75.1216 117.018 75.1538C116.894 75.186 116.764 75.1888 116.639 75.1619Z" stroke="#414C58" stroke-width="0.845845" stroke-miterlimit="10" stroke-linecap="round"/>
<path d="M110.719 35.9597C109.72 35.9597 109.72 36.05 108.722 36.05C107.724 36.05 107.724 36.05 106.726 36.05C105.728 36.05 105.728 35.988 104.73 35.988C103.732 35.988 103.737 35.988 102.739 35.988H100.743C99.7451 35.988 99.7451 36.1515 98.747 36.1515C97.7489 36.1515 97.7489 36.05 96.7508 36.05C95.7527 36.05 95.7527 36.05 94.7546 36.05C93.7565 36.05 93.7565 36.1007 92.7528 36.1007C92.499 36.1011 92.2548 36.0043 92.0702 35.8303C91.8856 35.6562 91.7747 35.418 91.7603 35.1647C91.7603 34.1496 91.7039 34.1496 91.7039 33.1402C91.7039 32.1309 91.9689 32.1309 91.9689 31.1159C91.9689 30.1009 91.828 30.1065 91.828 29.0971C91.828 28.0877 91.749 28.0878 91.749 27.0727C91.749 26.0577 91.749 26.0634 91.749 25.054C91.749 24.0446 91.8449 24.039 91.8449 23.0296C91.8449 22.0202 91.7377 22.0202 91.7377 21.0109C91.7377 20.0015 91.7377 19.9958 91.7377 18.9808C91.7377 17.9658 91.9407 17.9714 91.9407 16.9564C91.9318 16.844 91.9469 16.731 91.985 16.6248C92.0232 16.5187 92.0834 16.4219 92.1618 16.3408C92.2402 16.2598 92.335 16.1963 92.4398 16.1546C92.5446 16.113 92.657 16.0941 92.7697 16.0993H94.7658C95.7639 16.0993 95.764 15.8963 96.7621 15.8963C97.7602 15.8963 97.7602 16.0598 98.7583 16.0598C99.7564 16.0598 99.7507 15.9809 100.749 15.9809C101.747 15.9809 101.747 16.026 102.745 16.026C103.743 16.026 103.743 15.9188 104.741 15.9188C105.739 15.9188 105.739 15.9809 106.737 15.9809C107.736 15.9809 107.735 16.1613 108.734 16.1613C109.732 16.1613 109.732 15.9527 110.735 15.9527C110.989 15.9698 111.226 16.0823 111.4 16.2675C111.574 16.4527 111.671 16.6969 111.672 16.9508C111.672 17.9602 111.734 17.9601 111.734 18.9752C111.734 19.9902 111.734 19.9845 111.734 20.9939C111.734 22.0033 111.7 22.0033 111.7 23.0183C111.7 24.0333 111.666 24.0277 111.666 25.0371C111.666 26.0464 111.739 26.0521 111.739 27.0615C111.739 28.0708 111.739 28.0708 111.739 29.0802C111.739 30.0896 111.531 30.0952 111.531 31.1046C111.531 32.114 111.717 32.1196 111.717 33.129C111.717 34.1384 111.717 34.144 111.717 35.159C111.712 35.2803 111.682 35.3993 111.627 35.5077C111.573 35.6162 111.495 35.7116 111.401 35.7876C111.306 35.8635 111.196 35.9183 111.078 35.948C110.961 35.9777 110.838 35.9817 110.719 35.9597Z" fill="#C7C7FF"/>
<path d="M94.4895 36.1007C95.4538 36.4673 95.5271 36.0613 96.5591 36.0613C97.591 36.0613 97.5967 36.0049 98.6286 36.0049C99.6605 36.0049 99.6661 36.0049 100.698 36.0049C101.73 36.0049 101.73 36.0838 102.768 36.0838C103.805 36.0838 103.799 36.0387 104.837 36.0387C105.875 36.0387 105.869 36.253 106.907 36.253C107.944 36.253 107.967 36.3601 108.937 35.9992C108.942 35.3415 108.888 34.6846 108.773 34.0369C108.701 33.3361 108.544 32.6468 108.305 31.9843C107.648 30.73 106.584 29.7359 105.288 29.1648C104.115 28.646 103.241 28.6009 103.969 28.1836C104.553 27.9125 105.09 27.5488 105.559 27.1066C105.975 26.6049 106.296 26.0316 106.506 25.4149C106.741 24.8151 106.855 24.1753 106.845 23.5315C106.782 22.8977 106.59 22.2834 106.281 21.727C106.021 21.1539 105.66 20.6325 105.215 20.1876C104.811 19.6845 104.325 19.2535 103.777 18.9132C103.175 18.6623 102.529 18.5357 101.877 18.541C101.191 18.5206 100.508 18.6396 99.8691 18.8906C99.2186 19.123 98.6193 19.4792 98.1041 19.9394C97.659 20.4622 97.3217 21.0677 97.1117 21.7213C96.8057 22.3312 96.6273 22.997 96.5873 23.6781C96.6164 24.3059 96.7656 24.9223 97.0271 25.4938C97.2331 26.0884 97.5423 26.642 97.9406 27.1291C98.3926 27.5674 98.9101 27.9326 99.4744 28.2118C100.196 28.6235 99.3673 28.6855 98.1831 29.1986C97.5484 29.4836 96.9741 29.8875 96.4914 30.3885C95.9451 30.8257 95.4926 31.3684 95.1606 31.9843C94.9406 32.6495 94.8005 33.3385 94.7433 34.0369C94.5968 34.7158 94.5118 35.4065 94.4895 36.1007Z" fill="#414C58"/>
<path d="M110.719 63.4385C109.72 63.4385 109.72 63.5287 108.722 63.5287C107.724 63.5287 107.724 63.5287 106.726 63.5287C105.728 63.5287 105.728 63.4667 104.73 63.4667C103.732 63.4667 103.737 63.4949 102.739 63.4949H100.743C99.7451 63.4949 99.7451 63.6528 98.747 63.6528C97.7489 63.6528 97.7489 63.5569 96.7508 63.5569H94.7546C93.7566 63.5569 93.7565 63.6077 92.7528 63.6077C92.4999 63.6097 92.2558 63.5151 92.0703 63.3432C91.8848 63.1714 91.7719 62.9352 91.7547 62.6829C91.7547 61.6735 91.6983 61.6735 91.6983 60.6641C91.6983 59.6547 91.9633 59.6491 91.9633 58.6397C91.9633 57.6304 91.8223 57.6303 91.8223 56.6153C91.8223 55.6003 91.7434 55.606 91.7434 54.5966C91.7434 53.5872 91.7434 53.5872 91.7434 52.5722C91.7434 51.5572 91.8393 51.5628 91.8393 50.5534C91.8393 49.5441 91.7321 49.5384 91.7321 48.5291C91.7321 47.5197 91.7321 47.514 91.7321 46.5047C91.7321 45.4953 91.9352 45.4897 91.9352 44.4803C91.9254 44.3674 91.9398 44.2537 91.9776 44.1469C92.0153 44.0401 92.0754 43.9426 92.1539 43.8609C92.2324 43.7792 92.3275 43.7152 92.4327 43.6733C92.5379 43.6313 92.6509 43.6123 92.7641 43.6175C93.7622 43.6175 93.7621 43.6175 94.7602 43.6175C95.7583 43.6175 95.7583 43.4089 96.7564 43.4089C97.7545 43.4089 97.7546 43.578 98.7527 43.578C99.7508 43.578 99.7451 43.4991 100.743 43.4991C101.741 43.4991 101.741 43.5442 102.739 43.5442C103.737 43.5442 103.738 43.4371 104.736 43.4371C105.734 43.4371 105.734 43.4935 106.732 43.4935C107.73 43.4935 107.73 43.6739 108.728 43.6739C109.726 43.6739 109.726 43.4709 110.73 43.4709C110.984 43.4867 111.222 43.5988 111.396 43.7843C111.57 43.9698 111.666 44.2147 111.666 44.469C111.666 45.4784 111.728 45.4784 111.728 46.4878C111.728 47.4971 111.728 47.4971 111.728 48.5121C111.728 49.5272 111.694 49.5215 111.694 50.5309C111.694 51.5403 111.66 51.5459 111.66 52.5553C111.66 53.5647 111.734 53.5647 111.734 54.574C111.734 55.5834 111.734 55.5891 111.734 56.5984C111.734 57.6078 111.525 57.6078 111.525 58.6228C111.525 59.6378 111.711 59.6322 111.711 60.6472C111.711 61.6622 111.711 61.6566 111.711 62.6716C111.672 63.1622 111.226 63.4385 110.719 63.4385Z" fill="#C7C7FF"/>
<path d="M94.5347 63.4666C95.4989 63.8275 95.5271 63.6245 96.559 63.6245C97.591 63.6245 97.5966 63.5287 98.6286 63.5287C99.6605 63.5287 99.6661 63.6753 100.698 63.6753C101.73 63.6753 101.73 63.6076 102.768 63.6076C103.805 63.6076 103.799 63.54 104.837 63.54C105.875 63.54 105.869 63.4328 106.907 63.4328C107.944 63.4328 108.034 64.0587 109.027 63.6922C109.047 62.9498 109.009 62.207 108.914 61.4705C108.804 60.7689 108.603 60.0846 108.316 59.4348C108 58.795 107.566 58.2209 107.036 57.7431C106.526 57.2656 105.934 56.8836 105.288 56.6153C104.115 56.0965 103.303 56.1473 104.025 55.7412C104.603 55.4397 105.128 55.0475 105.581 54.5796C105.952 54.0524 106.224 53.4619 106.382 52.8372C106.669 52.2601 106.825 51.6271 106.839 50.9829C106.854 50.3388 106.727 49.6993 106.467 49.1098C105.69 48.0998 104.777 47.2022 103.754 46.4426C103.16 46.2051 102.522 46.0918 101.882 46.1099C101.202 46.0551 100.518 46.1356 99.8691 46.3467C99.2568 46.6404 98.7102 47.0546 98.262 47.5647C97.7161 47.9829 97.2598 48.5064 96.9199 49.1042C96.6931 49.7576 96.5972 50.4494 96.638 51.1399C96.6108 51.7735 96.7026 52.4066 96.9087 53.0064C97.1765 53.5807 97.543 54.1036 97.9914 54.5514C98.3968 55.0382 98.8741 55.4603 99.4067 55.8033C100.129 56.2093 99.2996 55.995 98.121 56.5025C97.5053 56.8445 96.9523 57.2888 96.4857 57.8164C95.9564 58.2741 95.5199 58.8293 95.2 59.4517C94.9265 60.0997 94.737 60.78 94.6361 61.4761C94.5475 62.1357 94.5136 62.8015 94.5347 63.4666Z" fill="#414C58"/>
<path d="M81.5256 31.2908V31.3528C80.1602 31.2219 78.8723 30.659 77.8489 29.7457C77.3103 29.3016 76.8841 28.7367 76.6049 28.0969C76.3256 27.4571 76.2012 26.7604 76.2418 26.0635H76.1234C76.1778 25.3656 76.3694 24.6853 76.6873 24.0616C76.9306 23.4142 77.3006 22.8218 77.7756 22.3192C78.2463 21.7989 78.8258 21.3888 79.473 21.1178C80.1201 20.8469 80.819 20.7218 81.5199 20.7516V20.6444C82.5795 20.6643 83.6099 20.9958 84.4823 21.5975C85.3547 22.1992 86.0307 23.0444 86.4259 24.0278C86.7189 24.6662 86.8837 25.3559 86.9108 26.0578H86.7755C86.8881 26.7585 86.8025 27.4767 86.5285 28.1314C86.2545 28.786 85.8029 29.351 85.2247 29.7626C84.7394 30.2447 84.1648 30.6278 83.5331 30.8904C82.8978 31.1579 82.2149 31.2941 81.5256 31.2908Z" stroke="#414C58" stroke-width="0.845845" stroke-miterlimit="10" stroke-linecap="round"/>
<path d="M84.8695 24.0954C84.1872 24.7777 84.1082 24.6988 83.4259 25.3811C82.7436 26.0634 82.7041 26.0296 82.0218 26.7119C81.3395 27.3942 81.2774 27.3378 80.5951 28.0201M80.5951 28.0201C80.5556 28.0652 80.6515 28.054 80.5951 28.0201ZM80.5951 28.0201C80.0312 27.4562 79.9185 27.5746 79.3602 27.0164C78.802 26.4581 78.864 26.3905 78.3057 25.8266" stroke="#414C58" stroke-width="0.845845" stroke-miterlimit="10" stroke-linecap="round"/>
<path d="M81.5256 58.7751V58.8484C80.8393 58.8109 80.1679 58.6344 79.5519 58.3296C78.9192 58.0845 78.3434 57.7121 77.8602 57.2356C77.3415 56.7767 76.9198 56.2188 76.6197 55.5947C76.3652 54.9467 76.2406 54.2551 76.2531 53.559H76.1347C76.1954 52.5049 76.5425 51.4873 77.1387 50.6158C77.7349 49.7444 78.5576 49.0521 79.5181 48.6136C80.17 48.3591 80.8654 48.2346 81.5651 48.2471V48.1343C82.6254 48.1513 83.6569 48.4816 84.5299 49.0837C85.4029 49.6857 86.0783 50.5326 86.4709 51.5177C86.7652 52.1557 86.9301 52.8456 86.9559 53.5477H86.8206C86.9334 54.2476 86.8479 54.9651 86.5738 55.6189C86.2998 56.2728 85.848 56.8367 85.2698 57.2469C84.273 58.2071 82.949 58.7533 81.5651 58.7751H81.5256Z" stroke="#414C58" stroke-width="0.845845" stroke-miterlimit="10" stroke-linecap="round"/>
<path d="M84.8695 51.5797C84.1872 52.262 84.1082 52.1831 83.4259 52.8654C82.7436 53.5477 82.7041 53.5082 82.0218 54.1906C81.3395 54.8729 81.2774 54.8165 80.5951 55.5044M80.5951 55.5044C80.5556 55.5439 80.6515 55.5044 80.5951 55.5044ZM80.5951 55.5044C80.0312 54.9406 79.9185 55.0533 79.3602 54.4951C78.802 53.9368 78.864 53.8691 78.3057 53.3109" stroke="#414C58" stroke-width="0.845845" stroke-miterlimit="10" stroke-linecap="round"/>
<path d="M37.4514 54.7263C37.536 55.2563 37.7052 55.9443 37.8461 56.7732C37.9476 57.3879 38.0209 58.0871 38.145 58.8371C38.2578 59.4799 38.4382 60.1566 38.5623 60.884C38.6863 61.6114 38.7371 62.2374 38.8555 62.9423C38.9739 63.6471 39.239 64.273 39.363 64.9723C39.4871 65.6715 39.5773 66.3369 39.6957 67.0305C39.8141 67.7241 39.972 68.3895 40.0904 69.0775C40.2088 69.7654 40.2145 70.4646 40.3329 71.1526C40.4513 71.8405 40.4739 72.5454 40.5923 73.2277C40.7107 73.91 41.0321 74.5755 41.1562 75.2521C41.2803 75.9288 41.2069 76.6675 41.3254 77.3385C41.4438 78.0096 41.7088 78.7088 41.8216 79.3742C41.9344 80.0396 42.0471 80.7783 42.1599 81.4324C42.2727 82.0865 42.4475 82.8422 42.5603 83.4794C42.69 84.2406 42.8366 84.923 42.9437 85.532C43.0904 86.3947 43.0171 87.1278 43.1017 87.6184C43.1616 87.8587 43.3014 88.0716 43.498 88.2222C43.6947 88.3728 43.9367 88.4521 44.1843 88.4473C45.205 88.4473 45.205 88.5432 46.2313 88.5432C47.2576 88.5432 47.2519 88.3063 48.2782 88.3063C49.3045 88.3063 49.2989 88.4811 50.3252 88.4811C51.3515 88.4811 51.3515 88.5206 52.3721 88.5206C53.3928 88.5206 53.3984 88.5206 54.4191 88.5206C55.4397 88.5206 55.4453 88.4642 56.466 88.4642C57.4866 88.4642 57.4923 88.3402 58.5129 88.3402C59.5336 88.3402 59.5392 88.4304 60.5655 88.4304C61.5918 88.4304 61.5862 88.4811 62.6125 88.4811C63.6388 88.4811 63.6331 88.3345 64.6594 88.3345C65.6857 88.3345 65.6801 88.3345 66.7064 88.3345C67.7327 88.3345 67.727 88.4699 68.7533 88.4699C69.7796 88.4699 69.774 88.3176 70.8003 88.3176C71.8266 88.3176 71.8209 88.436 72.8472 88.436C73.8735 88.436 73.8678 88.436 74.8941 88.436C75.9204 88.436 75.9204 88.3402 76.9411 88.3402C77.9617 88.3402 77.9674 88.3402 78.9937 88.3402C80.02 88.3402 80.0143 88.4473 81.0406 88.4473C82.0669 88.4473 82.0669 88.3796 83.0876 88.3796C84.1082 88.3796 84.1139 88.3796 85.1402 88.3796C86.1665 88.3796 86.1608 88.3796 87.1871 88.3796C88.2134 88.3796 88.2134 88.3796 89.2341 88.3796C90.2547 88.3796 90.2604 88.4699 91.2867 88.4699C92.313 88.4699 92.313 88.2894 93.3393 88.2894C93.4798 88.2948 93.6196 88.2672 93.7477 88.2089C93.8757 88.1506 93.9883 88.0632 94.0765 87.9536C94.1647 87.844 94.226 87.7154 94.2557 87.5778C94.2853 87.4403 94.2824 87.2978 94.2471 87.1616C94.0498 86.1353 94.1005 86.1241 93.9032 85.1034C93.7058 84.0827 93.7283 84.0715 93.531 83.0452C93.3336 82.0189 93.3787 82.0133 93.1813 80.9926C92.984 79.9719 92.8599 79.9888 92.6625 78.9626C92.4652 77.9363 92.4652 77.9363 92.2678 76.9156C92.0705 75.895 92.1889 75.8668 91.9915 74.8405C91.7942 73.8142 91.7321 73.8255 91.5291 72.8048C91.3261 71.7842 91.2246 71.8011 91.0272 70.7748C90.8299 69.7485 90.937 69.7259 90.7396 68.7053C90.5423 67.6846 90.5762 67.6734 90.3788 66.6471C90.1814 65.6208 90.1814 65.6208 89.984 64.5945C89.7867 63.5682 89.8148 63.5569 89.6175 62.5306C89.561 62.2848 89.4269 62.0638 89.235 61.9002C89.043 61.7367 88.8034 61.6394 88.5518 61.6227C87.5424 61.6227 87.5424 61.8427 86.5386 61.8427C85.5349 61.8427 85.5293 61.6227 84.5255 61.6227C83.5218 61.6227 83.5161 61.8652 82.5124 61.8652C81.5087 61.8652 81.503 61.5945 80.4993 61.5945C79.4956 61.5945 79.4899 61.6791 78.4805 61.6791C77.4711 61.6791 77.4768 61.6791 76.4674 61.6791C75.4581 61.6791 75.4581 61.6791 74.4543 61.6791C73.4506 61.6791 73.4449 61.8258 72.4356 61.8258C71.4262 61.8258 71.4318 61.8258 70.4224 61.8258C69.4131 61.8258 69.4187 61.6566 68.4094 61.6566C67.4 61.6566 67.4 61.8652 66.3962 61.8652C65.3925 61.8652 65.3869 61.6509 64.3775 61.6509C63.3681 61.6509 63.3681 61.8539 62.3587 61.8539C62.0902 61.8418 61.8334 61.7403 61.6291 61.5656C61.4248 61.3909 61.2847 61.153 61.2309 60.8897C61.0787 59.8013 61.2309 59.7619 61.0899 58.6848C60.949 57.6078 60.9659 57.5909 60.808 56.4969C60.6501 55.403 60.4809 55.4311 60.3231 54.3372C60.3022 54.091 60.1942 53.8603 60.0185 53.6867C59.8428 53.513 59.6108 53.4078 59.3644 53.3898C58.3212 53.3898 58.3212 53.5928 57.278 53.5928C56.2348 53.5928 56.2348 53.3504 55.1916 53.3504C54.1484 53.3504 54.1484 53.5365 53.1052 53.5365C52.062 53.5365 52.062 53.3278 51.0188 53.3278C49.9755 53.3278 49.9755 53.4462 48.9323 53.4462C47.8891 53.4462 47.8891 53.5872 46.8459 53.5872C45.8027 53.5872 45.8027 53.4575 44.7595 53.4575C43.7163 53.4575 43.7163 53.3334 42.6731 53.3334C41.6299 53.3334 41.6299 53.4406 40.5867 53.4406C39.5435 53.4406 39.5378 53.4067 38.4946 53.4067C38.3361 53.4163 38.1814 53.4592 38.0406 53.5327C37.8999 53.6061 37.7762 53.7085 37.6777 53.8331C37.5792 53.9576 37.5082 54.1016 37.4692 54.2555C37.4302 54.4094 37.4241 54.5698 37.4514 54.7263Z" fill="#FFE2C6"/>
<path d="M37.4514 54.7263C37.536 55.2563 37.7052 55.9443 37.8461 56.7732C37.9476 57.3879 38.0209 58.0871 38.145 58.8371C38.2578 59.4799 38.4382 60.1566 38.5623 60.884C38.6863 61.6114 38.7371 62.2374 38.8555 62.9423C38.9739 63.6471 39.239 64.273 39.363 64.9723C39.4871 65.6715 39.5773 66.3369 39.6957 67.0305C39.8141 67.7241 39.972 68.3895 40.0904 69.0775C40.2088 69.7654 40.2145 70.4646 40.3329 71.1526C40.4513 71.8405 40.4739 72.5454 40.5923 73.2277C40.7107 73.91 41.0321 74.5755 41.1562 75.2521C41.2803 75.9288 41.2069 76.6675 41.3254 77.3385C41.4438 78.0096 41.7088 78.7088 41.8216 79.3742C41.9344 80.0396 42.0471 80.7783 42.1599 81.4324C42.2727 82.0865 42.4475 82.8422 42.5603 83.4794C42.69 84.2406 42.8366 84.923 42.9437 85.532C43.0904 86.3947 43.0171 87.1278 43.1017 87.6184C43.1616 87.8587 43.3014 88.0716 43.498 88.2222C43.6947 88.3728 43.9367 88.4521 44.1843 88.4473C45.205 88.4473 45.205 88.5432 46.2313 88.5432C47.2576 88.5432 47.2519 88.3063 48.2782 88.3063C49.3045 88.3063 49.2989 88.4811 50.3252 88.4811C51.3515 88.4811 51.3515 88.5206 52.3721 88.5206C53.3928 88.5206 53.3984 88.5206 54.4191 88.5206C55.4397 88.5206 55.4453 88.4642 56.466 88.4642C57.4866 88.4642 57.4923 88.3402 58.5129 88.3402C59.5336 88.3402 59.5392 88.4304 60.5655 88.4304C61.5918 88.4304 61.5862 88.4811 62.6125 88.4811C63.6388 88.4811 63.6331 88.3345 64.6594 88.3345C65.6857 88.3345 65.6801 88.3345 66.7064 88.3345C67.7327 88.3345 67.727 88.4699 68.7533 88.4699C69.7796 88.4699 69.774 88.3176 70.8003 88.3176C71.8266 88.3176 71.8209 88.436 72.8472 88.436C73.8735 88.436 73.8678 88.436 74.8941 88.436C75.9204 88.436 75.9204 88.3402 76.9411 88.3402C77.9617 88.3402 77.9674 88.3402 78.9937 88.3402C80.02 88.3402 80.0143 88.4473 81.0406 88.4473C82.0669 88.4473 82.0669 88.3796 83.0876 88.3796C84.1082 88.3796 84.1139 88.3796 85.1402 88.3796C86.1665 88.3796 86.1608 88.3796 87.1871 88.3796C88.2134 88.3796 88.2134 88.3796 89.2341 88.3796C90.2547 88.3796 90.2604 88.4699 91.2867 88.4699C92.313 88.4699 92.313 88.2894 93.3393 88.2894C93.4798 88.2948 93.6196 88.2672 93.7477 88.2089C93.8757 88.1506 93.9883 88.0632 94.0765 87.9536C94.1647 87.844 94.226 87.7154 94.2557 87.5778C94.2853 87.4403 94.2824 87.2978 94.2471 87.1616C94.0498 86.1353 94.1005 86.1241 93.9032 85.1034C93.7058 84.0827 93.7283 84.0715 93.531 83.0452C93.3336 82.0189 93.3787 82.0133 93.1813 80.9926C92.984 79.9719 92.8599 79.9888 92.6625 78.9626C92.4652 77.9363 92.4652 77.9363 92.2678 76.9156C92.0705 75.895 92.1889 75.8668 91.9915 74.8405C91.7942 73.8142 91.7321 73.8255 91.5291 72.8048C91.3261 71.7842 91.2246 71.8011 91.0272 70.7748C90.8299 69.7485 90.937 69.7259 90.7396 68.7053C90.5423 67.6846 90.5762 67.6734 90.3788 66.6471C90.1814 65.6208 90.1814 65.6208 89.984 64.5945C89.7867 63.5682 89.8148 63.5569 89.6175 62.5306C89.561 62.2848 89.4269 62.0638 89.235 61.9002C89.043 61.7367 88.8034 61.6394 88.5518 61.6227C87.5424 61.6227 87.5424 61.8427 86.5386 61.8427C85.5349 61.8427 85.5293 61.6227 84.5255 61.6227C83.5218 61.6227 83.5161 61.8652 82.5124 61.8652C81.5087 61.8652 81.503 61.5945 80.4993 61.5945C79.4956 61.5945 79.4899 61.6791 78.4805 61.6791C77.4711 61.6791 77.4768 61.6791 76.4674 61.6791C75.4581 61.6791 75.4581 61.6791 74.4544 61.6791C73.4506 61.6791 73.4449 61.8258 72.4356 61.8258C71.4262 61.8258 71.4318 61.8258 70.4224 61.8258C69.4131 61.8258 69.4187 61.6566 68.4094 61.6566C67.4 61.6566 67.4 61.8652 66.3962 61.8652C65.3925 61.8652 65.3869 61.6509 64.3775 61.6509C63.3681 61.6509 63.3681 61.8539 62.3587 61.8539C62.0902 61.8418 61.8334 61.7403 61.6291 61.5656C61.4248 61.3909 61.2847 61.153 61.2309 60.8897C61.0787 59.8013 61.2309 59.7619 61.0899 58.6848C60.949 57.6078 60.9659 57.5909 60.808 56.4969C60.6501 55.403 60.4809 55.4311 60.3231 54.3372C60.3022 54.091 60.1942 53.8603 60.0185 53.6867C59.8428 53.513 59.6108 53.4078 59.3644 53.3898C58.3212 53.3898 58.3212 53.5928 57.278 53.5928C56.2348 53.5928 56.2348 53.3504 55.1916 53.3504C54.1484 53.3504 54.1484 53.5365 53.1052 53.5365C52.062 53.5365 52.062 53.3278 51.0188 53.3278C49.9755 53.3278 49.9755 53.4462 48.9323 53.4462C47.8891 53.4462 47.8891 53.5872 46.8459 53.5872C45.8027 53.5872 45.8027 53.4575 44.7595 53.4575C43.7163 53.4575 43.7163 53.3334 42.6731 53.3334C41.6299 53.3334 41.6299 53.4406 40.5867 53.4406C39.5435 53.4406 39.5378 53.4067 38.4946 53.4067C38.3361 53.4163 38.1814 53.4592 38.0406 53.5327C37.8999 53.6061 37.7762 53.7085 37.6777 53.8331C37.5792 53.9576 37.5082 54.1016 37.4692 54.2555C37.4302 54.4094 37.4241 54.5698 37.4514 54.7263Z" stroke="#414C58" stroke-width="0.845845" stroke-miterlimit="10" stroke-linecap="round"/>
<path d="M48.0808 82.6222C47.0771 82.6222 47.0771 82.5771 46.0734 82.5771C45.0696 82.5771 45.0696 82.6843 44.0659 82.6843C43.0622 82.6843 43.0622 82.6843 42.0584 82.6843C41.0547 82.6843 41.0547 82.6279 40.0509 82.6279C39.0472 82.6279 39.0472 82.594 38.0435 82.594C37.0397 82.594 37.0397 82.6786 36.0304 82.6786C35.021 82.6786 35.0266 82.5433 34.0229 82.5433C33.4078 82.5776 32.8027 82.3759 32.3312 81.9794C31.9463 81.5034 31.7586 80.898 31.8068 80.2877C31.8068 79.3178 31.8068 79.3178 31.8068 78.3479C31.8068 77.378 31.6038 77.3836 31.6038 76.4137C31.6038 75.4438 31.7729 75.4495 31.7729 74.4795C31.7729 73.5096 31.6771 73.5096 31.6771 72.5454C31.6771 71.5811 31.8237 71.5755 31.8237 70.6056C31.8237 69.6357 31.756 69.6413 31.756 68.6714C31.756 67.7015 31.6883 67.7015 31.6883 66.7316C31.6883 65.7617 31.5812 65.7617 31.5812 64.7918C31.6694 64.1821 31.9934 63.6314 32.4835 63.258C32.6799 63.0484 32.9176 62.8815 33.1815 62.768C33.4454 62.6545 33.7299 62.5967 34.0172 62.5983C35.021 62.5983 35.021 62.5983 36.0247 62.5983C37.0285 62.5983 37.0284 62.508 38.0322 62.508C39.0359 62.508 39.036 62.508 40.0397 62.508C41.0434 62.508 41.0434 62.508 42.0472 62.508C43.0509 62.508 43.0509 62.57 44.0546 62.57C45.0584 62.57 45.0584 62.3276 46.0621 62.3276C47.0658 62.3276 47.0658 62.4742 48.0752 62.4742C48.3885 62.4854 48.6958 62.563 48.9768 62.7021C49.2578 62.8411 49.5059 63.0383 49.7049 63.2806C50.4097 64.0531 50.5733 63.9009 51.2782 64.6791C51.983 65.4572 51.842 65.57 52.5525 66.3707C53.263 67.1715 53.3533 67.0587 54.0582 67.8369C54.763 68.615 54.6784 68.6883 55.3833 69.4609C56.0882 70.2334 56.2066 70.1319 56.9115 70.9101C57.2355 71.3854 57.3703 71.9646 57.2893 72.5341C57.3392 73.0886 57.1713 73.6407 56.8212 74.0736C56.1164 74.8517 56.0543 74.7897 55.3495 75.5679C54.6446 76.3461 54.7066 76.3968 54.0018 77.1693C53.2969 77.9419 53.2236 77.8742 52.5131 78.6524C51.8026 79.4306 51.8138 79.4306 51.109 80.2088C50.4041 80.9869 50.5451 81.111 49.8402 81.9005C49.6103 82.1326 49.3361 82.3161 49.0339 82.4401C48.7316 82.5641 48.4075 82.626 48.0808 82.6222Z" fill="#6A69FF"/>
</svg>
