<svg width="688" height="560" viewBox="0 0 688 560" fill="none" xmlns="http://www.w3.org/2000/svg">
<path fill-rule="evenodd" clip-rule="evenodd" d="M16.9207 508.969C24.1465 508.969 24.1465 507.661 31.3687 507.661C38.6052 507.661 38.6052 507.623 45.8452 507.623C53.0781 507.623 53.0781 507.727 60.3145 507.727C66.3544 507.727 66.3544 508.092 72.3978 508.092C78.4483 508.092 78.4483 507.551 84.4988 507.551C90.5493 507.551 90.5493 508.62 96.5998 508.62C103.069 508.62 103.069 507.862 109.539 507.862C116.008 507.862 116.008 508.117 122.481 508.117C128.951 508.117 128.951 507.491 135.424 507.491C141.893 507.491 141.893 508.896 148.37 508.896C154.839 508.896 154.839 508.176 161.309 508.176C167.778 508.176 167.778 507.557 174.251 507.557C180.714 507.557 180.714 508.903 187.18 508.903C193.649 508.903 193.649 508.264 200.122 508.264C206.588 508.264 206.588 508.865 213.058 508.865C219.531 508.865 219.531 508.305 226.004 508.305C232.473 508.305 232.473 507.504 238.943 507.504C245.416 507.504 245.416 508.513 251.889 508.513C258.365 508.513 258.365 508.17 264.842 508.17C271.319 508.17 271.319 508.739 277.792 508.739C284.268 508.739 284.268 508.488 290.745 508.488C297.218 508.488 297.218 508.374 303.694 508.374C310.167 508.374 310.167 509 316.644 509C323.117 509 323.117 507.922 329.597 507.922C336.084 507.922 336.084 507.479 342.568 507.479C349.059 507.479 349.059 508.032 355.543 508.032C359.889 508.032 364.235 508.679 368.528 508.491C372.867 508.299 377.135 507.397 381.41 507.016C385.728 506.633 390.124 506.815 394.377 506.243C398.667 505.668 402.903 504.781 407.121 504.018C411.368 503.251 415.302 501.368 419.471 500.415C423.668 499.457 428.252 499.733 432.36 498.592C436.496 497.445 440.097 494.949 444.138 493.622C448.2 492.289 452.603 491.758 456.562 490.249C460.539 488.737 463.979 486.232 467.85 484.547C471.731 482.856 475.658 481.309 479.425 479.452C483.207 477.591 487.329 476.258 490.99 474.237C494.654 472.209 498.589 470.493 502.129 468.305C505.676 466.117 508.211 462.713 511.623 460.371C515.039 458.026 519.3 456.599 522.578 454.109C525.855 451.613 528.277 448.275 531.408 445.641C534.537 443.007 537.7 440.423 540.676 437.653C543.655 434.881 546.613 432.108 549.428 429.207C552.244 426.309 554.637 423.127 557.286 420.103C559.932 417.083 563.525 414.675 566 411.534C568.468 408.4 570.531 404.996 572.821 401.752C575.104 398.511 577.068 395.088 579.17 391.743C581.268 388.405 583.083 384.935 584.993 381.499C586.893 378.072 588.224 374.429 589.932 370.909C591.633 367.4 594.491 364.298 595.993 360.702C597.492 357.128 597.829 353.183 599.121 349.524C600.41 345.887 601.507 342.212 602.59 338.5C603.666 334.809 605.459 331.257 606.329 327.498C607.189 323.766 607.554 319.934 608.204 316.137C608.854 312.374 610.296 308.668 610.729 304.846C611.158 301.058 609.972 297.144 610.189 293.303C610.402 289.506 611.016 285.715 611.016 281.867C611.016 274.914 611.744 274.914 611.744 267.958C611.744 261.001 612 261.001 612 254.048C612 250.2 610.494 246.406 610.278 242.609C610.061 238.768 610.299 234.933 609.87 231.148C609.436 227.322 608.389 223.6 607.743 219.838C607.089 216.04 606.202 212.325 605.339 208.594C604.472 204.834 604.334 200.949 603.258 197.258C602.175 193.546 600.78 189.918 599.491 186.281C598.195 182.622 596.604 179.07 595.109 175.493C593.603 171.9 592.964 167.996 591.26 164.491C589.556 160.967 587.429 157.598 585.525 154.171C583.619 150.732 581.119 147.57 579.021 144.232C576.918 140.887 575.136 137.373 572.849 134.132C570.559 130.888 567.243 128.253 564.775 125.119C562.3 121.982 560.613 118.345 557.968 115.324C555.319 112.304 552.301 109.544 549.485 106.645C546.669 103.741 543.381 101.242 540.406 98.4725C537.427 95.7 534.497 92.9212 531.369 90.287C528.237 87.6528 525.095 85.0594 521.818 82.5667C518.54 80.0771 515.004 77.9081 511.588 75.5631C508.176 73.2212 505.047 70.5744 501.5 68.3834C497.96 66.1987 494.047 64.5516 490.376 62.5241C486.718 60.4997 483.53 57.7869 479.748 55.9228C475.981 54.0682 472.171 52.2419 468.29 50.5507C464.42 48.8689 460.581 47.0615 456.608 45.5495C452.645 44.0438 448.324 43.2988 444.266 41.9691C440.225 40.6425 436.138 39.4512 432.005 38.3038C427.897 37.1628 423.824 35.8959 419.63 34.9372C415.462 33.9847 411.35 32.7242 407.103 31.9541C402.889 31.1902 398.549 30.9136 394.264 30.3352C390.01 29.7631 385.696 29.5745 381.378 29.191C377.103 28.8106 372.814 28.5057 368.478 28.314C364.189 28.1254 359.889 28.0531 355.543 28.0531C349.073 28.0531 349.073 27.7576 342.604 27.7576C336.134 27.7576 336.134 28.1285 329.661 28.1285C323.192 28.1285 323.192 27.5878 316.722 27.5878C310.249 27.5878 310.249 27.6067 303.776 27.6067C297.303 27.6067 297.303 27.9902 290.834 27.9902C284.361 27.9902 284.361 27 277.891 27C271.429 27 271.429 27.4275 264.963 27.4275C258.493 27.4275 258.493 28.1002 252.02 28.1002C245.554 28.1002 245.554 28.1756 239.085 28.1756C232.612 28.1756 232.612 27.5815 226.139 27.5815C219.669 27.5815 219.669 28.0468 213.2 28.0468C206.727 28.0468 206.727 27.7167 200.254 27.7167C193.777 27.7167 193.777 28.3517 187.3 28.3517C180.827 28.3517 180.827 28.0122 174.351 28.0122C167.874 28.0122 167.874 27.2169 161.398 27.2169C154.925 27.2169 154.925 28.0593 148.448 28.0593C141.975 28.0593 141.975 27.6727 135.502 27.6727C129.022 27.6727 129.022 27.8739 122.549 27.8739C116.058 27.8739 116.058 27.701 109.574 27.701C103.087 27.701 103.087 27.0912 96.5998 27.0912C90.5564 27.0912 90.5564 27.0692 84.5165 27.0692C78.466 27.0692 78.466 28.3485 72.4156 28.3485C66.3651 28.3485 66.365 28.0845 60.3145 28.0845C53.0923 28.0845 53.0923 27.1383 45.8665 27.1383C38.63 27.1383 38.63 28.2259 31.3936 28.2259C24.1571 28.2259 24.1572 27.9713 16.9207 27.9713C12.5852 27.9713 8.24973 27.2766 3.96751 27.4621C-0.36087 27.6444 -4.70346 27.7701 -8.97502 28.1411C-13.2857 28.512 -17.3939 30.222 -21.6406 30.7753C-25.9228 31.3348 -30.3364 31.0928 -34.5476 31.8283C-38.7943 32.5733 -42.9096 33.7867 -47.0782 34.7077C-51.2752 35.635 -55.3906 36.751 -59.5023 37.8543C-63.6425 38.9639 -67.7437 40.1176 -71.7915 41.4001C-75.8607 42.6889 -80.0648 43.6508 -84.0381 45.1125C-88.0292 46.5742 -91.8462 48.3848 -95.7379 50.0163C-99.6402 51.6509 -103.436 53.4584 -107.228 55.2596C-111.035 57.0639 -114.628 59.1637 -118.321 61.1252C-122.021 63.093 -125.994 64.6647 -129.573 66.7866C-133.159 68.9115 -136.394 71.4703 -139.853 73.743C-143.315 76.022 -147.316 77.7006 -150.647 80.1211C-153.977 82.5447 -156.42 85.8861 -159.616 88.448C-162.808 91.0131 -166.103 93.4556 -169.15 96.1558C-172.2 98.856 -175.779 101.113 -178.673 103.942C-181.57 106.768 -184.276 109.77 -187.014 112.719C-189.748 115.667 -191.988 118.965 -194.563 122.033C-197.13 125.091 -200.301 127.798 -202.701 130.969C-205.094 134.138 -206.884 137.674 -209.107 140.947C-211.322 144.216 -213.971 147.29 -216.009 150.66C-218.04 154.02 -219.645 157.598 -221.492 161.052C-223.334 164.494 -224.851 168.081 -226.505 171.611C-228.153 175.129 -230.116 178.558 -231.572 182.16C-233.021 185.744 -233.199 189.705 -234.452 193.367C-235.702 197.007 -238.095 200.374 -239.142 204.086C-240.183 207.776 -239.934 211.731 -240.776 215.487C-241.61 219.218 -243.087 222.849 -243.719 226.643C-244.344 230.4 -245.033 234.175 -245.456 237.991C-245.871 241.773 -246.762 245.564 -246.972 249.392C-247.178 253.187 -246.184 257.034 -246.184 260.875C-246.184 267.958 -245.868 267.958 -245.868 275.04C-245.868 278.878 -245.985 282.675 -245.775 286.469C-245.566 290.301 -246.308 294.18 -245.892 297.962C-245.473 301.775 -244.589 305.547 -243.968 309.303C-243.336 313.097 -242.587 316.87 -241.756 320.598C-240.914 324.357 -240.36 328.18 -239.324 331.87C-238.273 335.582 -236.643 339.163 -235.4 342.806C-234.147 346.471 -232.63 350.052 -231.182 353.635C-229.726 357.238 -227.649 360.607 -226.001 364.125C-224.346 367.658 -222.493 371.075 -220.65 374.517C-218.8 377.972 -218.122 381.945 -216.091 385.305C-214.049 388.672 -211.624 391.872 -209.405 395.138C-207.186 398.414 -204.111 401.205 -201.714 404.374C-199.314 407.545 -196.59 410.481 -194.023 413.543C-191.449 416.608 -188.899 419.648 -186.165 422.593C-183.427 425.545 -181.368 429.003 -178.474 431.828C-175.577 434.654 -172.058 436.952 -169.008 439.652C-165.961 442.35 -163.156 445.26 -159.961 447.825C-156.772 450.387 -153.761 453.157 -150.43 455.58C-147.1 458.001 -143.996 460.726 -140.534 463.002C-137.076 465.278 -132.538 466.205 -128.955 468.33C-125.376 470.452 -122.074 472.923 -118.374 474.89C-114.681 476.852 -111.407 479.496 -107.601 481.297C-103.809 483.098 -99.6899 484.384 -95.7911 486.021C-91.8995 487.653 -87.5924 488.429 -83.6049 489.897C-79.6316 491.353 -75.9424 493.449 -71.8732 494.735C-67.8253 496.018 -63.8556 497.589 -59.7189 498.699C-55.6072 499.799 -51.2859 500.334 -47.0924 501.261C-42.9238 502.182 -38.6416 502.663 -34.3985 503.405C-30.1837 504.143 -26.1358 505.86 -21.8536 506.416C-17.6069 506.969 -13.2679 507.224 -8.95726 507.595C-4.68568 507.963 -0.328903 507.633 3.99948 507.818C8.28169 508 12.5852 508.969 16.9207 508.969Z" fill="#F2F2FF"/>
<rect x="300" y="200" width="176" height="176" rx="27.84" fill="#FFC7C7"/>
<path d="M222 268L596 268" stroke="#6A69FF" stroke-width="2" stroke-linejoin="round" stroke-dasharray="4 4"/>
<path d="M232 91L586 445" stroke="#6A69FF" stroke-width="2" stroke-linejoin="round" stroke-dasharray="4 4"/>
<path d="M232 445L586 91" stroke="#6A69FF" stroke-width="2" stroke-linejoin="round" stroke-dasharray="4 4"/>
<path d="M409 455L409 81" stroke="#6A69FF" stroke-width="2" stroke-linejoin="round" stroke-dasharray="4 4"/>
<g filter="url(#filter0_dd_4263_10516)">
<rect x="179" y="39" width="88" height="88" rx="16" fill="#5B8EDD"/>
</g>
<path d="M211.512 98.2352C203.934 98.1489 197.766 92.9529 196.149 86.0191C195.775 84.408 195.648 82.768 195.792 81.1166C196.402 74.0159 201.581 68.4459 208.198 67.0246C209.475 66.7484 210.77 66.6161 212.076 66.6793C213.359 66.7369 214.625 66.921 215.863 67.2778C216.818 67.554 217.641 67.2375 218.061 66.4607C218.584 65.4882 218.112 64.2856 217.019 63.9634C216.196 63.7217 215.35 63.5145 214.505 63.3995C213.492 63.2556 212.462 63.1463 211.443 63.1635C205.672 63.2671 200.827 65.4422 196.977 69.7693C194.676 72.353 193.226 75.3739 192.558 78.7631C192.224 80.4606 192.121 82.1811 192.259 83.9073C192.949 92.4523 199.037 99.3688 207.289 101.233C208.399 101.486 209.527 101.619 210.667 101.665C215.529 101.855 219.867 100.451 223.654 97.4009C224.609 96.6356 225.466 95.7494 226.341 94.8863C229.46 91.7906 232.561 88.6833 235.674 85.5876C236.675 84.5921 237.314 83.4182 237.573 82.02C238.085 79.258 236.629 76.3521 234.086 75.1035C231.491 73.8375 228.556 74.3266 226.485 76.3809C223.268 79.5802 220.057 82.7853 216.847 85.9904C216.265 86.5715 215.569 86.8938 214.746 86.9053C213.503 86.9225 212.433 86.2205 211.95 85.0985C211.472 83.9879 211.714 82.722 212.594 81.8358C214.476 79.9485 216.369 78.0669 218.256 76.1852C219.844 74.6028 221.444 73.0262 223.021 71.4323C225.397 69.0328 228.234 67.4734 231.566 66.921C236.376 66.1212 240.715 67.249 244.478 70.3735C247.234 72.6579 248.989 75.5811 249.76 79.0796C250.117 80.708 250.198 82.348 250.037 84.0167C249.438 90.3117 244.95 95.6229 239.081 97.4527C237.861 97.8325 236.618 98.0511 235.34 98.1432C233.465 98.2755 231.64 98.0339 229.834 97.5332C228.942 97.2858 228.084 97.6656 227.71 98.4597C227.267 99.3976 227.716 100.543 228.712 100.848C229.581 101.112 230.467 101.325 231.364 101.463C232.337 101.607 233.326 101.711 234.31 101.699C240.082 101.619 244.944 99.4666 248.817 95.1625C251.239 92.4696 252.73 89.299 253.368 85.7429C253.65 84.1663 253.737 82.5666 253.604 80.967C253.288 77.1577 252.005 73.7052 249.645 70.6958C246.619 66.829 242.689 64.4122 237.849 63.4915C236.629 63.2614 235.398 63.1405 234.167 63.1635C229.034 63.2729 224.557 65.0394 220.874 68.6358C217.261 72.1688 213.71 75.7652 210.131 79.3328C208.739 80.7253 208.083 82.4228 208.209 84.3792C208.405 87.4289 210.649 89.7996 213.463 90.3117C215.77 90.7318 217.756 90.0701 219.419 88.4129C222.606 85.2308 225.8 82.043 228.994 78.8609C230.398 77.4627 232.613 77.6698 233.672 79.2867C234.449 80.4664 234.287 81.997 233.263 83.027C230.881 85.4149 228.487 87.7972 226.093 90.1794C224.862 91.405 223.654 92.6479 222.399 93.8448C220.057 96.0659 217.29 97.4469 214.102 97.9533C213.244 98.0914 212.376 98.1432 211.512 98.2352Z" fill="white"/>
<g filter="url(#filter1_dd_4263_10516)">
<rect x="549" y="407" width="88" height="88" rx="16" fill="#00A1E0"/>
</g>
<path d="M586.962 431.067C589.284 428.647 592.517 427.147 596.093 427.147C600.845 427.147 604.992 429.797 607.2 433.731C609.119 432.874 611.243 432.397 613.478 432.397C622.05 432.397 629 439.407 629 448.054C629 456.702 622.05 463.713 613.478 463.713C612.432 463.713 611.409 463.608 610.421 463.408C608.476 466.877 604.77 469.22 600.517 469.22C598.737 469.22 597.053 468.809 595.553 468.078C593.582 472.715 588.989 475.966 583.636 475.966C578.062 475.966 573.311 472.439 571.487 467.492C570.69 467.661 569.865 467.75 569.018 467.75C562.381 467.75 557 462.314 557 455.607C557 451.113 559.418 447.189 563.009 445.089C562.27 443.388 561.859 441.51 561.859 439.535C561.859 431.822 568.12 425.57 575.843 425.57C580.378 425.57 584.407 427.726 586.962 431.067Z" fill="white"/>
<path d="M567.429 451.704C567.384 451.822 567.445 451.847 567.46 451.867C567.595 451.966 567.732 452.037 567.871 452.115C568.605 452.505 569.298 452.619 570.024 452.619C571.501 452.619 572.417 451.833 572.417 450.569V450.544C572.417 449.375 571.383 448.95 570.411 448.644L570.285 448.603C569.553 448.365 568.921 448.16 568.921 447.678V447.652C568.921 447.24 569.29 446.936 569.863 446.936C570.498 446.936 571.253 447.147 571.74 447.416C571.74 447.416 571.882 447.508 571.934 447.37C571.963 447.296 572.209 446.633 572.235 446.562C572.263 446.484 572.213 446.426 572.163 446.395C571.608 446.058 570.841 445.827 570.047 445.827L569.9 445.828C568.548 445.828 567.604 446.645 567.604 447.815V447.84C567.604 449.073 568.645 449.473 569.621 449.752L569.777 449.801C570.488 450.019 571.101 450.207 571.101 450.707V450.732C571.101 451.189 570.703 451.53 570.061 451.53C569.811 451.53 569.016 451.525 568.158 450.982C568.054 450.922 567.994 450.878 567.914 450.829C567.872 450.803 567.766 450.757 567.72 450.896L567.429 451.704Z" fill="#00A1E0"/>
<path d="M589.05 451.704C589.005 451.822 589.067 451.847 589.081 451.867C589.216 451.966 589.354 452.037 589.492 452.115C590.227 452.505 590.92 452.619 591.645 452.619C593.122 452.619 594.039 451.833 594.039 450.569V450.544C594.039 449.375 593.004 448.95 592.033 448.644L591.907 448.603C591.174 448.365 590.543 448.16 590.543 447.678V447.652C590.543 447.24 590.912 446.936 591.484 446.936C592.12 446.936 592.875 447.147 593.361 447.416C593.361 447.416 593.504 447.508 593.556 447.37C593.585 447.296 593.831 446.633 593.856 446.562C593.884 446.484 593.835 446.426 593.785 446.395C593.23 446.058 592.463 445.827 591.669 445.827L591.521 445.828C590.169 445.828 589.226 446.645 589.226 447.815V447.84C589.226 449.073 590.267 449.473 591.242 449.752L591.399 449.801C592.11 450.019 592.723 450.207 592.723 450.707V450.732C592.723 451.189 592.324 451.53 591.682 451.53C591.433 451.53 590.638 451.525 589.78 450.982C589.676 450.922 589.614 450.88 589.536 450.829C589.51 450.812 589.385 450.764 589.342 450.896L589.05 451.704Z" fill="#00A1E0"/>
<path d="M603.811 449.227C603.811 449.942 603.677 450.505 603.415 450.903C603.155 451.297 602.762 451.489 602.215 451.489C601.666 451.489 601.275 451.298 601.02 450.903C600.761 450.506 600.63 449.942 600.63 449.227C600.63 448.513 600.761 447.951 601.02 447.557C601.275 447.168 601.666 446.978 602.215 446.978C602.762 446.978 603.155 447.168 603.416 447.557C603.677 447.951 603.811 448.513 603.811 449.227ZM605.043 447.902C604.922 447.493 604.734 447.132 604.482 446.831C604.231 446.53 603.913 446.288 603.536 446.111C603.159 445.936 602.714 445.847 602.215 445.847C601.714 445.847 601.269 445.936 600.893 446.111C600.515 446.288 600.197 446.53 599.945 446.831C599.695 447.133 599.506 447.494 599.384 447.902C599.264 448.309 599.203 448.754 599.203 449.227C599.203 449.7 599.264 450.146 599.384 450.552C599.506 450.96 599.694 451.321 599.946 451.623C600.197 451.925 600.516 452.166 600.893 452.337C601.27 452.508 601.714 452.595 602.215 452.595C602.714 452.595 603.158 452.508 603.536 452.337C603.912 452.166 604.231 451.925 604.482 451.623C604.734 451.323 604.922 450.961 605.043 450.552C605.165 450.145 605.225 449.699 605.225 449.227C605.225 448.755 605.165 448.309 605.043 447.902Z" fill="#00A1E0"/>
<path d="M615.167 451.298C615.126 451.178 615.01 451.223 615.01 451.223C614.831 451.292 614.64 451.355 614.437 451.387C614.231 451.419 614.004 451.435 613.761 451.435C613.164 451.435 612.69 451.258 612.351 450.907C612.01 450.556 611.82 449.989 611.822 449.222C611.824 448.523 611.992 447.998 612.295 447.598C612.595 447.2 613.052 446.996 613.663 446.996C614.171 446.996 614.559 447.055 614.965 447.183C614.965 447.183 615.063 447.225 615.109 447.098C615.217 446.798 615.297 446.584 615.411 446.255C615.444 446.161 615.364 446.121 615.336 446.11C615.176 446.048 614.798 445.946 614.513 445.903C614.246 445.862 613.935 445.84 613.588 445.84C613.07 445.84 612.608 445.929 612.214 446.105C611.82 446.28 611.485 446.522 611.221 446.824C610.956 447.125 610.755 447.487 610.621 447.895C610.487 448.302 610.42 448.749 610.42 449.222C610.42 450.244 610.696 451.071 611.24 451.676C611.786 452.283 612.605 452.592 613.674 452.592C614.306 452.592 614.954 452.464 615.42 452.28C615.42 452.28 615.509 452.237 615.47 452.134L615.167 451.298Z" fill="#00A1E0"/>
<path d="M617.324 448.542C617.383 448.145 617.493 447.815 617.662 447.558C617.917 447.167 618.307 446.953 618.855 446.953C619.402 446.953 619.764 447.168 620.024 447.558C620.196 447.815 620.271 448.16 620.301 448.542H617.324ZM621.475 447.669C621.37 447.275 621.111 446.876 620.941 446.693C620.672 446.404 620.409 446.202 620.149 446.089C619.808 445.943 619.4 445.847 618.953 445.847C618.432 445.847 617.959 445.934 617.576 446.115C617.191 446.295 616.868 446.541 616.615 446.848C616.361 447.154 616.17 447.518 616.049 447.931C615.927 448.342 615.866 448.79 615.866 449.263C615.866 449.744 615.929 450.193 616.056 450.596C616.183 451.002 616.386 451.36 616.661 451.656C616.935 451.955 617.287 452.188 617.71 452.351C618.129 452.514 618.639 452.598 619.225 452.597C620.43 452.593 621.065 452.324 621.326 452.179C621.373 452.154 621.417 452.108 621.361 451.979L621.088 451.215C621.047 451.101 620.931 451.143 620.931 451.143C620.633 451.254 620.208 451.453 619.219 451.451C618.571 451.45 618.091 451.259 617.791 450.961C617.482 450.655 617.331 450.206 617.305 449.572L621.478 449.576C621.478 449.576 621.588 449.574 621.599 449.467C621.603 449.422 621.743 448.61 621.475 447.669Z" fill="#00A1E0"/>
<path d="M583.902 448.542C583.962 448.145 584.07 447.815 584.24 447.558C584.495 447.167 584.885 446.953 585.432 446.953C585.98 446.953 586.342 447.168 586.603 447.558C586.774 447.815 586.849 448.16 586.878 448.542H583.902ZM588.052 447.669C587.947 447.275 587.689 446.876 587.518 446.693C587.25 446.404 586.987 446.202 586.727 446.089C586.386 445.943 585.978 445.847 585.531 445.847C585.011 445.847 584.537 445.934 584.153 446.115C583.769 446.295 583.446 446.541 583.192 446.848C582.939 447.154 582.748 447.518 582.627 447.931C582.506 448.342 582.444 448.79 582.444 449.263C582.444 449.744 582.507 450.193 582.633 450.596C582.761 451.002 582.964 451.36 583.238 451.656C583.512 451.955 583.865 452.188 584.288 452.351C584.707 452.514 585.217 452.598 585.803 452.597C587.008 452.593 587.643 452.324 587.904 452.179C587.95 452.154 587.994 452.108 587.939 451.979L587.667 451.215C587.625 451.101 587.509 451.143 587.509 451.143C587.211 451.254 586.787 451.453 585.795 451.451C585.149 451.45 584.669 451.259 584.369 450.961C584.06 450.655 583.909 450.206 583.883 449.572L588.056 449.576C588.056 449.576 588.166 449.574 588.177 449.467C588.181 449.422 588.321 448.61 588.052 447.669Z" fill="#00A1E0"/>
<path d="M574.881 451.275C574.718 451.145 574.696 451.112 574.64 451.028C574.558 450.899 574.516 450.717 574.516 450.485C574.516 450.118 574.637 449.854 574.889 449.677C574.886 449.678 575.248 449.364 576.099 449.375C576.697 449.384 577.231 449.472 577.231 449.472V451.369H577.232C577.232 451.369 576.702 451.483 576.105 451.519C575.256 451.57 574.878 451.274 574.881 451.275ZM576.542 448.343C576.373 448.33 576.153 448.323 575.891 448.323C575.533 448.323 575.187 448.368 574.863 448.455C574.537 448.543 574.243 448.679 573.991 448.859C573.738 449.041 573.534 449.273 573.386 449.548C573.238 449.823 573.163 450.147 573.163 450.51C573.163 450.879 573.227 451.2 573.354 451.463C573.481 451.726 573.665 451.946 573.899 452.115C574.131 452.284 574.417 452.408 574.749 452.483C575.076 452.558 575.448 452.596 575.854 452.596C576.281 452.596 576.708 452.561 577.121 452.49C577.531 452.421 578.033 452.319 578.173 452.287C578.311 452.254 578.465 452.212 578.465 452.212C578.569 452.187 578.56 452.076 578.56 452.076L578.558 448.259C578.558 447.423 578.335 446.802 577.895 446.417C577.457 446.034 576.812 445.84 575.978 445.84C575.665 445.84 575.161 445.883 574.86 445.944C574.86 445.944 573.948 446.12 573.573 446.413C573.573 446.413 573.491 446.465 573.536 446.579L573.831 447.373C573.868 447.476 573.968 447.441 573.968 447.441C573.968 447.441 573.999 447.429 574.036 447.407C574.839 446.97 575.855 446.984 575.855 446.984C576.306 446.984 576.653 447.074 576.887 447.253C577.114 447.428 577.23 447.691 577.23 448.247V448.424C576.871 448.372 576.542 448.343 576.542 448.343Z" fill="#00A1E0"/>
<path d="M610.202 446.192C610.233 446.098 610.167 446.053 610.139 446.043C610.068 446.015 609.713 445.94 609.44 445.923C608.915 445.891 608.624 445.979 608.364 446.096C608.105 446.213 607.818 446.402 607.658 446.616V446.108C607.658 446.037 607.608 445.981 607.538 445.981H606.468C606.399 445.981 606.348 446.037 606.348 446.108V452.333C606.348 452.403 606.406 452.46 606.475 452.46H607.572C607.642 452.46 607.698 452.403 607.698 452.333V449.223C607.698 448.806 607.744 448.389 607.836 448.128C607.927 447.869 608.05 447.662 608.202 447.513C608.354 447.366 608.528 447.262 608.717 447.204C608.911 447.144 609.126 447.125 609.277 447.125C609.496 447.125 609.736 447.181 609.736 447.181C609.816 447.19 609.861 447.141 609.888 447.068C609.96 446.877 610.163 446.306 610.202 446.192Z" fill="#00A1E0"/>
<path d="M599.91 443.307C599.777 443.266 599.656 443.239 599.498 443.209C599.338 443.18 599.147 443.166 598.931 443.166C598.176 443.166 597.581 443.379 597.163 443.8C596.748 444.218 596.466 444.855 596.324 445.693L596.273 445.975H595.326C595.326 445.975 595.211 445.971 595.186 446.096L595.031 446.965C595.02 447.047 595.056 447.099 595.167 447.099H596.089L595.153 452.322C595.08 452.742 594.996 453.088 594.903 453.35C594.812 453.609 594.722 453.803 594.612 453.944C594.505 454.08 594.404 454.18 594.23 454.239C594.087 454.287 593.92 454.309 593.739 454.309C593.638 454.309 593.504 454.293 593.404 454.272C593.306 454.253 593.254 454.231 593.179 454.2C593.179 454.2 593.071 454.159 593.028 454.266C592.994 454.355 592.748 455.031 592.718 455.114C592.69 455.198 592.731 455.262 592.783 455.282C592.906 455.325 592.997 455.353 593.164 455.393C593.396 455.448 593.592 455.451 593.776 455.451C594.159 455.451 594.51 455.397 594.8 455.292C595.092 455.186 595.346 455.003 595.572 454.754C595.815 454.486 595.968 454.205 596.113 453.82C596.258 453.441 596.382 452.969 596.48 452.419L597.421 447.099H598.795C598.795 447.099 598.911 447.103 598.935 446.977L599.091 446.109C599.101 446.026 599.066 445.975 598.954 445.975H597.62C597.627 445.945 597.688 445.475 597.84 445.033C597.906 444.846 598.029 444.693 598.133 444.588C598.235 444.486 598.353 444.413 598.482 444.371C598.615 444.328 598.766 444.307 598.931 444.307C599.056 444.307 599.18 444.322 599.273 444.341C599.402 444.369 599.453 444.383 599.487 444.393C599.623 444.434 599.641 444.394 599.668 444.329L599.987 443.453C600.02 443.359 599.939 443.319 599.91 443.307Z" fill="#00A1E0"/>
<path d="M581.267 452.333C581.267 452.403 581.216 452.459 581.147 452.459H580.04C579.97 452.459 579.921 452.403 579.921 452.333V443.426C579.921 443.357 579.97 443.3 580.04 443.3H581.147C581.216 443.3 581.267 443.357 581.267 443.426V452.333Z" fill="#00A1E0"/>
<g filter="url(#filter2_dd_4263_10516)">
<rect x="365" y="436" width="88" height="88" rx="16" fill="white"/>
</g>
<g opacity="0.96">
<path d="M383.955 501.75H393.182V479.347L380 469.463V497.796C380 499.984 381.773 501.75 383.955 501.75Z" fill="#4285F4"/>
<path d="M424.818 501.75H434.045C436.234 501.75 438 499.977 438 497.796V469.463L424.818 479.347" fill="#34A853"/>
<path d="M424.818 462.215V479.347L438 469.463V464.191C438 459.302 432.418 456.515 428.509 459.447" fill="#FBBC04"/>
<path d="M393.182 479.347V462.215L409 474.075L424.818 462.215V479.347L409 491.207" fill="#EA4335"/>
<path d="M380 464.191V469.463L393.182 479.347V462.215L389.491 459.447C385.576 456.515 380 459.302 380 464.191Z" fill="#C5221F"/>
</g>
<g filter="url(#filter3_dd_4263_10516)">
<rect x="363" y="12" width="88" height="88" rx="16" fill="#313942"/>
</g>
<path d="M436.4 57.9628C436.402 57.7191 436.34 57.479 436.222 57.2659C436.104 57.0528 435.932 56.8739 435.725 56.7464H435.717L435.691 56.7317L413.722 43.7273C413.627 43.6632 413.529 43.6046 413.427 43.5519C413.009 43.3362 412.545 43.2236 412.075 43.2236C411.604 43.2236 411.141 43.3362 410.723 43.5519C410.621 43.6046 410.523 43.6632 410.428 43.7273L388.459 56.7317L388.433 56.7464C387.761 57.164 387.555 58.0468 387.973 58.7182C388.096 58.916 388.265 59.0809 388.467 59.1984L410.435 72.2028C410.531 72.2663 410.629 72.3249 410.73 72.3782C411.148 72.5939 411.612 72.7064 412.082 72.7064C412.553 72.7064 413.016 72.5939 413.434 72.3782C413.536 72.3249 413.634 72.2663 413.729 72.2028L435.698 59.1984C435.914 59.0727 436.092 58.8922 436.215 58.6751C436.339 58.4581 436.402 58.2124 436.4 57.9628Z" fill="#0A2767"/>
<path d="M391.02 49.2799H405.437V62.4951H391.02V49.2799ZM433.451 35.8465V29.8014C433.486 28.2899 432.289 27.0362 430.778 27H393.366C391.855 27.0362 390.658 28.2899 390.693 29.8014V35.8465L412.809 41.7442L433.451 35.8465Z" fill="#0364B8"/>
<path d="M390.693 35.8465H405.437V49.1163H390.693V35.8465Z" fill="#0078D4"/>
<path d="M420.181 35.8465H405.437V49.1163L420.181 62.386H433.451V49.1163L420.181 35.8465Z" fill="#28A8EA"/>
<path d="M405.437 49.1163H420.181V62.3861H405.437V49.1163Z" fill="#0078D4"/>
<path d="M405.437 62.386H420.181V75.6558H405.437V62.386Z" fill="#0364B8"/>
<path d="M391.02 62.4952H405.437V74.5087H391.02V62.4952Z" fill="#14447D"/>
<path d="M420.181 62.386H433.451V75.6558H420.181V62.386Z" fill="#0078D4"/>
<path d="M435.725 59.1173L435.697 59.132L413.728 71.4876C413.632 71.5466 413.535 71.6026 413.433 71.6528C413.06 71.8305 412.655 71.9308 412.242 71.9477L411.041 71.2458C410.94 71.1949 410.842 71.1383 410.747 71.0763L388.483 58.3697H388.473L387.744 57.9628V82.9749C387.756 84.6436 389.117 85.9874 390.786 85.9768H433.405C433.431 85.9768 433.453 85.965 433.479 85.965C433.832 85.9424 434.179 85.8699 434.511 85.7497C434.655 85.6889 434.793 85.6169 434.926 85.5345C435.024 85.4784 435.194 85.3561 435.194 85.3561C435.566 85.0804 435.869 84.7216 436.079 84.3082C436.288 83.8948 436.398 83.4383 436.4 82.9749V57.9628C436.4 58.1978 436.337 58.4285 436.218 58.6313C436.1 58.8342 435.929 59.0019 435.725 59.1173Z" fill="url(#paint0_linear_4263_10516)"/>
<path opacity="0.5" d="M435.22 57.864V59.3974L412.249 75.2135L388.467 58.3801C388.467 58.3761 388.465 58.3724 388.462 58.3696C388.46 58.3669 388.456 58.3653 388.452 58.3653L386.27 57.0531V55.9472L387.169 55.9325L389.071 57.0236L389.115 57.0383L389.277 57.1415C389.277 57.1415 411.63 69.8953 411.689 69.9247L412.544 70.426C412.618 70.3965 412.691 70.3671 412.78 70.3376C412.824 70.3081 434.97 57.8492 434.97 57.8492L435.22 57.864Z" fill="#0A2767"/>
<path d="M435.725 59.1173L435.697 59.1335L413.728 71.4891C413.632 71.5481 413.535 71.6041 413.433 71.6542C413.012 71.8599 412.55 71.9668 412.081 71.9668C411.612 71.9668 411.15 71.8599 410.729 71.6542C410.628 71.6042 410.529 71.5491 410.434 71.4891L388.465 59.1335L388.439 59.1173C388.23 59.0044 388.056 58.8377 387.934 58.6347C387.812 58.4317 387.746 58.1997 387.744 57.9628V82.9749C387.755 84.6433 389.116 85.9873 390.784 85.9768H433.36C435.028 85.9874 436.389 84.6434 436.4 82.975C436.4 82.975 436.4 82.975 436.4 82.975V57.9628C436.4 58.1978 436.337 58.4285 436.218 58.6313C436.1 58.8342 435.929 59.0019 435.725 59.1173Z" fill="#1490DF"/>
<path opacity="0.1" d="M414.048 71.3062L413.719 71.4905C413.624 71.5512 413.525 71.6068 413.424 71.6572C413.062 71.835 412.668 71.9392 412.265 71.9638L420.624 81.8483L435.204 85.3619C435.604 85.0601 435.922 84.6632 436.129 84.2074L414.048 71.3062Z" fill="black"/>
<path opacity="0.05" d="M415.537 70.4688L413.719 71.4906C413.624 71.5513 413.525 71.6069 413.424 71.6572C413.062 71.835 412.668 71.9393 412.265 71.9639L416.181 82.7611L435.209 85.3575C435.578 85.0799 435.878 84.7201 436.085 84.3066C436.292 83.8931 436.4 83.4372 436.4 82.9748V82.6519L415.537 70.4688Z" fill="black"/>
<path d="M390.826 85.9767H433.355C434.01 85.9801 434.648 85.7734 435.176 85.387L411.04 71.2488C410.939 71.1979 410.84 71.1413 410.745 71.0793L388.481 58.3727H388.471L387.744 57.9628V82.8893C387.743 84.5928 389.122 85.9751 390.826 85.9767C390.826 85.9767 390.826 85.9767 390.826 85.9767Z" fill="#28A8EA"/>
<path opacity="0.1" d="M408.386 41.4979V72.9473C408.383 74.05 407.713 75.0411 406.69 75.4538C406.374 75.5899 406.033 75.6602 405.688 75.6603H387.744V40.2697H390.693V38.7953H405.688C407.177 38.801 408.383 40.0084 408.386 41.4979Z" fill="black"/>
<path opacity="0.2" d="M406.912 42.9724V74.4217C406.915 74.7779 406.84 75.1304 406.69 75.4538C406.281 76.4631 405.303 77.1252 404.213 77.1302H387.744V40.2698H404.213C404.641 40.2655 405.063 40.3722 405.437 40.5794C406.341 41.0348 406.911 41.9603 406.912 42.9724Z" fill="black"/>
<path opacity="0.2" d="M406.912 42.9724V71.4729C406.904 72.9617 405.702 74.1685 404.213 74.1814H387.744V40.2698H404.213C404.641 40.2655 405.063 40.3722 405.437 40.5794C406.341 41.0348 406.911 41.9603 406.912 42.9724Z" fill="black"/>
<path opacity="0.2" d="M405.437 42.9723V71.4729C405.436 72.964 404.23 74.1741 402.739 74.1813H387.744V40.2697H402.739C404.23 40.2705 405.438 41.4799 405.437 42.9709C405.437 42.9714 405.437 42.9718 405.437 42.9723Z" fill="black"/>
<path d="M375.703 40.2697H402.735C404.227 40.2697 405.437 41.4797 405.437 42.9723V70.0043C405.437 71.497 404.227 72.7069 402.735 72.7069H375.703C374.21 72.7069 373 71.4969 373 70.0043V42.9723C373 41.4797 374.21 40.2697 375.703 40.2697Z" fill="url(#paint1_linear_4263_10516)"/>
<path d="M381.447 51.6051C382.113 50.1859 383.188 48.9983 384.534 48.1948C386.025 47.3413 387.723 46.9157 389.44 46.9651C391.031 46.9306 392.602 47.334 393.979 48.1313C395.275 48.9039 396.318 50.0358 396.983 51.3898C397.707 52.8818 398.067 54.5237 398.036 56.1817C398.071 57.9144 397.7 59.6312 396.952 61.1947C396.271 62.5971 395.195 63.7694 393.856 64.5667C392.425 65.3884 390.796 65.8025 389.146 65.7639C387.521 65.8032 385.916 65.3951 384.506 64.5844C383.2 63.8108 382.143 62.6776 381.463 61.32C380.735 59.8496 380.37 58.2261 380.399 56.5856C380.368 54.8677 380.727 53.1651 381.447 51.6051ZM384.738 59.6112C385.093 60.5084 385.695 61.2865 386.475 61.8552C387.269 62.4102 388.219 62.6964 389.188 62.6721C390.219 62.7129 391.235 62.4168 392.083 61.8287C392.853 61.2617 393.439 60.4815 393.77 59.5846C394.14 58.583 394.322 57.522 394.308 56.4544C394.32 55.3767 394.148 54.3048 393.801 53.2844C393.494 52.3632 392.927 51.5508 392.167 50.946C391.341 50.3301 390.327 50.0176 389.297 50.0614C388.307 50.0357 387.335 50.3243 386.52 50.8856C385.728 51.4567 385.114 52.2417 384.751 53.1488C383.946 55.2279 383.942 57.532 384.739 59.6141L384.738 59.6112Z" fill="white"/>
<path d="M420.181 35.8465H433.451V49.1163H420.181V35.8465Z" fill="#50D9FF"/>
<g filter="url(#filter4_dd_4263_10516)">
<rect x="320" y="180" width="176" height="176" rx="27.84" fill="white"/>
</g>
<path d="M375.026 287.348C365.673 277.432 366.395 261.825 376.094 252.24L398.733 229.96L392.425 223.731C391.818 223.132 392.247 222.12 393.094 222.12H412.867C413.39 222.12 413.819 222.544 413.819 223.06V242.582C413.819 243.419 412.794 243.842 412.187 243.253L405.868 237.015L382.821 259.739C376.826 265.657 376.889 275.305 383.019 281.14C388.93 286.759 398.848 286.326 404.644 280.593L418.621 266.804C420.661 264.79 424.009 264.852 425.965 267C427.796 269.014 427.514 272.154 425.578 274.075L411.465 288.009C401.359 297.977 384.85 297.76 375.026 287.348Z" fill="url(#paint2_linear_4263_10516)"/>
<path d="M440.736 253.324C450.089 263.24 449.367 278.848 439.669 288.433L418.055 309.763C416.078 311.715 412.876 311.715 410.899 309.763C408.922 307.81 408.922 304.65 410.899 302.697L432.942 280.934C438.937 275.016 438.874 265.368 432.743 259.532C426.832 253.913 416.915 254.347 411.119 260.08L397.142 273.869C395.102 275.883 391.754 275.821 389.797 273.673C387.967 271.659 388.249 268.519 390.184 266.597L404.298 252.663C414.404 242.696 430.913 242.913 440.736 253.324Z" fill="url(#paint3_linear_4263_10516)"/>
<g filter="url(#filter5_dd_4263_10516)">
<rect x="152" y="223" width="88" height="88" rx="16" fill="#3395CF"/>
</g>
<path fill-rule="evenodd" clip-rule="evenodd" d="M222 241.294C213.707 241.707 205.9 242.758 198.466 245.875C195.253 247.189 192.34 248.954 189.762 251.357C187.11 253.835 186.4 256.876 187.297 260.293C188.417 264.799 191.256 268.179 194.842 270.92C198.055 273.36 200.035 276.439 200.147 280.57C200.259 285.151 198.354 288.755 194.506 291.121C190.584 293.561 186.475 293.599 182.478 291.384C174.259 286.765 169.926 279.668 170.001 270.131C170.076 263.485 172.803 257.965 177.584 253.422C184.047 247.264 191.929 244.11 200.483 242.42C206.983 241.144 213.52 240.843 220.132 241.068C220.356 241.068 220.58 241.106 220.842 241.106C221.103 241.106 221.402 241.181 222 241.294Z" fill="white"/>
<path fill-rule="evenodd" clip-rule="evenodd" d="M203.023 291.308C208.141 287.253 209.822 281.884 209 275.576C208.701 273.398 207.581 271.558 206.273 269.868C204.854 268.028 203.247 266.339 201.678 264.611C201.006 263.898 200.408 263.147 199.885 262.321C198.429 259.88 198.541 257.59 200.259 255.374C201.604 253.61 203.434 252.446 205.377 251.432C205.974 251.131 206.311 251.469 206.721 251.77C211.839 255.6 215.014 260.631 215.986 266.977C217.517 276.702 212.923 286.164 204.48 290.933C204.032 291.196 203.621 291.534 203.023 291.308Z" fill="white"/>
<g filter="url(#filter6_dd_4263_10516)">
<rect x="576" y="223" width="88" height="88" rx="16" fill="#5952FF"/>
</g>
<path d="M616.427 237C626.24 237 641.013 240.024 647.947 246.867C649.707 248.618 652 252.013 652 257.053C652 265.966 644.8 279.599 636.907 287.557C632.8 291.642 626.293 297 617.493 297C608.907 297 602.347 291.164 600.48 289.308C593.227 282.04 588 271.058 588 260.767C588 254.294 589.867 248.618 594.56 243.897C598.933 239.493 606.453 237 616.427 237ZM628.587 272.491C631.893 269.202 632.8 265.117 632.8 262.889C632.8 261.244 632.373 258.857 630.347 256.841C627.2 253.711 623.787 252.862 620 252.862C615.253 252.862 612.053 254.347 609.92 256.469C608.267 258.114 606.827 260.714 606.827 264.374C606.827 268.034 608.747 271.536 610.88 273.658C612.853 275.621 615.893 277.053 619.04 277.053C622.187 277.053 625.28 275.78 628.587 272.491Z" fill="white"/>
<g filter="url(#filter7_dd_4263_10516)">
<rect x="547" y="39" width="88" height="88" rx="16" fill="#313942"/>
</g>
<path d="M595.108 57C589.226 57 585.824 59.6394 584.183 61.4628C583.988 59.8919 582.952 57.8537 578.908 57.8537H570.126V67.0453H573.726C574.335 67.0453 574.531 67.2394 574.531 67.8478V109.818H584.999V94.0657C584.999 93.6406 584.99 93.2434 584.98 92.8875C586.614 94.3892 589.737 96.457 594.615 96.457C604.847 96.457 612 88.3465 612 76.7303C612 64.9299 605.208 57 595.108 57ZM592.981 87.3391C587.346 87.3391 584.786 81.9435 584.786 76.9442C584.786 69.07 589.092 66.2635 593.121 66.2635C598.063 66.2635 601.386 70.5241 601.386 76.8705C601.386 84.1075 597.161 87.3391 592.981 87.3391Z" fill="white"/>
<path d="M595.108 57C589.226 57 585.824 59.6394 584.183 61.4619C583.988 59.8919 582.952 57.8537 578.908 57.8537H570.126V67.0453H573.726C574.335 67.0453 574.531 67.2394 574.531 67.8469V91.2357C579.341 89.5624 584.27 87.9493 589.293 86.3982C586.217 84.6377 584.786 80.6818 584.786 76.9433C584.786 69.07 589.092 66.2635 593.121 66.2635C598.063 66.2635 601.386 70.5241 601.386 76.8705C601.386 79.536 600.807 81.6496 599.873 83.2654C603.783 82.1583 607.747 81.0844 611.773 80.0509C611.903 78.9788 612 77.8752 612 76.7303C612 64.9299 605.208 57 595.108 57Z" fill="#F6F6F6"/>
<g filter="url(#filter8_dd_4263_10516)">
<rect x="181" y="407" width="88" height="88" rx="16" fill="#F8761F"/>
</g>
<path d="M250.071 449.501C248.742 447.214 246.871 445.381 244.533 444.001C242.785 442.985 240.973 442.339 238.931 442.062V434.797C240.973 433.931 242.24 432.013 242.24 429.775C242.24 426.726 239.793 424.254 236.744 424.254C233.692 424.254 231.202 426.726 231.202 429.775C231.202 432.013 232.396 433.931 234.438 434.797V442.066C232.805 442.301 231.111 442.81 229.564 443.592C226.404 441.194 216.042 433.326 209.981 428.731C210.125 428.213 210.236 427.679 210.236 427.116C210.236 423.738 207.498 421 204.117 421C200.736 421 198 423.738 198 427.116C198 430.493 200.739 433.232 204.12 433.232C205.273 433.232 206.34 432.895 207.261 432.341L208.54 433.31L226.116 445.966C225.187 446.819 224.322 447.789 223.629 448.877C222.226 451.095 221.369 453.536 221.369 456.198V456.754C221.369 458.623 221.725 460.387 222.33 462.045C222.863 463.492 223.642 464.808 224.607 465.998L218.774 471.841C217.928 471.527 217.01 471.462 216.129 471.656C215.248 471.849 214.441 472.291 213.805 472.93C213.365 473.368 213.016 473.889 212.778 474.463C212.54 475.037 212.419 475.652 212.421 476.273C212.422 477.536 212.914 478.722 213.808 479.615C214.246 480.055 214.767 480.404 215.341 480.642C215.915 480.88 216.53 481.002 217.152 481C217.773 481.002 218.389 480.88 218.963 480.642C219.537 480.404 220.059 480.055 220.497 479.615C220.937 479.177 221.286 478.656 221.524 478.082C221.761 477.509 221.883 476.894 221.881 476.273C221.881 475.785 221.806 475.308 221.664 474.855L227.693 468.828C228.52 469.399 229.412 469.879 230.372 470.294C232.265 471.112 234.355 471.61 236.641 471.61H237.06C239.588 471.61 241.973 471.017 244.215 469.803C246.577 468.52 248.426 466.766 249.823 464.526C251.227 462.28 252 459.799 252 457.07V456.933C252 454.248 251.378 451.771 250.071 449.501ZM242.705 462.143C241.068 463.96 239.187 465.08 237.06 465.08H236.71C235.495 465.08 234.307 464.744 233.144 464.134C231.833 463.462 230.837 462.504 230.021 461.29C229.178 460.099 228.721 458.799 228.721 457.42V457.001C228.721 455.646 228.981 454.361 229.637 453.147C230.338 451.82 231.285 450.788 232.545 449.968C233.781 449.153 235.102 448.754 236.573 448.754H236.71C238.044 448.754 239.307 449.016 240.498 449.626C241.713 450.276 242.705 451.163 243.474 452.331C244.221 453.499 244.665 454.759 244.808 456.132C244.83 456.417 244.842 456.709 244.842 456.988C244.842 458.851 244.13 460.576 242.705 462.143Z" fill="white"/>
<defs>
<filter id="filter0_dd_4263_10516" x="155" y="27" width="136" height="136" filterUnits="userSpaceOnUse" color-interpolation-filters="sRGB">
<feFlood flood-opacity="0" result="BackgroundImageFix"/>
<feColorMatrix in="SourceAlpha" type="matrix" values="0 0 0 0 0 0 0 0 0 0 0 0 0 0 0 0 0 0 127 0" result="hardAlpha"/>
<feOffset dy="12"/>
<feGaussianBlur stdDeviation="12"/>
<feColorMatrix type="matrix" values="0 0 0 0 0.254902 0 0 0 0 0.298039 0 0 0 0 0.345098 0 0 0 0.12 0"/>
<feBlend mode="normal" in2="BackgroundImageFix" result="effect1_dropShadow_4263_10516"/>
<feColorMatrix in="SourceAlpha" type="matrix" values="0 0 0 0 0 0 0 0 0 0 0 0 0 0 0 0 0 0 127 0" result="hardAlpha"/>
<feOffset dy="6"/>
<feGaussianBlur stdDeviation="4"/>
<feColorMatrix type="matrix" values="0 0 0 0 0.254902 0 0 0 0 0.298039 0 0 0 0 0.345098 0 0 0 0.08 0"/>
<feBlend mode="normal" in2="effect1_dropShadow_4263_10516" result="effect2_dropShadow_4263_10516"/>
<feBlend mode="normal" in="SourceGraphic" in2="effect2_dropShadow_4263_10516" result="shape"/>
</filter>
<filter id="filter1_dd_4263_10516" x="525" y="395" width="136" height="136" filterUnits="userSpaceOnUse" color-interpolation-filters="sRGB">
<feFlood flood-opacity="0" result="BackgroundImageFix"/>
<feColorMatrix in="SourceAlpha" type="matrix" values="0 0 0 0 0 0 0 0 0 0 0 0 0 0 0 0 0 0 127 0" result="hardAlpha"/>
<feOffset dy="12"/>
<feGaussianBlur stdDeviation="12"/>
<feColorMatrix type="matrix" values="0 0 0 0 0.254902 0 0 0 0 0.298039 0 0 0 0 0.345098 0 0 0 0.12 0"/>
<feBlend mode="normal" in2="BackgroundImageFix" result="effect1_dropShadow_4263_10516"/>
<feColorMatrix in="SourceAlpha" type="matrix" values="0 0 0 0 0 0 0 0 0 0 0 0 0 0 0 0 0 0 127 0" result="hardAlpha"/>
<feOffset dy="6"/>
<feGaussianBlur stdDeviation="4"/>
<feColorMatrix type="matrix" values="0 0 0 0 0.254902 0 0 0 0 0.298039 0 0 0 0 0.345098 0 0 0 0.08 0"/>
<feBlend mode="normal" in2="effect1_dropShadow_4263_10516" result="effect2_dropShadow_4263_10516"/>
<feBlend mode="normal" in="SourceGraphic" in2="effect2_dropShadow_4263_10516" result="shape"/>
</filter>
<filter id="filter2_dd_4263_10516" x="341" y="424" width="136" height="136" filterUnits="userSpaceOnUse" color-interpolation-filters="sRGB">
<feFlood flood-opacity="0" result="BackgroundImageFix"/>
<feColorMatrix in="SourceAlpha" type="matrix" values="0 0 0 0 0 0 0 0 0 0 0 0 0 0 0 0 0 0 127 0" result="hardAlpha"/>
<feOffset dy="12"/>
<feGaussianBlur stdDeviation="12"/>
<feColorMatrix type="matrix" values="0 0 0 0 0.254902 0 0 0 0 0.298039 0 0 0 0 0.345098 0 0 0 0.12 0"/>
<feBlend mode="normal" in2="BackgroundImageFix" result="effect1_dropShadow_4263_10516"/>
<feColorMatrix in="SourceAlpha" type="matrix" values="0 0 0 0 0 0 0 0 0 0 0 0 0 0 0 0 0 0 127 0" result="hardAlpha"/>
<feOffset dy="6"/>
<feGaussianBlur stdDeviation="4"/>
<feColorMatrix type="matrix" values="0 0 0 0 0.254902 0 0 0 0 0.298039 0 0 0 0 0.345098 0 0 0 0.08 0"/>
<feBlend mode="normal" in2="effect1_dropShadow_4263_10516" result="effect2_dropShadow_4263_10516"/>
<feBlend mode="normal" in="SourceGraphic" in2="effect2_dropShadow_4263_10516" result="shape"/>
</filter>
<filter id="filter3_dd_4263_10516" x="339" y="0" width="136" height="136" filterUnits="userSpaceOnUse" color-interpolation-filters="sRGB">
<feFlood flood-opacity="0" result="BackgroundImageFix"/>
<feColorMatrix in="SourceAlpha" type="matrix" values="0 0 0 0 0 0 0 0 0 0 0 0 0 0 0 0 0 0 127 0" result="hardAlpha"/>
<feOffset dy="12"/>
<feGaussianBlur stdDeviation="12"/>
<feColorMatrix type="matrix" values="0 0 0 0 0.254902 0 0 0 0 0.298039 0 0 0 0 0.345098 0 0 0 0.12 0"/>
<feBlend mode="normal" in2="BackgroundImageFix" result="effect1_dropShadow_4263_10516"/>
<feColorMatrix in="SourceAlpha" type="matrix" values="0 0 0 0 0 0 0 0 0 0 0 0 0 0 0 0 0 0 127 0" result="hardAlpha"/>
<feOffset dy="6"/>
<feGaussianBlur stdDeviation="4"/>
<feColorMatrix type="matrix" values="0 0 0 0 0.254902 0 0 0 0 0.298039 0 0 0 0 0.345098 0 0 0 0.08 0"/>
<feBlend mode="normal" in2="effect1_dropShadow_4263_10516" result="effect2_dropShadow_4263_10516"/>
<feBlend mode="normal" in="SourceGraphic" in2="effect2_dropShadow_4263_10516" result="shape"/>
</filter>
<filter id="filter4_dd_4263_10516" x="299.12" y="169.56" width="217.76" height="217.76" filterUnits="userSpaceOnUse" color-interpolation-filters="sRGB">
<feFlood flood-opacity="0" result="BackgroundImageFix"/>
<feColorMatrix in="SourceAlpha" type="matrix" values="0 0 0 0 0 0 0 0 0 0 0 0 0 0 0 0 0 0 127 0" result="hardAlpha"/>
<feOffset dy="10.44"/>
<feGaussianBlur stdDeviation="10.44"/>
<feColorMatrix type="matrix" values="0 0 0 0 0.254902 0 0 0 0 0.298039 0 0 0 0 0.345098 0 0 0 0.24 0"/>
<feBlend mode="normal" in2="BackgroundImageFix" result="effect1_dropShadow_4263_10516"/>
<feColorMatrix in="SourceAlpha" type="matrix" values="0 0 0 0 0 0 0 0 0 0 0 0 0 0 0 0 0 0 127 0" result="hardAlpha"/>
<feOffset dy="5.22"/>
<feGaussianBlur stdDeviation="3.48"/>
<feColorMatrix type="matrix" values="0 0 0 0 0.254902 0 0 0 0 0.298039 0 0 0 0 0.345098 0 0 0 0.12 0"/>
<feBlend mode="normal" in2="effect1_dropShadow_4263_10516" result="effect2_dropShadow_4263_10516"/>
<feBlend mode="normal" in="SourceGraphic" in2="effect2_dropShadow_4263_10516" result="shape"/>
</filter>
<filter id="filter5_dd_4263_10516" x="128" y="211" width="136" height="136" filterUnits="userSpaceOnUse" color-interpolation-filters="sRGB">
<feFlood flood-opacity="0" result="BackgroundImageFix"/>
<feColorMatrix in="SourceAlpha" type="matrix" values="0 0 0 0 0 0 0 0 0 0 0 0 0 0 0 0 0 0 127 0" result="hardAlpha"/>
<feOffset dy="12"/>
<feGaussianBlur stdDeviation="12"/>
<feColorMatrix type="matrix" values="0 0 0 0 0.254902 0 0 0 0 0.298039 0 0 0 0 0.345098 0 0 0 0.12 0"/>
<feBlend mode="normal" in2="BackgroundImageFix" result="effect1_dropShadow_4263_10516"/>
<feColorMatrix in="SourceAlpha" type="matrix" values="0 0 0 0 0 0 0 0 0 0 0 0 0 0 0 0 0 0 127 0" result="hardAlpha"/>
<feOffset dy="6"/>
<feGaussianBlur stdDeviation="4"/>
<feColorMatrix type="matrix" values="0 0 0 0 0.254902 0 0 0 0 0.298039 0 0 0 0 0.345098 0 0 0 0.08 0"/>
<feBlend mode="normal" in2="effect1_dropShadow_4263_10516" result="effect2_dropShadow_4263_10516"/>
<feBlend mode="normal" in="SourceGraphic" in2="effect2_dropShadow_4263_10516" result="shape"/>
</filter>
<filter id="filter6_dd_4263_10516" x="552" y="211" width="136" height="136" filterUnits="userSpaceOnUse" color-interpolation-filters="sRGB">
<feFlood flood-opacity="0" result="BackgroundImageFix"/>
<feColorMatrix in="SourceAlpha" type="matrix" values="0 0 0 0 0 0 0 0 0 0 0 0 0 0 0 0 0 0 127 0" result="hardAlpha"/>
<feOffset dy="12"/>
<feGaussianBlur stdDeviation="12"/>
<feColorMatrix type="matrix" values="0 0 0 0 0.254902 0 0 0 0 0.298039 0 0 0 0 0.345098 0 0 0 0.12 0"/>
<feBlend mode="normal" in2="BackgroundImageFix" result="effect1_dropShadow_4263_10516"/>
<feColorMatrix in="SourceAlpha" type="matrix" values="0 0 0 0 0 0 0 0 0 0 0 0 0 0 0 0 0 0 127 0" result="hardAlpha"/>
<feOffset dy="6"/>
<feGaussianBlur stdDeviation="4"/>
<feColorMatrix type="matrix" values="0 0 0 0 0.254902 0 0 0 0 0.298039 0 0 0 0 0.345098 0 0 0 0.08 0"/>
<feBlend mode="normal" in2="effect1_dropShadow_4263_10516" result="effect2_dropShadow_4263_10516"/>
<feBlend mode="normal" in="SourceGraphic" in2="effect2_dropShadow_4263_10516" result="shape"/>
</filter>
<filter id="filter7_dd_4263_10516" x="523" y="27" width="136" height="136" filterUnits="userSpaceOnUse" color-interpolation-filters="sRGB">
<feFlood flood-opacity="0" result="BackgroundImageFix"/>
<feColorMatrix in="SourceAlpha" type="matrix" values="0 0 0 0 0 0 0 0 0 0 0 0 0 0 0 0 0 0 127 0" result="hardAlpha"/>
<feOffset dy="12"/>
<feGaussianBlur stdDeviation="12"/>
<feColorMatrix type="matrix" values="0 0 0 0 0.254902 0 0 0 0 0.298039 0 0 0 0 0.345098 0 0 0 0.12 0"/>
<feBlend mode="normal" in2="BackgroundImageFix" result="effect1_dropShadow_4263_10516"/>
<feColorMatrix in="SourceAlpha" type="matrix" values="0 0 0 0 0 0 0 0 0 0 0 0 0 0 0 0 0 0 127 0" result="hardAlpha"/>
<feOffset dy="6"/>
<feGaussianBlur stdDeviation="4"/>
<feColorMatrix type="matrix" values="0 0 0 0 0.254902 0 0 0 0 0.298039 0 0 0 0 0.345098 0 0 0 0.08 0"/>
<feBlend mode="normal" in2="effect1_dropShadow_4263_10516" result="effect2_dropShadow_4263_10516"/>
<feBlend mode="normal" in="SourceGraphic" in2="effect2_dropShadow_4263_10516" result="shape"/>
</filter>
<filter id="filter8_dd_4263_10516" x="157" y="395" width="136" height="136" filterUnits="userSpaceOnUse" color-interpolation-filters="sRGB">
<feFlood flood-opacity="0" result="BackgroundImageFix"/>
<feColorMatrix in="SourceAlpha" type="matrix" values="0 0 0 0 0 0 0 0 0 0 0 0 0 0 0 0 0 0 127 0" result="hardAlpha"/>
<feOffset dy="12"/>
<feGaussianBlur stdDeviation="12"/>
<feColorMatrix type="matrix" values="0 0 0 0 0.254902 0 0 0 0 0.298039 0 0 0 0 0.345098 0 0 0 0.12 0"/>
<feBlend mode="normal" in2="BackgroundImageFix" result="effect1_dropShadow_4263_10516"/>
<feColorMatrix in="SourceAlpha" type="matrix" values="0 0 0 0 0 0 0 0 0 0 0 0 0 0 0 0 0 0 127 0" result="hardAlpha"/>
<feOffset dy="6"/>
<feGaussianBlur stdDeviation="4"/>
<feColorMatrix type="matrix" values="0 0 0 0 0.254902 0 0 0 0 0.298039 0 0 0 0 0.345098 0 0 0 0.08 0"/>
<feBlend mode="normal" in2="effect1_dropShadow_4263_10516" result="effect2_dropShadow_4263_10516"/>
<feBlend mode="normal" in="SourceGraphic" in2="effect2_dropShadow_4263_10516" result="shape"/>
</filter>
<linearGradient id="paint0_linear_4263_10516" x1="412.072" y1="57.9628" x2="412.072" y2="85.9768" gradientUnits="userSpaceOnUse">
<stop stop-color="#35B8F1"/>
<stop offset="1" stop-color="#28A8EA"/>
</linearGradient>
<linearGradient id="paint1_linear_4263_10516" x1="378.635" y1="38.158" x2="399.802" y2="74.8187" gradientUnits="userSpaceOnUse">
<stop stop-color="#1784D9"/>
<stop offset="0.5" stop-color="#107AD5"/>
<stop offset="1" stop-color="#0A63C9"/>
</linearGradient>
<linearGradient id="paint2_linear_4263_10516" x1="424.56" y1="232.868" x2="375.411" y2="282.649" gradientUnits="userSpaceOnUse">
<stop stop-color="#FC3FC0"/>
<stop offset="1" stop-color="#FFB700"/>
</linearGradient>
<linearGradient id="paint3_linear_4263_10516" x1="396.26" y1="295.946" x2="438.519" y2="253.144" gradientUnits="userSpaceOnUse">
<stop stop-color="#6A69FF"/>
<stop offset="1" stop-color="#00D7DB"/>
</linearGradient>
</defs>
</svg>
