<svg width="136" height="96" viewBox="0 0 136 96" fill="none" xmlns="http://www.w3.org/2000/svg">
<g clip-path="url(#clip0)">
<path d="M120.754 87.3026C120.011 87.3026 120.011 87.3026 119.268 87.3026C118.526 87.3026 118.526 87.2206 117.783 87.2206C117.04 87.2206 117.04 87.3436 116.297 87.3436C115.554 87.3436 115.554 87.3436 114.811 87.3436C114.069 87.3436 114.069 87.3436 113.326 87.3436C112.583 87.3436 112.583 87.3026 111.84 87.3026C111.097 87.3026 111.097 87.3436 110.355 87.3436C109.612 87.3436 109.612 87.3026 108.869 87.3026C108.126 87.3026 108.126 87.2206 107.383 87.2206C106.641 87.2206 106.641 87.3847 105.898 87.3847C105.155 87.3847 105.155 87.3026 104.412 87.3026C103.669 87.3026 103.669 87.3026 102.927 87.3026C102.184 87.3026 102.184 87.3026 101.441 87.3026C100.698 87.3026 100.698 87.2206 99.9554 87.2206C99.2126 87.2206 99.2126 87.3026 98.4698 87.3026C97.727 87.3026 97.727 87.2206 96.9842 87.2206C96.2413 87.2206 96.2413 87.2206 95.4985 87.2206C94.7557 87.2206 94.7557 87.3026 94.0129 87.3026C93.2701 87.3026 93.2701 87.1795 92.5273 87.1795C91.7845 87.1795 91.7845 87.3026 91.0417 87.3026C90.2989 87.3026 90.2989 87.3026 89.5561 87.3026C88.8133 87.3026 88.8133 87.3026 88.0705 87.3026C87.3277 87.3026 87.3277 87.2616 86.5849 87.2616C85.8421 87.2616 85.8421 87.2206 85.0993 87.2206C84.3565 87.2206 84.3565 87.1385 83.6137 87.1385C82.8709 87.1385 82.8708 87.2616 82.128 87.2616C81.3852 87.2616 81.3852 87.3026 80.6424 87.3026C79.8996 87.3026 79.8996 87.1385 79.1568 87.1385C78.414 87.1385 78.414 87.1385 77.6712 87.1385C76.9284 87.1385 76.9284 87.1795 76.1856 87.1795C75.4428 87.1795 75.4428 87.2206 74.7 87.2206C73.9572 87.2206 73.9572 87.2206 73.2144 87.2206C72.4716 87.2206 72.4716 87.2616 71.7288 87.2616C70.986 87.2616 70.986 87.2616 70.2432 87.2616C69.5004 87.2616 69.5004 87.2206 68.7575 87.2206C68.0147 87.2206 68.0147 87.1795 67.2719 87.1795C66.5291 87.1795 66.5291 87.2206 65.7863 87.2206C65.0435 87.2206 65.0435 87.2206 64.3007 87.2206C63.5579 87.2206 63.5579 87.3026 62.8151 87.3026C62.0723 87.3026 62.0723 87.1795 61.3295 87.1795C60.5867 87.1795 60.5867 87.2616 59.8439 87.2616C59.1011 87.2616 59.1011 87.1795 58.3583 87.1795C57.6155 87.1795 57.6155 87.2206 56.8727 87.2206C56.1299 87.2206 56.1299 87.3026 55.3871 87.3026C54.6442 87.3026 54.6442 87.1795 53.9014 87.1795C53.1586 87.1795 53.1586 87.3026 52.4158 87.3026C51.673 87.3026 51.673 87.2206 50.9302 87.2206C50.1874 87.2206 50.1874 87.2616 49.4446 87.2616C48.7018 87.2616 48.7018 87.1795 47.959 87.1795C47.2162 87.1795 47.2162 87.1385 46.4734 87.1385C45.7306 87.1385 45.7306 87.2206 44.9878 87.2206C44.245 87.2206 44.245 87.1385 43.5022 87.1385C42.7594 87.1385 42.7594 87.1385 42.0166 87.1385C41.2737 87.1385 41.2737 87.1385 40.5309 87.1385C39.7881 87.1385 39.7881 87.2616 39.0453 87.2616C38.3025 87.2616 38.3025 87.2206 37.5597 87.2206C36.8169 87.2206 36.8169 87.2616 36.0741 87.2616C35.3313 87.2616 35.3313 87.1795 34.5885 87.1795C33.8457 87.1795 33.8457 87.2616 33.1029 87.2616C32.3601 87.2616 32.3601 87.3026 31.6173 87.3026C30.8745 87.3026 30.8745 87.2206 30.1317 87.2206C29.3889 87.2206 29.3889 87.3026 28.6461 87.3026C27.9033 87.3026 27.9033 87.1795 27.1604 87.1795C26.4176 87.1795 26.4176 87.1795 25.6748 87.1795C25.2622 87.1795 24.8495 87.1385 24.5606 86.8513C24.2718 86.5642 24.2718 86.1539 24.2718 85.7436C24.2718 85.0052 24.2305 85.0052 24.2305 84.2667C24.2305 83.5283 24.1067 83.5283 24.1067 82.7898C24.1067 82.0513 24.2305 82.0513 24.2305 81.3129C24.2305 80.5744 24.2305 80.5744 24.2305 79.836C24.2305 79.0975 24.1892 79.0975 24.1892 78.359C24.1892 77.6206 24.2718 77.6206 24.2718 76.8821C24.2718 76.1436 24.2305 76.1436 24.2305 75.4052C24.2305 74.9949 24.4368 74.6667 24.7257 74.3795C25.0146 74.0924 25.3447 73.8872 25.7574 73.8872C26.5002 73.8872 26.5002 73.8462 27.243 73.8462C27.9858 73.8462 27.9858 73.8872 28.7286 73.8872C29.4714 73.8872 29.4714 73.8872 30.2142 73.8872C30.957 73.8872 30.957 73.8872 31.6998 73.8872C32.4426 73.8872 32.4426 73.8872 33.1854 73.8872C33.9282 73.8872 33.9282 73.8462 34.671 73.8462C35.4138 73.8462 35.4138 73.9283 36.1566 73.9283C36.8995 73.9283 36.8994 73.9283 37.6423 73.9283C38.3851 73.9283 38.3851 73.9693 39.1279 73.9693C39.8707 73.9693 39.8707 73.9693 40.6135 73.9693C41.3563 73.9693 41.3563 73.9693 42.0991 73.9693C42.8419 73.9693 42.8419 73.8872 43.5847 73.8872C44.3275 73.8872 44.3275 73.8872 45.0703 73.8872C45.8131 73.8872 45.8131 73.9283 46.5559 73.9283C47.2987 73.9283 47.2987 73.8872 48.0415 73.8872C48.7843 73.8872 48.7843 73.8872 49.5271 73.8872C50.2699 73.8872 50.2699 73.9283 51.0128 73.9283C51.7556 73.9283 51.7556 73.8462 52.4984 73.8462C53.2412 73.8462 53.2412 73.9283 53.984 73.9283C54.7268 73.9283 54.7268 73.8052 55.4696 73.8052C56.2124 73.8052 56.2124 73.7642 56.9552 73.7642C57.698 73.7642 57.698 73.7642 58.4408 73.7642C59.1836 73.7642 59.1836 73.8872 59.9264 73.8872C60.6692 73.8872 60.6692 73.8462 61.412 73.8462C62.1548 73.8462 62.1548 73.8872 62.8976 73.8872C63.6404 73.8872 63.6404 73.7642 64.3832 73.7642C65.1261 73.7642 65.1261 73.9283 65.8689 73.9283C66.6117 73.9283 66.6117 73.8052 67.3545 73.8052C68.0973 73.8052 68.0973 73.8052 68.8401 73.8052C69.5829 73.8052 69.5829 73.8052 70.3257 73.8052C71.0685 73.8052 71.0685 73.7642 71.8113 73.7642C72.5541 73.7642 72.5541 73.8872 73.2969 73.8872C74.0397 73.8872 74.0397 73.9283 74.7825 73.9283C75.5253 73.9283 75.5253 73.9283 76.2681 73.9283C77.0109 73.9283 77.0109 73.8462 77.7537 73.8462C78.4966 73.8462 78.4966 73.8052 79.2394 73.8052C79.9822 73.8052 79.9822 73.8462 80.725 73.8462C81.4678 73.8462 81.4678 73.8872 82.2106 73.8872C82.9534 73.8872 82.9534 73.8872 83.6962 73.8872C84.439 73.8872 84.439 73.7642 85.1818 73.7642C85.9246 73.7642 85.9246 73.8872 86.6674 73.8872C87.4102 73.8872 87.4102 73.9283 88.153 73.9283C88.8958 73.9283 88.8958 73.8462 89.6386 73.8462C90.3814 73.8462 90.3814 73.9283 91.1242 73.9283C91.8671 73.9283 91.8671 73.8872 92.6099 73.8872C93.3527 73.8872 93.3527 73.8052 94.0955 73.8052C94.8383 73.8052 94.8383 73.7642 95.5811 73.7642C96.3239 73.7642 96.3239 73.8462 97.0667 73.8462C97.8095 73.8462 97.8095 73.8052 98.5523 73.8052C99.2951 73.8052 99.2951 73.7642 100.038 73.7642C100.781 73.7642 100.781 73.8872 101.524 73.8872C102.266 73.8872 102.266 73.8462 103.009 73.8462C103.752 73.8462 103.752 73.8872 104.495 73.8872C105.238 73.8872 105.238 73.9283 105.98 73.9283C106.723 73.9283 106.723 73.9283 107.466 73.9283C108.209 73.9283 108.209 73.9693 108.952 73.9693C109.694 73.9693 109.694 73.8872 110.437 73.8872C111.18 73.8872 111.18 73.7642 111.923 73.7642C112.666 73.7642 112.666 73.8872 113.408 73.8872C114.151 73.8872 114.151 73.8872 114.894 73.8872C115.637 73.8872 115.637 73.8462 116.38 73.8462C117.122 73.8462 117.122 73.8052 117.865 73.8052C118.608 73.8052 118.608 73.9283 119.351 73.9283C120.094 73.9283 120.094 73.8872 120.836 73.8872C121.249 73.8872 121.579 74.0924 121.868 74.3385C122.157 74.6257 122.281 74.9539 122.281 75.3642C122.281 76.1026 122.281 76.1026 122.281 76.8411C122.281 77.5795 122.363 77.5795 122.363 78.318C122.363 79.0565 122.363 79.0565 122.363 79.7949C122.363 80.5334 122.405 80.5334 122.405 81.2719C122.405 82.0103 122.322 82.0103 122.322 82.7488C122.322 83.4872 122.24 83.4872 122.24 84.2257C122.24 84.9642 122.322 84.9642 122.322 85.7026C122.322 86.1129 122.074 86.4411 121.827 86.7283C121.497 87.1385 121.167 87.3026 120.754 87.3026Z" fill="#C7E2FF"/>
<path d="M20.0624 75.4463C20.6814 75.8565 20.6401 75.8976 21.2591 76.3078C21.8781 76.7181 21.8369 76.7591 22.4559 77.1694C23.0749 77.5796 23.1574 77.4155 23.7764 77.8258C24.3954 78.236 24.3954 78.2771 25.0144 78.6463C25.6334 79.0565 25.5922 79.0976 26.2112 79.5078C26.8302 79.9181 26.9127 79.795 27.5317 80.1642C28.1507 80.5745 28.1094 80.6565 28.7284 81.0258C29.3474 81.436 29.3887 81.354 30.0077 81.7642C30.6267 82.1745 30.6267 82.1335 31.287 82.5437C31.906 82.954 31.906 82.954 32.525 83.3642C33.144 83.7745 33.144 83.7745 33.763 84.1848C34.382 84.595 34.4233 84.513 35.0423 84.9232C35.6613 85.3335 35.62 85.3745 36.239 85.7848C36.858 86.195 36.8993 86.113 37.5183 86.5232C38.1373 86.9335 38.1373 86.9335 38.7563 87.3437" stroke="#313942" stroke-width="0.825339" stroke-miterlimit="10" stroke-linecap="round"/>
<path d="M20.5575 45.3745C21.0114 45.9489 21.0527 45.9078 21.5066 46.4822C21.9606 47.0566 21.9193 47.0976 22.3732 47.6719C22.8272 48.2463 22.9097 48.2053 23.3636 48.7386C23.8176 49.313 23.7763 49.354 24.2303 49.9284C24.6842 50.5027 24.6429 50.5437 25.0969 51.1181C25.5508 51.6925 25.6746 51.6104 26.1285 52.1437C26.5825 52.7181 26.4999 52.8002 26.9539 53.3745C27.4078 53.9489 27.5729 53.8258 28.0268 54.4002C28.4808 54.9745 28.4808 54.9745 28.9347 55.5489C29.3886 56.1232 29.3886 56.1232 29.8426 56.6976C30.2965 57.2719 30.2965 57.2719 30.7504 57.8463C31.2044 58.4207 31.2456 58.3796 31.6996 58.954C32.1535 59.5284 32.1122 59.5694 32.5662 60.1437C33.0201 60.7181 33.0201 60.7181 33.4741 61.2925C33.928 61.8668 34.0518 61.7848 34.5057 62.3591C34.9597 62.9335 34.8771 63.0155 35.3311 63.5899C35.785 64.1643 35.8263 64.1232 36.2802 64.6976C36.7341 65.2719 36.7754 65.2309 37.2293 65.8053C37.6833 66.3796 37.7246 66.3386 38.1785 66.913C38.6324 67.4873 38.6324 67.4873 39.1276 68.0617C39.5816 68.636 39.5816 68.636 40.0355 69.2104C40.4894 69.7848 40.4482 69.7848 40.9434 70.3591C41.3973 70.9335 41.4798 70.8514 41.9751 71.4258C42.429 72.0002 42.429 72.0001 42.9242 72.5745C43.3781 73.1489 43.2543 73.2309 43.7083 73.8053C44.1622 74.3796 44.2447 74.2976 44.6987 74.8719C45.1526 75.4463 45.1526 75.4463 45.6065 76.0207C46.0605 76.595 46.0192 76.636 46.4732 77.2104C46.9271 77.7848 47.0096 77.7027 47.5048 78.2771C47.9588 78.8514 48.0413 78.8104 48.4952 79.3848C48.9492 79.9591 48.9492 79.9591 49.4444 80.5335C49.8983 81.1078 49.8983 81.1078 50.3522 81.6822C50.8062 82.2566 50.7236 82.3386 51.1776 82.913C51.6315 83.4873 51.5903 83.5284 52.0855 84.0617C52.5394 84.636 52.6219 84.595 53.0759 85.1284C53.5298 85.7027 53.6123 85.6617 54.0663 86.236C54.5202 86.8104 54.5615 86.8104 55.0154 87.3437" stroke="#313942" stroke-width="0.825339" stroke-miterlimit="10" stroke-linecap="round"/>
<path d="M39.6642 21.9897C39.9531 22.6872 40.1181 22.6051 40.407 23.3026C40.6959 24 40.5721 24.041 40.8609 24.6974C41.1498 25.3949 41.1498 25.3949 41.4387 26.0513C41.7275 26.7487 41.7688 26.7077 42.0577 27.4051C42.3465 28.1026 42.3053 28.1026 42.5941 28.759C42.883 29.4564 42.8005 29.4564 43.0893 30.1538C43.3782 30.8513 43.502 30.7692 43.7909 31.4667C44.0798 32.1641 44.0385 32.1641 44.3274 32.8615C44.6162 33.559 44.5337 33.6 44.8226 34.2564C45.1114 34.9538 45.2352 34.8718 45.5241 35.5692C45.813 36.2667 45.8542 36.2256 46.1431 36.9231C46.432 37.6205 46.3082 37.6615 46.597 38.318C46.8859 39.0154 47.0097 38.9333 47.2986 39.6308C47.5874 40.3282 47.4636 40.3692 47.7525 41.0256C48.0414 41.7231 48.0414 41.6821 48.3302 42.3795C48.6191 43.0769 48.5366 43.1179 48.8255 43.7744C49.1143 44.4718 49.1556 44.4308 49.4445 45.1282C49.7333 45.8256 49.8159 45.7846 50.1047 46.441C50.3936 47.1385 50.3523 47.1385 50.6412 47.8359C50.9301 48.5333 50.9301 48.5333 51.1777 49.1897C51.4665 49.8872 51.5078 49.8462 51.7967 50.5436C52.0855 51.241 52.003 51.241 52.2919 51.9385C52.5807 52.6359 52.7045 52.5538 52.9934 53.2513C53.2823 53.9487 53.2823 53.9487 53.5712 54.6051C53.86 55.3026 53.8188 55.3026 54.1076 55.959C54.3965 56.6564 54.3552 56.6564 54.6441 57.3538C54.933 58.0513 54.8917 58.0513 55.1806 58.7077C55.4694 59.4051 55.5932 59.3231 55.8821 60.0205C56.171 60.718 56.171 60.718 56.4186 61.3744C56.7074 62.0718 56.7074 62.0308 56.9963 62.7282C57.2852 63.4256 57.2439 63.4256 57.5328 64.1231C57.8217 64.8205 57.6978 64.8615 57.9867 65.5179C58.2756 66.2154 58.2756 66.2154 58.5232 66.8718C58.8121 67.5692 58.8946 67.5282 59.1835 68.2256C59.4723 68.9231 59.4723 68.9231 59.7612 69.5795C60.0501 70.2769 60.0501 70.2769 60.3389 70.9333C60.6278 71.6308 60.6691 71.5897 60.9579 72.2872C61.2468 72.9846 61.123 73.0256 61.4119 73.6821C61.7007 74.3795 61.7008 74.3385 61.9896 75.0359C62.2785 75.7333 62.3198 75.6923 62.6086 76.3897C62.8975 77.0872 62.9388 77.0462 63.2276 77.7436C63.5165 78.441 63.5165 78.4 63.8054 79.0974C64.0942 79.7949 64.0942 79.7949 64.3831 80.4513C64.672 81.1487 64.6307 81.1487 64.9196 81.8051C65.2084 82.5026 65.0846 82.5436 65.3735 83.2C65.6624 83.8974 65.6624 83.8974 65.9512 84.5538C66.2401 85.2513 66.3226 85.2103 66.6115 85.8667C66.9004 86.5641 66.9417 86.5231 67.2305 87.2205" stroke="#313942" stroke-width="0.825339" stroke-miterlimit="10" stroke-linecap="round"/>
<path d="M69.5002 11.8975C69.624 12.6359 69.5828 12.6359 69.7478 13.3334C69.8716 14.0718 69.8716 14.0718 69.9954 14.7693C70.1192 15.5077 70.243 15.4667 70.4081 16.2052C70.5319 16.9436 70.5319 16.9436 70.6557 17.6411C70.7795 18.3795 70.697 18.3795 70.8621 19.118C70.9859 19.8564 70.9859 19.8564 71.1097 20.5539C71.2335 21.2923 71.316 21.2513 71.4398 21.9898C71.5636 22.7282 71.6049 22.7282 71.7287 23.4257C71.8525 24.1641 71.8937 24.1231 72.0175 24.8616C72.1413 25.6 72.0588 25.6 72.1826 26.3385C72.3064 27.0769 72.2651 27.0769 72.4302 27.7744C72.554 28.5128 72.5953 28.5128 72.7191 29.2103C72.8429 29.9487 72.9667 29.9077 73.1317 30.6462C73.2555 31.3846 73.1317 31.3846 73.2968 32.1231C73.4206 32.8616 73.5444 32.8205 73.6682 33.559C73.792 34.2975 73.8333 34.2975 73.9571 34.9949C74.0809 35.7334 74.0809 35.7334 74.2459 36.4308C74.3697 37.1693 74.2872 37.1693 74.411 37.9077C74.5348 38.6462 74.6174 38.6052 74.7824 39.3436C74.9062 40.0821 74.9062 40.0821 75.03 40.7795C75.1538 41.518 75.1951 41.518 75.3189 42.2154C75.4427 42.9539 75.4014 42.9539 75.5665 43.6513C75.6903 44.3898 75.6078 44.3898 75.7316 45.1282C75.8554 45.8667 75.9379 45.8257 76.103 46.5641C76.2268 47.3026 76.1855 47.3026 76.3506 48C76.4744 48.7385 76.5982 48.6975 76.722 49.4359C76.8458 50.1744 76.887 50.1334 77.0521 50.8718C77.1759 51.6103 77.1759 51.6103 77.2997 52.3077C77.4235 53.0462 77.4235 53.0462 77.5473 53.7436C77.6711 54.4821 77.7124 54.4821 77.8362 55.1795C77.96 55.918 77.8774 55.918 78.0012 56.6564C78.125 57.3949 78.2076 57.3539 78.3314 58.0923C78.4552 58.8308 78.4139 58.8308 78.579 59.5282C78.7028 60.2667 78.7853 60.2257 78.9091 60.9641C79.0329 61.7026 78.9916 61.7026 79.1567 62.4C79.2805 63.1385 79.2805 63.1385 79.4043 63.8359C79.5281 64.5744 79.6519 64.5334 79.7757 65.2718C79.8995 66.0103 79.7757 66.0103 79.9408 66.7487C80.0646 67.4872 80.1059 67.4872 80.2297 68.1846C80.3535 68.9231 80.436 68.8821 80.6011 69.6205C80.7249 70.359 80.6011 70.359 80.7661 71.0975C80.8899 71.8359 81.055 71.7949 81.2201 72.5334C81.3439 73.2718 81.3026 73.2718 81.4264 73.9693C81.5502 74.7077 81.5502 74.7077 81.7153 75.4052C81.8391 76.1436 81.8803 76.1026 82.0041 76.8411C82.1279 77.5795 82.1279 77.5795 82.293 78.277C82.4168 79.0154 82.4581 79.0154 82.5819 79.7128C82.7057 80.4513 82.6644 80.4513 82.7882 81.1898C82.912 81.9282 82.7882 81.9282 82.9533 82.6667C83.0771 83.4052 83.2834 83.3641 83.4072 84.0616C83.531 84.8 83.4897 84.8 83.6548 85.5385C83.7786 86.2769 83.6961 86.277 83.8612 87.0154" stroke="#313942" stroke-width="0.825339" stroke-miterlimit="10" stroke-linecap="round"/>
<path d="M97.9332 15.3027C97.8507 16.0412 97.892 16.0412 97.8507 16.7797C97.7682 17.5181 97.7269 17.5181 97.6856 18.2566C97.6031 18.995 97.6031 18.995 97.5618 19.7335C97.4793 20.472 97.6031 20.472 97.5618 21.2104C97.4793 21.9489 97.438 21.9489 97.3967 22.6873C97.3142 23.4258 97.2729 23.4258 97.1904 24.1643C97.1079 24.9027 97.2729 24.9027 97.1904 25.6412C97.1079 26.3797 97.0253 26.3797 96.9841 27.1181C96.9015 27.8566 97.0253 27.8566 96.9841 28.595C96.9015 29.3335 96.9015 29.3335 96.8603 30.072C96.7777 30.8104 96.7365 30.8104 96.6539 31.5489C96.5714 32.2874 96.5301 32.2874 96.4476 33.0258C96.3651 33.7643 96.3238 33.7643 96.2413 34.5027C96.1587 35.2412 96.2413 35.2412 96.2 35.9797C96.1175 36.7181 96.1175 36.7181 96.0349 37.4566C95.9524 38.195 96.0349 38.195 95.9937 38.9335C95.9111 39.672 95.9111 39.672 95.8286 40.4104C95.7461 41.1489 95.7461 41.1489 95.7048 41.8874C95.6223 42.6258 95.6223 42.6258 95.5397 43.3643C95.4572 44.1027 95.4572 44.1027 95.3747 44.8412C95.2921 45.5797 95.4159 45.5797 95.3334 46.3181C95.2509 47.0566 95.1683 47.0566 95.0858 47.795C95.0033 48.5335 95.1683 48.5335 95.1271 49.272C95.0445 50.0104 94.9207 50.0104 94.8382 50.7079C94.7557 51.4463 94.7969 51.4463 94.7144 52.1848C94.6319 52.9232 94.7969 52.9232 94.7144 53.6617C94.6319 54.4002 94.5493 54.4002 94.4668 55.1386C94.3843 55.8771 94.3843 55.8771 94.3017 56.6156C94.2192 57.354 94.3017 57.354 94.2605 58.0925C94.1779 58.8309 94.1367 58.8309 94.0541 59.5694C93.9716 60.3079 93.9303 60.3079 93.8891 61.0463C93.8065 61.7848 93.9303 61.7848 93.8478 62.5232C93.7653 63.2617 93.8891 63.2617 93.8065 64.0002C93.724 64.7386 93.6827 64.7386 93.6002 65.4771C93.5177 66.2156 93.4351 66.2156 93.3939 66.954C93.3113 67.6925 93.3113 67.6925 93.2701 68.4309C93.1875 69.1694 93.3113 69.1694 93.2701 69.9079C93.1875 70.6463 93.2288 70.6463 93.1875 71.3848C93.105 72.1232 93.0225 72.1232 92.9812 72.8617C92.8987 73.6002 92.8987 73.6002 92.8161 74.3386C92.7336 75.0771 92.6511 75.0771 92.6098 75.8156C92.5273 76.554 92.5685 76.554 92.486 77.2925C92.4034 78.0309 92.486 78.0309 92.4447 78.7694C92.3622 79.5079 92.3209 79.5079 92.2384 80.2463C92.1558 80.9848 92.3209 80.9848 92.2384 81.7232C92.1558 82.4617 92.1971 82.4617 92.1146 83.2002C92.032 83.9386 92.032 83.9386 91.9908 84.6771C91.9082 85.4156 91.867 85.4156 91.7844 86.154C91.7019 86.8925 91.7432 86.8925 91.6606 87.6309" stroke="#313942" stroke-width="0.825339" stroke-miterlimit="10" stroke-linecap="round"/>
<path d="M120.382 35.4461L119.103 42.2974C118.608 44.882 120.671 47.2615 123.312 47.2204L130.287 47.0153C130.74 47.0153 130.906 47.5897 130.493 47.7948L124.344 51.0768C121.992 52.3076 121.414 55.3845 123.106 57.4358L127.604 62.7281C127.893 63.0563 127.522 63.5897 127.109 63.3845L120.713 60.6358C118.278 59.5691 115.472 61.0461 114.977 63.6307L113.615 70.4409C113.532 70.8922 112.913 70.8922 112.789 70.482L110.974 63.7948C110.272 61.2512 107.383 59.9794 105.031 61.2102L98.8411 64.4102C98.4284 64.6153 98.0158 64.164 98.3047 63.7948L102.431 58.1743C103.999 56.0409 103.215 53.005 100.781 51.9384L94.3843 49.1076C93.9716 48.9435 94.0954 48.3281 94.5494 48.2871L101.523 47.9999C104.165 47.8768 106.063 45.3743 105.403 42.8307L103.628 36.0204C103.504 35.5692 104.082 35.282 104.371 35.6512L108.952 40.9025C110.685 42.9127 113.862 42.7897 115.43 40.6974L119.64 35.1589C119.887 34.7486 120.465 34.9948 120.382 35.4461Z" fill="#59D095"/>
<path d="M63.1451 24.2472C63.1451 24.7395 63.0213 25.2318 62.98 25.7241C62.9388 26.2164 63.0626 26.7497 62.98 27.242C62.8975 27.7343 62.6499 28.1856 62.5261 28.6779C62.4023 29.1702 62.361 29.6625 62.1547 30.1549C61.9896 30.6061 61.742 31.0984 61.5357 31.5087C61.3294 31.96 60.9992 32.3702 60.7103 32.7805C60.4627 33.1908 60.1739 33.642 59.885 34.0523C59.5961 34.4625 59.3073 34.8728 58.9771 35.242C58.647 35.6113 58.1931 35.8984 57.8217 36.2266C57.4503 36.5549 57.0376 36.842 56.6249 37.1702C56.2122 37.4574 55.7996 37.7036 55.3456 37.9907C54.933 38.2369 54.5203 38.5651 54.0664 38.7702C53.6124 38.9754 53.1585 39.2215 52.7046 39.3856C52.2506 39.5497 51.7967 39.7959 51.3015 39.919C50.8063 40.042 50.3111 40.001 49.8159 40.1241C49.3207 40.2061 48.8255 40.3292 48.3303 40.4113C47.8351 40.4523 47.3399 40.5343 46.8034 40.5343C46.3082 40.5343 45.813 40.4113 45.3178 40.3702C44.8226 40.3292 44.3274 40.2882 43.8322 40.2061C43.337 40.1241 42.8418 40.001 42.3465 39.8779C41.8513 39.7549 41.3974 39.5497 40.9022 39.3856C40.4483 39.2215 39.9943 38.9754 39.5404 38.7702C39.0865 38.5651 38.6738 38.2369 38.2611 37.9907C37.8484 37.7446 37.312 37.5805 36.9406 37.2933C36.5279 37.0061 36.239 36.5959 35.8676 36.2677C35.4962 35.9395 35.1661 35.5702 34.7947 35.201C34.4646 34.8318 34.1344 34.4625 33.8456 34.0523C33.5567 33.642 33.2678 33.2318 33.0202 32.8215C32.7726 32.4113 32.4012 32.042 32.1949 31.5907C31.9885 31.1395 31.906 30.6472 31.7409 30.1549C31.5759 29.7036 31.2457 29.2523 31.1219 28.801C30.9981 28.3087 30.8331 27.8574 30.7505 27.3241C30.668 26.8318 30.7093 26.3395 30.668 25.8061C30.6267 25.3138 30.5029 24.8215 30.5029 24.3292C30.5029 23.8369 30.5855 23.3446 30.6267 22.8523C30.668 22.36 30.7918 21.8677 30.8743 21.3754C30.9569 20.8831 31.0807 20.3908 31.2457 19.9395C31.3695 19.4472 31.4521 18.9549 31.6584 18.5036C31.8235 18.0523 32.0298 17.56 32.2361 17.1087C32.4425 16.6574 32.8139 16.2882 33.0615 15.8369C33.3091 15.4266 33.5567 14.9343 33.8456 14.5651C34.1344 14.1549 34.5471 13.8677 34.8772 13.4984C35.2074 13.1292 35.4962 12.6779 35.8676 12.3497C36.239 12.0215 36.6517 11.7343 37.0644 11.4472C37.477 11.16 37.931 10.9138 38.3437 10.6677C38.7563 10.4215 39.2103 10.2164 39.6642 9.97024C40.1181 9.76511 40.4895 9.35485 40.9435 9.19075C41.3974 9.02665 41.9339 8.98562 42.4291 8.86255C42.9243 8.73947 43.3782 8.53434 43.8734 8.45229C44.3686 8.37024 44.8638 8.20614 45.359 8.16511C45.8542 8.12409 46.3494 8.24716 46.8859 8.24716C47.3811 8.24716 47.8763 8.28819 48.3715 8.37024C48.8667 8.41126 49.4032 8.32921 49.8984 8.45229C50.3936 8.53434 50.8475 8.82152 51.3427 8.9446C51.838 9.06767 52.3332 9.1087 52.8284 9.31383C53.2823 9.47793 53.7362 9.80614 54.1489 10.0113C54.6028 10.2164 55.0568 10.4215 55.5107 10.6677C55.9234 10.9138 56.3773 11.201 56.7487 11.4882C57.1614 11.7754 57.5741 12.0625 57.9455 12.3908C58.3169 12.719 58.6057 13.1702 58.9359 13.5395C59.266 13.9087 59.5961 14.2779 59.885 14.6882C60.1739 15.0984 60.4627 15.5087 60.7516 15.919C60.9992 16.3292 61.3294 16.7395 61.577 17.1908C61.7833 17.642 61.9896 18.0933 62.1547 18.5856C62.3198 19.0369 62.4023 19.5292 62.5674 20.0215C62.6912 20.5138 62.98 20.9651 63.0626 21.4574C63.1451 21.9497 63.1864 22.442 63.2276 22.9343C63.1864 23.2625 63.1451 23.7549 63.1451 24.2472Z" fill="#DDEEFF"/>
<path d="M92.6921 38.9334C92.6921 38.1949 92.6096 38.1949 92.6096 37.4565C92.6096 36.718 92.6096 36.718 92.6096 35.9796C92.6096 35.2411 92.6096 35.2411 92.6096 34.5026C92.6096 33.7642 92.7334 33.7642 92.7334 33.0257C92.7334 32.2872 92.6921 32.2872 92.6921 31.5488C92.6921 30.8103 92.5683 30.8103 92.5683 30.0719C92.5683 29.3334 92.5683 29.3334 92.5683 28.5949C92.5683 27.8565 92.6509 27.8565 92.6509 27.118C92.6509 26.3796 93.1873 26.1744 92.6509 25.6411C92.1144 25.1078 91.9081 25.559 91.1653 25.559C90.4225 25.559 90.4224 25.6821 89.6796 25.6821C88.9368 25.6821 88.9368 25.559 88.194 25.559C87.4512 25.559 87.4512 25.6411 86.7084 25.6411C85.9656 25.6411 85.9656 25.6411 85.2228 25.6411H83.8197C83.0769 25.6411 83.0769 25.6411 82.3341 25.6411C81.5913 25.6411 81.5913 25.6411 80.8485 25.6411C80.1057 25.6411 80.1057 25.559 79.3629 25.559C78.6201 25.559 78.6201 25.6411 77.8773 25.6411C77.1345 25.6411 77.1345 25.559 76.3917 25.559C75.6489 25.559 75.6489 25.7231 74.9061 25.7231C74.1633 25.7231 74.1633 25.6411 73.4205 25.6411C72.6777 25.6411 72.6776 25.6821 71.9348 25.6821C71.192 25.6821 71.192 25.6411 70.4492 25.6411C69.7064 25.6411 69.7064 25.6821 68.9636 25.6821C68.2208 25.6821 68.2208 25.6821 67.478 25.6821C66.7352 25.6821 66.7352 25.559 65.9924 25.559C65.2496 25.559 65.2496 25.559 64.5068 25.559C63.764 25.559 63.764 25.6001 63.0212 25.6001C62.2784 25.6001 62.2784 25.518 61.5356 25.518C60.7928 25.518 60.7928 25.559 60.05 25.559C59.3071 25.559 59.3072 25.6001 58.5643 25.6001C57.8215 25.6001 57.8215 25.6821 57.0787 25.6821C56.3359 25.6821 56.3359 25.6411 55.5931 25.6411C54.8503 25.6411 54.8503 25.6001 54.1075 25.6001C53.3647 25.6001 53.3647 25.6411 52.6219 25.6411C51.8791 25.6411 51.8791 25.518 51.1363 25.518C50.3935 25.518 50.3935 25.6411 49.6507 25.6411C48.9079 25.6411 48.9079 25.6411 48.1651 25.6411C47.4223 25.6411 47.2159 25.0257 46.6795 25.559C46.143 26.0924 46.762 26.2975 46.762 27.036C46.762 27.7744 46.6382 27.7744 46.6382 28.5539C46.6382 29.2924 46.5969 29.2924 46.5969 30.0308C46.5969 30.7693 46.5969 30.7693 46.5969 31.5488C46.5969 32.2872 46.5969 32.2872 46.5969 33.0257C46.5969 33.7642 46.5969 33.7642 46.5969 34.5437C46.5969 35.2821 46.6382 35.2821 46.6382 36.0206C46.6382 36.759 46.5969 36.759 46.5969 37.5385C46.5969 38.277 46.5969 38.277 46.5969 39.0154C46.5969 39.7539 46.7207 39.7539 46.7207 40.5334C46.7207 41.2719 46.6795 41.2719 46.6795 42.0513C46.6795 42.7898 46.5969 42.7898 46.5969 43.5693C46.5969 44.3078 46.7207 44.3078 46.7207 45.0872C46.7207 45.8257 46.6382 45.8257 46.6382 46.6052C46.6382 47.3437 46.762 47.3437 46.762 48.1231C46.762 48.8616 46.762 48.8616 46.762 49.6411C46.762 50.3796 46.7207 50.3796 46.7207 51.159C46.7207 51.8975 46.6795 51.8975 46.6795 52.677C46.6795 53.1693 46.6382 53.6616 46.7207 54.1129C46.8033 54.6052 46.9683 55.0565 47.1334 55.4667C47.2985 55.918 47.4223 56.3693 47.6699 56.7796C47.8762 57.1898 48.2063 57.559 48.4952 57.9693C48.7841 58.3385 49.0729 58.7488 49.4031 59.077C49.7332 59.4052 50.1046 59.7334 50.476 59.9796C50.8474 60.2667 51.2601 60.5129 51.6728 60.759C52.0854 60.9642 52.5394 61.1693 52.9933 61.3334C53.4472 61.4975 53.9424 61.4975 54.3964 61.5796C54.8503 61.6616 55.3455 61.7847 55.7995 61.7847V61.6206C56.2947 61.6206 56.7486 61.8257 57.2025 61.9078C57.6977 61.9898 58.1517 62.0719 58.5643 62.236C59.0183 62.4001 59.5135 62.4411 59.9262 62.6462C60.3388 62.8513 60.7102 63.2206 61.0816 63.4667C61.453 63.7539 61.8244 64.0821 62.1546 64.4103C62.4847 64.7385 62.8561 65.0667 63.145 65.436C63.4338 65.8052 63.5989 66.2565 63.8465 66.6667C64.0529 67.077 64.1767 67.5283 64.3417 67.9796C64.5068 68.4308 64.6719 68.8411 64.7544 69.3334C64.8369 69.7847 64.9607 70.277 64.9607 70.7693C64.9607 71.5078 64.8782 71.5078 64.8782 72.2462C64.8782 72.9847 64.7957 72.9847 64.7957 73.7231C64.7957 74.4616 64.7957 74.4616 64.7957 75.2001C64.7957 75.9385 64.9195 75.9385 64.9195 76.677C64.9195 77.4154 64.9607 77.4154 64.9607 78.1539C64.9607 78.8924 64.8782 78.8924 64.8782 79.6308C64.8782 80.3693 64.8782 80.3693 64.8782 81.1078C64.8782 81.8462 64.7957 81.8462 64.7957 82.5847C64.7957 83.3231 64.7957 83.3231 64.7957 84.0616C64.7957 84.8001 64.8782 84.8001 64.8782 85.5796C64.8782 86.318 64.3005 86.6052 64.8369 87.1385C65.3734 87.6719 65.621 87.0154 66.3638 87.0154C67.1066 87.0154 67.1066 87.0154 67.8494 87.0154C68.5922 87.0154 68.5922 87.0154 69.335 87.0154C70.0778 87.0154 70.0778 87.0975 70.8206 87.0975C71.5634 87.0975 71.5634 87.0975 72.3062 87.0975C73.0491 87.0975 73.0491 87.1385 73.7919 87.1385C74.5347 87.1385 74.5347 87.1796 75.2775 87.1796C76.0203 87.1796 76.0203 87.2206 76.7631 87.2206C77.5059 87.2206 77.5059 87.0975 78.2487 87.0975C78.9915 87.0975 78.9915 87.0975 79.7343 87.0975C80.4771 87.0975 80.4771 87.1796 81.2199 87.1796C81.9627 87.1796 81.9627 87.2206 82.7055 87.2206C83.4483 87.2206 83.4483 87.1385 84.1911 87.1385C84.9339 87.1385 84.9339 87.1385 85.6767 87.1385C86.4196 87.1385 86.4196 87.0975 87.1624 87.0975C87.9052 87.0975 87.9052 87.1796 88.648 87.1796C89.3908 87.1796 89.3908 87.2206 90.1336 87.2206C90.8764 87.2206 90.8764 87.2206 91.6192 87.2206C92.362 87.2206 92.362 87.0975 93.1048 87.0975C93.8476 87.0975 93.8476 87.2206 94.5904 87.2206C95.3332 87.2206 95.3332 87.0975 96.076 87.0975C96.8188 87.0975 96.8188 87.0975 97.5616 87.0975C98.3044 87.0975 98.3044 87.0975 99.0472 87.0975C99.79 87.0975 99.79 87.2206 100.533 87.2206C101.276 87.2206 101.276 87.1385 102.018 87.1385C102.761 87.1385 102.761 87.1385 103.504 87.1385C104.247 87.1385 104.247 87.0975 104.99 87.0975C105.732 87.0975 105.732 87.1385 106.475 87.1385C107.218 87.1385 107.218 87.2616 107.961 87.2616C108.704 87.2616 108.704 87.1796 109.447 87.1796C110.189 87.1796 110.437 87.7129 110.973 87.2206C111.51 86.7283 110.891 86.4411 110.891 85.7437C110.891 85.0052 110.85 85.0052 110.85 84.3078C110.85 83.5693 110.891 83.5693 110.891 82.8719C110.891 82.1334 110.891 82.1334 110.891 81.436C110.891 80.6975 110.891 80.6975 110.891 80.0001C110.891 79.2616 111.015 79.2616 111.015 78.5642C111.015 77.8257 110.973 77.8257 110.973 77.1283C110.973 76.4308 111.015 76.3898 111.015 75.6924C111.015 74.9539 110.973 74.9539 110.973 74.2565C110.973 73.518 111.015 73.518 111.015 72.8206C111.015 72.0821 111.015 72.0821 111.015 71.3847C111.015 70.6462 110.891 70.6462 110.891 69.9488C110.891 69.2103 111.015 69.2103 111.015 68.5129C111.015 67.7744 111.015 67.7744 111.015 67.077C111.015 66.3385 110.932 66.3385 110.932 65.6411C110.932 64.9026 111.056 64.9026 111.056 64.2052C111.056 63.4667 110.891 63.4667 110.891 62.7693C110.891 62.0308 110.932 62.0308 110.932 61.3334C110.932 60.5949 110.932 60.5949 110.932 59.8975C110.932 59.159 110.891 59.159 110.891 58.4616C110.891 57.7231 110.891 57.7231 110.891 57.0257C110.891 56.2872 110.85 56.2872 110.85 55.5898C110.85 54.8513 110.891 54.8513 110.891 54.1539C110.891 53.6616 110.973 53.1693 110.891 52.718C110.808 52.2257 110.519 51.8154 110.354 51.3642C110.189 50.9129 110.066 50.4616 109.859 50.0513C109.653 49.6411 109.488 49.1898 109.199 48.7796C108.91 48.4103 108.662 48.0001 108.332 47.6308C108.002 47.3026 107.507 47.0975 107.136 46.8513C106.764 46.5642 106.393 46.236 105.98 45.9898C105.567 45.7847 105.113 45.5796 104.66 45.4565C104.206 45.2924 103.71 45.2513 103.256 45.1693C102.803 45.0872 102.307 45.0462 101.812 45.0462C101.028 45.0462 101.028 44.9642 100.244 44.9642C99.4599 44.9642 99.4599 45.1283 98.6758 45.1283C98.1394 45.1283 97.6029 45.0052 97.1077 44.8821C96.6125 44.759 96.1586 44.4719 95.7046 44.1847C95.2507 43.9385 94.7555 43.6924 94.3841 43.3642C94.0127 42.9949 93.6413 42.5847 93.3937 42.1334C93.1461 41.6821 93.0635 41.1488 92.9397 40.6565C92.8572 39.959 92.6921 39.4667 92.6921 38.9334Z" fill="#F6F6F6"/>
<path d="M92.6921 38.9334C92.6921 38.1949 92.6096 38.1949 92.6096 37.4565C92.6096 36.718 92.6096 36.718 92.6096 35.9796C92.6096 35.2411 92.6096 35.2411 92.6096 34.5026C92.6096 33.7642 92.7334 33.7642 92.7334 33.0257C92.7334 32.2872 92.6921 32.2872 92.6921 31.5488C92.6921 30.8103 92.5683 30.8103 92.5683 30.0719C92.5683 29.3334 92.5683 29.3334 92.5683 28.5949C92.5683 27.8565 92.6509 27.8565 92.6509 27.118C92.6509 26.3796 93.1873 26.1744 92.6509 25.6411C92.1144 25.1078 91.9081 25.559 91.1653 25.559C90.4224 25.559 90.4224 25.6821 89.6796 25.6821C88.9368 25.6821 88.9368 25.559 88.194 25.559C87.4512 25.559 87.4512 25.6411 86.7084 25.6411C85.9656 25.6411 85.9656 25.6411 85.2228 25.6411H83.8197C83.0769 25.6411 83.0769 25.6411 82.3341 25.6411C81.5913 25.6411 81.5913 25.6411 80.8485 25.6411C80.1057 25.6411 80.1057 25.559 79.3629 25.559C78.6201 25.559 78.6201 25.6411 77.8773 25.6411C77.1345 25.6411 77.1345 25.559 76.3917 25.559C75.6489 25.559 75.6489 25.7231 74.9061 25.7231C74.1633 25.7231 74.1633 25.6411 73.4205 25.6411C72.6777 25.6411 72.6776 25.6821 71.9348 25.6821C71.192 25.6821 71.192 25.6411 70.4492 25.6411C69.7064 25.6411 69.7064 25.6821 68.9636 25.6821C68.2208 25.6821 68.2208 25.6821 67.478 25.6821C66.7352 25.6821 66.7352 25.559 65.9924 25.559C65.2496 25.559 65.2496 25.559 64.5068 25.559C63.764 25.559 63.764 25.6001 63.0212 25.6001C62.2784 25.6001 62.2784 25.518 61.5356 25.518C60.7928 25.518 60.7928 25.559 60.05 25.559C59.3071 25.559 59.3072 25.6001 58.5643 25.6001C57.8215 25.6001 57.8215 25.6821 57.0787 25.6821C56.3359 25.6821 56.3359 25.6411 55.5931 25.6411C54.8503 25.6411 54.8503 25.6001 54.1075 25.6001C53.3647 25.6001 53.3647 25.6411 52.6219 25.6411C51.8791 25.6411 51.8791 25.518 51.1363 25.518C50.3935 25.518 50.3935 25.6411 49.6507 25.6411C48.9079 25.6411 48.9079 25.6411 48.1651 25.6411C47.4223 25.6411 47.2159 25.0257 46.6795 25.559C46.143 26.0924 46.762 26.2975 46.762 27.036C46.762 27.7744 46.6382 27.7744 46.6382 28.5539C46.6382 29.2924 46.5969 29.2924 46.5969 30.0308C46.5969 30.7693 46.5969 30.7693 46.5969 31.5488C46.5969 32.2872 46.5969 32.2872 46.5969 33.0257C46.5969 33.7642 46.5969 33.7642 46.5969 34.5437C46.5969 35.2821 46.6382 35.2821 46.6382 36.0206C46.6382 36.759 46.5969 36.759 46.5969 37.5385C46.5969 38.277 46.5969 38.277 46.5969 39.0154C46.5969 39.7539 46.7207 39.7539 46.7207 40.5334C46.7207 41.2719 46.6795 41.2719 46.6795 42.0513C46.6795 42.7898 46.5969 42.7898 46.5969 43.5693C46.5969 44.3078 46.7207 44.3078 46.7207 45.0872C46.7207 45.8257 46.6382 45.8257 46.6382 46.6052C46.6382 47.3437 46.762 47.3437 46.762 48.1231C46.762 48.8616 46.762 48.8616 46.762 49.6411C46.762 50.3796 46.7207 50.3796 46.7207 51.159C46.7207 51.8975 46.6795 51.8975 46.6795 52.677C46.6795 53.1693 46.6382 53.6616 46.7207 54.1129C46.8033 54.6052 46.9683 55.0565 47.1334 55.4667C47.2985 55.918 47.4223 56.3693 47.6699 56.7796C47.8762 57.1898 48.2063 57.559 48.4952 57.9693C48.7841 58.3385 49.0729 58.7488 49.4031 59.077C49.7332 59.4052 50.1046 59.7334 50.476 59.9796C50.8474 60.2667 51.2601 60.5129 51.6728 60.759C52.0854 60.9642 52.5394 61.1693 52.9933 61.3334C53.4472 61.4975 53.9424 61.4975 54.3964 61.5796C54.8503 61.6616 55.3455 61.7847 55.7995 61.7847V61.6206C56.2947 61.6206 56.7486 61.8257 57.2025 61.9078C57.6977 61.9898 58.1517 62.0719 58.5643 62.236C59.0183 62.4001 59.5135 62.4411 59.9262 62.6462C60.3388 62.8513 60.7102 63.2206 61.0816 63.4667C61.453 63.7539 61.8244 64.0821 62.1546 64.4103C62.4847 64.7385 62.8561 65.0667 63.145 65.436C63.4338 65.8052 63.5989 66.2565 63.8465 66.6667C64.0529 67.077 64.1767 67.5283 64.3417 67.9796C64.5068 68.4308 64.6719 68.8411 64.7544 69.3334C64.8369 69.7847 64.9607 70.277 64.9607 70.7693C64.9607 71.5078 64.8782 71.5078 64.8782 72.2462C64.8782 72.9847 64.7957 72.9847 64.7957 73.7231C64.7957 74.4616 64.7957 74.4616 64.7957 75.2001C64.7957 75.9385 64.9195 75.9385 64.9195 76.677C64.9195 77.4154 64.9607 77.4154 64.9607 78.1539C64.9607 78.8924 64.8782 78.8924 64.8782 79.6308C64.8782 80.3693 64.8782 80.3693 64.8782 81.1078C64.8782 81.8462 64.7957 81.8462 64.7957 82.5847C64.7957 83.3231 64.7957 83.3231 64.7957 84.0616C64.7957 84.8001 64.8782 84.8001 64.8782 85.5796C64.8782 86.318 64.3005 86.6052 64.8369 87.1385C65.3734 87.6719 65.621 87.0155 66.3638 87.0155C67.1066 87.0155 67.1066 87.0155 67.8494 87.0155C68.5922 87.0155 68.5922 87.0155 69.335 87.0155C70.0778 87.0155 70.0778 87.0975 70.8206 87.0975C71.5634 87.0975 71.5634 87.0975 72.3062 87.0975C73.0491 87.0975 73.0491 87.1385 73.7919 87.1385C74.5347 87.1385 74.5347 87.1796 75.2775 87.1796C76.0203 87.1796 76.0203 87.2206 76.7631 87.2206C77.5059 87.2206 77.5059 87.0975 78.2487 87.0975C78.9915 87.0975 78.9915 87.0975 79.7343 87.0975C80.4771 87.0975 80.4771 87.1796 81.2199 87.1796C81.9627 87.1796 81.9627 87.2206 82.7055 87.2206C83.4483 87.2206 83.4483 87.1385 84.1911 87.1385C84.9339 87.1385 84.9339 87.1385 85.6767 87.1385C86.4196 87.1385 86.4196 87.0975 87.1624 87.0975C87.9052 87.0975 87.9052 87.1796 88.648 87.1796C89.3908 87.1796 89.3908 87.2206 90.1336 87.2206C90.8764 87.2206 90.8764 87.2206 91.6192 87.2206C92.362 87.2206 92.362 87.0975 93.1048 87.0975C93.8476 87.0975 93.8476 87.2206 94.5904 87.2206C95.3332 87.2206 95.3332 87.0975 96.076 87.0975C96.8188 87.0975 96.8188 87.0975 97.5616 87.0975C98.3044 87.0975 98.3044 87.0975 99.0472 87.0975C99.79 87.0975 99.79 87.2206 100.533 87.2206C101.276 87.2206 101.276 87.1385 102.018 87.1385C102.761 87.1385 102.761 87.1385 103.504 87.1385C104.247 87.1385 104.247 87.0975 104.99 87.0975C105.732 87.0975 105.732 87.1385 106.475 87.1385C107.218 87.1385 107.218 87.2616 107.961 87.2616C108.704 87.2616 108.704 87.1796 109.447 87.1796C110.189 87.1796 110.437 87.7129 110.973 87.2206C111.51 86.7283 110.891 86.4411 110.891 85.7437C110.891 85.0052 110.85 85.0052 110.85 84.3078C110.85 83.5693 110.891 83.5693 110.891 82.8719C110.891 82.1334 110.891 82.1334 110.891 81.436C110.891 80.6975 110.891 80.6975 110.891 80.0001C110.891 79.2616 111.015 79.2616 111.015 78.5642C111.015 77.8257 110.973 77.8257 110.973 77.1283C110.973 76.4308 111.015 76.3898 111.015 75.6924C111.015 74.9539 110.973 74.9539 110.973 74.2565C110.973 73.518 111.015 73.518 111.015 72.8206C111.015 72.0821 111.015 72.0821 111.015 71.3847C111.015 70.6462 110.891 70.6462 110.891 69.9488C110.891 69.2103 111.015 69.2103 111.015 68.5129C111.015 67.7744 111.015 67.7744 111.015 67.077C111.015 66.3385 110.932 66.3385 110.932 65.6411C110.932 64.9026 111.056 64.9026 111.056 64.2052C111.056 63.4667 110.891 63.4667 110.891 62.7693C110.891 62.0308 110.932 62.0308 110.932 61.3334C110.932 60.5949 110.932 60.5949 110.932 59.8975C110.932 59.159 110.891 59.159 110.891 58.4616C110.891 57.7231 110.891 57.7231 110.891 57.0257C110.891 56.2872 110.85 56.2872 110.85 55.5898C110.85 54.8513 110.891 54.8513 110.891 54.1539C110.891 53.6616 110.973 53.1693 110.891 52.718C110.808 52.2257 110.519 51.8154 110.354 51.3642C110.189 50.9129 110.066 50.4616 109.859 50.0513C109.653 49.6411 109.488 49.1898 109.199 48.7796C108.91 48.4103 108.662 48.0001 108.332 47.6308C108.002 47.3026 107.507 47.0975 107.136 46.8513C106.764 46.5642 106.393 46.236 105.98 45.9898C105.567 45.7847 105.113 45.5796 104.66 45.4565C104.206 45.2924 103.71 45.2513 103.256 45.1693C102.803 45.0872 102.307 45.0462 101.812 45.0462C101.028 45.0462 101.028 44.9642 100.244 44.9642C99.4599 44.9642 99.4599 45.1283 98.6758 45.1283C98.1394 45.1283 97.6029 45.0052 97.1077 44.8821C96.6125 44.759 96.1586 44.4719 95.7046 44.1847C95.2507 43.9385 94.7555 43.6924 94.3841 43.3642C94.0127 42.9949 93.6413 42.5847 93.3937 42.1334C93.1461 41.6821 93.0635 41.1488 92.9397 40.6565C92.8572 39.959 92.6921 39.4667 92.6921 38.9334Z" stroke="#414C58" stroke-width="0.825339" stroke-miterlimit="10" stroke-linecap="round"/>
<path d="M55.5931 35.7749C56.3359 35.7749 56.3359 35.8575 57.0787 35.8575C57.8216 35.8575 57.8216 35.7336 58.5644 35.7336C59.3072 35.7336 59.3072 35.7749 60.05 35.7749C60.7928 35.7749 60.7928 35.7336 61.5356 35.7336C62.2784 35.7336 62.2784 35.7749 63.0212 35.7749C63.764 35.7749 63.764 35.7749 64.5068 35.7749C65.2496 35.7749 65.2496 35.6924 65.9924 35.6924C66.7352 35.6924 66.7352 35.8575 67.478 35.8575C68.2208 35.8575 68.2208 35.8575 68.9636 35.8575C69.7064 35.8575 69.7064 35.8162 70.4493 35.8162C71.1921 35.8162 71.1921 35.7749 71.9349 35.7749C72.6777 35.7749 72.6777 35.8575 73.4205 35.8575C74.1633 35.8575 74.1633 35.7336 74.9061 35.7336C75.6489 35.7336 75.6489 35.7336 76.3917 35.7336C77.1345 35.7336 77.1345 35.8162 77.8773 35.8162C78.6201 35.8162 78.6201 35.8162 79.3629 35.8162C80.1057 35.8162 80.1057 35.7749 80.8485 35.7749C81.5913 35.7749 81.5913 35.6924 82.3341 35.6924C83.0769 35.6924 83.0769 35.8162 83.8197 35.8162" stroke="#69B3FF" stroke-width="0.825339" stroke-miterlimit="10"/>
<path d="M73.7095 57.0667C74.4523 57.0667 74.4523 57.1487 75.1951 57.1487C75.9379 57.1487 75.9379 57.0667 76.6807 57.0667C77.4235 57.0667 77.4235 57.2718 78.1663 57.2718C78.9091 57.2718 78.9091 57.0667 79.6519 57.0667C80.3947 57.0667 80.3947 57.2308 81.1375 57.2308C81.8803 57.2308 81.8803 57.2308 82.6231 57.2308C83.3659 57.2308 83.3659 57.1487 84.1087 57.1487C84.8516 57.1487 84.8516 57.2308 85.5944 57.2308C86.3372 57.2308 86.3372 57.1897 87.08 57.1897C87.8228 57.1897 87.8228 57.2308 88.5656 57.2308C89.3084 57.2308 89.3084 57.0667 90.0512 57.0667C90.794 57.0667 90.794 57.0667 91.5368 57.0667C92.2796 57.0667 92.2796 57.1487 93.0224 57.1487C93.7652 57.1487 93.7652 57.0256 94.508 57.0256C95.2508 57.0256 95.2508 57.1077 95.9936 57.1077C96.7364 57.1077 96.7364 57.1487 97.4792 57.1487C98.2221 57.1487 98.222 57.0667 98.9649 57.0667C99.7077 57.0667 99.7077 57.1077 100.45 57.1077C101.193 57.1077 101.193 56.9846 101.936 56.9846" stroke="#69B3FF" stroke-width="0.825339" stroke-miterlimit="10"/>
<path d="M73.7095 68.9641C74.4523 68.9641 74.4523 69.0052 75.1951 69.0052C75.9379 69.0052 75.9379 68.8821 76.6807 68.8821C77.4235 68.8821 77.4235 68.9231 78.1663 68.9231C78.9091 68.9231 78.9091 68.8411 79.6519 68.8411C80.3947 68.8411 80.3947 68.9231 81.1375 68.9231C81.8803 68.9231 81.8803 68.9231 82.6231 68.9231C83.3659 68.9231 83.3659 68.9641 84.1087 68.9641C84.8516 68.9641 84.8516 69.0462 85.5944 69.0462C86.3372 69.0462 86.3372 69.0462 87.08 69.0462C87.8228 69.0462 87.8228 68.9641 88.5656 68.9641C89.3084 68.9641 89.3084 68.9641 90.0512 68.9641C90.794 68.9641 90.794 68.8821 91.5368 68.8821C92.2796 68.8821 92.2796 68.9641 93.0224 68.9641C93.7652 68.9641 93.7652 68.8821 94.508 68.8821C95.2508 68.8821 95.2508 68.8821 95.9936 68.8821C96.7364 68.8821 96.7364 68.9641 97.4792 68.9641C98.2221 68.9641 98.222 69.0052 98.9649 69.0052C99.7077 69.0052 99.7077 68.9641 100.45 68.9641C101.193 68.9641 101.193 69.0462 101.936 69.0462" stroke="#69B3FF" stroke-width="0.825339" stroke-miterlimit="10"/>
<path d="M55.5931 45.3745C56.3359 45.3745 56.3359 45.3335 57.0787 45.3335C57.8216 45.3335 57.8216 45.3745 58.5644 45.3745C59.3072 45.3745 59.3072 45.4566 60.05 45.4566C60.7928 45.4566 60.7928 45.3745 61.5356 45.3745C62.2784 45.3745 62.2784 45.3335 63.0212 45.3335C63.764 45.3335 63.764 45.2925 64.5068 45.2925C65.2496 45.2925 65.2496 45.2925 65.9924 45.2925C66.7352 45.2925 66.7352 45.2515 67.478 45.2515C68.2208 45.2515 68.2208 45.3745 68.9636 45.3745C69.7064 45.3745 69.7064 45.3745 70.4493 45.3745C71.1921 45.3745 71.1921 45.4566 71.9349 45.4566C72.6777 45.4566 72.6777 45.4566 73.4205 45.4566C74.1633 45.4566 74.1633 45.3335 74.9061 45.3335C75.6489 45.3335 75.6489 45.3335 76.3917 45.3335C77.1345 45.3335 77.1345 45.4156 77.8773 45.4156C78.6201 45.4156 78.6201 45.4566 79.3629 45.4566C80.1057 45.4566 80.1057 45.4976 80.8485 45.4976C81.5913 45.4976 81.5913 45.3745 82.3341 45.3745C83.0769 45.3745 83.0769 45.4566 83.8197 45.4566" stroke="#69B3FF" stroke-width="0.825339" stroke-miterlimit="10"/>
<path d="M65.0847 75.6105C65.7037 75.2002 65.7862 75.6925 66.4878 75.9387C67.1893 76.1848 67.1893 76.2258 67.8908 76.472C68.5924 76.7182 68.5924 76.7592 69.2939 77.0053C69.9954 77.2515 69.9954 77.2925 70.697 77.5387C71.3985 77.7848 71.3985 77.7438 72.1001 77.99C72.8016 78.2361 72.7603 78.3182 73.5031 78.5643C74.2047 78.8105 74.2047 78.8515 74.9062 79.0976C75.6078 79.3438 75.649 79.2207 76.3506 79.4669C77.0521 79.713 77.0108 79.8361 77.7124 80.0823C78.4139 80.3284 78.4139 80.2874 79.1567 80.5335C79.8583 80.7797 79.8583 80.7387 80.5598 80.9848C81.2613 81.231 81.2613 81.1899 81.9629 81.4361C82.6644 81.6823 82.6644 81.6823 83.3659 81.9284C84.0675 82.1746 84.0675 82.2156 84.769 82.4617C85.4706 82.7079 85.4706 82.7489 86.1721 82.9951C86.8736 83.2412 86.9149 83.1182 87.6164 83.3643C88.318 83.6105 88.318 83.6105 89.0195 83.8566C89.7211 84.1028 89.6798 84.2669 90.3813 84.513C91.0829 84.7592 91.1241 84.6771 91.8257 84.9233C92.5272 85.1694 92.5272 85.2105 93.2288 85.4566C93.9303 85.7028 93.9303 85.7848 94.6318 86.031C95.3334 86.2771 95.3746 86.1951 96.0762 86.4412C96.7777 86.6874 96.819 86.6053 97.5205 86.8515C98.222 87.0976 99.0887 86.6874 99.0061 87.4258C98.9236 88.1643 98.1808 87.5079 97.438 87.5079C96.6952 87.5079 96.6952 87.3848 95.9524 87.3848C95.2096 87.3848 95.2096 87.3438 94.4668 87.3438C93.724 87.3438 93.724 87.4258 92.9811 87.4258C92.2383 87.4258 92.2383 87.5079 91.4955 87.5079C90.7527 87.5079 90.7527 87.5489 90.0099 87.5489C89.2671 87.5489 89.2671 87.5489 88.5243 87.5489C87.7815 87.5489 87.7815 87.4669 87.0387 87.4669C86.2959 87.4669 86.2959 87.3848 85.5531 87.3848C84.8103 87.3848 84.8103 87.5489 84.0675 87.5489C83.3247 87.5489 83.3247 87.5079 82.5819 87.5079C81.8391 87.5079 81.8391 87.4258 81.0963 87.4258C80.3535 87.4258 80.3535 87.5489 79.6107 87.5489C78.8678 87.5489 78.8678 87.4258 78.125 87.4258C77.3822 87.4258 77.3822 87.5079 76.6394 87.5079C75.8966 87.5079 75.8966 87.5079 75.1538 87.5079C74.411 87.5079 74.411 87.4669 73.6682 87.4669C72.9254 87.4669 72.9254 87.4258 72.1826 87.4258C71.4398 87.4258 71.4398 87.5079 70.697 87.5079C69.9542 87.5079 69.9542 87.4258 69.2114 87.4258C68.4686 87.4258 68.4686 87.5079 67.7258 87.5079C66.983 87.5079 66.983 87.4669 66.2401 87.4669C65.4973 87.4669 65.291 88.0002 64.7958 87.4669C64.2593 86.9335 64.7958 86.7284 64.7958 85.99C64.7958 85.2515 64.8371 85.2515 64.8371 84.513C64.8371 83.7746 64.7958 83.7746 64.7958 83.0361C64.7958 82.2976 64.8783 82.2976 64.8783 81.5592C64.8783 80.8207 64.8371 80.8207 64.8371 80.0823C64.8371 79.3438 64.7545 79.3438 64.7545 78.6053C64.7545 77.8669 64.8783 77.8669 64.7133 77.1694C64.7958 76.2669 64.4657 76.0207 65.0847 75.6105Z" fill="#313942"/>
<path d="M19.9799 87.3438C20.7227 87.3438 20.7227 87.2617 21.4655 87.2617C22.2083 87.2617 22.2083 87.2617 22.9511 87.2617C23.6939 87.2617 23.6939 87.2207 24.4367 87.2207C25.1795 87.2207 25.1795 87.3028 25.9223 87.3028C26.6651 87.3028 26.6651 87.2617 27.4079 87.2617C28.1507 87.2617 28.1507 87.2207 28.8935 87.2207C29.6363 87.2207 29.6363 87.3438 30.3791 87.3438C31.1219 87.3438 31.1219 87.3438 31.8647 87.3438C32.6076 87.3438 32.6075 87.3848 33.3504 87.3848C34.0932 87.3848 34.0932 87.3848 34.836 87.3848C35.5788 87.3848 35.5788 87.3028 36.3216 87.3028C37.0644 87.3028 37.0644 87.2617 37.8072 87.2617C38.55 87.2617 38.55 87.3438 39.2928 87.3438C40.0356 87.3438 40.0356 87.2617 40.7784 87.2617C41.5212 87.2617 41.5212 87.3438 42.264 87.3438C43.0068 87.3438 43.0068 87.2207 43.7496 87.2207C44.4924 87.2207 44.4924 87.2617 45.2352 87.2617C45.978 87.2617 45.9781 87.3848 46.7209 87.3848C47.4637 87.3848 47.4637 87.3438 48.2065 87.3438C48.9493 87.3438 48.9493 87.3438 49.6921 87.3438C50.4349 87.3438 50.4349 87.3848 51.1777 87.3848C51.9205 87.3848 51.9205 87.2617 52.6633 87.2617C53.4061 87.2617 53.4061 87.3438 54.1489 87.3438C54.8917 87.3438 54.8917 87.3028 55.6345 87.3028C56.3773 87.3028 56.3773 87.2617 57.1201 87.2617C57.8629 87.2617 57.8629 87.4258 58.6057 87.4258C59.3485 87.4258 59.3485 87.3028 60.0914 87.3028C60.8342 87.3028 60.8342 87.3848 61.577 87.3848C62.3198 87.3848 62.3198 87.3028 63.0626 87.3028C63.8054 87.3028 63.8054 87.4258 64.5482 87.4258C65.291 87.4258 65.291 87.3028 66.0338 87.3028C66.7766 87.3028 66.7766 87.3848 67.5194 87.3848C68.2622 87.3848 68.2622 87.4669 69.005 87.4669C69.7478 87.4669 69.7478 87.4669 70.4906 87.4669C71.2334 87.4669 71.2334 87.4258 71.9762 87.4258C72.719 87.4258 72.719 87.4258 73.4618 87.4258C74.2047 87.4258 74.2047 87.3028 74.9475 87.3028C75.6903 87.3028 75.6903 87.4258 76.4331 87.4258C77.1759 87.4258 77.1759 87.3028 77.9187 87.3028C78.6615 87.3028 78.6615 87.3438 79.4043 87.3438C80.1471 87.3438 80.1471 87.4669 80.8899 87.4669C81.6327 87.4669 81.6327 87.4258 82.3755 87.4258C83.1183 87.4258 83.1183 87.3438 83.8611 87.3438C84.6039 87.3438 84.6039 87.4669 85.3467 87.4669C86.0895 87.4669 86.0895 87.3848 86.8323 87.3848C87.5752 87.3848 87.5751 87.4258 88.318 87.4258C89.0608 87.4258 89.0608 87.3848 89.8036 87.3848C90.5464 87.3848 90.5464 87.3848 91.2892 87.3848C92.032 87.3848 92.032 87.4669 92.7748 87.4669C93.5176 87.4669 93.5176 87.4669 94.2604 87.4669C95.0032 87.4669 95.0032 87.3028 95.746 87.3028C96.4888 87.3028 96.4888 87.3438 97.2316 87.3438C97.9744 87.3438 97.9744 87.4669 98.7172 87.4669C99.46 87.4669 99.46 87.3028 100.203 87.3028C100.946 87.3028 100.946 87.3438 101.688 87.3438C102.431 87.3438 102.431 87.4669 103.174 87.4669C103.917 87.4669 103.917 87.3028 104.66 87.3028C105.402 87.3028 105.402 87.3028 106.145 87.3028C106.888 87.3028 106.888 87.4669 107.631 87.4669C108.374 87.4669 108.374 87.3848 109.117 87.3848C109.859 87.3848 109.859 87.3028 110.602 87.3028C111.345 87.3028 111.345 87.3438 112.088 87.3438C112.831 87.3438 112.831 87.3848 113.573 87.3848C114.316 87.3848 114.316 87.3438 115.059 87.3438C115.802 87.3438 115.802 87.3848 116.545 87.3848C117.287 87.3848 117.287 87.4669 118.03 87.4669C118.773 87.4669 118.773 87.3848 119.516 87.3848C120.259 87.3848 120.259 87.3438 121.001 87.3438C121.744 87.3438 121.744 87.3028 122.487 87.3028C123.23 87.3028 123.23 87.3028 123.973 87.3028" stroke="#414C58" stroke-width="0.825339" stroke-miterlimit="10"/>
<path d="M130.864 65.1078C130.864 65.6001 130.699 66.0924 130.658 66.5847C130.616 67.077 130.451 67.5693 130.328 68.0616C130.204 68.554 130.039 69.0052 129.874 69.4975C129.709 69.9488 129.544 70.4411 129.337 70.8924C129.09 71.3437 128.842 71.754 128.553 72.1642C128.264 72.5745 127.975 72.9847 127.645 73.354C127.315 73.7232 126.985 74.1334 126.614 74.4616C126.242 74.7899 125.829 75.1181 125.417 75.4052C125.004 75.6924 124.55 75.9386 124.096 76.1847C123.642 76.4309 123.147 76.5129 122.652 76.677C122.198 76.8411 121.703 77.0052 121.208 77.1283C120.712 77.2514 120.258 77.4565 119.722 77.4975C119.227 77.5386 118.732 77.5796 118.195 77.5796C117.7 77.5796 117.163 77.4565 116.668 77.4155C116.173 77.3745 115.678 77.2514 115.183 77.1283C114.687 77.0052 114.233 76.8001 113.78 76.636C113.326 76.4719 112.789 76.3488 112.335 76.1437C111.881 75.8975 111.51 75.5693 111.097 75.2822C110.685 74.995 110.231 74.7488 109.859 74.4206C109.488 74.0924 109.116 73.7232 108.786 73.354C108.456 72.9847 108.126 72.5745 107.837 72.1642C107.548 71.754 107.301 71.3027 107.053 70.8924C106.805 70.4411 106.599 69.9899 106.434 69.5386C106.269 69.0873 106.186 68.554 106.063 68.0616C105.939 67.5693 105.774 67.1181 105.732 66.5847C105.691 66.0924 105.732 65.6001 105.732 65.0668C105.732 64.5745 105.567 64.0411 105.65 63.5488C105.691 63.0565 105.898 62.5642 106.021 62.0719C106.145 61.5796 106.228 61.0873 106.434 60.636C106.599 60.1847 106.847 59.7334 107.094 59.2822C107.342 58.8309 107.548 58.3796 107.837 57.9693C108.126 57.5591 108.415 57.1488 108.745 56.7796C109.075 56.4104 109.529 56.1232 109.9 55.795C110.272 55.4668 110.685 55.1386 111.097 54.8514C111.51 54.5642 111.923 54.277 112.376 54.0309C112.83 53.7847 113.326 53.6616 113.78 53.4975C114.233 53.3334 114.729 53.1283 115.224 53.0052C115.719 52.8822 116.214 52.7591 116.709 52.7181C117.205 52.677 117.7 52.554 118.236 52.554C118.732 52.554 119.268 52.595 119.763 52.677C120.258 52.7181 120.754 52.8411 121.249 52.9642C121.744 53.0873 122.239 53.1693 122.693 53.3745C123.147 53.5386 123.56 53.8668 124.014 54.1129C124.468 54.3591 124.963 54.5232 125.376 54.7693C125.788 55.0565 126.201 55.3437 126.572 55.7129C126.944 56.0822 127.274 56.4514 127.604 56.8206C127.934 57.1899 128.306 57.5591 128.594 57.9693C128.883 58.3796 129.048 58.8719 129.296 59.3232C129.544 59.7745 129.709 60.2257 129.874 60.7181C130.039 61.1693 130.204 61.6616 130.328 62.154C130.451 62.6463 130.534 63.1386 130.575 63.6309C130.658 64.0822 130.864 64.6155 130.864 65.1078Z" fill="#F6F6F6"/>
<path d="M130.864 65.1078C130.864 65.6001 130.699 66.0924 130.658 66.5847C130.616 67.077 130.451 67.5693 130.328 68.0616C130.204 68.554 130.039 69.0052 129.874 69.4975C129.709 69.9488 129.544 70.4411 129.337 70.8924C129.09 71.3437 128.842 71.754 128.553 72.1642C128.264 72.5745 127.975 72.9847 127.645 73.354C127.315 73.7232 126.985 74.1334 126.614 74.4616C126.242 74.7899 125.829 75.1181 125.417 75.4052C125.004 75.6924 124.55 75.9386 124.096 76.1847C123.642 76.4309 123.147 76.5129 122.652 76.677C122.198 76.8411 121.703 77.0052 121.208 77.1283C120.712 77.2514 120.258 77.4565 119.722 77.4975C119.227 77.5386 118.732 77.5796 118.195 77.5796C117.7 77.5796 117.163 77.4565 116.668 77.4155C116.173 77.3745 115.678 77.2514 115.183 77.1283C114.687 77.0052 114.233 76.8001 113.78 76.636C113.326 76.4719 112.789 76.3488 112.335 76.1437C111.881 75.8975 111.51 75.5693 111.097 75.2822C110.685 74.995 110.231 74.7488 109.859 74.4206C109.488 74.0924 109.116 73.7232 108.786 73.354C108.456 72.9847 108.126 72.5745 107.837 72.1642C107.548 71.754 107.301 71.3027 107.053 70.8924C106.805 70.4411 106.599 69.9899 106.434 69.5386C106.269 69.0873 106.186 68.554 106.063 68.0616C105.939 67.5693 105.774 67.1181 105.732 66.5847C105.691 66.0924 105.732 65.6001 105.732 65.0668C105.732 64.5745 105.567 64.0411 105.65 63.5488C105.691 63.0565 105.898 62.5642 106.021 62.0719C106.145 61.5796 106.228 61.0873 106.434 60.636C106.599 60.1847 106.847 59.7334 107.094 59.2822C107.342 58.8309 107.548 58.3796 107.837 57.9693C108.126 57.5591 108.415 57.1488 108.745 56.7796C109.075 56.4104 109.529 56.1232 109.9 55.795C110.272 55.4668 110.685 55.1386 111.097 54.8514C111.51 54.5642 111.923 54.277 112.376 54.0309C112.83 53.7847 113.326 53.6616 113.78 53.4975C114.233 53.3334 114.729 53.1283 115.224 53.0052C115.719 52.8822 116.214 52.7591 116.709 52.7181C117.205 52.677 117.7 52.554 118.236 52.554C118.732 52.554 119.268 52.595 119.763 52.677C120.258 52.7181 120.754 52.8411 121.249 52.9642C121.744 53.0873 122.239 53.1693 122.693 53.3745C123.147 53.5386 123.56 53.8668 124.014 54.1129C124.468 54.3591 124.963 54.5232 125.376 54.7693C125.788 55.0565 126.201 55.3437 126.572 55.7129C126.944 56.0822 127.274 56.4514 127.604 56.8206C127.934 57.1899 128.306 57.5591 128.594 57.9693C128.883 58.3796 129.048 58.8719 129.296 59.3232C129.544 59.7745 129.709 60.2258 129.874 60.7181C130.039 61.1693 130.204 61.6616 130.328 62.154C130.451 62.6463 130.534 63.1386 130.575 63.6309C130.658 64.0822 130.864 64.6155 130.864 65.1078Z" stroke="#59D095" stroke-width="0.825339" stroke-miterlimit="10" stroke-linecap="round"/>
<path d="M118.195 58.2976C118.195 59.0361 118.236 59.0361 118.236 59.8156C118.236 60.554 118.154 60.554 118.154 61.3335C118.154 62.113 118.278 62.072 118.278 62.8515C118.278 63.5899 118.278 63.5899 118.278 64.3694C118.278 65.1079 118.195 65.1079 118.195 65.8874C118.195 66.6258 118.195 66.6258 118.195 67.4053C118.195 68.1438 118.236 68.1438 118.236 68.9232C118.236 69.6617 118.319 69.6617 118.319 70.4412C118.319 71.2207 118.195 71.1797 118.195 71.9591" stroke="#59D095" stroke-width="0.825339" stroke-miterlimit="10" stroke-linecap="round"/>
<path d="M125.128 65.1492C124.385 65.1492 124.385 65.0667 123.601 65.0667C122.858 65.0667 122.858 65.1904 122.074 65.1904C121.332 65.1904 121.332 65.1492 120.548 65.1492C119.805 65.1492 119.805 65.1904 119.021 65.1904C118.278 65.1904 118.278 65.1492 117.494 65.1492C116.751 65.1492 116.751 65.1492 115.967 65.1492C115.224 65.1492 115.224 65.2317 114.44 65.2317C113.697 65.2317 113.697 65.0667 112.913 65.0667C112.17 65.0667 112.17 65.0667 111.386 65.0667" stroke="#59D095" stroke-width="0.825339" stroke-miterlimit="10" stroke-linecap="round"/>
<path d="M21.3415 68.9231C21.3415 69.4154 21.1765 69.8667 21.0939 70.318C21.0114 70.7693 20.9289 71.2616 20.7638 71.6718C20.5987 72.1231 20.3924 72.5334 20.186 72.9436C19.9384 73.3539 19.7321 73.7641 19.402 74.1334C19.1131 74.5026 18.7417 74.8308 18.3703 75.118C17.9989 75.4052 17.5862 75.6513 17.1736 75.8975C16.7609 76.1436 16.307 76.3077 15.8943 76.4718C15.4403 76.6359 14.9864 76.759 14.5325 76.8411C14.0785 76.9231 13.6246 77.0052 13.1294 77.0052C12.6342 77.0052 12.1803 77.0052 11.7263 76.9231C11.2724 76.8411 10.8184 76.677 10.3645 76.5129C9.91057 76.3488 9.4979 76.1436 9.08523 75.9385C8.67256 75.6923 8.21863 75.5282 7.84722 75.2C7.47582 74.9129 7.26949 74.4616 6.93935 74.0923C6.65048 73.7231 6.32034 73.3949 6.07274 72.9846C5.82514 72.5744 5.61881 72.1641 5.45374 71.7129C5.28867 71.2616 5.16487 70.8103 5.08234 70.359C4.9998 69.9077 5.08234 69.4154 5.08234 68.9641C5.08234 68.4718 5.04107 68.0205 5.1236 67.5693C5.20614 67.118 5.32994 66.6257 5.45374 66.2154C5.61881 65.7641 5.82514 65.3539 6.07274 64.9436C6.32034 64.5334 6.52668 64.0821 6.81555 63.7539C7.10442 63.3846 7.51709 63.1385 7.88849 62.8103C8.25989 62.5231 8.59003 62.1539 9.0027 61.9077C9.41537 61.6616 9.91057 61.5795 10.3645 61.4154C10.8184 61.2513 11.2724 61.1693 11.7263 61.0872C12.1803 61.0052 12.6342 60.8411 13.1294 60.8411C13.6246 60.8411 14.0785 61.0462 14.5325 61.1282C14.9864 61.2103 15.5229 61.1693 15.9355 61.3334C16.3895 61.4975 16.8022 61.7436 17.2148 61.9488C17.6275 62.1949 17.9989 62.5231 18.329 62.8103C18.7004 63.0975 18.9893 63.4667 19.2782 63.8359C19.567 64.2052 19.8972 64.5334 20.1448 64.9436C20.3924 65.3539 20.64 65.7641 20.805 66.2154C20.9701 66.6667 21.0527 67.118 21.1352 67.6103C21.1765 67.9795 21.3415 68.4308 21.3415 68.9231Z" fill="#DDEEFF"/>
<path d="M18.7419 59.118C19.4022 61.2513 21.0941 62.8923 23.1987 63.5487C23.5289 63.6718 23.5289 64.1231 23.1987 64.2462C21.0529 64.9026 19.4022 66.5846 18.7419 68.677C18.6181 69.0052 18.1642 69.0052 18.0404 68.677C17.3801 66.5436 15.6882 64.9026 13.5835 64.2462C13.2534 64.1231 13.2534 63.6718 13.5835 63.5487C15.7294 62.8923 17.3801 61.2103 18.0404 59.118C18.1642 58.7898 18.6181 58.7898 18.7419 59.118Z" fill="#FFB569"/>
<path d="M34.8358 31.0154C35.4961 33.1488 37.188 34.7898 39.2926 35.4462C39.6228 35.5693 39.6228 36.0206 39.2926 36.1436C37.1467 36.8001 35.4961 38.4821 34.8358 40.5744C34.712 40.9026 34.258 40.9026 34.1342 40.5744C33.474 38.4821 31.8233 36.8001 29.6774 36.1436C29.3473 36.0206 29.3473 35.5693 29.6774 35.4462C31.8233 34.7898 33.474 33.1077 34.1342 31.0154C34.258 30.6872 34.7533 30.6872 34.8358 31.0154Z" fill="#FFB569"/>
<path d="M38.4261 48.5334C40.9434 51.7334 43.0893 55.1796 44.8638 58.8309" stroke="#313942" stroke-width="0.825339" stroke-miterlimit="10" stroke-linecap="round"/>
<path d="M123.312 37.9486C125.128 36.4717 126.944 34.9947 128.76 33.5178" stroke="#FFC7C7" stroke-width="0.825339" stroke-miterlimit="10" stroke-linecap="round"/>
<path d="M113.449 25.7231C113.367 28.3488 113.284 30.9744 113.202 33.559" stroke="#FFC7C7" stroke-width="0.825339" stroke-miterlimit="10" stroke-linecap="round"/>
<path d="M106.269 29.9487C107.177 31.4257 108.085 32.9026 108.993 34.3795" stroke="#FFC7C7" stroke-width="0.825339" stroke-miterlimit="10" stroke-linecap="round"/>
</g>
<defs>
<clipPath id="clip0">
<rect width="126.277" height="80" fill="white" transform="translate(5 8)"/>
</clipPath>
</defs>
</svg>
