<svg width="136" height="96" viewBox="0 0 136 96" fill="none" xmlns="http://www.w3.org/2000/svg">
<g clip-path="url(#clip0)">
<path fill-rule="evenodd" clip-rule="evenodd" d="M52.4755 44.7362C53.3886 44.7362 53.3886 44.701 54.3012 44.701C55.2144 44.701 55.2144 44.5601 56.127 44.5601C57.0401 44.5601 57.0401 44.6275 57.9533 44.6275C58.8669 44.6275 58.8669 44.6879 59.78 44.6879C60.6932 44.6879 60.6932 44.7619 61.6058 44.7619C62.5194 44.7619 62.5195 44.7593 63.4326 44.7593C64.3462 44.7593 64.3462 44.5687 65.2599 44.5687C66.173 44.5687 66.173 44.5254 67.0856 44.5254C67.9993 44.5254 67.9993 44.539 68.9129 44.539C69.826 44.539 69.8261 44.6517 70.7397 44.6517C71.6533 44.6517 71.6533 44.6753 72.567 44.6753C73.4801 44.6753 73.4801 44.6557 74.3932 44.6557C75.3074 44.6557 75.3074 44.6653 76.221 44.6653C77.1347 44.6653 77.1347 44.6476 78.0478 44.6476C78.9614 44.6476 78.9614 44.6829 79.8751 44.6829C80.7872 44.6829 80.7872 44.5455 81.6998 44.5455C82.613 44.5455 82.613 44.5264 83.5271 44.5264C84.4398 44.5264 84.4398 44.5339 85.3529 44.5339C86.2665 44.5339 86.2665 44.7548 87.1807 44.7548C88.0938 44.7548 88.0938 44.6602 89.007 44.6602C89.9211 44.6602 89.9211 44.5299 90.8347 44.5299C91.7489 44.5299 91.7489 44.5556 92.663 44.5556C93.5772 44.5556 93.5772 44.6904 94.4918 44.6904C95.4055 44.6904 95.4055 44.6235 96.3196 44.6235C97.2337 44.6235 97.2337 44.5858 98.1474 44.5858C99.062 44.5858 99.062 44.7392 99.9757 44.7392C100.89 44.7392 100.89 44.6939 101.804 44.6939C102.72 44.6939 102.72 44.7417 103.636 44.7417C104.552 44.7417 104.552 44.7055 105.468 44.7055C106.168 44.7055 106.612 45.278 106.463 45.9628C106.271 46.8502 106.244 46.8447 106.051 47.7327C105.858 48.6202 106.068 48.6659 105.876 49.5534C105.683 50.4414 105.547 50.4117 105.354 51.2997C105.162 52.1877 105.294 52.2164 105.102 53.1038C104.91 53.9918 104.884 53.9868 104.692 54.8743C104.499 55.7623 104.359 55.7316 104.166 56.6195C103.973 57.508 103.958 57.5045 103.766 58.3925C103.573 59.2795 103.766 59.3212 103.573 60.2082C103.381 61.0962 103.345 61.0886 103.153 61.9766C102.961 62.8631 102.899 62.85 102.707 63.737C102.514 64.625 102.547 64.632 102.355 65.5205C102.162 66.4075 102.123 66.3994 101.931 67.2864C101.738 68.1749 101.671 68.1608 101.478 69.0488C101.286 69.9367 101.433 69.9684 101.24 70.8564C101.047 71.7449 100.883 71.7087 100.69 72.5972C100.497 73.4857 100.671 73.5234 100.479 74.4119C100.286 75.3009 100.241 75.2908 100.048 76.1793C99.8554 77.0673 99.7291 77.0396 99.5365 77.9276C99.3438 78.8156 99.3488 78.8166 99.1556 79.7055C98.9629 80.594 99.0801 80.6197 98.8875 81.5082C98.6943 82.3972 98.655 82.3886 98.4618 83.2771C98.2686 84.1681 98.255 84.1651 98.0614 85.0556C97.8687 85.9456 97.7575 85.9214 97.5643 86.8119C97.4546 87.317 97.12 87.6446 96.6033 87.6446C95.6902 87.6446 95.6902 87.5993 94.7771 87.5993C93.8649 87.5993 93.8649 87.6918 92.9518 87.6918C92.0387 87.6918 92.0387 87.632 91.1255 87.632C90.2119 87.632 90.2119 87.6098 89.2983 87.6098C88.3856 87.6098 88.3856 87.8 87.4725 87.8C86.5593 87.8 86.5593 87.7341 85.6462 87.7341C84.7326 87.7341 84.7326 87.639 83.8194 87.639C82.9058 87.639 82.9058 87.7673 81.9932 87.7673C81.079 87.7673 81.079 87.7386 80.1659 87.7386C79.2527 87.7386 79.2527 87.6461 78.3391 87.6461C77.4255 87.6461 77.4255 87.802 76.5118 87.802C75.5987 87.802 75.5987 87.7915 74.685 87.7915C73.7714 87.7915 73.7714 87.6541 72.8578 87.6541C71.9441 87.6541 71.9441 87.6179 71.031 87.6179C70.1168 87.6179 70.1168 87.5812 69.2037 87.5812C68.2916 87.5812 68.2916 87.6164 67.3789 87.6164C66.4653 87.6164 66.4653 87.5776 65.5517 87.5776C64.639 87.5776 64.639 87.6124 63.7259 87.6124C62.8118 87.6124 62.8118 87.7844 61.8981 87.7844C60.985 87.7844 60.985 87.6134 60.0713 87.6134C59.1577 87.6134 59.1577 87.6043 58.2441 87.6043C57.3294 87.6043 57.3294 87.6486 56.4158 87.6486C55.5016 87.6486 55.5016 87.5998 54.5875 87.5998C53.6728 87.5998 53.6728 87.711 52.7587 87.711C51.8451 87.711 51.8451 87.639 50.9309 87.639C50.0168 87.639 50.0168 87.7673 49.1026 87.7673C48.1885 87.7673 48.1885 87.6722 47.2743 87.6722C46.3587 87.6722 46.3587 87.5776 45.4425 87.5776C44.5274 87.5776 44.5274 87.7024 43.6112 87.7024C42.9109 87.7024 42.5109 87.0816 42.6599 86.3969C42.8525 85.5089 42.6573 85.4666 42.85 84.5786C43.0427 83.6912 43.2269 83.7314 43.4195 82.8434C43.6122 81.9559 43.4779 81.9268 43.6706 81.0383C43.8633 80.1508 43.901 80.1588 44.0932 79.2714C44.2864 78.3834 44.3161 78.3899 44.5088 77.5019C44.7015 76.614 44.7025 76.614 44.8952 75.7265C45.0878 74.8385 45.0788 74.8365 45.2715 73.948C45.4637 73.0615 45.4637 73.0615 45.6564 72.1746C45.849 71.2861 45.8858 71.2946 46.0785 70.4066C46.2712 69.5197 46.2163 69.5076 46.4085 68.6211C46.6012 67.7326 46.653 67.7437 46.8457 66.8562C47.0384 65.9688 47.0731 65.9763 47.2658 65.0888C47.458 64.2003 47.3468 64.1762 47.5395 63.2877C47.7322 62.3997 47.7141 62.3962 47.9067 61.5082C48.0994 60.6197 48.2307 60.6489 48.4234 59.7604C48.6166 58.8719 48.5905 58.8664 48.7832 57.9774C48.9758 57.0889 48.919 57.0764 49.1117 56.1879C49.3044 55.3004 49.3944 55.32 49.5871 54.432C49.7798 53.5441 49.7431 53.5355 49.9358 52.6475C50.1285 51.7585 49.9906 51.7284 50.1828 50.8399C50.376 49.9509 50.3493 49.9453 50.542 49.0564C50.7357 48.1654 50.8383 48.188 51.0315 47.298C51.2247 46.4075 51.186 46.3995 51.3792 45.5085C51.4889 45.0033 51.9588 44.7362 52.4755 44.7362Z" fill="#FFF6EC"/>
<path fill-rule="evenodd" clip-rule="evenodd" d="M52.4755 44.7362C53.3886 44.7362 53.3886 44.701 54.3012 44.701C55.2144 44.701 55.2144 44.5601 56.127 44.5601C57.0401 44.5601 57.0401 44.6275 57.9533 44.6275C58.8669 44.6275 58.8669 44.6879 59.78 44.6879C60.6932 44.6879 60.6932 44.7619 61.6058 44.7619C62.5194 44.7619 62.5195 44.7593 63.4326 44.7593C64.3462 44.7593 64.3462 44.5687 65.2599 44.5687C66.173 44.5687 66.173 44.5254 67.0856 44.5254C67.9993 44.5254 67.9993 44.539 68.9129 44.539C69.8261 44.539 69.8261 44.6517 70.7397 44.6517C71.6533 44.6517 71.6533 44.6753 72.567 44.6753C73.4801 44.6753 73.4801 44.6557 74.3932 44.6557C75.3074 44.6557 75.3074 44.6653 76.221 44.6653C77.1347 44.6653 77.1347 44.6476 78.0478 44.6476C78.9614 44.6476 78.9614 44.6829 79.8751 44.6829C80.7872 44.6829 80.7872 44.5455 81.6998 44.5455C82.613 44.5455 82.613 44.5264 83.5271 44.5264C84.4398 44.5264 84.4398 44.5339 85.3529 44.5339C86.2665 44.5339 86.2665 44.7548 87.1807 44.7548C88.0938 44.7548 88.0938 44.6602 89.007 44.6602C89.9211 44.6602 89.9211 44.5299 90.8347 44.5299C91.7489 44.5299 91.7489 44.5556 92.663 44.5556C93.5772 44.5556 93.5772 44.6904 94.4918 44.6904C95.4055 44.6904 95.4055 44.6235 96.3196 44.6235C97.2337 44.6235 97.2337 44.5858 98.1474 44.5858C99.062 44.5858 99.062 44.7392 99.9757 44.7392C100.89 44.7392 100.89 44.6939 101.804 44.6939C102.72 44.6939 102.72 44.7417 103.636 44.7417C104.552 44.7417 104.552 44.7055 105.468 44.7055C106.168 44.7055 106.612 45.278 106.463 45.9628C106.271 46.8502 106.244 46.8447 106.051 47.7327C105.858 48.6202 106.068 48.6659 105.876 49.5534C105.683 50.4414 105.547 50.4117 105.354 51.2997C105.162 52.1877 105.294 52.2164 105.102 53.1038C104.91 53.9918 104.884 53.9868 104.692 54.8743C104.499 55.7623 104.359 55.7316 104.166 56.6195C103.973 57.508 103.958 57.5045 103.766 58.3925C103.573 59.2795 103.766 59.3212 103.573 60.2082C103.381 61.0962 103.345 61.0886 103.153 61.9766C102.961 62.8631 102.899 62.85 102.707 63.737C102.514 64.625 102.547 64.632 102.355 65.5205C102.162 66.4075 102.123 66.3994 101.931 67.2864C101.738 68.1749 101.671 68.1608 101.478 69.0488C101.286 69.9367 101.433 69.9684 101.24 70.8564C101.047 71.7449 100.883 71.7087 100.69 72.5972C100.497 73.4857 100.671 73.5234 100.479 74.4119C100.286 75.3009 100.241 75.2908 100.048 76.1793C99.8554 77.0673 99.7291 77.0396 99.5365 77.9276C99.3438 78.8156 99.3488 78.8166 99.1556 79.7055C98.9629 80.594 99.0801 80.6197 98.8874 81.5082C98.6943 82.3972 98.655 82.3886 98.4618 83.2771C98.2686 84.1681 98.255 84.1651 98.0614 85.0556C97.8687 85.9456 97.7575 85.9214 97.5643 86.8119C97.4546 87.317 97.12 87.6446 96.6033 87.6446C95.6902 87.6446 95.6902 87.5993 94.7771 87.5993C93.8649 87.5993 93.8649 87.6918 92.9518 87.6918C92.0387 87.6918 92.0387 87.632 91.1255 87.632C90.2119 87.632 90.2119 87.6098 89.2983 87.6098C88.3856 87.6098 88.3856 87.8 87.4725 87.8C86.5593 87.8 86.5593 87.7341 85.6462 87.7341C84.7326 87.7341 84.7326 87.639 83.8194 87.639C82.9058 87.639 82.9058 87.7673 81.9932 87.7673C81.079 87.7673 81.079 87.7386 80.1659 87.7386C79.2527 87.7386 79.2527 87.6461 78.3391 87.6461C77.4255 87.6461 77.4255 87.802 76.5118 87.802C75.5987 87.802 75.5987 87.7915 74.685 87.7915C73.7714 87.7915 73.7714 87.6541 72.8578 87.6541C71.9441 87.6541 71.9441 87.6179 71.031 87.6179C70.1168 87.6179 70.1168 87.5812 69.2037 87.5812C68.2916 87.5812 68.2916 87.6164 67.3789 87.6164C66.4653 87.6164 66.4653 87.5776 65.5517 87.5776C64.639 87.5776 64.639 87.6124 63.7259 87.6124C62.8118 87.6124 62.8118 87.7844 61.8981 87.7844C60.985 87.7844 60.985 87.6134 60.0713 87.6134C59.1577 87.6134 59.1577 87.6043 58.2441 87.6043C57.3294 87.6043 57.3294 87.6486 56.4158 87.6486C55.5016 87.6486 55.5016 87.5998 54.5875 87.5998C53.6728 87.5998 53.6728 87.711 52.7587 87.711C51.8451 87.711 51.8451 87.639 50.9309 87.639C50.0168 87.639 50.0168 87.7673 49.1026 87.7673C48.1885 87.7673 48.1885 87.6722 47.2743 87.6722C46.3587 87.6722 46.3587 87.5776 45.4425 87.5776C44.5274 87.5776 44.5274 87.7024 43.6112 87.7024C42.9109 87.7024 42.5109 87.0816 42.6599 86.3969C42.8525 85.5089 42.6573 85.4666 42.85 84.5786C43.0427 83.6911 43.2269 83.7314 43.4195 82.8434C43.6122 81.9559 43.4779 81.9268 43.6706 81.0383C43.8633 80.1508 43.901 80.1588 44.0932 79.2714C44.2864 78.3834 44.3161 78.3899 44.5088 77.5019C44.7015 76.614 44.7025 76.614 44.8952 75.7265C45.0878 74.8385 45.0788 74.8365 45.2715 73.948C45.4637 73.0615 45.4637 73.0615 45.6564 72.1746C45.849 71.2861 45.8858 71.2946 46.0785 70.4066C46.2712 69.5197 46.2163 69.5076 46.4085 68.6211C46.6012 67.7326 46.653 67.7437 46.8457 66.8562C47.0384 65.9688 47.0731 65.9763 47.2658 65.0888C47.458 64.2003 47.3468 64.1762 47.5395 63.2877C47.7322 62.3997 47.7141 62.3962 47.9067 61.5082C48.0994 60.6197 48.2307 60.6489 48.4234 59.7604C48.6166 58.8719 48.5905 58.8664 48.7832 57.9774C48.9758 57.0889 48.919 57.0764 49.1117 56.1879C49.3044 55.3004 49.3944 55.32 49.5871 54.432C49.7798 53.5441 49.7431 53.5355 49.9358 52.6475C50.1285 51.7585 49.9906 51.7284 50.1828 50.8399C50.376 49.9509 50.3493 49.9453 50.542 49.0564C50.7357 48.1654 50.8383 48.188 51.0315 47.298C51.2247 46.4075 51.186 46.3995 51.3792 45.5085C51.4889 45.0033 51.9588 44.7362 52.4755 44.7362Z" stroke="#414C58" stroke-width="1.01115" stroke-linecap="round"/>
<path fill-rule="evenodd" clip-rule="evenodd" d="M97.2578 44.6477L105.272 51.5247L106.421 45.3128C106.485 44.9672 106.22 44.6477 105.868 44.6477H97.2578Z" fill="#414C58"/>
<path fill-rule="evenodd" clip-rule="evenodd" d="M93.1542 50.5337C93.0506 50.2872 92.7699 50.1655 92.5188 50.2565C91.906 50.4804 89.3518 51.4328 86.6506 52.7786C83.1057 54.135 79.2283 55.2876 77.6747 54.6743C77.3341 54.54 77.2304 54.3563 77.1816 54.2306C76.4124 52.2342 80.9861 47.4552 84.7408 44.2575C85.4019 43.7267 85.8698 43.3328 86.0609 43.1703C86.2702 42.9932 86.2984 42.6803 86.1243 42.468C85.9498 42.2556 85.6378 42.2224 85.423 42.393C85.2348 42.5419 84.7956 42.8946 84.2055 43.3952C80.8739 46.0677 74.6289 50.5805 72.0806 50.2309C69.8021 49.9174 69.2044 40.209 69.5068 33.4131C69.5073 33.4121 69.5073 33.4116 69.5073 33.411V33.41C69.5193 33.1328 69.305 32.8974 69.0273 32.8852C68.7596 32.8788 68.5146 33.087 68.5021 33.3648V33.3653V33.3683C68.1393 41.2439 66.8972 49.7137 65.4442 50.2585C63.8976 50.8376 59.1443 44.7898 56.269 40.3066C56.1206 40.0762 55.8152 40.0063 55.5818 40.1496C55.3484 40.2935 55.2729 40.5974 55.4118 40.8339C57.1419 43.7735 61.4088 52.0501 60.3875 54.9958C60.2401 55.4214 59.986 55.6996 59.6107 55.846C55.5999 57.4077 50.9346 54.0424 50.8873 54.0077C50.6871 53.8608 50.4084 53.8824 50.2333 54.0595C50.0577 54.2361 50.0376 54.5143 50.1865 54.7146L63.5651 72.6714C63.6622 72.8022 63.8131 72.8736 63.9686 72.8736C64.0355 72.8736 64.1034 72.8606 64.1683 72.8324L85.2479 63.7076C85.4467 63.6215 85.5679 63.4173 85.5493 63.2019C85.5302 62.9856 85.3752 62.8065 85.1639 62.7562C84.0364 62.4885 80.9796 61.4225 80.3824 59.7265C79.7832 58.0265 83.1153 55.6911 86.9761 53.7456C89.869 52.6372 92.3583 51.4494 92.9102 51.1822C93.1512 51.066 93.2589 50.7803 93.1542 50.5337Z" fill="#FF6A69"/>
<path fill-rule="evenodd" clip-rule="evenodd" d="M26.1258 81.5832C25.2786 81.3316 25.2867 81.304 24.4394 81.0519C23.5912 80.7999 23.562 80.899 22.7138 80.6469C21.8661 80.3949 21.8691 80.3838 21.0213 80.1317C20.1726 79.8797 20.1716 79.8847 19.3229 79.6327C18.4746 79.3806 18.4932 79.3182 17.645 79.0667C16.7968 78.8146 16.7636 78.9258 15.9148 78.6737C15.0661 78.4217 15.0711 78.4046 14.2224 78.152C13.3736 77.9 13.347 77.989 12.4982 77.737C11.6505 77.4849 11.6807 77.3823 10.8329 77.1302C9.9842 76.8782 9.94899 76.9964 9.10025 76.7443C8.25101 76.4923 8.28019 76.3942 7.43145 76.1421C6.5822 75.8895 6.5817 75.8916 5.73246 75.6395C4.88171 75.3869 4.89278 75.3497 4.04202 75.0972C3.19177 74.8441 3.18272 74.8738 2.33247 74.6212C2.11333 74.5563 2.0774 74.341 2.1423 74.1226C2.39385 73.2759 2.34153 73.2603 2.59308 72.4141C2.84413 71.5684 2.90098 71.585 3.15203 70.7388C3.40358 69.8925 3.30648 69.8633 3.55804 69.0161C3.80909 68.1704 3.80556 68.1694 4.05712 67.3232C4.30867 66.4764 4.362 66.4925 4.61355 65.6453C4.8651 64.7986 4.72021 64.7558 4.97227 63.9086C5.22382 63.0619 5.35161 63.0996 5.60316 62.2524C5.85471 61.4061 5.83912 61.4021 6.09067 60.5559C6.34222 59.7087 6.43328 59.7363 6.68484 58.8896C6.93689 58.0424 6.7764 57.9941 7.02796 57.1474C7.27951 56.3001 7.4073 56.3379 7.65885 55.4906C7.91091 54.6419 7.72325 54.586 7.9753 53.7373C8.22736 52.8891 8.43464 52.9504 8.68669 52.1012C8.7516 51.8829 8.92366 51.6358 9.14251 51.7007C9.98974 51.9523 9.93037 52.1525 10.7776 52.4041C11.6258 52.6561 11.6439 52.5948 12.4922 52.8468C13.3399 53.0989 13.3862 52.9434 14.2339 53.1955C15.0827 53.4475 15.0822 53.449 15.9304 53.7011C16.7786 53.9531 16.7464 54.0613 17.5947 54.3134C18.4429 54.5654 18.4771 54.4512 19.3254 54.7033C20.1746 54.9553 20.1193 55.1415 20.968 55.394C21.8167 55.6461 21.8057 55.6843 22.6544 55.9364C23.5022 56.1884 23.5615 55.9882 24.4098 56.2398C25.2585 56.4923 25.2283 56.5944 26.077 56.8465C26.9258 57.0986 26.962 56.9768 27.8113 57.2294C28.6605 57.4814 28.6122 57.6429 29.4614 57.895C30.3117 58.148 30.3288 58.0912 31.1795 58.3437C32.0298 58.5963 32.0605 58.4927 32.9112 58.7457C33.1296 58.8106 33.2242 59.1537 33.1593 59.3731C32.9077 60.2188 32.958 60.2339 32.7065 61.0806C32.4554 61.9264 32.4398 61.9218 32.1883 62.7681C31.9367 63.6143 31.7823 63.5685 31.5307 64.4152C31.2792 65.2619 31.3727 65.2891 31.1217 66.1358C30.8701 66.9826 30.8661 66.9811 30.6146 67.8278C30.3625 68.6745 30.4837 68.7102 30.2317 69.5575C29.9801 70.4042 29.9726 70.4022 29.721 71.2494C29.4695 72.0956 29.3553 72.0614 29.1037 72.9076C28.8522 73.7539 28.7802 73.7327 28.5287 74.58C28.2766 75.4272 28.3375 75.4448 28.0859 76.292C27.8339 77.1393 27.7987 77.1287 27.5466 77.9759C27.2946 78.8252 27.4696 78.877 27.2176 79.7257C26.9655 80.574 26.8076 80.5272 26.5555 81.3759C26.4906 81.5948 26.3447 81.6486 26.1258 81.5832Z" stroke="#4F86BF" stroke-width="1.01115"/>
<path d="M8.38477 76.401C8.70072 75.8571 9.08459 75.437 9.57411 75.0838C10.0556 74.7357 10.527 74.3151 11.1126 74.1008C11.6736 73.8955 12.2833 73.7456 12.883 73.6158C13.4837 73.486 14.0945 73.3834 14.6796 73.2847C15.2949 73.1806 15.9077 73.0588 16.5235 72.926C17.1368 72.7932 17.7928 72.8259 18.3961 72.6549C19.0018 72.4833 19.6106 72.2956 20.1957 72.0748C20.7853 71.8529 21.3 71.4555 21.8579 71.1737C22.4194 70.8905 22.9361 70.5494 23.4538 70.1957C23.97 69.8435 24.4982 69.514 24.9596 69.0813C25.3993 68.6687 25.755 68.1646 26.1635 67.6988C26.567 67.2399 27.0032 66.8042 27.4047 66.3449C27.8137 65.8775 28.2896 65.4821 28.7268 65.069C29.1796 64.6404 29.6043 64.1851 30.1214 63.8742C30.6401 63.5617 31.2383 63.4294 31.8557 63.2981" stroke="#4F86BF" stroke-width="1.01115"/>
<path fill-rule="evenodd" clip-rule="evenodd" d="M24.1953 76.475C23.348 76.2235 23.2791 76.4554 22.4319 76.2039C21.5836 75.9518 21.648 75.7345 20.7998 75.4829C19.9516 75.2309 19.946 75.2515 19.0978 74.9994C18.2496 74.7474 18.2103 74.8787 17.3616 74.6266C16.5138 74.3746 16.4932 74.4445 15.645 74.1924C14.7962 73.9404 14.8606 73.7241 14.0124 73.472C13.1632 73.2194 13.1496 73.2662 12.3008 73.0142C11.4516 72.7621 11.4038 72.9241 10.5551 72.6716C9.70682 72.42 9.73299 72.333 8.88475 72.0809C8.03601 71.8289 8.04456 71.7997 7.19582 71.5476C6.34708 71.2956 6.32545 71.367 5.47671 71.115C4.62747 70.8624 4.66269 70.7432 3.81395 70.4911C2.9632 70.2385 2.95615 70.2617 2.1059 70.0086C1.25515 69.7561 1.22295 69.8647 0.372202 69.6122C0.153854 69.5468 0.0537357 69.2379 0.118636 69.0195C0.370189 68.1728 0.462761 68.2005 0.71381 67.3537C0.965363 66.508 0.912034 66.4919 1.16359 65.6467C1.41514 64.7995 1.4891 64.8216 1.74065 63.9749C1.9922 63.1287 1.95095 63.1166 2.2025 62.2704C2.45405 61.4236 2.39066 61.405 2.64221 60.5578C2.89377 59.7111 2.94056 59.7251 3.19261 58.8779C3.44416 58.0312 3.2716 57.9799 3.52366 57.1331C3.7747 56.2869 3.98651 56.3498 4.23756 55.5036C4.48912 54.6569 4.42371 54.6372 4.67526 53.79C4.92682 52.9433 4.9726 52.9569 5.22415 52.1096C5.47571 51.2624 5.28 51.204 5.53205 50.3568C5.78411 49.5081 6.02057 49.5785 6.27262 48.7298C6.52468 47.881 6.42154 47.8503 6.6736 47.0016C6.7385 46.7828 6.97697 46.5825 7.19582 46.6474C8.04305 46.899 7.99878 47.0474 8.84601 47.2989L10.5425 47.8031C11.3902 48.0551 11.4451 47.871 12.2933 48.1225C13.1415 48.3741 13.1144 48.4667 13.9631 48.7187C14.8108 48.9708 14.8254 48.922 15.6737 49.174C16.5219 49.4261 16.5169 49.4427 17.3656 49.6947C18.2143 49.9463 18.2234 49.9171 19.0721 50.1692C19.9209 50.4217 19.8912 50.5208 20.7404 50.7734C21.5882 51.0254 21.6133 50.9399 22.4611 51.192C23.3103 51.444 23.3098 51.4445 24.159 51.6966C25.0078 51.9486 24.9625 52.1006 25.8117 52.3526C26.661 52.6052 26.6922 52.4995 27.5414 52.7516C28.3917 53.0047 28.4148 52.9277 29.2651 53.1807C30.1158 53.4333 30.0891 53.5229 30.9394 53.7759C31.1582 53.8408 31.1985 54.0506 31.1336 54.269C30.882 55.1157 31.0028 55.1514 30.7512 55.9976C30.4997 56.8434 30.3694 56.8046 30.1183 57.6508C29.8668 58.4976 30.0348 58.5474 29.7833 59.3946C29.5317 60.2403 29.5176 60.2363 29.2661 61.0825C29.0145 61.9293 28.9285 61.9036 28.6769 62.7503C28.4254 63.597 28.5215 63.6257 28.2694 64.473C28.0179 65.3197 27.9741 65.3066 27.7225 66.1533C27.4715 66.9996 27.3764 66.9714 27.1253 67.8176C26.8733 68.6648 26.8647 68.6623 26.6132 69.5085C26.3611 70.3563 26.4929 70.395 26.2414 71.2422C25.9893 72.0895 25.9063 72.0643 25.6543 72.912C25.4022 73.7603 25.3579 73.7477 25.1059 74.5964C24.8538 75.4447 25.0128 75.4925 24.7608 76.3407C24.6959 76.5596 24.4141 76.5399 24.1953 76.475Z" fill="#C7E2FF"/>
<path fill-rule="evenodd" clip-rule="evenodd" d="M16.5543 72.8126C15.6421 72.5223 15.5858 72.6989 14.6731 72.4086C13.7605 72.1178 13.7907 72.0233 12.8781 71.7325C11.9639 71.4412 12.0017 71.3239 11.0875 71.0331C10.1734 70.7423 10.1537 70.8047 9.2396 70.5134C9.07609 70.4611 8.92918 70.3031 9.00616 70.1497C9.43782 69.2869 9.52285 69.3296 9.95502 68.4668C10.3872 67.604 10.3595 67.5904 10.7917 66.7276C10.8521 66.6068 10.9975 66.4991 11.1273 66.5374C12.1259 66.8317 12.0892 66.9575 13.0879 67.2518C14.088 67.5466 14.1333 67.3932 15.134 67.6875C16.1342 67.9823 16.1407 67.9607 17.1409 68.2555C17.2702 68.2942 17.3275 68.5126 17.3134 68.6469C17.2083 69.6491 17.0941 69.6365 16.9889 70.6392C16.8838 71.6414 16.9899 71.6525 16.8843 72.6546C16.8662 72.8307 16.7228 72.866 16.5543 72.8126Z" fill="#69B3FF"/>
<path fill-rule="evenodd" clip-rule="evenodd" d="M10.0654 69.1864C10.7989 69.0073 10.814 69.0692 11.547 68.8901C12.2816 68.7109 12.2876 68.7346 13.0221 68.555C13.7567 68.3759 13.7069 68.1716 14.4414 67.9925C14.7086 67.9276 14.7362 67.6595 14.4726 67.582C13.6299 67.3339 13.6586 67.2384 12.8154 66.9908C11.9727 66.7438 11.9535 66.8082 11.1108 66.5607C10.9861 66.5245 10.9408 66.6467 10.8829 66.7634C10.3657 67.7953 10.1892 67.7073 9.67197 68.7396C9.56984 68.9449 9.84302 69.2402 10.0654 69.1864Z" fill="#4F86BF"/>
<path fill-rule="evenodd" clip-rule="evenodd" d="M9.04372 69.9458C8.40679 69.8753 7.7769 70.0524 7.18575 70.0484C6.5302 70.0444 5.90484 69.9106 5.33281 69.9609C4.64305 70.0217 4.03581 70.2094 3.51308 70.305C2.40021 70.5067 2.16979 69.894 1.73913 70.709C1.29438 71.5507 1.90314 71.3791 2.69855 72.3235C3.03714 72.7249 3.54025 73.1148 4.11982 73.5893C4.55753 73.9475 5.07422 74.2991 5.67845 74.6699C6.17451 74.9738 6.659 75.412 7.28335 75.7089C7.81765 75.9629 8.43999 76.1274 9.07743 76.3669C9.63839 76.5772 10.2321 76.8051 10.879 76.9973C11.4511 77.1674 12.0176 77.2413 12.5453 77.3611C13.131 77.4944 13.6768 77.6483 14.2086 77.7278C14.8068 77.8174 15.3632 78.0005 15.894 78.0327C16.5058 78.0699 17.0849 78.0614 17.6091 78.0392C18.2345 78.0121 18.7929 77.8395 19.295 77.7545C19.9475 77.6453 20.4909 77.4818 20.9402 77.3314C21.972 76.9847 22.5979 77.4853 22.5894 76.6351C22.5798 75.6706 21.9086 76.1752 20.992 75.4155C20.5658 75.0634 20.1302 74.5648 19.5395 74.1462C19.0525 73.8006 18.4442 73.552 17.8576 73.1999C17.3294 72.8829 16.8569 72.3994 16.2578 72.1036C15.6696 71.8133 15.0845 71.5587 14.5276 71.3409C13.9017 71.0964 13.2482 71.0491 12.6912 70.8821C12.0105 70.6783 11.4219 70.4192 10.8957 70.3085C9.75511 70.0675 9.97899 70.0323 9.04372 69.9458Z" fill="#69B3FF"/>
<path fill-rule="evenodd" clip-rule="evenodd" d="M13.6966 68.2884L13.679 68.3462C13.03 68.153 12.3649 67.984 11.8351 67.6192C11.2862 67.2419 10.9049 66.6664 10.5089 66.1482C10.1084 65.6249 9.85438 65.0338 9.63452 64.4134C9.41668 63.7981 9.1445 63.1829 9.1279 62.5167C9.1118 61.8743 9.13242 61.183 9.32562 60.534C9.58421 59.6621 9.6149 59.6717 9.874 58.8003C10.1331 57.9289 10.1759 57.942 10.435 57.0701C10.6277 56.4206 11.0457 55.8994 11.4105 55.3696C11.7878 54.8207 12.1329 54.2492 12.6511 53.8533C13.1744 53.4528 13.7781 53.1565 14.3989 52.9366C15.0137 52.7193 15.6698 52.6307 16.3359 52.6141C16.9784 52.598 17.6243 52.6896 18.2739 52.8823L18.2744 52.8813C18.9239 53.0745 19.4778 53.405 20.0071 53.7697C20.5559 54.1471 21.05 54.5596 21.4464 55.0778C21.8464 55.6011 22.1568 56.1726 22.3767 56.7934C22.5945 57.4082 22.7822 58.0451 22.7988 58.7107C22.8149 59.3532 22.673 59.9992 22.4798 60.6487C22.2212 61.5206 22.2771 61.5372 22.0185 62.4081C21.7594 63.28 21.78 63.286 21.5214 64.1574C21.3282 64.8069 21.0465 65.4232 20.6822 65.9519C20.3044 66.5008 19.8531 67.02 19.3349 67.416C18.8117 67.8165 18.1818 68.0876 17.561 68.3075C16.9462 68.5253 16.2826 68.5419 15.6164 68.5585C14.974 68.5746 14.3461 68.4811 13.6966 68.2884Z" fill="#69B3FF"/>
<path fill-rule="evenodd" clip-rule="evenodd" d="M133.917 51.7357C133.059 51.947 133.044 51.8866 132.185 52.0974C131.326 52.3087 131.363 52.4587 130.503 52.6695C129.645 52.8808 129.628 52.8123 128.769 53.0236C127.909 53.2345 127.908 53.2309 127.049 53.4422C126.19 53.6535 126.188 53.6475 125.329 53.8588C124.47 54.0701 124.469 54.0671 123.609 54.2784C122.75 54.4897 122.728 54.4042 121.869 54.6155C121.008 54.8273 121.014 54.8524 120.154 55.0637C119.296 55.275 119.327 55.4028 118.468 55.6141C117.608 55.8254 117.565 55.6473 116.705 55.8592C115.845 56.0705 115.85 56.0906 114.99 56.3019C114.129 56.5137 114.149 56.5942 113.289 56.8055C112.427 57.0178 112.444 57.0847 111.582 57.2965C110.721 57.5083 110.68 57.3438 109.819 57.5556C109.597 57.6105 109.396 57.5657 109.341 57.3438C109.13 56.4865 109.081 56.4991 108.87 55.6418C108.659 54.785 108.695 54.776 108.484 53.9187C108.274 53.0609 108.372 53.0367 108.161 52.1789C107.95 51.3221 107.816 51.3548 107.605 50.4976C107.394 49.6398 107.394 49.6398 107.183 48.7825C106.972 47.9242 106.932 47.9337 106.721 47.0759C106.51 46.2176 106.616 46.1915 106.406 45.3337C106.195 44.4764 106.179 44.4804 105.968 43.6236C105.758 42.7653 105.714 42.7759 105.503 41.9181C105.292 41.0598 105.436 41.0251 105.224 40.1668C105.014 39.3085 104.908 39.3347 104.697 38.4764C104.485 37.6165 104.506 37.6115 104.294 36.7517C104.083 35.8919 104.019 35.9075 103.808 35.0477C103.753 34.8263 103.928 34.5496 104.15 34.4948C105.008 34.284 105.013 34.3026 105.871 34.0913C106.73 33.88 106.756 33.9861 107.616 33.7748C108.475 33.5635 108.472 33.554 109.331 33.3427C110.191 33.1314 110.168 33.0398 111.028 32.8285C111.887 32.6172 111.881 32.593 112.74 32.3817C113.6 32.1704 113.601 32.1745 114.46 31.9631C115.32 31.7518 115.324 31.7689 116.184 31.5581C117.044 31.3463 117.04 31.3282 117.9 31.1169C118.758 30.9056 118.759 30.9086 119.618 30.6973C120.478 30.486 120.464 30.4277 121.324 30.2169C122.184 30.0056 122.219 30.15 123.08 29.9387C123.939 29.7268 123.943 29.7394 124.803 29.5276C125.665 29.3158 125.664 29.3113 126.525 29.0995C127.387 28.8877 127.389 28.8967 128.25 28.6854C128.472 28.6306 128.701 28.6935 128.756 28.9153C128.966 29.7726 129.036 29.7555 129.247 30.6128C129.457 31.4701 129.467 31.4676 129.678 32.3244C129.889 33.1822 129.673 33.2355 129.884 34.0933C130.095 34.9501 130.158 34.9345 130.369 35.7918C130.58 36.6496 130.687 36.6234 130.897 37.4812C131.108 38.339 131.063 38.3501 131.274 39.2084C131.485 40.0662 131.582 40.0425 131.793 40.9003C132.003 41.7576 131.994 41.7601 132.205 42.6169C132.416 43.4747 132.306 43.5019 132.517 44.3602C132.728 45.218 132.713 45.222 132.923 46.0798C133.134 46.9386 133.042 46.9612 133.253 47.8195C133.465 48.6793 133.5 48.6703 133.711 49.5301C133.922 50.3899 134.113 50.3426 134.324 51.2024C134.379 51.4243 134.138 51.6814 133.917 51.7357Z" stroke="#BF504F" stroke-width="1.01115"/>
<path d="M115.76 56.134C115.758 55.5047 115.927 54.8793 116.171 54.3269C116.411 53.7835 116.92 53.3831 117.317 52.9016C117.697 52.4412 118.117 52.0136 118.569 51.598C119.022 51.1825 119.391 50.6718 119.846 50.291C120.323 49.89 120.795 49.4769 121.259 49.0508C121.721 48.6262 122.136 48.1583 122.57 47.706C123.006 47.2517 123.455 46.818 123.848 46.333C124.245 45.843 124.689 45.3892 125.028 44.8645C125.37 44.3362 125.606 43.7501 125.874 43.1831C126.141 42.6181 126.329 42.029 126.508 41.4227C126.68 40.8442 126.877 40.2641 126.994 39.6558C127.11 39.0556 127.267 38.4589 127.382 37.8602C127.498 37.2505 127.569 36.6362 127.737 36.0591C127.912 35.4594 128.172 34.9065 128.461 34.3772C128.751 33.8455 129.124 33.3841 129.59 32.959" stroke="#BF504F" stroke-width="1.01115"/>
<path fill-rule="evenodd" clip-rule="evenodd" d="M129.658 48.2577C128.8 48.4685 128.81 48.5142 127.952 48.7255C127.093 48.9363 127.105 48.9831 126.246 49.1944C125.387 49.4052 125.354 49.2749 124.495 49.4857C123.636 49.697 123.663 49.8067 122.803 50.018C121.944 50.2293 121.948 50.2459 121.089 50.4572C120.229 50.6685 120.248 50.743 119.388 50.9543C118.528 51.1656 118.525 51.152 117.665 51.3633C116.805 51.5751 116.783 51.4851 115.923 51.6964C115.064 51.9077 115.096 52.035 114.236 52.2463C113.377 52.4576 113.342 52.3162 112.482 52.5275C111.622 52.7393 111.649 52.849 110.789 53.0603C109.929 53.2721 109.887 53.1036 109.027 53.3149C108.165 53.5267 108.164 53.5232 107.303 53.735C106.442 53.9468 106.451 53.985 105.589 54.1968C105.368 54.2512 105.211 54.15 105.156 53.9282C104.946 53.0709 104.807 53.1051 104.596 52.2478C104.386 51.391 104.493 51.3643 104.283 50.507C104.072 49.6497 104.058 49.6528 103.847 48.795C103.636 47.9377 103.73 47.9145 103.519 47.0572C103.308 46.2 103.311 46.1989 103.101 45.3412C102.89 44.4834 102.794 44.507 102.583 43.6487C102.372 42.7909 102.33 42.801 102.119 41.9432C101.909 41.0859 101.911 41.0854 101.701 40.2281C101.49 39.3703 101.402 39.3919 101.191 38.5341C100.98 37.6758 101.123 37.6401 100.912 36.7823C100.701 35.9235 100.611 35.9462 100.4 35.0879C100.188 34.2281 100.366 34.1843 100.154 33.3245C99.9432 32.4647 99.7263 32.5185 99.515 31.6587C99.4607 31.4368 99.6951 31.1762 99.917 31.1214C100.775 30.9111 100.752 30.8155 101.61 30.6047C102.469 30.3934 102.504 30.5343 103.363 30.3235C104.222 30.1126 104.237 30.1735 105.096 29.9622C105.956 29.7509 105.925 29.6256 106.784 29.4143C107.644 29.203 107.679 29.3484 108.538 29.1371C109.398 28.9258 109.351 28.7326 110.211 28.5213C111.07 28.31 111.075 28.3296 111.935 28.1183C112.794 27.9065 112.811 27.9699 113.67 27.7581C114.529 27.5473 114.527 27.5362 115.385 27.3254C116.245 27.1141 116.269 27.2087 117.129 26.9974C117.989 26.7861 117.983 26.7635 118.843 26.5522C119.703 26.3409 119.658 26.1582 120.519 25.9469C121.38 25.7351 121.398 25.8071 122.26 25.5953C123.121 25.3835 123.141 25.4629 124.003 25.2511C124.224 25.1968 124.551 25.2693 124.605 25.4906C124.816 26.3484 124.665 26.3851 124.876 27.2424C125.087 28.0997 125.099 28.0967 125.309 28.954C125.521 29.8113 125.668 29.7756 125.879 30.6334C126.09 31.4902 125.899 31.5374 126.11 32.3947C126.32 33.252 126.356 33.2435 126.567 34.1008C126.777 34.9591 126.914 34.9259 127.124 35.7837C127.336 36.642 127.113 36.6968 127.324 37.5546C127.534 38.4119 127.699 38.3716 127.909 39.2284C128.12 40.0867 128.182 40.0711 128.393 40.9294C128.605 41.7872 128.603 41.7877 128.814 42.646C129.025 43.5043 128.892 43.537 129.103 44.3953C129.313 45.2546 129.264 45.2672 129.475 46.127C129.687 46.9868 129.701 46.9833 129.912 47.8431C129.967 48.0645 129.879 48.2033 129.658 48.2577Z" fill="#FFC7C7"/>
<path fill-rule="evenodd" clip-rule="evenodd" d="M121.223 49.0049C120.289 49.2152 120.277 49.1619 119.343 49.3727C118.409 49.583 118.433 49.6926 117.499 49.9029C116.563 50.1137 116.556 50.083 115.62 50.2938C114.685 50.5041 114.672 50.4498 113.736 50.6606C113.569 50.6983 113.288 50.6017 113.277 50.4302C113.214 49.4672 113.358 49.4577 113.295 48.4952C113.232 47.5323 113.28 47.5293 113.216 46.5663C113.207 46.4315 113.24 46.3686 113.371 46.3359C114.382 46.0849 114.344 45.9329 115.355 45.6819C116.367 45.4308 116.373 45.456 117.386 45.2049C118.398 44.9534 118.405 44.9826 119.417 44.7315C119.548 44.6988 119.637 44.8342 119.692 44.9569C120.108 45.8746 120.062 45.8952 120.478 46.8139C120.894 47.7315 120.916 47.7215 121.331 48.6396C121.404 48.8011 121.395 48.9662 121.223 49.0049Z" fill="#FF6A69"/>
<path fill-rule="evenodd" clip-rule="evenodd" d="M113.812 49.1039C114.355 48.5787 114.349 48.5732 114.892 48.0484C115.435 47.5222 115.383 47.4689 115.926 46.9431C116.47 46.4169 116.512 46.4601 117.054 45.9339C117.252 45.7427 117 45.2688 116.733 45.3352C115.881 45.548 115.875 45.5244 115.023 45.7372C114.171 45.949 114.183 46.0003 113.331 46.2126C113.205 46.2438 113.181 46.4294 113.19 46.5587C113.266 47.7108 113.213 47.7144 113.289 48.867C113.304 49.0954 113.648 49.2634 113.812 49.1039Z" fill="#BF504F"/>
<path fill-rule="evenodd" clip-rule="evenodd" d="M113.303 50.2984C112.719 50.559 112.233 50.9589 111.721 51.2543C111.154 51.5823 110.544 51.78 110.075 52.1131C109.51 52.5145 108.981 52.8677 108.578 53.2144C107.719 53.9519 107.235 53.6626 107.276 54.5838C107.317 55.5352 107.814 55.1322 108.978 55.5452C109.473 55.7203 110.105 55.8728 110.844 55.9895C111.403 56.077 112.047 55.9633 112.755 55.9774C113.337 55.989 113.967 56.0499 114.656 55.99C115.245 55.9397 115.881 55.907 116.552 55.7913C117.142 55.6891 117.767 55.5654 118.423 55.4039C119.001 55.262 119.564 55.1538 120.08 54.9908C120.652 54.8102 121.177 54.5783 121.676 54.378C122.238 54.1532 122.732 53.8669 123.207 53.6259C123.753 53.3487 124.188 52.9794 124.629 52.6957C125.155 52.3566 125.728 52.182 126.119 51.855C126.627 51.4304 127.017 51.0002 127.328 50.6435C128.045 49.8229 128.766 49.8934 128.328 49.1634C127.833 48.3363 127.542 48.9717 126.367 48.78C125.822 48.6909 125.159 48.7584 124.438 48.6955C123.843 48.6437 123.207 48.4515 122.523 48.4439C121.907 48.4374 121.263 48.5345 120.596 48.5823C119.942 48.6296 119.327 48.7478 118.737 48.8414C118.074 48.946 117.443 48.9973 116.879 49.1347C116.189 49.3027 115.617 49.596 115.106 49.7656C114 50.1344 114.154 49.8999 113.303 50.2984Z" fill="#FF6A69"/>
<path fill-rule="evenodd" clip-rule="evenodd" d="M116.487 46.6052C116.487 46.6052 116.49 46.6153 116.489 46.6153C115.831 46.7768 115.146 46.8442 114.505 46.7974C113.841 46.7486 113.178 46.5634 112.574 46.3169C111.964 46.0674 111.454 45.6231 110.95 45.1985C110.452 44.7779 110.001 44.3065 109.65 43.74C109.311 43.1941 109.097 42.5808 108.935 41.9228C108.718 41.0403 108.756 41.0313 108.539 40.1483C108.322 39.2654 108.301 39.2709 108.085 38.388C107.923 37.7299 107.677 37.0819 107.724 36.4409C107.773 35.7768 107.959 35.1067 108.206 34.503C108.455 33.8927 108.877 33.3559 109.302 32.8523C109.722 32.3537 110.169 31.83 110.735 31.4793C111.282 31.1402 111.97 31.0708 112.628 30.9093L112.633 30.9269C113.29 30.7654 113.913 30.7156 114.554 30.7624C115.218 30.8107 115.914 30.7433 116.518 30.9898C117.127 31.2393 117.595 31.754 118.099 32.1791C118.597 32.5992 119.182 32.974 119.533 33.5405C119.872 34.0869 119.965 34.7701 120.126 35.4277C120.343 36.3106 120.453 36.2835 120.67 37.1659C120.887 38.0489 120.908 38.0433 121.126 38.9263C121.287 39.5844 121.258 40.2555 121.212 40.8965C121.163 41.5611 121.063 42.2196 120.816 42.8233C120.567 43.4331 120.198 43.9926 119.773 44.4962C119.353 44.9948 118.851 45.4294 118.284 45.7806C117.738 46.1192 117.145 46.4432 116.487 46.6052Z" fill="#FF6A69"/>
<path d="M88.3365 31.8616C88.3365 31.8616 83.2793 28.0174 85.6373 23.9915C89.0247 18.2083 100.757 23.1332 98.1189 27.637C95.5369 32.0468 85.2575 24.64 90.1487 16.29C95.0389 7.93995 106.087 14.0331 103.559 18.3487C101.031 22.6648 90.9728 14.8828 94.7093 8.50293" stroke="#6A69FF" stroke-width="1.01115" stroke-linecap="round" stroke-linejoin="round"/>
<path d="M109.281 63.5861C114.424 61.2848 120.165 60.337 125.775 60.8637" stroke="#414C58" stroke-width="1.01115" stroke-linecap="round"/>
<path d="M114.967 69.8745C118.301 69.9173 121.623 70.7333 124.598 72.2406" stroke="#414C58" stroke-width="1.01115" stroke-linecap="round"/>
<path d="M52.9067 15.7803C57.5942 21.5041 61.3162 28.0168 63.8684 34.9612" stroke="#414C58" stroke-width="1.01115" stroke-linecap="round"/>
<path d="M74.879 37.873C74.4504 32.8576 74.9082 27.7677 76.2228 22.9092" stroke="#414C58" stroke-width="1.01115" stroke-linecap="round"/>
<path fill-rule="evenodd" clip-rule="evenodd" d="M48.5295 35.8098C47.6883 36.081 47.7512 36.2757 46.9095 36.5469C46.0668 36.8186 46.0306 36.7049 45.1879 36.976C44.3462 37.2477 44.3487 37.2563 43.507 37.5279C42.6643 37.7996 42.6749 37.8328 41.8322 38.105C40.99 38.3767 40.9865 38.3656 40.1443 38.6373C39.3016 38.909 39.3353 39.0136 38.4926 39.2853C37.6499 39.557 37.6509 39.5605 36.8077 39.8322C35.965 40.1043 35.9308 39.9987 35.0881 40.2704C34.2459 40.542 34.2438 40.537 33.4021 40.8082C32.5589 41.0799 32.567 41.1045 31.7243 41.3767C30.8811 41.6484 30.8826 41.6539 30.0399 41.9256C29.1962 42.1973 29.1655 42.1027 28.3223 42.3744C27.4776 42.647 27.468 42.6174 26.6233 42.8895C25.7786 43.1617 25.8098 43.2578 24.9651 43.53C24.7492 43.5994 24.5505 43.4595 24.4811 43.2437C24.1918 42.3477 24.1958 42.3462 23.907 41.4501C23.6177 40.5531 23.5574 40.5727 23.2681 39.6757C22.9793 38.7787 22.9275 38.7958 22.6387 37.8987C22.3494 37.0017 22.4868 36.9574 22.1975 36.0609C21.9082 35.1633 21.875 35.1739 21.5852 34.2769C21.2959 33.3793 21.2577 33.3914 20.9689 32.4944C20.6796 31.5968 20.7355 31.5787 20.4462 30.6817C20.1569 29.7841 20.0236 29.8269 19.7343 28.9299C19.445 28.0328 19.4661 28.0258 19.1768 27.1287C18.8875 26.2312 18.9102 26.2237 18.6209 25.3266C18.3311 24.4276 18.2808 24.4437 17.991 23.5451C17.7012 22.6461 17.8235 22.6063 17.5342 21.7078C17.4643 21.4919 17.5251 21.1896 17.7405 21.1207C18.5822 20.8495 18.6093 20.934 19.4505 20.6628L21.1354 20.1195C21.9776 19.8478 22.0118 19.955 22.854 19.6838C23.6967 19.4121 23.6258 19.1933 24.469 18.9216C25.3112 18.6499 25.3369 18.7299 26.1791 18.4582C27.0218 18.1865 26.9981 18.1136 27.8408 17.8419C28.684 17.5702 28.6875 17.5818 29.5302 17.3101C30.3735 17.038 30.3835 17.0686 31.2262 16.797C32.0684 16.5253 32.0528 16.477 32.895 16.2053C33.7382 15.9336 33.7458 15.9588 34.589 15.6871C35.4322 15.4149 35.4453 15.4557 36.288 15.1835C37.1317 14.9118 37.1689 15.0286 38.0126 14.7569C38.8573 14.4842 38.8025 14.3131 39.6467 14.041C40.4914 13.7688 40.501 13.7985 41.3457 13.5263C41.561 13.4563 41.7457 13.6636 41.8151 13.8795C42.1044 14.7755 42.1834 14.7503 42.4726 15.6464C42.7619 16.5434 42.8681 16.5092 43.1569 17.4062C43.4461 18.3028 43.3536 18.3329 43.6429 19.229C43.9321 20.126 44.0036 20.1029 44.2929 20.9999C44.5822 21.8975 44.6023 21.8909 44.8921 22.7879C45.1814 23.6855 44.9806 23.7499 45.2699 24.6474C45.5592 25.545 45.6221 25.5248 45.9114 26.4224C46.2007 27.3194 46.2661 27.2983 46.5553 28.1953C46.8446 29.0924 46.9015 29.0743 47.1908 29.9718C47.48 30.8688 47.474 30.8713 47.7633 31.7684C48.0531 32.6674 47.8715 32.7258 48.1613 33.6248C48.451 34.5234 48.528 34.4992 48.8173 35.3983C48.8867 35.6136 48.7454 35.7399 48.5295 35.8098Z" stroke="#4EA67A" stroke-width="1.01115" stroke-linecap="round"/>
<path d="M30.9616 41.5776C30.9174 40.9553 30.858 40.342 31.0663 39.778C31.2705 39.2256 31.6675 38.7396 32.0317 38.237C32.3794 37.7571 32.7371 37.2585 33.1597 36.8178C33.5818 36.377 34.0688 35.9992 34.4949 35.5922C34.9437 35.1636 35.3869 34.7213 35.8196 34.269C36.2513 33.8182 36.7287 33.4022 37.1307 32.9262C37.5347 32.4478 37.7792 31.8456 38.1384 31.3394C38.5017 30.8283 38.9102 30.3524 39.2136 29.811C39.52 29.2646 39.6815 28.6584 39.9114 28.0803C40.1413 27.5023 40.5221 26.97 40.661 26.3577C40.7933 25.7756 40.9171 25.1689 40.9936 24.5606C41.069 23.9599 40.906 23.326 40.9805 22.7263C41.0559 22.117 41.3095 21.541 41.4398 20.9604C41.5741 20.3582 41.7055 19.7705 41.9585 19.2287C42.2121 18.6873 42.5341 18.1822 42.9682 17.7314" stroke="#4EA67A" stroke-width="1.01115" stroke-linecap="round"/>
<path fill-rule="evenodd" clip-rule="evenodd" d="M44.5022 32.7531L20.1212 40.6131L12.9258 18.2953L37.3073 10.4348L44.5022 32.7531Z" fill="#C6F2DD"/>
<path fill-rule="evenodd" clip-rule="evenodd" d="M35.6943 34.0461C34.7776 34.3223 34.7872 34.354 33.8705 34.6307C32.9534 34.9069 32.9614 34.9341 32.0447 35.2098C31.1261 35.487 31.1341 35.5131 30.2155 35.7903C29.2973 36.0671 29.3365 36.1969 28.4179 36.4741C28.2533 36.5239 28.1779 36.298 28.1552 36.1304C28.0285 35.1876 27.868 35.2093 27.7407 34.2664C27.6139 33.3236 27.6053 33.3251 27.4781 32.3828C27.4604 32.2505 27.6018 32.1665 27.7306 32.1242C28.7207 31.8027 28.7051 31.7549 29.6957 31.434C30.6879 31.1115 30.6683 31.0511 31.6599 30.7286C32.652 30.4066 32.6857 30.5103 33.6778 30.1883C33.8061 30.1465 33.8413 30.2049 33.9047 30.3221C34.3802 31.1945 34.4264 31.1688 34.9019 32.0417C35.3773 32.9136 35.4613 32.8678 35.9363 33.7407C36.0198 33.8936 35.8638 33.9943 35.6943 34.0461Z" fill="#59D095"/>
<path fill-rule="evenodd" clip-rule="evenodd" d="M28.0635 34.8672C28.639 34.2328 28.6742 34.265 29.2498 33.6306C29.8263 32.9952 29.934 33.0933 30.5106 32.4578C31.0871 31.8224 31.0454 31.7852 31.6219 31.1498C31.7326 31.0275 31.5953 30.8549 31.4378 30.9063C30.4869 31.2162 30.4884 31.2217 29.5376 31.5311C28.5867 31.841 28.6068 31.9039 27.6559 32.2143C27.5815 32.238 27.5659 32.1947 27.5765 32.2717C27.7495 33.5566 27.7983 33.5496 27.9714 34.8345C27.9895 34.9688 27.9709 34.9688 28.0635 34.8672Z" fill="#4EA67A"/>
<path fill-rule="evenodd" clip-rule="evenodd" d="M27.9474 36.0682C27.3834 36.3676 26.8773 36.7197 26.3877 37.0473C25.8444 37.412 25.3765 37.812 24.9322 38.1742C24.3959 38.6109 23.9547 39.0411 23.5754 39.4119C22.7679 40.2022 22.0716 39.7847 22.1747 40.6983C22.2819 41.6426 22.787 41.1803 23.9794 41.5003C24.4855 41.6361 25.1194 41.7709 25.8645 41.8303C26.4275 41.8751 27.0614 41.7055 27.7677 41.6663C28.3478 41.6341 28.9802 41.6497 29.6614 41.54C30.2445 41.4459 30.8468 41.2512 31.5058 41.0877C32.0864 40.9433 32.6801 40.7386 33.321 40.5323C33.887 40.3497 34.4812 40.3341 34.9833 40.1358C35.5402 39.9155 36.0388 39.6347 36.5218 39.4013C37.0656 39.1392 37.5778 38.8917 38.0346 38.6205C38.5609 38.3081 38.9709 37.9051 39.3915 37.5936C39.8936 37.2213 40.3851 36.9316 40.7534 36.5809C41.2319 36.1251 41.5071 35.6174 41.7948 35.2421C42.4569 34.3788 43.1955 34.578 42.7065 33.8832C42.153 33.0959 42.0253 33.6795 40.8399 33.5779C40.2906 33.5301 39.64 33.4098 38.9171 33.4013C38.3204 33.3947 37.6794 33.6196 36.9972 33.6629C36.3839 33.7021 35.7183 33.5522 35.0577 33.6483C34.4092 33.7429 33.7854 33.8827 33.2033 34.0186C32.5498 34.171 31.9556 34.4105 31.4022 34.5876C30.725 34.8034 30.1092 34.9835 29.6116 35.1883C28.534 35.6335 28.7694 35.6129 27.9474 36.0682Z" fill="#59D095"/>
<path fill-rule="evenodd" clip-rule="evenodd" d="M30.8653 32.046C30.8216 32.0596 30.8714 32.2151 30.8271 32.2291C30.1871 32.4354 29.4999 32.527 28.862 32.526C28.2009 32.5245 27.5136 32.4198 26.8988 32.2181C26.2775 32.0143 25.6708 31.6792 25.1425 31.2939C24.6193 30.9125 24.176 30.3938 23.7886 29.8575C23.4148 29.3403 23.1266 28.7391 22.9203 28.0986C22.6526 27.2685 22.7372 27.2414 22.4695 26.4107C22.2013 25.5801 22.2154 25.5756 21.9473 24.7449C21.741 24.105 21.5151 23.4801 21.5166 22.8422C21.5181 22.1811 21.7365 21.5507 21.9387 20.9354C22.1425 20.3146 22.3155 19.658 22.7004 19.1298C23.0818 18.6066 23.6412 18.2257 24.177 17.8383C24.6937 17.465 25.2602 17.1536 25.9002 16.9473C25.9444 16.9332 25.9248 16.8723 25.9691 16.8583C26.6091 16.6515 27.2701 16.6062 27.9081 16.6072C28.5697 16.6082 29.1965 16.7697 29.8113 16.9715C30.4327 17.1752 31.0082 17.4529 31.5365 17.8383C32.0602 18.2197 32.4607 18.7097 32.8476 19.246C33.2219 19.7627 33.6445 20.2673 33.8513 20.9073C34.1189 21.7384 34.0847 21.7489 34.3524 22.5796C34.62 23.4102 34.5465 23.4338 34.8142 24.2645C35.0205 24.9049 35.2574 25.5268 35.2564 26.1652C35.2549 26.8263 35.0431 27.4597 34.8414 28.0745C34.6376 28.6958 34.4263 29.3282 34.0414 29.856C33.6601 30.3792 33.1062 30.749 32.5698 31.1359C32.0527 31.5102 31.5053 31.8397 30.8653 32.046Z" fill="#59D095"/>
<path fill-rule="evenodd" clip-rule="evenodd" d="M96.697 68.5471C96.7267 68.5044 96.7483 68.4556 96.7573 68.4017C96.7936 68.1965 96.6567 68.0008 96.4515 67.965C96.2462 67.9288 96.0505 68.0657 96.0143 68.2709C96.0138 68.2739 96.0153 68.277 96.0148 68.2805C95.9589 68.371 95.9383 68.4817 95.974 68.5909C96.0379 68.7891 96.2507 68.8978 96.4495 68.8334C96.5833 68.7896 96.6708 68.6764 96.697 68.5471Z" fill="#FFB569"/>
<path fill-rule="evenodd" clip-rule="evenodd" d="M101.02 67.4737C100.986 67.6629 101.104 67.839 101.283 67.8938L101.441 67.1678C101.241 67.1417 101.055 67.274 101.02 67.4737Z" fill="#FFB569"/>
<path fill-rule="evenodd" clip-rule="evenodd" d="M99.0249 65.9285C99.0611 65.7232 98.9238 65.5275 98.719 65.4913C98.5706 65.4651 98.4292 65.5315 98.3472 65.6462C98.2526 65.5758 98.1303 65.5446 98.0086 65.5838C97.8109 65.6482 97.7022 65.8611 97.7666 66.0593C97.831 66.2575 98.0438 66.3662 98.2415 66.3018C98.322 66.2761 98.3814 66.2223 98.4272 66.1589C98.4735 66.1946 98.5258 66.2233 98.5877 66.2344C98.7929 66.2706 98.9886 66.1332 99.0249 65.9285Z" fill="#FFB569"/>
<path fill-rule="evenodd" clip-rule="evenodd" d="M96.8297 62.7449C96.6249 62.7092 96.4287 62.846 96.393 63.0513C96.3774 63.1409 96.3991 63.2254 96.4403 63.2993C96.3965 63.4216 96.4116 63.5615 96.5017 63.6676C96.6355 63.8266 96.874 63.8472 97.033 63.7129C97.1738 63.5942 97.1985 63.398 97.1125 63.243C97.1195 63.2224 97.1326 63.2048 97.1361 63.1821C97.1723 62.9769 97.035 62.7811 96.8297 62.7449Z" fill="#FFB569"/>
<path fill-rule="evenodd" clip-rule="evenodd" d="M102.007 64.0393C101.991 64.1349 102.014 64.2275 102.062 64.3039L102.174 63.7908C102.089 63.8456 102.026 63.9326 102.007 64.0393Z" fill="#FFB569"/>
<path fill-rule="evenodd" clip-rule="evenodd" d="M93.4513 61.2458C93.6566 61.282 93.8523 61.1452 93.8885 60.9399C93.9242 60.7342 93.7874 60.539 93.5826 60.5022C93.3774 60.4665 93.1817 60.6039 93.1454 60.8091C93.1092 61.0144 93.2466 61.2101 93.4513 61.2458Z" fill="#FFB569"/>
<path fill-rule="evenodd" clip-rule="evenodd" d="M93.8816 64.3151C93.6763 64.2789 93.4806 64.4158 93.4444 64.621C93.4087 64.8263 93.5455 65.0215 93.7503 65.0582C93.9555 65.0944 94.1512 64.9571 94.1875 64.7518C94.2242 64.5466 94.0863 64.3509 93.8816 64.3151Z" fill="#FFB569"/>
<path fill-rule="evenodd" clip-rule="evenodd" d="M95.3595 69.3054C95.5648 69.3411 95.7605 69.2048 95.7962 68.9995C95.8325 68.7937 95.6956 68.5985 95.4904 68.5618C95.2851 68.5261 95.0894 68.6634 95.0532 68.8687C95.0169 69.0735 95.1543 69.2697 95.3595 69.3054Z" fill="#FFB569"/>
<path fill-rule="evenodd" clip-rule="evenodd" d="M100.761 66.3267C100.604 66.1903 100.365 66.2069 100.228 66.3644C100.195 66.4036 100.17 66.4484 100.155 66.4947C100.07 66.5078 99.9889 66.5455 99.9286 66.6144C99.8677 66.6844 99.842 66.7704 99.8405 66.8559C99.8259 66.8117 99.8038 66.7684 99.7716 66.7307C99.7389 66.6924 99.7002 66.6627 99.6579 66.6406C99.6614 66.6275 99.67 66.6175 99.6725 66.6039C99.7082 66.3986 99.5714 66.2029 99.3661 66.1667C99.1608 66.1305 98.9651 66.2678 98.9289 66.4731C98.9002 66.6386 98.9868 66.7936 99.1281 66.868C99.1171 66.9042 99.1105 66.9405 99.111 66.9782C98.9586 66.943 98.7951 67.0008 98.7065 67.1407C98.5953 67.3173 98.6487 67.5502 98.8248 67.6609C99.0013 67.7721 99.2343 67.7193 99.3455 67.5427C99.3867 67.4778 99.3978 67.4058 99.3963 67.3344C99.5095 67.3616 99.6312 67.3429 99.7263 67.2619C99.8209 67.1825 99.8596 67.0672 99.8531 66.9525C99.8712 67.0255 99.9044 67.0939 99.9648 67.1472C100.122 67.2841 100.36 67.268 100.497 67.111C100.531 67.0713 100.556 67.027 100.572 66.9797C100.657 66.9661 100.738 66.9289 100.799 66.859C100.936 66.701 100.918 66.463 100.761 66.3267Z" fill="#FFB569"/>
<path fill-rule="evenodd" clip-rule="evenodd" d="M98.5532 63.2214C98.517 63.4266 98.6538 63.6223 98.8591 63.6586C99.0648 63.6943 99.26 63.5574 99.2963 63.3522C99.3325 63.1474 99.1951 62.9512 98.9899 62.9155C98.7851 62.8793 98.5889 63.0161 98.5532 63.2214Z" fill="#FFB569"/>
<path fill-rule="evenodd" clip-rule="evenodd" d="M101.993 61.769C101.988 61.9773 102.154 62.1494 102.362 62.1534C102.427 62.1549 102.485 62.1358 102.539 62.1081L102.661 61.5446C102.593 61.4596 102.494 61.4013 102.377 61.3987C102.169 61.3952 101.997 61.5607 101.993 61.769Z" fill="#FFB569"/>
<path fill-rule="evenodd" clip-rule="evenodd" d="M95.9452 70.1795C95.7364 70.1755 95.5644 70.3415 95.5604 70.5498C95.5568 70.7581 95.7229 70.9302 95.9312 70.9342C95.9382 70.9342 95.9452 70.9302 95.9528 70.9302C95.9613 71.0001 95.983 71.069 96.0318 71.1269C96.1661 71.2858 96.4041 71.3065 96.5636 71.1721C96.7225 71.0373 96.7427 70.7993 96.6083 70.6404C96.5304 70.5478 96.4177 70.508 96.306 70.5126C96.2833 70.3289 96.1354 70.183 95.9452 70.1795Z" fill="#FFB569"/>
<path fill-rule="evenodd" clip-rule="evenodd" d="M94.4192 68.8148C94.6275 68.8188 94.7995 68.6528 94.8036 68.4445C94.8071 68.2362 94.6416 68.0642 94.4328 68.0601C94.2245 68.0561 94.0524 68.2216 94.0489 68.4304C94.0449 68.6387 94.2109 68.8108 94.4192 68.8148Z" fill="#FFB569"/>
<path fill-rule="evenodd" clip-rule="evenodd" d="M99.953 67.8337C99.9489 68.042 100.114 68.2141 100.323 68.2181C100.532 68.2216 100.704 68.0556 100.708 67.8473C100.712 67.639 100.546 67.467 100.337 67.4635C100.129 67.4594 99.957 67.6255 99.953 67.8337Z" fill="#FFB569"/>
<path fill-rule="evenodd" clip-rule="evenodd" d="M98.9856 58.2474C99.1939 58.2514 99.3659 58.0854 99.37 57.8771C99.3735 57.6688 99.2075 57.4968 98.9992 57.4927C98.7909 57.4887 98.6188 57.6547 98.6153 57.863C98.6113 58.0713 98.7773 58.2434 98.9856 58.2474Z" fill="#FFB569"/>
<path fill-rule="evenodd" clip-rule="evenodd" d="M97.2022 85.5086C97.2062 85.3048 97.0467 85.1383 96.845 85.1267L96.9823 85.8406C97.1086 85.7818 97.1997 85.6575 97.2022 85.5086Z" fill="#FFB569"/>
<path fill-rule="evenodd" clip-rule="evenodd" d="M101.397 64.2797C101.4 64.0714 101.235 63.8994 101.027 63.8953C100.998 63.8943 100.972 63.9044 100.946 63.9104C100.955 63.9014 100.966 63.8974 100.974 63.8878C101.111 63.7303 101.094 63.4924 100.936 63.3555C100.779 63.2192 100.541 63.2363 100.404 63.3932C100.267 63.5512 100.285 63.7892 100.442 63.926C100.531 64.003 100.645 64.0262 100.753 64.007C100.687 64.0734 100.644 64.164 100.642 64.2656C100.638 64.4739 100.804 64.6465 101.012 64.6495C101.22 64.6535 101.393 64.488 101.397 64.2797Z" fill="#FFB569"/>
<path fill-rule="evenodd" clip-rule="evenodd" d="M101.724 62.949C101.587 63.106 101.603 63.3444 101.76 63.4818C101.9 63.6035 102.1 63.5975 102.239 63.4853L102.341 63.0224C102.319 62.9822 102.292 62.9445 102.256 62.9128C102.099 62.7759 101.861 62.792 101.724 62.949Z" fill="#FFB569"/>
<path fill-rule="evenodd" clip-rule="evenodd" d="M94.1792 70.6932C94.1727 70.6635 94.1692 70.6338 94.1556 70.6062C94.1661 70.6364 94.1767 70.6655 94.1938 70.6912C94.1893 70.6912 94.1843 70.6932 94.1792 70.6932ZM94.5586 70.9468C94.547 70.9121 94.5264 70.8839 94.5067 70.8552C94.6864 70.8547 94.8468 70.7335 94.879 70.5508C94.8906 70.4849 94.879 70.422 94.8584 70.3632C94.9253 70.2746 94.95 70.166 94.9273 70.0603C94.9394 70.0739 94.9455 70.09 94.959 70.1016C95.116 70.2384 95.3545 70.2223 95.4913 70.0653C95.4979 70.0578 95.4999 70.0482 95.5059 70.0402C95.6624 69.9552 95.7464 69.774 95.6896 69.5979C95.6252 69.4002 95.4123 69.2916 95.2141 69.356C95.1437 69.3786 95.0904 69.4244 95.0461 69.4767C95.0008 69.4983 94.9585 69.529 94.9233 69.5693C94.8428 69.6603 94.8212 69.7786 94.8428 69.8887C94.7075 69.7383 94.4766 69.7192 94.3201 69.851C94.3196 69.844 94.3221 69.8369 94.3211 69.8294C94.2894 69.6301 94.1063 69.4953 93.9081 69.5169C93.8874 69.4797 93.8633 69.4445 93.8301 69.4148C93.8276 69.4128 93.8245 69.4123 93.822 69.4108L93.9855 70.2615C93.9936 70.261 94.0006 70.2631 94.0077 70.2615C94.0816 70.2495 94.142 70.2122 94.1938 70.1665C94.1963 70.1987 94.1978 70.2304 94.2089 70.2615C94.1737 70.3068 94.1465 70.3591 94.1355 70.42C94.1244 70.4849 94.1355 70.5468 94.1556 70.6052C94.1339 70.5614 94.1038 70.5211 94.064 70.4869C94.0524 70.4769 94.0379 70.4734 94.0248 70.4653L94.2114 71.4343C94.2461 71.4333 94.2809 71.4333 94.3156 71.4222C94.5143 71.3573 94.623 71.145 94.5586 70.9468Z" fill="#FFB569"/>
<path fill-rule="evenodd" clip-rule="evenodd" d="M100.284 72.1084C100.285 72.1099 100.285 72.1109 100.286 72.1124C100.243 72.1567 100.215 72.21 100.198 72.2689C100.176 72.2442 100.154 72.2195 100.127 72.2004C100.185 72.1828 100.238 72.1541 100.284 72.1084ZM95.9343 77.9786C95.8447 77.9207 95.7381 77.9011 95.6364 77.9273C95.653 77.8951 95.6696 77.8629 95.6767 77.8246C95.6862 77.7688 95.6812 77.7145 95.6671 77.6621C95.6772 77.6616 95.6862 77.6652 95.6968 77.6637C95.7869 77.6496 95.8618 77.6043 95.9157 77.5404L96.0002 77.9434C95.9775 77.9539 95.9549 77.963 95.9343 77.9786ZM95.5821 76.0497C95.5896 76.0512 95.5972 76.0527 95.6037 76.0547L95.6742 76.3893C95.6556 76.3777 95.6369 76.3666 95.6173 76.3571C95.6505 76.255 95.64 76.1448 95.5821 76.0497ZM96.2442 73.3993C96.2457 73.4064 96.2442 73.4124 96.2462 73.419C96.2719 73.4994 96.3267 73.5598 96.3906 73.6051C96.3503 73.7258 96.3659 73.8622 96.454 73.9663C96.4686 73.9839 96.4882 73.993 96.5053 74.0071C96.5264 74.0619 96.5571 74.1132 96.6044 74.1545C96.698 74.2365 96.8187 74.2571 96.9319 74.2325C96.9616 74.2727 96.9973 74.3054 97.0391 74.3316C97.0381 74.3416 97.0325 74.3507 97.0325 74.3618C97.032 74.3784 97.0396 74.3925 97.0411 74.4081C96.9938 74.4045 96.9445 74.4091 96.8972 74.4252C96.8625 74.4362 96.8353 74.4569 96.8067 74.4755C96.7518 74.4141 96.6814 74.3658 96.5938 74.3507C96.5204 74.3381 96.451 74.3532 96.3866 74.3804C96.3433 74.3411 96.293 74.3155 96.2371 74.2994C96.3282 74.149 96.3076 73.9553 96.1748 73.8325C96.2029 73.7686 96.22 73.6987 96.208 73.6247C96.2019 73.5845 96.1848 73.5493 96.1672 73.5156C96.1999 73.4818 96.2256 73.4436 96.2442 73.3993ZM97.0647 72.6306C97.0653 72.611 97.0572 72.5939 97.0547 72.5752C97.1905 72.6608 97.3681 72.6578 97.4969 72.5491C97.6559 72.4148 97.676 72.1768 97.5417 72.0173C97.5236 71.9952 97.4989 71.9826 97.4773 71.966C97.503 71.9675 97.5276 71.9735 97.5538 71.9695C97.7595 71.9363 97.9004 71.7426 97.8672 71.5373C97.8531 71.4483 97.8053 71.3763 97.7434 71.3205C97.8259 71.2948 97.9019 71.2445 97.9517 71.1655C97.9744 71.1298 97.9859 71.0906 97.995 71.0508C97.993 71.079 97.9874 71.1062 97.9915 71.1354C98.0247 71.3411 98.2184 71.4815 98.4236 71.4483C98.5313 71.5298 98.6666 71.5449 98.7854 71.4981C98.7864 71.4991 98.7879 71.4991 98.7889 71.5001C98.6827 71.5721 98.6219 71.6888 98.6249 71.8161C98.6053 71.809 98.5887 71.7974 98.5675 71.7934C98.4734 71.7773 98.3844 71.8005 98.3089 71.8457C98.2194 71.7929 98.1107 71.7743 98.0035 71.8085C97.837 71.8628 97.7404 72.0223 97.7505 72.1894C97.68 72.3564 97.7319 72.5536 97.8898 72.6527C98.0594 72.7599 98.2787 72.7116 98.3939 72.5516C98.3779 72.6064 98.3738 72.6638 98.3849 72.7227C98.3431 72.7061 98.2994 72.694 98.2516 72.693C98.1726 72.692 98.1021 72.7206 98.0408 72.7614C98.0332 72.7624 98.0267 72.7594 98.0191 72.7609C97.9356 72.774 97.8672 72.8182 97.8129 72.8746C97.7917 72.8152 97.7605 72.7589 97.7097 72.7141C97.5518 72.5778 97.3138 72.5949 97.1774 72.7518C97.0411 72.9098 97.0577 73.1478 97.2152 73.2846C97.2167 73.2856 97.2182 73.2856 97.2197 73.2871C97.1729 73.3374 97.1357 73.3978 97.1231 73.4703C97.1135 73.5221 97.1156 73.5729 97.1271 73.6207C97.1171 73.6096 97.1115 73.596 97.1005 73.5865C97.0949 73.5815 97.0884 73.5804 97.0839 73.5764C97.0693 73.5432 97.0552 73.5085 97.03 73.4798C97.0089 73.4547 96.9822 73.4391 96.9566 73.4205C96.9817 73.3465 96.9898 73.266 96.9636 73.186C96.9344 73.0944 96.8711 73.025 96.7941 72.9797C96.947 72.9345 97.0617 72.7986 97.0647 72.6306ZM98.0317 70.9125C98.0217 70.9331 98.0096 70.9517 98.0035 70.9744C98.004 70.9547 98.004 70.9356 98.0015 70.9165C98.0116 70.9165 98.0217 70.914 98.0317 70.9125ZM98.6083 73.0014C98.6349 73.0124 98.6621 73.0205 98.6913 73.025C98.7064 73.0336 98.721 73.0456 98.7371 73.0517C98.6883 73.0698 98.646 73.097 98.6103 73.1307C98.6133 73.1126 98.6214 73.0965 98.6219 73.0778C98.6224 73.0507 98.6133 73.027 98.6083 73.0014ZM98.8226 73.8929C98.8442 73.8748 98.8563 73.8511 98.8724 73.8295C98.8915 73.8592 98.9101 73.8894 98.9373 73.9135C98.9957 73.9638 99.0661 73.9865 99.1375 73.996C99.1707 74.0453 99.2165 74.082 99.2673 74.1107C99.2165 74.0931 99.1652 74.0866 99.1134 74.0911C99.0289 74.0503 98.9298 74.0393 98.8332 74.0705C98.7406 74.1007 98.6697 74.1651 98.6249 74.2435C98.6113 74.2184 98.5972 74.1937 98.5786 74.1721C98.6571 74.1178 98.7124 74.0363 98.7325 73.9427C98.7637 73.9281 98.7949 73.916 98.8226 73.8929ZM98.8714 72.1577C98.9474 72.1843 99.0304 72.1934 99.1124 72.1667C99.1204 72.1642 99.125 72.1587 99.132 72.1557C99.1813 72.1411 99.2281 72.1184 99.2694 72.0827C99.294 72.0621 99.3091 72.0354 99.3267 72.0113C99.3257 72.0535 99.3277 72.0968 99.3413 72.1396C99.3478 72.1587 99.3609 72.1728 99.3705 72.1899C99.3559 72.2321 99.3514 72.2754 99.3519 72.3187C99.2538 72.3051 99.1562 72.3297 99.0746 72.3921C99.0319 72.3629 98.9861 72.3433 98.9373 72.3333C98.9091 72.3172 98.8784 72.3076 98.8467 72.2995C98.8553 72.2764 98.8689 72.2558 98.8734 72.2306C98.8779 72.2055 98.8719 72.1818 98.8714 72.1577ZM95.7763 76.8753L95.7788 76.8874C95.7733 76.9055 95.7672 76.9231 95.7667 76.9427C95.7587 76.9402 95.7516 76.9347 95.7441 76.9321C95.7587 76.915 95.7667 76.8949 95.7763 76.8753ZM99.3031 71.4518C99.3061 71.4483 99.3066 71.4438 99.3096 71.4402C99.3177 71.4463 99.3222 71.4548 99.3307 71.4604C99.3539 71.475 99.3805 71.4795 99.4052 71.489C99.379 71.5278 99.3614 71.5705 99.3514 71.6178C99.3393 71.5952 99.3312 71.5715 99.3146 71.5514C99.2945 71.5278 99.2688 71.5137 99.2457 71.4961C99.2648 71.4815 99.2865 71.4704 99.3031 71.4518ZM100.361 69.9349C100.352 69.95 100.35 69.9666 100.343 69.9822C100.271 69.9405 100.187 69.9178 100.098 69.9319C100.075 69.936 100.056 69.948 100.035 69.9556C99.9893 69.8545 99.8997 69.7815 99.7911 69.7518C99.8001 69.7428 99.8127 69.7382 99.8213 69.7282C99.9581 69.5702 99.9405 69.3322 99.7835 69.1959C99.7015 69.1249 99.5984 69.0978 99.4983 69.1073C99.4872 69.0943 99.4807 69.0782 99.4671 69.0661C99.3096 68.9292 99.0716 68.9453 98.9343 69.1023C98.7979 69.2598 98.8135 69.4983 98.971 69.6351C99.053 69.7065 99.1567 69.7337 99.2568 69.7236C99.2618 69.7297 99.2653 69.7367 99.2709 69.7423H99.2704C99.0721 69.8072 98.964 70.0195 99.0279 70.2177C99.0525 70.2932 99.1023 70.35 99.1607 70.3948C99.1702 70.4627 99.1919 70.5281 99.2392 70.5845C99.3705 70.7394 99.5989 70.76 99.7574 70.6363C99.7433 70.7288 99.7624 70.8204 99.8147 70.8999C99.7911 70.8712 99.7664 70.8426 99.7327 70.8214C99.5697 70.7188 99.3624 70.7616 99.2437 70.9075C99.1401 70.829 99.0103 70.8139 98.894 70.8546C98.9021 70.8249 98.9132 70.7973 98.9137 70.7656C98.9177 70.5573 98.7522 70.3847 98.5439 70.3812C98.4689 70.3797 98.402 70.4064 98.3426 70.4426C98.3235 70.3737 98.2908 70.3072 98.2325 70.2564C98.2279 70.2529 98.2224 70.2519 98.2179 70.2484C98.1343 70.0874 97.9507 70.0019 97.7731 70.0597C97.75 70.0668 97.7329 70.0824 97.7122 70.0934C97.7595 69.9531 97.7218 69.7921 97.6036 69.6879C97.4602 69.5627 97.2519 69.5717 97.1115 69.693C97.0783 69.6849 97.0456 69.6804 97.0104 69.6819C96.9224 69.6341 96.8172 69.6195 96.7146 69.6527C96.5169 69.7171 96.4082 69.9299 96.4721 70.1276C96.5249 70.2917 96.6799 70.3877 96.8434 70.3822C96.9762 70.4547 97.1437 70.4441 97.266 70.341C97.268 70.3394 97.269 70.3369 97.271 70.3354C97.3616 70.3566 97.4562 70.3445 97.5382 70.2982C97.5125 70.3732 97.5045 70.4536 97.5301 70.5346C97.5377 70.5578 97.5533 70.5754 97.5648 70.596C97.4647 70.6141 97.3716 70.6705 97.3133 70.7636C97.2132 70.922 97.2519 71.1218 97.3872 71.2415C97.3138 71.2642 97.2499 71.3044 97.2036 71.3618C97.1749 71.3487 97.1488 71.3336 97.1166 71.3275C97.0024 71.3074 96.8937 71.3452 96.8112 71.4146C96.6487 71.3582 96.4645 71.4111 96.369 71.563C96.2603 71.7361 96.3111 71.962 96.4791 72.0752C96.4278 72.1184 96.3946 72.1748 96.372 72.2367C96.3549 72.1612 96.3212 72.0897 96.2588 72.0354C96.211 71.9937 96.1556 71.9715 96.0983 71.9574C96.0802 71.9433 96.0595 71.9343 96.0394 71.9242C96.2296 71.8795 96.3584 71.6983 96.3272 71.5021C96.294 71.2964 96.1013 71.1555 95.895 71.1887C95.6893 71.2214 95.5494 71.4146 95.5816 71.6204C95.6012 71.7436 95.6822 71.8382 95.7854 71.891C95.7099 71.9086 95.6379 71.9423 95.5831 72.0052C95.57 72.0203 95.565 72.0384 95.5549 72.0555C95.4734 72.0198 95.3814 72.0098 95.2908 72.0389C95.2772 72.0435 95.2677 72.0535 95.2556 72.0591C95.2697 71.9579 95.243 71.8603 95.1867 71.7834C95.2732 71.7003 95.324 71.5831 95.3039 71.4558C95.2707 71.2501 95.0775 71.1102 94.8717 71.1424C94.6659 71.1756 94.5261 71.3688 94.5583 71.5746C94.5683 71.6365 94.5955 71.6888 94.6307 71.7361C94.599 71.7652 94.5734 71.7979 94.5532 71.8367C94.4667 71.8156 94.3772 71.8327 94.2957 71.8734L94.5548 73.2217C94.6644 73.1251 94.7127 72.9702 94.6649 72.8228C94.6388 72.7428 94.5844 72.6824 94.5205 72.6371C94.5276 72.6125 94.5356 72.5883 94.5371 72.5617C94.5985 72.5501 94.6584 72.5285 94.7097 72.4852C94.7485 72.4525 94.7786 72.4127 94.8008 72.3705C94.8068 72.372 94.8118 72.3765 94.8189 72.378C94.8969 72.3916 94.9703 72.374 95.0372 72.3438C95.0292 72.3992 95.0297 72.457 95.0483 72.5144C95.1127 72.7126 95.3255 72.8213 95.5232 72.7569C95.5313 72.7544 95.5363 72.7478 95.5444 72.7453C95.5444 72.7483 95.5434 72.7518 95.5439 72.7549C95.5574 72.8424 95.6042 72.9138 95.6646 72.9692C95.643 72.9868 95.6234 73.0069 95.6062 73.0296C95.5957 73.0331 95.5856 73.0391 95.5751 73.0431C95.5549 72.9787 95.5237 72.9169 95.4689 72.8701C95.3109 72.7332 95.073 72.7498 94.9361 72.9078C94.8003 73.0648 94.8169 73.3032 94.9743 73.4396C95.0865 73.5372 95.239 73.5528 95.3668 73.4994C95.3859 73.5578 95.4201 73.6086 95.4664 73.6524C95.4639 73.6826 95.4578 73.7123 95.4629 73.7435C95.4764 73.8295 95.5227 73.8999 95.5821 73.9553C95.559 74.0066 95.5459 74.0599 95.5469 74.1142C95.483 74.0866 95.4136 74.0695 95.3401 74.0815C95.3195 74.0851 95.3029 74.0961 95.2838 74.1032C95.3507 73.9714 95.3376 73.8074 95.2365 73.6876C95.163 73.6006 95.0594 73.5593 94.9542 73.5573C94.9376 73.4808 94.9039 73.4069 94.84 73.3515C94.76 73.2816 94.6604 73.257 94.5638 73.266L94.7535 74.2526C94.8486 74.3095 94.9643 74.3215 95.0694 74.2858C95.0337 74.3547 95.0136 74.4312 95.0267 74.5137C95.0533 74.6797 95.1862 74.7939 95.3441 74.8176L95.4105 75.1361C95.3532 75.1557 95.3024 75.1854 95.2601 75.2261C95.2495 75.1602 95.2284 75.0953 95.1816 75.04C95.1041 74.9484 94.992 74.9081 94.8803 74.9122L95.0352 75.7192C95.0423 75.687 95.0483 75.6548 95.0468 75.621C95.0775 75.6075 95.1097 75.5949 95.1374 75.5717C95.1419 75.5672 95.1439 75.5612 95.1489 75.5572C95.1675 75.6633 95.2299 75.7493 95.3139 75.8047C95.323 75.8313 95.3361 75.855 95.3507 75.8796C95.2576 75.857 95.1605 75.8761 95.075 75.9259L95.2848 77.0177C95.3064 77.0302 95.3275 77.0443 95.3512 77.0509C95.331 77.075 95.3215 77.1052 95.3069 77.1324L95.7114 79.2338C95.7345 79.2399 95.7572 79.2469 95.7823 79.2474C95.9906 79.2515 96.1627 79.0859 96.1662 78.8776C96.1677 78.7851 96.1325 78.7016 96.0782 78.6357C96.1008 78.6402 96.1229 78.6346 96.1456 78.6351L96.2165 78.9722C96.1717 79.015 96.136 79.0653 96.1159 79.1237C96.0701 79.1388 96.0263 79.1619 95.9876 79.1941C95.8286 79.3289 95.8085 79.5669 95.9423 79.7264C96.0565 79.8607 96.2422 79.8894 96.3936 79.8149L96.3976 79.8356C96.3196 79.8517 96.2447 79.8864 96.1873 79.9513C96.1531 79.991 96.1285 80.0363 96.1134 80.0836C95.9801 80.1757 95.9131 80.3432 95.966 80.5047C96.0022 80.6169 96.0877 80.6954 96.1888 80.7346C96.132 80.8634 96.1456 81.0179 96.2422 81.1326C96.2804 81.1768 96.3277 81.208 96.378 81.2307C96.4188 81.361 96.5249 81.4661 96.6683 81.4908C96.695 81.4953 96.7196 81.4898 96.7453 81.4893L96.8263 81.8762C96.7201 82.0326 96.7392 82.2439 96.8856 82.3707C96.9007 82.3843 96.9199 82.3893 96.9365 82.3994L97.2247 83.7734C97.111 83.7643 96.9958 83.796 96.9158 83.8891C96.779 84.0465 96.7956 84.285 96.9536 84.4214C97.0728 84.525 97.2383 84.5391 97.3711 84.4717L97.5266 85.2102L97.7686 84.0933L97.8597 83.6758L97.8979 83.4992L98.1404 82.3788L98.5957 80.2838L99.0269 78.2935L99.3795 76.6695L99.7277 75.0646L99.7715 74.8619L99.8892 74.3205C99.8213 74.3331 99.7559 74.3608 99.7015 74.4086C99.6864 74.401 99.6688 74.396 99.6527 74.3899C99.6386 74.3411 99.615 74.2939 99.5803 74.2516C99.5446 74.2103 99.5023 74.1791 99.4565 74.157C99.4741 74.1565 99.4907 74.162 99.5078 74.159C99.5154 74.158 99.5199 74.153 99.5269 74.1525C99.6019 74.2159 99.693 74.2471 99.7875 74.2425C99.8273 74.2496 99.867 74.2466 99.9063 74.2405L100.167 73.0391C100.101 72.9601 100.013 72.9013 99.9023 72.8992C99.8957 72.8992 99.8892 72.9033 99.8816 72.9033C99.8811 72.8947 99.8836 72.8877 99.8826 72.8786C100.047 72.8917 100.192 72.7951 100.252 72.6457L100.479 71.6022C100.435 71.6219 100.392 71.6445 100.358 71.6787C100.336 71.6354 100.306 71.5952 100.267 71.561C100.257 71.5529 100.245 71.5504 100.235 71.5434C100.243 71.5373 100.253 71.5353 100.26 71.5293C100.415 71.399 100.436 71.1731 100.315 71.0141C100.348 70.994 100.381 70.9734 100.408 70.9427C100.467 70.8742 100.493 70.7897 100.495 70.7057C100.541 70.7444 100.597 70.7691 100.656 70.7837L100.867 69.8117C100.693 69.7111 100.469 69.7629 100.361 69.9349Z" fill="#FFB569"/>
<path fill-rule="evenodd" clip-rule="evenodd" d="M100.859 68.9599C100.841 68.896 100.805 68.8422 100.758 68.7959C100.807 68.6711 100.793 68.5257 100.701 68.4155C100.566 68.2566 100.328 68.2364 100.169 68.3703C100.01 68.5051 99.9896 68.7431 100.123 68.9026C100.132 68.9126 100.145 68.9171 100.154 68.9267C100.145 68.9493 100.131 68.97 100.127 68.9951C100.091 69.2004 100.228 69.3961 100.433 69.4318C100.498 69.4434 100.559 69.4328 100.617 69.4132C100.641 69.5002 100.693 69.5797 100.776 69.6321C100.814 69.6557 100.855 69.6688 100.896 69.6778L101.054 68.9514C100.988 68.9393 100.922 68.9388 100.859 68.9599Z" fill="#FFB569"/>
<path fill-rule="evenodd" clip-rule="evenodd" d="M95.8835 80.1286C95.9077 80.0682 95.9218 80.0033 95.9112 79.9339C95.8986 79.8564 95.8589 79.7935 95.8096 79.7412L95.8835 80.1286Z" fill="#FFB569"/>
<path fill-rule="evenodd" clip-rule="evenodd" d="M96.0246 65.5973C96.1816 65.7336 96.4196 65.7175 96.5569 65.561C96.6938 65.4036 96.6777 65.1656 96.5202 65.0282C96.3637 64.8914 96.1253 64.9075 95.9884 65.0645C95.8511 65.2219 95.8677 65.4599 96.0246 65.5973Z" fill="#FFB569"/>
<path fill-rule="evenodd" clip-rule="evenodd" d="M102.072 58.5049C102.209 58.3479 102.193 58.1094 102.036 57.9721C101.879 57.8357 101.641 57.8513 101.503 58.0088C101.367 58.1658 101.383 58.4043 101.54 58.5411C101.697 58.6779 101.936 58.6618 102.072 58.5049Z" fill="#FFB569"/>
<path fill-rule="evenodd" clip-rule="evenodd" d="M98.5505 62.2724C98.4136 62.4294 98.4297 62.6679 98.5867 62.8047C98.7442 62.9416 98.9821 62.9255 99.1195 62.768C99.2558 62.6115 99.2397 62.3731 99.0832 62.2362C98.9258 62.0989 98.6873 62.1155 98.5505 62.2724Z" fill="#FFB569"/>
<path fill-rule="evenodd" clip-rule="evenodd" d="M98.0383 64.0915C98.1495 63.9149 98.0962 63.6825 97.9201 63.5713C97.7435 63.4601 97.5106 63.5134 97.3994 63.689C97.2887 63.8661 97.3415 64.099 97.5181 64.2097C97.6942 64.3209 97.9272 64.2681 98.0383 64.0915Z" fill="#FFB569"/>
<path fill-rule="evenodd" clip-rule="evenodd" d="M101.042 66.2558C100.931 66.4324 100.984 66.6648 101.16 66.776C101.274 66.8479 101.409 66.8449 101.522 66.7901L101.647 66.218C101.622 66.1884 101.597 66.1592 101.562 66.1376C101.386 66.0264 101.153 66.0792 101.042 66.2558Z" fill="#FFB569"/>
<path fill-rule="evenodd" clip-rule="evenodd" d="M96.3053 58.5933C96.4819 58.7045 96.7144 58.6511 96.8256 58.4751C96.9367 58.2985 96.8834 58.0655 96.7073 57.9543C96.5307 57.8437 96.2978 57.8965 96.1871 58.0726C96.0759 58.2492 96.1288 58.4821 96.3053 58.5933Z" fill="#FFB569"/>
<path fill-rule="evenodd" clip-rule="evenodd" d="M100.169 62.9579C100.346 63.0686 100.578 63.0158 100.689 62.8392C100.801 62.6631 100.747 62.4302 100.571 62.319C100.395 62.2083 100.162 62.2606 100.051 62.4372C99.9397 62.6133 99.9925 62.8467 100.169 62.9579Z" fill="#FFB569"/>
<path fill-rule="evenodd" clip-rule="evenodd" d="M95.2919 68.1661C95.4685 68.2772 95.7014 68.2239 95.8126 68.0478C95.8398 68.0046 95.8569 67.9573 95.865 67.9095C95.9626 67.919 96.0632 67.8914 96.1442 67.8229C96.3037 67.6886 96.3238 67.4506 96.189 67.2917C96.0546 67.1322 95.8167 67.112 95.6577 67.2464C95.5857 67.3067 95.5465 67.3893 95.5329 67.4753C95.3941 67.4607 95.2532 67.5201 95.1742 67.6458C95.063 67.8219 95.1158 68.0549 95.2919 68.1661Z" fill="#FFB569"/>
<path fill-rule="evenodd" clip-rule="evenodd" d="M100.665 60.5752C100.635 60.7765 100.769 60.9662 100.971 61.0024C101.176 61.0381 101.372 60.9008 101.408 60.696C101.444 60.4907 101.307 60.295 101.102 60.2588C101.055 60.2507 101.011 60.2538 100.967 60.2623C100.982 60.1597 100.958 60.052 100.885 59.9665C100.751 59.8075 100.513 59.7874 100.354 59.9217C100.194 60.0565 100.175 60.294 100.309 60.4535C100.399 60.5607 100.536 60.5989 100.665 60.5752Z" fill="#FFB569"/>
<path fill-rule="evenodd" clip-rule="evenodd" d="M98.4948 69.8674C98.6537 69.7325 98.6739 69.4946 98.5395 69.3351C98.4052 69.1761 98.1672 69.1565 98.0077 69.2908C97.8488 69.4246 97.8286 69.6631 97.963 69.8221C98.0973 69.9821 98.3358 70.0017 98.4948 69.8674Z" fill="#FFB569"/>
<path fill-rule="evenodd" clip-rule="evenodd" d="M97.58 57.9928C97.739 57.858 97.7592 57.62 97.6248 57.4605C97.49 57.3016 97.2525 57.2814 97.093 57.4163C96.9341 57.5506 96.9139 57.7886 97.0478 57.9475C97.1826 58.107 97.4206 58.1272 97.58 57.9928Z" fill="#FFB569"/>
<path fill-rule="evenodd" clip-rule="evenodd" d="M99.3547 64.6764C99.4709 64.8142 99.6626 64.8404 99.816 64.7599C99.8311 64.8399 99.8669 64.9174 99.9328 64.9747C100.09 65.1116 100.328 65.0955 100.465 64.9385C100.602 64.7815 100.586 64.5426 100.429 64.4062C100.309 64.3011 100.141 64.288 100.007 64.3569C99.9947 64.2976 99.973 64.2397 99.9313 64.1894C99.7969 64.0304 99.5585 64.0103 99.3995 64.1446C99.24 64.2794 99.2199 64.5174 99.3547 64.6764Z" fill="#FFB569"/>
<path fill-rule="evenodd" clip-rule="evenodd" d="M97.0929 67.9468C97.2227 68.06 97.4048 68.0625 97.5431 67.974C97.5643 68.0187 97.595 68.0605 97.6352 68.0952C97.6694 68.1249 97.7097 68.145 97.7499 68.1601C97.7711 68.2542 97.8284 68.3407 97.917 68.3961C98.093 68.5067 98.326 68.4544 98.4372 68.2778C98.5483 68.1017 98.495 67.8688 98.3189 67.7576C98.2953 67.7425 98.2691 67.7385 98.244 67.7289C98.2274 67.653 98.1932 67.58 98.1293 67.5247C97.9995 67.4125 97.8178 67.41 97.681 67.498C97.6594 67.4537 97.6287 67.4125 97.5889 67.3778C97.5125 67.3109 97.4159 67.2817 97.3213 67.2867C97.3922 67.1544 97.3806 66.9874 97.278 66.8661C97.1437 66.7066 96.9057 66.6865 96.7467 66.8208C96.5872 66.9552 96.5671 67.1936 96.7015 67.3526C96.7835 67.4497 96.9027 67.488 97.0199 67.4784C96.9334 67.6313 96.9555 67.8265 97.0929 67.9468Z" fill="#FFB569"/>
<path fill-rule="evenodd" clip-rule="evenodd" d="M95.3971 66.3932C95.3488 66.448 95.3267 66.5144 95.3161 66.5818C95.222 66.7363 95.2432 66.937 95.384 67.0593C95.5405 67.1966 95.779 67.18 95.9158 67.0236C95.9646 66.9682 95.9872 66.9013 95.9973 66.8334C96.0919 66.6789 96.0708 66.4777 95.9294 66.3549C95.7719 66.2181 95.5334 66.2357 95.3971 66.3932Z" fill="#FFB569"/>
<path fill-rule="evenodd" clip-rule="evenodd" d="M92.6448 63.2888L92.7605 63.8925C92.767 63.8865 92.7756 63.884 92.7811 63.8769C92.9179 63.7195 92.9008 63.481 92.7434 63.3447C92.7137 63.319 92.679 63.3039 92.6448 63.2888Z" fill="#FFB569"/>
<path fill-rule="evenodd" clip-rule="evenodd" d="M98.5239 60.275C98.6602 60.1175 98.6431 59.879 98.4857 59.7422C98.3282 59.6063 98.0902 59.6229 97.9534 59.7809C97.817 59.9379 97.8341 60.1764 97.9916 60.3127C98.1491 60.4495 98.3875 60.4319 98.5239 60.275Z" fill="#FFB569"/>
<path fill-rule="evenodd" clip-rule="evenodd" d="M96.1572 81.5179C96.1552 81.5164 96.1527 81.5164 96.1501 81.5149L96.2548 82.0592C96.2613 82.0522 96.2704 82.0467 96.2754 82.0376C96.3866 81.862 96.3338 81.6291 96.1572 81.5179Z" fill="#FFB569"/>
<path fill-rule="evenodd" clip-rule="evenodd" d="M101.21 64.9304C101.073 65.0878 101.09 65.3263 101.248 65.4631C101.405 65.5995 101.643 65.5824 101.78 65.4244C101.809 65.3907 101.829 65.352 101.844 65.3117L101.862 65.2307C101.879 65.1085 101.843 64.9802 101.743 64.8926C101.585 64.7563 101.346 64.7734 101.21 64.9304Z" fill="#FFB569"/>
<path fill-rule="evenodd" clip-rule="evenodd" d="M94.9891 66.9463C94.8321 66.8099 94.5936 66.8271 94.4568 66.9845C94.3204 67.142 94.3375 67.38 94.495 67.5168C94.6525 67.6526 94.891 67.636 95.0273 67.4791C95.1637 67.3211 95.1465 67.0826 94.9891 66.9463Z" fill="#FFB569"/>
<path fill-rule="evenodd" clip-rule="evenodd" d="M93.759 66.7257C93.7102 66.6683 93.6468 66.6351 93.5799 66.615C93.593 66.4968 93.5568 66.3745 93.4597 66.2905C93.3903 66.2296 93.3037 66.2035 93.2177 66.202C93.2192 66.1758 93.2253 66.1506 93.2212 66.1245C93.2122 66.0691 93.1905 66.0203 93.1619 65.9766L93.424 67.341C93.5251 67.3536 93.6302 67.3279 93.7143 67.2575C93.8737 67.1226 93.8939 66.8847 93.759 66.7257Z" fill="#FFB569"/>
<path fill-rule="evenodd" clip-rule="evenodd" d="M101.908 62.4911C101.875 62.2854 101.682 62.1455 101.476 62.1777C101.27 62.2104 101.13 62.4041 101.163 62.6099C101.196 62.8156 101.389 62.956 101.594 62.9233C101.8 62.8901 101.94 62.6969 101.908 62.4911Z" fill="#FFB569"/>
<path fill-rule="evenodd" clip-rule="evenodd" d="M97.897 67.3741C98.0212 67.3761 98.1279 67.3142 98.1983 67.2216C98.232 67.2257 98.2647 67.2317 98.3005 67.2262C98.5062 67.1935 98.6461 67.0003 98.6134 66.7945C98.5807 66.5882 98.3875 66.4484 98.1812 66.4811C98.0816 66.4967 97.9981 66.5515 97.9417 66.6265C97.9307 66.6255 97.9221 66.6194 97.9106 66.6194C97.7023 66.6154 97.5302 66.7814 97.5267 66.9897C97.5227 67.198 97.6887 67.37 97.897 67.3741Z" fill="#FFB569"/>
<path fill-rule="evenodd" clip-rule="evenodd" d="M96.5819 69.2348C96.5553 69.0667 96.4205 68.9485 96.26 68.9263C96.1191 68.8775 95.9571 68.9148 95.8534 69.035C95.7166 69.1925 95.7337 69.431 95.8912 69.5673C95.951 69.6191 96.0235 69.6423 96.0965 69.6498C96.1513 69.6674 96.2086 69.6765 96.269 69.6664C96.4748 69.6342 96.6147 69.4405 96.5819 69.2348Z" fill="#FFB569"/>
<path fill-rule="evenodd" clip-rule="evenodd" d="M96.1419 64.259C96.1746 64.4648 96.3683 64.6047 96.5736 64.5725C96.7799 64.5398 96.9202 64.3461 96.887 64.1403C96.8543 63.9345 96.6611 63.7942 96.4554 63.8274C96.2496 63.8601 96.1092 64.0533 96.1419 64.259Z" fill="#FFB569"/>
<path fill-rule="evenodd" clip-rule="evenodd" d="M102.409 58.9803C102.203 59.0125 102.063 59.2062 102.095 59.412C102.128 59.6183 102.322 59.7581 102.527 59.7249C102.733 59.6927 102.874 59.499 102.84 59.2933C102.808 59.0875 102.615 58.9476 102.409 58.9803Z" fill="#FFB569"/>
<path fill-rule="evenodd" clip-rule="evenodd" d="M95.8736 63.0706C96.0793 63.0379 96.2192 62.8447 96.1865 62.639C96.1543 62.4327 95.9606 62.2928 95.7548 62.3255C95.5485 62.3582 95.4087 62.5514 95.4419 62.7577C95.4741 62.963 95.6678 63.1033 95.8736 63.0706Z" fill="#FFB569"/>
<path fill-rule="evenodd" clip-rule="evenodd" d="M96.3333 65.9586C96.1275 65.9913 95.9877 66.185 96.0204 66.3902C96.0526 66.5965 96.2463 66.7364 96.452 66.7037C96.6583 66.671 96.7982 66.4778 96.7655 66.2715C96.7328 66.0663 96.5391 65.9259 96.3333 65.9586Z" fill="#FFB569"/>
<path fill-rule="evenodd" clip-rule="evenodd" d="M97.0635 86.2643L97.1636 86.785C97.1696 86.789 97.1772 86.7901 97.1827 86.7941L97.3326 86.1028C97.3266 86.1033 97.3211 86.1008 97.315 86.1018C97.2074 86.1189 97.1198 86.1808 97.0635 86.2643Z" fill="#FFB569"/>
<path fill-rule="evenodd" clip-rule="evenodd" d="M98.0108 69.2415C98.2165 69.2088 98.3569 69.0157 98.3242 68.8099C98.2915 68.6036 98.0983 68.4637 97.8925 68.4964C97.6862 68.5291 97.5459 68.7223 97.5791 68.9286C97.6118 69.1339 97.8055 69.2742 98.0108 69.2415Z" fill="#FFB569"/>
<path fill-rule="evenodd" clip-rule="evenodd" d="M97.4679 62.5861C97.2692 62.6505 97.161 62.8633 97.2254 63.0616C97.2898 63.2598 97.5021 63.3685 97.7008 63.3041C97.8985 63.2402 98.0072 63.0268 97.9428 62.8286C97.8789 62.6309 97.6661 62.5217 97.4679 62.5861Z" fill="#FFB569"/>
<path fill-rule="evenodd" clip-rule="evenodd" d="M99.436 67.9853C99.3424 68.0155 99.272 68.0799 99.2267 68.1594C99.0426 68.1816 98.8962 68.33 98.8926 68.5202C98.8886 68.7289 99.0541 68.9005 99.2629 68.9045C99.4053 68.907 99.5266 68.8276 99.593 68.7113C99.6181 68.7088 99.6433 68.7113 99.6689 68.7033C99.8667 68.6389 99.9753 68.4261 99.9114 68.2273C99.847 68.0296 99.6347 67.921 99.436 67.9853Z" fill="#FFB569"/>
<path fill-rule="evenodd" clip-rule="evenodd" d="M94.2169 59.8844C94.4151 59.8205 94.5233 59.6072 94.4589 59.4094C94.395 59.2112 94.1822 59.102 93.9839 59.1669C93.7857 59.2308 93.6771 59.4441 93.7414 59.6424C93.8058 59.8401 94.0182 59.9488 94.2169 59.8844Z" fill="#FFB569"/>
<path fill-rule="evenodd" clip-rule="evenodd" d="M100.043 66.3854C100.241 66.321 100.349 66.1082 100.285 65.9105C100.221 65.7117 100.008 65.6031 99.8101 65.6675C99.6119 65.7319 99.5032 65.9447 99.5676 66.1429C99.632 66.3411 99.8443 66.4498 100.043 66.3854Z" fill="#FFB569"/>
<path fill-rule="evenodd" clip-rule="evenodd" d="M94.4829 64.7514C94.5473 64.9497 94.7601 65.0578 94.9579 64.9934C95.1485 64.9321 95.2522 64.7328 95.2034 64.5411C95.3453 64.4893 95.4479 64.356 95.4509 64.196C95.4529 64.0853 95.4051 63.9867 95.3307 63.9168C95.3795 63.7754 95.3422 63.6124 95.2225 63.5083C95.0645 63.3719 94.8266 63.3885 94.6897 63.546C94.5564 63.701 94.572 63.9319 94.7214 64.0697C94.7088 64.106 94.6973 64.1422 94.6963 64.1814C94.6958 64.2171 94.7058 64.2493 94.7149 64.2815C94.5242 64.3505 94.42 64.5567 94.4829 64.7514Z" fill="#FFB569"/>
<path fill-rule="evenodd" clip-rule="evenodd" d="M96.9191 83.0354C96.8547 82.8372 96.6419 82.7285 96.4436 82.7934C96.427 82.798 96.4155 82.8101 96.4009 82.8171L96.5372 83.527C96.583 83.5295 96.6303 83.526 96.6766 83.5104C96.8748 83.4465 96.9835 83.2337 96.9191 83.0354Z" fill="#FFB569"/>
<path fill-rule="evenodd" clip-rule="evenodd" d="M36.1379 51.7948C36.2149 52.2698 36.2134 52.8831 36.3306 53.5824C36.4196 54.1157 36.5479 54.7043 36.6571 55.3478C36.7507 55.9027 36.9283 56.4818 37.0344 57.1061C37.1305 57.6721 37.1003 58.2859 37.205 58.8992C37.3031 59.4717 37.3257 60.0765 37.4294 60.6832C37.5285 61.2598 37.8615 61.8117 37.9647 62.4139C38.0648 62.995 38.0693 63.6027 38.1725 64.2014C38.2731 64.7855 38.2982 65.3893 38.4014 65.9854C38.5025 66.5721 38.7415 67.1396 38.8436 67.7327C38.9457 68.3219 38.9789 68.9246 39.0816 69.5157C39.1837 70.1069 39.3517 70.6875 39.4534 71.2761C39.5565 71.8703 39.4639 72.4956 39.565 73.0828C39.6687 73.6794 39.882 74.2525 39.9836 74.8361C40.0878 75.4358 40.2005 76.0259 40.3016 76.6065C40.4057 77.2097 40.4535 77.8099 40.5536 78.386C40.6593 78.9942 40.7655 79.5854 40.8646 80.1574C40.9712 80.7722 41.1619 81.3483 41.26 81.9113C41.3687 82.5381 41.5121 83.1237 41.6082 83.6746C41.7214 84.3242 41.7475 84.9304 41.8396 85.4566C41.9654 86.1816 42.0423 86.7843 42.1198 87.2291C42.2104 87.7498 42.6929 88.0391 43.2277 88.0391C44.1398 88.0391 44.1398 88.2464 45.0514 88.2464C45.9635 88.2464 45.9635 88.1387 46.8752 88.1387C47.7873 88.1387 47.7873 88.0356 48.6994 88.0356C49.6116 88.0356 49.6116 88.0059 50.5242 88.0059C51.4358 88.0059 51.4358 88.0632 52.348 88.0632C53.2601 88.0632 53.2601 88.0069 54.1722 88.0069C55.0848 88.0069 55.0848 88.1996 55.997 88.1996C56.9091 88.1996 56.9091 88.1457 57.8212 88.1457C58.7339 88.1457 58.7339 88.0054 59.6465 88.0054C60.5586 88.0054 60.5586 88.1261 61.4713 88.1261C62.3834 88.1261 62.3834 88.2116 63.2955 88.2116C64.2082 88.2116 64.2082 88.1075 65.1203 88.1075C66.0334 88.1075 66.0334 88.1483 66.9461 88.1483C67.8582 88.1483 67.8582 88.1055 68.7708 88.1055C69.683 88.1055 69.683 88.021 70.5956 88.021C71.5067 88.021 71.5067 88.1276 72.4183 88.1276C73.331 88.1276 73.331 88.2122 74.2436 88.2122C75.1552 88.2122 75.1552 88.2393 76.0674 88.2393C76.98 88.2393 76.98 88.0134 77.8931 88.0134C78.8053 88.0134 78.8053 88.2227 79.7174 88.2227C80.63 88.2227 80.63 88.2011 81.5427 88.2011C82.4558 88.2011 82.4558 88.1306 83.3689 88.1306C84.2821 88.1306 84.2821 87.9978 85.1952 87.9978C86.1083 87.9978 86.1083 88.1991 87.0215 88.1991C87.9346 88.1991 87.9346 88.0844 88.8472 88.0844C89.7604 88.0844 89.7604 88.1357 90.6735 88.1357C91.5862 88.1357 91.5862 88.0788 92.4998 88.0788C93.4144 88.0788 93.4144 88.0532 94.3291 88.0532C95.2437 88.0532 95.2437 88.1397 96.1584 88.1397C96.8486 88.1397 97.3673 87.5013 97.2365 86.8316C97.0645 85.9492 97.1354 85.9351 96.9633 85.0526C96.7913 84.1722 96.833 84.1637 96.6615 83.2822C96.4894 82.3998 96.4587 82.4063 96.2867 81.5239C96.1146 80.6419 96.1262 80.6399 95.9546 79.758C95.7821 78.875 95.5788 78.9148 95.4067 78.0318C95.2347 77.1499 95.3202 77.1333 95.1481 76.2513C94.9766 75.3684 95.0787 75.3487 94.9067 74.4663C94.7346 73.5839 94.5837 73.6125 94.4121 72.7296C94.24 71.8466 94.4247 71.8109 94.2521 70.928C94.0806 70.046 94.0931 70.0435 93.9211 69.1621C93.749 68.2791 93.673 68.2937 93.501 67.4107C93.3289 66.5278 93.3028 66.5328 93.1312 65.6499C92.9591 64.7664 92.8208 64.7936 92.6487 63.9101C92.4762 63.0252 92.6256 62.9965 92.453 62.112C92.2804 61.2271 92.3287 61.2175 92.1562 60.3331C92.0566 59.8219 91.5253 59.5915 90.9985 59.5915C90.1186 59.5915 90.1186 59.4149 89.2387 59.4149C88.3577 59.4149 88.3577 59.4008 87.4768 59.4008C86.5969 59.4008 86.5969 59.3611 85.7169 59.3611C84.836 59.3611 84.836 59.3711 83.9545 59.3711C83.0741 59.3711 83.0741 59.3958 82.1937 59.3958C81.3122 59.3958 81.3122 59.3832 80.4318 59.3832C79.5509 59.3832 79.5509 59.5371 78.6699 59.5371C77.789 59.5371 77.789 59.3445 76.9076 59.3445C76.0261 59.3445 76.0261 59.514 75.1442 59.514C74.2627 59.514 74.2627 59.4597 73.3808 59.4597C72.5003 59.4597 72.5003 59.4561 71.6199 59.4561C70.738 59.4561 70.738 59.4959 69.8565 59.4959C68.9751 59.4959 68.9751 59.3726 68.0931 59.3726C67.2112 59.3726 67.2112 59.4778 66.3293 59.4778C65.4458 59.4778 65.4458 59.3922 64.5629 59.3922C63.6794 59.3922 63.6794 59.4888 62.7959 59.4888C62.2491 59.4888 61.7092 59.0813 61.6318 58.5465C61.5045 57.6661 61.4572 57.6731 61.3299 56.7927C61.2026 55.9123 61.4134 55.8816 61.2861 55.0006C61.1588 54.1187 61.029 54.1373 60.9018 53.2554C60.7745 52.3734 60.9289 52.3508 60.8016 51.4693C60.7242 50.934 60.1486 50.517 59.6017 50.517C58.667 50.517 58.667 50.6271 57.7317 50.6271C56.7964 50.6271 56.7964 50.5029 55.8601 50.5029C54.9249 50.5029 54.9249 50.6734 53.9896 50.6734C53.0538 50.6734 53.0538 50.4983 52.118 50.4983C51.1823 50.4983 51.1823 50.5386 50.246 50.5386C49.3097 50.5386 49.3097 50.6342 48.3734 50.6342C47.4371 50.6342 47.4371 50.4858 46.5014 50.4858C45.5656 50.4858 45.5656 50.4717 44.6293 50.4717C43.6935 50.4717 43.6935 50.5386 42.7573 50.5386C41.821 50.5386 41.821 50.5079 40.8852 50.5079C39.9469 50.5079 39.9469 50.5084 39.0096 50.5084C38.0718 50.5084 38.0718 50.4737 37.1335 50.4737C36.4574 50.4737 36.0312 51.1348 36.1379 51.7948Z" fill="#FFF6EC"/>
<path fill-rule="evenodd" clip-rule="evenodd" d="M36.1379 51.7948C36.2149 52.2698 36.2134 52.8831 36.3306 53.5824C36.4196 54.1157 36.5479 54.7043 36.6571 55.3478C36.7507 55.9027 36.9283 56.4818 37.0344 57.1061C37.1305 57.6721 37.1003 58.2859 37.205 58.8992C37.3031 59.4717 37.3257 60.0765 37.4294 60.6832C37.5285 61.2598 37.8615 61.8117 37.9647 62.4139C38.0648 62.995 38.0693 63.6027 38.1725 64.2014C38.2731 64.7855 38.2982 65.3893 38.4014 65.9854C38.5025 66.5721 38.7415 67.1396 38.8436 67.7327C38.9457 68.3219 38.9789 68.9246 39.0816 69.5157C39.1837 70.1069 39.3517 70.6875 39.4534 71.2761C39.5565 71.8703 39.4639 72.4956 39.565 73.0828C39.6687 73.6794 39.882 74.2525 39.9836 74.8361C40.0878 75.4358 40.2005 76.0259 40.3016 76.6065C40.4057 77.2097 40.4535 77.8099 40.5536 78.386C40.6593 78.9942 40.7655 79.5854 40.8646 80.1574C40.9712 80.7722 41.1619 81.3483 41.26 81.9113C41.3687 82.5381 41.5121 83.1237 41.6082 83.6746C41.7214 84.3242 41.7475 84.9304 41.8396 85.4566C41.9654 86.1816 42.0423 86.7843 42.1198 87.2291C42.2104 87.7498 42.6929 88.0391 43.2277 88.0391C44.1398 88.0391 44.1398 88.2464 45.0514 88.2464C45.9635 88.2464 45.9635 88.1387 46.8752 88.1387C47.7873 88.1387 47.7873 88.0356 48.6994 88.0356C49.6116 88.0356 49.6116 88.0059 50.5242 88.0059C51.4358 88.0059 51.4358 88.0632 52.348 88.0632C53.2601 88.0632 53.2601 88.0069 54.1722 88.0069C55.0848 88.0069 55.0848 88.1996 55.997 88.1996C56.9091 88.1996 56.9091 88.1457 57.8212 88.1457C58.7339 88.1457 58.7339 88.0054 59.6465 88.0054C60.5586 88.0054 60.5586 88.1261 61.4713 88.1261C62.3834 88.1261 62.3834 88.2116 63.2955 88.2116C64.2082 88.2116 64.2082 88.1075 65.1203 88.1075C66.0334 88.1075 66.0334 88.1483 66.9461 88.1483C67.8582 88.1483 67.8582 88.1055 68.7708 88.1055C69.683 88.1055 69.683 88.021 70.5956 88.021C71.5067 88.021 71.5067 88.1276 72.4183 88.1276C73.331 88.1276 73.331 88.2121 74.2436 88.2121C75.1552 88.2121 75.1552 88.2393 76.0674 88.2393C76.98 88.2393 76.98 88.0134 77.8931 88.0134C78.8053 88.0134 78.8053 88.2227 79.7174 88.2227C80.63 88.2227 80.63 88.2011 81.5427 88.2011C82.4558 88.2011 82.4558 88.1306 83.3689 88.1306C84.2821 88.1306 84.2821 87.9978 85.1952 87.9978C86.1083 87.9978 86.1083 88.1991 87.0215 88.1991C87.9346 88.1991 87.9346 88.0844 88.8472 88.0844C89.7604 88.0844 89.7604 88.1357 90.6735 88.1357C91.5862 88.1357 91.5862 88.0788 92.4998 88.0788C93.4144 88.0788 93.4144 88.0532 94.3291 88.0532C95.2437 88.0532 95.2437 88.1397 96.1584 88.1397C96.8486 88.1397 97.3673 87.5013 97.2365 86.8316C97.0645 85.9492 97.1354 85.9351 96.9633 85.0526C96.7913 84.1722 96.833 84.1637 96.6615 83.2822C96.4894 82.3998 96.4587 82.4063 96.2867 81.5239C96.1146 80.6419 96.1262 80.6399 95.9546 79.758C95.7821 78.875 95.5788 78.9148 95.4067 78.0318C95.2347 77.1499 95.3202 77.1333 95.1481 76.2513C94.9766 75.3684 95.0787 75.3487 94.9067 74.4663C94.7346 73.5839 94.5837 73.6125 94.4121 72.7296C94.24 71.8466 94.4247 71.8109 94.2521 70.928C94.0806 70.046 94.0931 70.0435 93.9211 69.1621C93.749 68.2791 93.673 68.2937 93.501 67.4107C93.3289 66.5278 93.3028 66.5328 93.1312 65.6499C92.9591 64.7664 92.8208 64.7936 92.6487 63.9101C92.4761 63.0252 92.6256 62.9965 92.453 62.112C92.2804 61.2271 92.3287 61.2175 92.1562 60.3331C92.0566 59.8219 91.5253 59.5915 90.9985 59.5915C90.1186 59.5915 90.1186 59.4149 89.2387 59.4149C88.3577 59.4149 88.3577 59.4008 87.4768 59.4008C86.5969 59.4008 86.5969 59.3611 85.7169 59.3611C84.836 59.3611 84.836 59.3711 83.9545 59.3711C83.0741 59.3711 83.0741 59.3958 82.1937 59.3958C81.3122 59.3958 81.3122 59.3832 80.4318 59.3832C79.5509 59.3832 79.5509 59.5371 78.6699 59.5371C77.789 59.5371 77.789 59.3445 76.9076 59.3445C76.0261 59.3445 76.0261 59.514 75.1442 59.514C74.2627 59.514 74.2627 59.4597 73.3808 59.4597C72.5003 59.4597 72.5003 59.4561 71.6199 59.4561C70.738 59.4561 70.738 59.4959 69.8565 59.4959C68.9751 59.4959 68.9751 59.3726 68.0931 59.3726C67.2112 59.3726 67.2112 59.4778 66.3293 59.4778C65.4458 59.4778 65.4458 59.3922 64.5629 59.3922C63.6794 59.3922 63.6794 59.4888 62.7959 59.4888C62.2491 59.4888 61.7092 59.0813 61.6318 58.5465C61.5045 57.6661 61.4572 57.6731 61.3299 56.7927C61.2026 55.9123 61.4134 55.8816 61.2861 55.0006C61.1588 54.1187 61.029 54.1373 60.9018 53.2554C60.7745 52.3734 60.9289 52.3508 60.8016 51.4693C60.7242 50.934 60.1486 50.517 59.6017 50.517C58.667 50.517 58.667 50.6271 57.7317 50.6271C56.7964 50.6271 56.7964 50.5029 55.8601 50.5029C54.9249 50.5029 54.9249 50.6734 53.9896 50.6734C53.0538 50.6734 53.0538 50.4983 52.118 50.4983C51.1823 50.4983 51.1823 50.5386 50.246 50.5386C49.3097 50.5386 49.3097 50.6342 48.3734 50.6342C47.4371 50.6342 47.4371 50.4858 46.5014 50.4858C45.5656 50.4858 45.5656 50.4717 44.6293 50.4717C43.6935 50.4717 43.6935 50.5386 42.7573 50.5386C41.821 50.5386 41.821 50.5079 40.8852 50.5079C39.9469 50.5079 39.9469 50.5084 39.0096 50.5084C38.0718 50.5084 38.0718 50.4737 37.1335 50.4737C36.4574 50.4737 36.0312 51.1348 36.1379 51.7948Z" stroke="#414C58" stroke-width="1.01115" stroke-linecap="round"/>
</g>
<defs>
<clipPath id="clip0">
<rect width="135.335" height="81" fill="white" transform="translate(0 8)"/>
</clipPath>
</defs>
</svg>
