<svg width="136" height="96" viewBox="0 0 136 96" fill="none" xmlns="http://www.w3.org/2000/svg">
<g id="Illustrations / Help Bulk Contacts ">
<path id="Vector" d="M94.9034 6.7557C95.858 7.14777 95.6364 7.4944 96.3637 8.22172C97.0911 8.94904 97.1252 8.92631 97.8525 9.65932C98.5798 10.3923 98.6196 10.3525 99.3526 11.0855C100.086 11.8185 99.9889 11.9095 100.722 12.6425C101.455 13.3755 101.512 13.313 102.245 14.046C102.978 14.779 102.91 14.8415 103.637 15.5745C104.364 16.3075 104.353 16.3245 105.08 17.0519L106.546 18.5179C107.279 19.2452 107.274 19.2509 108.007 19.9839C108.74 20.7169 108.757 20.6998 109.49 21.4328C110.223 22.1658 110.274 22.1147 111.007 22.8477C111.74 23.5807 112.081 23.3648 112.478 24.3194C112.876 25.274 112.45 25.3479 112.45 26.365C112.45 27.3821 112.353 27.3878 112.353 28.4049C112.353 29.422 112.353 29.422 112.353 30.4391C112.353 31.4562 112.353 31.4562 112.353 32.479C112.353 33.5018 112.427 33.4962 112.427 34.5133C112.427 35.5304 112.388 35.5304 112.388 36.5532C112.388 37.576 112.615 37.5703 112.615 38.5874V40.6273C112.615 41.6444 112.518 41.6444 112.518 42.6615C112.518 43.6787 112.586 43.6843 112.586 44.7015V46.7357C112.586 47.7528 112.41 47.7528 112.41 48.7756C112.41 49.7984 112.547 49.7927 112.547 50.8098C112.547 51.8269 112.547 51.8269 112.547 52.8441C112.547 53.8612 112.496 53.8669 112.496 54.884C112.496 55.9011 112.405 55.9011 112.405 56.9182C112.405 57.9353 112.609 57.941 112.609 58.9581C112.609 59.9752 112.478 59.9752 112.478 60.998C112.478 62.0208 112.53 62.0151 112.53 63.0322C112.53 64.0494 112.53 64.055 112.53 65.0722C112.53 66.0893 112.53 66.0949 112.53 67.1121C112.53 68.1292 112.45 68.1292 112.45 69.152C112.45 70.1748 112.45 70.1691 112.45 71.1919C112.45 72.2147 112.53 72.209 112.53 73.2318C112.53 74.2546 112.53 74.2489 112.53 75.2717C112.53 76.2945 113.098 76.5047 112.393 77.2321C111.689 77.9594 111.461 77.3457 110.444 77.3457C109.427 77.3457 109.427 77.2718 108.416 77.2718C107.404 77.2718 107.399 77.3571 106.387 77.3571C105.376 77.3571 105.37 77.1923 104.353 77.1923C103.336 77.1923 103.341 77.3741 102.324 77.3741H100.29C99.2787 77.3741 99.2787 77.2037 98.2616 77.2037C97.2445 77.2037 97.2445 77.2434 96.2331 77.2434H94.1988C93.1874 77.2434 93.1874 77.4309 92.1703 77.4309C91.1532 77.4309 91.1531 77.4025 90.1417 77.4025C89.1303 77.4025 89.1246 77.3002 88.1075 77.3002C87.0904 77.3002 87.0961 77.3798 86.079 77.3798C85.0619 77.3798 85.0675 77.1809 84.0504 77.1809C83.0333 77.1809 83.0333 77.3287 82.0219 77.3287C81.0104 77.3287 81.0047 77.1923 79.9876 77.1923C78.9705 77.1923 78.9762 77.2946 77.9591 77.2946C76.942 77.2946 76.942 77.2094 75.9249 77.2094C74.9078 77.2094 74.9134 77.2662 73.8963 77.2662C72.8792 77.2662 72.8792 77.2662 71.8621 77.2662C70.845 77.2662 70.8449 77.1866 69.8278 77.1866C68.8107 77.1866 68.8164 77.3855 67.7993 77.3855C66.7822 77.3855 66.7822 77.1582 65.7651 77.1582C64.748 77.1582 64.7479 77.3457 63.7308 77.3457C62.7137 77.3457 62.7137 77.4025 61.6966 77.4025C60.6795 77.4025 60.4522 77.9367 59.7419 77.215C59.0316 76.4934 59.5715 76.2547 59.5715 75.2149C59.5715 74.175 59.7988 74.1807 59.7988 73.1466C59.7988 72.1124 59.759 72.1067 59.759 71.0726C59.759 70.0384 59.759 70.0384 59.759 68.9986C59.759 67.9587 59.634 67.9587 59.634 66.9245C59.634 65.8904 59.634 65.8847 59.634 64.8505C59.634 63.8164 59.634 63.8164 59.634 62.7765C59.634 61.7367 59.5601 61.7424 59.5601 60.7025C59.5601 59.6627 59.776 59.6684 59.776 58.6285C59.776 57.5887 59.5147 57.5944 59.5147 56.5545C59.5147 55.5147 59.6283 55.5204 59.6283 54.4805C59.6283 53.4407 59.7817 53.4464 59.7817 52.4065C59.7817 51.3667 59.6397 51.3667 59.6397 50.3325C59.6397 49.2984 59.6397 49.2927 59.6397 48.2585C59.6397 47.2244 59.7135 47.2187 59.7135 46.1845C59.7135 45.1504 59.7135 45.1447 59.7135 44.1105C59.7135 43.0763 59.5772 43.0707 59.5772 42.0308C59.5772 40.991 59.5204 40.9967 59.5204 39.9568C59.5204 38.917 59.5204 38.9227 59.5204 37.8828C59.5204 36.843 59.7192 36.8487 59.7192 35.8088C59.7192 34.769 59.7192 34.7747 59.7192 33.7348C59.7192 32.695 59.5374 32.7007 59.5374 31.6608C59.5374 30.621 59.6453 30.6266 59.6453 29.5868C59.6453 28.5469 59.5204 28.5526 59.5204 27.5128C59.5204 26.4729 59.7476 26.4729 59.7476 25.4388C59.7476 24.4046 59.5147 24.3989 59.5147 23.3648C59.5147 22.3306 59.6283 22.3249 59.6283 21.2851C59.6283 20.2453 59.5544 20.2509 59.5544 19.2111C59.5544 18.1713 59.7419 18.1713 59.7419 17.1314C59.7419 16.0916 59.6055 16.0973 59.6055 15.0574C59.6055 14.0176 59.7703 14.0176 59.7703 12.9834C59.7703 11.9492 59.5374 11.9436 59.5374 10.9037C59.5374 9.86388 59.6283 9.86388 59.6283 8.82403C59.6283 7.78419 58.9066 7.47165 59.6283 6.73297C60.3499 5.99428 60.6738 6.73297 61.7137 6.73297C62.7535 6.73297 62.7478 6.84662 63.782 6.84662C64.8162 6.84662 64.8218 6.84662 65.856 6.84662C66.8901 6.84662 66.8901 6.72161 67.9243 6.72161C68.9584 6.72161 68.9641 6.85231 69.9983 6.85231C71.0325 6.85231 71.0382 6.64207 72.0723 6.64207C73.1065 6.64207 73.1065 6.90912 74.1463 6.90912C75.1862 6.90912 75.1805 6.90912 76.2147 6.90912C77.2488 6.90912 77.2545 6.73297 78.2886 6.73297C79.3228 6.73297 79.3285 6.76139 80.3626 6.76139C81.3968 6.76139 81.4025 6.81253 82.4367 6.81253H84.5107C85.5505 6.81253 85.5505 6.72161 86.5847 6.72161C87.6189 6.72161 87.6245 6.66478 88.6586 6.66478C89.6928 6.66478 89.6985 6.73297 90.7327 6.73297C91.4216 6.787 92.1142 6.77559 92.801 6.69888C93.8579 6.52841 93.9431 6.35795 94.9034 6.7557Z" fill="#C7C7FF"/>
<path id="Vector_2" d="M94.9034 6.7557C95.858 7.14777 95.6364 7.4944 96.3637 8.22172C97.0911 8.94904 97.1252 8.92631 97.8525 9.65932C98.5798 10.3923 98.6196 10.3525 99.3526 11.0855C100.086 11.8185 99.9889 11.9095 100.722 12.6425C101.455 13.3755 101.512 13.313 102.245 14.046C102.978 14.779 102.91 14.8415 103.637 15.5745C104.364 16.3075 104.353 16.3245 105.08 17.0519L106.546 18.5179C107.279 19.2452 107.274 19.2509 108.007 19.9839C108.74 20.7169 108.757 20.6998 109.49 21.4328C110.223 22.1658 110.274 22.1147 111.007 22.8477C111.74 23.5807 112.081 23.3648 112.478 24.3194C112.876 25.274 112.45 25.3479 112.45 26.365C112.45 27.3821 112.353 27.3878 112.353 28.4049C112.353 29.422 112.353 29.422 112.353 30.4391C112.353 31.4562 112.353 31.4562 112.353 32.479C112.353 33.5018 112.427 33.4962 112.427 34.5133C112.427 35.5304 112.388 35.5304 112.388 36.5532C112.388 37.576 112.615 37.5703 112.615 38.5874V40.6273C112.615 41.6444 112.518 41.6444 112.518 42.6615C112.518 43.6787 112.586 43.6843 112.586 44.7015V46.7357C112.586 47.7528 112.41 47.7528 112.41 48.7756C112.41 49.7984 112.547 49.7927 112.547 50.8098C112.547 51.8269 112.547 51.8269 112.547 52.8441C112.547 53.8612 112.496 53.8669 112.496 54.884C112.496 55.9011 112.405 55.9011 112.405 56.9182C112.405 57.9353 112.609 57.941 112.609 58.9581C112.609 59.9752 112.478 59.9752 112.478 60.998C112.478 62.0208 112.53 62.0151 112.53 63.0322C112.53 64.0494 112.53 64.055 112.53 65.0722C112.53 66.0893 112.53 66.0949 112.53 67.1121C112.53 68.1292 112.45 68.1292 112.45 69.152C112.45 70.1748 112.45 70.1691 112.45 71.1919C112.45 72.2147 112.53 72.209 112.53 73.2318C112.53 74.2546 112.53 74.2489 112.53 75.2717C112.53 76.2945 113.098 76.5047 112.393 77.2321C111.689 77.9594 111.461 77.3457 110.444 77.3457C109.427 77.3457 109.427 77.2718 108.416 77.2718C107.404 77.2718 107.399 77.3571 106.387 77.3571C105.376 77.3571 105.37 77.1923 104.353 77.1923C103.336 77.1923 103.341 77.3741 102.324 77.3741H100.29C99.2787 77.3741 99.2787 77.2037 98.2616 77.2037C97.2445 77.2037 97.2445 77.2434 96.2331 77.2434H94.1988C93.1874 77.2434 93.1874 77.4309 92.1703 77.4309C91.1532 77.4309 91.1531 77.4025 90.1417 77.4025C89.1303 77.4025 89.1246 77.3002 88.1075 77.3002C87.0904 77.3002 87.0961 77.3798 86.079 77.3798C85.0619 77.3798 85.0675 77.1809 84.0504 77.1809C83.0333 77.1809 83.0333 77.3287 82.0219 77.3287C81.0104 77.3287 81.0047 77.1923 79.9876 77.1923C78.9705 77.1923 78.9762 77.2946 77.9591 77.2946C76.942 77.2946 76.942 77.2093 75.9249 77.2093C74.9078 77.2093 74.9134 77.2662 73.8963 77.2662C72.8792 77.2662 72.8792 77.2662 71.8621 77.2662C70.845 77.2662 70.8449 77.1866 69.8278 77.1866C68.8107 77.1866 68.8164 77.3855 67.7993 77.3855C66.7822 77.3855 66.7822 77.1582 65.7651 77.1582C64.748 77.1582 64.7479 77.3457 63.7308 77.3457C62.7137 77.3457 62.7137 77.4025 61.6966 77.4025C60.6795 77.4025 60.4522 77.9367 59.7419 77.215C59.0316 76.4934 59.5715 76.2547 59.5715 75.2149C59.5715 74.175 59.7988 74.1807 59.7988 73.1466C59.7988 72.1124 59.759 72.1067 59.759 71.0726C59.759 70.0384 59.759 70.0384 59.759 68.9986C59.759 67.9587 59.634 67.9587 59.634 66.9245C59.634 65.8904 59.634 65.8847 59.634 64.8505C59.634 63.8164 59.634 63.8164 59.634 62.7765C59.634 61.7367 59.5601 61.7424 59.5601 60.7025C59.5601 59.6627 59.776 59.6684 59.776 58.6285C59.776 57.5887 59.5147 57.5944 59.5147 56.5545C59.5147 55.5147 59.6283 55.5204 59.6283 54.4805C59.6283 53.4407 59.7817 53.4464 59.7817 52.4065C59.7817 51.3667 59.6397 51.3667 59.6397 50.3325C59.6397 49.2984 59.6397 49.2927 59.6397 48.2585C59.6397 47.2244 59.7135 47.2187 59.7135 46.1845C59.7135 45.1504 59.7135 45.1447 59.7135 44.1105C59.7135 43.0763 59.5772 43.0707 59.5772 42.0308C59.5772 40.991 59.5204 40.9967 59.5204 39.9568C59.5204 38.917 59.5204 38.9227 59.5204 37.8828C59.5204 36.843 59.7192 36.8487 59.7192 35.8088C59.7192 34.769 59.7192 34.7747 59.7192 33.7348C59.7192 32.695 59.5374 32.7007 59.5374 31.6608C59.5374 30.621 59.6453 30.6266 59.6453 29.5868C59.6453 28.5469 59.5204 28.5526 59.5204 27.5128C59.5204 26.4729 59.7476 26.4729 59.7476 25.4388C59.7476 24.4046 59.5147 24.3989 59.5147 23.3648C59.5147 22.3306 59.6283 22.3249 59.6283 21.2851C59.6283 20.2453 59.5544 20.2509 59.5544 19.2111C59.5544 18.1713 59.7419 18.1713 59.7419 17.1314C59.7419 16.0916 59.6055 16.0973 59.6055 15.0574C59.6055 14.0176 59.7703 14.0176 59.7703 12.9834C59.7703 11.9492 59.5374 11.9436 59.5374 10.9037C59.5374 9.86388 59.6283 9.86388 59.6283 8.82403C59.6283 7.78419 58.9066 7.47165 59.6283 6.73297C60.3499 5.99428 60.6738 6.73297 61.7137 6.73297C62.7535 6.73297 62.7478 6.84662 63.782 6.84662C64.8162 6.84662 64.8218 6.84662 65.856 6.84662C66.8901 6.84662 66.8901 6.72161 67.9243 6.72161C68.9584 6.72161 68.9641 6.85231 69.9983 6.85231C71.0325 6.85231 71.0382 6.64207 72.0723 6.64207C73.1065 6.64207 73.1065 6.90912 74.1463 6.90912C75.1862 6.90912 75.1805 6.90912 76.2147 6.90912C77.2488 6.90912 77.2545 6.73297 78.2886 6.73297C79.3228 6.73297 79.3285 6.76139 80.3626 6.76139C81.3968 6.76139 81.4025 6.81253 82.4367 6.81253H84.5107C85.5505 6.81253 85.5505 6.72161 86.5847 6.72161C87.6189 6.72161 87.6245 6.66478 88.6586 6.66478C89.6928 6.66478 89.6985 6.73297 90.7327 6.73297C91.4216 6.787 92.1142 6.77559 92.801 6.69888C93.8579 6.52841 93.9431 6.35795 94.9034 6.7557Z" stroke="#6A69FF" stroke-width="0.85233" stroke-miterlimit="10" stroke-linecap="round"/>
<path id="Vector_3" d="M103.444 38.977C102.41 38.977 102.41 38.7327 101.37 38.7327H99.2958C98.2617 38.7327 98.2616 38.8463 97.2218 38.8463C96.182 38.8463 96.1876 38.9145 95.1535 38.9145C94.1193 38.9145 94.1136 38.8008 93.0795 38.8008C92.0453 38.8008 92.0396 38.96 91.0054 38.96C89.9713 38.96 89.9656 38.7838 88.9314 38.7838C87.8973 38.7838 87.8916 38.8918 86.8575 38.8918C85.8233 38.8918 85.8176 38.7952 84.7778 38.7952C83.7379 38.7952 83.7436 38.869 82.7038 38.869C81.6639 38.869 81.6639 38.9429 80.6297 38.9429C79.5956 38.9429 79.5899 38.9429 78.5558 38.9429C77.5216 38.9429 77.5159 38.8065 76.4761 38.8065C75.4362 38.8065 75.4419 38.8065 74.4021 38.8065C73.3622 38.8065 73.3622 38.7611 72.328 38.7611C71.2939 38.7611 71.2882 38.8122 70.2484 38.8122C69.2086 38.8122 69.2085 38.9372 68.1687 38.9372" stroke="#6A69FF" stroke-width="0.85233" stroke-linecap="round" stroke-linejoin="round"/>
<path id="Vector_4" d="M85.7494 32.3914C85.7494 33.3744 85.9255 33.3744 85.9255 34.3631C85.9255 35.3518 85.7437 35.3461 85.7437 36.3291C85.7437 37.3121 85.8914 37.3178 85.8914 38.3008C85.8914 39.2839 85.6982 39.2896 85.6982 40.2783C85.6982 41.267 85.8006 41.2613 85.8006 42.2443V44.216C85.8006 45.2047 85.7324 45.2047 85.7324 46.1877C85.7324 47.1708 85.8175 47.1765 85.8175 48.1595C85.8175 49.1425 85.7039 49.1482 85.7039 50.1369C85.7039 51.1256 85.7039 51.1256 85.7039 52.1143" stroke="#6A69FF" stroke-width="0.85233" stroke-linecap="round" stroke-linejoin="round"/>
<path id="Vector_5" d="M68.2198 52.1143C68.2198 51.1255 68.2198 51.1256 68.2198 50.1369C68.2198 49.1482 68.2198 49.1481 68.2198 48.1594C68.2198 47.1707 68.1232 47.1707 68.1232 46.182C68.1232 45.1933 68.1232 45.1933 68.1232 44.2046C68.1232 43.2159 68.288 43.2159 68.288 42.2272C68.288 41.2385 68.0948 41.2385 68.0948 40.2498C68.0948 39.2611 68.1914 39.2611 68.1914 38.2724C68.1914 37.2837 68.1573 37.2837 68.1573 36.295C68.1573 35.3063 68.2369 35.3006 68.2369 34.3119C68.2369 33.3232 67.538 33.1016 68.2369 32.4197C68.9358 31.7379 69.1915 32.3743 70.2257 32.3743C71.2598 32.3743 71.2655 32.3743 72.2997 32.3743H74.3736C75.4078 32.3743 75.4078 32.3743 76.4477 32.3743C77.4875 32.3743 77.4818 32.3743 78.5217 32.3743C79.5615 32.3743 79.5558 32.3402 80.5957 32.3402C81.6355 32.3402 81.6299 32.2606 82.6697 32.2606C83.7095 32.2606 83.7038 32.3743 84.7437 32.3743C85.7835 32.3743 85.7778 32.272 86.8177 32.272C87.8575 32.272 87.8575 32.2095 88.8917 32.2095C89.9258 32.2095 89.9315 32.2095 90.9657 32.2095C91.9999 32.2095 92.0056 32.3402 93.0454 32.3402C94.0853 32.3402 94.0795 32.2322 95.1194 32.2322C96.1592 32.2322 96.1592 32.4311 97.1934 32.4311C98.2275 32.4311 98.2332 32.2152 99.2731 32.2152C100.313 32.2152 100.313 32.2152 101.347 32.2152C102.381 32.2152 102.648 31.647 103.404 32.3572C104.16 33.0675 103.353 33.3175 103.353 34.3062C103.353 35.2949 103.546 35.2949 103.546 36.2836C103.546 37.2723 103.472 37.2723 103.472 38.261C103.472 39.2497 103.398 39.2497 103.398 40.2385C103.398 41.2272 103.347 41.2272 103.347 42.2159C103.347 43.2046 103.404 43.2046 103.404 44.1933C103.404 45.182 103.54 45.182 103.54 46.1707C103.54 47.1594 103.353 47.1594 103.353 48.1481C103.353 49.1368 103.353 49.1368 103.353 50.1312C103.353 51.1256 103.353 51.1199 103.353 52.1143" stroke="#6A69FF" stroke-width="0.85233" stroke-linecap="round" stroke-linejoin="round"/>
<path id="Vector_6" d="M103.444 52.1654C102.41 52.1654 102.41 52.2506 101.37 52.2506C100.33 52.2506 100.336 52.1767 99.2958 52.1767H97.2218C96.1876 52.1767 96.1876 52.0631 95.1535 52.0631C94.1193 52.0631 94.1136 52.2506 93.0794 52.2506H91.0054C89.9656 52.2506 89.9656 52.1767 88.9314 52.1767C87.8972 52.1767 87.8916 52.1767 86.8575 52.1767C85.8233 52.1767 85.8176 52.0915 84.7777 52.0915H82.7151C81.6753 52.0915 81.6752 52.2108 80.6411 52.2108C79.6069 52.2108 79.6012 52.0801 78.5671 52.0801C77.5329 52.0801 77.5273 52.1654 76.4874 52.1654C75.4476 52.1654 75.4533 52.2904 74.4134 52.2904C73.3736 52.2904 73.3736 52.1654 72.3394 52.1654C71.3052 52.1654 71.2995 52.1142 70.2597 52.1142H68.1801" stroke="#6A69FF" stroke-width="0.85233" stroke-linecap="round" stroke-linejoin="round"/>
<path id="Vector_7" d="M103.444 45.574C102.41 45.574 102.41 45.574 101.37 45.574C100.33 45.574 100.336 45.3695 99.2958 45.3695C98.256 45.3695 98.2616 45.4945 97.2218 45.4945C96.182 45.4945 96.1876 45.4945 95.1535 45.4945H93.0795C92.0396 45.4945 92.0396 45.449 91.0054 45.449C89.9713 45.449 89.9656 45.5343 88.9314 45.5343C87.8973 45.5343 87.8916 45.3354 86.8575 45.3354C85.8233 45.3354 85.8176 45.3979 84.7778 45.3979C83.7379 45.3979 83.7436 45.2956 82.7038 45.2956C81.6639 45.2956 81.6639 45.5058 80.6297 45.5058C79.5956 45.5058 79.5899 45.4604 78.5558 45.4604C77.5216 45.4604 77.5159 45.3808 76.4761 45.3808C75.4362 45.3808 75.4419 45.324 74.4021 45.324C73.3622 45.324 73.3622 45.449 72.328 45.449C71.2939 45.449 71.2882 45.4945 70.2484 45.4945C69.2086 45.4945 69.2085 45.3808 68.1687 45.3808" stroke="#6A69FF" stroke-width="0.85233" stroke-linecap="round" stroke-linejoin="round"/>
<path id="Vector_8" d="M95.0284 8.10237C95.0284 9.09107 95.0739 9.09107 95.0739 10.0741C95.0739 11.0571 94.9772 11.0628 94.9772 12.0515C94.9772 13.0402 95.0171 13.0402 95.0171 14.0289C95.0171 15.0176 95.142 15.0176 95.142 16.0063C95.142 16.995 95.0171 16.9893 95.0171 17.978C95.0171 18.9667 94.8921 18.9668 94.8921 19.9555C94.8921 20.9442 94.8921 20.9498 94.8921 21.9385C94.8921 22.9272 94.9489 22.9272 94.9489 23.9159C94.9622 24.0509 95.0234 24.1766 95.1214 24.2704C95.2193 24.3642 95.3476 24.4199 95.483 24.4273C96.4717 24.4273 96.4717 24.2966 97.4604 24.2966C98.4491 24.2966 98.4491 24.433 99.4378 24.433C100.427 24.433 100.427 24.433 101.41 24.433C102.393 24.433 102.398 24.5012 103.387 24.5012C104.376 24.5012 104.376 24.4501 105.364 24.4501C106.353 24.4501 106.353 24.291 107.342 24.291C108.33 24.291 108.33 24.3251 109.319 24.3251C110.308 24.3251 110.314 24.4273 111.302 24.4273C111.397 24.4101 111.485 24.3691 111.559 24.3084C111.634 24.2477 111.692 24.1691 111.727 24.08C111.763 23.9909 111.776 23.8943 111.764 23.799C111.752 23.7037 111.716 23.613 111.66 23.5352C110.944 22.8193 110.904 22.8534 110.189 22.1374C109.473 21.4215 109.569 21.3135 108.853 20.5975C108.137 19.8816 108.069 19.9441 107.347 19.2281C106.626 18.5122 106.597 18.5406 105.876 17.8246C105.154 17.1087 105.126 17.1428 104.404 16.4211C103.682 15.6995 103.677 15.7165 102.961 14.9949C102.245 14.2732 102.25 14.2676 101.535 13.5459C100.819 12.8243 100.767 12.8697 100.051 12.1538C99.3355 11.4378 99.4151 11.3469 98.6934 10.631C97.9718 9.915 97.8979 9.98318 97.1819 9.26154C96.466 8.5399 96.6137 8.36944 95.9148 7.6478C95.6193 7.36937 95.0284 7.6762 95.0284 8.10237Z" fill="#ECECFF"/>
<path id="Vector_9" d="M95.0284 8.10237C95.0284 9.09107 95.0739 9.09107 95.0739 10.0741C95.0739 11.0571 94.9772 11.0628 94.9772 12.0515C94.9772 13.0402 95.0171 13.0402 95.0171 14.0289C95.0171 15.0176 95.142 15.0176 95.142 16.0063C95.142 16.995 95.0171 16.9893 95.0171 17.978C95.0171 18.9667 94.8921 18.9667 94.8921 19.9555C94.8921 20.9442 94.8921 20.9498 94.8921 21.9385C94.8921 22.9272 94.9489 22.9272 94.9489 23.9159C94.9622 24.0509 95.0234 24.1766 95.1214 24.2704C95.2193 24.3642 95.3476 24.4199 95.483 24.4273C96.4717 24.4273 96.4717 24.2966 97.4604 24.2966C98.4491 24.2966 98.4491 24.433 99.4378 24.433C100.427 24.433 100.427 24.433 101.41 24.433C102.393 24.433 102.398 24.5012 103.387 24.5012C104.376 24.5012 104.376 24.4501 105.364 24.4501C106.353 24.4501 106.353 24.291 107.342 24.291C108.33 24.291 108.33 24.3251 109.319 24.3251C110.308 24.3251 110.314 24.4273 111.302 24.4273C111.397 24.4101 111.485 24.3691 111.559 24.3084C111.634 24.2477 111.692 24.1691 111.727 24.08C111.763 23.9909 111.776 23.8943 111.764 23.799C111.752 23.7037 111.716 23.613 111.66 23.5352C110.944 22.8193 110.904 22.8534 110.189 22.1374C109.473 21.4215 109.569 21.3135 108.853 20.5975C108.137 19.8816 108.069 19.9441 107.347 19.2281C106.626 18.5122 106.597 18.5406 105.876 17.8246C105.154 17.1087 105.126 17.1428 104.404 16.4211C103.682 15.6995 103.677 15.7165 102.961 14.9949C102.245 14.2732 102.25 14.2676 101.535 13.5459C100.819 12.8243 100.767 12.8697 100.051 12.1538C99.3355 11.4378 99.4151 11.3469 98.6934 10.631C97.9718 9.915 97.8979 9.98318 97.1819 9.26154C96.466 8.5399 96.6137 8.36944 95.9148 7.6478C95.6193 7.36937 95.0284 7.6762 95.0284 8.10237Z" stroke="#6A69FF" stroke-width="0.85233" stroke-miterlimit="10" stroke-linecap="round"/>
<path id="Vector_10" d="M112.478 66.3847C112.088 65.7707 111.649 65.1893 111.166 64.6459C110.648 64.142 110.089 63.6821 109.495 63.2708C108.95 62.7959 108.366 62.3664 107.751 61.9866C107.085 61.7009 106.397 61.4709 105.694 61.2991C104.323 60.8654 102.913 60.5684 101.483 60.4127C100.789 60.4153 100.096 60.4704 99.4094 60.5774C98.7358 60.7448 98.0765 60.9652 97.4377 61.2366C96.7807 61.4337 96.1404 61.6826 95.5228 61.981C94.8952 62.2694 94.2927 62.6096 93.7215 62.9981C93.1536 63.3947 92.6178 63.8355 92.1192 64.3163C91.6623 64.8352 91.248 65.3901 90.8804 65.9755C90.415 66.4923 89.9913 67.0452 89.6133 67.629C89.3722 68.28 89.1822 68.9487 89.0451 69.6292C88.8032 70.274 88.6132 70.9372 88.4769 71.6123C88.3599 72.2938 88.2972 72.9835 88.2894 73.6749C88.2616 74.2927 88.2768 74.9116 88.3348 75.5273C88.4465 76.1568 88.6021 76.7777 88.8007 77.3854C89.7496 77.6468 89.8008 77.3399 90.7838 77.3399C91.7668 77.3399 91.7725 77.3968 92.7556 77.3968C93.7386 77.3968 93.7386 77.3456 94.7216 77.3456C95.7046 77.3456 95.7103 77.3797 96.6933 77.3797C97.6763 77.3797 97.6763 77.2547 98.665 77.2547C99.6537 77.2547 99.6481 77.4536 100.631 77.4536C101.614 77.4536 101.614 77.3343 102.603 77.3343C103.592 77.3343 103.586 77.4365 104.569 77.4365C105.552 77.4365 105.558 77.3911 106.541 77.3911C107.524 77.3911 107.524 77.2547 108.512 77.2547C109.501 77.2547 109.495 77.3343 110.484 77.3343C111.473 77.3343 111.728 77.982 112.388 77.249C113.047 76.516 112.586 76.2205 112.586 75.1296C112.586 74.0386 112.405 74.0386 112.405 72.9476C112.405 71.8566 112.359 71.8566 112.359 70.7599C112.359 69.6633 112.359 69.6633 112.405 68.5723C112.45 67.4813 112.632 67.47 112.478 66.3847Z" fill="#414C58"/>
<path id="Vector_11" d="M73.7031 54.3725C72.6746 54.3725 72.6746 54.3725 71.6462 54.3725C70.6177 54.3725 70.6177 54.5316 69.5892 54.5316C68.5607 54.5316 68.5607 54.5771 67.5323 54.5771C66.5038 54.5771 66.4981 54.3441 65.4696 54.3441C64.4411 54.3441 64.4411 54.2987 63.4127 54.2987C62.3842 54.2987 62.3842 54.4748 61.3557 54.4748C60.3272 54.4748 60.3329 54.4293 59.3044 54.4293C58.276 54.4293 58.276 54.56 57.2475 54.56C56.219 54.56 56.219 54.5203 55.1905 54.5203C54.1621 54.5203 54.162 54.3214 53.1335 54.3214H51.0766C50.0481 54.3214 50.0481 54.543 49.0196 54.543C47.9911 54.543 47.9911 54.4123 46.957 54.4123C45.9228 54.4123 45.9285 54.5771 44.9 54.5771C43.8715 54.5771 43.8715 54.3441 42.843 54.3441C41.8146 54.3441 41.8146 54.5771 40.7861 54.5771C39.7576 54.5771 39.7519 54.4634 38.7235 54.4634C37.695 54.4634 37.695 54.5259 36.6665 54.5259C35.638 54.5259 35.638 54.3498 34.6039 54.3498C33.5697 54.3498 33.5754 54.4123 32.5412 54.4123C32.3754 54.4146 32.2109 54.3835 32.0575 54.3208C31.904 54.2581 31.7647 54.1651 31.648 54.0473C31.5313 53.9296 31.4396 53.7895 31.3783 53.6355C31.317 53.4814 31.2873 53.3166 31.2912 53.1508C31.2912 52.1508 31.3423 52.1508 31.3423 51.1507C31.3423 50.1507 31.1377 50.1507 31.1377 49.1506C31.1377 48.1505 31.2514 48.1505 31.2514 47.1504C31.2514 46.1504 31.3309 46.1504 31.3309 45.1503C31.3309 44.1502 31.3309 44.1503 31.3309 43.1502C31.3309 42.1501 31.1605 42.1444 31.1605 41.1444C31.1605 40.1443 31.1605 40.1443 31.1605 39.1442C31.1605 38.1442 31.365 38.1442 31.365 37.1441C31.365 36.144 31.2287 36.144 31.2287 35.1439C31.2287 34.1439 31.4048 34.1439 31.4048 33.1381C31.4048 32.1324 31.3423 32.1381 31.3423 31.138C31.3423 30.1379 31.3423 30.1323 31.3423 29.1322C31.3423 28.1321 31.2116 28.1264 31.2116 27.1264C31.2319 26.8786 31.3487 26.6487 31.5368 26.4861C31.7248 26.3235 31.9692 26.2413 32.2174 26.257C33.2629 26.257 33.2629 26.0808 34.3084 26.0808C35.354 26.0808 35.3539 26.1718 36.3995 26.1718C37.445 26.1718 37.445 26.1718 38.4905 26.1718C39.5361 26.1718 39.536 26.2797 40.5815 26.2797C41.6271 26.2797 41.6271 26.1206 42.6726 26.1206C43.7181 26.1206 43.7181 26.2399 44.7636 26.2399C45.8092 26.2399 45.8092 26.1547 46.8547 26.1547C47.9002 26.1547 47.9002 26.1547 48.9457 26.1547C49.9913 26.1547 49.9913 26.2854 51.0368 26.2854C52.0823 26.2854 52.0824 26.1092 53.1279 26.1092C54.1734 26.1092 54.1734 26.0468 55.2189 26.0468C56.2644 26.0468 56.2645 26.2002 57.31 26.2002C58.3555 26.2002 58.3555 26.0979 59.401 26.0979C60.4465 26.0979 60.4465 26.149 61.4921 26.149C62.5376 26.149 62.5432 26.1945 63.5888 26.1945C64.6343 26.1945 64.6343 26.1263 65.6799 26.1263C66.7254 26.1263 66.7253 26.2797 67.7709 26.2797C68.8164 26.2797 68.8164 26.1831 69.8676 26.1831C70.9188 26.1831 70.9131 26.2797 71.9643 26.2797C73.0155 26.2797 73.0099 26.2797 74.0611 26.2797C74.1792 26.268 74.2985 26.28 74.4119 26.315C74.5254 26.35 74.6307 26.4072 74.7217 26.4834C74.8127 26.5596 74.8876 26.6533 74.942 26.7588C74.9964 26.8643 75.0292 26.9796 75.0384 27.098C75.0384 28.098 74.9646 28.098 74.9646 29.1038C74.9646 30.1095 74.9646 30.1038 74.9646 31.1039C74.9646 32.104 74.9646 32.1097 74.9646 33.1097C74.9646 34.1098 75.0895 34.1098 75.0895 35.1155C75.0895 36.1213 75.1237 36.1156 75.1237 37.1157C75.1237 38.1157 74.9134 38.1214 74.9134 39.1215C74.9134 40.1216 75.1464 40.1272 75.1464 41.1273C75.1464 42.1274 75.0327 42.1331 75.0327 43.1331C75.0327 44.1332 75.152 44.1332 75.152 45.139C75.152 46.1447 74.9759 46.139 74.9759 47.1448C74.9759 48.1505 75.01 48.1448 75.01 49.1506C75.01 50.1563 75.01 50.1563 75.01 51.1621V53.1679C75.0222 53.3382 74.996 53.5092 74.9331 53.6679C74.8702 53.8267 74.7723 53.9693 74.6467 54.085C74.5212 54.2008 74.3711 54.2867 74.2077 54.3365C74.0444 54.3863 73.8719 54.3986 73.7031 54.3725Z" fill="#E6E6E6"/>
<path id="Vector_12" d="M73.7031 54.3725C72.6746 54.3725 72.6746 54.3725 71.6462 54.3725C70.6177 54.3725 70.6177 54.5316 69.5892 54.5316C68.5607 54.5316 68.5607 54.5771 67.5323 54.5771C66.5038 54.5771 66.4981 54.3441 65.4696 54.3441C64.4411 54.3441 64.4411 54.2987 63.4127 54.2987C62.3842 54.2987 62.3842 54.4748 61.3557 54.4748C60.3272 54.4748 60.3329 54.4293 59.3044 54.4293C58.276 54.4293 58.276 54.56 57.2475 54.56C56.219 54.56 56.219 54.5203 55.1905 54.5203C54.1621 54.5203 54.162 54.3214 53.1335 54.3214H51.0766C50.0481 54.3214 50.0481 54.543 49.0196 54.543C47.9911 54.543 47.9911 54.4123 46.957 54.4123C45.9228 54.4123 45.9285 54.5771 44.9 54.5771C43.8715 54.5771 43.8715 54.3441 42.843 54.3441C41.8146 54.3441 41.8146 54.5771 40.7861 54.5771C39.7576 54.5771 39.7519 54.4634 38.7235 54.4634C37.695 54.4634 37.695 54.5259 36.6665 54.5259C35.638 54.5259 35.638 54.3498 34.6039 54.3498C33.5697 54.3498 33.5754 54.4123 32.5412 54.4123C32.3754 54.4146 32.2109 54.3835 32.0575 54.3208C31.904 54.2581 31.7647 54.1651 31.648 54.0473C31.5313 53.9296 31.4396 53.7895 31.3783 53.6355C31.317 53.4814 31.2873 53.3166 31.2912 53.1508C31.2912 52.1508 31.3423 52.1508 31.3423 51.1507C31.3423 50.1507 31.1377 50.1507 31.1377 49.1506C31.1377 48.1505 31.2514 48.1505 31.2514 47.1504C31.2514 46.1504 31.3309 46.1504 31.3309 45.1503C31.3309 44.1502 31.3309 44.1503 31.3309 43.1502C31.3309 42.1501 31.1605 42.1444 31.1605 41.1444C31.1605 40.1443 31.1605 40.1443 31.1605 39.1442C31.1605 38.1442 31.365 38.1442 31.365 37.1441C31.365 36.144 31.2287 36.144 31.2287 35.1439C31.2287 34.1439 31.4048 34.1439 31.4048 33.1381C31.4048 32.1324 31.3423 32.1381 31.3423 31.138C31.3423 30.1379 31.3423 30.1323 31.3423 29.1322C31.3423 28.1321 31.2116 28.1264 31.2116 27.1264C31.2319 26.8786 31.3487 26.6487 31.5368 26.4861C31.7248 26.3235 31.9692 26.2413 32.2174 26.257C33.2629 26.257 33.2629 26.0808 34.3084 26.0808C35.354 26.0808 35.3539 26.1718 36.3995 26.1718C37.445 26.1718 37.445 26.1718 38.4905 26.1718C39.5361 26.1718 39.536 26.2797 40.5815 26.2797C41.6271 26.2797 41.6271 26.1206 42.6726 26.1206C43.7181 26.1206 43.7181 26.2399 44.7636 26.2399C45.8092 26.2399 45.8092 26.1547 46.8547 26.1547C47.9002 26.1547 47.9002 26.1547 48.9457 26.1547C49.9913 26.1547 49.9913 26.2854 51.0368 26.2854C52.0823 26.2854 52.0824 26.1092 53.1279 26.1092C54.1734 26.1092 54.1734 26.0468 55.2189 26.0468C56.2644 26.0468 56.2645 26.2002 57.31 26.2002C58.3555 26.2002 58.3555 26.0979 59.401 26.0979C60.4465 26.0979 60.4465 26.149 61.4921 26.149C62.5376 26.149 62.5432 26.1945 63.5888 26.1945C64.6343 26.1945 64.6343 26.1263 65.6799 26.1263C66.7254 26.1263 66.7253 26.2797 67.7709 26.2797C68.8164 26.2797 68.8164 26.1831 69.8676 26.1831C70.9188 26.1831 70.9131 26.2797 71.9643 26.2797C73.0155 26.2797 73.0099 26.2797 74.0611 26.2797C74.1792 26.268 74.2985 26.28 74.4119 26.315C74.5254 26.35 74.6307 26.4072 74.7217 26.4834C74.8127 26.5596 74.8876 26.6533 74.942 26.7588C74.9964 26.8643 75.0292 26.9796 75.0384 27.098C75.0384 28.098 74.9646 28.098 74.9646 29.1038C74.9646 30.1095 74.9646 30.1038 74.9646 31.1039C74.9646 32.104 74.9646 32.1097 74.9646 33.1097C74.9646 34.1098 75.0895 34.1098 75.0895 35.1155C75.0895 36.1213 75.1237 36.1156 75.1237 37.1157C75.1237 38.1157 74.9134 38.1214 74.9134 39.1215C74.9134 40.1216 75.1464 40.1272 75.1464 41.1273C75.1464 42.1274 75.0327 42.1331 75.0327 43.1331C75.0327 44.1332 75.152 44.1332 75.152 45.139C75.152 46.1447 74.9759 46.139 74.9759 47.1448C74.9759 48.1505 75.01 48.1448 75.01 49.1506C75.01 50.1563 75.01 50.1563 75.01 51.1621V53.1679C75.0222 53.3382 74.996 53.5092 74.9331 53.6679C74.8702 53.8267 74.7723 53.9693 74.6467 54.085C74.5212 54.2008 74.3711 54.2867 74.2077 54.3365C74.0444 54.3863 73.8719 54.3986 73.7031 54.3725Z" stroke="#414C58" stroke-width="0.85233" stroke-miterlimit="10" stroke-linecap="round"/>
<path id="Vector_13" d="M53.52 50.0938C52.4801 50.0938 52.4801 50.0938 51.4402 50.0938C50.4004 50.0938 50.3948 50.0938 49.3549 50.0938C48.3151 50.0938 48.3151 50.0143 47.2752 50.0143C46.2354 50.0143 46.2353 50.0995 45.1898 50.0995C44.1443 50.0995 44.15 50.0995 43.1102 50.0995C42.0703 50.0995 42.0703 50.1848 41.0305 50.1848C39.9906 50.1848 39.9849 49.9461 38.9451 49.9461C37.9052 49.9461 37.8996 50.0768 36.8598 50.0768C35.8199 50.0768 35.8142 49.9404 34.7744 49.9404C34.6752 49.9531 34.5745 49.9451 34.4786 49.9171C34.3827 49.8891 34.2935 49.8417 34.2168 49.7777C34.14 49.7137 34.0772 49.6346 34.0324 49.5453C33.9876 49.456 33.9615 49.3584 33.9561 49.2586C33.9561 48.2074 34.0584 48.2074 34.0584 47.1505C34.0584 46.0936 34.0584 46.0993 34.0584 45.0424C34.0584 43.9855 33.8368 43.9855 33.8368 42.9343C33.8368 41.8831 34.03 41.8774 34.03 40.8205C34.03 39.7636 34.0698 39.7693 34.0698 38.7124C34.0698 37.6555 34.1152 37.6555 34.1152 36.6043C34.1152 35.5531 33.8936 35.5474 33.8936 34.4905C33.8936 33.4336 34.0641 33.4336 34.0641 32.3767C34.0641 31.3198 33.9391 31.3198 33.9391 30.263C33.9465 30.0499 34.0367 29.8482 34.1906 29.7007C34.3445 29.5532 34.5498 29.4715 34.763 29.4731C35.8028 29.4731 35.8029 29.3765 36.8427 29.3765C37.8825 29.3765 37.8825 29.4675 38.928 29.4675C39.9735 29.4675 39.9679 29.4675 41.0077 29.4675C42.0476 29.4675 42.0476 29.4675 43.0931 29.4675C44.1386 29.4675 44.133 29.5129 45.1728 29.5129C46.2127 29.5129 46.2126 29.3652 47.2525 29.3652C48.2923 29.3652 48.298 29.3368 49.3379 29.3368C50.3777 29.3368 50.3777 29.3083 51.4233 29.3083C52.4688 29.3083 52.463 29.5413 53.5086 29.5413C53.6053 29.5292 53.7034 29.5378 53.7966 29.5666C53.8897 29.5953 53.9756 29.6435 54.0487 29.708C54.1218 29.7725 54.1803 29.8518 54.2204 29.9406C54.2606 30.0294 54.2813 30.1257 54.2813 30.2232C54.2813 31.2801 54.2813 31.2801 54.2813 32.3313C54.2813 33.3825 54.2813 33.3882 54.2813 34.4451C54.2813 35.502 54.4177 35.4963 54.4177 36.5532C54.4177 37.61 54.2587 37.61 54.2587 38.6613C54.2587 39.7125 54.1507 39.7181 54.1507 40.775C54.1507 41.8319 54.1507 41.8263 54.1507 42.8831C54.1507 43.94 54.1507 43.94 54.1507 44.9912C54.1507 46.0424 54.3155 46.0481 54.3155 47.105V49.2188C54.3164 49.4377 54.2352 49.649 54.0879 49.811C53.9406 49.973 53.738 50.0739 53.52 50.0938Z" fill="#FFB469"/>
<path id="Vector_14" d="M53.52 50.0938C52.4801 50.0938 52.4801 50.0938 51.4402 50.0938C50.4004 50.0938 50.3948 50.0938 49.3549 50.0938C48.3151 50.0938 48.3151 50.0143 47.2752 50.0143C46.2354 50.0143 46.2353 50.0995 45.1898 50.0995C44.1443 50.0995 44.15 50.0995 43.1102 50.0995C42.0703 50.0995 42.0703 50.1848 41.0305 50.1848C39.9906 50.1848 39.9849 49.9461 38.9451 49.9461C37.9052 49.9461 37.8996 50.0768 36.8598 50.0768C35.8199 50.0768 35.8142 49.9404 34.7744 49.9404C34.6752 49.9531 34.5745 49.9451 34.4786 49.9171C34.3827 49.8891 34.2935 49.8417 34.2168 49.7777C34.14 49.7137 34.0772 49.6346 34.0324 49.5453C33.9876 49.456 33.9615 49.3584 33.9561 49.2586C33.9561 48.2074 34.0584 48.2074 34.0584 47.1505C34.0584 46.0936 34.0584 46.0993 34.0584 45.0424C34.0584 43.9855 33.8368 43.9855 33.8368 42.9343C33.8368 41.8831 34.03 41.8774 34.03 40.8205C34.03 39.7636 34.0698 39.7693 34.0698 38.7124C34.0698 37.6555 34.1152 37.6555 34.1152 36.6043C34.1152 35.5531 33.8936 35.5474 33.8936 34.4905C33.8936 33.4336 34.0641 33.4336 34.0641 32.3767C34.0641 31.3198 33.9391 31.3198 33.9391 30.263C33.9465 30.0499 34.0367 29.8482 34.1906 29.7007C34.3445 29.5532 34.5498 29.4715 34.763 29.4731C35.8028 29.4731 35.8029 29.3765 36.8427 29.3765C37.8825 29.3765 37.8825 29.4675 38.928 29.4675C39.9735 29.4675 39.9679 29.4675 41.0077 29.4675C42.0476 29.4675 42.0476 29.4675 43.0931 29.4675C44.1386 29.4675 44.133 29.5129 45.1728 29.5129C46.2127 29.5129 46.2126 29.3652 47.2525 29.3652C48.2923 29.3652 48.298 29.3368 49.3379 29.3368C50.3777 29.3368 50.3777 29.3083 51.4233 29.3083C52.4688 29.3083 52.463 29.5413 53.5086 29.5413C53.6053 29.5292 53.7034 29.5378 53.7966 29.5666C53.8897 29.5953 53.9756 29.6435 54.0487 29.708C54.1218 29.7725 54.1803 29.8518 54.2204 29.9406C54.2606 30.0294 54.2813 30.1257 54.2813 30.2232C54.2813 31.2801 54.2813 31.2801 54.2813 32.3313C54.2813 33.3825 54.2813 33.3882 54.2813 34.4451C54.2813 35.502 54.4177 35.4963 54.4177 36.5532C54.4177 37.61 54.2587 37.61 54.2587 38.6613C54.2587 39.7125 54.1507 39.7181 54.1507 40.775C54.1507 41.8319 54.1507 41.8263 54.1507 42.8831C54.1507 43.94 54.1507 43.94 54.1507 44.9912C54.1507 46.0424 54.3155 46.0481 54.3155 47.105V49.2188C54.3164 49.4377 54.2352 49.649 54.0879 49.811C53.9406 49.973 53.738 50.0739 53.52 50.0938Z" stroke="#FFB469" stroke-width="0.85233" stroke-miterlimit="10"/>
<path id="Vector_15" d="M37.2574 50.5087C38.2405 50.5087 38.2404 50.6621 39.2291 50.6621C40.2178 50.6621 40.2178 50.5825 41.2065 50.5825C42.1952 50.5825 42.1953 50.5825 43.184 50.5825C44.1727 50.5825 44.167 50.7132 45.1557 50.7132C46.1444 50.7132 46.1444 50.5371 47.1331 50.5371C48.1218 50.5371 48.1275 50.6223 49.1162 50.6223C50.1049 50.6223 50.1049 50.6564 51.0936 50.6564C51.2443 50.6564 51.3888 50.5965 51.4954 50.49C51.602 50.3834 51.6618 50.2389 51.6618 50.0882C51.5846 49.4064 51.438 48.7343 51.2243 48.0824C51.1631 47.3967 51.0181 46.7212 50.7924 46.0709C50.4263 45.4848 49.9519 44.9737 49.3946 44.5651C48.9116 44.0785 48.3556 43.6701 47.7468 43.3548C46.6103 42.8604 45.8091 42.9911 46.5308 42.582C47.0712 42.2506 47.5564 41.8365 47.9684 41.3546C48.3843 40.8852 48.715 40.3468 48.9457 39.7636C49.2493 39.2013 49.4422 38.586 49.5139 37.951C49.5031 37.2617 49.3483 36.5824 49.0594 35.9565C48.7828 35.3383 48.3979 34.7744 47.9229 34.2916C47.4468 33.8164 46.8885 33.4314 46.2751 33.1552C45.6845 32.8316 45.0317 32.6379 44.3602 32.587C43.6582 32.5778 42.9619 32.7132 42.3146 32.9848C41.6385 33.1945 41.0108 33.5363 40.4679 33.9905C39.6023 35.1077 39.0441 36.432 38.8485 37.8317C38.882 38.4808 39.0401 39.1175 39.3144 39.7068C39.5674 40.2941 39.9212 40.8326 40.3599 41.2978C40.7554 41.8149 41.2289 42.2673 41.7634 42.6388C42.4851 43.0479 41.7009 42.7866 40.5361 43.2695C39.9092 43.552 39.3333 43.936 38.8314 44.406C38.3133 44.8701 37.8839 45.4246 37.5643 46.0425C37.2938 46.6736 37.1029 47.3359 36.9961 48.0142C36.8555 48.6859 36.7719 49.3683 36.746 50.0541C36.6892 50.378 36.9449 50.5087 37.2574 50.5087Z" fill="#BE874F"/>
<path id="Vector_16" d="M70.1688 42.1615C69.1119 42.1615 69.1119 42.3661 68.0493 42.3661C66.9867 42.3661 66.9924 42.1161 65.9298 42.1161C64.8673 42.1161 64.873 42.1161 63.8104 42.1161C62.7478 42.1161 62.7535 42.2013 61.6909 42.2013C60.6284 42.2013 60.6284 42.2013 59.5715 42.2013C58.5146 42.2013 58.5089 42.3206 57.4464 42.3206C57.2495 42.3083 57.0569 42.2572 56.8799 42.1702C56.7028 42.0831 56.5447 41.9619 56.4148 41.8134C56.2848 41.665 56.1856 41.4923 56.1227 41.3053C56.0598 41.1183 56.0346 40.9207 56.0485 40.7239C56.0485 39.7352 55.7928 39.7352 55.7928 38.7465C55.829 38.3401 56.0217 37.9635 56.3302 37.6964C56.6387 37.4292 57.0389 37.2924 57.4464 37.3146C58.5032 37.3146 58.5032 37.1328 59.5658 37.1328C60.6284 37.1328 60.6227 37.3714 61.6853 37.3714C62.7478 37.3714 62.7421 37.2521 63.8047 37.2521C64.8673 37.2521 64.8616 37.1896 65.9242 37.1896C66.9867 37.1896 66.9868 37.2748 68.0437 37.2748C69.1006 37.2748 69.1062 37.1214 70.1688 37.1214C70.5946 37.1394 70.9981 37.3162 71.3 37.617C71.6018 37.9179 71.7801 38.3208 71.7996 38.7465C71.7996 39.7352 71.7598 39.7352 71.7598 40.7239C71.7392 41.1254 71.5601 41.5024 71.2618 41.772C70.9634 42.0415 70.5704 42.1816 70.1688 42.1615Z" fill="#E6E6E6"/>
<path id="Vector_17" d="M70.1688 42.1615C69.1119 42.1615 69.1119 42.3661 68.0493 42.3661C66.9867 42.3661 66.9924 42.1161 65.9298 42.1161C64.8673 42.1161 64.873 42.1161 63.8104 42.1161C62.7478 42.1161 62.7535 42.2013 61.6909 42.2013C60.6284 42.2013 60.6284 42.2013 59.5715 42.2013C58.5146 42.2013 58.5089 42.3206 57.4464 42.3206C57.2495 42.3083 57.0569 42.2572 56.8799 42.1702C56.7028 42.0831 56.5447 41.9619 56.4148 41.8134C56.2848 41.665 56.1856 41.4923 56.1227 41.3053C56.0598 41.1183 56.0346 40.9207 56.0485 40.7239C56.0485 39.7352 55.7928 39.7352 55.7928 38.7465C55.829 38.3401 56.0217 37.9635 56.3302 37.6964C56.6387 37.4292 57.0389 37.2924 57.4464 37.3146C58.5032 37.3146 58.5032 37.1328 59.5658 37.1328C60.6284 37.1328 60.6227 37.3714 61.6853 37.3714C62.7478 37.3714 62.7421 37.2521 63.8047 37.2521C64.8673 37.2521 64.8616 37.1896 65.9242 37.1896C66.9867 37.1896 66.9868 37.2748 68.0437 37.2748C69.1006 37.2748 69.1062 37.1214 70.1688 37.1214C70.5946 37.1394 70.9981 37.3162 71.3 37.617C71.6018 37.9179 71.7801 38.3208 71.7996 38.7465C71.7996 39.7352 71.7598 39.7352 71.7598 40.7239C71.7392 41.1254 71.5601 41.5024 71.2618 41.772C70.9634 42.0415 70.5704 42.1816 70.1688 42.1615Z" stroke="#414C58" stroke-width="0.85233" stroke-miterlimit="10" stroke-linecap="round"/>
<path id="Vector_18" d="M70.1688 49.8666C69.1119 49.8666 69.1119 50.0711 68.0493 50.0711C66.9867 50.0711 66.9924 49.8268 65.9298 49.8268C64.8673 49.8268 64.873 49.8268 63.8104 49.8268C62.7478 49.8268 62.7535 49.912 61.6909 49.912C60.6284 49.912 60.6284 49.912 59.5715 49.912C58.5146 49.912 58.5089 50.0314 57.4464 50.0314C57.2495 50.0191 57.0569 49.968 56.8799 49.8809C56.7028 49.7939 56.5447 49.6726 56.4148 49.5242C56.2848 49.3758 56.1856 49.2031 56.1227 49.0161C56.0598 48.8291 56.0346 48.6315 56.0485 48.4347C56.0485 47.446 55.7928 47.446 55.7928 46.4573C55.829 46.0503 56.0215 45.6732 56.3298 45.4052C56.6381 45.1371 57.0383 44.9989 57.4464 45.0197C58.5032 45.0197 58.5032 44.8435 59.5658 44.8435C60.6284 44.8435 60.6227 45.0822 61.6853 45.0822C62.7478 45.0822 62.7421 44.9572 63.8047 44.9572C64.8673 44.9572 64.8616 44.9003 65.9242 44.9003C66.9867 44.9003 66.9868 44.9799 68.0437 44.9799C69.1006 44.9799 69.1062 44.8322 70.1688 44.8322C70.5946 44.8502 70.9981 45.027 71.3 45.3278C71.6018 45.6286 71.7801 46.0316 71.7996 46.4573C71.7996 47.446 71.7598 47.446 71.7598 48.4347C71.7378 48.8352 71.5581 49.2107 71.2599 49.479C70.9617 49.7474 70.5694 49.8867 70.1688 49.8666Z" fill="#E6E6E6"/>
<path id="Vector_19" d="M70.1688 49.8666C69.1119 49.8666 69.1119 50.0711 68.0493 50.0711C66.9867 50.0711 66.9924 49.8268 65.9298 49.8268C64.8673 49.8268 64.873 49.8268 63.8104 49.8268C62.7478 49.8268 62.7535 49.912 61.6909 49.912C60.6284 49.912 60.6284 49.912 59.5715 49.912C58.5146 49.912 58.5089 50.0314 57.4464 50.0314C57.2495 50.0191 57.0569 49.968 56.8799 49.8809C56.7028 49.7939 56.5447 49.6726 56.4148 49.5242C56.2848 49.3758 56.1856 49.2031 56.1227 49.0161C56.0598 48.8291 56.0346 48.6315 56.0485 48.4347C56.0485 47.446 55.7928 47.446 55.7928 46.4573C55.829 46.0503 56.0215 45.6732 56.3298 45.4052C56.6381 45.1371 57.0383 44.9989 57.4464 45.0197C58.5032 45.0197 58.5032 44.8435 59.5658 44.8435C60.6284 44.8435 60.6227 45.0822 61.6853 45.0822C62.7478 45.0822 62.7421 44.9572 63.8047 44.9572C64.8673 44.9572 64.8616 44.9003 65.9242 44.9003C66.9867 44.9003 66.9868 44.9799 68.0437 44.9799C69.1006 44.9799 69.1062 44.8322 70.1688 44.8322C70.5946 44.8502 70.9981 45.027 71.3 45.3278C71.6018 45.6286 71.7801 46.0316 71.7996 46.4573C71.7996 47.446 71.7598 47.446 71.7598 48.4347C71.7378 48.8352 71.5581 49.2107 71.2599 49.479C70.9617 49.7474 70.5694 49.8867 70.1688 49.8666Z" stroke="#414C58" stroke-width="0.85233" stroke-miterlimit="10" stroke-linecap="round"/>
<path id="Vector_20" d="M73.294 88.4884C72.2712 88.4884 72.2712 88.4884 71.2427 88.4884C70.2142 88.4884 70.2142 88.6476 69.1857 88.6476C68.1572 88.6476 68.1572 88.693 67.1287 88.693C66.1003 88.693 66.0946 88.46 65.0661 88.46C64.0376 88.46 64.0376 88.4146 63.0091 88.4146C61.9807 88.4146 61.9807 88.5907 60.9522 88.5907C59.9237 88.5907 59.9294 88.5453 58.9009 88.5453C57.8724 88.5453 57.8725 88.676 56.844 88.676C55.8155 88.676 55.8155 88.6362 54.787 88.6362C53.7585 88.6362 53.7585 88.4373 52.7301 88.4373H50.6731C49.6446 88.4373 49.6446 88.6589 48.6162 88.6589C47.5877 88.6589 47.582 88.5339 46.5535 88.5339C45.525 88.5339 45.525 88.693 44.4966 88.693C43.4681 88.693 43.4681 88.46 42.4396 88.46C41.4111 88.46 41.4111 88.693 40.3827 88.693C39.3542 88.693 39.3485 88.5794 38.32 88.5794C37.2915 88.5794 37.2915 88.6419 36.2631 88.6419C35.2346 88.6419 35.2346 88.4657 34.2004 88.4657C33.1663 88.4657 33.1719 88.5282 32.1378 88.5282C31.9717 88.5305 31.807 88.4994 31.6532 88.4368C31.4994 88.3742 31.3598 88.2812 31.2426 88.1635C31.1255 88.0459 31.0332 87.9058 30.9712 87.7518C30.9093 87.5977 30.879 87.4328 30.882 87.2668C30.882 86.2667 30.9388 86.2667 30.9388 85.2666C30.9388 84.2666 30.7343 84.2666 30.7343 83.2665C30.7343 82.2664 30.8479 82.2664 30.8479 81.2663C30.8479 80.2663 30.9275 80.2663 30.9275 79.2662C30.9275 78.2662 30.9275 78.2662 30.9275 77.2661C30.9275 76.266 30.757 76.2604 30.757 75.2603C30.757 74.2602 30.757 74.2602 30.757 73.2601C30.757 72.2601 30.9616 72.2601 30.9616 71.26C30.9616 70.2599 30.8252 70.26 30.8252 69.2599C30.8252 68.2598 31.0013 68.2598 31.0013 67.2541C31.0013 66.2483 30.9388 66.254 30.9388 65.2539C30.9388 64.2539 30.9388 64.2539 30.9388 63.2481C30.9388 62.2424 30.8082 62.248 30.8082 61.2423C30.8285 60.9945 30.9452 60.7646 31.1333 60.602C31.3214 60.4395 31.5658 60.3572 31.8139 60.3729C32.8594 60.3729 32.8594 60.1968 33.9049 60.1968C34.9505 60.1968 34.9505 60.2877 35.996 60.2877C37.0415 60.2877 37.0415 60.2877 38.087 60.2877C39.1325 60.2877 39.1326 60.3956 40.1781 60.3956C41.2236 60.3956 41.2236 60.2365 42.2691 60.2365C43.3146 60.2365 43.3147 60.3559 44.3602 60.3559C45.4057 60.3559 45.4057 60.2706 46.4513 60.2706C47.4968 60.2706 47.4968 60.2706 48.5423 60.2706C49.5878 60.2706 49.5878 60.4013 50.6277 60.4013C51.6675 60.4013 51.6789 60.2252 52.7244 60.2252C53.7699 60.2252 53.7699 60.1627 54.8155 60.1627C55.861 60.1627 55.8609 60.3161 56.9065 60.3161C57.952 60.3161 57.952 60.2138 58.9976 60.2138C60.0431 60.2138 60.043 60.265 61.0886 60.265C62.1341 60.265 62.1398 60.3104 63.1853 60.3104C64.2309 60.3104 64.2309 60.2422 65.2764 60.2422C66.3219 60.2422 66.3219 60.3956 67.3674 60.3956C68.4129 60.3956 68.413 60.299 69.4642 60.299C70.5154 60.299 70.5097 60.3956 71.5609 60.3956C72.6121 60.3956 72.6064 60.3956 73.652 60.3956C73.7705 60.3831 73.8904 60.3945 74.0045 60.4291C74.1186 60.4637 74.2246 60.5209 74.3163 60.5972C74.4079 60.6734 74.4833 60.7673 74.5381 60.8732C74.5928 60.9792 74.6258 61.095 74.635 61.2139C74.635 62.2139 74.5611 62.2139 74.5611 63.2197C74.5611 64.2254 74.5611 64.2198 74.5611 65.2198C74.5611 66.2199 74.5611 66.2256 74.5611 67.2256C74.5611 68.2257 74.6861 68.2257 74.6861 69.2314C74.6861 70.2372 74.7202 70.2315 74.7202 71.2373C74.7202 72.243 74.51 72.2373 74.51 73.2431C74.51 74.2488 74.7429 74.2432 74.7429 75.2432C74.7429 76.2433 74.6293 76.249 74.6293 77.2491C74.6293 78.2491 74.7486 78.2491 74.7486 79.2549C74.7486 80.2606 74.5725 80.2549 74.5725 81.2607C74.5725 82.2664 74.6065 82.2664 74.6065 83.2665C74.6065 84.2666 74.6065 84.2723 74.6065 85.278V87.2838C74.619 87.4547 74.5926 87.6262 74.5294 87.7855C74.4662 87.9447 74.3677 88.0876 74.2415 88.2035C74.1152 88.3194 73.9645 88.4052 73.8004 88.4545C73.6363 88.5039 73.4632 88.5155 73.294 88.4884Z" fill="#E6E6E6"/>
<path id="Vector_21" d="M73.294 88.4884C72.2712 88.4884 72.2712 88.4884 71.2427 88.4884C70.2142 88.4884 70.2142 88.6476 69.1857 88.6476C68.1572 88.6476 68.1572 88.693 67.1287 88.693C66.1003 88.693 66.0946 88.46 65.0661 88.46C64.0376 88.46 64.0376 88.4146 63.0091 88.4146C61.9807 88.4146 61.9807 88.5907 60.9522 88.5907C59.9237 88.5907 59.9294 88.5453 58.9009 88.5453C57.8724 88.5453 57.8725 88.676 56.844 88.676C55.8155 88.676 55.8155 88.6362 54.787 88.6362C53.7585 88.6362 53.7585 88.4373 52.7301 88.4373H50.6731C49.6446 88.4373 49.6446 88.6589 48.6162 88.6589C47.5877 88.6589 47.582 88.5339 46.5535 88.5339C45.525 88.5339 45.525 88.693 44.4966 88.693C43.4681 88.693 43.4681 88.46 42.4396 88.46C41.4111 88.46 41.4111 88.693 40.3827 88.693C39.3542 88.693 39.3485 88.5794 38.32 88.5794C37.2915 88.5794 37.2915 88.6419 36.2631 88.6419C35.2346 88.6419 35.2346 88.4657 34.2004 88.4657C33.1663 88.4657 33.1719 88.5282 32.1378 88.5282C31.9717 88.5305 31.807 88.4994 31.6532 88.4368C31.4994 88.3742 31.3598 88.2812 31.2426 88.1635C31.1255 88.0459 31.0332 87.9058 30.9712 87.7518C30.9093 87.5977 30.879 87.4328 30.882 87.2668C30.882 86.2667 30.9388 86.2667 30.9388 85.2666C30.9388 84.2666 30.7343 84.2666 30.7343 83.2665C30.7343 82.2664 30.8479 82.2664 30.8479 81.2664C30.8479 80.2663 30.9275 80.2663 30.9275 79.2662C30.9275 78.2662 30.9275 78.2662 30.9275 77.2661C30.9275 76.266 30.757 76.2604 30.757 75.2603C30.757 74.2602 30.757 74.2602 30.757 73.2601C30.757 72.2601 30.9616 72.2601 30.9616 71.26C30.9616 70.2599 30.8252 70.26 30.8252 69.2599C30.8252 68.2598 31.0013 68.2598 31.0013 67.2541C31.0013 66.2483 30.9388 66.254 30.9388 65.2539C30.9388 64.2539 30.9388 64.2539 30.9388 63.2481C30.9388 62.2424 30.8082 62.248 30.8082 61.2423C30.8285 60.9945 30.9452 60.7646 31.1333 60.602C31.3214 60.4395 31.5658 60.3572 31.8139 60.3729C32.8594 60.3729 32.8594 60.1968 33.9049 60.1968C34.9505 60.1968 34.9505 60.2877 35.996 60.2877C37.0415 60.2877 37.0415 60.2877 38.087 60.2877C39.1325 60.2877 39.1326 60.3956 40.1781 60.3956C41.2236 60.3956 41.2236 60.2365 42.2691 60.2365C43.3146 60.2365 43.3147 60.3559 44.3602 60.3559C45.4057 60.3559 45.4057 60.2706 46.4513 60.2706C47.4968 60.2706 47.4968 60.2706 48.5423 60.2706C49.5878 60.2706 49.5878 60.4013 50.6277 60.4013C51.6675 60.4013 51.6789 60.2252 52.7244 60.2252C53.7699 60.2252 53.7699 60.1627 54.8155 60.1627C55.861 60.1627 55.8609 60.3161 56.9065 60.3161C57.952 60.3161 57.952 60.2138 58.9976 60.2138C60.0431 60.2138 60.043 60.265 61.0886 60.265C62.1341 60.265 62.1398 60.3104 63.1853 60.3104C64.2309 60.3104 64.2309 60.2422 65.2764 60.2422C66.3219 60.2422 66.3219 60.3956 67.3674 60.3956C68.4129 60.3956 68.413 60.299 69.4642 60.299C70.5154 60.299 70.5097 60.3956 71.5609 60.3956C72.6121 60.3956 72.6064 60.3956 73.652 60.3956C73.7705 60.3831 73.8904 60.3945 74.0045 60.4291C74.1186 60.4637 74.2246 60.5209 74.3163 60.5972C74.4079 60.6734 74.4833 60.7673 74.5381 60.8732C74.5928 60.9792 74.6258 61.095 74.635 61.2139C74.635 62.2139 74.5611 62.2139 74.5611 63.2197C74.5611 64.2254 74.5611 64.2198 74.5611 65.2198C74.5611 66.2199 74.5611 66.2256 74.5611 67.2256C74.5611 68.2257 74.6861 68.2257 74.6861 69.2314C74.6861 70.2372 74.7202 70.2315 74.7202 71.2373C74.7202 72.243 74.51 72.2373 74.51 73.2431C74.51 74.2488 74.7429 74.2432 74.7429 75.2432C74.7429 76.2433 74.6293 76.249 74.6293 77.2491C74.6293 78.2491 74.7486 78.2491 74.7486 79.2549C74.7486 80.2606 74.5725 80.2549 74.5725 81.2607C74.5725 82.2664 74.6065 82.2664 74.6065 83.2665C74.6065 84.2666 74.6065 84.2723 74.6065 85.278V87.2838C74.619 87.4547 74.5926 87.6262 74.5294 87.7855C74.4662 87.9447 74.3677 88.0876 74.2415 88.2035C74.1152 88.3194 73.9645 88.4052 73.8004 88.4545C73.6363 88.5039 73.4632 88.5155 73.294 88.4884Z" stroke="#414C58" stroke-width="0.85233" stroke-miterlimit="10" stroke-linecap="round"/>
<path id="Vector_22" d="M53.1165 84.2098C52.0767 84.2098 52.0767 84.2098 51.0368 84.2098C49.997 84.2098 49.9913 84.2098 48.9514 84.2098C47.9116 84.2098 47.9116 84.1303 46.8718 84.1303C45.832 84.1303 45.8319 84.2155 44.7864 84.2155C43.7409 84.2155 43.7465 84.2439 42.7067 84.2439C41.6669 84.2439 41.6669 84.3291 40.6271 84.3291C39.5872 84.3291 39.5815 84.0905 38.5417 84.0905C37.5018 84.0905 37.4961 84.2212 36.4563 84.2212C35.4164 84.2212 35.4108 84.0848 34.371 84.0848C34.2723 84.0974 34.172 84.0897 34.0764 84.062C33.9809 84.0344 33.892 83.9874 33.8153 83.924C33.7386 83.8606 33.6757 83.7822 33.6306 83.6936C33.5854 83.6049 33.5589 83.5079 33.5527 83.4086C33.5527 82.3517 33.655 82.3517 33.655 81.2948C33.655 80.238 33.655 80.2436 33.655 79.1867C33.655 78.1298 33.4334 78.1298 33.4334 77.0786C33.4334 76.0274 33.6266 76.0218 33.6266 74.9649C33.6266 73.908 33.6664 73.9136 33.6664 72.8568C33.6664 71.7999 33.7118 71.7999 33.7118 70.7487C33.7118 69.6975 33.4902 69.6918 33.4902 68.6349C33.4902 67.578 33.6607 67.578 33.6607 66.5211C33.6607 65.4642 33.5356 65.4642 33.5356 64.4073C33.5444 64.1948 33.6352 63.9939 33.7887 63.8466C33.9423 63.6994 34.1468 63.6173 34.3596 63.6175C35.3994 63.6175 35.3994 63.5209 36.4393 63.5209C37.4791 63.5209 37.4791 63.6118 38.5246 63.6118C39.5701 63.6118 39.5645 63.6118 40.6043 63.6118C41.6442 63.6118 41.6442 63.6118 42.6897 63.6118C43.7352 63.6118 43.7295 63.6573 44.7693 63.6573C45.8092 63.6573 45.8092 63.5095 46.8491 63.5095C47.8889 63.5095 47.8946 63.5095 48.9344 63.5095C49.9743 63.5095 49.9742 63.4811 51.0198 63.4811C52.0653 63.4811 52.0596 63.7141 53.1052 63.7141C53.2017 63.7029 53.2995 63.7122 53.3923 63.7413C53.485 63.7704 53.5705 63.8186 53.6434 63.8829C53.7163 63.9472 53.7748 64.0261 53.8152 64.1145C53.8556 64.2029 53.877 64.2988 53.8779 64.396V66.5097C53.8779 67.5666 53.8779 67.5666 53.8779 68.6235C53.8779 69.6804 54.0143 69.6747 54.0143 70.7316C54.0143 71.7885 53.8552 71.7885 53.8552 72.8454C53.8552 73.9023 53.7473 73.8966 53.7473 74.9535C53.7473 76.0104 53.7473 76.0047 53.7473 77.0616C53.7473 78.1185 53.7473 78.1185 53.7473 79.1754C53.7473 80.2323 53.9121 80.2323 53.9121 81.2892V83.4029C53.8967 83.6099 53.8082 83.8047 53.6625 83.9525C53.5168 84.1003 53.3233 84.1915 53.1165 84.2098Z" fill="#59CF94"/>
<path id="Vector_23" d="M53.1165 84.2098C52.0767 84.2098 52.0767 84.2098 51.0368 84.2098C49.997 84.2098 49.9913 84.2098 48.9514 84.2098C47.9116 84.2098 47.9116 84.1303 46.8718 84.1303C45.832 84.1303 45.8319 84.2155 44.7864 84.2155C43.7409 84.2155 43.7465 84.2439 42.7067 84.2439C41.6669 84.2439 41.6669 84.3291 40.6271 84.3291C39.5872 84.3291 39.5815 84.0905 38.5417 84.0905C37.5018 84.0905 37.4961 84.2212 36.4563 84.2212C35.4164 84.2212 35.4108 84.0848 34.371 84.0848C34.2723 84.0974 34.172 84.0897 34.0764 84.062C33.9809 84.0344 33.892 83.9874 33.8153 83.924C33.7386 83.8606 33.6757 83.7822 33.6306 83.6936C33.5854 83.6049 33.5589 83.5079 33.5527 83.4086C33.5527 82.3517 33.655 82.3517 33.655 81.2948C33.655 80.238 33.655 80.2436 33.655 79.1867C33.655 78.1298 33.4334 78.1298 33.4334 77.0786C33.4334 76.0274 33.6266 76.0218 33.6266 74.9649C33.6266 73.908 33.6664 73.9136 33.6664 72.8568C33.6664 71.7999 33.7118 71.7999 33.7118 70.7487C33.7118 69.6975 33.4902 69.6918 33.4902 68.6349C33.4902 67.578 33.6607 67.578 33.6607 66.5211C33.6607 65.4642 33.5356 65.4642 33.5356 64.4073C33.5444 64.1948 33.6352 63.9939 33.7887 63.8466C33.9423 63.6994 34.1468 63.6173 34.3596 63.6175C35.3994 63.6175 35.3994 63.5209 36.4393 63.5209C37.4791 63.5209 37.4791 63.6118 38.5246 63.6118C39.5701 63.6118 39.5645 63.6118 40.6043 63.6118C41.6442 63.6118 41.6442 63.6118 42.6897 63.6118C43.7352 63.6118 43.7295 63.6573 44.7693 63.6573C45.8092 63.6573 45.8092 63.5095 46.8491 63.5095C47.8889 63.5095 47.8946 63.5095 48.9344 63.5095C49.9743 63.5095 49.9742 63.4811 51.0198 63.4811C52.0653 63.4811 52.0596 63.7141 53.1052 63.7141C53.2017 63.7029 53.2995 63.7122 53.3923 63.7413C53.485 63.7704 53.5705 63.8186 53.6434 63.8829C53.7163 63.9472 53.7748 64.0261 53.8152 64.1145C53.8556 64.2029 53.877 64.2988 53.8779 64.396V66.5097C53.8779 67.5666 53.8779 67.5666 53.8779 68.6235C53.8779 69.6804 54.0143 69.6747 54.0143 70.7316C54.0143 71.7885 53.8552 71.7885 53.8552 72.8454C53.8552 73.9023 53.7473 73.8966 53.7473 74.9535C53.7473 76.0104 53.7473 76.0047 53.7473 77.0616C53.7473 78.1185 53.7473 78.1185 53.7473 79.1754C53.7473 80.2323 53.9121 80.2323 53.9121 81.2892V83.4029C53.8967 83.6099 53.8082 83.8047 53.6625 83.9525C53.5168 84.1003 53.3233 84.1915 53.1165 84.2098Z" stroke="#59CF94" stroke-width="0.85233" stroke-miterlimit="10"/>
<path id="Vector_24" d="M36.837 84.6245C37.8257 84.6245 37.8257 84.778 38.8087 84.778C39.7917 84.778 39.7974 84.7041 40.7804 84.7041C41.7634 84.7041 41.7635 84.7041 42.7522 84.7041C43.7409 84.7041 43.7352 84.8348 44.7239 84.8348C45.7126 84.8348 45.7069 84.6586 46.6956 84.6586C47.6843 84.6586 47.6843 84.7439 48.673 84.7439C49.6617 84.7439 49.6561 84.778 50.6448 84.778C50.792 84.7674 50.9304 84.7041 51.0348 84.5998C51.1392 84.4954 51.2024 84.357 51.213 84.2097C51.1313 83.5319 50.9829 82.8639 50.7698 82.2153C50.7031 81.5305 50.5582 80.8556 50.3379 80.2038C49.9646 79.6247 49.489 79.1183 48.9344 78.7093C48.4504 78.2279 47.8969 77.8218 47.2923 77.5047C46.1558 77.0161 45.3603 77.1468 46.082 76.7433C46.6213 76.4082 47.1062 75.9923 47.5196 75.5103C47.9355 75.0409 48.2662 74.5024 48.4969 73.9193C48.859 73.3551 49.0623 72.7037 49.0853 72.0337C49.1083 71.3637 48.9501 70.6999 48.6276 70.1122C48.3499 69.4945 47.9652 68.9309 47.4911 68.4473C47.015 67.9721 46.4567 67.587 45.8433 67.3108C45.2527 66.9872 44.5999 66.7935 43.9284 66.7426C43.2264 66.7334 42.5301 66.8688 41.8828 67.1404C41.1845 67.3041 40.544 67.6551 40.0304 68.1558C39.5168 68.6564 39.1494 69.2876 38.9678 69.9815C38.6435 70.6104 38.4502 71.2986 38.3996 72.0044C38.4331 72.6535 38.5913 73.2901 38.8655 73.8795C39.1185 74.4668 39.4724 75.0053 39.9111 75.4705C40.3066 75.9876 40.7801 76.44 41.3146 76.8115C42.0305 77.2206 41.2577 76.9592 40.0929 77.4422C39.4648 77.7226 38.8885 78.1068 38.3882 78.5787C37.8701 79.0362 37.4406 79.5852 37.1211 80.1981C36.848 80.8283 36.657 81.4909 36.5529 82.1698C36.4095 82.8372 36.3258 83.5161 36.3028 84.1984C36.2915 84.4768 36.5415 84.6245 36.837 84.6245Z" fill="#4EA57A"/>
<path id="Vector_25" d="M69.7653 76.2775C68.7084 76.2775 68.7085 76.482 67.6459 76.482C66.5833 76.482 66.589 76.2377 65.5264 76.2377C64.4639 76.2377 64.4696 76.2377 63.407 76.2377C62.3444 76.2377 62.3501 76.3229 61.2875 76.3229C60.225 76.3229 60.225 76.3229 59.1681 76.3229C58.1112 76.3229 58.1054 76.4422 57.0429 76.4422C56.846 76.43 56.6535 76.3789 56.4765 76.2918C56.2994 76.2048 56.1413 76.0835 56.0114 75.9351C55.8814 75.7867 55.7822 75.6139 55.7193 75.4269C55.6564 75.2399 55.6312 75.0423 55.6451 74.8455C55.6451 73.8568 55.3894 73.8568 55.3894 72.8681C55.4256 72.4617 55.6183 72.0852 55.9268 71.818C56.2352 71.5509 56.6354 71.414 57.0429 71.4362C58.0998 71.4362 58.0998 71.2601 59.1624 71.2601C60.225 71.2601 60.2193 71.4931 61.2818 71.4931C62.3444 71.4931 62.3387 71.3737 63.4013 71.3737C64.4639 71.3737 64.4582 71.3112 65.5207 71.3112C66.5833 71.3112 66.5833 71.3964 67.6402 71.3964C68.6971 71.3964 68.7028 71.243 69.7653 71.243C70.1911 71.2611 70.5947 71.4379 70.8966 71.7387C71.1984 72.0395 71.3766 72.4424 71.3961 72.8681C71.3961 73.8568 71.3564 73.8568 71.3564 74.8455C71.3343 75.2461 71.1546 75.6216 70.8564 75.8899C70.5583 76.1582 70.166 76.2976 69.7653 76.2775Z" fill="#E6E6E6"/>
<path id="Vector_26" d="M69.7653 76.2775C68.7084 76.2775 68.7085 76.482 67.6459 76.482C66.5833 76.482 66.589 76.2377 65.5264 76.2377C64.4639 76.2377 64.4696 76.2377 63.407 76.2377C62.3444 76.2377 62.3501 76.3229 61.2875 76.3229C60.225 76.3229 60.225 76.3229 59.1681 76.3229C58.1112 76.3229 58.1054 76.4422 57.0429 76.4422C56.846 76.43 56.6535 76.3789 56.4765 76.2918C56.2994 76.2048 56.1413 76.0835 56.0114 75.9351C55.8814 75.7867 55.7822 75.6139 55.7193 75.4269C55.6564 75.2399 55.6312 75.0423 55.6451 74.8455C55.6451 73.8568 55.3894 73.8568 55.3894 72.8681C55.4256 72.4617 55.6183 72.0852 55.9268 71.818C56.2352 71.5509 56.6354 71.414 57.0429 71.4362C58.0998 71.4362 58.0998 71.2601 59.1624 71.2601C60.225 71.2601 60.2193 71.4931 61.2818 71.4931C62.3444 71.4931 62.3387 71.3737 63.4013 71.3737C64.4639 71.3737 64.4582 71.3112 65.5207 71.3112C66.5833 71.3112 66.5833 71.3964 67.6402 71.3964C68.6971 71.3964 68.7028 71.243 69.7653 71.243C70.1911 71.2611 70.5947 71.4379 70.8966 71.7387C71.1984 72.0395 71.3766 72.4424 71.3961 72.8681C71.3961 73.8568 71.3564 73.8568 71.3564 74.8455C71.3343 75.2461 71.1546 75.6216 70.8564 75.8899C70.5583 76.1582 70.166 76.2976 69.7653 76.2775Z" stroke="#414C58" stroke-width="0.85233" stroke-miterlimit="10" stroke-linecap="round"/>
<path id="Vector_27" d="M69.7653 83.9825C68.7084 83.9825 68.7085 84.1871 67.6459 84.1871C66.5833 84.1871 66.589 83.9428 65.5264 83.9428C64.4639 83.9428 64.4696 83.9428 63.407 83.9428C62.3444 83.9428 62.3501 84.028 61.2875 84.028C60.225 84.028 60.225 84.028 59.1681 84.028C58.1112 84.028 58.1054 84.1473 57.0429 84.1473C56.846 84.1351 56.6535 84.0839 56.4765 83.9969C56.2994 83.9099 56.1413 83.7886 56.0114 83.6402C55.8814 83.4917 55.7822 83.319 55.7193 83.132C55.6564 82.945 55.6312 82.7474 55.6451 82.5506C55.6451 81.5619 55.3894 81.5619 55.3894 80.5732C55.4256 80.1663 55.6181 79.7892 55.9264 79.5211C56.2347 79.2531 56.6349 79.1149 57.0429 79.1356C58.0998 79.1356 58.0998 78.9595 59.1624 78.9595C60.225 78.9595 60.2193 79.1981 61.2818 79.1981C62.3444 79.1981 62.3387 79.0731 63.4013 79.0731C64.4639 79.0731 64.4582 79.0163 65.5207 79.0163C66.5833 79.0163 66.5833 79.0959 67.6402 79.0959C68.6971 79.0959 68.7028 78.9481 69.7653 78.9481C70.1911 78.9661 70.5947 79.1429 70.8966 79.4438C71.1984 79.7446 71.3766 80.1475 71.3961 80.5732C71.3961 81.5619 71.3564 81.5619 71.3564 82.5506C71.3343 82.9511 71.1546 83.3266 70.8564 83.595C70.5583 83.8633 70.166 84.0027 69.7653 83.9825Z" fill="#E6E6E6"/>
<path id="Vector_28" d="M69.7653 83.9825C68.7084 83.9825 68.7085 84.1871 67.6459 84.1871C66.5833 84.1871 66.589 83.9428 65.5264 83.9428C64.4639 83.9428 64.4696 83.9428 63.407 83.9428C62.3444 83.9428 62.3501 84.028 61.2875 84.028C60.225 84.028 60.225 84.028 59.1681 84.028C58.1112 84.028 58.1054 84.1473 57.0429 84.1473C56.846 84.1351 56.6535 84.0839 56.4765 83.9969C56.2994 83.9099 56.1413 83.7886 56.0114 83.6402C55.8814 83.4917 55.7822 83.319 55.7193 83.132C55.6564 82.945 55.6312 82.7474 55.6451 82.5506C55.6451 81.5619 55.3894 81.5619 55.3894 80.5732C55.4256 80.1663 55.6181 79.7892 55.9264 79.5211C56.2347 79.2531 56.6349 79.1149 57.0429 79.1356C58.0998 79.1356 58.0998 78.9595 59.1624 78.9595C60.225 78.9595 60.2193 79.1981 61.2818 79.1981C62.3444 79.1981 62.3387 79.0731 63.4013 79.0731C64.4639 79.0731 64.4582 79.0163 65.5207 79.0163C66.5833 79.0163 66.5833 79.0959 67.6402 79.0959C68.6971 79.0959 68.7028 78.9481 69.7653 78.9481C70.1911 78.9661 70.5947 79.1429 70.8966 79.4438C71.1984 79.7446 71.3766 80.1475 71.3961 80.5732C71.3961 81.5619 71.3564 81.5619 71.3564 82.5506C71.3343 82.9511 71.1546 83.3266 70.8564 83.595C70.5583 83.8633 70.166 84.0027 69.7653 83.9825Z" stroke="#414C58" stroke-width="0.85233" stroke-miterlimit="10" stroke-linecap="round"/>
<path id="Vector_29" d="M24.0179 39.8034C24.0176 40.7979 23.7779 41.7776 23.319 42.6598C22.8601 43.5421 22.1955 44.3008 21.3814 44.8719C20.2325 45.5075 18.9864 45.9491 17.6936 46.1788C16.3385 46.2459 15.0065 45.8086 13.9547 44.9515C13.1257 44.3837 12.4573 43.6114 12.0143 42.7095C11.5713 41.8076 11.3688 40.8066 11.4262 39.8034C11.3837 39.1385 11.4469 38.4711 11.6137 37.826C11.8835 37.2197 12.2501 36.6612 12.699 36.1725C13.0699 35.6389 13.5247 35.1688 14.0457 34.7803C14.5572 34.36 15.1327 34.0243 15.7503 33.786C16.3861 33.6089 17.0456 33.5323 17.705 33.5587C18.3615 33.5491 19.0154 33.6431 19.6426 33.8371C20.9228 34.2198 22.0435 35.0092 22.835 36.0857C23.6265 37.1622 24.0458 38.4673 24.0293 39.8034H24.0179Z" stroke="#414C58" stroke-width="0.85233" stroke-linecap="round" stroke-linejoin="round"/>
<path id="Vector_30" d="M25.6999 33.6041C25.0351 34.2746 25.2112 34.4565 24.5635 35.1213C23.9157 35.7861 23.8134 35.6895 23.1429 36.377C22.4724 37.0646 22.5065 37.0816 21.836 37.7521C21.1655 38.4226 21.1825 38.4397 20.512 39.1102C19.8415 39.7807 19.6995 39.6386 19.029 40.3091C18.3585 40.9796 18.7278 41.6672 17.7789 41.7013C16.8299 41.7354 17.0971 41.1899 16.4777 40.5648C15.8583 39.9398 15.9094 39.8602 15.3128 39.2352C14.7162 38.6101 14.7446 38.542 14.1366 37.9169" stroke="#414C58" stroke-width="0.85233" stroke-linecap="round" stroke-linejoin="round"/>
<path id="Vector_31" d="M24.0179 73.851C24.0111 74.514 23.8999 75.1717 23.6883 75.8C23.2841 77.0672 22.4732 78.1656 21.3814 78.9252C20.8356 79.2864 20.235 79.5569 19.6029 79.7264C18.997 79.9932 18.3525 80.162 17.6936 80.2265C16.3418 80.2953 15.0123 79.8622 13.9604 79.0105C13.4612 78.5786 13.0335 78.0704 12.6933 77.5047C12.2261 77.0291 11.8705 76.4556 11.6523 75.8256C11.4341 75.1957 11.3588 74.5251 11.4319 73.8624C11.48 72.8857 11.739 71.9309 12.1912 71.0639C12.6434 70.1968 13.278 69.4378 14.0514 68.8393C14.8428 68.2543 15.7613 67.8645 16.7319 67.7016C17.7025 67.5387 18.6978 67.6073 19.6369 67.9018C20.2711 68.09 20.8715 68.3777 21.4155 68.7541C22.2324 69.331 22.8967 70.0981 23.3511 70.989C23.8055 71.8799 24.0362 72.8681 24.0236 73.8681L24.0179 73.851Z" stroke="#414C58" stroke-width="0.85233" stroke-linecap="round" stroke-linejoin="round"/>
<path id="Vector_32" d="M25.6999 67.6462C25.0351 68.3167 25.2112 68.4928 24.5635 69.1633C23.9157 69.8338 23.8134 69.7316 23.1429 70.4191C22.4724 71.1066 22.5065 71.1237 21.836 71.7942C21.1655 72.4647 21.1825 72.4817 20.512 73.1522C19.8415 73.8227 19.6995 73.6807 19.029 74.3512C18.3585 75.0217 18.7278 75.7092 17.7789 75.7433C16.8299 75.7774 17.0971 75.2262 16.4777 74.6069C15.8583 73.9875 15.9094 73.9023 15.3128 73.2772C14.7162 72.6522 14.7446 72.584 14.1366 71.959" stroke="#414C58" stroke-width="0.85233" stroke-linecap="round" stroke-linejoin="round"/>
<path id="Vector_33" d="M123.474 76.2661C123.31 77.6489 123.023 79.0142 122.615 80.3459C122.419 81.0105 122.17 81.6585 121.871 82.2835C121.463 83.6463 120.58 84.8177 119.382 85.5849C118.923 86.1083 118.426 86.5964 117.894 87.0452C117.311 87.4266 116.702 87.7646 116.07 88.0566C114.877 88.8011 113.548 89.2995 112.16 89.5226C110.066 89.8919 107.912 89.7098 105.91 88.9942C105.263 88.731 104.638 88.4175 104.04 88.0566C103.418 87.7483 102.822 87.3911 102.256 86.9884C100.995 86.3434 99.9739 85.312 99.3412 84.045C98.8898 83.5098 98.4813 82.9398 98.1195 82.3403C97.7915 81.7209 97.5123 81.0768 97.2843 80.4141C97.146 79.7265 97.0605 79.0293 97.0285 78.3287C96.8863 77.6493 96.7989 76.9595 96.7672 76.2661C96.7882 75.5717 96.8642 74.8801 96.9945 74.1978C97.0371 73.4996 97.1359 72.806 97.2899 72.1237C97.5826 71.4863 97.9246 70.8727 98.3127 70.2884C98.6283 69.6758 98.9912 69.0888 99.398 68.5326C99.7332 67.9202 100.113 67.3333 100.534 66.7768C101.037 66.2863 101.575 65.8325 102.142 65.4187C102.722 65.0264 103.33 64.6769 103.961 64.3732C104.607 64.1128 105.272 63.902 105.95 63.7425C106.592 63.4637 107.255 63.2357 107.933 63.0606C108.624 62.9479 109.323 62.8871 110.024 62.8788C110.723 62.9071 111.418 62.9907 112.103 63.1288C113.518 63.1699 114.889 63.6307 116.041 64.4528C116.686 64.728 117.309 65.0508 117.905 65.4187C118.863 66.4375 119.852 67.4267 120.871 68.3848C121.252 68.9733 121.587 69.5908 121.871 70.2316C122.161 70.8626 122.398 71.5164 122.581 72.1862C123.019 73.5096 123.305 74.8783 123.434 76.2661H123.474Z" fill="#8180FF"/>
<path id="Vector_34" d="M123.474 76.2661C123.31 77.6489 123.023 79.0142 122.615 80.3459C122.419 81.0105 122.17 81.6585 121.871 82.2835C121.463 83.6463 120.58 84.8177 119.382 85.5849C118.923 86.1083 118.426 86.5964 117.894 87.0452C117.311 87.4266 116.702 87.7646 116.07 88.0566C114.877 88.8011 113.548 89.2995 112.16 89.5226C110.066 89.8919 107.912 89.7098 105.91 88.9942C105.263 88.731 104.638 88.4175 104.04 88.0566C103.418 87.7483 102.822 87.3911 102.256 86.9884C100.995 86.3434 99.9739 85.312 99.3412 84.045C98.8898 83.5098 98.4813 82.9398 98.1195 82.3403C97.7915 81.7209 97.5123 81.0768 97.2843 80.4141C97.146 79.7265 97.0605 79.0293 97.0285 78.3287C96.8863 77.6493 96.7989 76.9595 96.7672 76.2661C96.7882 75.5717 96.8642 74.8801 96.9945 74.1978C97.0371 73.4996 97.1359 72.806 97.2899 72.1237C97.5826 71.4863 97.9246 70.8727 98.3127 70.2884C98.6283 69.6758 98.9912 69.0888 99.398 68.5326C99.7332 67.9202 100.113 67.3333 100.534 66.7768C101.037 66.2863 101.575 65.8325 102.142 65.4187C102.722 65.0264 103.33 64.6769 103.961 64.3732C104.607 64.1128 105.272 63.902 105.95 63.7425C106.592 63.4637 107.255 63.2357 107.933 63.0606C108.624 62.9479 109.323 62.8871 110.024 62.8788C110.723 62.9071 111.418 62.9907 112.103 63.1288C113.518 63.1699 114.889 63.6307 116.041 64.4528C116.686 64.728 117.309 65.0508 117.905 65.4187C118.863 66.4375 119.852 67.4267 120.871 68.3848C121.252 68.9733 121.587 69.5908 121.871 70.2316C122.161 70.8626 122.398 71.5164 122.581 72.1862C123.019 73.5096 123.305 74.8783 123.434 76.2661H123.474Z" stroke="#414C58" stroke-width="0.85233" stroke-linecap="round" stroke-linejoin="round"/>
<path id="Vector_35" d="M105.768 76.2206L105.944 76.4024C106.006 76.476 106.073 76.5462 106.143 76.6127L106.524 77.0047C106.609 77.0899 106.648 77.1354 106.688 77.1809L106.893 77.3968C106.971 77.4803 107.054 77.5582 107.143 77.6298L107.291 77.7661C107.376 77.8514 107.416 77.8968 107.455 77.9423L107.66 78.1639C107.779 78.2889 107.853 78.3514 107.91 78.4025C108.012 78.4895 108.107 78.5845 108.194 78.6866C108.263 78.7778 108.339 78.8633 108.421 78.9423C108.473 78.9933 108.521 79.0484 108.563 79.1071L108.785 79.3458C108.859 79.4197 108.887 79.4594 108.927 79.5049C108.967 79.5503 109.029 79.6242 109.137 79.7379V79.772C109.352 80.073 109.677 80.2771 110.041 80.3402C110.319 80.3402 110.484 80.1527 110.961 79.6981C110.994 79.6642 111.03 79.6338 111.069 79.6072C111.164 79.5343 111.255 79.4565 111.342 79.3742C111.434 79.2819 111.52 79.1832 111.598 79.0787C111.626 79.0346 111.661 78.9945 111.7 78.9594C111.774 78.8855 111.814 78.8571 111.859 78.8173C111.945 78.7485 112.027 78.6745 112.103 78.5957L112.274 78.4366C112.353 78.3707 112.429 78.3005 112.501 78.2264C112.593 78.138 112.679 78.0431 112.757 77.9423C112.789 77.8994 112.825 77.8595 112.865 77.8229L113.251 77.4422L113.422 77.2832C113.479 77.232 113.541 77.1809 113.649 77.0729C113.757 76.965 113.814 76.9138 113.865 76.857L114.03 76.6865L114.212 76.5103L114.399 76.3342C114.533 76.2078 114.615 76.0366 114.631 75.8532C114.647 75.6699 114.595 75.4872 114.484 75.3398C114.421 75.2611 114.341 75.1965 114.251 75.1503C114.161 75.104 114.062 75.0771 113.961 75.0712C113.86 75.0654 113.759 75.0806 113.664 75.1161C113.569 75.1516 113.483 75.2065 113.41 75.2773L113.228 75.4478L113.018 75.6467L112.802 75.8683L112.638 76.0388C112.585 76.094 112.528 76.1453 112.467 76.1921L112.24 76.4024L111.853 76.7831C111.763 76.8709 111.679 76.9659 111.603 77.0672C111.571 77.112 111.535 77.1539 111.495 77.1922L111.325 77.3513L111.092 77.5616L110.939 77.7036L110.779 77.84V77.7945C110.779 77.7263 110.779 77.6525 110.779 77.5104C110.779 77.3684 110.779 77.2661 110.779 77.1979C110.775 77.1279 110.775 77.0577 110.779 76.9877C110.775 76.929 110.775 76.8702 110.779 76.8115C110.788 76.698 110.788 76.5841 110.779 76.4706C110.782 76.3313 110.769 76.192 110.74 76.0558C110.734 76.02 110.734 75.9836 110.74 75.9478V74.3795C110.736 74.319 110.736 74.2583 110.74 74.1977C110.749 74.0843 110.749 73.9702 110.74 73.8568C110.747 73.7395 110.747 73.6218 110.74 73.5045C110.736 73.4477 110.736 73.3908 110.74 73.334V73.084C110.74 73.0158 110.74 72.9476 110.74 72.8169C110.736 72.7488 110.736 72.6805 110.74 72.6124C110.74 72.5442 110.74 72.4533 110.74 72.2942C110.748 72.1826 110.748 72.0705 110.74 71.9589C110.736 71.8965 110.736 71.8339 110.74 71.7714C110.735 71.747 110.735 71.7219 110.74 71.6975C110.815 71.405 110.815 71.098 110.74 70.8054C110.734 70.7792 110.734 70.7521 110.74 70.7259C110.734 70.6977 110.734 70.6688 110.74 70.6407C110.777 70.4979 110.794 70.3506 110.791 70.2031V69.6861C110.791 69.5156 110.791 69.4247 110.791 69.3508C110.787 69.2883 110.787 69.2257 110.791 69.1633C110.787 69.1027 110.787 69.042 110.791 68.9814C110.8 68.868 110.8 68.754 110.791 68.6405C110.791 68.4871 110.791 68.4076 110.791 68.3337C110.787 68.2618 110.787 68.1897 110.791 68.1178C110.787 68.0496 110.787 67.9813 110.791 67.9132C110.791 67.9132 110.791 67.8621 110.791 67.828C110.792 67.7984 110.788 67.7688 110.778 67.741C110.768 67.7131 110.752 67.6876 110.732 67.6659C110.712 67.6442 110.688 67.6267 110.661 67.6145C110.634 67.6024 110.605 67.5957 110.575 67.595H109.563C109.508 67.5948 109.454 67.6158 109.413 67.6538C109.371 67.6917 109.346 67.7438 109.342 67.7996C109.342 67.8734 109.342 67.9587 109.342 68.1178C109.342 68.2769 109.342 68.3507 109.342 68.4246C109.342 68.4985 109.342 68.5326 109.342 68.6405C109.346 68.6992 109.346 68.758 109.342 68.8167C109.334 68.9321 109.334 69.0479 109.342 69.1633C109.342 69.328 109.342 69.419 109.342 69.4928C109.346 69.5572 109.346 69.6217 109.342 69.6861V69.9531C109.342 70.0156 109.342 70.0781 109.342 70.2031C109.345 70.2334 109.345 70.2638 109.342 70.294C109.303 70.4346 109.284 70.58 109.285 70.7259C109.283 70.8756 109.302 71.0248 109.342 71.1691C109.347 71.1953 109.347 71.2224 109.342 71.2487C109.347 71.273 109.347 71.2981 109.342 71.3225C109.303 71.4688 109.283 71.6199 109.285 71.7714C109.285 71.9362 109.285 72.0328 109.285 72.1066C109.289 72.1691 109.289 72.2317 109.285 72.2942C109.289 72.3604 109.289 72.4268 109.285 72.4931C109.285 72.5669 109.285 72.6521 109.285 72.8169C109.285 72.9817 109.285 73.0044 109.285 73.0669V73.3283C109.276 73.4456 109.276 73.5634 109.285 73.6806C109.289 73.7374 109.289 73.7943 109.285 73.8511C109.289 73.9116 109.289 73.9724 109.285 74.0329C109.285 74.1125 109.285 74.2034 109.285 74.3739V75.9421C109.284 76.0798 109.299 76.2172 109.33 76.3513C109.334 76.3891 109.334 76.4271 109.33 76.4649C109.334 76.5236 109.334 76.5824 109.33 76.6411C109.322 76.7545 109.322 76.8685 109.33 76.982C109.33 77.1411 109.33 77.2263 109.33 77.3002C109.33 77.3741 109.33 77.4025 109.33 77.5047C109.33 77.607 109.33 77.6809 109.33 77.7434V77.8002L109.296 77.7604C109.251 77.7036 109.188 77.6297 109.075 77.5104C108.997 77.4269 108.914 77.349 108.825 77.2775L108.677 77.1411C108.592 77.0559 108.552 77.0104 108.512 76.965C108.473 76.9195 108.416 76.8513 108.308 76.7433C108.23 76.6598 108.146 76.5819 108.058 76.5103L107.91 76.374L107.74 76.1921C107.688 76.1353 107.643 76.0842 107.535 75.9762L107.154 75.5841L106.978 75.4023C106.925 75.3383 106.868 75.2776 106.808 75.2205C106.738 75.1482 106.655 75.0906 106.562 75.0512C106.47 75.0119 106.371 74.9917 106.271 74.9917C106.17 74.9917 106.071 75.0119 105.979 75.0512C105.887 75.0906 105.803 75.1482 105.734 75.2205C105.607 75.3538 105.538 75.5312 105.541 75.7149C105.547 75.9068 105.628 76.0886 105.768 76.2206Z" fill="white"/>
<path id="Vector_36" d="M104.955 82.9029C104.955 82.5108 105.046 82.5108 105.046 82.1187C105.046 81.9255 105.097 81.7835 105.285 81.7835C106.239 81.7835 106.239 81.8403 107.194 81.8403C108.149 81.8403 108.149 81.7835 109.103 81.7835C110.058 81.7835 110.058 81.8972 111.013 81.8972C111.967 81.8972 111.973 81.8176 112.927 81.8176C113.882 81.8176 113.882 81.6926 114.842 81.6926C114.947 81.7085 115.044 81.7592 115.117 81.8364C115.19 81.9136 115.236 82.0129 115.246 82.1187C115.246 82.5108 115.172 82.5108 115.172 82.9029C115.173 82.9477 115.166 82.9923 115.15 83.0343C115.135 83.0762 115.111 83.1146 115.08 83.1473C115.049 83.1801 115.013 83.2064 114.972 83.2249C114.931 83.2434 114.887 83.2537 114.842 83.2552C113.888 83.2552 113.888 83.3518 112.933 83.3518H111.024C110.069 83.3518 110.069 83.2836 109.109 83.2836C108.149 83.2836 108.154 83.3802 107.2 83.3802C106.245 83.3802 106.239 83.1586 105.285 83.1586C105.097 83.1586 104.955 83.0904 104.955 82.9029Z" fill="white"/>
</g>
</svg>
