<svg width="137" height="96" viewBox="0 0 137 96" fill="none" xmlns="http://www.w3.org/2000/svg">
<g clip-path="url(#clip0_9155_11985)">
<path d="M74.6749 90.2288C73.6453 90.2288 73.6453 90.2911 72.6158 90.2911C71.5863 90.2911 71.5863 90.325 70.5567 90.325C69.5272 90.325 69.5272 90.3589 68.4977 90.3589C67.4682 90.3589 67.4625 90.2175 66.433 90.2175C65.4035 90.2175 65.4035 90.2175 64.3739 90.2175C63.3444 90.2175 63.3444 90.1836 62.3149 90.1836C61.2853 90.1836 61.2854 90.3985 60.2558 90.3985C59.2263 90.3985 59.2206 90.2854 58.1911 90.2854C57.1616 90.2854 57.1616 90.3702 56.1321 90.3702C55.1025 90.3702 55.1025 90.2401 54.073 90.2401H52.0083C50.9788 90.2401 50.9788 90.2854 49.9549 90.2854C48.931 90.2854 48.9197 90.3759 47.8902 90.3759H45.8311C44.8016 90.3759 44.8016 90.2232 43.7721 90.2232C42.7426 90.2232 42.7426 90.3816 41.7074 90.3816C40.6722 90.3816 40.6779 90.2684 39.6483 90.2684H37.5893C36.5541 90.2684 36.5541 90.2175 35.5246 90.2175C34.495 90.2175 34.495 90.3533 33.4599 90.3533C32.4247 90.3533 32.4303 90.3193 31.4008 90.3193C30.3713 90.3193 30.3713 90.2119 29.3361 90.2119H27.277C26.2418 90.2119 26.2418 90.2458 25.2123 90.2458C24.1828 90.2458 24.1771 90.3646 23.1476 90.3646C22.4523 90.3079 21.7676 90.1595 21.1112 89.9234C20.4476 89.7513 19.8102 89.4907 19.2162 89.1484C17.9402 88.5708 16.9299 87.5322 16.3878 86.2408C16.0152 85.6644 15.7222 85.0403 15.5167 84.3854C15.3085 83.7234 15.1887 83.0367 15.1603 82.3433C15.1603 81.212 15.1603 81.212 15.1603 80.1202C15.1603 79.0285 15.3639 78.9889 15.3639 77.8915C15.3639 76.7941 15.149 76.7601 15.149 75.6684C15.149 74.5766 15.2055 74.537 15.2055 73.4396C15.2055 72.3422 15.3639 72.3083 15.3639 71.2109C15.2871 70.5202 15.2985 69.8226 15.3979 69.1348C15.6444 68.4835 15.9753 67.8673 16.3822 67.3021C16.711 66.7022 17.1181 66.1487 17.5927 65.656C18.3077 64.8982 19.1694 64.2938 20.1253 63.8796C21.0812 63.4653 22.1114 63.2498 23.1533 63.2462C24.1828 63.2462 24.1828 63.4046 25.2123 63.4046C26.2418 63.4046 26.2418 63.3537 27.2714 63.3537C28.3009 63.3537 28.3009 63.2009 29.3304 63.2009C30.3599 63.2009 30.36 63.4215 31.3895 63.4215C32.419 63.4215 32.419 63.2179 33.4542 63.2179C34.4894 63.2179 34.4837 63.4329 35.5133 63.4329C36.5428 63.4329 36.5428 63.2462 37.5723 63.2462C38.6018 63.2462 38.6018 63.2179 39.6314 63.2179C40.6609 63.2179 40.6609 63.3027 41.6961 63.3027C42.7312 63.3027 42.7256 63.2518 43.7551 63.2518C44.7846 63.2518 44.7846 63.3367 45.8142 63.3367C46.8437 63.3367 46.8437 63.2179 47.8732 63.2179C48.9027 63.2179 48.9027 63.3876 49.9323 63.3876C50.9618 63.3876 50.9618 63.2518 51.9913 63.2518C53.0208 63.2518 53.0265 63.1726 54.056 63.1726C55.0856 63.1726 55.0856 63.4215 56.1151 63.4215C57.1446 63.4215 57.1446 63.3367 58.1798 63.3367C59.215 63.3367 59.2093 63.3763 60.2389 63.3763C61.2684 63.3763 61.2684 63.4385 62.3036 63.4385C63.3387 63.4385 63.3331 63.2066 64.3626 63.2066C65.3922 63.2066 65.3921 63.4159 66.4273 63.4159C67.4625 63.4159 67.4568 63.2236 68.4864 63.2236C69.5159 63.2236 69.5159 63.167 70.5511 63.167C71.5863 63.167 71.5806 63.2349 72.6158 63.2349H74.6805C75.3713 63.2866 76.0522 63.4292 76.7056 63.6591C78.0439 63.9814 79.2636 64.6756 80.2241 65.6616C80.7973 66.0676 81.2813 66.5868 81.6462 67.1871C82.011 67.7873 82.249 68.456 82.3454 69.1518C82.512 69.8232 82.59 70.5136 82.5773 71.2052C82.5773 72.3366 82.5151 72.3366 82.5151 73.4283C82.5151 74.5201 82.5773 74.5597 82.5773 75.6571C82.5773 76.7545 82.5773 76.7884 82.5773 77.8802C82.5773 78.9719 82.5773 79.0115 82.5773 80.1089C82.5773 81.2063 82.6565 81.2403 82.6565 82.3377C82.6534 83.0383 82.5622 83.7358 82.385 84.4137C82.1905 85.0866 81.9091 85.7313 81.5478 86.3313C81.1948 86.9329 80.7629 87.4846 80.2637 87.9718C79.579 88.781 78.7028 89.4063 77.7149 89.7906C76.7269 90.1749 75.6586 90.3061 74.607 90.1723L74.6749 90.2288Z" fill="#F2F2FF"/>
<path d="M48.7104 50.5582C48.0203 49.8398 48.8292 49.5795 48.8292 48.5896C48.8292 47.5997 48.7331 47.594 48.7331 46.5984C48.7331 45.6029 48.7331 45.6029 48.7331 44.6129C48.7331 43.623 48.7048 43.6173 48.7048 42.6218C48.7048 41.6262 48.7953 41.6262 48.7953 40.6362C48.7953 39.6463 48.5803 39.6407 48.5803 38.6451C48.5803 37.6495 48.6765 37.6495 48.6765 36.6539C48.6765 35.6583 48.7613 35.6583 48.7613 34.6627C48.7613 33.6671 48.7274 33.6671 48.7274 32.6772C48.7274 31.6873 48.6199 31.6816 48.6199 30.686C48.6199 29.6904 48.8462 29.6905 48.8462 28.6949C48.8462 27.6993 48.603 27.6993 48.603 26.7037C48.603 25.7081 48.7104 25.7081 48.7104 24.7069C48.7104 23.7056 49.4345 23.4002 48.7104 22.7044C47.9864 22.0086 47.6809 22.7044 46.6683 22.7044C45.6558 22.7044 45.6501 22.563 44.6376 22.563C43.625 22.563 43.6194 22.7836 42.6012 22.7836C41.583 22.7836 41.5829 22.71 40.5704 22.71C39.5578 22.71 39.5522 22.5912 38.534 22.5912C37.5158 22.5912 37.5158 22.6591 36.5032 22.6591H34.4441C33.4259 22.6591 33.4259 22.7496 32.4077 22.7496C31.3895 22.7496 31.3895 22.71 30.3713 22.71C29.3531 22.71 29.3531 22.6478 28.3349 22.6478C27.3167 22.6478 27.3223 22.5856 26.3041 22.5856C25.2859 22.5856 25.2859 22.7157 24.2677 22.7157C23.2495 22.7157 23.2494 22.6252 22.2312 22.6252C21.213 22.6252 21.213 22.8345 20.1948 22.8345C19.1766 22.8345 18.8542 21.9577 18.1244 22.6704C17.3947 23.3832 18.0283 23.6943 18.0283 24.6842C18.0283 25.6742 18.0848 25.6798 18.0848 26.6754C18.0848 27.671 18.0848 27.6653 18.0848 28.6609C18.0848 29.6565 18.017 29.6565 18.017 30.6521C18.017 31.6477 18.017 31.6477 18.017 32.6376V36.5973C18.017 37.5929 18.1584 37.5929 18.1584 38.5885C18.1584 39.5841 18.2828 39.5784 18.2828 40.574C18.2828 41.5696 18.0396 41.5696 18.0396 42.5652C18.0396 43.5608 18.0962 43.5608 18.0962 44.5564C18.0962 45.552 18.0509 45.552 18.0509 46.5475C18.0509 47.5431 18.1075 47.5431 18.1075 48.5387C18.1075 49.5343 18.8202 49.8058 18.1075 50.5299C17.3947 51.254 17.1685 50.5695 16.2181 50.5695C15.2678 50.5695 15.2678 50.6487 14.3231 50.6487C13.3784 50.6487 13.3728 50.4111 12.4225 50.4111C11.4721 50.4111 11.4721 50.4959 10.5274 50.4959C9.58276 50.4959 9.5771 50.677 8.62677 50.677C7.67643 50.677 6.9637 49.6135 6.64126 50.5073C6.31883 51.401 7.36531 51.3501 8.02715 52.142C8.68899 52.934 8.65506 52.9623 9.32255 53.7542C9.99005 54.5462 9.97873 54.5575 10.6462 55.3494C11.3137 56.1414 11.2911 56.1527 11.9529 56.9446C12.6148 57.7366 12.6827 57.6857 13.3501 58.4776C14.0176 59.2695 13.995 59.2809 14.6625 60.0728C15.33 60.8647 15.3696 60.8308 16.0371 61.6227C16.7046 62.4147 16.7329 62.3864 17.4004 63.1783C18.0679 63.9703 18.0848 63.9533 18.7523 64.7453C19.4198 65.5372 19.318 65.6277 19.9798 66.4423C20.6417 67.2569 20.6643 67.2173 21.3318 68.0092C21.9993 68.8012 21.971 68.8238 22.6385 69.6157C23.306 70.4077 23.4644 70.2719 24.1319 71.0638C24.7994 71.8558 24.6976 71.9293 25.382 72.7213C26.0665 73.5132 26.1118 73.4623 26.7793 74.2543C27.4468 75.0462 27.3449 75.131 28.0124 75.923L29.3474 77.5069C30.0149 78.2988 30.0489 78.2705 30.7163 79.0625C31.3838 79.8544 31.4517 79.8035 32.1192 80.5955C32.7867 81.3874 32.3398 82.1341 33.375 82.1341C34.4102 82.1341 34.0764 81.4836 34.7383 80.6916C35.4001 79.8997 35.304 79.7978 35.9488 78.9946C36.5937 78.1913 36.7012 78.2762 37.363 77.4842L38.6924 75.9004C39.3542 75.1084 39.3938 75.1424 40.0613 74.3504C40.7288 73.5585 40.627 73.468 41.2888 72.6534C41.9506 71.8388 41.9789 71.8841 42.6464 71.0921C43.3139 70.3002 43.3931 70.3737 44.0606 69.5761C44.7281 68.7785 44.7224 68.7842 45.3843 67.9922C46.0461 67.2003 46.0291 67.1777 46.6966 66.3857C47.3641 65.5938 47.2623 65.5146 47.9355 64.7226C48.6086 63.9307 48.7331 64.0382 49.4006 63.2462C50.0681 62.4543 50.0567 62.4486 50.7242 61.6567C51.3917 60.8647 51.3238 60.8082 51.9913 60.0162C52.6588 59.2243 52.7663 59.3148 53.4338 58.5228C54.1013 57.7309 54.0334 57.6744 54.7009 56.8768C55.3684 56.0792 55.2949 56.0282 55.9624 55.2363C56.6299 54.4443 56.6242 54.4387 57.2917 53.6467C57.9592 52.8548 58.1119 52.9793 58.7794 52.1873C59.4469 51.3954 60.2841 51.5368 59.9391 50.5582C59.6223 49.6644 59.0849 50.5582 58.1346 50.5582C57.1842 50.5582 57.1842 50.3998 56.2396 50.3998C55.2949 50.3998 55.2892 50.6374 54.3389 50.6374C53.3886 50.6374 53.3886 50.4281 52.4439 50.4281C51.4992 50.4281 51.4596 50.2753 50.5319 50.4733C49.6042 50.6713 49.3666 51.2426 48.7104 50.5582Z" fill="#C7C7FF"/>
<path d="M48.7104 50.5582C48.0203 49.8398 48.8292 49.5795 48.8292 48.5896C48.8292 47.5997 48.7331 47.594 48.7331 46.5984C48.7331 45.6029 48.7331 45.6029 48.7331 44.6129C48.7331 43.623 48.7048 43.6173 48.7048 42.6218C48.7048 41.6262 48.7953 41.6262 48.7953 40.6362C48.7953 39.6463 48.5803 39.6407 48.5803 38.6451C48.5803 37.6495 48.6765 37.6495 48.6765 36.6539C48.6765 35.6583 48.7613 35.6583 48.7613 34.6627C48.7613 33.6671 48.7274 33.6671 48.7274 32.6772C48.7274 31.6873 48.6199 31.6816 48.6199 30.686C48.6199 29.6904 48.8462 29.6905 48.8462 28.6949C48.8462 27.6993 48.603 27.6993 48.603 26.7037C48.603 25.7081 48.7104 25.7081 48.7104 24.7069C48.7104 23.7056 49.4345 23.4002 48.7104 22.7044C47.9864 22.0086 47.6809 22.7044 46.6683 22.7044C45.6558 22.7044 45.6501 22.563 44.6376 22.563C43.625 22.563 43.6194 22.7836 42.6012 22.7836C41.5829 22.7836 41.5829 22.71 40.5704 22.71C39.5578 22.71 39.5522 22.5912 38.534 22.5912C37.5158 22.5912 37.5158 22.6591 36.5032 22.6591H34.4441C33.4259 22.6591 33.4259 22.7496 32.4077 22.7496C31.3895 22.7496 31.3895 22.71 30.3713 22.71C29.3531 22.71 29.3531 22.6478 28.3349 22.6478C27.3166 22.6478 27.3223 22.5856 26.3041 22.5856C25.2859 22.5856 25.2859 22.7157 24.2677 22.7157C23.2495 22.7157 23.2494 22.6252 22.2312 22.6252C21.213 22.6252 21.213 22.8345 20.1948 22.8345C19.1766 22.8345 18.8542 21.9577 18.1244 22.6704C17.3947 23.3832 18.0283 23.6943 18.0283 24.6842C18.0283 25.6742 18.0848 25.6798 18.0848 26.6754C18.0848 27.671 18.0848 27.6653 18.0848 28.6609C18.0848 29.6565 18.017 29.6565 18.017 30.6521C18.017 31.6477 18.017 31.6477 18.017 32.6376V36.5973C18.017 37.5929 18.1584 37.5929 18.1584 38.5885C18.1584 39.5841 18.2828 39.5784 18.2828 40.574C18.2828 41.5696 18.0396 41.5696 18.0396 42.5652C18.0396 43.5608 18.0962 43.5608 18.0962 44.5564C18.0962 45.552 18.0509 45.552 18.0509 46.5475C18.0509 47.5431 18.1075 47.5431 18.1075 48.5387C18.1075 49.5343 18.8202 49.8058 18.1075 50.5299C17.3947 51.254 17.1685 50.5695 16.2181 50.5695C15.2678 50.5695 15.2678 50.6487 14.3231 50.6487C13.3784 50.6487 13.3728 50.4111 12.4225 50.4111C11.4721 50.4111 11.4721 50.4959 10.5274 50.4959C9.58276 50.4959 9.5771 50.677 8.62677 50.677C7.67643 50.677 6.9637 49.6135 6.64126 50.5073C6.31883 51.401 7.36531 51.3501 8.02715 52.142C8.68899 52.934 8.65506 52.9623 9.32255 53.7542C9.99005 54.5462 9.97873 54.5575 10.6462 55.3494C11.3137 56.1414 11.2911 56.1527 11.9529 56.9446C12.6148 57.7366 12.6827 57.6857 13.3501 58.4776C14.0176 59.2695 13.995 59.2809 14.6625 60.0728C15.33 60.8647 15.3696 60.8308 16.0371 61.6227C16.7046 62.4147 16.7329 62.3864 17.4004 63.1784C18.0679 63.9703 18.0848 63.9533 18.7523 64.7453C19.4198 65.5372 19.318 65.6277 19.9798 66.4423C20.6417 67.2569 20.6643 67.2173 21.3318 68.0092C21.9993 68.8012 21.971 68.8238 22.6385 69.6157C23.306 70.4077 23.4644 70.2719 24.1319 71.0638C24.7994 71.8558 24.6976 71.9293 25.382 72.7213C26.0665 73.5132 26.1118 73.4623 26.7793 74.2543C27.4468 75.0462 27.3449 75.131 28.0124 75.923L29.3474 77.5069C30.0149 78.2988 30.0489 78.2705 30.7163 79.0625C31.3838 79.8544 31.4517 79.8035 32.1192 80.5955C32.7867 81.3874 32.3398 82.1341 33.375 82.1341C34.4102 82.1341 34.0764 81.4836 34.7383 80.6916C35.4001 79.8997 35.304 79.7978 35.9488 78.9946C36.5937 78.1913 36.7012 78.2762 37.363 77.4843L38.6924 75.9004C39.3542 75.1084 39.3938 75.1424 40.0613 74.3504C40.7288 73.5585 40.627 73.468 41.2888 72.6534C41.9506 71.8388 41.9789 71.8841 42.6464 71.0921C43.3139 70.3002 43.3931 70.3737 44.0606 69.5761C44.7281 68.7785 44.7224 68.7842 45.3843 67.9922C46.0461 67.2003 46.0291 67.1777 46.6966 66.3857C47.3641 65.5938 47.2623 65.5146 47.9355 64.7226C48.6086 63.9307 48.7331 64.0382 49.4006 63.2462C50.0681 62.4543 50.0567 62.4486 50.7242 61.6567C51.3917 60.8647 51.3238 60.8082 51.9913 60.0162C52.6588 59.2243 52.7663 59.3148 53.4338 58.5228C54.1013 57.7309 54.0334 57.6744 54.7009 56.8768C55.3684 56.0792 55.2949 56.0282 55.9624 55.2363C56.6299 54.4443 56.6242 54.4387 57.2917 53.6467C57.9592 52.8548 58.1119 52.9793 58.7794 52.1873C59.4469 51.3954 60.2841 51.5368 59.9391 50.5582C59.6223 49.6644 59.0849 50.5582 58.1346 50.5582C57.1842 50.5582 57.1842 50.3998 56.2396 50.3998C55.2949 50.3998 55.2892 50.6374 54.3389 50.6374C53.3886 50.6374 53.3886 50.4281 52.4439 50.4281C51.4992 50.4281 51.4596 50.2753 50.5319 50.4733C49.6042 50.6713 49.3666 51.2426 48.7104 50.5582Z" stroke="#C7C7FF" stroke-width="0.848511" stroke-miterlimit="10" stroke-linecap="round"/>
<path d="M45.9556 46.1063C46.6683 45.4445 45.9895 45.1786 45.9895 44.2C45.9895 43.2214 46.0744 43.227 46.0744 42.2484C46.0744 41.2698 45.933 41.2755 45.933 40.2968C45.933 39.3182 45.9047 39.3239 45.9047 38.3453C45.9047 37.3666 46.1027 37.3723 46.1027 36.3937C46.1027 35.4151 46.0008 35.4151 46.0008 34.4421C46.0008 33.4692 46.0008 33.4635 46.0008 32.4905C46.0008 31.5176 45.899 31.5119 45.899 30.539C45.899 29.566 45.9782 29.5603 45.9782 28.5817C45.9782 27.6031 46.0857 27.6088 46.0857 26.6302C46.0857 25.6515 46.0461 25.6515 46.0461 24.6729C46.0461 23.6943 46.691 23.3888 45.9782 22.7214C45.2655 22.0539 44.9374 22.8401 43.8909 22.8401C42.8444 22.8401 42.8444 22.6761 41.7922 22.6761C40.7401 22.6761 40.7457 22.6025 39.6992 22.6025C38.6527 22.6025 38.6527 22.8062 37.6006 22.8062C36.5484 22.8062 36.5541 22.8062 35.5076 22.8062C34.4611 22.8062 34.4611 22.6082 33.4146 22.6082C32.3681 22.6082 32.3624 22.7214 31.3159 22.7214C30.2695 22.7214 30.2695 22.8684 29.2173 22.8684C28.1652 22.8684 27.9276 22.0595 27.1582 22.7723C26.3889 23.485 27.1922 23.7056 27.1922 24.6842C27.1922 25.6629 27.1922 25.6572 27.1922 26.6358C27.1922 27.6144 27.0734 27.6088 27.0734 28.5874C27.0734 29.566 26.9603 29.5604 26.9603 30.539C26.9603 31.5176 27.0564 31.5176 27.0564 32.4905C27.0564 33.4635 27.0564 33.4692 27.0564 34.4421C27.0564 35.4151 27.0847 35.4207 27.0847 36.3937C27.0847 37.3666 26.9942 37.3723 26.9942 38.3509C26.9942 39.3295 27.2092 39.3239 27.2092 40.3025C27.2092 41.2811 27.113 41.2811 27.113 42.2541C27.113 43.227 27.0281 43.2327 27.0281 44.2113C27.0281 45.1899 26.355 45.5124 27.0677 46.1799C27.7805 46.8473 28.1255 46.078 29.172 46.078C30.2185 46.078 30.2185 46.3043 31.2707 46.3043C32.3229 46.3043 32.3172 46.0611 33.3637 46.0611C34.4102 46.0611 34.4102 46.1685 35.4623 46.1685C36.5145 46.1685 36.5088 46.1685 37.5553 46.1685C38.6018 46.1685 38.6018 46.1685 39.6483 46.1685C40.6948 46.1685 40.7005 46.3156 41.747 46.3156C42.7935 46.3156 42.8331 45.8857 43.8626 46.0893C44.8921 46.293 45.1919 46.8247 45.9556 46.1063Z" fill="#414C58"/>
<path d="M126.954 66.6629C125.959 66.6629 125.959 66.7534 124.963 66.7534C123.968 66.7534 123.968 66.8496 122.972 66.8496C121.977 66.8496 121.977 66.7647 120.981 66.7647C119.985 66.7647 119.98 66.6573 118.984 66.6573C117.989 66.6573 117.734 67.387 117.044 66.6573C116.354 65.9275 116.902 65.6787 116.902 64.6491C116.902 63.6196 117.072 63.6196 117.072 62.5901C117.072 61.5605 117.117 61.5606 117.117 60.531C117.117 59.5015 117.05 59.5015 117.05 58.472C117.05 57.4424 116.885 57.4424 116.885 56.4129C116.885 55.3834 116.953 55.3834 116.953 54.3595C116.953 53.3357 117.066 53.33 117.066 52.3005C117.066 51.2709 116.999 51.2709 116.999 50.2414C116.999 49.2119 116.999 49.2119 116.999 48.1824C116.999 47.1528 116.852 47.1528 116.852 46.1233V44.0925C116.852 43.063 117.066 43.063 117.066 42.0335C117.066 41.004 116.846 41.004 116.846 39.9744C116.846 38.9449 116.885 38.9449 116.885 37.9154C116.885 36.8858 116.976 36.8859 116.976 35.8563C116.976 34.8268 116.868 34.8268 116.868 33.7973C116.868 32.7677 116.868 32.7677 116.868 31.7326C116.868 30.6974 116.868 30.703 116.868 29.6735C116.868 28.644 116.178 28.2876 116.868 27.5466C117.559 26.8055 117.926 27.4957 118.922 27.4957C119.917 27.4957 119.917 27.6654 120.913 27.6654C121.909 27.6654 121.909 27.6145 122.904 27.6145C123.9 27.6145 123.905 27.5466 124.901 27.5466C125.897 27.5466 125.897 27.6031 126.898 27.6031C127.225 27.6146 127.546 27.691 127.844 27.828C128.141 27.9649 128.408 28.1596 128.629 28.4007C128.879 28.6185 129.083 28.8836 129.229 29.1807C129.376 29.4778 129.462 29.801 129.483 30.1317C129.483 31.133 129.517 31.1329 129.517 32.1398C129.517 33.1467 129.313 33.1354 129.313 34.1367C129.313 35.1379 129.421 35.1379 129.421 36.1448C129.421 37.1517 129.421 37.1404 129.421 38.1416C129.421 39.1429 129.528 39.1429 129.528 40.1498C129.528 41.1567 129.449 41.151 129.449 42.1523C129.449 43.1535 129.336 43.1535 129.336 44.1548C129.336 45.156 129.376 45.156 129.376 46.1572C129.376 47.1585 129.449 47.1585 129.449 48.1597C129.449 49.161 129.562 49.1666 129.562 50.1679C129.562 51.1691 129.404 51.1691 129.404 52.1704C129.404 53.1716 129.325 53.1716 129.325 54.1729C129.325 55.1741 129.528 55.1797 129.528 56.181C129.528 57.1822 129.528 57.1822 129.528 58.1835C129.528 59.1847 129.33 59.1904 129.33 60.1916C129.33 61.1929 129.449 61.1985 129.449 62.1998C129.449 63.201 129.59 63.2067 129.59 64.2079C129.557 64.902 129.257 65.5565 128.753 66.035C128.259 66.4719 127.613 66.6974 126.954 66.6629Z" fill="#C2C2FF"/>
<path d="M123.73 66.6289C122.752 66.6289 122.752 66.8156 121.773 66.8156C120.794 66.8156 120.794 66.7138 119.816 66.7138C118.837 66.7138 118.837 66.6232 117.858 66.6232C116.88 66.6232 116.88 66.7986 115.901 66.7986C114.923 66.7986 114.923 66.8325 113.944 66.8325C112.965 66.8325 112.96 66.7477 111.981 66.7477C111.002 66.7477 110.997 66.8665 110.018 66.8665C109.741 66.8665 109.634 66.5101 109.634 66.2386C109.634 65.1921 109.634 65.1921 109.634 64.1456C109.634 63.0991 109.481 63.0991 109.481 62.0526C109.481 61.0061 109.413 61.0118 109.413 59.9653C109.413 58.9188 109.413 58.9188 109.413 57.8723C109.413 56.8258 109.458 56.8258 109.458 55.7793C109.458 54.7328 109.402 54.7328 109.402 53.6863C109.402 52.6398 109.566 52.6398 109.566 51.5933C109.56 51.4989 109.584 51.405 109.635 51.3252C109.685 51.2454 109.76 51.1837 109.848 51.1491C109.936 51.1145 110.033 51.1088 110.125 51.1327C110.216 51.1566 110.298 51.2089 110.358 51.2822C111.042 52.0119 111.031 52.0232 111.715 52.7586C112.4 53.494 112.468 53.4261 113.152 54.1615C113.836 54.8968 113.91 54.8233 114.594 55.5587C115.279 56.294 115.217 56.3449 115.901 57.0747C116.586 57.8044 116.506 57.8836 117.191 58.6133C117.875 59.343 117.875 59.3487 118.56 60.0841C119.244 60.8194 119.363 60.7063 120.048 61.436C120.732 62.1657 120.613 62.2845 121.298 63.0199C121.982 63.7553 121.948 63.7836 122.638 64.5189C123.328 65.2543 123.374 65.2034 124.064 65.9388C124.347 66.2556 124.166 66.6289 123.73 66.6289Z" fill="#414C58"/>
<path d="M116.914 82.1906C116.19 82.9034 115.969 82.2302 114.956 82.2302C113.944 82.2302 113.938 82.3547 112.92 82.3547C111.902 82.3547 111.902 82.168 110.884 82.168C109.865 82.168 109.871 82.3151 108.853 82.3151C107.835 82.3151 107.835 82.3151 106.822 82.3151C105.81 82.3151 105.804 82.2811 104.786 82.2811C103.767 82.2811 103.767 82.2811 102.749 82.2811C101.731 82.2811 101.731 82.3377 100.718 82.3377C99.7059 82.3377 99.7002 82.3377 98.682 82.3377C97.6638 82.3377 97.6638 82.1624 96.6512 82.1624C95.6387 82.1624 95.633 82.3773 94.6148 82.3773C93.5966 82.3773 93.5966 82.3264 92.5784 82.3264C91.5602 82.3264 91.5602 82.2698 90.5476 82.2698C89.5351 82.2698 89.5294 82.168 88.5112 82.168C87.493 82.168 87.493 82.4113 86.4748 82.4113C85.4566 82.4113 85.4566 82.349 84.4384 82.349C83.4201 82.349 83.4201 82.2642 82.4076 82.2642C81.395 82.2642 81.3894 82.1793 80.3712 82.1793H78.3348C77.3165 82.1793 77.3165 82.2472 76.2983 82.2472C75.2801 82.2472 75.2801 82.4056 74.2676 82.4056C73.255 82.4056 73.2493 82.2529 72.2311 82.2529C71.2129 82.2529 71.2129 82.1567 70.2003 82.1567C69.1878 82.1567 69.1821 82.2529 68.1639 82.2529H66.1275C65.1093 82.2529 65.1093 82.3094 64.0911 82.3094C63.0729 82.3094 63.0729 82.2529 62.0603 82.2529C61.0477 82.2529 61.0421 82.4339 60.0239 82.4339C59.0057 82.4339 59.0057 82.2302 57.9874 82.2302C56.9692 82.2302 56.9636 82.3264 55.9454 82.3264C54.9272 82.3264 54.9272 82.4113 53.9089 82.4113C52.8907 82.4113 52.8907 82.3717 51.8725 82.3717C50.8543 82.3717 50.8543 82.1906 49.8361 82.1906C48.8179 82.1906 48.8179 82.4169 47.7996 82.4169C46.7814 82.4169 46.7814 82.168 45.7632 82.168C44.745 82.168 44.7394 82.3717 43.7211 82.3717C43.3749 82.36 43.0453 82.2206 42.7957 81.9804C42.546 81.7402 42.3941 81.4161 42.3692 81.0706C42.3692 80.0524 42.5842 80.0524 42.5842 79.0342C42.5842 78.016 42.4371 78.016 42.4371 77.0034C42.4371 75.9908 42.3522 75.9852 42.3522 74.967C42.3522 73.9488 42.3522 73.9544 42.3522 72.9362C42.3522 71.918 42.3522 71.918 42.3522 70.8998C42.3522 69.8816 42.3239 69.8872 42.3239 68.869C42.3239 67.8508 42.3579 67.8508 42.3579 66.8326C42.3579 65.8144 42.4653 65.8144 42.4653 64.8018C42.4653 63.7892 42.4653 63.7836 42.4653 62.7654C42.4653 61.7472 42.4653 61.7472 42.4653 60.7346C42.4653 59.7221 42.5049 59.7164 42.5049 58.6982C42.5049 57.68 42.5049 57.68 42.5049 56.6618C42.5049 55.6436 42.3748 55.6492 42.3748 54.631C42.3748 53.6128 42.4484 53.6128 42.4484 52.5946C42.4484 51.5764 42.3126 51.5764 42.3126 50.5638C42.3126 49.5512 42.4201 49.5456 42.4201 48.5274C42.4201 47.5092 42.5785 47.5148 42.5785 46.4966C42.5785 45.4784 42.3692 45.4784 42.3692 44.4602C42.3692 43.442 42.3692 43.4476 42.3692 42.4294C42.3692 41.4112 42.5672 41.4112 42.5672 40.393C42.5672 39.3748 42.5672 39.3748 42.5672 38.3622C42.5672 37.3497 42.4936 37.344 42.4936 36.3258C42.4936 35.3076 42.3862 35.3076 42.3862 34.2893C42.3862 33.2711 42.3862 33.2711 42.3862 32.2529C42.3862 31.2347 42.4936 31.2347 42.4936 30.2165C42.4936 29.1983 42.4936 29.1983 42.4936 28.1801C42.4936 27.1619 42.4201 27.1619 42.4201 26.1436C42.4201 25.1254 42.4201 25.1254 42.4201 24.1129C42.4201 23.1003 42.5276 23.089 42.5276 22.0708C42.5276 21.0526 42.3692 21.0526 42.3692 20.0287C42.3981 19.6986 42.554 19.3926 42.8041 19.1752C43.0542 18.9578 43.3789 18.846 43.7098 18.8634C44.7394 18.8634 44.7394 18.8974 45.7689 18.8974C46.7984 18.8974 46.7928 18.8182 47.8223 18.8182C48.8518 18.8182 48.8518 18.9256 49.8813 18.9256C50.9109 18.9256 50.9052 18.739 51.9347 18.739C52.9643 18.739 52.9643 18.6994 53.9938 18.6994C55.0233 18.6994 55.0233 18.8351 56.0528 18.8351C57.0824 18.8351 57.0767 18.6824 58.1062 18.6824C59.1358 18.6824 59.1358 18.7163 60.1653 18.7163C61.1948 18.7163 61.1948 18.8069 62.2187 18.8069C63.2426 18.8069 63.2482 18.6711 64.2777 18.6711C65.3073 18.6711 65.3073 18.903 66.3368 18.903C67.3663 18.903 67.3663 18.7163 68.3958 18.7163C69.4254 18.7163 69.4197 18.8238 70.4492 18.8238C71.4788 18.8238 71.4788 18.9087 72.5083 18.9087C73.5378 18.9087 73.5378 18.7333 74.5673 18.7333C75.5969 18.7333 75.5969 18.7333 76.6264 18.7333C77.6559 18.7333 77.6559 18.8182 78.6855 18.8182C79.715 18.8182 79.7093 18.6994 80.7389 18.6994C81.7684 18.6994 81.7684 18.937 82.7979 18.937C83.8274 18.937 83.8274 18.937 84.857 18.937C85.8865 18.937 85.8865 18.7842 86.916 18.7842C87.9455 18.7842 87.9455 18.722 88.9694 18.722C89.9933 18.722 89.999 18.6881 91.0285 18.6881C92.058 18.6881 92.058 18.739 93.0875 18.739C94.117 18.739 94.117 18.6768 95.1466 18.6768C96.1761 18.6768 96.1761 18.8408 97.2 18.8408C98.2238 18.8408 98.2295 18.8408 99.259 18.8408H101.318C102.353 18.8408 102.353 18.7503 103.383 18.7503C104.412 18.7503 104.412 18.6598 105.442 18.6598C106.471 18.6598 106.471 18.739 107.501 18.739C108.53 18.739 108.53 18.8465 109.56 18.8465H111.619C112.649 18.8465 112.649 18.6824 113.684 18.6824C114.719 18.6824 114.713 18.8521 115.743 18.8521C115.894 18.8412 116.046 18.8629 116.188 18.9159C116.331 18.9689 116.46 19.0519 116.567 19.1592C116.674 19.2665 116.757 19.3957 116.81 19.5379C116.863 19.6801 116.885 19.8321 116.874 19.9835C116.874 20.9904 116.948 20.9904 116.948 21.9916C116.948 22.9928 117.106 22.9985 117.106 23.9997C117.106 25.001 117.038 25.0066 117.038 26.0079C117.038 27.0091 116.925 27.0148 116.925 28.016C116.925 29.0173 116.993 29.0173 116.993 30.0242C116.993 31.0311 116.993 31.0254 116.993 32.0323C116.993 33.0392 117.14 33.0336 117.14 34.0405V36.0486C117.14 37.0498 116.925 37.0498 116.925 38.0567C116.925 39.0636 117.146 39.058 117.146 40.0649C117.146 41.0718 117.106 41.0661 117.106 42.073C117.106 43.0799 117.021 43.0743 117.021 44.0812C117.021 45.0881 117.123 45.0824 117.123 46.0893C117.123 47.0962 117.095 47.0906 117.095 48.0975C117.095 49.1044 117.123 49.0987 117.123 50.1056V52.1137C117.123 53.115 117.123 53.115 117.123 54.1219C117.123 55.1288 116.953 55.1231 116.953 56.1244C116.953 57.1256 117.004 57.1313 117.004 58.1325C117.004 59.1338 117.072 59.1394 117.072 60.1407C117.072 61.1419 117.016 61.1476 117.016 62.1545C117.016 63.1614 116.931 63.1557 116.931 64.1626C116.931 65.1695 117.072 65.1638 117.072 66.1707C117.072 67.1776 117.106 67.172 117.106 68.1789C117.106 69.1858 116.902 69.1858 116.902 70.187C116.902 71.1883 117.004 71.1939 117.004 72.1952C117.004 73.1964 117.004 73.2021 117.004 74.209C117.004 75.2159 117.112 75.2102 117.112 76.2171C117.112 77.224 117.032 77.224 117.032 78.2253C117.032 79.2265 116.727 79.2717 116.925 80.2617C117.123 81.2516 117.626 81.4835 116.914 82.1906Z" fill="#E6E6E6"/>
<path d="M116.914 82.1906C116.19 82.9034 115.969 82.2302 114.956 82.2302C113.944 82.2302 113.938 82.3547 112.92 82.3547C111.902 82.3547 111.902 82.168 110.884 82.168C109.865 82.168 109.871 82.3151 108.853 82.3151C107.835 82.3151 107.835 82.3151 106.822 82.3151C105.81 82.3151 105.804 82.2811 104.786 82.2811C103.767 82.2811 103.767 82.2811 102.749 82.2811C101.731 82.2811 101.731 82.3377 100.718 82.3377C99.7059 82.3377 99.7002 82.3377 98.682 82.3377C97.6638 82.3377 97.6638 82.1624 96.6512 82.1624C95.6387 82.1624 95.633 82.3773 94.6148 82.3773C93.5966 82.3773 93.5966 82.3264 92.5784 82.3264C91.5602 82.3264 91.5602 82.2698 90.5476 82.2698C89.5351 82.2698 89.5294 82.168 88.5112 82.168C87.493 82.168 87.493 82.4113 86.4748 82.4113C85.4566 82.4113 85.4566 82.349 84.4384 82.349C83.4201 82.349 83.4201 82.2642 82.4076 82.2642C81.395 82.2642 81.3894 82.1793 80.3712 82.1793H78.3348C77.3165 82.1793 77.3165 82.2472 76.2983 82.2472C75.2801 82.2472 75.2801 82.4056 74.2676 82.4056C73.255 82.4056 73.2493 82.2529 72.2311 82.2529C71.2129 82.2529 71.2129 82.1567 70.2003 82.1567C69.1878 82.1567 69.1821 82.2529 68.1639 82.2529H66.1275C65.1093 82.2529 65.1093 82.3094 64.0911 82.3094C63.0729 82.3094 63.0729 82.2529 62.0603 82.2529C61.0477 82.2529 61.0421 82.4339 60.0239 82.4339C59.0057 82.4339 59.0057 82.2302 57.9874 82.2302C56.9692 82.2302 56.9636 82.3264 55.9454 82.3264C54.9272 82.3264 54.9272 82.4113 53.9089 82.4113C52.8907 82.4113 52.8907 82.3717 51.8725 82.3717C50.8543 82.3717 50.8543 82.1906 49.8361 82.1906C48.8179 82.1906 48.8179 82.4169 47.7996 82.4169C46.7814 82.4169 46.7814 82.168 45.7632 82.168C44.745 82.168 44.7394 82.3717 43.7211 82.3717C43.3749 82.36 43.0453 82.2206 42.7957 81.9804C42.546 81.7402 42.3941 81.4161 42.3692 81.0706C42.3692 80.0524 42.5842 80.0524 42.5842 79.0342C42.5842 78.016 42.4371 78.016 42.4371 77.0034C42.4371 75.9908 42.3522 75.9852 42.3522 74.967C42.3522 73.9488 42.3522 73.9544 42.3522 72.9362C42.3522 71.918 42.3522 71.918 42.3522 70.8998C42.3522 69.8816 42.3239 69.8872 42.3239 68.869C42.3239 67.8508 42.3579 67.8508 42.3579 66.8326C42.3579 65.8144 42.4653 65.8144 42.4653 64.8018C42.4653 63.7892 42.4653 63.7836 42.4653 62.7654C42.4653 61.7472 42.4653 61.7472 42.4653 60.7346C42.4653 59.7221 42.5049 59.7164 42.5049 58.6982C42.5049 57.68 42.5049 57.68 42.5049 56.6618C42.5049 55.6436 42.3748 55.6492 42.3748 54.631C42.3748 53.6128 42.4484 53.6128 42.4484 52.5946C42.4484 51.5764 42.3126 51.5764 42.3126 50.5638C42.3126 49.5512 42.4201 49.5456 42.4201 48.5274C42.4201 47.5092 42.5785 47.5148 42.5785 46.4966C42.5785 45.4784 42.3692 45.4784 42.3692 44.4602C42.3692 43.442 42.3692 43.4476 42.3692 42.4294C42.3692 41.4112 42.5672 41.4112 42.5672 40.393C42.5672 39.3748 42.5672 39.3748 42.5672 38.3622C42.5672 37.3497 42.4936 37.344 42.4936 36.3258C42.4936 35.3076 42.3862 35.3076 42.3862 34.2893C42.3862 33.2711 42.3862 33.2711 42.3862 32.2529C42.3862 31.2347 42.4936 31.2347 42.4936 30.2165C42.4936 29.1983 42.4936 29.1983 42.4936 28.1801C42.4936 27.1619 42.4201 27.1619 42.4201 26.1436C42.4201 25.1254 42.4201 25.1254 42.4201 24.1129C42.4201 23.1003 42.5276 23.089 42.5276 22.0708C42.5276 21.0526 42.3692 21.0526 42.3692 20.0287C42.3981 19.6986 42.554 19.3926 42.8041 19.1752C43.0542 18.9578 43.3789 18.846 43.7098 18.8634C44.7394 18.8634 44.7394 18.8974 45.7689 18.8974C46.7984 18.8974 46.7928 18.8182 47.8223 18.8182C48.8518 18.8182 48.8518 18.9256 49.8813 18.9256C50.9109 18.9256 50.9052 18.739 51.9347 18.739C52.9643 18.739 52.9643 18.6994 53.9938 18.6994C55.0233 18.6994 55.0233 18.8351 56.0528 18.8351C57.0824 18.8351 57.0767 18.6824 58.1062 18.6824C59.1358 18.6824 59.1358 18.7163 60.1653 18.7163C61.1948 18.7163 61.1948 18.8069 62.2187 18.8069C63.2426 18.8069 63.2482 18.6711 64.2777 18.6711C65.3073 18.6711 65.3073 18.903 66.3368 18.903C67.3663 18.903 67.3663 18.7163 68.3958 18.7163C69.4254 18.7163 69.4197 18.8238 70.4492 18.8238C71.4788 18.8238 71.4788 18.9087 72.5083 18.9087C73.5378 18.9087 73.5378 18.7333 74.5673 18.7333C75.5969 18.7333 75.5969 18.7333 76.6264 18.7333C77.6559 18.7333 77.6559 18.8182 78.6855 18.8182C79.715 18.8182 79.7093 18.6994 80.7389 18.6994C81.7684 18.6994 81.7684 18.937 82.7979 18.937C83.8274 18.937 83.8274 18.937 84.857 18.937C85.8865 18.937 85.8865 18.7842 86.916 18.7842C87.9455 18.7842 87.9455 18.722 88.9694 18.722C89.9933 18.722 89.999 18.6881 91.0285 18.6881C92.058 18.6881 92.058 18.739 93.0875 18.739C94.117 18.739 94.117 18.6768 95.1466 18.6768C96.1761 18.6768 96.1761 18.8408 97.2 18.8408C98.2238 18.8408 98.2295 18.8408 99.259 18.8408H101.318C102.353 18.8408 102.353 18.7503 103.383 18.7503C104.412 18.7503 104.412 18.6598 105.442 18.6598C106.471 18.6598 106.471 18.739 107.501 18.739C108.53 18.739 108.53 18.8465 109.56 18.8465H111.619C112.649 18.8465 112.649 18.6824 113.684 18.6824C114.719 18.6824 114.713 18.8521 115.743 18.8521C115.894 18.8412 116.046 18.8629 116.188 18.9159C116.331 18.9689 116.46 19.0519 116.567 19.1592C116.674 19.2665 116.757 19.3957 116.81 19.5379C116.863 19.6801 116.885 19.8321 116.874 19.9835C116.874 20.9904 116.948 20.9904 116.948 21.9916C116.948 22.9928 117.106 22.9985 117.106 23.9997C117.106 25.001 117.038 25.0066 117.038 26.0079C117.038 27.0091 116.925 27.0148 116.925 28.016C116.925 29.0173 116.993 29.0173 116.993 30.0242C116.993 31.0311 116.993 31.0254 116.993 32.0323C116.993 33.0392 117.14 33.0336 117.14 34.0405V36.0486C117.14 37.0498 116.925 37.0498 116.925 38.0567C116.925 39.0636 117.146 39.058 117.146 40.0649C117.146 41.0718 117.106 41.0661 117.106 42.073C117.106 43.0799 117.021 43.0743 117.021 44.0812C117.021 45.0881 117.123 45.0824 117.123 46.0893C117.123 47.0962 117.095 47.0906 117.095 48.0975C117.095 49.1044 117.123 49.0987 117.123 50.1056V52.1137C117.123 53.115 117.123 53.115 117.123 54.1219C117.123 55.1288 116.953 55.1231 116.953 56.1244C116.953 57.1256 117.004 57.1313 117.004 58.1325C117.004 59.1338 117.072 59.1394 117.072 60.1407C117.072 61.1419 117.016 61.1476 117.016 62.1545C117.016 63.1614 116.931 63.1557 116.931 64.1626C116.931 65.1695 117.072 65.1638 117.072 66.1707C117.072 67.1776 117.106 67.172 117.106 68.1789C117.106 69.1858 116.902 69.1858 116.902 70.187C116.902 71.1883 117.004 71.1939 117.004 72.1952C117.004 73.1964 117.004 73.2021 117.004 74.209C117.004 75.2159 117.112 75.2102 117.112 76.2171C117.112 77.224 117.032 77.224 117.032 78.2253C117.032 79.2265 116.727 79.2717 116.925 80.2617C117.123 81.2516 117.626 81.4835 116.914 82.1906Z" stroke="#414C58" stroke-width="0.848511" stroke-miterlimit="10" stroke-linecap="round"/>
<path d="M80.7502 59.5411C79.732 59.5411 79.732 59.3431 78.7194 59.3431H76.683C75.6704 59.3431 75.6704 59.5298 74.6522 59.5298C73.634 59.5298 73.634 59.4562 72.6214 59.4562C71.6089 59.4562 71.6032 59.5354 70.585 59.5354C69.5668 59.5354 69.5725 59.4336 68.5542 59.4336C67.536 59.4336 67.536 59.3601 66.5178 59.3601C65.4996 59.3601 65.5053 59.4789 64.487 59.4789C63.4688 59.4789 63.4688 59.5637 62.4506 59.5637C61.4324 59.5637 61.4324 59.5354 60.4142 59.5354C59.396 59.5354 59.396 59.3997 58.3778 59.3997C57.3596 59.3997 57.3652 59.2979 56.347 59.2979C55.3288 59.2979 55.3288 59.4789 54.3106 59.4789C53.2924 59.4789 53.2924 59.3205 52.2741 59.3205C51.2559 59.3205 51.2559 59.5241 50.2377 59.5241C49.2195 59.5241 49.2195 59.4223 48.2013 59.4223C48.0654 59.4224 47.9309 59.3951 47.8058 59.3421C47.6807 59.2891 47.5675 59.2115 47.473 59.1138C47.3786 59.0162 47.3047 58.9005 47.2559 58.7737C47.207 58.6469 47.1842 58.5116 47.1887 58.3758C47.1887 57.3463 47.1209 57.3463 47.1209 56.3167C47.1209 55.2872 47.036 55.2872 47.036 54.2577C47.036 53.2282 47.1039 53.2282 47.1039 52.1986C47.1039 51.1691 47.0021 51.1691 47.0021 50.1396C47.0021 49.1101 47.0021 49.1101 47.0021 48.0805C47.0021 47.051 47.251 47.0454 47.251 46.0158C47.251 44.9863 47.0926 44.9863 47.0926 43.9568C47.0926 42.9272 47.1944 42.9272 47.1944 41.8977C47.1944 40.8682 47.234 40.8682 47.234 39.833C47.234 38.7978 47.0982 38.8035 47.0982 37.774C47.0982 36.7444 47.1491 36.7444 47.1491 35.7092C47.1491 34.6741 47.0813 34.6797 47.0813 33.6502C47.0813 32.6207 47.1435 32.6207 47.1435 31.5911C47.1435 30.5616 47.0869 30.556 47.0869 29.5264C47.0869 28.4969 47.1831 28.4969 47.1831 27.4617C47.1831 26.4265 47.036 26.4322 47.036 25.397C47.0605 25.1184 47.1921 24.8602 47.4031 24.6766C47.6141 24.4931 47.8881 24.3985 48.1674 24.4127C49.1799 24.4127 49.1799 24.3279 50.1981 24.3279C51.2163 24.3279 51.2107 24.26 52.2289 24.26C53.2471 24.26 53.2471 24.424 54.2597 24.424C55.2722 24.424 55.2779 24.2996 56.2961 24.2996C57.3143 24.2996 57.3086 24.2996 58.3269 24.2996C59.3451 24.2996 59.3451 24.4693 60.3633 24.4693C61.3815 24.4693 61.3758 24.3958 62.3941 24.3958C63.4123 24.3958 63.4123 24.2713 64.4305 24.2713C65.4487 24.2713 65.4487 24.458 66.4613 24.458C67.4738 24.458 67.4795 24.3109 68.4977 24.3109C69.5159 24.3109 69.5159 24.3109 70.5341 24.3109C71.5523 24.3109 71.5523 24.3449 72.5705 24.3449C73.5888 24.3449 73.5831 24.3449 74.6013 24.3449C75.6195 24.3449 75.6195 24.2883 76.6377 24.2883C77.656 24.2883 77.6559 24.2883 78.6742 24.2883C79.6924 24.2883 79.698 24.4636 80.7162 24.4636C80.9898 24.4384 81.2623 24.5224 81.4742 24.6972C81.6862 24.8721 81.8204 25.1236 81.8476 25.397C81.8476 26.4265 81.7967 26.4265 81.7967 27.4561C81.7967 28.4856 81.7401 28.4856 81.7401 29.5151C81.7401 30.5446 81.6383 30.5446 81.6383 31.5742C81.6383 32.6037 81.8815 32.6037 81.8815 33.6332C81.8815 34.6627 81.8193 34.6627 81.8193 35.6923C81.8193 36.7218 81.7288 36.7275 81.7288 37.757C81.7288 38.7865 81.6496 38.7865 81.6496 39.816C81.6496 40.8456 81.6496 40.8456 81.6496 41.8751C81.6496 42.9046 81.7175 42.9046 81.7175 43.9398C81.7175 44.975 81.8759 44.9693 81.8759 45.9989C81.8759 47.0284 81.7231 47.0284 81.7231 48.0579C81.7231 49.0874 81.627 49.0931 81.627 50.1226C81.627 51.1521 81.7231 51.1521 81.7231 52.1817C81.7231 53.2112 81.7231 53.2112 81.7231 54.2464C81.7231 55.2816 81.7854 55.2759 81.7854 56.3111C81.7854 57.3463 81.7288 57.3406 81.7288 58.3758C81.7398 58.6569 81.6456 58.9321 81.4647 59.1476C81.2837 59.363 81.029 59.5033 80.7502 59.5411Z" fill="#59CF94"/>
<path d="M51.799 59.4222C52.8002 59.7616 52.8568 59.3261 53.9089 59.3261C54.9611 59.3261 54.9667 59.3261 56.0189 59.3261C57.071 59.3261 57.0767 59.575 58.1288 59.575C59.181 59.575 59.1866 59.5184 60.2445 59.5184C61.3023 59.5184 61.2966 59.377 62.3544 59.377H64.47C65.5222 59.377 65.5222 59.4958 66.58 59.4958C67.6378 59.4958 67.6378 59.4279 68.69 59.4279C69.7421 59.4279 69.7478 59.3374 70.8056 59.3374C71.8634 59.3374 71.8578 59.5127 72.9156 59.5127C73.9734 59.5127 73.9734 59.3883 75.0312 59.3883C76.089 59.3883 76.1625 59.8917 77.1807 59.5523C77.1807 58.8339 77.0167 58.0703 76.9601 57.431C76.896 56.7602 76.794 56.0935 76.6547 55.4342C76.6019 54.7503 76.5075 54.0702 76.3718 53.3978C76.1276 52.7585 75.8285 52.1415 75.4781 51.5537C75.1563 50.953 74.7775 50.3847 74.3467 49.8567C73.8545 49.3832 73.3098 48.9676 72.7232 48.6179C72.1934 48.2011 71.6252 47.8355 71.0262 47.5261C70.4194 47.2271 69.7962 46.9627 69.1595 46.7341C68.0281 46.3551 67.5869 46.2986 68.5033 45.7838C69.0538 45.3885 69.5652 44.9415 70.0306 44.4488C70.5603 44.0406 71.0456 43.578 71.4788 43.0686C71.9332 42.5666 72.3315 42.0165 72.6667 41.4281C72.9455 40.8055 73.1505 40.1525 73.2776 39.4822C73.4167 38.8166 73.4755 38.1367 73.453 37.4571C73.4162 36.816 73.3022 36.1816 73.1135 35.5677C72.9602 34.9445 72.7402 34.3395 72.4574 33.7632C72.13 33.2173 71.7512 32.704 71.326 32.2303C70.9305 31.7301 70.4872 31.2698 70.0023 30.8557C69.0696 29.9575 67.9287 29.3044 66.6818 28.955C66.0457 28.8558 65.4001 28.833 64.7585 28.8871C64.0779 28.8138 63.3914 28.8138 62.7108 28.8871C62.0386 29.0246 61.384 29.2371 60.7592 29.5207C60.1675 29.8643 59.6154 30.2722 59.1131 30.7369C57.9758 31.4888 57.0955 32.5704 56.5902 33.8368C56.259 34.4282 55.9989 35.0567 55.8152 35.7092C55.6358 36.3702 55.5333 37.0497 55.5098 37.7343C55.5487 38.3923 55.6645 39.0435 55.8548 39.6745C56.031 40.301 56.2797 40.9047 56.5959 41.4734C56.8743 42.0593 57.2157 42.6132 57.6141 43.1252C57.9887 43.665 58.415 44.167 58.8868 44.6242C59.3741 45.0735 59.9004 45.4786 60.4594 45.8347C61.3702 46.3551 60.9289 46.4004 59.7863 46.7624C59.116 46.8978 58.4577 47.087 57.8177 47.3281C57.2359 47.6857 56.6886 48.0966 56.1829 48.5556C55.62 48.9351 55.1036 49.3794 54.6443 49.8793C54.195 50.3922 53.7989 50.9495 53.462 51.5424C53.161 52.1542 52.9112 52.7899 52.7153 53.4431C52.5274 54.0944 52.3838 54.7578 52.2854 55.4286C52.1374 56.0897 52.0241 56.7581 51.946 57.431C51.8668 58.0307 51.799 58.7038 51.799 59.4222Z" fill="#4EA57A"/>
<path d="M107.167 33.0789C106.149 33.0789 106.149 33.0449 105.131 33.0449C104.113 33.0449 104.113 32.994 103.094 32.994C102.076 32.994 102.076 32.9601 101.058 32.9601C100.04 32.9601 100.04 32.9601 99.0271 32.9601C98.0145 32.9601 98.0089 33.0336 96.9907 33.0336C95.9725 33.0336 95.9725 32.977 94.9542 32.977C93.936 32.977 93.936 33.0789 92.9178 33.0789H90.8814C89.8632 33.0789 89.8632 32.9205 88.8393 32.9205C88.1125 32.9225 87.3989 32.7269 86.7746 32.3548C86.1168 32.0206 85.5602 31.5168 85.1624 30.8953C84.7535 30.2582 84.5195 29.5247 84.4836 28.7684C84.4956 27.6236 84.9583 26.5295 85.7716 25.7237C86.5849 24.9178 87.6831 24.4651 88.828 24.4636C89.8462 24.4636 89.8462 24.4354 90.8644 24.4354C91.8826 24.4354 91.8827 24.4976 92.9009 24.4976C93.9191 24.4976 93.9191 24.3958 94.9373 24.3958C95.9555 24.3958 95.9555 24.3958 96.9681 24.3958C97.9806 24.3958 97.9863 24.6446 99.0045 24.6446C100.023 24.6446 100.023 24.5881 101.041 24.5881C102.059 24.5881 102.059 24.441 103.077 24.441H105.153C106.172 24.441 106.172 24.5654 107.195 24.5654C107.944 24.5425 108.685 24.7161 109.345 25.0689C110.03 25.3921 110.594 25.9233 110.959 26.5866C111.324 27.25 111.47 28.0116 111.376 28.7628H111.5C111.446 29.5109 111.194 30.2313 110.77 30.8501C110.485 31.5603 109.982 32.1619 109.334 32.5684C108.686 32.9749 107.925 33.1655 107.161 33.1128L107.167 33.0789Z" fill="#E6E6E6"/>
<path d="M107.167 33.0789C106.149 33.0789 106.149 33.0449 105.131 33.0449C104.113 33.0449 104.113 32.994 103.094 32.994C102.076 32.994 102.076 32.9601 101.058 32.9601C100.04 32.9601 100.04 32.9601 99.0271 32.9601C98.0145 32.9601 98.0089 33.0336 96.9907 33.0336C95.9725 33.0336 95.9725 32.977 94.9542 32.977C93.936 32.977 93.936 33.0789 92.9178 33.0789H90.8814C89.8632 33.0789 89.8632 32.9205 88.8393 32.9205C88.1125 32.9225 87.3989 32.7269 86.7746 32.3548C86.1168 32.0206 85.5602 31.5168 85.1624 30.8953C84.7535 30.2582 84.5195 29.5247 84.4836 28.7684C84.4956 27.6236 84.9583 26.5295 85.7716 25.7237C86.5849 24.9178 87.6831 24.4651 88.828 24.4636C89.8462 24.4636 89.8462 24.4354 90.8644 24.4354C91.8826 24.4354 91.8827 24.4976 92.9009 24.4976C93.9191 24.4976 93.9191 24.3958 94.9373 24.3958C95.9555 24.3958 95.9555 24.3958 96.9681 24.3958C97.9806 24.3958 97.9863 24.6446 99.0045 24.6446C100.023 24.6446 100.023 24.5881 101.041 24.5881C102.059 24.5881 102.059 24.441 103.077 24.441H105.153C106.172 24.441 106.172 24.5654 107.195 24.5654C107.944 24.5425 108.685 24.7161 109.345 25.0689C110.03 25.3921 110.594 25.9233 110.959 26.5866C111.324 27.25 111.47 28.0116 111.376 28.7628H111.5C111.446 29.5109 111.194 30.2313 110.77 30.8501C110.485 31.5603 109.982 32.1619 109.334 32.5684C108.686 32.9749 107.925 33.1655 107.161 33.1128L107.167 33.0789Z" stroke="#414C58" stroke-width="0.848511" stroke-miterlimit="10" stroke-linecap="round"/>
<path d="M107.167 46.0441C106.149 46.0441 106.149 46.1063 105.131 46.1063C104.113 46.1063 104.112 46.0215 103.094 46.0215C102.076 46.0215 102.076 46.2817 101.058 46.2817C100.04 46.2817 100.04 46.1176 99.0271 46.1176C98.0145 46.1176 98.0089 46.1629 96.9907 46.1629C95.9724 46.1629 95.9724 46.2138 94.9542 46.2138C93.936 46.2138 93.936 46.1629 92.9178 46.1629C91.8996 46.1629 91.8996 46.1629 90.8814 46.1629C89.8632 46.1629 89.8631 46.1629 88.8393 46.1629C88.0821 46.2139 87.3244 46.0698 86.6388 45.7443C85.9878 45.3386 85.4505 44.7741 85.0776 44.1038C84.6816 43.4466 84.4614 42.6986 84.4384 41.9316H84.5176C84.5329 41.1773 84.7455 40.4401 85.1341 39.7934C85.4887 39.1195 86.0132 38.5501 86.6558 38.1416C87.3262 37.7813 88.0783 37.6001 88.8393 37.6155C89.8575 37.6155 89.8575 37.559 90.8757 37.559C91.8939 37.559 91.8939 37.559 92.9121 37.559C93.9304 37.559 93.9304 37.7569 94.9486 37.7569C95.9668 37.7569 95.9668 37.6042 96.9793 37.6042C97.9919 37.6042 97.9976 37.6382 99.0158 37.6382C100.034 37.6382 100.034 37.6947 101.052 37.6947C102.07 37.6947 102.07 37.723 103.089 37.723C104.107 37.723 104.107 37.723 105.125 37.723C106.143 37.723 106.143 37.6495 107.167 37.6495C107.912 37.6641 108.639 37.8791 109.271 38.2717C109.937 38.6164 110.499 39.1318 110.901 39.7651C111.274 40.4219 111.469 41.1649 111.466 41.9203H111.308C111.31 42.6489 111.115 43.3644 110.742 43.9907C110.434 44.6659 109.924 45.2291 109.283 45.6029C108.642 45.9767 107.901 46.1426 107.161 46.078L107.167 46.0441Z" fill="#E6E6E6"/>
<path d="M107.167 46.0441C106.149 46.0441 106.149 46.1063 105.131 46.1063C104.113 46.1063 104.112 46.0215 103.094 46.0215C102.076 46.0215 102.076 46.2817 101.058 46.2817C100.04 46.2817 100.04 46.1176 99.0271 46.1176C98.0145 46.1176 98.0089 46.1629 96.9907 46.1629C95.9724 46.1629 95.9724 46.2138 94.9542 46.2138C93.936 46.2138 93.936 46.1629 92.9178 46.1629C91.8996 46.1629 91.8996 46.1629 90.8814 46.1629C89.8632 46.1629 89.8631 46.1629 88.8393 46.1629C88.0821 46.2139 87.3244 46.0698 86.6388 45.7443C85.9878 45.3386 85.4505 44.7741 85.0776 44.1038C84.6816 43.4466 84.4614 42.6986 84.4384 41.9316H84.5176C84.5329 41.1773 84.7455 40.4401 85.1341 39.7934C85.4887 39.1195 86.0132 38.5501 86.6558 38.1416C87.3262 37.7813 88.0783 37.6001 88.8393 37.6155C89.8575 37.6155 89.8575 37.559 90.8757 37.559C91.8939 37.559 91.8939 37.559 92.9121 37.559C93.9304 37.559 93.9304 37.7569 94.9486 37.7569C95.9668 37.7569 95.9668 37.6042 96.9793 37.6042C97.9919 37.6042 97.9976 37.6382 99.0158 37.6382C100.034 37.6382 100.034 37.6947 101.052 37.6947C102.07 37.6947 102.07 37.723 103.089 37.723C104.107 37.723 104.107 37.723 105.125 37.723C106.143 37.723 106.143 37.6495 107.167 37.6495C107.912 37.6641 108.639 37.8791 109.271 38.2717C109.937 38.6164 110.499 39.1318 110.901 39.7651C111.274 40.4219 111.469 41.1649 111.466 41.9203H111.308C111.31 42.6489 111.115 43.3644 110.742 43.9907C110.434 44.6659 109.924 45.2291 109.283 45.6029C108.642 45.9767 107.901 46.1426 107.161 46.078L107.167 46.0441Z" stroke="#414C58" stroke-width="0.848511" stroke-miterlimit="10" stroke-linecap="round"/>
<path d="M108.197 76.0191C107.19 76.0191 107.19 75.9795 106.189 75.9795H104.18C103.174 75.9795 103.173 75.9286 102.167 75.9286C101.16 75.9286 101.165 75.9286 100.158 75.9286C99.1515 75.9286 99.1572 76.07 98.1503 76.07C97.1434 76.07 97.1491 75.9456 96.1422 75.9456C95.1353 75.9456 95.1353 75.8268 94.134 75.8268C93.1328 75.8268 93.1271 75.9116 92.1259 75.9116C91.1246 75.9116 91.119 75.8833 90.1121 75.8833C89.1052 75.8833 89.1108 75.9512 88.1039 75.9512C87.097 75.9512 87.097 75.8664 86.0958 75.8664C85.0945 75.8664 85.0889 76.0191 84.0877 76.0191C83.0864 76.0191 83.0808 75.9116 82.0739 75.9116C81.067 75.9116 81.0726 75.8551 80.0657 75.8551C79.0588 75.8551 79.0644 76.0248 78.0575 76.0248C77.0506 76.0248 77.0563 75.8324 76.0494 75.8324C75.0425 75.8324 75.0482 75.9343 74.0413 75.9343C73.0344 75.9343 73.0344 75.906 72.0331 75.906C71.0319 75.906 71.0262 75.8437 70.0193 75.8437C69.0124 75.8437 69.0181 76.0587 68.0112 76.0587C67.0043 76.0587 67.0043 75.906 66.0031 75.906C65.0018 75.906 64.9962 75.9512 63.9893 75.9512C62.9824 75.9512 62.9823 75.8607 61.9811 75.8607C60.9799 75.8607 60.9742 75.8947 59.973 75.8947C58.9717 75.8947 58.9661 75.9456 57.9592 75.9456C56.9523 75.9456 56.9523 75.9456 55.9454 75.9456C54.9385 75.9456 54.9441 75.8947 53.9372 75.8947C52.9303 75.8947 52.9303 76.0587 51.9234 76.0587C50.9165 76.0587 50.9109 75.9625 49.904 75.9625C49.4825 75.9629 49.0652 75.879 48.6767 75.7158C48.2881 75.5526 47.9361 75.3134 47.6413 75.0122C47.3555 74.7114 47.1335 74.3558 46.9887 73.967C46.8438 73.5781 46.7791 73.164 46.7984 72.7495C46.7984 71.6182 46.7192 71.6182 46.7192 70.4868C46.7192 69.3555 46.5382 69.3555 46.5382 68.2241C46.5775 67.8 46.7002 67.3877 46.8992 67.0111C47.0982 66.6344 47.3696 66.3008 47.6978 66.0293C47.9742 65.7126 48.3114 65.4548 48.6894 65.2711C49.0675 65.0875 49.4786 64.9817 49.8983 64.9602C50.9052 64.9602 50.9052 64.9206 51.9064 64.9206C52.9077 64.9206 52.9134 65.0337 53.9146 65.0337C54.9158 65.0337 54.9215 65.0337 55.9227 65.0337H57.9365C58.9378 65.0337 58.9378 65.1129 59.9447 65.1129C60.9516 65.1129 60.9459 65.0563 61.9528 65.0563C62.9597 65.0563 62.9597 65.1412 63.961 65.1412C64.9622 65.1412 64.9679 64.881 65.9691 64.881C66.9704 64.881 66.976 65.0394 67.9829 65.0394C68.9898 65.0394 68.9841 64.9998 69.991 64.9998C70.9979 64.9998 70.9923 64.9489 71.9992 64.9489C73.0061 64.9489 73.0061 64.9941 74.0073 64.9941C75.0086 64.9941 75.0142 65.0224 76.0211 65.0224C77.028 65.0224 77.0224 65.0224 78.0236 65.0224C79.0249 65.0224 79.0305 64.8527 80.0374 64.8527C81.0443 64.8527 81.0387 64.9036 82.0456 64.9036C83.0525 64.9036 83.0468 64.847 84.0537 64.847C85.0606 64.847 85.0549 64.9262 86.0618 64.9262C87.0687 64.9262 87.0687 64.9715 88.07 64.9715C89.0712 64.9715 89.0769 64.8753 90.0838 64.8753C91.0907 64.8753 91.085 64.9376 92.0919 64.9376C93.0988 64.9376 93.0988 64.881 94.1057 64.881C95.1126 64.881 95.107 64.881 96.1139 64.881C97.1208 64.881 97.1208 65.079 98.122 65.079C99.1233 65.079 99.1289 64.9262 100.136 64.9262C101.143 64.9262 101.143 64.9658 102.144 64.9658C103.145 64.9658 103.151 65.0167 104.158 65.0167C105.165 65.0167 105.165 65.0507 106.172 65.0507C107.178 65.0507 107.178 65.0507 108.191 65.0507C108.613 65.0271 109.036 65.0927 109.431 65.243C109.826 65.3934 110.185 65.6252 110.485 65.9234C110.785 66.2216 111.019 66.5795 111.171 66.974C111.324 67.3684 111.391 67.7905 111.37 68.2128C111.37 69.3441 111.472 69.3441 111.472 70.4755C111.472 71.6068 111.472 71.6068 111.472 72.7382C111.449 73.1591 111.343 73.5712 111.158 73.9502C110.974 74.3291 110.715 74.6672 110.397 74.9443C110.119 75.2596 109.782 75.5168 109.404 75.7012C109.027 75.8857 108.616 75.9937 108.197 76.0191Z" fill="#E6E6E6"/>
<path d="M108.197 76.0191C107.19 76.0191 107.19 75.9795 106.189 75.9795H104.18C103.174 75.9795 103.173 75.9286 102.167 75.9286C101.16 75.9286 101.165 75.9286 100.158 75.9286C99.1515 75.9286 99.1572 76.07 98.1503 76.07C97.1434 76.07 97.1491 75.9456 96.1422 75.9456C95.1353 75.9456 95.1353 75.8268 94.134 75.8268C93.1328 75.8268 93.1271 75.9116 92.1259 75.9116C91.1246 75.9116 91.119 75.8833 90.1121 75.8833C89.1052 75.8833 89.1108 75.9512 88.1039 75.9512C87.097 75.9512 87.097 75.8664 86.0958 75.8664C85.0945 75.8664 85.0889 76.0191 84.0877 76.0191C83.0864 76.0191 83.0808 75.9116 82.0739 75.9116C81.067 75.9116 81.0726 75.8551 80.0657 75.8551C79.0588 75.8551 79.0644 76.0248 78.0575 76.0248C77.0506 76.0248 77.0563 75.8324 76.0494 75.8324C75.0425 75.8324 75.0482 75.9343 74.0413 75.9343C73.0344 75.9343 73.0344 75.906 72.0331 75.906C71.0319 75.906 71.0262 75.8437 70.0193 75.8437C69.0124 75.8437 69.0181 76.0587 68.0112 76.0587C67.0043 76.0587 67.0043 75.906 66.0031 75.906C65.0018 75.906 64.9962 75.9512 63.9893 75.9512C62.9824 75.9512 62.9823 75.8607 61.9811 75.8607C60.9799 75.8607 60.9742 75.8947 59.973 75.8947C58.9717 75.8947 58.9661 75.9456 57.9592 75.9456C56.9523 75.9456 56.9523 75.9456 55.9454 75.9456C54.9385 75.9456 54.9441 75.8947 53.9372 75.8947C52.9303 75.8947 52.9303 76.0587 51.9234 76.0587C50.9165 76.0587 50.9109 75.9625 49.904 75.9625C49.4825 75.9629 49.0652 75.879 48.6767 75.7158C48.2881 75.5526 47.9361 75.3134 47.6413 75.0122C47.3555 74.7114 47.1335 74.3558 46.9887 73.967C46.8438 73.5781 46.7791 73.164 46.7984 72.7495C46.7984 71.6182 46.7192 71.6182 46.7192 70.4868C46.7192 69.3555 46.5382 69.3555 46.5382 68.2241C46.5775 67.8 46.7002 67.3877 46.8992 67.0111C47.0982 66.6344 47.3696 66.3008 47.6978 66.0293C47.9742 65.7126 48.3114 65.4548 48.6894 65.2711C49.0675 65.0875 49.4786 64.9817 49.8983 64.9602C50.9052 64.9602 50.9052 64.9206 51.9064 64.9206C52.9077 64.9206 52.9134 65.0337 53.9146 65.0337C54.9158 65.0337 54.9215 65.0337 55.9227 65.0337H57.9365C58.9378 65.0337 58.9378 65.1129 59.9447 65.1129C60.9516 65.1129 60.9459 65.0563 61.9528 65.0563C62.9597 65.0563 62.9597 65.1412 63.961 65.1412C64.9622 65.1412 64.9679 64.881 65.9691 64.881C66.9704 64.881 66.976 65.0394 67.9829 65.0394C68.9898 65.0394 68.9841 64.9998 69.991 64.9998C70.9979 64.9998 70.9923 64.9489 71.9992 64.9489C73.0061 64.9489 73.0061 64.9941 74.0073 64.9941C75.0086 64.9941 75.0142 65.0224 76.0211 65.0224C77.028 65.0224 77.0224 65.0224 78.0236 65.0224C79.0249 65.0224 79.0305 64.8527 80.0374 64.8527C81.0443 64.8527 81.0387 64.9036 82.0456 64.9036C83.0525 64.9036 83.0468 64.847 84.0537 64.847C85.0606 64.847 85.0549 64.9262 86.0618 64.9262C87.0687 64.9262 87.0687 64.9715 88.07 64.9715C89.0712 64.9715 89.0769 64.8753 90.0838 64.8753C91.0907 64.8753 91.085 64.9376 92.0919 64.9376C93.0988 64.9376 93.0988 64.881 94.1057 64.881C95.1126 64.881 95.107 64.881 96.1139 64.881C97.1208 64.881 97.1208 65.079 98.122 65.079C99.1233 65.079 99.1289 64.9262 100.136 64.9262C101.143 64.9262 101.143 64.9658 102.144 64.9658C103.145 64.9658 103.151 65.0167 104.158 65.0167C105.165 65.0167 105.165 65.0507 106.172 65.0507C107.178 65.0507 107.178 65.0507 108.191 65.0507C108.613 65.0271 109.036 65.0927 109.431 65.243C109.826 65.3934 110.185 65.6252 110.485 65.9234C110.785 66.2216 111.019 66.5795 111.171 66.974C111.324 67.3684 111.391 67.7905 111.37 68.2128C111.37 69.3441 111.472 69.3441 111.472 70.4755C111.472 71.6068 111.472 71.6068 111.472 72.7382C111.449 73.1591 111.343 73.5712 111.158 73.9502C110.974 74.3291 110.715 74.6672 110.397 74.9443C110.119 75.2596 109.782 75.5168 109.404 75.7012C109.027 75.8857 108.616 75.9937 108.197 76.0191Z" stroke="#414C58" stroke-width="0.848511" stroke-miterlimit="10" stroke-linecap="round"/>
<path d="M55.8322 37.3722C54.8084 37.3722 54.8084 37.4514 53.7845 37.4514C52.7606 37.4514 52.755 37.2873 51.7311 37.2873C50.7072 37.2873 50.7072 37.1855 49.6777 37.1855C48.6482 37.1855 48.6538 37.3835 47.63 37.3835C46.6061 37.3835 46.6004 37.5023 45.5766 37.5023C44.5527 37.5023 44.547 37.474 43.5232 37.474C42.4993 37.474 42.4937 37.4061 41.4698 37.4061C40.4459 37.4061 40.4403 37.2421 39.4164 37.2421C38.3925 37.2421 38.3869 37.2421 37.363 37.2421C36.3391 37.2421 36.3335 37.3269 35.3096 37.3269C34.2857 37.3269 34.2857 37.5702 33.2562 37.5702C32.2267 37.5702 32.2267 37.3382 31.1972 37.3382C30.1676 37.3382 30.1733 37.2704 29.1438 37.2704C28.6241 37.2719 28.1251 37.0673 27.7561 36.7014C27.3871 36.3356 27.1782 35.8384 27.1752 35.3188C27.1752 34.2949 27.2374 34.2949 27.2374 33.2654C27.2374 32.2359 27.2374 32.2415 27.2374 31.2176C27.2374 30.1938 26.8867 30.1881 26.8867 29.1642C26.8867 28.1404 26.9885 28.1404 26.9885 27.1108C26.9885 26.0813 27.13 26.087 27.13 25.0631C27.13 24.0392 27.3166 24.0336 27.3166 23.0097C27.3166 21.9858 27.0564 21.9802 27.0564 20.9563C27.0564 19.9325 27.0168 19.9268 27.0168 18.9029C27.0168 17.8791 27.1413 17.8734 27.1413 16.8495C27.1413 15.8257 27.2374 15.82 27.2374 14.7961C27.2374 13.7723 26.9433 13.7666 26.9433 12.7427C26.9433 11.7189 27.0451 11.7132 27.0451 10.6837C27.0451 9.65416 27.1073 9.65416 27.1073 8.63029C27.1171 8.09246 27.3386 7.58021 27.7239 7.2048C27.9154 7.02831 28.14 6.89146 28.3847 6.80214C28.6293 6.71282 28.8892 6.6728 29.1494 6.68437C30.1733 6.68437 30.1733 6.74659 31.2028 6.74659H33.2506C34.2744 6.74659 34.2744 6.66174 35.3039 6.66174C36.3335 6.66174 36.3278 6.59386 37.3573 6.59386C38.3869 6.59386 38.3812 6.56558 39.4051 6.56558C40.4289 6.56558 40.4346 6.84842 41.4585 6.84842C42.4823 6.84842 42.488 6.707 43.5119 6.707C44.5357 6.707 44.5414 6.74659 45.5653 6.74659C46.5891 6.74659 46.5948 6.41284 47.6187 6.41284C48.6425 6.41284 48.6482 6.79751 49.6721 6.79751C50.6959 6.79751 50.7016 6.79751 51.7254 6.79751C52.7493 6.79751 52.755 6.61649 53.7845 6.61649C54.814 6.61649 54.8084 6.44114 55.8379 6.44114C56.3847 6.51318 56.8829 6.79267 57.2295 7.22177C57.4197 7.40099 57.5722 7.61638 57.6781 7.85534C57.784 8.0943 57.8411 8.352 57.846 8.61332C57.846 9.63719 58.0327 9.63719 58.0327 10.6611C58.0327 11.6849 57.8743 11.6906 57.8743 12.7145C57.8743 13.7383 57.8121 13.7383 57.8121 14.7679C57.8121 15.7974 57.9083 15.7917 57.9083 16.8156C57.9083 17.8395 57.9083 17.8451 57.9083 18.869C57.9083 19.8929 57.8517 19.8985 57.8517 20.9224C57.8517 21.9463 57.9196 21.9519 57.9196 22.9758C57.9196 23.9996 57.665 24.0053 57.665 25.0292C57.665 26.053 57.9422 26.0587 57.9422 27.0826C57.9422 28.1064 57.8404 28.1064 57.8404 29.136C57.8404 30.1655 58.0384 30.1598 58.0384 31.1894C58.0384 32.2189 57.7273 32.2189 57.7273 33.2484C57.7273 34.2779 57.8178 34.2723 57.8178 35.3018C57.8221 35.5608 57.7742 35.8179 57.6771 36.058C57.5799 36.298 57.4353 36.516 57.2521 36.699C57.0735 36.9017 56.8555 37.0659 56.6114 37.1816C56.3673 37.2973 56.1022 37.3622 55.8322 37.3722Z" fill="#69B2FF"/>
<path d="M55.8322 37.3722C54.8084 37.3722 54.8084 37.4514 53.7845 37.4514C52.7606 37.4514 52.755 37.2873 51.7311 37.2873C50.7072 37.2873 50.7072 37.1855 49.6777 37.1855C48.6482 37.1855 48.6538 37.3835 47.63 37.3835C46.6061 37.3835 46.6004 37.5023 45.5766 37.5023C44.5527 37.5023 44.547 37.474 43.5232 37.474C42.4993 37.474 42.4937 37.4061 41.4698 37.4061C40.4459 37.4061 40.4403 37.2421 39.4164 37.2421C38.3925 37.2421 38.3869 37.2421 37.363 37.2421C36.3391 37.2421 36.3335 37.3269 35.3096 37.3269C34.2857 37.3269 34.2857 37.5702 33.2562 37.5702C32.2267 37.5702 32.2267 37.3382 31.1972 37.3382C30.1676 37.3382 30.1733 37.2704 29.1438 37.2704C28.6241 37.2719 28.1251 37.0673 27.7561 36.7014C27.3871 36.3356 27.1782 35.8384 27.1752 35.3188C27.1752 34.2949 27.2374 34.2949 27.2374 33.2654C27.2374 32.2359 27.2374 32.2415 27.2374 31.2176C27.2374 30.1938 26.8867 30.1881 26.8867 29.1642C26.8867 28.1404 26.9885 28.1404 26.9885 27.1108C26.9885 26.0813 27.13 26.087 27.13 25.0631C27.13 24.0392 27.3166 24.0336 27.3166 23.0097C27.3166 21.9858 27.0564 21.9802 27.0564 20.9563C27.0564 19.9325 27.0168 19.9268 27.0168 18.9029C27.0168 17.8791 27.1413 17.8734 27.1413 16.8495C27.1413 15.8257 27.2374 15.82 27.2374 14.7961C27.2374 13.7723 26.9433 13.7666 26.9433 12.7427C26.9433 11.7189 27.0451 11.7132 27.0451 10.6837C27.0451 9.65416 27.1073 9.65416 27.1073 8.63029C27.1171 8.09246 27.3386 7.58021 27.7239 7.2048C27.9154 7.02831 28.14 6.89146 28.3847 6.80214C28.6293 6.71282 28.8892 6.6728 29.1494 6.68437C30.1733 6.68437 30.1733 6.74659 31.2028 6.74659H33.2506C34.2744 6.74659 34.2744 6.66174 35.3039 6.66174C36.3335 6.66174 36.3278 6.59386 37.3573 6.59386C38.3869 6.59386 38.3812 6.56558 39.4051 6.56558C40.4289 6.56558 40.4346 6.84842 41.4585 6.84842C42.4823 6.84842 42.488 6.707 43.5119 6.707C44.5357 6.707 44.5414 6.74659 45.5653 6.74659C46.5891 6.74659 46.5948 6.41284 47.6187 6.41284C48.6425 6.41284 48.6482 6.79751 49.6721 6.79751C50.6959 6.79751 50.7016 6.79751 51.7254 6.79751C52.7493 6.79751 52.755 6.61649 53.7845 6.61649C54.814 6.61649 54.8084 6.44114 55.8379 6.44114C56.3847 6.51318 56.8829 6.79267 57.2295 7.22177C57.4197 7.40099 57.5722 7.61638 57.6781 7.85534C57.784 8.0943 57.8411 8.352 57.846 8.61332C57.846 9.63719 58.0327 9.63719 58.0327 10.6611C58.0327 11.6849 57.8743 11.6906 57.8743 12.7145C57.8743 13.7383 57.8121 13.7383 57.8121 14.7679C57.8121 15.7974 57.9083 15.7917 57.9083 16.8156C57.9083 17.8395 57.9083 17.8451 57.9083 18.869C57.9083 19.8929 57.8517 19.8985 57.8517 20.9224C57.8517 21.9463 57.9196 21.9519 57.9196 22.9758C57.9196 23.9996 57.665 24.0053 57.665 25.0292C57.665 26.053 57.9422 26.0587 57.9422 27.0826C57.9422 28.1064 57.8404 28.1064 57.8404 29.136C57.8404 30.1655 58.0384 30.1598 58.0384 31.1894C58.0384 32.2189 57.7273 32.2189 57.7273 33.2484C57.7273 34.2779 57.8178 34.2723 57.8178 35.3018C57.8221 35.5608 57.7742 35.8179 57.6771 36.058C57.5799 36.298 57.4353 36.516 57.2521 36.699C57.0735 36.9017 56.8555 37.0659 56.6114 37.1816C56.3673 37.2973 56.1022 37.3622 55.8322 37.3722Z" stroke="#4F86BF" stroke-width="0.848511" stroke-miterlimit="10" stroke-linecap="round"/>
<path d="M33.4203 27.9708C33.4203 26.9922 33.5165 26.9922 33.5165 26.0192C33.5165 25.0463 33.607 25.0406 33.607 24.062C33.607 23.0834 33.3581 23.089 33.3581 22.1104C33.3581 21.1318 33.3581 21.1318 33.3581 20.1532C33.3581 19.1746 33.4995 19.1746 33.4995 18.196C33.4995 17.2174 33.3524 17.2173 33.3524 16.2387C33.3524 16.0125 33.6466 15.9616 33.8785 15.9616C35.1739 15.9616 35.1739 15.9276 36.4749 15.9276C36.7069 15.9276 36.9105 16.0125 36.9105 16.2387C36.9105 17.2173 36.9105 17.2173 36.9105 18.1903C36.9105 19.1633 36.8709 19.1689 36.8709 20.1475C36.8709 21.1262 36.9897 21.1205 36.9897 22.0991C36.9897 23.0777 36.9048 23.0777 36.9048 24.0563C36.9048 25.035 36.9048 25.035 36.9048 26.0136C36.9048 26.9922 36.7974 26.9922 36.7974 27.9708C36.7974 28.1971 36.7238 28.4233 36.4919 28.4233C35.1909 28.4233 35.1909 28.3668 33.8955 28.3668C33.7808 28.3734 33.6679 28.3362 33.5797 28.2626C33.4914 28.1891 33.4345 28.0848 33.4203 27.9708Z" fill="white"/>
<path d="M42.833 28.3781C41.532 28.3781 41.532 28.2537 40.2366 28.2537C40.0047 28.2537 39.9198 28.1971 39.9198 27.9708C39.9198 26.9922 39.8576 26.9922 39.8576 26.0193C39.8576 25.0463 39.7501 25.0406 39.7501 24.062C39.7501 23.0834 39.9255 23.0891 39.9255 22.1104C39.9255 21.1318 39.8689 21.1318 39.8689 20.1532C39.8689 19.1746 39.7501 19.1746 39.7501 18.196C39.7501 17.2174 39.9368 17.2174 39.9368 16.2388C39.9368 16.0125 40.0047 15.8371 40.2366 15.8371C41.4811 15.8371 41.4811 15.8994 42.7312 15.8994C42.9575 15.8994 43.1272 16.0125 43.1272 16.2388H43.2516C43.2516 16.6064 43.608 16.8044 43.8795 16.5838C44.2498 16.1843 44.6934 15.8598 45.1862 15.6278C45.7158 15.4909 46.2645 15.4431 46.8097 15.4864C47.4573 15.4474 48.1067 15.524 48.7274 15.7127C49.3199 15.9826 49.8367 16.3945 50.2321 16.9119C50.6365 17.4089 50.9279 17.988 51.0862 18.6089C51.3213 19.2103 51.4662 19.8432 51.5161 20.487C51.5161 21.426 51.4596 21.426 51.4596 22.3593C51.4596 23.2927 51.3408 23.2984 51.3408 24.2317C51.3408 25.1651 51.5161 25.1707 51.5161 26.1098C51.5161 27.0488 51.3068 27.0488 51.3068 27.9878C51.3068 28.2141 51.2163 28.5139 50.9844 28.5139C49.6833 28.5139 49.6834 28.4517 48.3823 28.4517C48.156 28.4517 48.0146 28.2141 48.0146 27.9878C48.0146 26.8565 48.1051 26.8565 48.1051 25.6855C48.1051 24.5146 47.8562 24.5542 47.8562 23.3776C47.8562 22.201 47.8562 22.2462 47.8562 21.0753C47.9314 20.428 47.7707 19.7753 47.4037 19.2368C47.1628 19.0195 46.878 18.8565 46.5686 18.7589C46.2593 18.6613 45.9325 18.6314 45.6105 18.6712C44.8582 18.6712 44.1567 18.7673 43.7551 19.2368C43.3362 19.7888 43.1186 20.4675 43.1385 21.1601C43.1385 22.2915 43.2573 22.2915 43.2573 23.4228C43.2573 24.5542 43.2573 24.5542 43.2573 25.6855C43.2573 26.8169 43.2177 26.8169 43.2177 27.9482C43.2261 28.0027 43.2223 28.0584 43.2066 28.1113C43.1909 28.1642 43.1637 28.2129 43.127 28.2541C43.0902 28.2952 43.0447 28.3276 42.9939 28.3491C42.9431 28.3705 42.8881 28.3804 42.833 28.3781Z" fill="white"/>
</g>
<defs>
<clipPath id="clip0_9155_11985">
<rect width="136" height="96" fill="white" transform="translate(0.200012)"/>
</clipPath>
</defs>
</svg>
