<svg width="137" height="96" viewBox="0 0 137 96" fill="none" xmlns="http://www.w3.org/2000/svg">
<path d="M105.377 89.344C105.113 88.6662 104.788 88.0137 104.406 87.3947C104.121 86.8439 103.843 86.157 103.416 85.4516C103.069 84.8761 102.618 84.3005 102.178 83.6507C101.739 83.001 101.522 82.376 101.058 81.7943C100.594 81.2126 100.142 80.6927 99.6471 80.1172C99.152 79.5417 98.6198 79.1147 98.0938 78.5702C97.5678 78.0256 97.1904 77.4377 96.6396 76.9303C96.0888 76.4228 95.4329 76.1196 94.8574 75.6431C94.2818 75.1666 93.7064 74.7829 93.1061 74.3436C92.5058 73.9042 91.9489 73.4896 91.3239 73.1059C90.6988 72.7222 90.1976 72.1838 89.554 71.8125C88.9104 71.4412 88.2854 71.1133 87.6233 70.7791C86.9611 70.4449 86.2618 70.2716 85.5811 69.9808C84.9004 69.6899 84.2197 69.5043 83.5204 69.2506C82.8211 68.9969 82.1899 68.6936 81.4783 68.4832C80.7666 68.2728 80.123 67.9572 79.399 67.784C78.675 67.6107 77.9819 67.4683 77.2579 67.3322C76.5338 67.1961 75.8284 67.0537 75.092 66.9547C74.3556 66.8557 73.6315 67.0166 72.8951 66.9547C72.1587 66.8928 71.4594 66.7505 70.7168 66.7196C69.9742 66.6886 69.2687 66.7196 68.5261 66.7196C67.7835 66.7196 67.0533 66.6453 66.3355 66.6762C65.6177 66.7072 64.8689 66.8124 64.1572 66.8743C63.4455 66.9362 62.6782 66.8743 61.9666 66.9795C61.2549 67.0847 60.5061 67.1899 59.8007 67.3198C59.0952 67.4498 58.365 67.6602 57.6657 67.8273C56.9664 67.9944 56.2486 68.2357 55.5617 68.4461C54.8748 68.6565 54.2002 69.0092 53.5257 69.2506C52.8512 69.4919 52.1333 69.7271 51.4774 70.0056C50.8214 70.284 50.085 70.5006 49.4414 70.8162C48.7979 71.1318 48.1481 71.5217 47.5292 71.8744C46.9104 72.2271 46.3597 72.7841 45.7594 73.174C45.1591 73.5638 44.4166 73.7928 43.841 74.2322C43.2655 74.6715 42.7581 75.2409 42.2135 75.6988C41.6689 76.1567 41.0872 76.6518 40.5674 77.1345C40.0476 77.6172 39.4411 78.0998 38.9523 78.6073C38.4634 79.1147 37.8631 79.6222 37.4052 80.1606C36.9473 80.6989 36.5203 81.3611 36.0933 81.918C35.6663 82.475 35.2764 83.1557 34.8927 83.7374C34.4472 84.3934 34.0821 85.0184 33.7417 85.5939C33.3085 86.3055 32.8877 86.9058 32.6031 87.4504C32.2662 88.0854 31.9686 88.7405 31.7119 89.4121" stroke="#C7C7FF" stroke-width="0.85" stroke-miterlimit="10" stroke-linecap="round"/>
<path d="M121.102 89.3688C120.864 88.6624 120.577 87.9738 120.242 87.3081C119.982 86.7264 119.716 86.0209 119.326 85.2536C119.017 84.6347 118.651 84.0159 118.262 83.2795C117.915 82.6607 117.643 81.9676 117.216 81.293C116.789 80.6185 116.368 80.0925 115.941 79.4365C115.514 78.7806 115.068 78.2546 114.623 77.6234C114.177 76.9922 113.905 76.3176 113.435 75.705C112.964 75.0924 112.438 74.6035 111.949 74.0156C111.461 73.4277 110.904 72.9636 110.396 72.3943C109.889 71.8249 109.555 71.1566 109.029 70.5997C108.503 70.0427 107.97 69.5476 107.42 69.0216C106.869 68.4956 106.256 68.0872 105.687 67.586C105.118 67.0847 104.554 66.6206 103.967 66.1441C103.379 65.6676 102.822 65.1911 102.215 64.7393C101.609 64.2876 100.978 63.9349 100.359 63.5017C99.7399 63.0685 99.1211 62.6477 98.5023 62.264C97.8834 61.8803 97.2275 61.4967 96.5715 61.1254C95.9156 60.7541 95.2287 60.5065 94.5479 60.1414C93.8672 59.7763 93.3103 59.2998 92.611 58.9904C91.9117 58.681 91.1877 58.5325 90.4885 58.2478C89.7892 57.9631 89.0899 57.7404 88.3782 57.4866C87.6666 57.2329 86.992 56.9421 86.268 56.7193C85.544 56.4965 84.8881 56.1314 84.1516 55.9396C83.4152 55.7477 82.6541 55.8096 81.9115 55.6425C81.1689 55.4755 80.4882 55.1784 79.7456 55.0237C79.003 54.869 78.2665 54.8195 77.5177 54.7143C76.7689 54.6091 76.0511 54.4296 75.2961 54.3492C74.5412 54.2687 73.811 54.2254 73.0498 54.1759C72.2886 54.1264 71.5584 54.2316 70.7973 54.2068C70.0361 54.1821 69.3121 53.9531 68.5509 53.9531C67.7898 53.9531 67.0472 54.1264 66.3046 54.1512C65.562 54.1759 64.8008 54.244 64.0644 54.2935C63.328 54.343 62.5545 54.2935 61.818 54.3987C61.0816 54.5039 60.3143 54.541 59.5841 54.6462C58.8539 54.7514 58.0741 54.7947 57.3439 54.9247C56.6137 55.0546 55.902 55.4136 55.178 55.5745C54.454 55.7354 53.6742 55.7725 52.9626 55.9643C52.2509 56.1562 51.5083 56.3666 50.7967 56.5832C50.085 56.7997 49.3424 56.9916 48.6432 57.2391C47.9439 57.4866 47.2384 57.7899 46.5515 58.0683C45.8646 58.3468 45.1777 58.6872 44.5032 58.9966C43.8287 59.306 43.117 59.6154 42.461 59.9372C41.8051 60.259 41.2234 60.7974 40.5674 61.1749C39.9114 61.5524 39.1255 61.6947 38.4943 62.0846C37.8631 62.4744 37.2567 62.9385 36.6379 63.3532C36.019 63.7678 35.4002 64.2505 34.8247 64.6898C34.2492 65.1292 33.587 65.5748 33.0239 66.0389C32.4607 66.503 31.9657 67.1218 31.4087 67.6107C30.8518 68.0996 30.1711 68.508 29.6574 69.0216C29.1438 69.5353 28.6921 70.1974 28.1785 70.7234C27.6648 71.2494 27.1821 71.8559 26.6871 72.4005C26.192 72.945 25.4865 73.3596 25.0162 73.929C24.5459 74.4983 24.1375 75.1666 23.6919 75.7421C23.2464 76.3176 22.8132 76.9798 22.3862 77.5986C21.9592 78.2174 21.5693 78.8858 21.1485 79.4861C20.7277 80.0863 20.3317 80.7794 19.9604 81.3921C19.5891 82.0047 19.2054 82.7287 18.8589 83.3414C18.469 84.053 17.9306 84.6223 17.6212 85.1979C17.2375 85.9652 17.0333 86.7016 16.7734 87.2833C16.4356 87.9485 16.146 88.6372 15.907 89.344" stroke="#C7C7FF" stroke-width="0.85" stroke-miterlimit="10" stroke-linecap="round"/>
<path d="M116.51 45.83C116.484 45.0893 116.408 44.3511 116.281 43.6208C116.191 42.8863 116.053 42.1586 115.867 41.4425C115.706 40.7163 115.5 40.0011 115.248 39.3014C114.938 38.6245 114.586 37.9673 114.196 37.3335C113.834 36.6906 113.433 36.0706 112.995 35.477C111.917 34.4562 110.862 33.41 109.833 32.3395C109.242 31.8871 108.622 31.4737 107.977 31.1019C105.395 29.5708 102.415 28.8447 99.4181 29.0164C98.6769 28.9923 97.9349 29.015 97.1966 29.0845C96.4594 29.1846 95.7296 29.3335 95.0121 29.53C94.2871 29.7028 93.574 29.9219 92.8771 30.186C92.1784 30.4541 91.4982 30.7683 90.8412 31.1266C90.2408 31.576 89.6703 32.0638 89.1332 32.5871C88.5504 33.041 87.9966 33.5308 87.4748 34.0537C86.9148 34.5445 86.3857 35.0695 85.8905 35.6255C85.4914 36.2533 85.1338 36.9065 84.82 37.581C84.4381 38.2146 84.0971 38.8719 83.7989 39.5489C83.4871 40.2243 83.2184 40.9188 82.9944 41.6281C82.8551 42.3581 82.7599 43.0959 82.7097 43.8374C82.5399 44.5677 82.4138 45.3075 82.3322 46.0528C82.3324 46.8018 82.38 47.55 82.4746 48.293C82.721 49.7692 83.2082 51.195 83.9165 52.5134C84.1519 53.2208 84.4351 53.9113 84.7643 54.5803C85.138 55.2241 85.5514 55.8441 86.0019 56.4368C86.4719 57.017 86.9805 57.5649 87.5242 58.0767C88.4728 59.2471 89.719 60.1406 91.132 60.6634C91.7664 61.0476 92.4259 61.3887 93.1061 61.6844C93.7964 61.9526 94.5034 62.1758 95.2225 62.3528C95.9385 62.5412 96.6661 62.6817 97.4007 62.7736C98.8447 63.2148 100.388 63.2148 101.832 62.7736C102.567 62.6843 103.297 62.55 104.016 62.3713C104.752 62.2298 105.478 62.0396 106.188 61.802C106.875 61.5027 107.542 61.1617 108.187 60.7809C108.831 60.4069 109.451 59.9936 110.043 59.5433C110.592 59.0329 111.109 58.4894 111.591 57.9158C112.14 57.3957 112.657 56.8418 113.138 56.2573C113.591 55.667 114.005 55.0467 114.375 54.4008C114.719 53.7387 115.019 53.0544 115.273 52.3525C116 51.0253 116.377 49.5343 116.368 48.0207C116.464 47.2944 116.512 46.5626 116.51 45.83Z" fill="#FFB469"/>
<path d="M116.51 45.83C116.484 45.0893 116.408 44.3511 116.281 43.6208C116.191 42.8863 116.053 42.1586 115.867 41.4425C115.706 40.7163 115.5 40.0011 115.248 39.3014C114.938 38.6245 114.586 37.9673 114.196 37.3335C113.834 36.6906 113.433 36.0706 112.995 35.477C111.917 34.4562 110.862 33.41 109.833 32.3395C109.242 31.8871 108.622 31.4737 107.977 31.1019C105.395 29.5708 102.415 28.8447 99.4181 29.0164C98.6769 28.9923 97.9349 29.015 97.1966 29.0845C96.4594 29.1846 95.7296 29.3335 95.0121 29.53C94.2871 29.7028 93.574 29.9219 92.8771 30.186C92.1784 30.4541 91.4982 30.7683 90.8412 31.1266C90.2408 31.576 89.6703 32.0638 89.1332 32.5871C88.5504 33.041 87.9966 33.5308 87.4748 34.0537C86.9148 34.5445 86.3857 35.0695 85.8905 35.6255C85.4914 36.2533 85.1338 36.9065 84.82 37.581C84.4381 38.2146 84.0971 38.8719 83.7989 39.5489C83.4871 40.2243 83.2184 40.9188 82.9944 41.6281C82.8551 42.3581 82.7599 43.0959 82.7097 43.8374C82.5399 44.5677 82.4138 45.3075 82.3322 46.0528C82.3324 46.8018 82.38 47.55 82.4746 48.293C82.721 49.7692 83.2082 51.195 83.9165 52.5134C84.1519 53.2208 84.4351 53.9113 84.7643 54.5803C85.138 55.2241 85.5514 55.8441 86.0019 56.4368C86.4719 57.017 86.9805 57.5649 87.5242 58.0767C88.4728 59.2471 89.719 60.1406 91.132 60.6634C91.7664 61.0476 92.4259 61.3887 93.1061 61.6844C93.7964 61.9526 94.5034 62.1758 95.2225 62.3528C95.9385 62.5412 96.6661 62.6817 97.4007 62.7736C98.8447 63.2148 100.388 63.2148 101.832 62.7736C102.567 62.6843 103.297 62.55 104.016 62.3713C104.752 62.2298 105.478 62.0396 106.188 61.802C106.875 61.5027 107.542 61.1617 108.187 60.7809C108.831 60.4069 109.451 59.9936 110.043 59.5433C110.592 59.0329 111.109 58.4894 111.591 57.9158C112.14 57.3957 112.657 56.8418 113.138 56.2573C113.591 55.667 114.005 55.0467 114.375 54.4008C114.719 53.7387 115.019 53.0544 115.273 52.3525C116 51.0253 116.377 49.5343 116.368 48.0207C116.464 47.2944 116.512 46.5626 116.51 45.83Z" stroke="#BF884F" stroke-width="0.85" stroke-miterlimit="10" stroke-linecap="round"/>
<path d="M99.5914 62.8665C98.7078 62.9345 97.8202 62.9345 96.9366 62.8665C96.0364 62.7151 95.149 62.4959 94.2819 62.2105C93.9291 61.208 94.2138 61.1214 94.2076 60.057C94.2014 58.9926 94.4428 58.9864 94.4366 57.9282C94.4304 56.87 94.4366 56.8576 94.4366 55.7932C94.4366 54.7289 94.4984 54.7289 94.4923 53.6645C94.4861 52.6001 94.418 52.6001 94.4118 51.5357C94.4056 50.4713 94.1952 50.4651 94.189 49.4007C94.1828 48.3363 93.6012 48.0579 94.3623 47.3153C95.1235 46.5727 95.4267 47.241 96.5344 47.2348C97.6421 47.2286 97.6483 47.2658 98.756 47.2348C99.8637 47.2039 99.8637 47.2348 100.978 47.2348C102.091 47.2348 102.085 47.272 103.199 47.2658C104.313 47.2596 104.307 47.1234 105.421 47.1234H107.636C108.75 47.1234 108.75 47.1234 109.858 47.1234C110.965 47.1234 110.972 47.1667 112.079 47.1606C113.187 47.1544 113.193 47.0244 114.307 47.0182C115.421 47.012 115.502 46.715 116.547 47.0863C116.495 47.8739 116.392 48.6574 116.238 49.4317C116.033 50.1748 115.777 50.9026 115.471 51.6099C114.942 53.8926 113.682 55.9399 111.881 57.4393C111.393 58.0322 110.865 58.5924 110.303 59.1164C109.718 59.633 109.098 60.1086 108.447 60.5397C107.061 61.2307 105.649 61.8685 104.214 62.4519C103.459 62.64 102.692 62.7744 101.918 62.8541C101.144 62.9144 100.366 62.9185 99.5914 62.8665Z" fill="#414C58"/>
<path d="M112.94 45.8484C112.926 45.1024 112.862 44.358 112.748 43.6207C112.68 42.8734 112.565 42.1313 112.401 41.3991C112.143 40.6959 111.842 40.0097 111.498 39.3446C111.259 38.6351 110.978 37.9407 110.656 37.2653C110.213 36.6611 109.732 36.0865 109.214 35.5449C108.435 34.2612 107.343 33.1966 106.04 32.4508C105.503 31.9253 104.935 31.4334 104.338 30.978C103.649 30.6824 102.942 30.4322 102.221 30.2292C101.55 29.9067 100.857 29.6296 100.148 29.4C99.4164 29.2634 98.6764 29.1745 97.933 29.1339C97.2025 29.0028 96.4647 28.916 95.7237 28.8739C94.9756 28.8275 94.2254 28.8275 93.4773 28.8739C92.7513 29.0582 92.0382 29.2897 91.3424 29.567C89.9116 29.962 88.5244 30.5011 87.2024 31.176C86.5576 31.5482 85.9375 31.9616 85.3459 32.4137C84.7956 32.9176 84.2769 33.4549 83.7926 34.0226C83.2312 34.5118 82.7021 35.0369 82.2085 35.5944C81.7545 36.1846 81.341 36.8049 80.9708 37.4509C80.6085 38.1035 80.2901 38.7795 80.0178 39.4745C79.7629 40.1754 79.5561 40.8928 79.399 41.6218C79.169 42.3291 78.985 43.0505 78.8482 43.7816C78.8018 44.5255 78.8018 45.2716 78.8482 46.0155C78.7623 46.7611 78.7252 47.5115 78.7368 48.2619C78.9921 49.7378 79.4787 51.1643 80.1787 52.4885C80.3932 53.2067 80.6557 53.9096 80.9646 54.5925C81.3987 55.2024 81.8721 55.7832 82.3818 56.3314C82.8361 56.9157 83.328 57.4697 83.8546 57.9899C84.3962 58.4952 84.9686 58.9664 85.5687 59.4008C86.1112 59.9158 86.688 60.3935 87.2952 60.8303C87.9477 61.1947 88.6237 61.5151 89.3188 61.7895C90.0031 62.0967 90.7083 62.3552 91.429 62.5631C92.1604 62.7337 92.9027 62.8537 93.6506 62.922C95.1388 62.8395 96.6304 62.8395 98.1186 62.922C98.8562 62.7958 99.5841 62.618 100.297 62.3898C101.016 62.2045 101.723 61.973 102.413 61.6967C103.1 61.4045 103.766 61.0654 104.406 60.6818C105.051 60.3102 105.671 59.8968 106.262 59.4441C107.347 58.4283 108.364 57.3431 109.307 56.1953C109.762 55.6055 110.175 54.9852 110.545 54.3388C111.367 53.0904 111.913 51.6812 112.147 50.205C112.36 49.4948 112.526 48.7713 112.642 48.0391C112.787 47.3159 112.887 46.5842 112.94 45.8484Z" fill="#FFE2C6"/>
<path d="M112.94 45.8484C112.926 45.1024 112.862 44.358 112.748 43.6207C112.68 42.8734 112.565 42.1313 112.401 41.3991C112.143 40.6959 111.842 40.0097 111.498 39.3446C111.259 38.6351 110.978 37.9407 110.656 37.2653C110.213 36.6611 109.732 36.0865 109.214 35.5449C108.435 34.2612 107.343 33.1966 106.04 32.4508C105.503 31.9253 104.935 31.4334 104.338 30.978C103.649 30.6824 102.942 30.4322 102.221 30.2292C101.55 29.9067 100.857 29.6296 100.148 29.4C99.4164 29.2634 98.6764 29.1745 97.933 29.1339C97.2025 29.0028 96.4647 28.916 95.7237 28.8739C94.9756 28.8275 94.2254 28.8275 93.4773 28.8739C92.7513 29.0582 92.0382 29.2897 91.3424 29.567C89.9116 29.962 88.5244 30.5011 87.2024 31.176C86.5576 31.5482 85.9375 31.9616 85.3459 32.4137C84.7956 32.9176 84.2769 33.4549 83.7926 34.0226C83.2312 34.5118 82.7021 35.0369 82.2085 35.5944C81.7545 36.1846 81.341 36.8049 80.9708 37.4509C80.6085 38.1035 80.2901 38.7795 80.0178 39.4745C79.7629 40.1754 79.5561 40.8928 79.399 41.6218C79.169 42.3291 78.985 43.0505 78.8482 43.7816C78.8018 44.5255 78.8018 45.2716 78.8482 46.0155C78.7623 46.7611 78.7252 47.5115 78.7368 48.2619C78.9921 49.7378 79.4787 51.1643 80.1787 52.4885C80.3932 53.2067 80.6557 53.9096 80.9646 54.5925C81.3987 55.2024 81.8721 55.7832 82.3818 56.3314C82.8361 56.9157 83.328 57.4697 83.8546 57.9899C84.3962 58.4952 84.9686 58.9664 85.5687 59.4008C86.1112 59.9158 86.688 60.3935 87.2952 60.8303C87.9477 61.1947 88.6237 61.5151 89.3188 61.7895C90.0031 62.0967 90.7083 62.3552 91.429 62.5631C92.1604 62.7337 92.9027 62.8537 93.6506 62.922C95.1388 62.8395 96.6304 62.8395 98.1186 62.922C98.8562 62.7958 99.5841 62.618 100.297 62.3898C101.016 62.2045 101.723 61.973 102.413 61.6967C103.1 61.4045 103.766 61.0654 104.406 60.6818C105.051 60.3102 105.671 59.8968 106.262 59.4441C107.347 58.4283 108.364 57.3431 109.307 56.1953C109.762 55.6055 110.175 54.9852 110.545 54.3388C111.367 53.0904 111.913 51.6812 112.147 50.205C112.36 49.4948 112.526 48.7713 112.642 48.0391C112.787 47.3159 112.887 46.5842 112.94 45.8484Z" stroke="#BF884F" stroke-width="0.85" stroke-miterlimit="10" stroke-linecap="round"/>
<path d="M80.0859 38.6145C80.8718 39.388 80.9089 39.3447 81.6948 40.1183C82.4807 40.8918 82.487 40.8794 83.2729 41.653C84.0588 42.4265 83.9907 42.4884 84.7767 43.2619C85.5626 44.0355 85.4512 44.1468 86.2371 44.9204C87.023 45.6939 87.0663 45.6444 87.846 46.418C88.6258 47.1915 88.6876 47.1358 89.4674 47.9093C90.2471 48.6829 90.2161 48.7138 91.002 49.4874C91.788 50.2609 91.8313 50.2176 92.6172 50.9911C93.4031 51.7646 93.3536 51.8142 94.1334 52.5877C94.9131 53.3612 94.975 53.3055 95.7609 54.0791C96.5468 54.8526 96.4973 54.9083 97.2832 55.6818" stroke="#BF884F" stroke-width="0.85" stroke-miterlimit="10" stroke-linecap="round"/>
<path d="M94.8389 41.7147C95.5938 42.4635 95.6928 42.3645 96.4478 43.1133C97.2028 43.8621 97.1409 43.9178 97.8959 44.6665C98.6508 45.4153 98.7374 45.3225 99.4862 46.0651C100.235 46.8077 100.315 46.7334 101.07 47.4822C101.825 48.231 101.689 48.3671 102.444 49.1159C103.199 49.8647 103.286 49.7719 104.041 50.5145C104.796 51.2571 104.827 51.2385 105.582 51.9811C106.337 52.7237 106.324 52.7423 107.079 53.4911C107.834 54.2398 107.772 54.3079 108.527 55.0567" stroke="#BF884F" stroke-width="0.85" stroke-miterlimit="10" stroke-linecap="round"/>
<path d="M19.6943 62.9221C20.0532 63.5967 20.5792 64.2217 21.0062 64.8591C21.4332 65.4965 21.7735 66.1834 22.2439 66.7713C22.7142 67.3591 23.2587 67.9161 23.7971 68.4545C24.3355 68.9929 24.8182 69.6117 25.4061 70.0944C25.994 70.5771 26.6066 71.0659 27.2626 71.4867C28.6152 72.2054 29.9874 72.8863 31.3778 73.5289C32.0771 73.8197 32.8444 73.9311 33.5746 74.1477C34.3048 74.3643 34.9979 74.7294 35.7467 74.8779C36.4955 75.0265 37.2443 75.1935 38.0116 75.2678C38.779 75.3421 39.5402 75.3916 40.3137 75.3916C41.0872 75.3916 41.8546 75.2987 42.6034 75.2245C43.3596 75.1059 44.1094 74.9489 44.8497 74.7542C45.6047 74.6056 46.3782 74.5623 47.1084 74.3457C47.8387 74.1291 48.5379 73.7888 49.2372 73.4979C49.9365 73.2071 50.6729 72.9534 51.3475 72.5945C52.022 72.2355 52.5851 71.691 53.2039 71.264C53.8726 70.8852 54.5211 70.4721 55.147 70.0263C55.7659 69.5436 56.2671 68.9805 56.8117 68.4421C57.3563 67.9037 57.907 67.3777 58.3959 66.7836C58.8848 66.1896 59.1942 65.4779 59.6336 64.8467C60.0729 64.2155 60.568 63.5533 60.9269 62.885C59.8502 62.5013 59.7635 62.9717 58.6187 62.9717C57.4739 62.9717 57.4739 63.083 56.329 63.083C55.1842 63.083 55.1904 62.8974 54.0455 62.8974H51.7559C50.6172 62.8974 50.6172 62.9655 49.4724 62.9655H47.1827C46.0441 62.9655 46.0441 63.0459 44.8992 63.0459C43.7544 63.0459 43.7544 63.1078 42.6096 63.1078C41.4647 63.1078 41.4647 62.8974 40.3261 62.8974C39.1874 62.8974 39.1812 63.0397 38.0364 63.0397C36.8916 63.0397 36.8916 62.885 35.7467 62.885C34.6019 62.885 34.6019 62.9345 33.4571 62.9345C32.3122 62.9345 32.3122 62.8664 31.1674 62.8664C30.0225 62.8664 30.0226 63.0707 28.8777 63.0707C27.7329 63.0707 27.7329 62.8046 26.5881 62.8046C25.4432 62.8046 25.4494 62.9098 24.3046 62.9098C23.1597 62.9098 23.1411 63.1264 22.0025 62.9902C20.8639 62.8541 20.7958 62.5446 19.6943 62.9221Z" fill="#C7C7FF"/>
<path d="M19.6943 62.9221C20.0532 63.5967 20.5792 64.2217 21.0062 64.8591C21.4332 65.4965 21.7735 66.1834 22.2439 66.7713C22.7142 67.3591 23.2587 67.9161 23.7971 68.4545C24.3355 68.9929 24.8182 69.6117 25.4061 70.0944C25.994 70.5771 26.6066 71.0659 27.2626 71.4867C28.6152 72.2054 29.9874 72.8863 31.3778 73.5289C32.0771 73.8197 32.8444 73.9311 33.5746 74.1477C34.3049 74.3643 34.9979 74.7294 35.7467 74.8779C36.4955 75.0265 37.2443 75.1935 38.0116 75.2678C38.779 75.3421 39.5402 75.3916 40.3137 75.3916C41.0872 75.3916 41.8546 75.2987 42.6034 75.2245C43.3596 75.1059 44.1094 74.9489 44.8497 74.7542C45.6047 74.6056 46.3782 74.5623 47.1084 74.3457C47.8387 74.1291 48.5379 73.7888 49.2372 73.4979C49.9365 73.2071 50.6729 72.9534 51.3475 72.5945C52.022 72.2355 52.5851 71.691 53.2039 71.264C53.8726 70.8852 54.5211 70.4721 55.147 70.0263C55.7659 69.5436 56.2671 68.9805 56.8117 68.4421C57.3563 67.9037 57.907 67.3777 58.3959 66.7836C58.8848 66.1896 59.1942 65.4779 59.6336 64.8467C60.0729 64.2155 60.568 63.5533 60.9269 62.885C59.8502 62.5013 59.7635 62.9717 58.6187 62.9717C57.4739 62.9717 57.4739 63.083 56.329 63.083C55.1842 63.083 55.1904 62.8974 54.0455 62.8974H51.7559C50.6172 62.8974 50.6172 62.9655 49.4724 62.9655H47.1827C46.0441 62.9655 46.0441 63.0459 44.8992 63.0459C43.7544 63.0459 43.7544 63.1078 42.6096 63.1078C41.4647 63.1078 41.4647 62.8974 40.3261 62.8974C39.1874 62.8974 39.1812 63.0397 38.0364 63.0397C36.8916 63.0397 36.8916 62.885 35.7467 62.885C34.6019 62.885 34.6019 62.9345 33.4571 62.9345C32.3122 62.9345 32.3122 62.8664 31.1674 62.8664C30.0225 62.8664 30.0226 63.0707 28.8777 63.0707C27.7329 63.0707 27.7329 62.8046 26.5881 62.8046C25.4432 62.8046 25.4494 62.9098 24.3046 62.9098C23.1597 62.9098 23.1411 63.1264 22.0025 62.9902C20.8639 62.8541 20.7958 62.5446 19.6943 62.9221Z" stroke="#414C58" stroke-width="0.85" stroke-miterlimit="10" stroke-linecap="round"/>
<path d="M40.0441 16C41.1651 16 40.5097 16.9984 40.9936 18.104C41.4776 19.2096 41.5204 19.1962 42.0044 20.3086C42.4883 21.4209 42.5434 21.3874 43.0335 22.4997C43.5236 23.612 43.5236 23.6053 44.0136 24.7176C44.5037 25.83 44.5282 25.8099 45.0122 26.9155C45.4961 28.0211 45.3062 28.1216 45.7901 29.2339C46.274 30.3463 46.4027 30.2793 46.8805 31.3916C47.3583 32.5039 47.3522 32.5106 47.8362 33.6162C48.3201 34.7218 48.2527 34.7621 48.7367 35.8744C49.2206 36.9867 49.3064 36.9398 49.7903 38.0521C50.2742 39.1644 50.1762 39.2113 50.6663 40.3236C51.1563 41.436 51.3217 41.3422 51.8057 42.4545C52.2896 43.5668 52.1242 43.6539 52.6082 44.7662C53.0921 45.8786 53.2208 45.8183 53.6924 46.9306C54.1641 48.0429 54.1274 48.0697 54.6113 49.182C55.0953 50.2943 55.1443 50.2608 55.6282 51.3732C56.1122 52.4855 56.0386 52.5257 56.5226 53.638C57.0065 54.7503 57.08 54.7101 57.564 55.8224C58.0479 56.9348 57.8703 57.0286 58.3603 58.1409C58.8504 59.2532 58.8749 59.2398 59.365 60.3521C59.855 61.4645 61.0373 61.4913 60.4309 62.5299C59.8244 63.5685 59.2976 62.3691 58.1643 62.3691C57.031 62.3691 57.031 62.6036 55.8977 62.6036C54.7644 62.6036 54.7706 62.6572 53.6373 62.6572C52.504 62.6572 52.504 62.6572 51.3708 62.6572C50.2375 62.6572 50.2436 62.4629 49.1103 62.4629H46.8438C45.7166 62.4629 45.7166 62.6036 44.5833 62.6036C43.4501 62.6036 43.4501 62.6773 42.3168 62.6773C41.1835 62.6773 41.1835 62.5835 40.0563 62.5835C38.9292 62.5835 38.9231 62.4361 37.7898 62.4361H35.5477C34.4145 62.4361 34.4145 62.4361 33.2812 62.4361C32.1479 62.4361 32.1479 62.6974 31.0146 62.6974C29.8813 62.6974 29.8814 62.5902 28.7481 62.5902C27.6148 62.5902 27.6148 62.6371 26.4815 62.6371C25.3482 62.6371 25.3544 62.5433 24.2211 62.5433C23.0878 62.5433 23.0817 62.6036 21.9484 62.6036C20.8151 62.6036 20.3925 63.5551 19.7799 62.5098C19.1673 61.4645 20.2761 61.5315 20.7661 60.4191C21.2562 59.3068 21.2072 59.2867 21.6911 58.1811C22.1751 57.0755 22.1383 57.0487 22.6223 55.9364C23.1062 54.824 22.9959 54.7704 23.4799 53.6581C23.9638 52.5458 24.0067 52.5726 24.4906 51.467C24.9746 50.3613 25.1032 50.4083 25.5627 49.2959C26.0221 48.1836 26.016 48.1702 26.506 47.0646C26.9961 45.959 26.8184 45.8652 27.3024 44.7528C27.7863 43.6405 27.9824 43.7477 28.4724 42.6354C28.9625 41.5231 28.8216 41.4561 29.3055 40.3438C29.7895 39.2314 29.7956 39.2381 30.2795 38.1258C30.7635 37.0135 30.8431 37.0537 31.327 35.9414C31.811 34.829 31.9029 34.8827 32.3868 33.7703C32.8708 32.658 32.7911 32.6178 33.275 31.5055C33.759 30.3932 33.6794 30.3463 34.1633 29.2406C34.6472 28.135 34.6228 28.1149 35.1067 27.0026C35.5906 25.8903 35.6641 25.9305 36.1481 24.8182C36.632 23.7058 36.6136 23.6991 37.1037 22.5868C37.5938 21.4745 37.6673 21.5147 38.1512 20.4024C38.6352 19.29 38.8128 19.3571 39.0395 18.1442C39.2661 16.9314 38.9108 16.0067 40.0441 16Z" stroke="#414C58" stroke-width="0.85" stroke-miterlimit="10" stroke-linecap="round"/>
<path d="M76.1315 63.0643C76.5289 63.7045 76.9586 64.3242 77.4187 64.9208C77.8457 65.5397 78.118 66.3008 78.6069 66.8887C79.0957 67.4766 79.6217 68.0397 80.1601 68.5781C80.6985 69.1165 81.3483 69.5435 81.9362 70.0324C82.524 70.5212 83.1738 70.9606 83.7927 71.3876C84.4192 71.823 85.0678 72.2258 85.7358 72.5943C86.4193 72.9307 87.1195 73.2323 87.8336 73.4978C88.5391 73.7887 89.2383 74.0733 89.9748 74.2961C90.7112 74.5189 91.4352 74.6983 92.1902 74.8469C92.9406 74.9674 93.6965 75.05 94.4552 75.0944C95.2101 75.1687 95.9589 75.4038 96.7324 75.4038C97.5059 75.4038 98.2548 75.212 99.0097 75.1377C99.7662 75.0537 100.518 74.9319 101.262 74.7726C102.011 74.6241 102.76 74.5003 103.49 74.2837C104.22 74.0671 105 73.9619 105.699 73.6649C106.376 73.3015 107.033 72.9029 107.667 72.4706C108.365 72.1588 109.047 71.8118 109.709 71.4309C110.337 70.9964 110.943 70.5296 111.522 70.0324C112.141 69.5497 112.76 69.1041 113.28 68.5657C113.819 68.0211 114.329 67.4489 114.808 66.8516C115.297 66.2327 115.638 65.5644 116.046 64.9332C116.454 64.302 116.987 63.5903 117.346 62.9158C116.269 62.5383 116.164 63.0705 115.019 63.0705C113.874 63.0705 113.88 63.0705 112.735 63.0705C111.591 63.0705 111.591 62.9839 110.446 62.9839C109.301 62.9839 109.301 62.9839 108.156 62.9839C107.011 62.9839 107.017 62.9034 105.873 62.9034C104.728 62.9034 104.728 63.12 103.589 63.12C102.45 63.12 102.444 62.9715 101.299 62.9715H99.0097C97.8711 62.9715 97.871 62.9158 96.7262 62.9158C95.5814 62.9158 95.5814 62.9468 94.4366 62.9468C93.2917 62.9468 93.2917 62.9963 92.1469 62.9963C91.002 62.9963 91.0021 62.9591 89.8572 62.9591C88.7124 62.9591 88.7124 63.151 87.5676 63.151C86.4227 63.151 86.4227 62.8787 85.2841 62.8787C84.1454 62.8787 84.1392 62.9344 82.9944 62.9344C81.8496 62.9344 81.8495 62.9715 80.7047 62.9715C79.9437 63.018 79.1803 63.0056 78.4212 62.9344C77.2455 62.8477 77.2454 62.6868 76.1315 63.0643Z" fill="#C7C7FF"/>
<path d="M76.1315 63.0643C76.5289 63.7045 76.9586 64.3242 77.4187 64.9208C77.8457 65.5397 78.118 66.3008 78.6069 66.8887C79.0957 67.4766 79.6217 68.0397 80.1601 68.5781C80.6985 69.1165 81.3483 69.5435 81.9362 70.0324C82.524 70.5212 83.1738 70.9606 83.7927 71.3876C84.4192 71.823 85.0678 72.2258 85.7358 72.5943C86.4193 72.9307 87.1195 73.2323 87.8336 73.4978C88.5391 73.7887 89.2383 74.0733 89.9748 74.2961C90.7112 74.5189 91.4352 74.6983 92.1902 74.8469C92.9406 74.9674 93.6965 75.05 94.4552 75.0944C95.2101 75.1687 95.9589 75.4038 96.7324 75.4038C97.5059 75.4038 98.2548 75.212 99.0097 75.1377C99.7662 75.0537 100.518 74.9319 101.262 74.7726C102.011 74.6241 102.76 74.5003 103.49 74.2837C104.22 74.0671 105 73.9619 105.699 73.6649C106.376 73.3015 107.033 72.9029 107.667 72.4706C108.365 72.1588 109.047 71.8118 109.709 71.4309C110.337 70.9964 110.943 70.5296 111.522 70.0324C112.141 69.5497 112.76 69.1041 113.28 68.5657C113.819 68.0211 114.329 67.4489 114.808 66.8516C115.297 66.2327 115.638 65.5644 116.046 64.9332C116.454 64.302 116.987 63.5903 117.346 62.9158C116.269 62.5383 116.164 63.0705 115.019 63.0705C113.874 63.0705 113.88 63.0705 112.735 63.0705C111.591 63.0705 111.591 62.9839 110.446 62.9839C109.301 62.9839 109.301 62.9839 108.156 62.9839C107.011 62.9839 107.017 62.9034 105.873 62.9034C104.728 62.9034 104.728 63.12 103.589 63.12C102.45 63.12 102.444 62.9715 101.299 62.9715H99.0097C97.8711 62.9715 97.871 62.9158 96.7262 62.9158C95.5814 62.9158 95.5814 62.9468 94.4366 62.9468C93.2917 62.9468 93.2917 62.9963 92.1469 62.9963C91.002 62.9963 91.0021 62.9591 89.8572 62.9591C88.7124 62.9591 88.7124 63.151 87.5676 63.151C86.4227 63.151 86.4227 62.8787 85.2841 62.8787C84.1454 62.8787 84.1392 62.9344 82.9944 62.9344C81.8496 62.9344 81.8495 62.9715 80.7047 62.9715C79.9437 63.018 79.1803 63.0056 78.4212 62.9344C77.2455 62.8477 77.2454 62.6868 76.1315 63.0643Z" stroke="#414C58" stroke-width="0.85" stroke-miterlimit="10" stroke-linecap="round"/>
<path d="M117.411 63.5296C118.03 62.4713 116.973 62.3074 116.479 61.174C115.985 60.0405 115.917 60.0815 115.41 58.9481C114.904 57.8146 114.772 57.8897 114.278 56.7563C113.785 55.6228 113.847 55.5887 113.353 54.4552C112.859 53.3218 112.903 53.2876 112.409 52.161C111.915 51.0344 112.009 50.9866 111.515 49.8532C111.021 48.7197 110.99 48.7402 110.489 47.6068C109.989 46.4733 109.802 46.5757 109.301 45.4423C108.801 44.3088 108.92 44.2542 108.426 43.1208C107.932 41.9873 107.888 42.001 107.395 40.8744C106.901 39.7477 106.994 39.6863 106.5 38.5597C106.006 37.4331 106.05 37.4126 105.556 36.2791C105.062 35.1457 105.056 35.1457 104.556 34.0191C104.056 32.8924 103.887 32.9812 103.393 31.8478C102.899 30.7143 103.005 30.6529 102.511 29.5262C102.017 28.3996 102.067 28.3655 101.574 27.2389C101.08 26.1122 100.961 26.1601 100.498 25.0266C100.035 23.8932 99.9041 23.9478 99.4102 22.8143C98.9163 21.6809 99.1475 21.5648 98.6536 20.4314C98.1597 19.2979 98.0909 19.3252 97.597 18.1986C97.103 17.072 97.7095 16 96.5591 16C95.4086 16 95.7275 16.8535 95.5024 18.1781C95.2711 19.414 95.0272 19.2979 94.527 20.4314C94.0268 21.5648 94.1706 21.6399 93.6767 22.7734C93.1828 23.9068 93.2516 23.9341 92.7514 25.0676C92.2512 26.201 92.2262 26.1874 91.7322 27.3208C91.2383 28.4542 91.5939 27.8666 91.1 29M75.7886 63.4409C75.1633 62.3757 76.2513 62.3416 76.7515 61.2081C77.2517 60.0747 77.1578 60.0337 77.6518 58.9002C78.1457 57.7668 78.1332 57.76 78.6272 56.6334C79.1211 55.5068 79.5873 55.1334 80.1 54" stroke="#414C58" stroke-width="0.85" stroke-miterlimit="10" stroke-linecap="round"/>
<path d="M68.3838 6.46411C68.3838 7.56563 68.1177 7.56561 68.1177 8.67332C68.1177 9.78103 68.2662 9.78104 68.2662 10.8887C68.2662 11.9964 68.1672 11.9964 68.1672 13.1041C68.1672 14.2119 68.3158 14.2057 68.3158 15.3134C68.3158 16.4211 68.3776 16.4211 68.3776 17.5288C68.3776 18.6365 68.2106 18.6365 68.2106 19.7442C68.2106 20.8519 68.3838 20.8519 68.3838 21.9596C68.3838 23.0673 68.3343 23.0611 68.3343 24.1688C68.3343 25.2765 68.1672 25.2765 68.1672 26.3843C68.1672 27.492 68.1672 27.492 68.1672 28.5997C68.1672 29.7074 68.3343 29.7074 68.3343 30.8151C68.3343 31.9228 68.1425 31.9228 68.1425 33.0243C68.1425 34.1258 68.3034 34.132 68.3034 35.2397C68.3034 36.3474 68.3405 36.3474 68.3405 37.4551C68.3405 38.5628 68.0868 38.5628 68.0868 39.6705C68.0868 40.7782 68.1982 40.7782 68.1982 41.8859C68.1982 42.9936 68.1239 42.9936 68.1239 44.0952C68.1239 45.1967 68.3343 45.2029 68.3343 46.3106C68.3343 47.4183 68.0682 47.4183 68.0682 48.526C68.0682 49.6337 68.0682 49.6337 68.0682 50.7414C68.0682 51.8491 68.3529 51.8491 68.3529 52.9506C68.3529 54.0521 68.3529 54.0583 68.3529 55.166C68.3529 56.2737 68.2848 56.2737 68.2848 57.3814C68.2848 58.4892 68.093 58.4891 68.093 59.5969C68.093 60.7046 68.3096 60.7046 68.3096 61.8123C68.3096 62.92 68.3096 62.9262 68.3096 64.0339C68.3096 65.1416 68.2229 65.1416 68.2229 66.2493C68.2229 67.357 68.3467 67.357 68.3467 68.4647C68.3467 69.5724 68.1672 69.5724 68.1672 70.6801C68.1672 71.7878 68.3343 71.7878 68.3343 72.8955C68.3343 74.0032 68.1239 74.0094 68.1239 75.1171C68.1239 76.2248 68.3343 76.2248 68.3343 77.3387" stroke="#414C58" stroke-width="0.85" stroke-miterlimit="10" stroke-linecap="round"/>
<path d="M88.8052 89.2635C88.4625 88.6115 88.0865 87.9774 87.6789 87.3637C87.2519 86.7449 86.6702 86.2127 86.1875 85.6248C85.7048 85.0369 85.2036 84.4614 84.6652 83.923C84.1268 83.3847 83.7184 82.6854 83.1305 82.2089C82.5426 81.7324 81.8186 81.4044 81.1812 80.9712C79.9753 80.0201 78.6315 79.2584 77.196 78.7125C76.4967 78.4216 75.7169 78.3288 74.9805 78.0937C74.2441 77.8585 73.5696 77.4748 72.8146 77.3139C72.0596 77.153 71.2923 77.2087 70.525 77.1345C69.7576 77.0602 69.0088 77.0045 68.2353 77.0045C67.4618 77.0045 66.7068 77.0788 65.9518 77.153C65.1968 77.2273 64.4047 77.153 63.6621 77.3201C62.9195 77.4872 62.2079 77.8523 61.4839 78.0689C60.7598 78.2855 60.0234 78.5083 59.318 78.7991C58.5944 79.05 57.8839 79.3371 57.1892 79.6593C56.5147 80.0182 55.8463 80.4143 55.2089 80.8351C54.5715 81.2559 54.0703 81.8685 53.4824 82.3512C52.8873 82.8269 52.3173 83.3329 51.7744 83.8674C51.236 84.4057 50.7657 85.006 50.283 85.5939C49.8003 86.1818 49.1753 86.6707 48.7483 87.3019C48.3589 87.9184 48.0016 88.5545 47.6777 89.2078C48.7607 89.5853 48.7854 89.3687 49.9303 89.3687C51.0751 89.3687 51.0751 89.3316 52.22 89.3316C53.3648 89.3316 53.3586 89.4306 54.5034 89.4306C55.6483 89.4306 55.6483 89.3316 56.7931 89.3316C57.938 89.3316 57.9318 89.3873 59.0766 89.3873C60.2214 89.3873 60.2215 89.3254 61.3663 89.3254C62.5111 89.3254 62.5049 89.4492 63.6498 89.4492C64.7946 89.4492 64.7946 89.3687 65.9394 89.3687C67.0843 89.3687 67.0843 89.2264 68.2229 89.2264C69.3615 89.2264 69.3677 89.2264 70.5126 89.2264C71.6574 89.2264 71.6574 89.3069 72.8022 89.3069C73.9471 89.3069 73.9471 89.3069 75.0919 89.3069C76.2368 89.3069 76.2367 89.2017 77.3816 89.2017H79.6713C80.8161 89.2017 80.8161 89.2759 81.9609 89.2759C83.1058 89.2759 83.0996 89.1769 84.2445 89.1769C85.012 89.2059 85.7767 89.2844 86.5341 89.4121C87.6789 89.5358 87.7223 89.641 88.8052 89.2635Z" fill="#C7C7FF"/>
<path d="M88.8052 89.2635C88.4625 88.6115 88.0865 87.9774 87.6789 87.3637C87.2519 86.7449 86.6702 86.2127 86.1875 85.6248C85.7048 85.0369 85.2036 84.4614 84.6652 83.923C84.1268 83.3847 83.7184 82.6854 83.1305 82.2089C82.5426 81.7324 81.8186 81.4044 81.1812 80.9712C79.9753 80.0201 78.6315 79.2584 77.196 78.7125C76.4967 78.4216 75.7169 78.3288 74.9805 78.0937C74.2441 77.8585 73.5696 77.4748 72.8146 77.3139C72.0596 77.153 71.2923 77.2087 70.525 77.1345C69.7576 77.0602 69.0088 77.0045 68.2353 77.0045C67.4618 77.0045 66.7068 77.0788 65.9518 77.153C65.1968 77.2273 64.4047 77.153 63.6621 77.3201C62.9195 77.4872 62.2079 77.8523 61.4839 78.0689C60.7598 78.2855 60.0234 78.5083 59.318 78.7991C58.5944 79.05 57.8839 79.3371 57.1892 79.6593C56.5147 80.0182 55.8463 80.4143 55.2089 80.8351C54.5715 81.2559 54.0703 81.8685 53.4824 82.3512C52.8873 82.8269 52.3173 83.3329 51.7744 83.8674C51.236 84.4057 50.7657 85.006 50.283 85.5939C49.8003 86.1818 49.1753 86.6707 48.7483 87.3019C48.3589 87.9184 48.0016 88.5545 47.6777 89.2078C48.7607 89.5853 48.7854 89.3687 49.9303 89.3687C51.0751 89.3687 51.0751 89.3316 52.22 89.3316C53.3648 89.3316 53.3586 89.4306 54.5034 89.4306C55.6483 89.4306 55.6483 89.3316 56.7931 89.3316C57.938 89.3316 57.9318 89.3873 59.0766 89.3873C60.2214 89.3873 60.2215 89.3254 61.3663 89.3254C62.5111 89.3254 62.5049 89.4492 63.6498 89.4492C64.7946 89.4492 64.7946 89.3687 65.9394 89.3687C67.0843 89.3687 67.0843 89.2264 68.2229 89.2264C69.3616 89.2264 69.3677 89.2264 70.5126 89.2264C71.6574 89.2264 71.6574 89.3069 72.8022 89.3069C73.9471 89.3069 73.9471 89.3069 75.0919 89.3069C76.2368 89.3069 76.2367 89.2017 77.3816 89.2017H79.6713C80.8161 89.2017 80.8161 89.2759 81.9609 89.2759C83.1058 89.2759 83.0996 89.1769 84.2445 89.1769C85.012 89.2059 85.7767 89.2844 86.5341 89.4121C87.6789 89.5358 87.7223 89.641 88.8052 89.2635Z" stroke="#414C58" stroke-width="0.85" stroke-miterlimit="10" stroke-linecap="round"/>
<path d="M40.0414 15.6723C41.1677 15.6723 41.1677 15.629 42.294 15.629C43.4203 15.629 43.4202 15.5671 44.5465 15.5671C45.6728 15.5671 45.679 15.5671 46.8053 15.5671C47.9315 15.5671 47.9315 15.5361 49.0578 15.5361C50.1841 15.5361 50.184 15.7403 51.3165 15.7403C52.449 15.7403 52.4428 15.6166 53.5691 15.6166C54.6953 15.6166 54.6953 15.6166 55.8216 15.6166C56.9479 15.6166 56.9541 15.6908 58.0804 15.6908C59.2066 15.6908 59.2066 15.6042 60.3329 15.6042C61.4591 15.6042 61.4592 15.7094 62.5916 15.7094C63.7241 15.7094 63.7179 15.5176 64.8442 15.5176C65.9704 15.5176 65.9704 15.7032 67.0967 15.7032C68.2229 15.7032 68.223 15.5794 69.3554 15.5794C70.4879 15.5794 70.4817 15.6413 71.608 15.6413C72.7342 15.6413 72.7343 15.5856 73.8605 15.5856C74.9868 15.5856 74.993 15.6661 76.1193 15.6661C77.2455 15.6661 77.2455 15.5918 78.3717 15.5918C79.498 15.5918 79.5042 15.7898 80.6305 15.7898C81.7568 15.7898 81.7568 15.7589 82.8892 15.7589C84.0217 15.7589 84.0155 15.6475 85.1418 15.6475C86.2681 15.6475 86.2743 15.8022 87.4005 15.8022C88.5268 15.8022 88.5268 15.5856 89.6593 15.5856C90.7917 15.5856 90.7855 15.5361 91.9117 15.5361C93.038 15.5361 93.0442 15.5361 94.1767 15.5361C95.3091 15.5361 95.303 15.7218 96.4354 15.7218" stroke="#414C58" stroke-width="0.85" stroke-miterlimit="10" stroke-linecap="round"/>
<path d="M71.4346 15.6537C71.4484 16.0773 71.3751 16.4993 71.2191 16.8933C71.0631 17.2874 70.8279 17.6452 70.5279 17.9446C70.2279 18.244 69.8697 18.4786 69.4753 18.6338C69.0809 18.789 68.6589 18.8615 68.2353 18.8469C67.8035 18.8959 67.3663 18.8471 66.9559 18.7042C66.5455 18.5612 66.1726 18.3278 65.8647 18.0211C65.5569 17.7144 65.3219 17.3424 65.1774 16.9326C65.0329 16.5228 64.9824 16.0857 65.0298 15.6537C64.9769 14.7791 65.2703 13.9189 65.8466 13.2589C66.4799 12.6186 67.3352 12.2464 68.2353 12.2192C69.1108 12.3045 69.9167 12.7342 70.4755 13.4136C70.7786 13.7026 71.02 14.0502 71.1849 14.4353C71.3498 14.8203 71.4347 15.2349 71.4346 15.6537Z" fill="#E6E6E6"/>
<path d="M71.4346 15.6537C71.4484 16.0773 71.3751 16.4993 71.2191 16.8933C71.0631 17.2874 70.8279 17.6452 70.5279 17.9446C70.2279 18.244 69.8697 18.4786 69.4753 18.6338C69.0809 18.789 68.6589 18.8615 68.2353 18.8469C67.8035 18.8959 67.3663 18.8471 66.9559 18.7042C66.5455 18.5612 66.1726 18.3278 65.8647 18.0211C65.5569 17.7144 65.3219 17.3424 65.1774 16.9326C65.0329 16.5228 64.9824 16.0857 65.0298 15.6537C64.9769 14.7791 65.2703 13.9189 65.8466 13.2589C66.4799 12.6186 67.3352 12.2464 68.2353 12.2192C69.1108 12.3045 69.9167 12.7342 70.4755 13.4136C70.7786 13.7026 71.02 14.0502 71.1849 14.4353C71.3498 14.8203 71.4347 15.2349 71.4346 15.6537Z" stroke="#414C58" stroke-width="0.85" stroke-miterlimit="10" stroke-linecap="round"/>
<path d="M8.38824 89.3255C9.50214 89.3255 9.50216 89.3255 10.6099 89.3255C11.7176 89.3255 11.7237 89.3255 12.8376 89.3255C13.9515 89.3255 13.9454 89.1584 15.0593 89.1584C16.1731 89.1584 16.1669 89.4183 17.2808 89.4183C18.3947 89.4183 18.3947 89.2141 19.5086 89.2141C20.6225 89.2141 20.6163 89.3997 21.7302 89.3997C22.8441 89.3997 22.8441 89.1646 23.958 89.1646C25.0719 89.1646 25.0719 89.1646 26.1858 89.1646C27.2997 89.1646 27.2997 89.2017 28.4074 89.2017C29.5151 89.2017 29.5213 89.2017 30.6352 89.2017C31.7491 89.2017 31.7491 89.3378 32.8568 89.3378H35.0846C36.1923 89.3378 36.1923 89.1336 37.3062 89.1336C38.4201 89.1336 38.4201 89.3131 39.534 89.3131C40.6479 89.3131 40.6479 89.3564 41.7617 89.3564H43.9896C45.0973 89.3564 45.0972 89.3564 46.2111 89.3564C47.325 89.3564 47.3251 89.1707 48.4389 89.1707C49.5528 89.1707 49.5528 89.0965 50.6667 89.0965C51.7806 89.0965 51.7744 89.3007 52.8883 89.3007C54.0022 89.3007 54.0022 89.2079 55.1161 89.2079C56.23 89.2079 56.23 89.0903 57.3439 89.0903C58.4578 89.0903 58.4578 89.344 59.5717 89.344C60.6856 89.344 60.6856 89.344 61.7995 89.344C62.9134 89.344 62.9134 89.3936 64.0273 89.3936C65.1412 89.3936 65.1412 89.3193 66.2551 89.3193C67.3689 89.3193 67.3628 89.3193 68.4767 89.3193C69.5906 89.3193 69.5905 89.3812 70.7044 89.3812C71.8183 89.3812 71.8184 89.2203 72.9323 89.2203C74.0461 89.2203 74.0461 89.375 75.16 89.375C76.2739 89.375 76.2739 89.276 77.3878 89.276C78.5017 89.276 78.5017 89.276 79.6156 89.276C80.7295 89.276 80.7295 89.375 81.8434 89.375C82.9573 89.375 82.9573 89.1769 84.0712 89.1769C85.1851 89.1769 85.1851 89.2203 86.299 89.2203C87.4129 89.2203 87.4128 89.3069 88.5267 89.3069C89.6406 89.3069 89.6406 89.2512 90.7545 89.2512C91.8684 89.2512 91.8685 89.3812 92.9824 89.3812C94.0963 89.3812 94.0962 89.245 95.2101 89.245C96.324 89.245 96.324 89.245 97.4379 89.245C98.5518 89.245 98.5518 89.3007 99.6657 89.3007C100.78 89.3007 100.78 89.3502 101.893 89.3502C103.007 89.3502 103.007 89.1893 104.121 89.1893H106.349C107.463 89.1893 107.463 89.3812 108.577 89.3812C109.691 89.3812 109.691 89.2883 110.805 89.2883C111.919 89.2883 111.919 89.2883 113.039 89.2883C114.159 89.2883 114.152 89.2388 115.266 89.2388C116.38 89.2388 116.38 89.3193 117.494 89.3193C118.608 89.3193 118.608 89.4864 119.728 89.4864C120.848 89.4864 120.842 89.1955 121.956 89.1955C123.07 89.1955 123.07 89.2822 124.184 89.2822C125.298 89.2822 125.304 89.4369 126.418 89.4369C127.532 89.4369 127.538 89.3378 128.652 89.3378" stroke="#414C58" stroke-width="0.85" stroke-miterlimit="10" stroke-linecap="round"/>
<path d="M117.804 16.4459C118.064 17.2752 117.989 17.2999 118.243 18.123C118.404 18.7117 118.708 19.2516 119.128 19.6948C119.566 20.1217 120.101 20.436 120.687 20.6107C121.517 20.8644 121.461 21.0376 122.29 21.2914C122.637 21.4028 122.699 21.7988 122.346 21.9102C121.523 22.1639 121.541 22.2382 120.718 22.4981C120.143 22.6604 119.617 22.9647 119.19 23.383C118.735 23.7874 118.386 24.2974 118.175 24.8682C117.921 25.6974 117.977 25.7098 117.717 26.5391C117.69 26.617 117.64 26.6845 117.572 26.7324C117.505 26.7802 117.425 26.8059 117.343 26.8059C117.26 26.8059 117.18 26.7802 117.113 26.7324C117.046 26.6845 116.995 26.617 116.968 26.5391C116.714 25.7098 116.554 25.7593 116.3 24.9363C116.174 24.3427 115.907 23.7885 115.52 23.3211C115.085 22.8812 114.55 22.5523 113.961 22.362C113.131 22.1082 113.144 22.0649 112.321 21.8112C111.968 21.6998 111.906 21.1552 112.259 21.0438C113.088 20.7839 113.119 20.8891 113.942 20.6354C115.055 20.1601 115.942 19.2733 116.417 18.1601C116.671 17.3309 116.665 17.3309 116.925 16.5016C117.036 16.1303 117.698 16.0994 117.804 16.4459Z" fill="#8180FF"/>
<path d="M117.804 16.4459C118.064 17.2752 117.989 17.2999 118.243 18.123C118.404 18.7117 118.708 19.2516 119.128 19.6948C119.566 20.1217 120.101 20.436 120.687 20.6107C121.517 20.8644 121.461 21.0376 122.29 21.2914C122.637 21.4028 122.699 21.7988 122.346 21.9102C121.523 22.1639 121.541 22.2382 120.718 22.4981C120.143 22.6604 119.617 22.9647 119.19 23.383C118.735 23.7874 118.386 24.2974 118.175 24.8682C117.921 25.6974 117.977 25.7098 117.717 26.5391C117.69 26.617 117.64 26.6845 117.572 26.7324C117.505 26.7802 117.425 26.8059 117.343 26.8059C117.26 26.8059 117.18 26.7802 117.113 26.7324C117.046 26.6845 116.995 26.617 116.968 26.5391C116.714 25.7098 116.554 25.7593 116.3 24.9363C116.174 24.3427 115.907 23.7885 115.52 23.3211C115.085 22.8812 114.55 22.5523 113.961 22.362C113.131 22.1082 113.144 22.0649 112.321 21.8112C111.968 21.6998 111.906 21.1552 112.259 21.0438C113.088 20.7839 113.119 20.8891 113.942 20.6354C115.055 20.1601 115.942 19.2733 116.417 18.1601C116.671 17.3309 116.665 17.3309 116.925 16.5016C117.036 16.1303 117.698 16.0994 117.804 16.4459Z" stroke="#414C58" stroke-width="0.85" stroke-miterlimit="10" stroke-linecap="round"/>
<path d="M63.1918 62.2351C62.0779 62.2351 62.0779 62.2351 60.964 62.2351C59.8502 62.2351 59.8502 62.2784 58.7363 62.2846C57.6224 62.2908 57.6224 62.4579 56.5085 62.4641C55.3946 62.4703 55.3946 62.2475 54.2807 62.2537C53.1668 62.2599 53.1668 62.396 52.0591 62.4022C50.9514 62.4084 50.9452 62.4764 49.8313 62.4826C48.7174 62.4888 48.7174 62.5693 47.6035 62.5755C46.4896 62.5816 46.4896 62.4269 45.3757 62.4331C44.2618 62.4393 44.2618 62.3403 43.1479 62.3465C42.034 62.3527 42.034 62.4331 40.9201 62.4393C39.8062 62.4455 39.8062 62.6126 38.6924 62.6188C37.5785 62.625 37.5784 62.5136 36.4645 62.5198C35.3506 62.526 35.3507 62.3898 34.2368 62.396C33.1229 62.4022 33.1229 62.5136 32.009 62.5198H29.7812C28.6673 62.5198 28.6673 62.5631 27.5534 62.5693C26.4395 62.5755 26.4395 62.693 25.3194 62.6992C24.1994 62.7054 24.2055 62.6992 23.0916 62.6992C21.9777 62.6992 21.9777 62.6559 20.8577 62.6621C19.7376 62.6683 19.7438 62.4888 18.6237 62.495C18.5123 62.495 18.5494 62.495 18.5494 62.3836C18.5494 61.2945 18.3576 61.2945 18.3514 60.1992C18.3452 59.1038 18.4071 59.1038 18.4009 58.0085C18.3947 56.9132 18.5061 56.9132 18.4999 55.8178C18.4937 54.7225 18.2276 54.7225 18.2214 53.6272C18.2153 52.5319 18.2214 52.5318 18.2214 51.4303C18.2214 50.3288 18.4999 50.335 18.4999 49.2397C18.4999 48.1443 18.2771 48.1443 18.271 47.049C18.2648 45.9537 18.271 45.9537 18.271 44.8522C18.271 43.7507 18.271 43.7568 18.271 42.6615C18.271 41.5662 18.172 41.5662 18.1658 40.4708C18.1596 39.3755 18.1658 39.3755 18.1658 38.2802C18.1658 37.1849 18.4195 37.1787 18.4133 36.0833C18.4071 34.988 18.2833 34.9818 18.2772 33.8865C18.271 32.7912 18.1472 32.785 18.141 31.6896C18.141 31.5721 18.3761 31.5102 18.4875 31.5102H20.7153C21.8292 31.5102 21.8292 31.5102 22.9431 31.4792C24.057 31.4483 24.057 31.3802 25.1709 31.3741C26.2848 31.3679 26.2848 31.3307 27.3987 31.3245C28.5126 31.3183 28.5126 31.4545 29.6203 31.4483C30.728 31.4421 30.7342 31.3679 31.8481 31.3617C32.962 31.3555 32.962 31.3617 34.0759 31.3617C35.1898 31.3617 35.1898 31.4112 36.3037 31.405C37.4176 31.3988 37.4176 31.4854 38.5315 31.4792C39.6453 31.4731 39.6453 31.4421 40.7592 31.4359C41.8731 31.4297 41.8731 31.4359 42.987 31.405C44.1009 31.374 44.1009 31.2255 45.2148 31.2193H47.4426C48.5565 31.2193 48.5565 31.2193 49.6704 31.2193C50.7843 31.2193 50.7843 31.3988 51.8982 31.3926C53.0121 31.3864 53.0121 31.1575 54.126 31.1513C55.2399 31.1451 55.2461 31.306 56.3599 31.2998C57.4738 31.2936 57.4738 31.1327 58.5877 31.1265C59.7016 31.1203 59.7016 31.176 60.8217 31.1698C61.9418 31.1636 61.9356 31.1203 63.0557 31.1141C63.1671 31.1141 63.1609 31.3369 63.1609 31.4545C63.1609 32.5436 63.2042 32.5436 63.2104 33.639C63.2166 34.7343 63.1547 34.7343 63.1609 35.8296C63.1671 36.9249 63.2104 36.925 63.2166 38.0203C63.2228 39.1156 63.3651 39.1156 63.3713 40.2171C63.3775 41.3186 63.2228 41.3125 63.2289 42.4078C63.2351 43.5031 63.2289 43.5031 63.2289 44.5984C63.2289 45.6938 63.4765 45.6938 63.4827 46.7891C63.4889 47.8844 63.2166 47.8906 63.2228 48.986C63.229 50.0813 63.4765 50.0813 63.4827 51.1766V53.3673C63.4827 54.4626 63.3527 54.4626 63.3589 55.5641C63.3651 56.6656 63.4332 56.6594 63.4394 57.7548C63.4456 58.8501 63.5384 58.8501 63.5446 59.9516C63.5507 61.0531 63.3589 61.0531 63.3651 62.1485C63.328 62.2537 63.3032 62.2351 63.1918 62.2351Z" fill="#69B3FF"/>
<path d="M62.6411 31.6897L60.9455 33.0697C60.0977 33.7566 60.0606 33.6885 59.2128 34.394C58.365 35.0994 58.3835 35.0994 57.5296 35.7863C56.6756 36.4733 56.6446 36.4052 55.7968 37.1107C54.949 37.8161 54.9181 37.7604 54.0703 38.4473C53.2225 39.1342 53.3277 39.2704 52.4799 39.9573C51.6321 40.6442 51.6569 40.6751 50.8091 41.3558C49.9613 42.0365 49.8251 41.8818 48.9526 42.5935C48.08 43.3051 48.1295 43.3175 47.2817 44.0044C46.4339 44.6913 46.4092 44.6604 45.5552 45.3473C44.7012 46.0342 44.8931 46.2631 44.0391 46.95C43.1851 47.637 43.0984 47.5256 42.2506 48.1877C41.8428 48.5157 41.3352 48.6945 40.8119 48.6945C40.2885 48.6945 39.7809 48.5157 39.3731 48.1877C38.5191 47.5132 38.5872 47.4265 37.727 46.752C36.8668 46.0775 36.7307 46.257 35.8705 45.5762C35.0103 44.8955 35.1588 44.7223 34.3048 44.0477C33.4509 43.3732 33.457 43.3546 32.6031 42.6739C31.7491 41.9932 31.7243 42.0551 30.8641 41.3496C30.004 40.6442 29.905 40.8051 29.0448 40.112C28.1846 39.4189 28.3332 39.258 27.4792 38.5773C26.6252 37.8966 26.5385 38.008 25.6783 37.3396C24.8182 36.6713 24.7811 36.7208 23.9271 36.0339C23.0731 35.347 23.0174 35.415 22.1572 34.7405C21.297 34.066 21.396 33.9484 20.5359 33.2677C19.6757 32.587 19.7438 32.5066 18.8836 31.832" fill="#69B3FF"/>
<path d="M62.6411 31.6897L60.9455 33.0697C60.0977 33.7566 60.0606 33.6885 59.2128 34.394C58.365 35.0994 58.3835 35.0994 57.5296 35.7863C56.6756 36.4733 56.6446 36.4052 55.7968 37.1107C54.949 37.8161 54.9181 37.7604 54.0703 38.4473C53.2225 39.1342 53.3277 39.2704 52.4799 39.9573C51.6321 40.6442 51.6569 40.6751 50.8091 41.3558C49.9613 42.0365 49.8251 41.8818 48.9526 42.5935C48.08 43.3051 48.1295 43.3175 47.2817 44.0044C46.4339 44.6913 46.4092 44.6604 45.5552 45.3473C44.7012 46.0342 44.8931 46.2631 44.0391 46.95C43.1851 47.637 43.0984 47.5256 42.2506 48.1877C41.8428 48.5157 41.3352 48.6945 40.8119 48.6945C40.2885 48.6945 39.7809 48.5157 39.3731 48.1877C38.5191 47.5132 38.5872 47.4265 37.727 46.752C36.8668 46.0775 36.7307 46.257 35.8705 45.5762C35.0103 44.8955 35.1588 44.7223 34.3048 44.0477C33.4509 43.3732 33.457 43.3546 32.6031 42.6739C31.7491 41.9932 31.7243 42.0551 30.8641 41.3496C30.004 40.6442 29.905 40.8051 29.0448 40.112C28.1846 39.4189 28.3332 39.258 27.4792 38.5773C26.6252 37.8966 26.5385 38.008 25.6783 37.3396C24.8182 36.6713 24.7811 36.7208 23.9271 36.0339C23.0731 35.347 23.0174 35.415 22.1572 34.7405C21.297 34.066 21.396 33.9484 20.5359 33.2677C19.6757 32.587 19.7438 32.5066 18.8836 31.832" stroke="#4F86BF" stroke-width="0.85" stroke-miterlimit="10" stroke-linecap="round"/>
<path d="M18.4195 62.588C19.2116 61.8082 19.2982 61.8949 20.0903 61.1152C20.8824 60.3354 20.802 60.255 21.6003 59.4752C22.3986 58.6955 22.4357 58.7389 23.2278 57.9591C24.0199 57.1794 24.0632 57.2227 24.8553 56.443L26.4395 54.8897C27.2316 54.11 27.0583 53.9553 27.8752 53.1756L29.4656 51.6223C30.2639 50.8364 30.3134 50.8921 31.1055 50.1124L32.6959 48.5467C33.488 47.767 33.5251 47.8041 34.3234 47.0244C35.1217 46.2447 35.1031 46.2199 35.8953 45.4402" stroke="#4F86BF" stroke-width="0.85" stroke-miterlimit="10" stroke-linecap="round"/>
<path d="M63.4641 62.2785C62.6597 61.5111 62.6102 61.5606 61.8119 60.7871C61.0136 60.0136 61.0631 59.9579 60.2648 59.1905C59.4665 58.4232 59.4541 58.4294 58.6497 57.6558C57.8452 56.8823 57.7152 57.037 56.9169 56.2511C56.1186 55.4651 56.2115 55.3847 55.407 54.6112C54.6025 53.8376 54.4911 53.9614 53.6928 53.1879C52.8945 52.4143 52.9316 52.371 52.1334 51.5975C51.3351 50.8239 51.3846 50.7744 50.5801 50.0009C49.7756 49.2273 49.8685 49.1345 49.064 48.361C48.2595 47.5874 48.1852 47.6679 47.3807 46.8944C46.5763 46.1208 46.6196 46.0775 45.8151 45.304" stroke="#4F86BF" stroke-width="0.85" stroke-miterlimit="10" stroke-linecap="round"/>
<path d="M45.0121 26.9155C44.5282 25.8099 44.5037 25.83 44.0136 24.7176C43.5236 23.6053 43.5235 23.612 43.0335 22.4997C42.5434 21.3874 42.4883 21.4209 42.0043 20.3086C41.5204 19.1962 41.4776 19.2096 40.9936 18.104C40.5097 16.9984 41.1651 16 40.0441 16C38.9108 16.0067 39.2661 16.9314 39.0395 18.1442C38.8128 19.3571 38.6352 19.29 38.1512 20.4024C37.6673 21.5147 37.5938 21.4745 37.1037 22.5868C36.6136 23.6991 36.632 23.7058 36.1481 24.8182C35.6641 25.9305 35.5906 25.8903 35.1067 27.0026C34.6228 28.1149 34.6472 28.135 34.1633 29.2406C33.6794 30.3463 33.759 30.3932 33.275 31.5055C32.7911 32.6178 32.8708 32.658 32.3868 33.7703C31.9029 34.8827 31.811 34.829 31.327 35.9414C30.8431 37.0537 30.7635 37.0135 30.2795 38.1258C29.7956 39.2381 29.7895 39.2314 29.3055 40.3438C28.8216 41.4561 28.9625 41.5231 28.4724 42.6354C27.9824 43.7477 27.7863 43.6405 27.3024 44.7528C26.8184 45.8652 26.9961 45.959 26.506 47.0646C26.0159 48.1702 26.0221 48.1836 25.5627 49.2959C25.1032 50.4083 24.9746 50.3613 24.4906 51.467C24.0067 52.5726 23.9638 52.5458 23.4799 53.6581C22.9959 54.7704 23.1062 54.824 22.6223 55.9364C22.1383 57.0487 22.1751 57.0755 21.6911 58.1811C21.2072 59.2867 21.2562 59.3068 20.7661 60.4191C20.2761 61.5315 19.1673 61.4645 19.7799 62.5098" stroke="#414C58" stroke-width="0.85" stroke-miterlimit="10" stroke-linecap="round"/>
</svg>
